<?xml version="1.0" standalone="no"?>
<!DOCTYPE svg PUBLIC "-//W3C//DTD SVG 1.1//EN" "http://www.w3.org/Graphics/SVG/1.1/DTD/svg11.dtd" >
<svg xmlns="http://www.w3.org/2000/svg" xmlns:xlink="http://www.w3.org/1999/xlink" version="1.1">
<metadata>
Created by FontForge 20170731 at Sat Mar 28 19:08:53 2020
 By Aleksey,,,
Copyright 2015 Google LLC. All Rights Reserved.
</metadata>
<defs>
<font id="GoogleSans-LightItalic" horiz-adv-x="0" >
  <font-face 
    font-family="Google Sans"
    font-weight="300"
    font-style="italic"
    font-stretch="normal"
    units-per-em="1000"
    panose-1="2 11 5 3 3 5 2 4 2 4"
    ascent="800"
    descent="-200"
    x-height="490"
    cap-height="696"
    bbox="-432 -289 3261 1054"
    underline-thickness="84"
    underline-position="-328"
    slope="-10"
    unicode-range="U+0002-FFFD"
  />
<missing-glyph 
 />
    <glyph glyph-name="G_l_o_g_o_l_i_g_a_t_u_r_e.liga" unicode="Glogoligature" horiz-adv-x="841" 
d="M248 38q-94 54 -149 146t-55 200t55 200t149 146t202 54q159 0 267 -103l-65 -65q-81 76 -202 76q-84 0 -153.5 -41.5t-110 -112t-40.5 -154.5t40.5 -154.5t110 -112t153.5 -41.5q74 0 125.5 24t88.5 61q51 51 65 158h-269v92h359q4 -21 4 -60q0 -69 -22.5 -137.5
t-71.5 -117.5q-107 -112 -279 -112q-108 0 -202 54z" />
    <glyph glyph-name="e_l_o_g_o_l_i_g_a_t_u_r_e.liga" unicode="elogoligature" horiz-adv-x="491" 
d="M150 17.5q-58 33.5 -90.5 92t-32.5 128.5q0 74 32 132t87 90t120 32q87 0 140.5 -51t76.5 -111l8 -21l-354 -146q49 -95 142 -95q85 0 133 69l73 -49q-23 -35 -76 -69.5t-130 -34.5q-71 0 -129 33.5zM336.5 393q-29.5 17 -66.5 17q-34 0 -69 -19.5t-57.5 -56.5
t-21.5 -103l259 108q-15 37 -44.5 54z" />
    <glyph glyph-name="g_l_o_g_o_l_i_g_a_t_u_r_e.liga" unicode="glogoligature" horiz-adv-x="546" 
d="M124.5 -208q-57.5 45 -78.5 96l83 34q13 -31 49 -61t89 -30q70 0 110.5 43t40.5 122v48h-19q-22 -28 -56.5 -44t-77.5 -16q-63 0 -119 33.5t-90 92t-34 127.5q0 70 34 128.5t90.5 92.5t118.5 34q43 0 77.5 -16t56.5 -43h19v43h90v-464q0 -134 -67.5 -199.5t-173.5 -65.5
q-85 0 -142.5 45zM352 90q35 22 54.5 61t19.5 86q0 48 -19.5 87t-54.5 61.5t-77 22.5q-43 0 -79 -22.5t-57 -61.5t-21 -87t21.5 -86.5t57 -60.5t78.5 -22q42 0 77 22z" />
    <glyph glyph-name="l_l_o_g_o_l_i_g_a_t_u_r_e.liga" unicode="llogoligature" horiz-adv-x="167" 
d="M42 0v756h96v-756h-96z" />
    <glyph glyph-name="o_l_o_g_o_l_i_g_a_t_u_r_e.liga" unicode="ologoligature" horiz-adv-x="558" 
d="M149 17q-59 33 -93 91.5t-34 129.5q0 72 34 130.5t93 91t128 32.5t128 -32.5t93 -91t34 -130.5q0 -71 -34 -129.5t-93 -91.5t-128 -33t-128 33zM356 90q36 22 58 60.5t22 87.5t-22 87.5t-58 60.5t-79 22t-79 -22t-58 -60.5t-22 -87.5t22 -87.5t58 -60.5t79 -22t79 22z
" />
    <glyph glyph-name="f_b.liga" unicode="fb" horiz-adv-x="947" 
d="M545.5 9q-42.5 25 -65.5 67h-18l-14 -76h-59l113 643h-153q-45 0 -73.5 -24.5t-36.5 -70.5l-11 -58h130l-10 -57h-129l-76 -433h-65l76 433h-95l10 57h95l12 63q12 69 58.5 108t127.5 39h214l-36 -203l-20 -83h23q25 42 68.5 67t101.5 25t104 -29t72.5 -80.5t26.5 -118.5
q0 -79 -35.5 -146.5t-98 -107.5t-141.5 -40q-53 0 -95.5 25zM746.5 71q48.5 30 76 83t27.5 118q0 77 -45 127t-115 50q-56 0 -103 -33.5t-73.5 -88.5t-26.5 -116q0 -51 20 -89.5t55 -59.5t77 -21q59 0 107.5 30z" />
    <glyph glyph-name="f_f.liga" unicode="ff" horiz-adv-x="667" 
d="M154 433h-95l10 57h95l11 63q12 71 62 111t119 40q41 0 63 -8l-11 -62q-20 11 -62 11q-38 0 -68.5 -25.5t-38.5 -71.5l-10 -58h245l12 63q11 71 61 111t119 40q43 0 63 -8l-11 -62q-20 11 -62 11q-37 0 -67.5 -25.5t-39.5 -71.5l-10 -58h131l-10 -57h-131l-76 -433h-65
l77 433h-246l-77 -433h-64z" />
    <glyph glyph-name="f_f_b.liga" unicode="ffb" horiz-adv-x="1257" 
d="M855.5 9q-42.5 25 -65.5 67h-18l-14 -76h-59l113 643h-153q-45 0 -73.5 -24.5t-36.5 -70.5l-11 -58h130l-10 -57h-129l-76 -433h-65l76 433h-245l-77 -433h-64l76 433h-95l10 57h95l11 63q12 71 62 111t119 40q41 0 63 -8l-11 -62q-20 11 -62 11q-38 0 -68.5 -25.5
t-38.5 -71.5l-10 -58h245l12 63q12 69 58.5 108t127.5 39h214l-36 -203l-20 -83h23q25 42 68.5 67t101.5 25t104 -29t72.5 -80.5t26.5 -118.5q0 -79 -35.5 -146.5t-98 -107.5t-141.5 -40q-53 0 -95.5 25zM1056.5 71q48.5 30 76 83t27.5 118q0 77 -45 127t-115 50
q-56 0 -103 -33.5t-73.5 -88.5t-26.5 -116q0 -51 20 -89.5t55 -59.5t77 -21q59 0 107.5 30z" />
    <glyph glyph-name="f_f_h.liga" unicode="ffh" horiz-adv-x="1219" 
d="M154 433h-95l10 57h95l11 63q12 71 62 111t119 40q41 0 63 -8l-11 -62q-20 11 -62 11q-38 0 -68.5 -25.5t-38.5 -71.5l-10 -58h245l12 63q12 69 59 108t128 39h213l-36 -203l-20 -82h22q31 43 74 67t97 24q74 0 113.5 -38.5t39.5 -102.5q0 -28 -6 -66l-53 -299h-65
l53 295q5 31 5 51q0 48 -32.5 75.5t-84.5 27.5q-66 0 -116.5 -50.5t-65.5 -129.5l-48 -269h-64l113 643h-153q-45 0 -73.5 -24.5t-36.5 -70.5l-10 -58h129l-10 -57h-129l-76 -433h-64l75 433h-245l-77 -433h-64z" />
    <glyph glyph-name="f_f_i.liga" unicode="ffi" horiz-adv-x="873" 
d="M808 618q-15 15 -15 36q0 22 15 36.5t36 14.5t35.5 -15t14.5 -36t-14.5 -36t-35.5 -15t-36 15zM154 433h-95l10 57h95l11 63q12 71 62 111t119 40q41 0 63 -8l-11 -62q-20 11 -62 11q-38 0 -68.5 -25.5t-38.5 -71.5l-10 -58h245l11 63q12 71 62 111t119 40q42 0 62 -8
l-11 -62q-19 11 -62 11q-37 0 -67.5 -26t-38.5 -71l-10 -58h310l-86 -490h-64l75 433h-245l-77 -433h-64l76 433h-245l-77 -433h-64z" />
    <glyph glyph-name="f_f_j.liga" unicode="ffj" horiz-adv-x="873" 
d="M808 618q-15 15 -15 36q0 22 15 36.5t36 14.5t35.5 -15t14.5 -36t-14.5 -36t-35.5 -15t-36 15zM557 -221l10 56q-4 3 10 -0.5t25 -3.5q66 0 80 79l92 523h-245l-77 -433h-64l76 433h-245l-77 -433h-64l76 433h-95l10 57h95l11 63q12 71 62 111t119 40q41 0 63 -8l-11 -62
q-20 11 -62 11q-38 0 -68.5 -25.5t-38.5 -71.5l-10 -58h245l11 63q12 71 62 111t119 40q42 0 62 -8l-11 -62q-19 11 -62 11q-37 0 -67.5 -26t-38.5 -71l-10 -58h310l-103 -580q-13 -76 -51 -106t-99 -30q-22 0 -39 5z" />
    <glyph glyph-name="f_f_k.liga" unicode="ffk" horiz-adv-x="1163" 
d="M154 433h-95l10 57h95l11 63q12 71 62 111t119 40q41 0 63 -8l-11 -62q-20 11 -62 11q-38 0 -68.5 -25.5t-38.5 -71.5l-10 -58h245l12 63q12 69 59 108t128 39h213l-82 -465l295 255h97l3 12l-241 -205l153 -304l2 7h-84l-124 252l-115 -99l-27 -153h-64l113 643h-153
q-45 0 -73.5 -24.5t-36.5 -70.5l-10 -58h129l-10 -57h-129l-76 -433h-64l75 433h-245l-77 -433h-64z" />
    <glyph glyph-name="f_f_l.liga" unicode="ffl" horiz-adv-x="868" 
d="M154 433h-95l10 57h95l11 63q12 71 62 111t119 40q41 0 63 -8l-11 -62q-20 11 -62 11q-38 0 -68.5 -25.5t-38.5 -71.5l-10 -58h245l12 63q12 69 59 108t128 39h213l-123 -700h-64l113 643h-153q-45 0 -73.5 -24.5t-36.5 -70.5l-10 -58h129l-10 -57h-129l-76 -433h-64
l75 433h-245l-77 -433h-64z" />
    <glyph glyph-name="f_f_t.liga" unicode="fft" horiz-adv-x="967" 
d="M748 19.5q-30 27.5 -30 73.5q0 22 5 47l51 293h-245l-77 -433h-64l76 433h-245l-77 -433h-64l76 433h-95l10 57h95l11 63q12 71 62 111t119 40q41 0 63 -8l-11 -62q-20 11 -62 11q-38 0 -68.5 -25.5t-38.5 -71.5l-10 -58h245l11 63q12 71 62 111t119 40q42 0 62 -8
l-11 -62q-19 11 -62 11q-37 0 -67.5 -26t-38.5 -71l-10 -58h245l25 144h65l-25 -144h124l-9 -57h-125l-50 -279q-5 -29 -5 -41q0 -28 18.5 -45t48.5 -17q36 0 48 7l-10 -56q-25 -10 -62 -10q-49 0 -79 27.5z" />
    <glyph glyph-name="f_h.liga" unicode="fh" horiz-adv-x="908" 
d="M154 433h-95l10 57h95l12 63q12 69 58.5 108t127.5 39h214l-36 -203l-20 -82h22q30 43 73.5 67t97.5 24q74 0 113.5 -38.5t39.5 -102.5q0 -31 -7 -66l-52 -299h-65l53 295q5 31 5 51q0 47 -32.5 75t-84.5 28q-66 0 -116.5 -50.5t-65.5 -129.5l-48 -269h-64l113 643h-153
q-45 0 -73.5 -24.5t-36.5 -70.5l-11 -58h130l-10 -57h-129l-76 -433h-65z" />
    <glyph glyph-name="f_i.liga" unicode="fi" horiz-adv-x="563" 
d="M497.5 618q-14.5 15 -14.5 36t14.5 36t35.5 15q22 0 36.5 -14.5t14.5 -36.5q0 -21 -14.5 -36t-36.5 -15q-21 0 -35.5 15zM154 433h-95l10 57h95l11 63q12 71 62 111t119 40q41 0 63 -8l-11 -62q-20 11 -62 11q-38 0 -68.5 -25.5t-38.5 -71.5l-10 -58h310l-86 -490h-64
l75 433h-245l-77 -433h-64z" />
    <glyph glyph-name="f_j.liga" unicode="fj" horiz-adv-x="566" 
d="M247 -221l10 56q-4 3 9.5 -0.5t25.5 -3.5q66 0 80 79l92 523h-245l-77 -433h-64l76 433h-95l10 57h95l11 63q12 71 62 111t119 40q41 0 63 -8l-11 -62q-20 11 -62 11q-38 0 -68.5 -25.5t-38.5 -71.5l-10 -58h310l-103 -580q-13 -76 -51 -106t-99 -30q-22 0 -39 5z
M499 613q-15 15 -15 36q0 22 15 36.5t36 14.5t36 -15t15 -36t-15 -36t-36 -15t-36 15z" />
    <glyph glyph-name="f_k.liga" unicode="fk" horiz-adv-x="853" 
d="M154 433h-95l10 57h95l12 63q12 69 58.5 108t127.5 39h214l-82 -465l296 255h96l3 12l-241 -205l153 -304l2 7h-85l-123 252l-115 -99l-27 -153h-64l113 643h-153q-45 0 -73.5 -24.5t-36.5 -70.5l-11 -58h130l-10 -57h-129l-76 -433h-65z" />
    <glyph glyph-name="f_l.liga" unicode="fl" horiz-adv-x="558" 
d="M502 643h-153q-45 0 -73.5 -24.5t-36.5 -70.5l-11 -58h130l-10 -57h-129l-76 -433h-65l76 433h-95l10 57h95l12 63q12 69 58.5 108t127.5 39h214l-123 -700h-64z" />
    <glyph glyph-name="f_t.liga" unicode="ft" horiz-adv-x="657" 
d="M437.5 19.5q-29.5 27.5 -29.5 73.5q0 22 5 47l51 293h-245l-77 -433h-64l76 433h-95l10 57h95l11 63q12 71 62 111t119 40q41 0 63 -8l-11 -62q-20 11 -62 11q-38 0 -68.5 -25.5t-38.5 -71.5l-10 -58h245l25 144h65l-25 -144h124l-9 -57h-125l-50 -279q-5 -29 -5 -41
q0 -28 18.5 -45t48.5 -17q36 0 48 7l-10 -56q-25 -10 -63 -10q-49 0 -78.5 27.5z" />
    <glyph glyph-name="r_f.liga" unicode="rf" horiz-adv-x="749" 
d="M105 490h60l-14 -81h22q25 48 69.5 71.5t98.5 23.5q20 0 24 -1l-12 -67q-11 2 -35 2q-43 0 -83 -21t-67 -58.5t-36 -85.5l-48 -273h-65zM519 433h-92l9 57h93l11 63q11 71 60 111t117 40q40 0 62 -8l-10 -63q-21 12 -62 12q-36 0 -65.5 -25.5t-37.5 -71.5l-10 -58h127
l-9 -57h-128l-75 -433h-64z" />
    <glyph glyph-name="r_f_f.liga" unicode="rff" horiz-adv-x="1059" 
d="M105 490h60l-14 -81h22q25 48 69.5 71.5t98.5 23.5q20 0 24 -1l-12 -67q-11 2 -35 2q-43 0 -83 -21t-67 -58.5t-36 -85.5l-48 -273h-65zM523 433h-95l10 57h95l11 63q12 71 62 111t119 40q41 0 63 -8l-11 -62q-20 11 -62 11q-38 0 -68.5 -25.5t-38.5 -71.5l-10 -58h245
l12 63q11 71 61 111t119 40q43 0 63 -8l-11 -62q-20 11 -62 11q-37 0 -67.5 -25.5t-39.5 -71.5l-10 -58h131l-10 -57h-131l-76 -433h-65l77 433h-246l-77 -433h-64z" />
    <glyph glyph-name="r_t.liga" unicode="rt" horiz-adv-x="721" 
d="M501 19.5q-30 27.5 -30 73.5q0 22 5 47l52 293h-90l10 57h89l26 144h64l-25 -144h125l-10 -57h-125l-50 -279q-4 -24 -4 -41q0 -30 18.5 -46t48.5 -16q35 0 48 8l-10 -57q-25 -10 -63 -10q-49 0 -79 27.5zM105 490h60l-14 -81h22q25 48 69.5 71.5t98.5 23.5q20 0 24 -1
l-12 -67q-11 2 -35 2q-43 0 -83 -21t-67 -58.5t-36 -85.5l-48 -273h-65z" />
    <glyph glyph-name="t_f.liga" unicode="tf" horiz-adv-x="663" 
d="M122 19.5q-30 27.5 -30 73.5q0 22 5 47l52 293h-90l10 57h89l26 144h64l-25 -144h248l11 63q11 71 61 111t119 40q43 0 63 -8l-11 -61q-18 10 -62 10q-37 0 -67.5 -25.5t-39.5 -71.5l-10 -58h131l-10 -57h-131l-76 -433h-65l77 433h-248l-50 -279q-4 -24 -4 -41
q0 -30 18.5 -46t48.5 -16q35 0 48 8l-10 -57q-25 -10 -63 -10q-49 0 -79 27.5z" />
    <glyph glyph-name="t_t.liga" unicode="tt" horiz-adv-x="653" 
d="M122 19.5q-30 27.5 -30 73.5q0 22 5 47l52 293h-90l10 57h89l26 144h64l-25 -144h247l25 144h65l-26 -144h125l-10 -57h-124l-50 -279q-5 -29 -5 -41q0 -30 18.5 -46t48.5 -16q36 0 48 7l-10 -56q-25 -10 -63 -10q-49 0 -78.5 27.5t-29.5 73.5q0 22 5 47l51 293h-247
l-50 -279q-4 -24 -4 -41q0 -30 18.5 -46t48.5 -16q35 0 48 8l-10 -57q-25 -10 -63 -10q-49 0 -79 27.5z" />
    <glyph glyph-name="G_o_o_g_l_e_l_o_g_o_l_i_g_a_t_u_r_e.liga" unicode="Googlelogoligature" horiz-adv-x="3261" 
d="M248 38q-94 54 -149 146t-55 200t55 200t149 146t202 54q159 0 267 -103l-65 -65q-81 76 -202 76q-84 0 -153.5 -41.5t-110 -112t-40.5 -154.5t40.5 -154.5t110 -112t153.5 -41.5q74 0 125.5 24t88.5 61q51 51 65 158h-269v92h359q4 -21 4 -60q0 -69 -22.5 -137.5
t-71.5 -117.5q-107 -112 -279 -112q-108 0 -202 54zM2625 0v756h96v-756h-96zM1010 17q-59 33 -93 91.5t-34 129.5q0 72 34 130.5t93 91t128 32.5t128 -32.5t93 -91t34 -130.5q0 -71 -34 -129.5t-93 -91.5t-128 -33t-128 33zM1588 17q-59 33 -93 91.5t-34 129.5
q0 72 34 130.5t93 91t128 32.5t128 -32.5t93 -91t34 -130.5q0 -71 -34 -129.5t-93 -91.5t-128 -33t-128 33zM2141.5 -208q-57.5 45 -78.5 96l83 34q13 -31 49 -61t89 -30q70 0 110.5 43t40.5 122v48h-19q-22 -28 -56.5 -44t-77.5 -16q-63 0 -119 33.5t-90 92t-34 127.5
q0 70 34 128.5t90.5 92.5t118.5 34q43 0 77.5 -16t56.5 -43h19v43h90v-464q0 -134 -67.5 -199.5t-173.5 -65.5q-85 0 -142.5 45zM2920 17.5q-58 33.5 -90.5 92t-32.5 128.5q0 74 32 132t87 90t120 32q87 0 140.5 -51t76.5 -111l8 -21l-354 -146q49 -95 142 -95q85 0 133 69
l73 -49q-23 -35 -76 -69.5t-130 -34.5q-71 0 -129 33.5zM3106.5 393q-29.5 17 -66.5 17q-34 0 -69 -19.5t-57.5 -56.5t-21.5 -103l259 108q-15 37 -44.5 54zM1217 90q36 22 58 60.5t22 87.5t-22 87.5t-58 60.5t-79 22t-79 -22t-58 -60.5t-22 -87.5t22 -87.5t58 -60.5t79 -22
t79 22zM1795 90q36 22 58 60.5t22 87.5t-22 87.5t-58 60.5t-79 22t-79 -22t-58 -60.5t-22 -87.5t22 -87.5t58 -60.5t79 -22t79 22zM2369 90q35 22 54.5 61t19.5 86q0 48 -19.5 87t-54.5 61.5t-77 22.5q-43 0 -79 -22.5t-57 -61.5t-21 -87t21.5 -86.5t57 -60.5t78.5 -22
q42 0 77 22z" />
    <glyph glyph-name=".notdef" 
 />
    <glyph glyph-name=".null" 
 />
    <glyph glyph-name="nonmarkingreturn" horiz-adv-x="333" 
 />
    <glyph glyph-name="uni0002" 
 />
    <glyph glyph-name="space" unicode=" " horiz-adv-x="224" 
 />
    <glyph glyph-name="exclam" unicode="!" horiz-adv-x="216" 
d="M114 461l41 235h64l-41 -231l-53 -254h-46zM35.5 9.5q-15.5 15.5 -15.5 38.5q0 22 15.5 37.5t38.5 15.5t38.5 -15.5t15.5 -37.5q0 -23 -15.5 -38.5t-38.5 -15.5t-38.5 15.5z" />
    <glyph glyph-name="quotedbl" unicode="&#x22;" horiz-adv-x="299" 
d="M129 696h57l-35 -201h-57zM272 696h57l-35 -201h-57z" />
    <glyph glyph-name="numbersign" unicode="#" horiz-adv-x="602" 
d="M159 206h-124l10 50h122l29 161h-125l9 50h124l34 197h55l-35 -197h162l34 197h55l-35 -197h124l-9 -50h-123l-29 -161h126l-9 -50h-125l-35 -206h-55l36 206h-162l-35 -206h-55zM383 256l29 161h-162l-29 -161h162z" />
    <glyph glyph-name="dollar" unicode="$" horiz-adv-x="512" 
d="M183 -14q-73 12 -121.5 57t-56.5 108l60 23q4 -39 35.5 -76.5t93.5 -50.5l47 269q-77 34 -115.5 77t-38.5 107q0 47 25.5 85.5t73 63.5t118.5 31l15 84h51l-16 -86q64 -12 99.5 -46.5t47.5 -73.5l-63 -25q-19 62 -94 83l-45 -256q81 -38 117.5 -78.5t36.5 -101.5
q0 -83 -59 -134.5t-162 -60.5l-14 -85h-50zM294 618q-69 -6 -104.5 -36t-35.5 -84q0 -68 99 -118zM349.5 84.5q37.5 31.5 37.5 88.5q0 41 -22.5 68t-77.5 54l-44 -249q69 7 106.5 38.5z" />
    <glyph glyph-name="percent" unicode="%" horiz-adv-x="807" 
d="M123 397q-39 39 -39 100q0 50 24.5 92.5t67.5 66.5t96 24q61 0 99 -39t38 -100q0 -50 -24 -92.5t-67.5 -66.5t-95.5 -24q-60 0 -99 39zM127 23l549 644l32 -27l-548 -643zM323 439q37 39 37 96q0 45 -27.5 74t-68.5 29q-56 0 -93 -38.5t-37 -96.5q0 -45 27.5 -74
t68.5 -29q56 0 93 39zM466 23q-39 39 -39 100q0 50 24.5 92.5t67.5 66.5t96 24q61 0 99 -39t38 -100q0 -50 -24 -92.5t-67.5 -66.5t-95.5 -24q-60 0 -99 39zM666 65q37 39 37 96q0 45 -27.5 74t-68.5 29q-56 0 -93 -38.5t-37 -96.5q0 -45 27.5 -74t68.5 -29q56 0 93 39z" />
    <glyph glyph-name="ampersand" unicode="&#x26;" horiz-adv-x="604" 
d="M143 9.5q-48 25.5 -75.5 72.5t-27.5 109q0 77 40.5 137.5t129.5 104.5l-5 12q-32 55 -32 105q0 41 20.5 78.5t60 60.5t92.5 23q62 0 99 -31.5t50 -78.5l-64 -26q-19 75 -94 75q-41 0 -69 -28.5t-28 -72.5q0 -38 25 -83l184 -313l83 121l40 -29l-96 -138l53 -89l-56 -32
l-41 70q-85 -73 -183 -73q-58 0 -106 25.5zM405 103l-167 285q-66 -31 -102.5 -79.5t-36.5 -113.5q0 -42 20.5 -77t56.5 -56t82 -21q84 0 147 62z" />
    <glyph glyph-name="quotesingle" unicode="'" horiz-adv-x="156" 
d="M129 696h57l-35 -201h-57z" />
    <glyph glyph-name="parenleft" unicode="(" horiz-adv-x="298" 
d="M95 27.5q-33 97.5 -33 212.5q0 151 72 289t185 228l34 -32q-105 -98 -165.5 -222t-60.5 -278q0 -180 90 -324l-46 -33q-43 62 -76 159.5z" />
    <glyph glyph-name="parenright" unicode=")" horiz-adv-x="298" 
d="M-37 -101q105 98 165.5 222t60.5 278q0 180 -90 324l46 33q43 -62 76 -159.5t33 -212.5q0 -151 -72 -289t-185 -228z" />
    <glyph glyph-name="asterisk" unicode="*" horiz-adv-x="403" 
d="M105 412l94 100l-3 18l-98 37l20 45l99 -38l15 5l20 117h50l-20 -116l17 -6l100 35l15 -46l-111 -41l-9 -15l56 -96l-48 -31l-54 97h-17l-89 -97z" />
    <glyph glyph-name="plus" unicode="+" horiz-adv-x="534" 
d="M240 236h-182l8 50h182l32 182h51l-33 -182h183l-8 -50h-183l-32 -182h-50z" />
    <glyph glyph-name="comma" unicode="," horiz-adv-x="200" 
d="M55 -6q-24 9 -34 22t-10 32q0 23 15.5 38t36.5 15q23 0 39 -15t16 -38q0 -12 -8 -24.5t-29 -38.5l-76 -91l-20 16z" />
    <glyph glyph-name="hyphen" unicode="-" horiz-adv-x="403" 
d="M364 325l-8 -50h-298l8 50h298z" />
    <glyph glyph-name="period" unicode="." horiz-adv-x="201" 
d="M27.5 9.5q-15.5 15.5 -15.5 38.5q0 22 15.5 37.5t38.5 15.5q22 0 37.5 -15.5t15.5 -37.5q0 -23 -15.5 -38.5t-37.5 -15.5q-23 0 -38.5 15.5z" />
    <glyph glyph-name="slash" unicode="/" horiz-adv-x="268" 
d="M291 696h56l-334 -696h-56z" />
    <glyph glyph-name="zero" unicode="0" horiz-adv-x="625" 
d="M159 18.5q-49 34.5 -76 99t-27 151.5q0 108 42.5 203t116 151.5t164.5 56.5q103 0 161.5 -75t58.5 -209q0 -109 -42.5 -204t-117 -151.5t-165.5 -56.5q-66 0 -115 34.5zM405.5 93q57.5 48 91.5 127t34 169q0 106 -41 168t-121 62q-64 0 -120.5 -49.5t-91 -128.5
t-34.5 -166q0 -107 42 -168.5t117 -61.5q66 0 123.5 48z" />
    <glyph glyph-name="one" unicode="1" horiz-adv-x="354" 
d="M263 575l-138 -92l-29 48l206 133h41l-117 -664h-64z" />
    <glyph glyph-name="two" unicode="2" horiz-adv-x="503" 
d="M13 70q225 193 293 255q41 36 64 60t38 53.5t15 64.5q0 52 -33.5 84t-91.5 32q-57 0 -94.5 -34t-48.5 -65l-57 25q18 50 72 92.5t139 42.5q53 0 94.5 -22t64.5 -59t23 -83t-18.5 -84.5t-48.5 -71.5t-79 -75l-259 -224h336l-10 -61h-411z" />
    <glyph glyph-name="three" unicode="3" horiz-adv-x="515" 
d="M127 2q-43 18 -71.5 55t-34.5 82l63 24q6 -48 44.5 -83t98.5 -35q70 0 117.5 40t47.5 108q0 60 -37.5 93t-97.5 33h-47l10 59h46q72 0 115 35t43 97q0 49 -35 79t-86 30q-54 0 -88.5 -29t-50.5 -63l-57 27q21 51 73 88.5t132 37.5q52 0 92.5 -20.5t63.5 -56t23 -79.5
q0 -59 -31 -99t-90 -64v-17q41 -19 65.5 -55.5t24.5 -85.5q0 -65 -33 -115t-88.5 -77t-121.5 -27q-47 0 -90 18z" />
    <glyph glyph-name="four" unicode="4" horiz-adv-x="568" 
d="M353 147h-328l8 50l395 467h80l-80 -457h88l-10 -60h-88l-27 -147h-64zM363 207l63 352h-21l-292 -352h250z" />
    <glyph glyph-name="five" unicode="5" horiz-adv-x="540" 
d="M135.5 4q-43.5 20 -73 60t-33.5 88l61 23q4 -50 41.5 -90t98.5 -40q51 0 94 22t68 62t25 91q0 64 -37.5 103.5t-100.5 39.5q-38 0 -74 -17.5t-58 -42.5l-65 31l99 330h336l-10 -61h-284l-70 -224l19 -5q61 46 129 46q82 0 132 -51t50 -140q0 -66 -32.5 -122.5
t-91.5 -89.5t-134 -33q-46 0 -89.5 20z" />
    <glyph glyph-name="six" unicode="6" horiz-adv-x="538" 
d="M135 9.5q-47 25.5 -74 71t-27 101.5q0 60 26.5 109.5t89.5 119.5l231 265l44 -34l-206 -236l14 -14q42 22 78 22q49 0 89 -24.5t63.5 -69t23.5 -100.5q0 -70 -34 -123.5t-90.5 -83t-123.5 -29.5q-57 0 -104 25.5zM335.5 66q39.5 21 62.5 59.5t23 87.5q0 64 -41 104.5
t-106 40.5q-50 0 -89 -23.5t-61.5 -62.5t-22.5 -87q0 -60 43 -100t103 -40q49 0 88.5 21z" />
    <glyph glyph-name="seven" unicode="7" horiz-adv-x="503" 
d="M40 25l419 578h-355l11 61h418l-11 -73l-434 -603z" />
    <glyph glyph-name="eight" unicode="8" horiz-adv-x="532" 
d="M121.5 7q-44.5 23 -68.5 61.5t-24 85.5q0 63 38.5 112t106.5 76l4 15q-69 55 -69 126q0 52 29.5 97.5t81 72.5t115.5 27q79 0 126.5 -43t47.5 -115q0 -58 -32.5 -98.5t-85.5 -64.5l-4 -16q43 -22 66.5 -59t23.5 -81q0 -64 -35 -114t-93 -77.5t-125 -27.5q-58 0 -102.5 23
zM368.5 395q34.5 17 54.5 46.5t20 64.5q0 52 -33 82.5t-85 30.5q-62 0 -105.5 -36.5t-43.5 -95.5q0 -48 33.5 -78.5t84.5 -30.5q40 0 74.5 17zM316.5 63.5q40.5 18.5 67 53.5t26.5 81q0 54 -39.5 87.5t-98.5 33.5q-44 0 -84.5 -19.5t-65.5 -55.5t-25 -83q0 -52 38.5 -84
t96.5 -32q44 0 84.5 18.5z" />
    <glyph glyph-name="nine" unicode="9" horiz-adv-x="537" 
d="M143 22l206 236l-14 14q-42 -22 -75 -22q-49 0 -90 25t-65 69.5t-24 99.5q0 70 34 123.5t90.5 83t123.5 29.5q57 0 104 -25.5t74 -71t27 -101.5q0 -60 -26.5 -109.5t-89.5 -119.5l-230 -265zM383 329.5q39 23.5 61.5 62.5t22.5 87q0 40 -20 72t-53 50t-72 18
q-48 0 -88 -21t-63.5 -59.5t-23.5 -87.5q0 -64 41.5 -104.5t105.5 -40.5q50 0 89 23.5z" />
    <glyph glyph-name="colon" unicode=":" horiz-adv-x="218" 
d="M105.5 403.5q-15.5 15.5 -15.5 38.5t15.5 38.5t38.5 15.5q22 0 37.5 -15.5t15.5 -38.5t-15.5 -38.5t-37.5 -15.5q-23 0 -38.5 15.5zM35.5 9.5q-15.5 15.5 -15.5 38.5q0 22 15.5 37.5t38.5 15.5q22 0 37.5 -15.5t15.5 -37.5q0 -23 -15.5 -38.5t-37.5 -15.5
q-23 0 -38.5 15.5z" />
    <glyph glyph-name="semicolon" unicode=";" horiz-adv-x="222" 
d="M101.5 403.5q-15.5 15.5 -15.5 38.5t15.5 38.5t37.5 15.5q23 0 38.5 -15.5t15.5 -38.5t-15.5 -38.5t-38.5 -15.5q-22 0 -37.5 15.5zM-2 -73l70 83q-24 9 -34 22t-10 32q0 23 15.5 38.5t36.5 15.5q23 0 39 -15t16 -38q0 -12 -8 -24.5t-29 -38.5l-76 -91z" />
    <glyph glyph-name="less" unicode="&#x3c;" horiz-adv-x="473" 
d="M53 236l8 49l395 174l-10 -58l-315 -134l-5 -16l269 -138l-9 -52z" />
    <glyph glyph-name="equal" unicode="=" horiz-adv-x="544" 
d="M91 429h426l-8 -50h-426zM58 239h426l-9 -50h-426z" />
    <glyph glyph-name="greater" unicode="&#x3e;" horiz-adv-x="473" 
d="M34 121l315 134l5 16l-270 137l10 53l332 -175l-8 -49l-394 -174z" />
    <glyph glyph-name="question" unicode="?" horiz-adv-x="481" 
d="M199 247q8 50 30 81t81 75q46 34 74 67.5t28 76.5q0 47 -32.5 75.5t-84.5 28.5q-54 0 -91 -30t-48 -65l-55 24q18 54 71 93t135 39q50 0 89.5 -21t61.5 -55.5t22 -76.5q0 -56 -32 -98t-95 -90q-40 -31 -60.5 -59.5t-28.5 -66.5l-5 -34h-66zM158.5 9.5
q-15.5 15.5 -15.5 38.5q0 22 15.5 37.5t37.5 15.5q23 0 38.5 -15.5t15.5 -37.5q0 -23 -15.5 -38.5t-38.5 -15.5q-22 0 -37.5 15.5z" />
    <glyph glyph-name="at" unicode="@" horiz-adv-x="864" 
d="M218.5 -37q-76.5 45 -119 122.5t-42.5 168.5q0 115 56.5 210.5t156.5 150.5t223 55q92 0 168.5 -40.5t121.5 -112.5t45 -165q0 -68 -21.5 -127t-60.5 -94t-90 -35q-36 0 -60.5 18.5t-39.5 70.5q-37 -51 -74.5 -70t-79.5 -19t-79 21t-59 59.5t-22 87.5q0 54 25.5 105
t74 83t114.5 32q40 0 70.5 -16.5t47.5 -45.5h18l9 48h47l-44 -249q-2 -15 -2 -24q0 -24 15.5 -42t45.5 -18q37 0 63 32t40 80.5t14 99.5q0 82 -38 144t-106.5 96t-155.5 34q-105 0 -189.5 -48t-133 -131t-48.5 -186q0 -84 38.5 -150.5t104 -104.5t144.5 -38q78 0 130 24
l16 -43q-63 -28 -153 -28q-94 0 -170.5 45zM497 168q35 22 55 59t20 82q0 57 -33 91t-88 34q-45 0 -80 -22.5t-54 -61t-19 -83.5q0 -57 34.5 -89t87.5 -32q42 0 77 22z" />
    <glyph glyph-name="A" unicode="A" horiz-adv-x="640" 
d="M356 696h82l141 -696h-70l-36 197h-323l-108 -197h-72zM461 257l-52 270l-16 85h-18l-194 -355h280z" />
    <glyph glyph-name="B" unicode="B" horiz-adv-x="583" 
d="M157 696h236q54 0 94.5 -22t61.5 -59.5t21 -81.5q0 -59 -35 -101t-91 -62l-5 -17q98 -50 98 -145q0 -57 -32 -104.5t-87.5 -75.5t-124.5 -28h-259zM351 386q65 0 109 36t44 98q0 49 -31.5 82t-86.5 33h-175l-45 -249h185zM311 61q39 0 76 17t60 50t23 78q0 54 -35.5 87
t-94.5 33h-184l-47 -265h202z" />
    <glyph glyph-name="C" unicode="C" horiz-adv-x="717" 
d="M203.5 22.5q-69.5 38.5 -108.5 109.5t-39 164q0 107 55.5 203.5t152.5 154.5t215 58q79 0 141.5 -32.5t90.5 -75.5l-53 -43q-28 42 -76 66t-113 24q-94 0 -173.5 -49.5t-126 -130t-46.5 -171.5q0 -76 32.5 -133.5t88.5 -89.5t126 -32q75 0 132.5 28t106.5 76l42 -47
q-60 -58 -129 -88t-161 -30q-88 0 -157.5 38.5z" />
    <glyph glyph-name="D" unicode="D" horiz-adv-x="681" 
d="M157 696h208q94 0 160.5 -38.5t101 -105.5t34.5 -154q0 -106 -49.5 -197.5t-143.5 -146t-220 -54.5h-214zM253 61q96 0 174 44t122.5 119.5t44.5 167.5q0 117 -64.5 180t-179.5 63h-139l-102 -574h144z" />
    <glyph glyph-name="E" unicode="E" horiz-adv-x="526" 
d="M157 696h394l-10 -61h-330l-46 -257h298l-10 -60h-298l-46 -257h330l-11 -61h-394z" />
    <glyph glyph-name="F" unicode="F" horiz-adv-x="506" 
d="M157 696h394l-10 -61h-330l-47 -265h298l-10 -60h-298l-56 -310h-64z" />
    <glyph glyph-name="G" unicode="G" horiz-adv-x="794" 
d="M215 22.5q-71 38.5 -114 111.5t-43 169q0 110 54 204t152 149.5t221 55.5q77 0 141 -28.5t92 -69.5l-54 -45q-20 33 -74.5 57.5t-117.5 24.5q-96 0 -175.5 -45.5t-125.5 -124t-46 -174.5q0 -81 34.5 -140t92.5 -90.5t127 -31.5t126.5 24.5t99.5 68.5q59 61 84 164h-260
l10 59h326q0 -9 -5 -41q-18 -131 -107 -223q-108 -113 -285 -113q-82 0 -153 38.5z" />
    <glyph glyph-name="H" unicode="H" horiz-adv-x="674" 
d="M157 696h64l-55 -310h389l56 310h64l-123 -696h-64l57 326h-389l-58 -326h-64z" />
    <glyph glyph-name="I" unicode="I" horiz-adv-x="220" 
d="M157 696h64l-123 -696h-64z" />
    <glyph glyph-name="J" unicode="J" horiz-adv-x="508" 
d="M70.5 26.5q-50.5 42.5 -57.5 106.5l62 25q5 -52 41 -82.5t90 -30.5q64 0 110 44.5t58 112.5l86 494h64l-85 -484q-19 -114 -84.5 -171t-158.5 -57q-75 0 -125.5 42.5z" />
    <glyph glyph-name="K" unicode="K" horiz-adv-x="604" 
d="M157 696h64l-65 -374h20l385 374h95l3 11l-322 -309l214 -405l2 7h-85l-183 347l-150 -142l-37 -205h-64z" />
    <glyph glyph-name="L" unicode="L" horiz-adv-x="484" 
d="M157 696h64l-112 -635h314l-11 -61h-378z" />
    <glyph glyph-name="M" unicode="M" horiz-adv-x="842" 
d="M157 696h103l126 -587h18l331 587h108l-123 -696h-64l78 443l31 148h-22l-335 -591h-57l-132 591h-21l-21 -144l-79 -447h-64z" />
    <glyph glyph-name="N" unicode="N" horiz-adv-x="683" 
d="M157 696h83l265 -570h19l22 146l74 424h65l-123 -696h-67l-277 597h-19l-21 -146l-80 -451h-64z" />
    <glyph glyph-name="O" unicode="O" horiz-adv-x="805" 
d="M212.5 24q-72.5 40 -114 112t-41.5 163q0 107 52.5 202.5t147 153t213.5 57.5q87 0 159 -40t113.5 -112t41.5 -163q0 -107 -52 -202.5t-146.5 -153t-212.5 -57.5q-88 0 -160.5 40zM550 94q77 49 122 128.5t45 167.5q0 79 -34 138t-92.5 91t-130.5 32q-92 0 -168.5 -49
t-121.5 -128.5t-45 -167.5q0 -79 34 -138t92 -91t130 -32q92 0 169 49z" />
    <glyph glyph-name="P" unicode="P" horiz-adv-x="554" 
d="M157 696h227q53 0 95 -22.5t65.5 -62t23.5 -90.5q0 -70 -32 -122t-89.5 -79.5t-131.5 -27.5h-164l-53 -292h-64zM330 353q75 0 123 40t48 117q0 57 -35.5 91t-88.5 34h-166l-50 -282h169z" />
    <glyph glyph-name="Q" unicode="Q" horiz-adv-x="805" 
d="M548 23q-88 -39 -175 -39q-88 0 -160.5 40t-114 112t-41.5 163q0 107 52.5 202.5t147 153t213.5 57.5q87 0 159 -40t113.5 -112t41.5 -163q0 -101 -46 -190t-134 -152l33 -67l-57 -30zM520 77l-66 135l59 30l64 -129q69 58 104.5 129.5t35.5 147.5q0 79 -34 138t-92.5 91
t-130.5 32q-92 0 -168.5 -49t-121.5 -128.5t-45 -167.5q0 -79 34 -138t92 -91t130 -32q65 0 139 32z" />
    <glyph glyph-name="R" unicode="R" horiz-adv-x="564" 
d="M157 696h227q53 0 95 -22.5t65.5 -63.5t23.5 -94q0 -84 -55 -142.5t-149 -76.5l-10 -10l150 -294l2 7h-81l-146 292h-128l-53 -292h-64zM325 351q75 0 125.5 43.5t50.5 119.5q0 52 -35.5 86.5t-95.5 34.5h-159l-50 -284h164z" />
    <glyph glyph-name="S" unicode="S" horiz-adv-x="542" 
d="M94.5 33q-59.5 49 -71.5 129l62 25q6 -56 49 -99t114 -43q43 0 83 18.5t65 53t25 79.5q0 49 -33 81t-103 57l-42 16q-61 24 -99 64.5t-38 104.5q0 55 31 98.5t83 69t114 25.5q63 0 105.5 -22.5t64.5 -54.5t26 -54l-63 -24q-6 30 -39.5 62t-99.5 32q-64 0 -109 -34
t-45 -91q0 -45 30.5 -74.5t86.5 -50.5l44 -16q154 -58 154 -177q0 -67 -32.5 -117.5t-89.5 -78.5t-129 -28q-84 0 -143.5 49z" />
    <glyph glyph-name="T" unicode="T" horiz-adv-x="514" 
d="M293 635h-201l11 61h466l-11 -61h-200l-113 -635h-64z" />
    <glyph glyph-name="U" unicode="U" horiz-adv-x="639" 
d="M169.5 9.5q-47.5 25.5 -75.5 71.5t-28 108q0 43 8 92l73 415h64l-76 -431q-6 -36 -6 -63q0 -72 41 -114.5t119 -42.5q89 0 147 57t75 147l78 447h64l-80 -454q-21 -122 -98 -190t-200 -68q-58 0 -105.5 25.5z" />
    <glyph glyph-name="V" unicode="V" horiz-adv-x="602" 
d="M96 696h71l83 -511l14 -79h18l41 76l273 514h73l-378 -696h-73z" />
    <glyph glyph-name="W" unicode="W" horiz-adv-x="918" 
d="M99 696h71l37 -517l5 -58h19l26 55l249 520h73l60 -517l7 -58h20l22 55l221 520h73l-308 -696h-72l-64 509l-8 65h-19l-29 -62l-245 -512h-74z" />
    <glyph glyph-name="X" unicode="X" horiz-adv-x="587" 
d="M269 364l-164 332h77l131 -277h15l228 277h78l-281 -337l179 -359h-78l-146 299h-15l-249 -299h-74z" />
    <glyph glyph-name="Y" unicode="Y" horiz-adv-x="559" 
d="M265 322l-169 374h75l130 -300h16l233 300h76l-295 -371l-58 -325h-64z" />
    <glyph glyph-name="Z" unicode="Z" horiz-adv-x="547" 
d="M6 74l492 561h-377l10 61h448l-13 -74l-493 -561h398l-11 -61h-467z" />
    <glyph glyph-name="bracketleft" unicode="[" horiz-adv-x="294" 
d="M170 772h181l-8 -50h-124l-141 -796h124l-8 -50h-180z" />
    <glyph glyph-name="backslash" unicode="\" horiz-adv-x="276" 
d="M83 696h56l90 -696h-56z" />
    <glyph glyph-name="bracketright" unicode="]" horiz-adv-x="294" 
d="M-20 -74h123l140 796h-123l8 50h181l-157 -896h-180z" />
    <glyph glyph-name="asciicircum" unicode="^" horiz-adv-x="428" 
d="M290 634h-16l-167 -224h-68l225 286h55l125 -286h-63z" />
    <glyph glyph-name="underscore" unicode="_" horiz-adv-x="452" 
d="M381 -166l-8 -50h-456l9 50h455z" />
    <glyph glyph-name="grave" unicode="`" horiz-adv-x="370" 
d="M162 696h69l24 -107h-52z" />
    <glyph glyph-name="a" unicode="a" horiz-adv-x="501" 
d="M97 3.5q-35 19.5 -55.5 52.5t-20.5 74q0 80 58 128t161 48q38 0 74.5 -9t74.5 -30l9 42q3 18 3 31q0 50 -38 80t-93 30q-85 0 -135 -65l-50 36q27 36 79 60.5t115 24.5q86 0 134.5 -42t48.5 -112q0 -20 -4 -49l-53 -303h-62l13 72h-19q-28 -42 -69 -65t-93 -23
q-43 0 -78 19.5zM316 87q52 48 65 129q-36 22 -67.5 31.5t-78.5 9.5q-64 0 -105.5 -32t-41.5 -89q0 -45 30.5 -71t74.5 -26q71 0 123 48z" />
    <glyph glyph-name="b" unicode="b" horiz-adv-x="566" 
d="M171.5 9q-41.5 25 -64.5 67h-15l-13 -76h-60l119 696h65l-35 -199l-19 -83h21q24 42 66 67t100 25q57 0 102.5 -29t71 -80.5t25.5 -118.5q0 -79 -34.5 -146.5t-96 -107.5t-139.5 -40q-52 0 -93.5 25zM368 71q47 30 74 83t27 118q0 77 -44 127t-112 50q-54 0 -99.5 -33.5
t-71.5 -88.5t-26 -116q0 -77 43 -123.5t105 -46.5q57 0 104 30z" />
    <glyph glyph-name="c" unicode="c" horiz-adv-x="519" 
d="M134 14.5q-47 30.5 -73.5 82t-26.5 112.5q0 82 35.5 150t100 107.5t146.5 39.5q77 0 125 -39t62 -86l-61 -24q-11 38 -47.5 65t-88.5 27q-56 0 -103 -30.5t-74.5 -84t-27.5 -119.5q0 -74 42 -124t110 -50q53 0 95.5 27t63.5 68l50 -25q-32 -61 -86.5 -94t-133.5 -33
q-61 0 -108 30.5z" />
    <glyph glyph-name="d" unicode="d" horiz-adv-x="566" 
d="M123 11q-44 27 -69.5 77t-25.5 117q0 82 36 151t99.5 109.5t143.5 40.5q53 0 92.5 -25.5t60.5 -67.5h17l8 80l36 203h64l-120 -696h-61l13 75h-19q-30 -44 -72.5 -67.5t-103.5 -23.5q-55 0 -99 27zM349.5 73.5q47.5 32.5 74 87.5t26.5 120q0 76 -42.5 122t-106.5 46
q-59 0 -106 -31t-73.5 -85.5t-26.5 -119.5q0 -78 42.5 -125t107.5 -47q57 0 104.5 32.5z" />
    <glyph glyph-name="e" unicode="e" horiz-adv-x="534" 
d="M133.5 14q-48.5 30 -74.5 81t-26 113q0 78 34 146.5t96.5 110t142.5 41.5q62 0 106.5 -27.5t68 -74.5t23.5 -103q0 -41 -6 -62h-396q-3 -30 -3 -42q0 -47 21.5 -83t56.5 -54.5t73 -18.5q60 0 102.5 26t66.5 67l48 -29q-30 -55 -88 -88t-132 -33q-65 0 -113.5 30zM439 289
v24q0 36 -17.5 67t-49 50t-76.5 19q-65 0 -113.5 -41.5t-70.5 -118.5h327z" />
    <glyph glyph-name="f" unicode="f" horiz-adv-x="347" 
d="M150 433h-92l9 57h93l11 63q11 71 60 111t117 40q40 0 62 -8l-10 -63q-21 12 -62 12q-36 0 -65.5 -25.5t-37.5 -71.5l-10 -58h127l-9 -57h-128l-75 -433h-64z" />
    <glyph glyph-name="g" unicode="g" horiz-adv-x="562" 
d="M96.5 -212q-40.5 20 -64.5 50.5t-29 56.5l64 25q9 -36 44.5 -65.5t92.5 -29.5q80 0 132 49.5t67 134.5l11 68h-18q-30 -44 -71 -65.5t-102 -21.5q-53 0 -96.5 27t-69 77t-25.5 115q0 79 34 147t96 109t142 41q54 0 94 -23.5t59 -65.5h16l13 73h61l-83 -482
q-20 -123 -92 -181.5t-180 -58.5q-55 0 -95.5 20zM347.5 79.5q47.5 32.5 74 86.5t26.5 115q0 76 -41 122t-104 46q-61 0 -108 -31.5t-72 -85.5t-25 -119q0 -77 40.5 -121.5t102.5 -44.5q59 0 106.5 32.5z" />
    <glyph glyph-name="h" unicode="h" horiz-adv-x="529" 
d="M138 696h65l-35 -199l-18 -82h19q29 43 71.5 67t95.5 24q73 0 112 -38.5t39 -102.5q0 -31 -7 -66l-51 -299h-65l51 295q6 28 6 51q0 47 -31.5 75t-81.5 28q-65 0 -114 -50.5t-64 -129.5l-46 -269h-65z" />
    <glyph glyph-name="i" unicode="i" horiz-adv-x="201" 
d="M135 619q-15 15 -15 36q0 22 15 36.5t36 14.5q22 0 36.5 -14.5t14.5 -36.5q0 -21 -14.5 -36t-36.5 -15q-21 0 -36 15zM108 490h66l-84 -490h-64z" />
    <glyph glyph-name="j" unicode="j" horiz-adv-x="199" 
d="M133 619q-15 15 -15 36q0 22 15 36.5t36 14.5q22 0 36.5 -14.5t14.5 -36.5q0 -21 -14.5 -36t-36.5 -15q-21 0 -36 15zM-114 -221l10 56q-4 3 10.5 -0.5t24.5 -3.5q63 0 77 79l100 580h65l-100 -580q-13 -76 -50.5 -106t-97.5 -30q-21 0 -39 5z" />
    <glyph glyph-name="k" unicode="k" horiz-adv-x="472" 
d="M140 696h65l-79 -458l285 252h95l2 10l-232 -203l148 -302l1 5h-83l-119 251l-111 -98l-26 -153h-65z" />
    <glyph glyph-name="l" unicode="l" horiz-adv-x="186" 
d="M138 696h65l-119 -696h-65z" />
    <glyph glyph-name="m" unicode="m" horiz-adv-x="836" 
d="M163 490l-12 -75h19q27 46 67 68.5t93 22.5q52 0 85.5 -24t51.5 -88q35 61 81.5 86.5t103.5 25.5q69 0 106 -35.5t37 -94.5q0 -26 -9 -75l-50 -301h-65l52 302q5 31 5 51q0 45 -27.5 70.5t-77.5 25.5q-61 0 -107 -50.5t-59 -126.5l-47 -272h-65l51 301q5 31 5 50
q0 45 -28 71.5t-75 26.5q-62 0 -108.5 -52t-59.5 -127l-46 -270h-65l84 490h60z" />
    <glyph glyph-name="n" unicode="n" horiz-adv-x="529" 
d="M169 415q28 43 70.5 67t96.5 24q71 0 110.5 -38.5t39.5 -102.5q0 -39 -6 -69l-51 -296h-65l51 294q6 39 6 52q0 49 -31.5 76t-82.5 27q-64 0 -113 -48.5t-62 -121.5l-48 -279h-65l84 490h60l-12 -75h18z" />
    <glyph glyph-name="o" unicode="o" horiz-adv-x="565" 
d="M139 14.5q-49 30.5 -76.5 83.5t-27.5 119q0 80 34.5 146t98.5 104.5t146 38.5q64 0 113 -30.5t76 -83.5t27 -119q0 -81 -34.5 -147t-98.5 -104t-146 -38q-63 0 -112 30.5zM366 72q47 31 72 83t25 113q0 78 -43.5 129.5t-115.5 51.5q-58 0 -105 -31t-72 -83t-25 -113
q0 -79 43.5 -130t115.5 -51q58 0 105 31z" />
    <glyph glyph-name="p" unicode="p" horiz-adv-x="567" 
d="M102 490h60l-12 -75h18q31 44 74 67.5t103 23.5q55 0 99 -27t69.5 -77t25.5 -118q0 -82 -36 -151t-100 -109t-143 -40q-52 0 -92 25t-60 67h-17l-9 -80l-37 -212h-65zM373 72q47 31 73.5 85.5t26.5 119.5q0 78 -42.5 125t-108.5 47q-57 0 -104 -32.5t-73.5 -88
t-26.5 -121.5q0 -76 42.5 -121t106.5 -45q59 0 106 31z" />
    <glyph glyph-name="q" unicode="q" horiz-adv-x="563" 
d="M393 -7l20 82h-21q-23 -44 -65 -67.5t-101 -23.5q-58 0 -103.5 28.5t-71.5 80.5t-26 119q0 78 35 145.5t96.5 108t139.5 40.5q53 0 94 -25t64 -67h15l14 76h59l-119 -706h-65zM347.5 74.5q45.5 33.5 71.5 88.5t26 116q0 77 -43.5 123.5t-106.5 46.5q-56 0 -103 -30
t-74 -83t-27 -118q0 -78 44 -127.5t113 -49.5q54 0 99.5 33.5z" />
    <glyph glyph-name="r" unicode="r" horiz-adv-x="344" 
d="M102 490h61l-13 -76h20q21 45 63.5 68t91.5 23q33 0 47 -6l-12 -71q-16 11 -62 11q-37 0 -73.5 -22.5t-61 -59.5t-32.5 -80l-47 -277h-65z" />
    <glyph glyph-name="s" unicode="s" horiz-adv-x="436" 
d="M68 21q-49 37 -63 87l63 24q8 -38 46.5 -65.5t86.5 -27.5q50 0 84 25.5t34 65.5q0 35 -23 58t-68 35l-49 13q-58 15 -90 46.5t-32 79.5q0 40 23.5 73t66 52t96.5 19q64 0 112 -30.5t61 -69.5l-63 -24q-10 26 -41 47t-74 21q-49 0 -81 -22.5t-32 -59.5q0 -26 21 -47.5
t59 -31.5l64 -17q56 -14 87 -48.5t31 -83.5q0 -70 -51 -113t-143 -43q-76 0 -125 37z" />
    <glyph glyph-name="t" unicode="t" horiz-adv-x="336" 
d="M120.5 19.5q-29.5 27.5 -29.5 73.5q0 22 5 47l50 293h-87l9 57h87l26 144h64l-25 -144h122l-9 -57h-122l-49 -279q-4 -24 -4 -41q0 -30 18 -46t46 -16q34 0 48 9l-9 -58q-26 -10 -63 -10q-48 0 -77.5 27.5z" />
    <glyph glyph-name="u" unicode="u" horiz-adv-x="529" 
d="M361 74q-28 -43 -70.5 -66.5t-96.5 -23.5q-71 0 -111 38.5t-40 102.5q0 32 7 69l51 296h64l-51 -294q-5 -26 -5 -52q0 -49 31.5 -76t81.5 -27q64 0 113 48t63 121l48 280h64l-83 -490h-61l13 74h-18z" />
    <glyph glyph-name="v" unicode="v" horiz-adv-x="474" 
d="M52 490h69l83 -410h14l225 410h69l-280 -490h-73z" />
    <glyph glyph-name="w" unicode="w" horiz-adv-x="734" 
d="M52 490h66l46 -403h14l195 403h75l58 -402h13l186 402h67l-238 -490h-74l-60 427l-207 -427h-72z" />
    <glyph glyph-name="x" unicode="x" horiz-adv-x="430" 
d="M176 250l-122 240h74l92 -188h10l153 188h75l-206 -243l128 -247h-73l-96 196h-10l-159 -196h-74z" />
    <glyph glyph-name="y" unicode="y" horiz-adv-x="470" 
d="M168 21l-121 469h68l92 -379h14l217 379h70l-422 -706h-66z" />
    <glyph glyph-name="z" unicode="z" horiz-adv-x="447" 
d="M369 433h-295l10 57h369l-10 -58l-367 -375h305l-10 -57h-378l9 58z" />
    <glyph glyph-name="braceleft" unicode="{" horiz-adv-x="290" 
d="M89 -92.5q-35 31.5 -35 82.5q0 20 3 37l31 176q2 15 2 23q0 35 -19 54t-40 19l8 50q29 0 55.5 23.5t35.5 69.5l31 175q13 78 56 116.5t122 38.5h13l-8 -50h-14q-45 0 -74 -27.5t-38 -76.5l-32 -175q-8 -47 -27 -71.5t-58 -37.5l-5 -18q32 -12 43 -28.5t11 -44.5
q0 -16 -4 -34l-32 -176q-3 -19 -3 -28q0 -38 23.5 -58.5t59.5 -20.5h9l-8 -50h-14q-57 0 -92 31.5z" />
    <glyph glyph-name="bar" unicode="|" horiz-adv-x="213" 
d="M171 772h57l-157 -892h-57z" />
    <glyph glyph-name="braceright" unicode="}" horiz-adv-x="290" 
d="M-26 -74h14q45 0 74 27.5t38 76.5l32 175q8 47 27 71.5t58 37.5l5 18q-32 12 -43 28.5t-11 44.5q0 16 4 34l32 176q3 19 3 28q0 37 -23 58t-60 21h-9l8 50h14q57 0 92 -31.5t35 -82.5q0 -20 -3 -37l-31 -176q-2 -15 -2 -23q0 -35 19 -54t40 -19l-8 -50q-29 0 -55.5 -23.5
t-35.5 -69.5l-31 -175q-13 -78 -56 -116.5t-121 -38.5h-14z" />
    <glyph glyph-name="asciitilde" unicode="~" horiz-adv-x="514" 
d="M319 244.5q-25 8.5 -61 26.5q-36 17 -57.5 25t-44.5 8q-29 0 -48.5 -19t-24.5 -36h-47q6 47 38.5 79t88.5 32q25 0 50 -8.5t61 -26.5q36 -17 57.5 -25t44.5 -8q29 0 48.5 19t23.5 36h48q-6 -47 -38.5 -79t-88.5 -32q-25 0 -50 8.5z" />
    <glyph glyph-name="uni00A0" unicode="&#xa0;" horiz-adv-x="224" 
 />
    <glyph glyph-name="exclamdown" unicode="&#xa1;" horiz-adv-x="216" 
d="M105.5 413.5q-15.5 15.5 -15.5 38.5t15.5 38.5t38.5 15.5q22 0 37.5 -15.5t15.5 -38.5t-15.5 -38.5t-37.5 -15.5q-23 0 -38.5 15.5zM36 15l57 269h45l-37 -265l-41 -235h-65z" />
    <glyph glyph-name="cent" unicode="&#xa2;" horiz-adv-x="509" 
d="M225 84q-83 14 -128.5 73.5t-45.5 142.5q0 75 33 136.5t90.5 99t138.5 44.5l14 84h50l-16 -85q69 -12 105.5 -47t48.5 -74l-62 -25q-21 70 -101 89l-67 -384q56 12 86 36t50 58l52 -24q-34 -55 -79.5 -86.5t-118.5 -38.5l-15 -83h-50zM302 525q-89 -14 -137.5 -75.5
t-48.5 -143.5q0 -60 29 -104.5t90 -62.5z" />
    <glyph glyph-name="sterling" unicode="&#xa3;" horiz-adv-x="501" 
d="M7 56q52 25 90.5 72t38.5 103l-2 18h-93l8 51h74q-6 19 -8.5 27t-6.5 17q-13 41 -20.5 69t-7.5 60q0 55 26.5 103t77.5 76t118 28q74 0 115.5 -37t54.5 -88l-63 -25q-9 34 -37.5 61.5t-81.5 27.5q-62 0 -103 -42.5t-41 -104.5q0 -28 7 -54.5t22 -65.5q4 -9 18 -52h136
l-8 -51h-121v-15q-1 -43 -24 -81.5t-70 -76.5l15 -15h187q40 0 65 16.5t37 39.5l48 -21q-22 -44 -61.5 -70t-103.5 -26h-296z" />
    <glyph glyph-name="currency" unicode="&#xa4;" horiz-adv-x="565" 
d="M72 133l59 57q-41 61 -41 125q0 66 41 125l-59 58l35 36l58 -56q60 46 130 46q69 0 130 -46l58 56l35 -36l-58 -57q40 -59 40 -126q0 -65 -40 -125l58 -57l-35 -36l-58 56q-63 -47 -130 -47q-69 0 -130 47l-58 -56zM369 181q34 21 54 56.5t20 77.5t-20 77.5t-54 56.5
t-74 21t-74 -21t-54 -56.5t-20 -77.5t20 -77.5t54 -56.5t74 -21t74 21z" />
    <glyph glyph-name="yen" unicode="&#xa5;" horiz-adv-x="539" 
d="M230 169h-170l8 50h171l19 105h-170l8 50h133l-134 290h70l98 -226l26 -63h16l222 289h72l-233 -290h131l-8 -50h-167l-19 -105h167l-9 -50h-166l-30 -169h-65z" />
    <glyph glyph-name="brokenbar" unicode="&#xa6;" horiz-adv-x="213" 
d="M165 736h57l-63 -360h-57zM83 272h57l-69 -392h-57z" />
    <glyph glyph-name="section" unicode="&#xa7;" horiz-adv-x="522" 
d="M97 -210.5q-44 21.5 -72.5 62.5t-32.5 89l61 25q5 -52 43.5 -94.5t105.5 -42.5q63 0 108 34.5t45 95.5q0 51 -34 81.5t-104 53.5l-4 1q-73 23 -113 63.5t-40 96.5q0 47 31.5 87t95.5 69q-40 32 -56.5 62.5t-16.5 65.5q0 47 25.5 86.5t73 63t111.5 23.5q79 0 125.5 -39.5
t57.5 -89.5l-63 -24q-5 29 -37 60.5t-91 31.5q-52 0 -93 -28t-41 -74q0 -42 32.5 -70t97.5 -53l4 -1q78 -31 119.5 -72t41.5 -102q0 -51 -26 -89t-84 -71q56 -52 56 -121q0 -55 -28.5 -101t-80.5 -73.5t-121 -27.5q-52 0 -96 21.5zM383.5 170.5q24.5 29.5 24.5 66.5
q0 45 -35.5 80t-101.5 57l-22 6q-50 -13 -85 -44.5t-35 -74.5q0 -40 30 -65t88 -44q42 -15 73 -31q39 20 63.5 49.5z" />
    <glyph glyph-name="dieresis" unicode="&#xa8;" horiz-adv-x="372" 
d="M124.5 618.5q-13.5 13.5 -13.5 30.5q0 19 13 31.5t31 12.5q19 0 31.5 -12.5t12.5 -31.5q0 -18 -12.5 -31t-31.5 -13q-17 0 -30.5 13.5zM289 618.5q-13 13.5 -13 30.5q0 19 13 31.5t30 12.5q19 0 31.5 -12.5t12.5 -31.5q0 -18 -12.5 -31t-31.5 -13q-17 0 -30 13.5z" />
    <glyph glyph-name="copyright" unicode="&#xa9;" horiz-adv-x="510" 
d="M188 301.5q-51 29.5 -80.5 80.5t-29.5 110t29.5 110t80.5 80.5t110 29.5t110 -29.5t80.5 -80.5t29.5 -110t-29.5 -110t-80.5 -80.5t-110 -29.5t-110 29.5zM395.5 324.5q44.5 26.5 70.5 71t26 96.5q0 53 -26 97.5t-70.5 70.5t-97.5 26q-52 0 -96.5 -26t-71 -70.5
t-26.5 -97.5q0 -52 26.5 -96.5t71 -71t96.5 -26.5q53 0 97.5 26.5zM224.5 415q-31.5 32 -31.5 77q0 46 31 77.5t78 31.5q26 0 44 -9t28 -20l-15 -14q-6 7 -20.5 14t-36.5 7q-34 0 -59 -25.5t-25 -61.5t25 -61.5t59 -25.5q42 0 63 28l17 -14q-27 -36 -80 -36q-46 0 -77.5 32z
" />
    <glyph glyph-name="ordfeminine" unicode="&#xaa;" horiz-adv-x="454" 
d="M107.5 305.5q-39.5 33.5 -39.5 88.5q0 46 27.5 80.5t73.5 53t99 18.5q68 0 136 -35l4 30q1 9 1 20q0 46 -31 72.5t-77 26.5q-86 0 -124 -52l-45 27q17 28 62.5 52.5t112.5 24.5q69 0 115 -39t46 -101q0 -17 -3 -34l-44 -252h-58l12 65h-21q-28 -37 -65 -58t-79 -21
q-63 0 -102.5 33.5zM335 361.5q48 39.5 60 105.5q-33 20 -60 28.5t-65 8.5q-53 0 -95 -25.5t-42 -77.5q0 -38 29 -58.5t64 -20.5q61 0 109 39.5z" />
    <glyph glyph-name="guillemotleft" unicode="&#xab;" horiz-adv-x="548" 
d="M193 58l-151 202l224 204l31 -34l-188 -173l123 -166zM393 58l-151 202l224 204l31 -34l-188 -173l123 -166z" />
    <glyph glyph-name="logicalnot" unicode="&#xac;" horiz-adv-x="549" 
d="M429 312h-363l8 50h410l-44 -257h-48z" />
    <glyph glyph-name="uni00AD" unicode="&#xad;" horiz-adv-x="427" 
d="M364 325l-8 -50h-298l8 50h298z" />
    <glyph glyph-name="registered" unicode="&#xae;" horiz-adv-x="510" 
d="M188 301.5q-51 29.5 -80.5 80.5t-29.5 110t29.5 110t80.5 80.5t110 29.5t110 -29.5t80.5 -80.5t29.5 -110t-29.5 -110t-80.5 -80.5t-110 -29.5t-110 29.5zM395.5 324.5q44.5 26.5 70.5 71t26 96.5q0 53 -26 97.5t-70.5 70.5t-97.5 26q-52 0 -96.5 -26t-71 -70.5
t-26.5 -97.5q0 -52 26.5 -96.5t71 -71t96.5 -26.5q53 0 97.5 26.5zM232 595h84q26 0 45 -18t19 -44q0 -19 -12.5 -34.5t-33.5 -21.5l-10 -10l63 -89v11h-34l-56 85h-41v-85h-24v206zM313 494q17 0 30 10.5t13 28.5q0 16 -12.5 28t-30.5 12h-57v-79h57z" />
    <glyph glyph-name="macron" unicode="&#xaf;" horiz-adv-x="375" 
d="M116 672h256l-8 -46h-256z" />
    <glyph glyph-name="degree" unicode="&#xb0;" horiz-adv-x="303" 
d="M116.5 471.5q-31.5 29.5 -31.5 74.5q0 59 38 96.5t98 37.5q44 0 76 -29.5t32 -74.5q0 -59 -38 -96.5t-98 -37.5q-45 0 -76.5 29.5zM259.5 507q25.5 26 25.5 62q0 31 -20 51.5t-50 20.5q-35 0 -60.5 -25.5t-25.5 -62.5q0 -31 20 -51.5t50 -20.5q35 0 60.5 26z" />
    <glyph glyph-name="plusminus" unicode="&#xb1;" horiz-adv-x="520" 
d="M245 299h-182l8 50h182l28 157h50l-28 -157h183l-8 -50h-183l-28 -157h-50zM19 50h414l-9 -50h-413z" />
    <glyph glyph-name="uni00B2" unicode="&#xb2;" horiz-adv-x="302" 
d="M50 391l156 133q59 46 59 86q0 26 -17 40.5t-43 14.5q-56 0 -78 -57l-37 17q10 33 43.5 56t77.5 23q45 0 73.5 -25t28.5 -62q0 -34 -17.5 -58t-55.5 -56l-134 -114h170l-7 -39h-226z" />
    <glyph glyph-name="uni00B3" unicode="&#xb3;" horiz-adv-x="321" 
d="M95.5 365.5q-31.5 23.5 -37.5 58.5l42 16q15 -59 76 -59q34 0 57.5 20t23.5 51q0 29 -20 44.5t-53 15.5h-20l6 36h28q31 0 53 18t22 47q0 25 -16.5 38.5t-40.5 13.5q-49 0 -72 -42l-37 15q9 25 41 45.5t75 20.5q44 0 71 -23.5t27 -57.5q0 -26 -18 -49.5t-65 -40.5
q42 -20 54 -37.5t12 -41.5q0 -47 -38.5 -79.5t-96.5 -32.5q-42 0 -73.5 23.5z" />
    <glyph glyph-name="acute" unicode="&#xb4;" horiz-adv-x="359" 
d="M254 696h69l-78 -107h-54z" />
    <glyph glyph-name="mu" unicode="&#xb5;" horiz-adv-x="549" 
d="M97 490h64l-52 -303q-3 -22 -3 -43q0 -50 31 -76.5t82 -26.5q64 0 113 48.5t62 120.5l48 280h64l-83 -490h-61l14 74h-19q-28 -41 -71.5 -65.5t-97.5 -24.5q-27 0 -52.5 11.5t-40.5 33.5h-16l-8 -69l-31 -176h-64z" />
    <glyph glyph-name="paragraph" unicode="&#xb6;" horiz-adv-x="594" 
d="M288 296h-54q-58 0 -107 24.5t-78 70t-29 105.5t29 105.5t78 70t107 24.5h278v-912h-58v851h-108v-851h-58v512z" />
    <glyph glyph-name="periodcentered" unicode="&#xb7;" horiz-adv-x="146" 
d="M47.5 275.5q-15.5 15.5 -15.5 38.5t15.5 38.5t37.5 15.5q23 0 38.5 -15.5t15.5 -38.5t-15.5 -38.5t-38.5 -15.5q-22 0 -37.5 15.5z" />
    <glyph glyph-name="cedilla" unicode="&#xb8;" horiz-adv-x="381" 
d="M20.5 -219.5q-22.5 17.5 -25.5 33.5l33 14q1 -6 15 -19t34 -13q25 0 42.5 16.5t17.5 43.5q0 20 -14 34t-35 14q-23 0 -38 -15l-25 12l43 79h29l-31 -53q36 7 42 7q29 0 47.5 -21.5t18.5 -56.5q0 -41 -27.5 -67t-73.5 -26q-30 0 -52.5 17.5z" />
    <glyph glyph-name="uni00B9" unicode="&#xb9;" horiz-adv-x="239" 
d="M184 642l-67 -50l-20 32l101 72h41l-61 -346h-45z" />
    <glyph glyph-name="ordmasculine" unicode="&#xba;" horiz-adv-x="495" 
d="M164 295.5q-42 23.5 -65 66.5t-23 97q0 64 31.5 122.5t88 94.5t128.5 36q83 0 132.5 -50.5t49.5 -135.5q0 -67 -33 -126t-90 -93.5t-124 -34.5q-53 0 -95 23.5zM355 351q41 25 64.5 69t23.5 101q0 60 -38 98.5t-91 38.5q-49 0 -89.5 -26.5t-63 -71t-22.5 -96.5
q0 -61 36.5 -99.5t90.5 -38.5q48 0 89 25z" />
    <glyph glyph-name="guillemotright" unicode="&#xbb;" horiz-adv-x="548" 
d="M136 464l150 -202l-224 -204l-30 34l187 173l-123 166zM336 464l150 -202l-224 -204l-30 34l187 173l-123 166z" />
    <glyph glyph-name="onequarter" unicode="&#xbc;" horiz-adv-x="704" 
d="M209 642l-67 -50l-20 32l101 72h41l-61 -346h-45zM649 699l34 -27l-576 -676l-37 28zM526 74h-171l4 30l215 242h45l-42 -236h49l-6 -36h-49l-13 -74h-45zM532 110l27 152h-20l-135 -152h128z" />
    <glyph glyph-name="onehalf" unicode="&#xbd;" horiz-adv-x="774" 
d="M209 642l-67 -50l-20 32l101 72h41l-61 -346h-45zM648 699l34 -27l-576 -676l-37 28zM462 41l156 133q59 46 59 86q0 26 -17 40.5t-43 14.5q-56 0 -78 -57l-37 17q10 33 43.5 56t77.5 23q45 0 73.5 -25t28.5 -62q0 -34 -17.5 -58t-55.5 -56l-134 -114h170l-7 -39h-226z
" />
    <glyph glyph-name="threequarters" unicode="&#xbe;" horiz-adv-x="824" 
d="M138.5 365.5q-31.5 23.5 -37.5 58.5l42 16q15 -59 76 -59q34 0 57.5 20t23.5 51q0 29 -20 44.5t-53 15.5h-20l6 36h28q31 0 53 18t22 47q0 25 -16.5 38.5t-40.5 13.5q-49 0 -72 -42l-37 15q9 25 41 45.5t75 20.5q44 0 71 -23.5t27 -57.5q0 -26 -18 -49.5t-65 -40.5
q42 -20 54 -37.5t12 -41.5q0 -47 -38.5 -79.5t-96.5 -32.5q-42 0 -73.5 23.5zM735 699l34 -27l-576 -676l-37 28zM639 74h-171l4 30l215 242h45l-42 -236h49l-6 -36h-49l-13 -74h-45zM645 110l27 152h-20l-135 -152h128z" />
    <glyph glyph-name="questiondown" unicode="&#xbf;" horiz-adv-x="482" 
d="M249.5 413.5q-15.5 15.5 -15.5 38.5t15.5 38.5t37.5 15.5q23 0 38.5 -15.5t15.5 -38.5t-15.5 -38.5t-38.5 -15.5q-22 0 -37.5 15.5zM83.5 -211q-39.5 21 -61.5 55.5t-22 76.5q0 56 32 98t95 90q40 31 60.5 59.5t27.5 66.5l9 49h66l-9 -51q-8 -49 -30.5 -80.5t-81.5 -75.5
q-47 -35 -74.5 -68.5t-27.5 -75.5q0 -47 32.5 -75.5t85.5 -28.5q54 0 91 30t48 65l55 -24q-18 -54 -71 -93t-135 -39q-50 0 -89.5 21z" />
    <glyph glyph-name="Agrave" unicode="&#xc0;" horiz-adv-x="669" 
d="M356 696h82l141 -696h-70l-36 197h-323l-108 -197h-72zM461 257l-52 270l-16 85h-18l-194 -355h280zM334 880h69l24 -107h-52z" />
    <glyph glyph-name="Aacute" unicode="&#xc1;" horiz-adv-x="669" 
d="M356 696h82l141 -696h-70l-36 197h-323l-108 -197h-72zM461 257l-52 270l-16 85h-18l-194 -355h280zM447 880h69l-78 -107h-54z" />
    <glyph glyph-name="Acircumflex" unicode="&#xc2;" horiz-adv-x="669" 
d="M356 696h82l141 -696h-70l-36 197h-323l-108 -197h-72zM461 257l-52 270l-16 85h-18l-194 -355h280zM279 769l118 111h66l75 -108l2 7h-63l-44 63h-17l-63 -63h-72z" />
    <glyph glyph-name="Atilde" unicode="&#xc3;" horiz-adv-x="669" 
d="M356 696h82l141 -696h-70l-36 197h-323l-108 -197h-72zM461 257l-52 270l-16 85h-18l-194 -355h280zM457.5 785.5q-13.5 5.5 -32.5 16.5q-18 12 -33 18.5t-33 6.5q-41 0 -50 -37h-50q5 41 32.5 67.5t67.5 26.5q15 0 29 -5.5t33 -16.5q18 -12 33 -18.5t32 -6.5q41 0 50 37
h51q-5 -41 -33 -67.5t-68 -26.5q-15 0 -28.5 5.5z" />
    <glyph glyph-name="Adieresis" unicode="&#xc4;" horiz-adv-x="669" 
d="M356 696h82l141 -696h-70l-36 197h-323l-108 -197h-72zM461 257l-52 270l-16 85h-18l-194 -355h280zM311.5 802.5q-13.5 13.5 -13.5 30.5q0 19 13 31.5t31 12.5q19 0 31.5 -12.5t12.5 -31.5q0 -18 -12.5 -31t-31.5 -13q-17 0 -30.5 13.5zM476 802.5q-13 13.5 -13 30.5
q0 19 13 31.5t30 12.5q19 0 31.5 -12.5t12.5 -31.5q0 -18 -12.5 -31t-31.5 -13q-17 0 -30 13.5z" />
    <glyph glyph-name="Aring" unicode="&#xc5;" horiz-adv-x="640" 
d="M342 672q-19 19 -27 36.5t-8 37.5q0 39 27 66t66 27t66.5 -27t27.5 -66q0 -23 -12 -44.5t-37 -37.5l134 -664h-70l-36 197h-323l-108 -197h-72zM438 708q16 16 16 38t-16 38t-38 16t-37.5 -16t-15.5 -38t15.5 -38t37.5 -16t38 16zM461 257l-52 270l-16 83h-19l-193 -353
h280z" />
    <glyph glyph-name="AE" unicode="&#xc6;" horiz-adv-x="927" 
d="M472 696h452l-10 -61h-330l-46 -257h298l-10 -60h-298l-46 -257h330l-11 -61h-394l35 197h-279l-152 -197h-77zM452 257l67 378h-21l-41 -54l-249 -324h244z" />
    <glyph glyph-name="Ccedilla" unicode="&#xc7;" horiz-adv-x="717" 
d="M321 -73q36 7 42 7q29 0 47.5 -21.5t18.5 -56.5q0 -41 -27.5 -67t-73.5 -26q-30 0 -52.5 17.5t-25.5 33.5l33 14q1 -6 15 -19t34 -13q25 0 42.5 16.5t17.5 43.5q0 20 -14 34t-35 14q-23 0 -38 -15l-25 12l46 84q-90 13 -148 54t-90 106.5t-32 150.5q0 107 55.5 203.5
t152.5 154.5t215 58q79 0 141.5 -32.5t90.5 -75.5l-53 -43q-28 42 -76 66t-113 24q-94 0 -173.5 -49.5t-126 -130t-46.5 -171.5q0 -76 32.5 -133.5t88.5 -89.5t126 -32q75 0 132.5 28t106.5 76l42 -47q-60 -58 -129 -88t-167 -30z" />
    <glyph glyph-name="Egrave" unicode="&#xc8;" horiz-adv-x="550" 
d="M157 696h394l-10 -61h-330l-46 -257h298l-10 -60h-298l-46 -257h330l-11 -61h-394zM296 880h69l24 -107h-52z" />
    <glyph glyph-name="Eacute" unicode="&#xc9;" horiz-adv-x="550" 
d="M157 696h394l-10 -61h-330l-46 -257h298l-10 -60h-298l-46 -257h330l-11 -61h-394zM409 880h69l-78 -107h-54z" />
    <glyph glyph-name="Ecircumflex" unicode="&#xca;" horiz-adv-x="550" 
d="M157 696h394l-10 -61h-330l-46 -257h298l-10 -60h-298l-46 -257h330l-11 -61h-394zM241 769l118 111h66l75 -108l2 7h-63l-44 63h-17l-63 -63h-72z" />
    <glyph glyph-name="Edieresis" unicode="&#xcb;" horiz-adv-x="550" 
d="M157 696h394l-10 -61h-330l-46 -257h298l-10 -60h-298l-46 -257h330l-11 -61h-394zM273.5 802.5q-13.5 13.5 -13.5 30.5q0 19 13 31.5t31 12.5q19 0 31.5 -12.5t12.5 -31.5q0 -18 -12.5 -31t-31.5 -13q-17 0 -30.5 13.5zM438 802.5q-13 13.5 -13 30.5q0 19 13 31.5
t30 12.5q19 0 31.5 -12.5t12.5 -31.5q0 -18 -12.5 -31t-31.5 -13q-17 0 -30 13.5z" />
    <glyph glyph-name="Igrave" unicode="&#xcc;" horiz-adv-x="244" 
d="M157 696h64l-123 -696h-64zM125 880h69l24 -107h-52z" />
    <glyph glyph-name="Iacute" unicode="&#xcd;" horiz-adv-x="244" 
d="M157 696h64l-123 -696h-64zM238 880h69l-78 -107h-54z" />
    <glyph glyph-name="Icircumflex" unicode="&#xce;" horiz-adv-x="244" 
d="M157 696h64l-123 -696h-64zM70 769l118 111h66l75 -108l2 7h-63l-44 63h-17l-63 -63h-72z" />
    <glyph glyph-name="Idieresis" unicode="&#xcf;" horiz-adv-x="223" 
d="M112 803q-13 13 -13 31q0 19 13 31.5t31 12.5q19 0 31 -12.5t12 -31.5q0 -18 -12 -31t-31 -13q-18 0 -31 13zM245 803q-13 13 -13 31q0 19 13 31.5t30 12.5q19 0 31.5 -12.5t12.5 -31.5q0 -18 -12.5 -31t-31.5 -13q-17 0 -30 13zM157 696h64l-123 -696h-64z" />
    <glyph glyph-name="Eth" unicode="&#xd0;" horiz-adv-x="711" 
d="M121 322h-75l8 50h75l58 324h208q94 0 160.5 -38.5t101 -105.5t34.5 -154q0 -106 -49.5 -197.5t-143.5 -146t-220 -54.5h-214zM283 61q96 0 174 44t122.5 119.5t44.5 167.5q0 117 -64.5 180t-179.5 63h-139l-47 -263h203l-8 -50h-204l-46 -261h144z" />
    <glyph glyph-name="Ntilde" unicode="&#xd1;" horiz-adv-x="707" 
d="M157 696h83l265 -570h19l22 146l74 424h65l-123 -696h-67l-277 597h-19l-21 -146l-80 -451h-64zM479.5 785.5q-13.5 5.5 -32.5 16.5q-18 12 -33 18.5t-33 6.5q-41 0 -50 -37h-50q5 41 32.5 67.5t67.5 26.5q15 0 29 -5.5t33 -16.5q18 -12 33 -18.5t32 -6.5q41 0 50 37h51
q-5 -41 -33 -67.5t-68 -26.5q-15 0 -28.5 5.5z" />
    <glyph glyph-name="Ograve" unicode="&#xd2;" horiz-adv-x="825" 
d="M212.5 24q-72.5 40 -114 112t-41.5 163q0 107 52.5 202.5t147 153t213.5 57.5q87 0 159 -40t113.5 -112t41.5 -163q0 -107 -52 -202.5t-146.5 -153t-212.5 -57.5q-88 0 -160.5 40zM550 94q77 49 122 128.5t45 167.5q0 79 -34 138t-92.5 91t-130.5 32q-92 0 -168.5 -49
t-121.5 -128.5t-45 -167.5q0 -79 34 -138t92 -91t130 -32q92 0 169 49zM401 880h69l24 -107h-52z" />
    <glyph glyph-name="Oacute" unicode="&#xd3;" horiz-adv-x="825" 
d="M212.5 24q-72.5 40 -114 112t-41.5 163q0 107 52.5 202.5t147 153t213.5 57.5q87 0 159 -40t113.5 -112t41.5 -163q0 -107 -52 -202.5t-146.5 -153t-212.5 -57.5q-88 0 -160.5 40zM550 94q77 49 122 128.5t45 167.5q0 79 -34 138t-92.5 91t-130.5 32q-92 0 -168.5 -49
t-121.5 -128.5t-45 -167.5q0 -79 34 -138t92 -91t130 -32q92 0 169 49zM514 880h69l-78 -107h-54z" />
    <glyph glyph-name="Ocircumflex" unicode="&#xd4;" horiz-adv-x="825" 
d="M212.5 24q-72.5 40 -114 112t-41.5 163q0 107 52.5 202.5t147 153t213.5 57.5q87 0 159 -40t113.5 -112t41.5 -163q0 -107 -52 -202.5t-146.5 -153t-212.5 -57.5q-88 0 -160.5 40zM550 94q77 49 122 128.5t45 167.5q0 79 -34 138t-92.5 91t-130.5 32q-92 0 -168.5 -49
t-121.5 -128.5t-45 -167.5q0 -79 34 -138t92 -91t130 -32q92 0 169 49zM346 769l118 111h66l75 -108l2 7h-63l-44 63h-17l-63 -63h-72z" />
    <glyph glyph-name="Otilde" unicode="&#xd5;" horiz-adv-x="825" 
d="M212.5 24q-72.5 40 -114 112t-41.5 163q0 107 52.5 202.5t147 153t213.5 57.5q87 0 159 -40t113.5 -112t41.5 -163q0 -107 -52 -202.5t-146.5 -153t-212.5 -57.5q-88 0 -160.5 40zM550 94q77 49 122 128.5t45 167.5q0 79 -34 138t-92.5 91t-130.5 32q-92 0 -168.5 -49
t-121.5 -128.5t-45 -167.5q0 -79 34 -138t92 -91t130 -32q92 0 169 49zM524.5 785.5q-13.5 5.5 -32.5 16.5q-18 12 -33 18.5t-33 6.5q-41 0 -50 -37h-50q5 41 32.5 67.5t67.5 26.5q15 0 29 -5.5t33 -16.5q18 -12 33 -18.5t32 -6.5q41 0 50 37h51q-5 -41 -33 -67.5t-68 -26.5
q-15 0 -28.5 5.5z" />
    <glyph glyph-name="Odieresis" unicode="&#xd6;" horiz-adv-x="825" 
d="M212.5 24q-72.5 40 -114 112t-41.5 163q0 107 52.5 202.5t147 153t213.5 57.5q87 0 159 -40t113.5 -112t41.5 -163q0 -107 -52 -202.5t-146.5 -153t-212.5 -57.5q-88 0 -160.5 40zM550 94q77 49 122 128.5t45 167.5q0 79 -34 138t-92.5 91t-130.5 32q-92 0 -168.5 -49
t-121.5 -128.5t-45 -167.5q0 -79 34 -138t92 -91t130 -32q92 0 169 49zM378.5 802.5q-13.5 13.5 -13.5 30.5q0 19 13 31.5t31 12.5q19 0 31.5 -12.5t12.5 -31.5q0 -18 -12.5 -31t-31.5 -13q-17 0 -30.5 13.5zM543 802.5q-13 13.5 -13 30.5q0 19 13 31.5t30 12.5
q19 0 31.5 -12.5t12.5 -31.5q0 -18 -12.5 -31t-31.5 -13q-17 0 -30 13.5z" />
    <glyph glyph-name="multiply" unicode="&#xd7;" horiz-adv-x="518" 
d="M40 108l187 155l-130 153l38 32l131 -154l187 156l30 -37l-187 -155l131 -152l-38 -32l-131 153l-188 -156z" />
    <glyph glyph-name="Oslash" unicode="&#xd8;" horiz-adv-x="805" 
d="M105 -3l52 65q-51 50 -75.5 108.5t-24.5 128.5q0 107 52.5 202.5t147 153t213.5 57.5q88 0 170 -47l54 67l42 -33l-54 -65q53 -49 77.5 -108t24.5 -129q0 -107 -52 -202.5t-146.5 -153t-212.5 -57.5q-90 0 -173 47l-52 -66zM599 613q-69 38 -139 38q-92 0 -168.5 -49
t-121.5 -128.5t-45 -167.5q0 -114 75 -192zM550 94q77 49 122 128.5t45 167.5q0 111 -76 192l-399 -500q71 -37 139 -37q92 0 169 49z" />
    <glyph glyph-name="Ugrave" unicode="&#xd9;" horiz-adv-x="661" 
d="M169.5 9.5q-47.5 25.5 -75.5 71.5t-28 108q0 43 8 92l73 415h64l-76 -431q-6 -36 -6 -63q0 -72 41 -114.5t119 -42.5q89 0 147 57t75 147l78 447h64l-80 -454q-21 -122 -98 -190t-200 -68q-58 0 -105.5 25.5zM327 880h69l24 -107h-52z" />
    <glyph glyph-name="Uacute" unicode="&#xda;" horiz-adv-x="661" 
d="M169.5 9.5q-47.5 25.5 -75.5 71.5t-28 108q0 43 8 92l73 415h64l-76 -431q-6 -36 -6 -63q0 -72 41 -114.5t119 -42.5q89 0 147 57t75 147l78 447h64l-80 -454q-21 -122 -98 -190t-200 -68q-58 0 -105.5 25.5zM440 880h69l-78 -107h-54z" />
    <glyph glyph-name="Ucircumflex" unicode="&#xdb;" horiz-adv-x="661" 
d="M169.5 9.5q-47.5 25.5 -75.5 71.5t-28 108q0 43 8 92l73 415h64l-76 -431q-6 -36 -6 -63q0 -72 41 -114.5t119 -42.5q89 0 147 57t75 147l78 447h64l-80 -454q-21 -122 -98 -190t-200 -68q-58 0 -105.5 25.5zM272 769l118 111h66l75 -108l2 7h-63l-44 63h-17l-63 -63h-72
z" />
    <glyph glyph-name="Udieresis" unicode="&#xdc;" horiz-adv-x="661" 
d="M169.5 9.5q-47.5 25.5 -75.5 71.5t-28 108q0 43 8 92l73 415h64l-76 -431q-6 -36 -6 -63q0 -72 41 -114.5t119 -42.5q89 0 147 57t75 147l78 447h64l-80 -454q-21 -122 -98 -190t-200 -68q-58 0 -105.5 25.5zM304.5 802.5q-13.5 13.5 -13.5 30.5q0 19 13 31.5t31 12.5
q19 0 31.5 -12.5t12.5 -31.5q0 -18 -12.5 -31t-31.5 -13q-17 0 -30.5 13.5zM469 802.5q-13 13.5 -13 30.5q0 19 13 31.5t30 12.5q19 0 31.5 -12.5t12.5 -31.5q0 -18 -12.5 -31t-31.5 -13q-17 0 -30 13.5z" />
    <glyph glyph-name="Yacute" unicode="&#xdd;" horiz-adv-x="595" 
d="M265 322l-169 374h75l130 -300h16l233 300h76l-295 -371l-58 -325h-64zM401 880h69l-78 -107h-54z" />
    <glyph glyph-name="Thorn" unicode="&#xde;" horiz-adv-x="549" 
d="M151 696h65l-22 -123h163q54 0 96 -22.5t65.5 -62t23.5 -90.5q0 -70 -32.5 -122t-90 -79.5t-131.5 -27.5h-165l-30 -169h-65zM304 230q74 0 122 40t48 117q0 56 -35.5 90.5t-88.5 34.5h-166l-50 -282h170z" />
    <glyph glyph-name="germandbls" unicode="&#xdf;" horiz-adv-x="526" 
d="M464.5 309q23.5 -38 23.5 -90q0 -66 -32 -117.5t-87.5 -80.5t-124.5 -29q-38 0 -51 3l10 61q18 -3 48 -3q72 0 120.5 42.5t48.5 115.5q0 59 -35.5 96t-102.5 37h-22l10 58h20q39 0 75.5 16.5t58.5 48.5t22 75q0 50 -33 79.5t-84 29.5q-58 0 -97.5 -39.5t-51.5 -103.5
l-85 -508h-68l87 504q16 96 72 152t151 56q53 0 93.5 -22t62 -59t21.5 -82q0 -58 -30.5 -99.5t-86.5 -63.5v-17q44 -22 67.5 -60z" />
    <glyph glyph-name="agrave" unicode="&#xe0;" horiz-adv-x="521" 
d="M97 3.5q-35 19.5 -55.5 52.5t-20.5 74q0 80 58 128t161 48q38 0 74.5 -9t74.5 -30l9 42q3 18 3 31q0 50 -38 80t-93 30q-85 0 -135 -65l-50 36q27 36 79 60.5t115 24.5q86 0 134.5 -42t48.5 -112q0 -20 -4 -49l-53 -303h-62l13 72h-19q-28 -42 -69 -65t-93 -23
q-43 0 -78 19.5zM316 87q52 48 65 129q-36 22 -67.5 31.5t-78.5 9.5q-64 0 -105.5 -32t-41.5 -89q0 -45 30.5 -71t74.5 -26q71 0 123 48zM226 716h70l23 -107h-53z" />
    <glyph glyph-name="aacute" unicode="&#xe1;" horiz-adv-x="521" 
d="M97 3.5q-35 19.5 -55.5 52.5t-20.5 74q0 80 58 128t161 48q38 0 74.5 -9t74.5 -30l9 42q3 18 3 31q0 50 -38 80t-93 30q-85 0 -135 -65l-50 36q27 36 79 60.5t115 24.5q86 0 134.5 -42t48.5 -112q0 -20 -4 -49l-53 -303h-62l13 72h-19q-28 -42 -69 -65t-93 -23
q-43 0 -78 19.5zM316 87q52 48 65 129q-36 22 -67.5 31.5t-78.5 9.5q-64 0 -105.5 -32t-41.5 -89q0 -45 30.5 -71t74.5 -26q71 0 123 48zM330 716h69l-76 -107h-55z" />
    <glyph glyph-name="acircumflex" unicode="&#xe2;" horiz-adv-x="521" 
d="M97 3.5q-35 19.5 -55.5 52.5t-20.5 74q0 80 58 128t161 48q38 0 74.5 -9t74.5 -30l9 42q3 18 3 31q0 50 -38 80t-93 30q-85 0 -135 -65l-50 36q27 36 79 60.5t115 24.5q86 0 134.5 -42t48.5 -112q0 -20 -4 -49l-53 -303h-62l13 72h-19q-28 -42 -69 -65t-93 -23
q-43 0 -78 19.5zM316 87q52 48 65 129q-36 22 -67.5 31.5t-78.5 9.5q-64 0 -105.5 -32t-41.5 -89q0 -45 30.5 -71t74.5 -26q71 0 123 48zM169 606l113 110h65l73 -107l1 5h-62l-42 64h-16l-60 -64h-70z" />
    <glyph glyph-name="atilde" unicode="&#xe3;" horiz-adv-x="521" 
d="M97 3.5q-35 19.5 -55.5 52.5t-20.5 74q0 80 58 128t161 48q38 0 74.5 -9t74.5 -30l9 42q3 18 3 31q0 50 -38 80t-93 30q-85 0 -135 -65l-50 36q27 36 79 60.5t115 24.5q87 0 135 -42t48 -112q0 -20 -4 -49l-53 -303h-62l13 72h-19q-28 -42 -69 -65t-93 -23
q-43 0 -78 19.5zM316 87q52 48 66 129q-37 22 -68.5 31.5t-78.5 9.5q-64 0 -105.5 -32t-41.5 -89q0 -45 30.5 -71t74.5 -26q71 0 123 48zM341.5 621.5q-13.5 5.5 -32.5 16.5q-17 12 -31.5 18.5t-31.5 6.5q-39 0 -48 -37h-52q5 41 32 67t67 26q15 0 28 -5.5t33 -17.5
q18 -11 32.5 -17.5t31.5 -6.5q38 0 47 37h51q-5 -41 -32 -67t-66 -26q-15 0 -28.5 5.5z" />
    <glyph glyph-name="adieresis" unicode="&#xe4;" horiz-adv-x="521" 
d="M97 3.5q-35 19.5 -55.5 52.5t-20.5 74q0 80 58 128t161 48q38 0 74.5 -9t74.5 -30l9 42q3 18 3 31q0 50 -38 80t-93 30q-85 0 -135 -65l-50 36q27 36 79 60.5t115 24.5q86 0 134.5 -42t48.5 -112q0 -20 -4 -49l-53 -303h-62l13 72h-19q-28 -42 -69 -65t-93 -23
q-43 0 -78 19.5zM316 87q52 48 65 129q-36 22 -67.5 31.5t-78.5 9.5q-64 0 -105.5 -32t-41.5 -89q0 -45 30.5 -71t74.5 -26q71 0 123 48zM198 638q-13 13 -13 31q0 19 12.5 31t30.5 12q21 0 32.5 -12t11.5 -31q0 -18 -12 -31t-32 -13q-17 0 -30 13zM358 638q-13 13 -13 31
q0 19 13 31t31 12q19 0 31 -12t12 -31q0 -18 -12 -31t-31 -13q-18 0 -31 13z" />
    <glyph glyph-name="aring" unicode="&#xe5;" horiz-adv-x="521" 
d="M97 3.5q-35 19.5 -55.5 52.5t-20.5 74q0 80 58 128t161 48q38 0 74.5 -9t74.5 -30l9 42q3 18 3 31q0 50 -38 80t-93 30q-85 0 -135 -65l-50 36q27 36 79 60.5t115 24.5q86 0 134.5 -42t48.5 -112q0 -20 -4 -49l-53 -303h-62l13 72h-19q-28 -42 -69 -65t-93 -23
q-43 0 -78 19.5zM316 87q52 48 65 129q-36 22 -67.5 31.5t-78.5 9.5q-64 0 -105.5 -32t-41.5 -89q0 -45 30.5 -71t74.5 -26q71 0 123 48zM245.5 615.5q-26.5 27.5 -26.5 66.5t26.5 66t65.5 27t65.5 -27t26.5 -66t-26.5 -66.5t-65.5 -27.5t-65.5 27.5zM349.5 641
q16.5 17 16.5 41q0 23 -16.5 40t-38.5 17t-38 -16.5t-16 -40.5t16 -41t38 -17t38.5 17z" />
    <glyph glyph-name="ae" unicode="&#xe6;" horiz-adv-x="881" 
d="M97 3.5q-35 19.5 -55.5 52.5t-20.5 74q0 86 62 131t164 45q43 0 78.5 -9.5t64.5 -28.5l9 44q3 22 3 25q0 52 -35.5 82.5t-92.5 30.5q-43 0 -80.5 -18.5t-54.5 -47.5l-53 32q23 38 74 64t120 26q60 0 103.5 -25t68.5 -79q41 56 91.5 80t109.5 24q62 0 107 -27.5t68 -74
t23 -103.5q0 -41 -6 -62h-394q-3 -27 -3 -42q0 -47 21.5 -83t55.5 -54.5t73 -18.5q61 0 102 25.5t66 67.5l48 -29q-30 -55 -87.5 -88t-133.5 -33q-67 0 -116 35t-75 104q-47 -76 -104 -107.5t-123 -31.5q-43 0 -78 19.5zM786 289v24q0 35 -16.5 66t-48.5 50.5t-77 19.5
q-65 0 -113.5 -41.5t-72.5 -118.5h328zM316 87q52 48 65 129q-69 41 -146 41q-64 0 -105.5 -32t-41.5 -89q0 -45 30.5 -71t74.5 -26q71 0 123 48z" />
    <glyph glyph-name="ccedilla" unicode="&#xe7;" horiz-adv-x="519" 
d="M348.5 68q42.5 27 63.5 68l50 -25q-32 -61 -86.5 -94t-133.5 -33h-9l-33 -57q34 7 40 7q29 0 47 -21.5t18 -56.5q0 -41 -27 -67t-72 -26q-30 0 -52.5 17.5t-24.5 33.5l34 15q1 -7 14.5 -20t32.5 -13q23 0 40 16.5t17 43.5q0 20 -13.5 34t-33.5 14q-21 0 -36 -15l-26 12
l46 86q-84 20 -127 81.5t-43 140.5q0 82 35.5 150t100 107.5t146.5 39.5q77 0 125 -39t62 -86l-61 -24q-11 38 -47.5 65t-88.5 27q-56 0 -103 -30.5t-74.5 -84t-27.5 -119.5q0 -74 42 -124t110 -50q53 0 95.5 27z" />
    <glyph glyph-name="egrave" unicode="&#xe8;" horiz-adv-x="554" 
d="M133.5 14q-48.5 30 -74.5 81t-26 113q0 78 34 146.5t96.5 110t142.5 41.5q62 0 106.5 -27.5t68 -74.5t23.5 -103q0 -41 -6 -62h-396q-3 -30 -3 -42q0 -47 21.5 -83t56.5 -54.5t73 -18.5q60 0 102.5 26t66.5 67l48 -29q-30 -55 -88 -88t-132 -33q-65 0 -113.5 30zM439 289
v24q0 36 -17.5 67t-49 50t-76.5 19q-65 0 -113.5 -41.5t-70.5 -118.5h327zM250 716h69l23 -107h-52z" />
    <glyph glyph-name="eacute" unicode="&#xe9;" horiz-adv-x="554" 
d="M133.5 14q-48.5 30 -74.5 81t-26 113q0 78 34 146.5t96.5 110t142.5 41.5q62 0 106.5 -27.5t68 -74.5t23.5 -103q0 -41 -6 -62h-396q-3 -30 -3 -42q0 -47 21.5 -83t56.5 -54.5t73 -18.5q60 0 102.5 26t66.5 67l48 -29q-30 -55 -88 -88t-132 -33q-65 0 -113.5 30zM439 289
v24q0 36 -17.5 67t-49 50t-76.5 19q-65 0 -113.5 -41.5t-70.5 -118.5h327zM353 716h69l-76 -107h-54z" />
    <glyph glyph-name="ecircumflex" unicode="&#xea;" horiz-adv-x="554" 
d="M133.5 14q-48.5 30 -74.5 81t-26 113q0 78 34 146.5t96.5 110t142.5 41.5q62 0 106.5 -27.5t68 -74.5t23.5 -103q0 -41 -6 -62h-396q-3 -30 -3 -42q0 -47 21.5 -83t56.5 -54.5t73 -18.5q60 0 102.5 26t66.5 67l48 -29q-30 -55 -88 -88t-132 -33q-65 0 -113.5 30zM439 289
v24q0 36 -17.5 67t-49 50t-76.5 19q-65 0 -113.5 -41.5t-70.5 -118.5h327zM192 606l113 110h65l73 -107l1 5h-62l-42 64h-16l-60 -64h-70z" />
    <glyph glyph-name="edieresis" unicode="&#xeb;" horiz-adv-x="554" 
d="M133.5 14q-48.5 30 -74.5 81t-26 113q0 78 34 146.5t96.5 110t142.5 41.5q62 0 106.5 -27.5t68 -74.5t23.5 -103q0 -41 -6 -62h-396q-3 -30 -3 -42q0 -47 21.5 -83t56.5 -54.5t73 -18.5q60 0 102.5 26t66.5 67l48 -29q-30 -55 -88 -88t-132 -33q-65 0 -113.5 30zM439 289
v24q0 36 -17.5 67t-49 50t-76.5 19q-65 0 -113.5 -41.5t-70.5 -118.5h327zM221.5 638q-12.5 13 -12.5 31q0 19 12 31t30 12q21 0 32.5 -12t11.5 -31q0 -18 -12 -31t-32 -13q-17 0 -29.5 13zM381 638q-13 13 -13 31q0 19 13 31t31 12q20 0 31.5 -12t11.5 -31q0 -18 -11.5 -31
t-31.5 -13q-18 0 -31 13z" />
    <glyph glyph-name="igrave" unicode="&#xec;" horiz-adv-x="225" 
d="M110 490h65l-84 -490h-65zM92 716h70l23 -107h-53z" />
    <glyph glyph-name="iacute" unicode="&#xed;" horiz-adv-x="223" 
d="M110 490h65l-84 -490h-65zM196 716h69l-76 -107h-55z" />
    <glyph glyph-name="icircumflex" unicode="&#xee;" horiz-adv-x="221" 
d="M110 490h66l-84 -490h-66zM36 606l113 110h64l73 -107l2 5h-63l-42 64h-15l-61 -64h-70z" />
    <glyph glyph-name="idieresis" unicode="&#xef;" horiz-adv-x="201" 
d="M74.5 638q-13.5 13 -13.5 31q0 19 13 31t31 12q19 0 31.5 -12t12.5 -31q0 -18 -12.5 -31t-31.5 -13q-17 0 -30.5 13zM204 638q-13 13 -13 31q0 19 13 31t31 12q19 0 31.5 -12t12.5 -31q0 -18 -12.5 -31t-31.5 -13q-18 0 -31 13zM110 490h65l-83 -490h-66z" />
    <glyph glyph-name="eth" unicode="&#xf0;" horiz-adv-x="551" 
d="M143 12.5q-50 28.5 -78.5 78.5t-28.5 110q0 73 32.5 135.5t91.5 98.5t135 36q42 0 75 -16t58 -45l17 10q-11 49 -30.5 80.5t-55.5 70.5l-130 -54l-15 40l108 45q-64 42 -108 53l20 53q80 -22 150 -81l106 46l16 -40l-86 -37q51 -64 75.5 -134.5t24.5 -147.5
q0 -90 -30.5 -165.5t-90.5 -120t-146 -44.5q-60 0 -110 28.5zM354.5 72.5q41.5 27.5 65.5 74.5t24 101q0 71 -41 118t-109 47q-55 0 -99 -28t-67.5 -76t-23.5 -104q0 -45 20.5 -81.5t56.5 -57.5t80 -21q52 0 93.5 27.5z" />
    <glyph glyph-name="ntilde" unicode="&#xf1;" horiz-adv-x="551" 
d="M170 415q28 43 70 67t96 24q71 0 110.5 -38.5t39.5 -102.5q0 -39 -5 -69l-51 -296h-66l51 294q6 39 6 52q0 49 -31.5 76t-82.5 27q-64 0 -113 -48.5t-62 -121.5l-47 -279h-66l84 490h61l-13 -75h19zM382.5 621.5q-13.5 5.5 -31.5 16.5q-18 12 -32 18.5t-32 6.5
q-39 0 -47 -37h-52q5 41 32 67t66 26q15 0 28 -5.5t34 -17.5q17 -11 31.5 -17.5t31.5 -6.5q38 0 47 37h52q-5 -41 -32 -67t-67 -26q-15 0 -28.5 5.5z" />
    <glyph glyph-name="ograve" unicode="&#xf2;" horiz-adv-x="585" 
d="M139 14.5q-49 30.5 -76.5 83.5t-27.5 119q0 80 34.5 146t98.5 104.5t146 38.5q64 0 113 -30.5t76 -83.5t27 -119q0 -81 -34.5 -147t-98.5 -104t-146 -38q-63 0 -112 30.5zM366 72q47 31 72 83t25 113q0 78 -43.5 129.5t-115.5 51.5q-58 0 -105 -31t-72 -83t-25 -113
q0 -79 43.5 -130t115.5 -51q58 0 105 31zM265 716h69l23 -107h-53z" />
    <glyph glyph-name="oacute" unicode="&#xf3;" horiz-adv-x="585" 
d="M139 14.5q-49 30.5 -76.5 83.5t-27.5 119q0 80 34.5 146t98.5 104.5t146 38.5q64 0 113 -30.5t76 -83.5t27 -119q0 -81 -34.5 -147t-98.5 -104t-146 -38q-63 0 -112 30.5zM366 72q47 31 72 83t25 113q0 78 -43.5 129.5t-115.5 51.5q-58 0 -105 -31t-72 -83t-25 -113
q0 -79 43.5 -130t115.5 -51q58 0 105 31zM368 716h69l-76 -107h-55z" />
    <glyph glyph-name="ocircumflex" unicode="&#xf4;" horiz-adv-x="585" 
d="M139 14.5q-49 30.5 -76.5 83.5t-27.5 119q0 80 34.5 146t98.5 104.5t146 38.5q64 0 113 -30.5t76 -83.5t27 -119q0 -81 -34.5 -147t-98.5 -104t-146 -38q-63 0 -112 30.5zM366 72q47 31 72 83t25 113q0 78 -43.5 129.5t-115.5 51.5q-58 0 -105 -31t-72 -83t-25 -113
q0 -79 43.5 -130t115.5 -51q58 0 105 31zM207 606l113 110h65l73 -107l1 5h-62l-42 64h-16l-60 -64h-70z" />
    <glyph glyph-name="otilde" unicode="&#xf5;" horiz-adv-x="585" 
d="M139 14.5q-49 30.5 -76.5 83.5t-27.5 119q0 80 34.5 146t98.5 104.5t146 38.5q64 0 113 -30.5t76 -83.5t27 -119q0 -81 -34.5 -147t-98.5 -104t-146 -38q-63 0 -112 30.5zM366 72q47 31 72 83t25 113q0 78 -43.5 129.5t-115.5 51.5q-58 0 -105 -31t-72 -83t-25 -113
q0 -79 43.5 -130t115.5 -51q58 0 105 31zM379.5 621.5q-13.5 5.5 -32.5 16.5q-17 12 -31.5 18.5t-31.5 6.5q-39 0 -48 -37h-52q5 41 32 67t67 26q15 0 28 -5.5t33 -17.5q18 -11 32.5 -17.5t31.5 -6.5q38 0 47 37h51q-5 -41 -32 -67t-66 -26q-15 0 -28.5 5.5z" />
    <glyph glyph-name="odieresis" unicode="&#xf6;" horiz-adv-x="585" 
d="M139 14.5q-49 30.5 -76.5 83.5t-27.5 119q0 80 34.5 146t98.5 104.5t146 38.5q64 0 113 -30.5t76 -83.5t27 -119q0 -81 -34.5 -147t-98.5 -104t-146 -38q-63 0 -112 30.5zM366 72q47 31 72 83t25 113q0 78 -43.5 129.5t-115.5 51.5q-58 0 -105 -31t-72 -83t-25 -113
q0 -79 43.5 -130t115.5 -51q58 0 105 31zM236 638q-13 13 -13 31q0 19 12.5 31t30.5 12q21 0 32.5 -12t11.5 -31q0 -18 -12 -31t-32 -13q-17 0 -30 13zM396 638q-13 13 -13 31q0 19 13 31t31 12q20 0 31.5 -12t11.5 -31q0 -18 -11.5 -31t-31.5 -13q-18 0 -31 13z" />
    <glyph glyph-name="divide" unicode="&#xf7;" horiz-adv-x="520" 
d="M257.5 410.5q-15.5 15.5 -15.5 37.5q0 23 15.5 38.5t37.5 15.5q23 0 38.5 -15.5t15.5 -38.5q0 -22 -15.5 -37.5t-38.5 -15.5q-22 0 -37.5 15.5zM60 286h414l-9 -50h-414zM191.5 35.5q-15.5 15.5 -15.5 38.5q0 22 15.5 37.5t38.5 15.5q22 0 37.5 -15.5t15.5 -37.5
q0 -23 -15.5 -38.5t-37.5 -15.5q-23 0 -38.5 15.5z" />
    <glyph glyph-name="oslash" unicode="&#xf8;" horiz-adv-x="553" 
d="M63 0l32 42q-37 38 -53.5 81.5t-16.5 93.5q0 79 35.5 145.5t100.5 105t147 38.5q61 0 116 -32l37 47l37 -30l-37 -48q34 -37 50.5 -79.5t16.5 -90.5q0 -80 -35.5 -146t-100.5 -104.5t-147 -38.5q-58 0 -113 30l-31 -43zM385 422q-42 27 -87 27q-58 0 -106 -31t-74 -83.5
t-26 -112.5q0 -67 43 -128zM360.5 72q47.5 31 73.5 83t26 113q0 65 -38 123l-252 -328q47 -22 85 -22q58 0 105.5 31z" />
    <glyph glyph-name="ugrave" unicode="&#xf9;" horiz-adv-x="551" 
d="M361 74q-28 -43 -70.5 -66.5t-96.5 -23.5q-71 0 -111 38.5t-40 102.5q0 32 7 69l51 296h64l-51 -294q-5 -26 -5 -52q0 -49 31.5 -76t81.5 -27q64 0 113 48t63 121l48 280h64l-83 -490h-61l13 74h-18zM254 716h69l23 -107h-52z" />
    <glyph glyph-name="uacute" unicode="&#xfa;" horiz-adv-x="551" 
d="M361 74q-28 -43 -70.5 -66.5t-96.5 -23.5q-71 0 -111 38.5t-40 102.5q0 32 7 69l51 296h64l-51 -294q-5 -26 -5 -52q0 -49 31.5 -76t81.5 -27q64 0 113 48t63 121l48 280h64l-83 -490h-61l13 74h-18zM357 716h69l-76 -107h-54z" />
    <glyph glyph-name="ucircumflex" unicode="&#xfb;" horiz-adv-x="551" 
d="M361 74q-28 -43 -70.5 -66.5t-96.5 -23.5q-71 0 -111 38.5t-40 102.5q0 32 7 69l51 296h64l-51 -294q-5 -26 -5 -52q0 -49 31.5 -76t81.5 -27q64 0 113 48t63 121l48 280h64l-83 -490h-61l13 74h-18zM196 606l113 110h65l73 -107l2 5h-63l-42 64h-16l-60 -64h-70z" />
    <glyph glyph-name="udieresis" unicode="&#xfc;" horiz-adv-x="551" 
d="M361 74q-28 -43 -70.5 -66.5t-96.5 -23.5q-71 0 -111 38.5t-40 102.5q0 32 7 69l51 296h64l-51 -294q-5 -26 -5 -52q0 -49 31.5 -76t81.5 -27q64 0 113 48t63 121l48 280h64l-83 -490h-61l13 74h-18zM225.5 638q-12.5 13 -12.5 31q0 19 12 31t31 12q20 0 31.5 -12
t11.5 -31q0 -18 -12 -31t-31 -13q-18 0 -30.5 13zM385.5 638q-12.5 13 -12.5 31q0 19 12.5 31t30.5 12q20 0 31.5 -12t11.5 -31q0 -18 -11.5 -31t-31.5 -13q-18 0 -30.5 13z" />
    <glyph glyph-name="yacute" unicode="&#xfd;" horiz-adv-x="506" 
d="M168 21l-121 469h68l92 -379h14l217 379h70l-422 -706h-66zM327 716h69l-76 -107h-54z" />
    <glyph glyph-name="thorn" unicode="&#xfe;" horiz-adv-x="567" 
d="M137 696h65l-35 -198l-18 -83h19q31 44 74 67.5t103 23.5q55 0 99 -27t69.5 -77t25.5 -118q0 -82 -36 -151t-100 -109t-143 -40q-52 0 -92 25t-60 67h-17l-9 -80l-37 -212h-65zM372 72q47 31 73.5 85.5t26.5 119.5q0 79 -42 125.5t-108 46.5q-57 0 -104.5 -32.5t-74 -88
t-26.5 -121.5q0 -75 43 -120.5t107 -45.5q58 0 105 31z" />
    <glyph glyph-name="ydieresis" unicode="&#xff;" horiz-adv-x="506" 
d="M168 21l-121 469h68l92 -379h14l217 379h70l-422 -706h-66zM196 638q-13 13 -13 31q0 19 12.5 31t30.5 12q20 0 32 -12t12 -31q0 -18 -12.5 -31t-31.5 -13q-17 0 -30 13zM356 638q-13 13 -13 31q0 19 13 31t31 12q19 0 31 -12t12 -31q0 -18 -12 -31t-31 -13q-18 0 -31 13
z" />
    <glyph glyph-name="Amacron" unicode="&#x100;" horiz-adv-x="669" 
d="M356 696h82l141 -696h-70l-36 197h-323l-108 -197h-72zM461 257l-52 270l-16 85h-18l-194 -355h280zM298 856h256l-8 -46h-256z" />
    <glyph glyph-name="amacron" unicode="&#x101;" horiz-adv-x="521" 
d="M97 3.5q-35 19.5 -55.5 52.5t-20.5 74q0 80 58 128t161 48q38 0 74.5 -9t74.5 -30l9 42q3 18 3 31q0 50 -38 80t-93 30q-85 0 -135 -65l-50 36q27 36 79 60.5t115 24.5q86 0 134.5 -42t48.5 -112q0 -20 -4 -49l-53 -303h-62l13 72h-19q-28 -42 -69 -65t-93 -23
q-43 0 -78 19.5zM316 87q52 48 65 129q-36 22 -67.5 31.5t-78.5 9.5q-64 0 -105.5 -32t-41.5 -89q0 -45 30.5 -71t74.5 -26q71 0 123 48zM184 692h253l-8 -47h-252z" />
    <glyph glyph-name="Abreve" unicode="&#x102;" horiz-adv-x="669" 
d="M356 696h82l141 -696h-70l-36 197h-323l-108 -197h-72zM461 257l-52 270l-16 85h-18l-194 -355h280zM343.5 798.5q-29.5 26.5 -29.5 66.5q0 6 1 11h48q1 6 1 -2q0 -25 15.5 -41.5t43.5 -16.5q30 0 51 18.5t25 41.5h48q-6 -46 -42 -75t-90 -29q-42 0 -71.5 26.5z" />
    <glyph glyph-name="abreve" unicode="&#x103;" horiz-adv-x="521" 
d="M97 3.5q-35 19.5 -55.5 52.5t-20.5 74q0 80 58 128t161 48q38 0 74.5 -9t74.5 -30l9 42q3 18 3 31q0 50 -38 80t-93 30q-85 0 -135 -65l-50 36q27 36 79 60.5t115 24.5q86 0 134.5 -42t48.5 -112q0 -20 -4 -49l-53 -303h-62l13 72h-19q-28 -42 -69 -65t-93 -23
q-43 0 -78 19.5zM316 87q52 48 65 129q-36 22 -67.5 31.5t-78.5 9.5q-64 0 -105.5 -32t-41.5 -89q0 -45 30.5 -71t74.5 -26q71 0 123 48zM228 633.5q-29 26.5 -29 67.5q0 6 1 11h47q3 18 3 -2q0 -25 15 -42t41 -17q29 0 49 19t24 42h49q-7 -47 -41.5 -76t-87.5 -29
q-42 0 -71 26.5z" />
    <glyph glyph-name="Aogonek" unicode="&#x104;" horiz-adv-x="641" 
d="M457.5 -200.5q-25.5 23.5 -25.5 58.5q0 73 79 130l-38 209h-323l-108 -197h-72l386 696h82l142 -701q-30 -17 -60 -50.5t-30 -68.5q0 -23 14.5 -36.5t35.5 -13.5q23 0 29 3l-8 -49q-5 -1 -13.5 -2.5t-24.5 -1.5q-40 0 -65.5 23.5zM461 257l-52 270l-16 85h-18l-194 -355
h280z" />
    <glyph glyph-name="aogonek" unicode="&#x105;" horiz-adv-x="501" 
d="M281 -200.5q-25 23.5 -25 58.5q0 37 21 68.5t64 58.5l15 87h-19q-28 -42 -69 -65t-93 -23q-43 0 -78 19.5t-55.5 52.5t-20.5 74q0 80 58 128t161 48q38 0 74.5 -9t74.5 -30l9 42q3 18 3 31q0 50 -38 80t-93 30q-85 0 -135 -65l-50 36q27 36 79 60.5t115 24.5
q86 0 134.5 -42t48.5 -112q0 -20 -4 -49l-54 -307q-31 -18 -60.5 -51.5t-29.5 -68.5q0 -23 14 -36.5t35 -13.5t29 4l-9 -50q-11 -4 -38 -4q-39 0 -64 23.5zM316 87q52 48 65 129q-36 22 -67.5 31.5t-78.5 9.5q-64 0 -105.5 -32t-41.5 -89q0 -45 30.5 -71t74.5 -26
q71 0 123 48z" />
    <glyph glyph-name="Cacute" unicode="&#x106;" horiz-adv-x="740" 
d="M203.5 22.5q-69.5 38.5 -108.5 109.5t-39 164q0 107 55.5 203.5t152.5 154.5t215 58q79 0 141.5 -32.5t90.5 -75.5l-53 -43q-28 42 -76 66t-113 24q-94 0 -173.5 -49.5t-126 -130t-46.5 -171.5q0 -76 32.5 -133.5t88.5 -89.5t126 -32q75 0 132.5 28t106.5 76l42 -47
q-60 -58 -129 -88t-161 -30q-88 0 -157.5 38.5zM510 880h69l-78 -107h-54z" />
    <glyph glyph-name="cacute" unicode="&#x107;" horiz-adv-x="541" 
d="M134 14.5q-47 30.5 -73.5 82t-26.5 112.5q0 82 35.5 150t100 107.5t146.5 39.5q77 0 125 -39t62 -86l-61 -24q-11 38 -47.5 65t-88.5 27q-56 0 -103 -30.5t-74.5 -84t-27.5 -119.5q0 -74 42 -124t110 -50q53 0 95.5 27t63.5 68l50 -25q-32 -61 -86.5 -94t-133.5 -33
q-61 0 -108 30.5zM357 716h69l-76 -107h-55z" />
    <glyph glyph-name="Ccircumflex" unicode="&#x108;" horiz-adv-x="740" 
d="M203.5 22.5q-69.5 38.5 -108.5 109.5t-39 164q0 107 55.5 203.5t152.5 154.5t215 58q79 0 141.5 -32.5t90.5 -75.5l-53 -43q-28 42 -76 66t-113 24q-94 0 -173.5 -49.5t-126 -130t-46.5 -171.5q0 -76 32.5 -133.5t88.5 -89.5t126 -32q75 0 132.5 28t106.5 76l42 -47
q-60 -58 -129 -88t-161 -30q-88 0 -157.5 38.5zM342 769l118 111h66l75 -108l2 7h-63l-44 63h-17l-63 -63h-72z" />
    <glyph glyph-name="ccircumflex" unicode="&#x109;" horiz-adv-x="541" 
d="M134 14.5q-47 30.5 -73.5 82t-26.5 112.5q0 82 35.5 150t100 107.5t146.5 39.5q77 0 125 -39t62 -86l-61 -24q-11 38 -47.5 65t-88.5 27q-56 0 -103 -30.5t-74.5 -84t-27.5 -119.5q0 -74 42 -124t110 -50q53 0 95.5 27t63.5 68l50 -25q-32 -61 -86.5 -94t-133.5 -33
q-61 0 -108 30.5zM196 606l113 110h65l73 -107l1 5h-62l-42 64h-16l-60 -64h-70z" />
    <glyph glyph-name="Cdotaccent" unicode="&#x10a;" horiz-adv-x="740" 
d="M203.5 22.5q-69.5 38.5 -108.5 109.5t-39 164q0 107 55.5 203.5t152.5 154.5t215 58q79 0 141.5 -32.5t90.5 -75.5l-53 -43q-28 42 -76 66t-113 24q-94 0 -173.5 -49.5t-126 -130t-46.5 -171.5q0 -76 32.5 -133.5t88.5 -89.5t126 -32q75 0 132.5 28t106.5 76l42 -47
q-60 -58 -129 -88t-161 -30q-88 0 -157.5 38.5zM462 819q-12 12 -12 27q0 17 12 28t28 11q17 0 28 -11t11 -28q0 -16 -11 -27.5t-28 -11.5q-16 0 -28 12z" />
    <glyph glyph-name="cdotaccent" unicode="&#x10b;" horiz-adv-x="541" 
d="M134 14.5q-47 30.5 -73.5 82t-26.5 112.5q0 82 35.5 150t100 107.5t146.5 39.5q77 0 125 -39t62 -86l-61 -24q-11 38 -47.5 65t-88.5 27q-56 0 -103 -30.5t-74.5 -84t-27.5 -119.5q0 -74 42 -124t110 -50q53 0 95.5 27t63.5 68l50 -25q-32 -61 -86.5 -94t-133.5 -33
q-61 0 -108 30.5zM306 638q-13 13 -13 31q0 19 12.5 31t30.5 12q19 0 31.5 -12t12.5 -31q0 -18 -12 -31t-32 -13q-17 0 -30 13z" />
    <glyph glyph-name="Ccaron" unicode="&#x10c;" horiz-adv-x="740" 
d="M203.5 22.5q-69.5 38.5 -108.5 109.5t-39 164q0 107 55.5 203.5t152.5 154.5t215 58q79 0 141.5 -32.5t90.5 -75.5l-53 -43q-28 42 -76 66t-113 24q-94 0 -173.5 -49.5t-126 -130t-46.5 -171.5q0 -76 32.5 -133.5t88.5 -89.5t126 -32q75 0 132.5 28t106.5 76l42 -47
q-60 -58 -129 -88t-161 -30q-88 0 -157.5 38.5zM373 887l-2 -7h64l43 -63h17l63 63h72l2 10l-118 -111h-66z" />
    <glyph glyph-name="ccaron" unicode="&#x10d;" horiz-adv-x="541" 
d="M134 14.5q-47 30.5 -73.5 82t-26.5 112.5q0 82 35.5 150t100 107.5t146.5 39.5q77 0 125 -39t62 -86l-61 -24q-11 38 -47.5 65t-88.5 27q-56 0 -103 -30.5t-74.5 -84t-27.5 -119.5q0 -74 42 -124t110 -50q53 0 95.5 27t63.5 68l50 -25q-32 -61 -86.5 -94t-133.5 -33
q-61 0 -108 30.5zM225 721l-2 -5h62l43 -64h15l61 64h71l1 8l-114 -110h-65z" />
    <glyph glyph-name="Dcaron" unicode="&#x10e;" horiz-adv-x="703" 
d="M157 696h208q94 0 160.5 -38.5t101 -105.5t34.5 -154q0 -106 -49.5 -197.5t-143.5 -146t-220 -54.5h-214zM253 61q96 0 174 44t122.5 119.5t44.5 167.5q0 117 -64.5 180t-179.5 63h-139l-102 -574h144zM260 887l-2 -7h64l43 -63h17l63 63h72l2 10l-118 -111h-66z" />
    <glyph glyph-name="dcaron" unicode="&#x10f;" horiz-adv-x="665" 
d="M123 11q-44 27 -69.5 77t-25.5 117q0 82 36 151t99.5 109.5t143.5 40.5q53 0 92.5 -25.5t60.5 -67.5h17l8 80l35 203h65l-120 -696h-61l13 75h-19q-30 -44 -72.5 -67.5t-103.5 -23.5q-55 0 -99 27zM349.5 73.5q47.5 32.5 74 87.5t26.5 120q0 76 -42.5 122t-106.5 46
q-59 0 -106 -31t-73.5 -85.5t-26.5 -119.5q0 -78 42.5 -125t107.5 -47q57 0 104.5 32.5zM667 696h70l-55 -169h-44z" />
    <glyph glyph-name="Dcroat" unicode="&#x110;" horiz-adv-x="684" 
d="M17 339l7 46h80l55 311h209q94 0 160.5 -38.5t101 -105.5t34.5 -154q0 -106 -49.5 -197.5t-143.5 -146t-221 -54.5h-214l60 339h-79zM430 105q78 44 122.5 119.5t44.5 167.5q0 117 -64.5 180t-179.5 63h-140l-45 -250h185l-7 -46h-185l-49 -278h143q97 0 175 44z" />
    <glyph glyph-name="dcroat" unicode="&#x111;" horiz-adv-x="564" 
d="M122.5 11q-44.5 27 -69.5 77t-25 117q0 82 36 151t99.5 109.5t143.5 40.5q53 0 92 -25.5t61 -67.5h16l9 80l16 90h-151l7 47h151l12 66h65l-12 -66h62l-8 -47h-61l-101 -583h-61l13 75h-19q-30 -44 -72.5 -67.5t-103.5 -23.5q-55 0 -99.5 27zM348.5 73.5
q47.5 32.5 74.5 87.5t27 120q0 76 -43 122t-106 46q-59 0 -106 -31t-73.5 -85.5t-26.5 -119.5q0 -78 42.5 -125t106.5 -47q57 0 104.5 32.5z" />
    <glyph glyph-name="Emacron" unicode="&#x112;" horiz-adv-x="550" 
d="M157 696h394l-10 -61h-330l-46 -257h298l-10 -60h-298l-46 -257h330l-11 -61h-394zM260 856h256l-8 -46h-256z" />
    <glyph glyph-name="emacron" unicode="&#x113;" horiz-adv-x="554" 
d="M133.5 14q-48.5 30 -74.5 81t-26 113q0 78 34 146.5t96.5 110t142.5 41.5q62 0 106.5 -27.5t68 -74.5t23.5 -103q0 -41 -6 -62h-396q-3 -30 -3 -42q0 -47 21.5 -83t56.5 -54.5t73 -18.5q60 0 102.5 26t66.5 67l48 -29q-30 -55 -88 -88t-132 -33q-65 0 -113.5 30zM439 289
v24q0 36 -17.5 67t-49 50t-76.5 19q-65 0 -113.5 -41.5t-70.5 -118.5h327zM208 692h252l-8 -47h-252z" />
    <glyph glyph-name="Ebreve" unicode="&#x114;" horiz-adv-x="550" 
d="M157 696h394l-10 -61h-330l-46 -257h298l-10 -60h-298l-46 -257h330l-11 -61h-394zM305.5 798.5q-29.5 26.5 -29.5 66.5q0 6 1 11h48q1 6 1 -2q0 -25 15.5 -41.5t43.5 -16.5q30 0 51 18.5t25 41.5h48q-6 -46 -42 -75t-90 -29q-42 0 -71.5 26.5z" />
    <glyph glyph-name="ebreve" unicode="&#x115;" horiz-adv-x="554" 
d="M133.5 14q-48.5 30 -74.5 81t-26 113q0 78 34 146.5t96.5 110t142.5 41.5q62 0 106.5 -27.5t68 -74.5t23.5 -103q0 -41 -6 -62h-396q-3 -30 -3 -42q0 -47 21.5 -83t56.5 -54.5t73 -18.5q60 0 102.5 26t66.5 67l48 -29q-30 -55 -88 -88t-132 -33q-65 0 -113.5 30zM439 289
v24q0 36 -17.5 67t-49 50t-76.5 19q-65 0 -113.5 -41.5t-70.5 -118.5h327zM251 633.5q-29 26.5 -29 67.5q0 6 1 11h47q3 18 3 -2q0 -25 15 -42t41 -17q29 0 49.5 19t24.5 42h48q-6 -47 -41 -76t-88 -29q-42 0 -71 26.5z" />
    <glyph glyph-name="Edotaccent" unicode="&#x116;" horiz-adv-x="550" 
d="M157 696h394l-10 -61h-330l-46 -257h298l-10 -60h-298l-46 -257h330l-11 -61h-394zM361 819q-12 12 -12 27q0 17 12 28t28 11q17 0 28 -11t11 -28q0 -16 -11 -27.5t-28 -11.5q-16 0 -28 12z" />
    <glyph glyph-name="edotaccent" unicode="&#x117;" horiz-adv-x="554" 
d="M133.5 14q-48.5 30 -74.5 81t-26 113q0 78 34 146.5t96.5 110t142.5 41.5q62 0 106.5 -27.5t68 -74.5t23.5 -103q0 -41 -6 -62h-396q-3 -30 -3 -42q0 -47 21.5 -83t56.5 -54.5t73 -18.5q60 0 102.5 26t66.5 67l48 -29q-30 -55 -88 -88t-132 -33q-65 0 -113.5 30zM439 289
v24q0 36 -17.5 67t-49 50t-76.5 19q-65 0 -113.5 -41.5t-70.5 -118.5h327zM302 638q-13 13 -13 31q0 19 12.5 31t30.5 12q20 0 32 -12t12 -31q0 -18 -12 -31t-32 -13q-17 0 -30 13z" />
    <glyph glyph-name="Eogonek" unicode="&#x118;" horiz-adv-x="526" 
d="M211 635l-46 -257h298l-10 -60h-298l-46 -257h330l-12 -65q-32 -18 -62 -51.5t-30 -68.5q0 -23 14 -36.5t36 -13.5q13 0 22.5 2t6.5 1l-8 -49q-5 -1 -13.5 -2.5t-24.5 -1.5q-40 0 -66 23.5t-26 58.5q0 73 109 142h-351l123 696h394l-10 -61h-330z" />
    <glyph glyph-name="eogonek" unicode="&#x119;" horiz-adv-x="534" 
d="M211 -200.5q-25 23.5 -25 58.5q0 64 81 126h-32q-62 3 -107.5 33.5t-70 80.5t-24.5 110q0 78 34 146.5t96.5 110t142.5 41.5q62 0 106.5 -27.5t68 -74.5t23.5 -103q0 -41 -6 -62h-396q-3 -30 -3 -42q0 -47 21.5 -83t56.5 -54.5t73 -18.5q60 0 102.5 26t66.5 67l49 -29
q-18 -32 -49 -59.5t-65 -41.5q-44 -19 -76.5 -55t-32.5 -73q0 -23 14 -36.5t34 -13.5q21 0 30 4l-9 -50q-12 -4 -38 -4q-40 0 -65 23.5zM439 289v24q0 36 -17.5 67t-49 50t-76.5 19q-65 0 -113.5 -41.5t-70.5 -118.5h327z" />
    <glyph glyph-name="Ecaron" unicode="&#x11a;" horiz-adv-x="550" 
d="M157 696h394l-10 -61h-330l-46 -257h298l-10 -60h-298l-46 -257h330l-11 -61h-394zM272 887l-2 -7h64l43 -63h17l63 63h72l2 10l-118 -111h-66z" />
    <glyph glyph-name="ecaron" unicode="&#x11b;" horiz-adv-x="554" 
d="M133.5 14q-48.5 30 -74.5 81t-26 113q0 78 34 146.5t96.5 110t142.5 41.5q62 0 106.5 -27.5t68 -74.5t23.5 -103q0 -41 -6 -62h-396q-3 -30 -3 -42q0 -47 21.5 -83t56.5 -54.5t73 -18.5q60 0 102.5 26t66.5 67l48 -29q-30 -55 -88 -88t-132 -33q-65 0 -113.5 30zM439 289
v24q0 36 -17.5 67t-49 50t-76.5 19q-65 0 -113.5 -41.5t-70.5 -118.5h327zM221 721l-2 -5h63l42 -64h15l61 64h71l1 8l-114 -110h-64z" />
    <glyph glyph-name="Gcircumflex" unicode="&#x11c;" horiz-adv-x="814" 
d="M215 22.5q-71 38.5 -114 111.5t-43 169q0 110 54 204t152 149.5t221 55.5q77 0 141 -28.5t92 -69.5l-54 -45q-20 33 -74.5 57.5t-117.5 24.5q-96 0 -175.5 -45.5t-125.5 -124t-46 -174.5q0 -81 34.5 -140t92.5 -90.5t127 -31.5t126.5 24.5t99.5 68.5q59 61 84 164h-260
l10 59h326q0 -9 -5 -41q-18 -131 -107 -223q-108 -113 -285 -113q-82 0 -153 38.5zM350 769l118 111h66l75 -108l2 7h-63l-44 63h-17l-63 -63h-72z" />
    <glyph glyph-name="gcircumflex" unicode="&#x11d;" horiz-adv-x="585" 
d="M96.5 -212q-40.5 20 -64.5 50.5t-29 56.5l64 25q9 -36 44.5 -65.5t92.5 -29.5q80 0 132 49.5t67 134.5l11 68h-18q-30 -44 -71 -65.5t-102 -21.5q-53 0 -96.5 27t-69 77t-25.5 115q0 79 34 147t96 109t142 41q54 0 94 -23.5t59 -65.5h16l13 73h61l-83 -482
q-20 -123 -92 -181.5t-180 -58.5q-55 0 -95.5 20zM347.5 79.5q47.5 32.5 74 86.5t26.5 115q0 76 -41 122t-104 46q-61 0 -108 -31.5t-72 -85.5t-25 -119q0 -77 40.5 -121.5t102.5 -44.5q59 0 106.5 32.5zM196 606l113 110h65l73 -107l2 5h-63l-42 64h-16l-60 -64h-70z" />
    <glyph glyph-name="Gbreve" unicode="&#x11e;" horiz-adv-x="814" 
d="M215 22.5q-71 38.5 -114 111.5t-43 169q0 110 54 204t152 149.5t221 55.5q77 0 141 -28.5t92 -69.5l-54 -45q-20 33 -74.5 57.5t-117.5 24.5q-96 0 -175.5 -45.5t-125.5 -124t-46 -174.5q0 -81 34.5 -140t92.5 -90.5t127 -31.5t126.5 24.5t99.5 68.5q59 61 84 164h-260
l10 59h326q0 -9 -5 -41q-18 -131 -107 -223q-108 -113 -285 -113q-82 0 -153 38.5zM414.5 798.5q-29.5 26.5 -29.5 66.5q0 6 1 11h48q1 6 1 -2q0 -25 15.5 -41.5t43.5 -16.5q30 0 51 18.5t25 41.5h48q-6 -46 -42 -75t-90 -29q-42 0 -71.5 26.5z" />
    <glyph glyph-name="gbreve" unicode="&#x11f;" horiz-adv-x="585" 
d="M96.5 -212q-40.5 20 -64.5 50.5t-29 56.5l64 25q9 -36 44.5 -65.5t92.5 -29.5q80 0 132 49.5t67 134.5l11 68h-18q-30 -44 -71 -65.5t-102 -21.5q-53 0 -96.5 27t-69 77t-25.5 115q0 79 34 147t96 109t142 41q54 0 94 -23.5t59 -65.5h16l13 73h61l-83 -482
q-20 -123 -92 -181.5t-180 -58.5q-55 0 -95.5 20zM347.5 79.5q47.5 32.5 74 86.5t26.5 115q0 76 -41 122t-104 46q-61 0 -108 -31.5t-72 -85.5t-25 -119q0 -77 40.5 -121.5t102.5 -44.5q59 0 106.5 32.5zM255 633.5q-29 26.5 -29 67.5q0 6 1 11h47q3 18 3 -2q0 -25 15 -42
t42 -17q28 0 48.5 19t24.5 42h48q-6 -47 -41 -76t-88 -29q-42 0 -71 26.5z" />
    <glyph glyph-name="Gdotaccent" unicode="&#x120;" horiz-adv-x="814" 
d="M215 22.5q-71 38.5 -114 111.5t-43 169q0 110 54 204t152 149.5t221 55.5q77 0 141 -28.5t92 -69.5l-54 -45q-20 33 -74.5 57.5t-117.5 24.5q-96 0 -175.5 -45.5t-125.5 -124t-46 -174.5q0 -81 34.5 -140t92.5 -90.5t127 -31.5t126.5 24.5t99.5 68.5q59 61 84 164h-260
l10 59h326q0 -9 -5 -41q-18 -131 -107 -223q-108 -113 -285 -113q-82 0 -153 38.5zM470 819q-12 12 -12 27q0 17 12 28t28 11q17 0 28 -11t11 -28q0 -16 -11 -27.5t-28 -11.5q-16 0 -28 12z" />
    <glyph glyph-name="gdotaccent" unicode="&#x121;" horiz-adv-x="585" 
d="M96.5 -212q-40.5 20 -64.5 50.5t-29 56.5l64 25q9 -36 44.5 -65.5t92.5 -29.5q80 0 132 49.5t67 134.5l11 68h-18q-30 -44 -71 -65.5t-102 -21.5q-53 0 -96.5 27t-69 77t-25.5 115q0 79 34 147t96 109t142 41q54 0 94 -23.5t59 -65.5h16l13 73h61l-83 -482
q-20 -123 -92 -181.5t-180 -58.5q-55 0 -95.5 20zM347.5 79.5q47.5 32.5 74 86.5t26.5 115q0 76 -41 122t-104 46q-61 0 -108 -31.5t-72 -85.5t-25 -119q0 -77 40.5 -121.5t102.5 -44.5q59 0 106.5 32.5zM306.5 638q-12.5 13 -12.5 31q0 19 12 31t30 12q20 0 32 -12t12 -31
q0 -18 -12 -31t-32 -13q-17 0 -29.5 13z" />
    <glyph glyph-name="uni0122" unicode="&#x122;" horiz-adv-x="814" 
d="M215 22.5q-71 38.5 -114 111.5t-43 169q0 110 54 204t152 149.5t221 55.5q77 0 141 -28.5t92 -69.5l-54 -45q-20 33 -74.5 57.5t-117.5 24.5q-96 0 -175.5 -45.5t-125.5 -124t-46 -174.5q0 -81 34.5 -140t92.5 -90.5t127 -31.5t126.5 24.5t99.5 68.5q59 61 84 164h-260
l10 59h326q0 -9 -5 -41q-18 -131 -107 -223q-108 -113 -285 -113q-82 0 -153 38.5zM356 -159q-31 7 -40 18.5t-9 27.5q0 17 13 31t33 14q21 0 33.5 -13.5t12.5 -33.5q0 -26 -16 -45l-64 -78l-19 16z" />
    <glyph glyph-name="uni0123" unicode="&#x123;" horiz-adv-x="585" 
d="M96.5 -212q-40.5 20 -64.5 50.5t-29 56.5l64 25q9 -36 44.5 -65.5t92.5 -29.5q80 0 132 49.5t67 134.5l11 68h-18q-30 -44 -71 -65.5t-102 -21.5q-53 0 -96.5 27t-69 77t-25.5 115q0 79 34 147t96 109t142 41q54 0 94 -23.5t59 -65.5h16l13 73h61l-83 -482
q-20 -123 -92 -181.5t-180 -58.5q-55 0 -95.5 20zM347.5 79.5q47.5 32.5 74 86.5t26.5 115q0 76 -41 122t-104 46q-61 0 -108 -31.5t-72 -85.5t-25 -119q0 -77 40.5 -121.5t102.5 -44.5q59 0 106.5 32.5zM331 683q31 -7 39.5 -18.5t8.5 -27.5q0 -17 -12.5 -31t-32.5 -14
q-22 0 -34 13.5t-12 33.5q0 26 15 45l63 79l20 -17z" />
    <glyph glyph-name="Hcircumflex" unicode="&#x124;" horiz-adv-x="698" 
d="M157 696h64l-55 -310h389l56 310h64l-123 -696h-64l57 326h-389l-58 -326h-64zM296 769l118 111h66l75 -108l2 7h-63l-44 63h-17l-63 -63h-72z" />
    <glyph glyph-name="hcircumflex" unicode="&#x125;" horiz-adv-x="551" 
d="M138 696h65l-35 -199l-18 -82h19q29 43 71.5 67t95.5 24q73 0 112 -38.5t39 -102.5q0 -31 -7 -66l-51 -299h-65l51 295q6 28 6 51q0 47 -31.5 75t-81.5 28q-65 0 -114 -50.5t-64 -129.5l-46 -269h-65zM56 770l113 110h65l73 -107l2 5h-63l-42 64h-16l-60 -64h-70z" />
    <glyph glyph-name="Hbar" unicode="&#x126;" horiz-adv-x="674" 
d="M60 509l8 46h64l25 141h64l-25 -141h389l26 141h64l-25 -141h64l-7 -46h-64l-91 -509h-64l57 326h-389l-58 -326h-64l90 509h-64zM577 509h-389l-22 -123h389z" />
    <glyph glyph-name="hbar" unicode="&#x127;" horiz-adv-x="529" 
d="M119 583h-63l9 47h61l12 66h65l-11 -66h144l-8 -47h-144l-16 -86l-18 -82h19q29 43 71.5 67t95.5 24q73 0 112 -38.5t39 -102.5q0 -31 -7 -66l-51 -299h-65l51 295q6 28 6 51q0 47 -31.5 75t-81.5 28q-65 0 -114 -50.5t-64 -129.5l-47 -269h-64z" />
    <glyph glyph-name="Itilde" unicode="&#x128;" horiz-adv-x="244" 
d="M157 696h64l-123 -696h-64zM248.5 785.5q-13.5 5.5 -32.5 16.5q-18 12 -33 18.5t-33 6.5q-41 0 -50 -37h-50q5 41 32.5 67.5t67.5 26.5q15 0 29 -5.5t33 -16.5q18 -12 33 -18.5t32 -6.5q41 0 50 37h51q-5 -41 -33 -67.5t-68 -26.5q-15 0 -28.5 5.5z" />
    <glyph glyph-name="itilde" unicode="&#x129;" horiz-adv-x="221" 
d="M110 490h65l-84 -490h-65zM207 621.5q-13 5.5 -32 16.5q-17 12 -31.5 18.5t-31.5 6.5q-39 0 -48 -37h-52q5 41 32 67t67 26q15 0 27.5 -5.5t33.5 -17.5q17 -11 31.5 -17.5t31.5 -6.5q38 0 47 37h52q-5 -41 -32 -67t-67 -26q-15 0 -28 5.5z" />
    <glyph glyph-name="Imacron" unicode="&#x12a;" horiz-adv-x="220" 
d="M105 856h225l-7 -46h-226zM157 696h64l-123 -696h-64z" />
    <glyph glyph-name="imacron" unicode="&#x12b;" horiz-adv-x="221" 
d="M109 490h66l-84 -490h-65zM50 692h252l-7 -47h-253z" />
    <glyph glyph-name="Ibreve" unicode="&#x12c;" horiz-adv-x="244" 
d="M157 696h64l-123 -696h-64zM134.5 798.5q-29.5 26.5 -29.5 66.5q0 6 1 11h48q1 6 1 -2q0 -25 15.5 -41.5t43.5 -16.5q30 0 51 18.5t25 41.5h48q-6 -46 -42 -75t-90 -29q-42 0 -71.5 26.5z" />
    <glyph glyph-name="ibreve" unicode="&#x12d;" horiz-adv-x="223" 
d="M110 490h66l-84 -490h-66zM94 633.5q-29 26.5 -29 67.5q0 6 1 11h47q3 18 3 -2q0 -25 15 -42t42 -17q28 0 48.5 19t24.5 42h49q-7 -47 -42 -76t-88 -29q-42 0 -71 26.5z" />
    <glyph glyph-name="Iogonek" unicode="&#x12e;" horiz-adv-x="222" 
d="M-25.5 -200.5q-25.5 23.5 -25.5 58.5q0 74 84 127l126 711h64l-124 -700q-32 -18 -62 -51.5t-30 -68.5q0 -23 14.5 -36.5t36.5 -13.5t29 3l-9 -49q-11 -4 -38 -4q-40 0 -65.5 23.5z" />
    <glyph glyph-name="iogonek" unicode="&#x12f;" horiz-adv-x="197" 
d="M135 619q-15 15 -15 36q0 22 15 36.5t36 14.5q22 0 36 -14.5t14 -36.5q0 -21 -14 -36t-36 -15q-21 0 -36 15zM-34 -200.5q-25 23.5 -25 58.5q0 74 81 127l86 505h66l-85 -494q-31 -18 -60.5 -51.5t-29.5 -68.5q0 -23 14 -36.5t34 -13.5q22 0 29 4l-8 -50
q-5 -1 -13.5 -2.5t-24.5 -1.5q-39 0 -64 23.5z" />
    <glyph glyph-name="Idotaccent" unicode="&#x130;" horiz-adv-x="244" 
d="M157 696h64l-123 -696h-64zM190 819q-12 12 -12 27q0 17 12 28t28 11q17 0 28 -11t11 -28q0 -16 -11 -27.5t-28 -11.5q-16 0 -28 12z" />
    <glyph glyph-name="dotlessi" unicode="&#x131;" horiz-adv-x="201" 
d="M110 490h65l-84 -490h-65z" />
    <glyph glyph-name="Jcircumflex" unicode="&#x134;" horiz-adv-x="531" 
d="M70.5 26.5q-50.5 42.5 -57.5 106.5l62 25q5 -52 41 -82.5t90 -30.5q64 0 110 44.5t58 112.5l86 494h64l-85 -484q-19 -114 -84.5 -171t-158.5 -57q-75 0 -125.5 42.5zM372 769l118 111h66l75 -108l2 7h-63l-44 63h-17l-63 -63h-72z" />
    <glyph glyph-name="jcircumflex" unicode="&#x135;" horiz-adv-x="220" 
d="M-114 -221l10 56q-4 3 10 -0.5t25 -3.5q63 0 77 79l99 580h66l-101 -580q-12 -76 -49.5 -106t-97.5 -30q-22 0 -39 5zM32 606l113 110h65l73 -107l1 5h-62l-42 64h-16l-61 -64h-70z" />
    <glyph glyph-name="uni0136" unicode="&#x136;" horiz-adv-x="626" 
d="M157 696h64l-65 -374h20l385 374h95l3 11l-322 -309l214 -405l2 7h-85l-183 347l-150 -142l-37 -205h-64zM265 -159q-31 7 -40 18.5t-9 27.5q0 17 13 31t33 14q21 0 33.5 -13.5t12.5 -33.5q0 -26 -16 -45l-64 -78l-19 16z" />
    <glyph glyph-name="uni0137" unicode="&#x137;" horiz-adv-x="494" 
d="M140 696h65l-79 -458l285 252h95l2 10l-232 -203l148 -302l1 5h-83l-119 251l-111 -98l-26 -153h-65zM199 -159q-30 7 -39 18.5t-9 27.5q0 17 13 31t33 14q21 0 33.5 -13.5t12.5 -33.5q0 -26 -16 -45l-63 -79l-20 17z" />
    <glyph glyph-name="kgreenlandic" unicode="&#x138;" horiz-adv-x="482" 
d="M105 490h65l-40 -231h18l246 231h91l3 9l-266 -243l189 -262l1 6h-86l-181 257h-15l-45 -257h-63z" />
    <glyph glyph-name="Lacute" unicode="&#x139;" horiz-adv-x="508" 
d="M157 696h64l-112 -635h314l-11 -61h-378zM238 880h69l-78 -107h-54z" />
    <glyph glyph-name="lacute" unicode="&#x13a;" horiz-adv-x="207" 
d="M138 696h65l-119 -696h-65zM217 880h69l-76 -107h-54z" />
    <glyph glyph-name="uni013B" unicode="&#x13b;" horiz-adv-x="508" 
d="M157 696h64l-112 -635h314l-11 -61h-378zM227 -159q-31 7 -40 18.5t-9 27.5q0 17 13 31t33 14q21 0 33.5 -13.5t12.5 -33.5q0 -26 -16 -45l-64 -78l-19 16z" />
    <glyph glyph-name="uni013C" unicode="&#x13c;" horiz-adv-x="208" 
d="M137 696h64l-119 -696h-64zM31 -159q-31 7 -39.5 18.5t-8.5 27.5q0 17 12.5 31t33.5 14t33 -13.5t12 -33.5q0 -26 -15 -45l-63 -79l-20 17z" />
    <glyph glyph-name="Lcaron" unicode="&#x13d;" horiz-adv-x="508" 
d="M157 696h64l-112 -635h314l-11 -61h-378zM394 696h70l-56 -169h-43z" />
    <glyph glyph-name="lcaron" unicode="&#x13e;" horiz-adv-x="303" 
d="M138 696h65l-119 -696h-65zM287 696h71l-55 -169h-44z" />
    <glyph glyph-name="Ldot" unicode="&#x13f;" horiz-adv-x="508" 
d="M157 696h64l-112 -635h314l-11 -61h-378zM308.5 295.5q-15.5 15.5 -15.5 38.5t15.5 38.5t37.5 15.5q23 0 38.5 -15.5t15.5 -38.5t-15.5 -38.5t-38.5 -15.5q-22 0 -37.5 15.5z" />
    <glyph glyph-name="Lslash" unicode="&#x141;" horiz-adv-x="549" 
d="M70 246l-24 44l115 65l61 341h64l-51 -295l149 84l25 -45l-187 -105l-48 -274h314l-11 -61h-378l52 290z" />
    <glyph glyph-name="lslash" unicode="&#x142;" horiz-adv-x="323" 
d="M140 319l-73 -47l-26 45l112 75l52 304h65l-46 -261l88 60l27 -47l-127 -84l-62 -364h-64z" />
    <glyph glyph-name="Nacute" unicode="&#x143;" horiz-adv-x="707" 
d="M157 696h83l265 -570h19l22 146l74 424h65l-123 -696h-67l-277 597h-19l-21 -146l-80 -451h-64zM469 880h69l-78 -107h-54z" />
    <glyph glyph-name="nacute" unicode="&#x144;" horiz-adv-x="551" 
d="M169 415q28 43 70.5 67t96.5 24q71 0 110.5 -38.5t39.5 -102.5q0 -39 -6 -69l-51 -296h-65l51 294q6 39 6 52q0 49 -31.5 76t-82.5 27q-64 0 -113 -48.5t-62 -121.5l-48 -279h-65l84 490h60l-12 -75h18zM371 716h69l-76 -107h-54z" />
    <glyph glyph-name="uni0145" unicode="&#x145;" horiz-adv-x="707" 
d="M157 696h83l265 -570h19l22 146l74 424h65l-123 -696h-67l-277 597h-19l-21 -146l-80 -451h-64zM281 -159q-31 7 -40 18.5t-9 27.5q0 17 13 31t33 14q21 0 33.5 -13.5t12.5 -33.5q0 -26 -16 -45l-64 -78l-19 16z" />
    <glyph glyph-name="uni0146" unicode="&#x146;" horiz-adv-x="551" 
d="M169 415q28 43 70.5 67t96.5 24q71 0 110.5 -38.5t39.5 -102.5q0 -39 -6 -69l-51 -296h-65l51 294q6 39 6 52q0 49 -31.5 76t-82.5 27q-64 0 -113 -48.5t-62 -121.5l-48 -279h-65l84 490h60l-12 -75h18zM212 -159q-30 7 -39 18.5t-9 27.5q0 17 13 31t33 14
q21 0 33.5 -13.5t12.5 -33.5q0 -26 -16 -45l-63 -79l-19 17z" />
    <glyph glyph-name="Ncaron" unicode="&#x147;" horiz-adv-x="707" 
d="M157 696h83l265 -570h19l22 146l74 424h65l-123 -696h-67l-277 597h-19l-21 -146l-80 -451h-64zM332 887l-2 -7h64l43 -63h17l63 63h72l2 10l-118 -111h-66z" />
    <glyph glyph-name="ncaron" unicode="&#x148;" horiz-adv-x="549" 
d="M169 415q28 43 70.5 67t96.5 24q71 0 110.5 -38.5t39.5 -102.5q0 -39 -6 -69l-50 -296h-66l51 294q6 39 6 52q0 49 -31.5 76t-82.5 27q-64 0 -113 -48.5t-62 -121.5l-48 -279h-65l84 490h60l-12 -75h18zM239 721l-2 -5h63l43 -64h15l60 64h71l2 8l-114 -110h-65z" />
    <glyph glyph-name="Eng" unicode="&#x14a;" horiz-adv-x="683" 
d="M359 -223l11 57q5 -3 30 -3q36 0 55 22t27 63l14 79l-278 602h-19l-21 -146l-80 -451h-64l123 696h83l265 -570h19l22 146l74 424h65l-138 -777q-13 -74 -54 -109.5t-102 -35.5q-23 0 -32 3z" />
    <glyph glyph-name="eng" unicode="&#x14b;" horiz-adv-x="529" 
d="M228 -221l9 55q-5 4 9.5 0.5t25.5 -3.5q33 0 51.5 20.5t24.5 58.5l67 382q6 39 6 54q0 49 -31.5 76t-82.5 27q-64 0 -113 -48.5t-62 -121.5l-48 -279h-65l84 490h60l-12 -75h18q28 43 70.5 67t96.5 24q71 0 110.5 -38.5t39.5 -102.5q0 -39 -6 -69l-66 -386
q-13 -76 -50 -106t-98 -30q-23 0 -38 5z" />
    <glyph glyph-name="Omacron" unicode="&#x14c;" horiz-adv-x="825" 
d="M212.5 24q-72.5 40 -114 112t-41.5 163q0 107 52.5 202.5t147 153t213.5 57.5q87 0 159 -40t113.5 -112t41.5 -163q0 -107 -52 -202.5t-146.5 -153t-212.5 -57.5q-88 0 -160.5 40zM550 94q77 49 122 128.5t45 167.5q0 79 -34 138t-92.5 91t-130.5 32q-92 0 -168.5 -49
t-121.5 -128.5t-45 -167.5q0 -79 34 -138t92 -91t130 -32q92 0 169 49zM365 856h256l-8 -46h-256z" />
    <glyph glyph-name="omacron" unicode="&#x14d;" horiz-adv-x="585" 
d="M139 14.5q-49 30.5 -76.5 83.5t-27.5 119q0 80 34.5 146t98.5 104.5t146 38.5q64 0 113 -30.5t76 -83.5t27 -119q0 -81 -34.5 -147t-98.5 -104t-146 -38q-63 0 -112 30.5zM366 72q47 31 72 83t25 113q0 78 -43.5 129.5t-115.5 51.5q-58 0 -105 -31t-72 -83t-25 -113
q0 -79 43.5 -130t115.5 -51q58 0 105 31zM223 692h252l-8 -47h-252z" />
    <glyph glyph-name="Obreve" unicode="&#x14e;" horiz-adv-x="825" 
d="M212.5 24q-72.5 40 -114 112t-41.5 163q0 107 52.5 202.5t147 153t213.5 57.5q87 0 159 -40t113.5 -112t41.5 -163q0 -107 -52 -202.5t-146.5 -153t-212.5 -57.5q-88 0 -160.5 40zM550 94q77 49 122 128.5t45 167.5q0 79 -34 138t-92.5 91t-130.5 32q-92 0 -168.5 -49
t-121.5 -128.5t-45 -167.5q0 -79 34 -138t92 -91t130 -32q92 0 169 49zM410.5 798.5q-29.5 26.5 -29.5 66.5q0 6 1 11h48q1 6 1 -2q0 -25 15.5 -41.5t43.5 -16.5q30 0 51 18.5t25 41.5h48q-6 -46 -42 -75t-90 -29q-42 0 -71.5 26.5z" />
    <glyph glyph-name="obreve" unicode="&#x14f;" horiz-adv-x="585" 
d="M139 14.5q-49 30.5 -76.5 83.5t-27.5 119q0 80 34.5 146t98.5 104.5t146 38.5q64 0 113 -30.5t76 -83.5t27 -119q0 -81 -34.5 -147t-98.5 -104t-146 -38q-63 0 -112 30.5zM366 72q47 31 72 83t25 113q0 78 -43.5 129.5t-115.5 51.5q-58 0 -105 -31t-72 -83t-25 -113
q0 -79 43.5 -130t115.5 -51q58 0 105 31zM266 633.5q-29 26.5 -29 67.5q0 6 1 11h47q3 18 3 -2q0 -25 15 -42t41 -17q29 0 49.5 19t24.5 42h48q-6 -47 -41 -76t-88 -29q-42 0 -71 26.5z" />
    <glyph glyph-name="Ohungarumlaut" unicode="&#x150;" horiz-adv-x="825" 
d="M212.5 24q-72.5 40 -114 112t-41.5 163q0 107 52.5 202.5t147 153t213.5 57.5q87 0 159 -40t113.5 -112t41.5 -163q0 -107 -52 -202.5t-146.5 -153t-212.5 -57.5q-88 0 -160.5 40zM550 94q77 49 122 128.5t45 167.5q0 79 -34 138t-92.5 91t-130.5 32q-92 0 -168.5 -49
t-121.5 -128.5t-45 -167.5q0 -79 34 -138t92 -91t130 -32q92 0 169 49zM450 880h69l-78 -107h-54zM577 880h69l-78 -107h-54z" />
    <glyph glyph-name="ohungarumlaut" unicode="&#x151;" horiz-adv-x="585" 
d="M139 14.5q-49 30.5 -76.5 83.5t-27.5 119q0 80 34.5 146t98.5 104.5t146 38.5q64 0 113 -30.5t76 -83.5t27 -119q0 -81 -34.5 -147t-98.5 -104t-146 -38q-63 0 -112 30.5zM366 72q47 31 72 83t25 113q0 78 -43.5 129.5t-115.5 51.5q-58 0 -105 -31t-72 -83t-25 -113
q0 -79 43.5 -130t115.5 -51q58 0 105 31zM289 716h69l-76 -107h-54zM444 716h69l-76 -107h-54z" />
    <glyph glyph-name="OE" unicode="&#x152;" horiz-adv-x="1144" 
d="M212.5 24q-72.5 40 -114 112t-41.5 163q0 107 52.5 202.5t147.5 153t214 57.5q85 0 154.5 -38t122.5 -129l27 151h394l-10 -61h-330l-46 -257h298l-10 -60h-298l-46 -257h330l-11 -61h-394l21 118q-78 -75 -148 -104.5t-152 -29.5q-88 0 -160.5 40zM549.5 94
q76.5 49 121.5 128.5t45 167.5q0 79 -34 138t-92 91t-130 32q-92 0 -169.5 -49t-121.5 -128.5t-44 -167.5q0 -79 34 -138t92 -91t130 -32q92 0 168.5 49z" />
    <glyph glyph-name="oe" unicode="&#x153;" horiz-adv-x="966" 
d="M140 14.5q-50 30.5 -77.5 83.5t-27.5 119q0 79 35 145.5t99.5 105t147.5 38.5q64 0 113.5 -31t82.5 -99q45 67 101 98.5t125 31.5q60 0 105 -27.5t68.5 -74t23.5 -103.5q0 -41 -5 -62h-396q-3 -27 -3 -42q0 -47 21.5 -83t56 -54.5t73.5 -18.5q61 0 102 25.5t66 66.5
l47 -28q-29 -55 -86.5 -88t-133.5 -33q-63 0 -110.5 29.5t-80.5 93.5q-46 -64 -103.5 -93.5t-129.5 -29.5q-64 0 -114 30.5zM370 72q47 31 73 83t26 113q0 51 -20.5 92.5t-57 65t-83.5 23.5q-59 0 -106.5 -31t-74 -83.5t-26.5 -112.5q0 -51 20.5 -92.5t57 -65t84.5 -23.5
q60 0 107 31zM870 289v24q0 55 -37.5 95.5t-103.5 40.5t-114 -41.5t-72 -118.5h327z" />
    <glyph glyph-name="Racute" unicode="&#x154;" horiz-adv-x="586" 
d="M157 696h227q53 0 95 -22.5t65.5 -63.5t23.5 -94q0 -84 -55 -142.5t-149 -76.5l-10 -10l150 -294l2 7h-81l-146 292h-128l-53 -292h-64zM325 351q75 0 125.5 43.5t50.5 119.5q0 52 -35.5 86.5t-95.5 34.5h-159l-50 -284h164zM387 880h69l-78 -107h-54z" />
    <glyph glyph-name="racute" unicode="&#x155;" horiz-adv-x="367" 
d="M102 490h61l-13 -76h20q21 45 63.5 68t91.5 23q33 0 47 -6l-12 -71q-16 11 -62 11q-37 0 -73.5 -22.5t-61 -59.5t-32.5 -80l-47 -277h-65zM289 716h69l-76 -107h-55z" />
    <glyph glyph-name="uni0156" unicode="&#x156;" horiz-adv-x="586" 
d="M157 696h227q53 0 95 -22.5t65.5 -63.5t23.5 -94q0 -84 -55 -142.5t-149 -76.5l-10 -10l150 -294l2 7h-81l-146 292h-128l-53 -292h-64zM325 351q75 0 125.5 43.5t50.5 119.5q0 52 -35.5 86.5t-95.5 34.5h-159l-50 -284h164zM244 -159q-31 7 -40 18.5t-9 27.5q0 17 13 31
t33 14q21 0 33.5 -13.5t12.5 -33.5q0 -26 -16 -45l-64 -78l-19 16z" />
    <glyph glyph-name="uni0157" unicode="&#x157;" horiz-adv-x="367" 
d="M102 490h60l-12 -76h19q21 45 64 68t91 23q34 0 48 -6l-13 -71q-16 11 -61 11q-38 0 -74 -22.5t-61 -59.5t-33 -80l-47 -277h-65zM31 -159q-30 7 -39 18.5t-9 27.5q0 17 12.5 31t33.5 14t33.5 -13.5t12.5 -33.5q0 -26 -16 -45l-63 -79l-20 17z" />
    <glyph glyph-name="Rcaron" unicode="&#x158;" horiz-adv-x="586" 
d="M157 696h227q53 0 95 -22.5t65.5 -63.5t23.5 -94q0 -84 -55 -142.5t-149 -76.5l-10 -10l150 -294l2 7h-81l-146 292h-128l-53 -292h-64zM325 351q75 0 125.5 43.5t50.5 119.5q0 52 -35.5 86.5t-95.5 34.5h-159l-50 -284h164zM250 887l-2 -7h64l43 -63h17l63 63h72l2 10
l-118 -111h-66z" />
    <glyph glyph-name="rcaron" unicode="&#x159;" horiz-adv-x="365" 
d="M103 490h60l-12 -76h19q22 45 64.5 68t90.5 23q34 0 48 -6l-13 -71q-16 11 -61 11q-38 0 -74 -22.5t-61 -59.5t-33 -80l-47 -277h-65zM157 721l-1 -5h62l43 -64h15l60 64h71l2 8l-114 -110h-65z" />
    <glyph glyph-name="Sacute" unicode="&#x15a;" horiz-adv-x="564" 
d="M94.5 33q-59.5 49 -71.5 129l62 25q6 -56 49 -99t114 -43q43 0 83 18.5t65 53t25 79.5q0 49 -33 81t-103 57l-42 16q-61 24 -99 64.5t-38 104.5q0 55 31 98.5t83 69t114 25.5q63 0 105.5 -22.5t64.5 -54.5t26 -54l-63 -24q-6 30 -39.5 62t-99.5 32q-64 0 -109 -34
t-45 -91q0 -45 30.5 -74.5t86.5 -50.5l44 -16q154 -58 154 -177q0 -67 -32.5 -117.5t-89.5 -78.5t-129 -28q-84 0 -143.5 49zM380 880h69l-78 -107h-54z" />
    <glyph glyph-name="sacute" unicode="&#x15b;" horiz-adv-x="460" 
d="M68 21q-49 37 -63 87l63 24q8 -38 46.5 -65.5t86.5 -27.5q50 0 84 25.5t34 65.5q0 35 -23 58t-68 35l-49 13q-58 15 -90 46.5t-32 79.5q0 40 23.5 73t66 52t96.5 19q64 0 112 -30.5t61 -69.5l-63 -24q-10 26 -41 47t-74 21q-49 0 -81 -22.5t-32 -59.5q0 -26 21 -47.5
t59 -31.5l64 -17q56 -14 87 -48.5t31 -83.5q0 -70 -51 -113t-143 -43q-76 0 -125 37zM298 716h69l-76 -107h-55z" />
    <glyph glyph-name="Scircumflex" unicode="&#x15c;" horiz-adv-x="564" 
d="M94.5 33q-59.5 49 -71.5 129l62 25q6 -56 49 -99t114 -43q43 0 83 18.5t65 53t25 79.5q0 49 -33 81t-103 57l-42 16q-61 24 -99 64.5t-38 104.5q0 55 31 98.5t83 69t114 25.5q63 0 105.5 -22.5t64.5 -54.5t26 -54l-63 -24q-6 30 -39.5 62t-99.5 32q-64 0 -109 -34
t-45 -91q0 -45 30.5 -74.5t86.5 -50.5l44 -16q154 -58 154 -177q0 -67 -32.5 -117.5t-89.5 -78.5t-129 -28q-84 0 -143.5 49zM212 769l118 111h66l75 -108l2 7h-63l-44 63h-17l-63 -63h-72z" />
    <glyph glyph-name="scircumflex" unicode="&#x15d;" horiz-adv-x="460" 
d="M68 21q-49 37 -63 87l63 24q8 -38 46.5 -65.5t86.5 -27.5q50 0 84 25.5t34 65.5q0 35 -23 58t-68 35l-49 13q-58 15 -90 46.5t-32 79.5q0 40 23.5 73t66 52t96.5 19q64 0 112 -30.5t61 -69.5l-63 -24q-10 26 -41 47t-74 21q-49 0 -81 -22.5t-32 -59.5q0 -26 21 -47.5
t59 -31.5l64 -17q56 -14 87 -48.5t31 -83.5q0 -70 -51 -113t-143 -43q-76 0 -125 37zM137 606l113 110h65l73 -107l1 5h-62l-42 64h-16l-60 -64h-70z" />
    <glyph glyph-name="Scedilla" unicode="&#x15e;" horiz-adv-x="542" 
d="M489 208q0 -67 -32.5 -117.5t-89.5 -78.5t-129 -28h-12l-34 -57q36 7 42 7q29 0 47.5 -21.5t18.5 -56.5q0 -41 -27.5 -67t-73.5 -26q-30 0 -52.5 17.5t-25.5 33.5l33 14q1 -6 15 -19t34 -13q25 0 42.5 16.5t17.5 43.5q0 20 -14 34t-35 14q-23 0 -38 -15l-25 12l46 86
q-77 17 -120.5 64t-53.5 111l62 25q6 -56 49 -99t114 -43q43 0 83 18.5t65 53t25 79.5q0 49 -33 81t-103 57l-42 16q-61 24 -99 64.5t-38 104.5q0 55 31 98.5t83 69t114 25.5q63 0 105.5 -22.5t64.5 -54.5t26 -54l-63 -24q-6 30 -39.5 62t-99.5 32q-64 0 -109 -34t-45 -91
q0 -45 30.5 -74.5t86.5 -50.5l44 -16q154 -58 154 -177z" />
    <glyph glyph-name="scedilla" unicode="&#x15f;" horiz-adv-x="436" 
d="M356 223.5q31 -34.5 31 -83.5q0 -70 -51 -113t-143 -43h-7l-33 -57q33 7 39 7q30 0 48 -21.5t18 -56.5q0 -41 -27 -67t-73 -26q-30 0 -52 17.5t-25 33.5l34 15q1 -7 14.5 -20t32.5 -13q24 0 41 16.5t17 43.5q0 20 -13.5 34t-33.5 14q-22 0 -37 -15l-25 12l45 85
q-68 14 -104 48t-47 74l63 24q8 -38 46.5 -65.5t86.5 -27.5q50 0 84 25.5t34 65.5q0 35 -23 58t-68 35l-49 13q-58 15 -90 46.5t-32 79.5q0 40 23.5 73t66 52t96.5 19q64 0 112 -30.5t61 -69.5l-63 -24q-10 26 -41 47t-74 21q-49 0 -81 -22.5t-32 -59.5q0 -26 21 -47.5
t59 -31.5l64 -17q56 -14 87 -48.5z" />
    <glyph glyph-name="Scaron" unicode="&#x160;" horiz-adv-x="564" 
d="M94.5 33q-59.5 49 -71.5 129l62 25q6 -56 49 -99t114 -43q43 0 83 18.5t65 53t25 79.5q0 49 -33 81t-103 57l-42 16q-61 24 -99 64.5t-38 104.5q0 55 31 98.5t83 69t114 25.5q63 0 105.5 -22.5t64.5 -54.5t26 -54l-63 -24q-6 30 -39.5 62t-99.5 32q-64 0 -109 -34
t-45 -91q0 -45 30.5 -74.5t86.5 -50.5l44 -16q154 -58 154 -177q0 -67 -32.5 -117.5t-89.5 -78.5t-129 -28q-84 0 -143.5 49zM243 887l-2 -7h64l43 -63h17l63 63h72l2 10l-118 -111h-66z" />
    <glyph glyph-name="scaron" unicode="&#x161;" horiz-adv-x="457" 
d="M68 21q-49 37 -63 87l63 24q8 -38 46.5 -65.5t86.5 -27.5q50 0 84 25.5t34 65.5q0 35 -22.5 58t-68.5 35l-49 13q-58 15 -90 46.5t-32 79.5q0 40 23.5 73t66 52t96.5 19q64 0 112 -30.5t61 -69.5l-63 -24q-10 26 -41 47t-74 21q-49 0 -81 -22.5t-32 -59.5q0 -26 21 -47.5
t59 -31.5l64 -17q56 -14 87.5 -48.5t31.5 -83.5q0 -70 -51.5 -113t-143.5 -43q-76 0 -125 37zM166 721l-2 -5h62l43 -64h15l61 64h71l1 8l-114 -110h-65z" />
    <glyph glyph-name="uni0162" unicode="&#x162;" horiz-adv-x="514" 
d="M144.5 -219.5q-22.5 17.5 -25.5 33.5l33 14q1 -6 15 -19t34 -13q24 0 41.5 16.5t17.5 43.5q0 20 -13.5 34t-34.5 14q-23 0 -38 -15l-25 12l54 99h-22l112 635h-201l11 61h466l-11 -61h-200l-113 -635h-12l-44 -72q39 6 43 6q29 0 47.5 -21.5t18.5 -56.5q0 -41 -27.5 -67
t-73.5 -26q-30 0 -52.5 17.5z" />
    <glyph glyph-name="uni0163" unicode="&#x163;" horiz-adv-x="336" 
d="M84.5 -219.5q-22.5 17.5 -25.5 33.5l35 15q1 -7 14.5 -20t32.5 -13q22 0 39 16.5t17 43.5q0 20 -13 34t-33 14q-22 0 -37 -15l-25 12l53 103q-28 17 -39.5 39t-11.5 50q0 21 5 47l50 293h-87l9 57h87l26 144h65l-26 -144h122l-9 -57h-122l-49 -280q-4 -21 -4 -40
q0 -26 17 -44t44 -18q17 0 29.5 4t13.5 4l11 -53q-12 -5 -30.5 -9.5t-44.5 -4.5q-8 0 -28 3l-40 -67q37 6 41 6q29 0 47 -21.5t18 -56.5q0 -41 -27 -67t-72 -26q-30 0 -52.5 17.5z" />
    <glyph glyph-name="Tcaron" unicode="&#x164;" horiz-adv-x="538" 
d="M293 635h-201l11 61h466l-11 -61h-200l-113 -635h-64zM238 887l-2 -7h64l43 -63h17l63 63h72l2 10l-118 -111h-66z" />
    <glyph glyph-name="tcaron" unicode="&#x165;" horiz-adv-x="317" 
d="M344 696h64l-41 -122h-44zM121 19.5q-29 27.5 -29 73.5q0 22 4 47l51 293h-88l10 57h87l25 144h65l-25 -144h122l-10 -57h-121l-49 -279q-4 -24 -4 -41q0 -30 18 -46t46 -16q34 0 48 9l-10 -58q-25 -10 -62 -10q-49 0 -78 27.5z" />
    <glyph glyph-name="Tbar" unicode="&#x166;" horiz-adv-x="514" 
d="M240 341h-129l8 46h129l45 248h-201l11 61h466l-11 -61h-200l-45 -248h131l-8 -46h-131l-60 -341h-64z" />
    <glyph glyph-name="tbar" unicode="&#x167;" horiz-adv-x="336" 
d="M120.5 19.5q-29.5 27.5 -29.5 73.5q0 22 5 47l17 94h-85l10 57h84l25 142h-88l10 57h87l25 144h64l-24 -144h121l-9 -57h-122l-24 -142h118l-10 -57h-118l-14 -80q-5 -29 -5 -41q0 -28 17.5 -45t46.5 -17q35 0 48 8l-10 -57q-24 -10 -61 -10q-49 0 -78.5 27.5z" />
    <glyph glyph-name="Utilde" unicode="&#x168;" horiz-adv-x="661" 
d="M169.5 9.5q-47.5 25.5 -75.5 71.5t-28 108q0 43 8 92l73 415h64l-76 -431q-6 -36 -6 -63q0 -72 41 -114.5t119 -42.5q89 0 147 57t75 147l78 447h64l-80 -454q-21 -122 -98 -190t-200 -68q-58 0 -105.5 25.5zM450.5 785.5q-13.5 5.5 -32.5 16.5q-18 12 -33 18.5t-33 6.5
q-41 0 -50 -37h-50q5 41 32.5 67.5t67.5 26.5q15 0 29 -5.5t33 -16.5q18 -12 33 -18.5t32 -6.5q41 0 50 37h51q-5 -41 -33 -67.5t-68 -26.5q-15 0 -28.5 5.5z" />
    <glyph glyph-name="utilde" unicode="&#x169;" horiz-adv-x="551" 
d="M361 74q-28 -43 -70.5 -66.5t-96.5 -23.5q-71 0 -111 38.5t-40 102.5q0 32 7 69l51 296h64l-51 -294q-5 -26 -5 -52q0 -49 31.5 -76t81.5 -27q64 0 113 48t63 121l48 280h64l-83 -490h-61l13 74h-18zM368.5 621.5q-13.5 5.5 -31.5 16.5q-18 12 -32.5 18.5t-31.5 6.5
q-39 0 -48 -37h-51q4 41 31 67t67 26q15 0 28 -5.5t33 -17.5q18 -11 32.5 -17.5t31.5 -6.5q38 0 47 37h51q-4 -41 -31 -67t-67 -26q-15 0 -28.5 5.5z" />
    <glyph glyph-name="Umacron" unicode="&#x16a;" horiz-adv-x="661" 
d="M169.5 9.5q-47.5 25.5 -75.5 71.5t-28 108q0 43 8 92l73 415h64l-76 -431q-6 -36 -6 -63q0 -72 41 -114.5t119 -42.5q89 0 147 57t75 147l78 447h64l-80 -454q-21 -122 -98 -190t-200 -68q-58 0 -105.5 25.5zM291 856h256l-8 -46h-256z" />
    <glyph glyph-name="umacron" unicode="&#x16b;" horiz-adv-x="551" 
d="M361 74q-28 -43 -70.5 -66.5t-96.5 -23.5q-71 0 -111 38.5t-40 102.5q0 32 7 69l51 296h64l-51 -294q-5 -26 -5 -52q0 -49 31.5 -76t81.5 -27q64 0 113 48t63 121l48 280h64l-83 -490h-61l13 74h-18zM212 692h252l-8 -47h-252z" />
    <glyph glyph-name="Ubreve" unicode="&#x16c;" horiz-adv-x="661" 
d="M169.5 9.5q-47.5 25.5 -75.5 71.5t-28 108q0 43 8 92l73 415h64l-76 -431q-6 -36 -6 -63q0 -72 41 -114.5t119 -42.5q89 0 147 57t75 147l78 447h64l-80 -454q-21 -122 -98 -190t-200 -68q-58 0 -105.5 25.5zM336.5 798.5q-29.5 26.5 -29.5 66.5q0 6 1 11h48q1 6 1 -2
q0 -25 15.5 -41.5t43.5 -16.5q30 0 51 18.5t25 41.5h48q-6 -46 -42 -75t-90 -29q-42 0 -71.5 26.5z" />
    <glyph glyph-name="ubreve" unicode="&#x16d;" horiz-adv-x="551" 
d="M361 74q-28 -43 -70.5 -66.5t-96.5 -23.5q-71 0 -111 38.5t-40 102.5q0 32 7 69l51 296h64l-51 -294q-5 -26 -5 -52q0 -49 31.5 -76t81.5 -27q64 0 113 48t63 121l48 280h64l-83 -490h-61l13 74h-18zM255 633.5q-29 26.5 -29 67.5q0 6 1 11h47q3 18 3 -2q0 -25 15 -42
t42 -17q28 0 48.5 19t24.5 42h48q-6 -47 -41 -76t-88 -29q-42 0 -71 26.5z" />
    <glyph glyph-name="Uring" unicode="&#x16e;" horiz-adv-x="661" 
d="M169.5 9.5q-47.5 25.5 -75.5 71.5t-28 108q0 43 8 92l73 415h64l-76 -431q-6 -36 -6 -63q0 -72 41 -114.5t119 -42.5q89 0 147 57t75 147l78 447h64l-80 -454q-21 -122 -98 -190t-200 -68q-58 0 -105.5 25.5zM354 780q-27 27 -27 66q0 40 27 66.5t66 26.5t66.5 -27
t27.5 -66t-27.5 -66t-66.5 -27t-66 27zM460 805q17 17 17 41t-16.5 40.5t-40.5 16.5q-23 0 -40 -17t-17 -40t17 -40.5t40 -17.5t40 17z" />
    <glyph glyph-name="uring" unicode="&#x16f;" horiz-adv-x="551" 
d="M361 74q-28 -43 -70.5 -66.5t-96.5 -23.5q-71 0 -111 38.5t-40 102.5q0 32 7 69l51 296h64l-51 -294q-5 -26 -5 -52q0 -49 31.5 -76t81.5 -27q64 0 113 48t63 121l48 280h64l-83 -490h-61l13 74h-18zM273 615.5q-27 27.5 -27 66.5t27 66t65 27q39 0 65.5 -27t26.5 -66
t-26.5 -66.5t-65.5 -27.5q-38 0 -65 27.5zM376.5 641q16.5 17 16.5 41q0 23 -16.5 40t-38.5 17t-38 -16.5t-16 -40.5t16 -41t38 -17t38.5 17z" />
    <glyph glyph-name="Uhungarumlaut" unicode="&#x170;" horiz-adv-x="661" 
d="M169.5 9.5q-47.5 25.5 -75.5 71.5t-28 108q0 43 8 92l73 415h64l-76 -431q-6 -36 -6 -63q0 -72 41 -114.5t119 -42.5q89 0 147 57t75 147l78 447h64l-80 -454q-21 -122 -98 -190t-200 -68q-58 0 -105.5 25.5zM376 880h69l-78 -107h-54zM503 880h69l-78 -107h-54z" />
    <glyph glyph-name="uhungarumlaut" unicode="&#x171;" horiz-adv-x="551" 
d="M361 74q-28 -43 -70.5 -66.5t-96.5 -23.5q-71 0 -111 38.5t-40 102.5q0 32 7 69l51 296h64l-51 -294q-5 -26 -5 -52q0 -49 31.5 -76t81.5 -27q64 0 113 48t63 121l48 280h64l-83 -490h-61l13 74h-18zM278 716h69l-76 -107h-54zM433 716h69l-76 -107h-54z" />
    <glyph glyph-name="Uogonek" unicode="&#x172;" horiz-adv-x="639" 
d="M250 -200.5q-26 23.5 -26 58.5q0 31 15.5 58.5t66.5 67.5h-35q-56 1 -103 26t-74.5 71.5t-27.5 107.5q0 43 8 92l73 415h64l-76 -431q-6 -36 -6 -63q0 -72 41 -114.5t119 -42.5q89 0 147 57t75 147l78 447h64l-80 -454q-16 -91 -61.5 -150.5t-110.5 -83.5
q-53 -21 -85.5 -56t-32.5 -76q0 -23 14 -36.5t36 -13.5q13 0 22.5 2t6.5 1l-8 -49q-5 -1 -13.5 -2.5t-24.5 -1.5q-40 0 -66 23.5z" />
    <glyph glyph-name="uogonek" unicode="&#x173;" horiz-adv-x="529" 
d="M302.5 -200.5q-25.5 23.5 -25.5 58.5q0 75 87 127l15 89h-18q-28 -43 -70.5 -66.5t-96.5 -23.5q-71 0 -111 38.5t-40 102.5q0 32 7 69l51 296h64l-51 -294q-5 -26 -5 -52q0 -49 31.5 -76t81.5 -27q65 0 114 48.5t62 120.5l48 280h64l-84 -494q-31 -18 -60.5 -51.5
t-29.5 -68.5q0 -23 13.5 -36.5t34.5 -13.5q13 0 23 2t7 1l-8 -49q-6 -1 -14.5 -2.5t-23.5 -1.5q-40 0 -65.5 23.5z" />
    <glyph glyph-name="Wcircumflex" unicode="&#x174;" horiz-adv-x="944" 
d="M99 696h71l37 -517l5 -58h19l26 55l249 520h73l60 -517l7 -58h20l22 55l221 520h73l-308 -696h-72l-64 509l-8 65h-19l-29 -62l-245 -512h-74zM419 769l118 111h66l75 -108l2 7h-63l-44 63h-17l-63 -63h-72z" />
    <glyph glyph-name="wcircumflex" unicode="&#x175;" horiz-adv-x="762" 
d="M52 490h66l46 -403h14l195 403h75l58 -402h13l186 402h67l-238 -490h-74l-60 427l-207 -427h-72zM298 606l113 110h65l73 -107l1 5h-62l-42 64h-16l-60 -64h-70z" />
    <glyph glyph-name="Ycircumflex" unicode="&#x176;" horiz-adv-x="595" 
d="M265 322l-169 374h75l130 -300h16l233 300h76l-295 -371l-58 -325h-64zM233 769l118 111h66l75 -108l2 7h-63l-44 63h-17l-63 -63h-72z" />
    <glyph glyph-name="ycircumflex" unicode="&#x177;" horiz-adv-x="506" 
d="M168 21l-121 469h68l92 -379h14l217 379h70l-422 -706h-66zM167 606l113 110h65l73 -107l1 5h-62l-42 64h-16l-61 -64h-70z" />
    <glyph glyph-name="Ydieresis" unicode="&#x178;" horiz-adv-x="595" 
d="M265 322l-169 374h75l130 -300h16l233 300h76l-295 -371l-58 -325h-64zM265.5 802.5q-13.5 13.5 -13.5 30.5q0 19 13 31.5t31 12.5q19 0 31.5 -12.5t12.5 -31.5q0 -18 -12.5 -31t-31.5 -13q-17 0 -30.5 13.5zM430 802.5q-13 13.5 -13 30.5q0 19 13 31.5t30 12.5
q19 0 31.5 -12.5t12.5 -31.5q0 -18 -12.5 -31t-31.5 -13q-17 0 -30 13.5z" />
    <glyph glyph-name="Zacute" unicode="&#x179;" horiz-adv-x="571" 
d="M6 74l492 561h-377l10 61h448l-13 -74l-493 -561h398l-11 -61h-467zM391 880h69l-78 -107h-54z" />
    <glyph glyph-name="zacute" unicode="&#x17a;" horiz-adv-x="471" 
d="M369 433h-295l10 57h369l-10 -58l-367 -375h305l-10 -57h-378l9 58zM311 716h69l-76 -107h-55z" />
    <glyph glyph-name="Zdotaccent" unicode="&#x17b;" horiz-adv-x="571" 
d="M6 74l492 561h-377l10 61h448l-13 -74l-493 -561h398l-11 -61h-467zM343 819q-12 12 -12 27q0 17 12 28t28 11q17 0 28 -11t11 -28q0 -16 -11 -27.5t-28 -11.5q-16 0 -28 12z" />
    <glyph glyph-name="zdotaccent" unicode="&#x17c;" horiz-adv-x="471" 
d="M369 433h-295l10 57h369l-10 -58l-367 -375h305l-10 -57h-378l9 58zM260 638q-13 13 -13 31q0 19 12.5 31t30.5 12q20 0 32 -12t12 -31q0 -18 -12 -31t-32 -13q-17 0 -30 13z" />
    <glyph glyph-name="Zcaron" unicode="&#x17d;" horiz-adv-x="571" 
d="M6 74l492 561h-377l10 61h448l-13 -74l-493 -561h398l-11 -61h-467zM254 887l-2 -7h64l43 -63h17l63 63h72l2 10l-118 -111h-66z" />
    <glyph glyph-name="zcaron" unicode="&#x17e;" horiz-adv-x="471" 
d="M369 433h-295l10 57h369l-10 -58l-367 -375h305l-10 -57h-378l9 58zM179 721l-2 -5h62l43 -64h15l61 64h71l1 8l-114 -110h-65z" />
    <glyph glyph-name="florin" unicode="&#x192;" horiz-adv-x="526" 
d="M403 624q-24 -19 -32 -55l-36 -186h128v-58h-139l-82 -420q-11 -56 -48.5 -90.5t-92.5 -34.5q-29 0 -50 7v60q22 -10 51 -10q30 0 51.5 21t28.5 56l79 411h-105v58h116l38 193q10 56 51 90t99 34q20 0 31 -2t18 -4v-60q-14 9 -49 9q-33 0 -57 -19z" />
    <glyph glyph-name="Ohorn" unicode="&#x1a0;" horiz-adv-x="803" 
d="M212.5 24q-72.5 40 -114 112t-41.5 163q0 107 52.5 202.5t147 153t213.5 57.5q47 0 107 -7q31 -3 69 -6t82 -3q42 0 59 10.5t22 37.5l10 60h48l-10 -56q-10 -56 -33.5 -76t-79.5 -20q-28 0 -58 7l-5 -19q52 -50 77.5 -111.5t25.5 -131.5q0 -107 -52 -202.5t-146.5 -153
t-212.5 -57.5q-88 0 -160.5 40zM550 94q77 49 122 128.5t45 167.5q0 79 -34 138t-92.5 91t-130.5 32q-92 0 -168.5 -49t-121.5 -128.5t-45 -167.5q0 -79 34 -138t92 -91t130 -32q92 0 169 49z" />
    <glyph glyph-name="ohorn" unicode="&#x1a1;" horiz-adv-x="561" 
d="M139 14.5q-49 30.5 -76.5 83.5t-27.5 119q0 80 34 146t98.5 104.5t146.5 38.5q23 0 64 -7q65 -9 104 -9q28 0 43.5 11.5t20.5 36.5l10 60h49l-13 -73q-6 -36 -25.5 -54.5t-46.5 -18.5q-25 0 -50 6l-4 -20q64 -74 64 -165q0 -81 -34.5 -147t-98.5 -104t-146 -38
q-63 0 -112 30.5zM366 72q47 31 72 83t25 113q0 78 -43.5 129.5t-115.5 51.5q-59 0 -105.5 -31t-71.5 -83t-25 -113q0 -79 43.5 -130t115.5 -51q58 0 105 31z" />
    <glyph glyph-name="Uhorn" unicode="&#x1af;" horiz-adv-x="659" 
d="M169.5 9.5q-47.5 25.5 -75.5 71.5t-28 108q0 43 8 92l73 415h64l-76 -431q-6 -36 -6 -63q0 -72 41 -114.5t119 -42.5q89 0 147 57t75 147l78 447h87q24 0 36.5 11.5t17.5 36.5l10 60h48l-10 -56q-10 -56 -33.5 -76t-79.5 -20h-19l-73 -410q-21 -122 -98 -190t-200 -68
q-58 0 -105.5 25.5z" />
    <glyph glyph-name="uhorn" unicode="&#x1b0;" horiz-adv-x="565" 
d="M83 22.5q-40 38.5 -40 102.5q0 32 6 69l51 296h65l-51 -294q-5 -26 -5 -52q0 -49 31.5 -76t81.5 -27q64 0 113 48t63 121l47 280h86q22 0 34.5 12t17.5 36l10 60h48l-9 -56q-9 -53 -33.5 -74.5t-78.5 -21.5h-17l-76 -446h-62l14 74h-19q-28 -43 -70 -66.5t-96 -23.5
q-71 0 -111 38.5z" />
    <glyph glyph-name="uni01CD" unicode="&#x1cd;" horiz-adv-x="669" 
d="M356 696h82l141 -696h-70l-36 197h-323l-108 -197h-72zM461 257l-52 270l-16 85h-18l-194 -355h280zM310 887l-2 -7h64l43 -63h17l63 63h72l2 10l-118 -111h-66z" />
    <glyph glyph-name="Aringacute" unicode="&#x1fa;" horiz-adv-x="640" 
d="M342 672q-19 19 -27 36.5t-8 37.5q0 36 23.5 62.5t56.5 30.5l8 -4l46 77h61l-58 -83q27 -18 38.5 -39t11.5 -44t-12 -44.5t-37 -37.5l134 -664h-70l-36 197h-323l-108 -197h-72zM438 708q16 16 16 38t-16 38t-38 16t-37.5 -16t-15.5 -38t15.5 -38t37.5 -16t38 16z
M461 257l-52 270l-16 83h-19l-193 -353h280z" />
    <glyph glyph-name="aringacute" unicode="&#x1fb;" horiz-adv-x="498" 
d="M345 900h69l-61 -86h-53zM240.5 616q-26.5 27 -26.5 66q0 40 26.5 66.5t64.5 26.5q39 0 66 -27t27 -66t-27 -66t-66 -27q-38 0 -64.5 27zM343.5 641q16.5 17 16.5 41t-16 40.5t-39 16.5q-21 0 -37.5 -17t-16.5 -40t16.5 -40.5t37.5 -17.5q22 0 38.5 17zM97 3.5
q-35 19.5 -55.5 52.5t-20.5 74q0 80 58 128t161 48q38 0 74.5 -9t74.5 -30l9 42q3 18 3 31q0 50 -38 80t-93 30q-85 0 -135 -65l-50 36q27 36 79 60.5t115 24.5q86 0 134.5 -42t48.5 -112q0 -20 -4 -49l-53 -303h-62l13 72h-19q-28 -42 -69 -65t-93 -23q-43 0 -78 19.5z
M316 87q52 48 65 129q-36 22 -67.5 31.5t-78.5 9.5q-64 0 -105.5 -32t-41.5 -89q0 -45 30.5 -71t74.5 -26q71 0 123 48z" />
    <glyph glyph-name="AEacute" unicode="&#x1fc;" horiz-adv-x="959" 
d="M472 696h452l-10 -61h-330l-46 -257h298l-10 -60h-298l-46 -257h330l-11 -61h-394l35 197h-279l-152 -197h-77zM452 257l67 378h-21l-41 -54l-249 -324h244zM756 880h69l-78 -107h-54z" />
    <glyph glyph-name="aeacute" unicode="&#x1fd;" horiz-adv-x="901" 
d="M97 3.5q-35 19.5 -55.5 52.5t-20.5 74q0 86 62 131t164 45q43 0 78.5 -9.5t64.5 -28.5l9 44q3 22 3 25q0 52 -35.5 82.5t-92.5 30.5q-43 0 -80.5 -18.5t-54.5 -47.5l-53 32q23 38 74 64t120 26q60 0 103.5 -25t68.5 -79q41 56 91.5 80t109.5 24q62 0 107 -27.5t68 -74
t23 -103.5q0 -41 -6 -62h-394q-3 -27 -3 -42q0 -47 21.5 -83t55.5 -54.5t73 -18.5q61 0 102 25.5t66 67.5l48 -29q-30 -55 -87.5 -88t-133.5 -33q-67 0 -116 35t-75 104q-47 -76 -104 -107.5t-123 -31.5q-43 0 -78 19.5zM786 289v24q0 35 -16.5 66t-48.5 50.5t-77 19.5
q-65 0 -113.5 -41.5t-72.5 -118.5h328zM316 87q52 48 65 129q-69 41 -146 41q-64 0 -105.5 -32t-41.5 -89q0 -45 30.5 -71t74.5 -26q71 0 123 48zM511 716h69l-76 -107h-54z" />
    <glyph glyph-name="Oslashacute" unicode="&#x1fe;" horiz-adv-x="825" 
d="M105 -3l52 65q-51 50 -75.5 108.5t-24.5 128.5q0 107 52.5 202.5t147 153t213.5 57.5q88 0 170 -47l54 67l42 -33l-54 -65q53 -49 77.5 -108t24.5 -129q0 -107 -52 -202.5t-146.5 -153t-212.5 -57.5q-90 0 -173 47l-52 -66zM599 613q-69 38 -139 38q-92 0 -168.5 -49
t-121.5 -128.5t-45 -167.5q0 -114 75 -192zM550 94q77 49 122 128.5t45 167.5q0 111 -76 192l-399 -500q71 -37 139 -37q92 0 169 49zM514 880h69l-78 -107h-54z" />
    <glyph glyph-name="oslashacute" unicode="&#x1ff;" horiz-adv-x="573" 
d="M63 0l32 42q-37 38 -53.5 81.5t-16.5 93.5q0 79 35.5 145.5t100.5 105t147 38.5q61 0 116 -32l37 47l37 -30l-37 -48q34 -37 50.5 -79.5t16.5 -90.5q0 -80 -35.5 -146t-100.5 -104.5t-147 -38.5q-58 0 -113 30l-31 -43zM385 422q-42 27 -87 27q-58 0 -106 -31t-74 -83.5
t-26 -112.5q0 -67 43 -128zM360.5 72q47.5 31 73.5 83t26 113q0 65 -38 123l-252 -328q47 -22 85 -22q58 0 105.5 31zM360 716h69l-76 -107h-54z" />
    <glyph glyph-name="uni0218" unicode="&#x218;" horiz-adv-x="564" 
d="M94.5 33q-59.5 49 -71.5 129l62 25q6 -56 49 -99t114 -43q43 0 83 18.5t65 53t25 79.5q0 49 -33 81t-103 57l-42 16q-61 24 -99 64.5t-38 104.5q0 55 31 98.5t83 69t114 25.5q63 0 105.5 -22.5t64.5 -54.5t26 -54l-63 -24q-6 30 -39.5 62t-99.5 32q-64 0 -109 -34
t-45 -91q0 -45 30.5 -74.5t86.5 -50.5l44 -16q154 -58 154 -177q0 -67 -32.5 -117.5t-89.5 -78.5t-129 -28q-84 0 -143.5 49zM197 -159q-31 7 -40 18.5t-9 27.5q0 17 13 31t33 14q21 0 33.5 -13.5t12.5 -33.5q0 -26 -16 -45l-64 -78l-19 16z" />
    <glyph glyph-name="uni0219" unicode="&#x219;" horiz-adv-x="460" 
d="M68 21q-49 37 -63 87l63 24q8 -38 46.5 -65.5t86.5 -27.5q50 0 84 25.5t34 65.5q0 35 -23 58t-68 35l-49 13q-58 15 -90 46.5t-32 79.5q0 40 23.5 73t66 52t96.5 19q64 0 112 -30.5t61 -69.5l-63 -24q-10 26 -41 47t-74 21q-49 0 -81 -22.5t-32 -59.5q0 -26 21 -47.5
t59 -31.5l64 -17q56 -14 87 -48.5t31 -83.5q0 -70 -51 -113t-143 -43q-76 0 -125 37zM157 -159q-31 7 -39.5 18.5t-8.5 27.5q0 17 12.5 31t32.5 14q22 0 34 -13.5t12 -33.5q0 -26 -15 -45l-64 -79l-19 17z" />
    <glyph glyph-name="uni021A" unicode="&#x21a;" horiz-adv-x="538" 
d="M293 635h-201l11 61h466l-11 -61h-200l-113 -635h-64zM192 -159q-31 7 -40 18.5t-9 27.5q0 17 13 31t33 14q21 0 33.5 -13.5t12.5 -33.5q0 -26 -16 -45l-64 -78l-19 16z" />
    <glyph glyph-name="uni021B" unicode="&#x21b;" horiz-adv-x="360" 
d="M120.5 19.5q-29.5 27.5 -29.5 73.5q0 22 5 47l50 293h-87l9 57h87l26 144h64l-25 -144h122l-9 -57h-122l-49 -279q-4 -24 -4 -41q0 -30 18 -46t46 -16q34 0 48 9l-9 -58q-26 -10 -63 -10q-48 0 -77.5 27.5zM159 -159q-30 7 -39 18.5t-9 27.5q0 17 13 31t33 14
q21 0 33.5 -13.5t12.5 -33.5q0 -26 -16 -45l-63 -79l-19 17z" />
    <glyph glyph-name="uni0237" unicode="&#x237;" horiz-adv-x="201" 
d="M-114 -221l9 56q-4 3 10.5 -0.5t25.5 -3.5q63 0 77 79l99 580h65l-100 -580q-13 -76 -50 -106t-97 -30q-22 0 -39 5z" />
    <glyph glyph-name="uni0259" unicode="&#x259;" horiz-adv-x="535" 
d="M121.5 11.5q-44.5 27.5 -68 74t-23.5 103.5q0 41 6 62h396q3 25 3 42q0 47 -21.5 83t-56 54.5t-72.5 18.5q-60 0 -102.5 -26t-67.5 -67l-47 28q29 56 87 89t133 33q65 0 113 -30t74.5 -81t26.5 -113q0 -78 -34.5 -146.5t-97 -110t-142.5 -41.5q-62 0 -106.5 27.5z
M351.5 83q48.5 42 72.5 118h-328v-24q0 -55 37.5 -95.5t104.5 -40.5q65 0 113.5 42z" />
    <glyph glyph-name="circumflex" unicode="&#x2c6;" horiz-adv-x="376" 
d="M98 585l118 111h66l75 -108l2 7h-63l-44 63h-17l-63 -63h-72z" />
    <glyph glyph-name="caron" unicode="&#x2c7;" horiz-adv-x="376" 
d="M122 703l-2 -7h64l43 -63h17l63 63h72l2 10l-118 -111h-66z" />
    <glyph glyph-name="breve" unicode="&#x2d8;" horiz-adv-x="377" 
d="M162.5 614.5q-29.5 26.5 -29.5 66.5q0 6 1 11h48q1 6 1 -2q0 -25 15.5 -41.5t43.5 -16.5q30 0 51 18.5t25 41.5h48q-6 -46 -42 -75t-90 -29q-42 0 -71.5 26.5z" />
    <glyph glyph-name="dotaccent" unicode="&#x2d9;" horiz-adv-x="207" 
d="M126 618.5q-13 13.5 -13 30.5q0 19 13 31.5t31 12.5q19 0 31 -12.5t12 -31.5q0 -18 -12 -31t-31 -13q-18 0 -31 13.5z" />
    <glyph glyph-name="ring" unicode="&#x2da;" horiz-adv-x="382" 
d="M175 596q-27 27 -27 66q0 40 27 66.5t66 26.5t66.5 -27t27.5 -66t-27.5 -66t-66.5 -27t-66 27zM281 621q17 17 17 41t-16.5 40.5t-40.5 16.5q-23 0 -40 -17t-17 -40t17 -40.5t40 -17.5t40 17z" />
    <glyph glyph-name="ogonek" unicode="&#x2db;" horiz-adv-x="372" 
d="M50 -200.5q-26 23.5 -26 58.5q0 73 78 122h44q-3 -2 -33 -35.5t-30 -68.5q0 -23 14 -36.5t36 -13.5q13 0 22.5 2t6.5 1l-8 -49q-5 -1 -13.5 -2.5t-24.5 -1.5q-40 0 -66 23.5z" />
    <glyph glyph-name="tilde" unicode="&#x2dc;" horiz-adv-x="375" 
d="M273.5 601.5q-13.5 5.5 -32.5 16.5q-18 12 -33 18.5t-33 6.5q-41 0 -50 -37h-50q5 41 32.5 67.5t67.5 26.5q15 0 29 -5.5t33 -16.5q18 -12 33 -18.5t32 -6.5q41 0 50 37h51q-5 -41 -33 -67.5t-68 -26.5q-15 0 -28.5 5.5z" />
    <glyph glyph-name="hungarumlaut" unicode="&#x2dd;" horiz-adv-x="389" 
d="M173 696h69l-78 -107h-54zM332 696h69l-78 -107h-54z" />
    <glyph glyph-name="gravecomb" unicode="&#x300;" 
d="M-232 716h69l24 -107h-52z" />
    <glyph glyph-name="acutecomb" unicode="&#x301;" 
d="M-139 716h69l-78 -107h-54z" />
    <glyph glyph-name="uni0302" unicode="&#x302;" 
d="M-293 604l118 112h65l76 -109l2 7h-64l-43 64h-18l-62 -64h-72z" />
    <glyph glyph-name="tildecomb" unicode="&#x303;" 
d="M-119.5 621.5q-13.5 5.5 -32.5 16.5q-18 12 -33 18.5t-33 6.5q-41 0 -50 -37h-51q5 41 32.5 67t67.5 26q15 0 28 -5.5t34 -17.5q18 -11 33 -17.5t33 -6.5q40 0 49 37h51q-5 -41 -32.5 -67t-67.5 -26q-15 0 -28.5 5.5z" />
    <glyph glyph-name="uni0304" unicode="&#x304;" 
d="M-280 692h257l-8 -47h-257z" />
    <glyph glyph-name="uni0306" unicode="&#x306;" 
d="M-232.5 633.5q-29.5 26.5 -29.5 67.5q0 6 1 11h48q1 6 1 -2q0 -25 15.5 -42t43.5 -17q30 0 51 19t25 42h48q-7 -47 -42.5 -76t-89.5 -29q-42 0 -71.5 26.5z" />
    <glyph glyph-name="uni0307" unicode="&#x307;" 
d="M-97 638q-13 13 -13 31q0 19 12.5 31t30.5 12q19 0 31.5 -12t12.5 -31q0 -18 -12.5 -31t-31.5 -13q-17 0 -30 13z" />
    <glyph glyph-name="uni0308" unicode="&#x308;" 
d="M-264 638q-13 13 -13 31q0 19 12.5 31t30.5 12q20 0 32 -12t12 -31q0 -18 -12.5 -31t-31.5 -13q-17 0 -30 13zM-100 638q-13 13 -13 31q0 19 13 31t31 12q19 0 31 -12t12 -31q0 -18 -12 -31t-31 -13q-18 0 -31 13z" />
    <glyph glyph-name="hookabovecomb" unicode="&#x309;" 
d="M-61 609q24 4 45.5 21.5t21.5 45.5q0 19 -13 29.5t-37 10.5q-29 0 -49 -8l-4 34q29 12 64 12q40 0 63.5 -19t23.5 -54q0 -46 -31.5 -73t-80.5 -33z" />
    <glyph glyph-name="uni030A" unicode="&#x30a;" 
d="M-223.5 615.5q-27.5 27.5 -27.5 66.5t27.5 66t66.5 27t66 -27t27 -66t-27 -66.5t-66 -27.5t-66.5 27.5zM-117 641q17 17 17 41q0 23 -17 40t-40 17q-24 0 -40.5 -16.5t-16.5 -40.5t16.5 -41t40.5 -17q23 0 40 17z" />
    <glyph glyph-name="uni030B" unicode="&#x30b;" 
d="M-213 716h69l-78 -107h-54zM-54 716h69l-78 -107h-54z" />
    <glyph glyph-name="uni030C" unicode="&#x30c;" 
d="M-270 723l-2 -7h64l44 -64h17l62 64h73l2 10l-119 -112h-65z" />
    <glyph glyph-name="uni0312" unicode="&#x312;" 
d="M-151 683q31 -7 40 -18.5t9 -27.5q0 -17 -13 -31t-33 -14q-21 0 -33.5 13.5t-12.5 33.5q0 26 16 45l64 78l19 -16z" />
    <glyph glyph-name="uni031B" unicode="&#x31b;" 
d="M-85 490h13q23 0 36 12t18 36l10 60h48l-10 -56q-9 -53 -34 -74.5t-79 -21.5h-9z" />
    <glyph glyph-name="dotbelowcomb" unicode="&#x323;" 
d="M-241 -179q-13 13 -13 31q0 19 13 31t31 12q19 0 31 -12t12 -31q0 -18 -12 -31t-31 -13q-18 0 -31 13z" />
    <glyph glyph-name="uni0324" unicode="&#x324;" 
d="M-330 -182q-13 13 -13 31q0 19 13 31t31 12q19 0 31 -12t12 -31q0 -18 -12 -31t-31 -13q-18 0 -31 13zM-165.5 -182q-13.5 13 -13.5 31q0 19 13 31t31 12q19 0 31.5 -12t12.5 -31q0 -18 -12.5 -31t-31.5 -13q-17 0 -30.5 13z" />
    <glyph glyph-name="uni0326" unicode="&#x326;" 
d="M-272 -159q-31 7 -40 18.5t-9 27.5q0 17 13 31t33 14q21 0 33.5 -13.5t12.5 -33.5q0 -26 -16 -45l-64 -78l-19 16z" />
    <glyph glyph-name="uni0327" unicode="&#x327;" 
d="M-382.5 -219.5q-22.5 17.5 -25.5 33.5l33 14q1 -6 15 -19t34 -13q25 0 42.5 16.5t17.5 43.5q0 20 -14 34t-35 14q-23 0 -38 -15l-25 12l43 79h29l-31 -53q36 7 42 7q29 0 47.5 -21.5t18.5 -56.5q0 -41 -27.5 -67t-73.5 -26q-30 0 -52.5 17.5z" />
    <glyph glyph-name="uni0328" unicode="&#x328;" 
d="M-351 -200.5q-26 23.5 -26 58.5q0 73 78 122h44q-3 -2 -33 -35.5t-30 -68.5q0 -23 14 -36.5t36 -13.5q13 0 22.5 2t6.5 1l-8 -49q-5 -1 -13.5 -2.5t-24.5 -1.5q-40 0 -66 23.5z" />
    <glyph glyph-name="uni032E" unicode="&#x32e;" 
d="M-380.5 -205.5q-29.5 26.5 -29.5 66.5q0 6 1 11h48q1 6 1 -2q0 -25 15.5 -41.5t43.5 -16.5q30 0 51 18.5t25 41.5h48q-6 -46 -42 -75t-90 -29q-42 0 -71.5 26.5z" />
    <glyph glyph-name="uni0331" unicode="&#x331;" 
d="M-424 -128h256l-8 -46h-256z" />
    <glyph glyph-name="uni0374" unicode="&#x374;" horiz-adv-x="233" 
d="M272 696l-136 -189h-53l106 189h83z" />
    <glyph glyph-name="uni0375" unicode="&#x375;" horiz-adv-x="238" 
d="M-2 -87l104 189h53l-74 -189h-83z" />
    <glyph glyph-name="uni037E" unicode="&#x37e;" horiz-adv-x="222" 
d="M101.5 403.5q-15.5 15.5 -15.5 38.5t15.5 38.5t37.5 15.5q23 0 38.5 -15.5t15.5 -38.5t-15.5 -38.5t-38.5 -15.5q-22 0 -37.5 15.5zM-2 -73l70 83q-24 9 -34 22t-10 32q0 23 15.5 38.5t36.5 15.5q23 0 39 -15t16 -38q0 -12 -8 -24.5t-29 -38.5l-76 -91z" />
    <glyph glyph-name="tonos" unicode="&#x384;" horiz-adv-x="360" 
d="M237 716h69l-78 -107h-54z" />
    <glyph glyph-name="dieresistonos" unicode="&#x385;" horiz-adv-x="373" 
d="M228 712h40l-21 -124h-40zM96 622q-12 12 -12 27q0 17 11.5 28t27.5 11q17 0 28 -11t11 -28q0 -16 -11 -27.5t-28 -11.5q-15 0 -27 12zM324 622q-12 12 -12 27q0 17 12 28t28 11q17 0 28 -11t11 -28q0 -16 -11 -27.5t-28 -11.5q-16 0 -28 12z" />
    <glyph glyph-name="Alphatonos" unicode="&#x386;" horiz-adv-x="669" 
d="M356 696h82l141 -696h-70l-36 197h-323l-108 -197h-72zM461 257l-52 270l-16 85h-18l-194 -355h280zM149 696h69l-78 -107h-54z" />
    <glyph glyph-name="anoteleia" unicode="&#x387;" horiz-adv-x="146" 
d="M47.5 275.5q-15.5 15.5 -15.5 38.5t15.5 38.5t37.5 15.5q23 0 38.5 -15.5t15.5 -38.5t-15.5 -38.5t-38.5 -15.5q-22 0 -37.5 15.5z" />
    <glyph glyph-name="Epsilontonos" unicode="&#x388;" horiz-adv-x="585" 
d="M192 696h394l-10 -61h-330l-46 -257h298l-10 -60h-298l-46 -257h330l-11 -61h-394zM26 696h69l-78 -107h-54z" />
    <glyph glyph-name="Etatonos" unicode="&#x389;" horiz-adv-x="731" 
d="M190 696h64l-55 -310h389l56 310h64l-123 -696h-64l57 326h-389l-58 -326h-64zM18 696h69l-78 -107h-54z" />
    <glyph glyph-name="Iotatonos" unicode="&#x38a;" horiz-adv-x="277" 
d="M190 696h64l-123 -696h-64zM18 696h69l-78 -107h-54z" />
    <glyph glyph-name="Omicrontonos" unicode="&#x38c;" horiz-adv-x="825" 
d="M212.5 24q-72.5 40 -114 112t-41.5 163q0 107 52.5 202.5t147 153t213.5 57.5q87 0 159 -40t113.5 -112t41.5 -163q0 -107 -52 -202.5t-146.5 -153t-212.5 -57.5q-88 0 -160.5 40zM550 94q77 49 122 128.5t45 167.5q0 79 -34 138t-92.5 91t-130.5 32q-92 0 -168.5 -49
t-121.5 -128.5t-45 -167.5q0 -79 34 -138t92 -91t130 -32q92 0 169 49zM26 696h69l-78 -107h-54z" />
    <glyph glyph-name="Upsilontonos" unicode="&#x38e;" horiz-adv-x="658" 
d="M328 322l-169 374h75l130 -300h16l233 300h76l-295 -371l-58 -325h-64zM19 696h69l-78 -107h-54z" />
    <glyph glyph-name="Omegatonos" unicode="&#x38f;" horiz-adv-x="745" 
d="M19 696h69l-78 -107h-54zM-11 61h170l4 18q-64 44 -102 107.5t-38 146.5q0 101 51 188t141.5 139t201.5 52q91 0 158 -40t102.5 -107t35.5 -146q0 -108 -62.5 -193.5t-175.5 -143.5l-5 -21h167l-10 -61h-255l18 101q64 16 125 62.5t96.5 111.5t35.5 136t-30.5 125
t-85.5 84.5t-127 30.5q-86 0 -158 -42t-114 -112.5t-42 -154.5q0 -93 48 -154.5t114 -85.5l-18 -102h-255z" />
    <glyph glyph-name="iotadieresistonos" unicode="&#x390;" horiz-adv-x="221" 
d="M110 490h65l-84 -490h-65zM161 712h41l-20 -124h-41zM33 622q-12 12 -12 27q0 17 11.5 28t27.5 11q17 0 28 -11t11 -28q0 -16 -11 -27.5t-28 -11.5q-15 0 -27 12zM255 622q-12 12 -12 27q0 17 12 28t28 11q17 0 28 -11t11 -28q0 -16 -11 -27.5t-28 -11.5q-16 0 -28 12z
" />
    <glyph glyph-name="Alpha" unicode="&#x391;" horiz-adv-x="669" 
d="M356 696h82l141 -696h-70l-36 197h-323l-108 -197h-72zM461 257l-52 270l-16 85h-18l-194 -355h280z" />
    <glyph glyph-name="Beta" unicode="&#x392;" horiz-adv-x="605" 
d="M157 696h236q54 0 94.5 -22t61.5 -59.5t21 -81.5q0 -59 -35 -101t-91 -62l-5 -17q98 -50 98 -145q0 -57 -32 -104.5t-87.5 -75.5t-124.5 -28h-259zM351 386q65 0 109 36t44 98q0 49 -31.5 82t-86.5 33h-175l-45 -249h185zM311 61q39 0 76 17t60 50t23 78q0 54 -35.5 87
t-94.5 33h-184l-47 -265h202z" />
    <glyph glyph-name="Gamma" unicode="&#x393;" horiz-adv-x="504" 
d="M157 696h378l-10 -61h-314l-113 -635h-64z" />
    <glyph glyph-name="uni0394" unicode="&#x394;" horiz-adv-x="630" 
d="M351 696h82l136 -696h-599zM487 61l-99 551h-18l-295 -551h412z" />
    <glyph glyph-name="Epsilon" unicode="&#x395;" horiz-adv-x="550" 
d="M157 696h394l-10 -61h-330l-46 -257h298l-10 -60h-298l-46 -257h330l-11 -61h-394z" />
    <glyph glyph-name="Zeta" unicode="&#x396;" horiz-adv-x="571" 
d="M6 74l492 561h-377l10 61h448l-13 -74l-493 -561h398l-11 -61h-467z" />
    <glyph glyph-name="Eta" unicode="&#x397;" horiz-adv-x="698" 
d="M157 696h64l-55 -310h389l56 310h64l-123 -696h-64l57 326h-389l-58 -326h-64z" />
    <glyph glyph-name="Theta" unicode="&#x398;" horiz-adv-x="805" 
d="M212.5 24q-72.5 40 -114 112t-41.5 163q0 107 52.5 202.5t147 153t213.5 57.5q87 0 159 -40t113.5 -112t41.5 -163q0 -107 -52 -202.5t-146.5 -153t-212.5 -57.5q-88 0 -160.5 40zM550 94q77 49 122 128.5t45 167.5q0 79 -34 138t-92.5 91t-130.5 32q-92 0 -168.5 -49
t-121.5 -128.5t-45 -167.5q0 -79 34 -138t92 -91t130 -32q92 0 169 49zM276 378h299l-10 -60h-299z" />
    <glyph glyph-name="Iota" unicode="&#x399;" horiz-adv-x="244" 
d="M157 696h64l-123 -696h-64z" />
    <glyph glyph-name="Kappa" unicode="&#x39a;" horiz-adv-x="615" 
d="M157 696h64l-63 -357h20l375 357h97l3 11l-395 -371l278 -344l2 8h-95l-267 337h-17l-61 -337h-64z" />
    <glyph glyph-name="Lambda" unicode="&#x39b;" horiz-adv-x="621" 
d="M347 696h82l131 -696h-70l-92 535l-14 77h-18l-39 -74l-284 -538h-73z" />
    <glyph glyph-name="Mu" unicode="&#x39c;" horiz-adv-x="866" 
d="M157 696h103l126 -587h18l331 587h108l-123 -696h-64l78 443l31 148h-22l-335 -591h-57l-132 591h-21l-21 -144l-79 -447h-64z" />
    <glyph glyph-name="Nu" unicode="&#x39d;" horiz-adv-x="707" 
d="M157 696h83l265 -570h19l22 146l74 424h65l-123 -696h-67l-277 597h-19l-21 -146l-80 -451h-64z" />
    <glyph glyph-name="Xi" unicode="&#x39e;" horiz-adv-x="471" 
d="M110 696h410l-11 -61h-410zM85 378h346l-10 -60h-346zM-2 61h410l-11 -61h-409z" />
    <glyph glyph-name="Omicron" unicode="&#x39f;" horiz-adv-x="825" 
d="M212.5 24q-72.5 40 -114 112t-41.5 163q0 107 52.5 202.5t147 153t213.5 57.5q87 0 159 -40t113.5 -112t41.5 -163q0 -107 -52 -202.5t-146.5 -153t-212.5 -57.5q-88 0 -160.5 40zM550 94q77 49 122 128.5t45 167.5q0 79 -34 138t-92.5 91t-130.5 32q-92 0 -168.5 -49
t-121.5 -128.5t-45 -167.5q0 -79 34 -138t92 -91t130 -32q92 0 169 49z" />
    <glyph glyph-name="Pi" unicode="&#x3a0;" horiz-adv-x="674" 
d="M157 696h494l-123 -696h-64l112 635h-365l-113 -635h-64z" />
    <glyph glyph-name="Rho" unicode="&#x3a1;" horiz-adv-x="576" 
d="M157 696h227q53 0 95 -22.5t65.5 -62t23.5 -90.5q0 -70 -32 -122t-89.5 -79.5t-131.5 -27.5h-164l-53 -292h-64zM330 353q75 0 123 40t48 117q0 57 -35.5 91t-88.5 34h-166l-50 -282h169z" />
    <glyph glyph-name="Sigma" unicode="&#x3a3;" horiz-adv-x="488" 
d="M363 357l-279 -296h341l-10 -61h-410l12 73l269 287l-172 260l13 76h411l-11 -61h-349z" />
    <glyph glyph-name="Tau" unicode="&#x3a4;" horiz-adv-x="538" 
d="M293 635h-201l11 61h466l-11 -61h-200l-113 -635h-64z" />
    <glyph glyph-name="Upsilon" unicode="&#x3a5;" horiz-adv-x="595" 
d="M265 322l-169 374h75l130 -300h16l233 300h76l-295 -371l-58 -325h-64z" />
    <glyph glyph-name="Phi" unicode="&#x3a6;" horiz-adv-x="779" 
d="M324 57q-128 12 -196.5 81t-68.5 178q0 89 46.5 159.5t128.5 113.5t194 49l9 58h65l-11 -58q129 -14 197.5 -83.5t68.5 -179.5q0 -88 -46 -157.5t-128 -111.5t-194 -50l-10 -56h-65zM416 579q-88 -8 -151 -41t-101 -88t-38 -125q0 -90 52 -144t156 -65zM551.5 156
q63.5 32 101 87.5t37.5 125.5q0 90 -52 145t-157 65l-83 -463q90 8 153.5 40z" />
    <glyph glyph-name="Chi" unicode="&#x3a7;" horiz-adv-x="629" 
d="M269 364l-164 332h77l131 -277h15l228 277h78l-281 -337l179 -359h-78l-146 299h-15l-249 -299h-74z" />
    <glyph glyph-name="Psi" unicode="&#x3a8;" horiz-adv-x="726" 
d="M195.5 181.5q-47.5 25.5 -74.5 76t-27 119.5q0 26 7 69l43 250h65l-46 -258q-6 -32 -6 -62q0 -76 42.5 -117.5t126.5 -41.5l85 479h65l-85 -479q103 0 163 58t77 153l47 268h65l-50 -278q-14 -82 -57.5 -141t-107 -90t-148.5 -31l-27 -156h-65l27 156q-72 0 -119.5 25.5z
" />
    <glyph glyph-name="uni03A9" unicode="&#x3a9;" horiz-adv-x="781" 
d="M34 61h170l4 18q-64 44 -102 107.5t-38 146.5q0 101 51 188t141.5 139t201.5 52q91 0 158 -40t102.5 -107t35.5 -146q0 -108 -62.5 -193.5t-175.5 -143.5l-5 -21h167l-10 -61h-255l18 101q64 16 125 62.5t96.5 111.5t35.5 136t-30.5 125t-85.5 84.5t-127 30.5
q-86 0 -158 -42t-114 -112.5t-42 -154.5q0 -93 48 -154.5t114 -85.5l-18 -102h-255z" />
    <glyph glyph-name="Iotadieresis" unicode="&#x3aa;" horiz-adv-x="222" 
d="M107 817q-12 12 -12 27q0 17 12 28.5t28 11.5q17 0 28 -11t11 -29q0 -16 -11 -27.5t-28 -11.5q-16 0 -28 12zM255 817q-12 12 -12 27q0 17 12 28.5t27 11.5q18 0 29 -11t11 -29q0 -16 -11.5 -27.5t-28.5 -11.5q-15 0 -27 12zM157 696h64l-123 -696h-64z" />
    <glyph glyph-name="Upsilondieresis" unicode="&#x3ab;" horiz-adv-x="595" 
d="M265 322l-169 374h75l130 -300h16l233 300h76l-295 -371l-58 -325h-64zM265.5 802.5q-13.5 13.5 -13.5 30.5q0 19 13 31.5t31 12.5q19 0 31.5 -12.5t12.5 -31.5q0 -18 -12.5 -31t-31.5 -13q-17 0 -30.5 13.5zM430 802.5q-13 13.5 -13 30.5q0 19 13 31.5t30 12.5
q19 0 31.5 -12.5t12.5 -31.5q0 -18 -12.5 -31t-31.5 -13q-17 0 -30 13.5z" />
    <glyph glyph-name="alphatonos" unicode="&#x3ac;" horiz-adv-x="593" 
d="M127 11q-44 27 -69 77t-25 117q0 82 36 151t99 109.5t143 40.5q53 0 92.5 -25.5t60.5 -67.5h15l14 77h60l-84 -490h-61l14 75h-19q-30 -44 -73 -67.5t-104 -23.5q-55 0 -99 27zM352.5 73.5q47.5 32.5 74.5 87.5t27 120q0 76 -43 122t-106 46q-58 0 -105 -31t-74 -85.5
t-27 -119.5q0 -78 42.5 -125t106.5 -47q57 0 104.5 32.5zM339 716h69l-76 -107h-54z" />
    <glyph glyph-name="epsilontonos" unicode="&#x3ad;" horiz-adv-x="490" 
d="M101 2q-39 18 -59.5 48t-20.5 67q0 48 27.5 79.5t80.5 48.5v16q-24 18 -37.5 43t-13.5 57q0 42 24.5 75t69 51.5t101.5 18.5q101 0 156 -74l-49 -39q-40 56 -113 56q-48 0 -86 -23.5t-38 -69.5q0 -34 25.5 -58.5t65.5 -24.5h55l-7 -48h-77q-45 0 -80 -26.5t-35 -69.5
q0 -38 31 -63t80 -25q45 0 81 17t69 48l40 -41q-37 -39 -85.5 -60t-112.5 -21q-53 0 -92 18zM325 716h69l-77 -107h-54z" />
    <glyph glyph-name="etatonos" unicode="&#x3ae;" horiz-adv-x="551" 
d="M415 294q6 39 6 52q0 49 -31.5 76t-82.5 27q-64 0 -113 -48.5t-62 -121.5l-48 -279h-65l84 490h60l-12 -75h18q28 43 70.5 67t96.5 24q71 0 110.5 -38.5t39.5 -102.5q0 -39 -6 -69l-88 -512h-64zM371 716h69l-76 -107h-54z" />
    <glyph glyph-name="iotatonos" unicode="&#x3af;" horiz-adv-x="223" 
d="M110 490h65l-84 -490h-65zM196 716h69l-76 -107h-55z" />
    <glyph glyph-name="upsilondieresistonos" unicode="&#x3b0;" horiz-adv-x="552" 
d="M100.5 32q-48.5 48 -48.5 131q0 32 5 58l44 269h66l-47 -268q-4 -24 -4 -50q0 -62 34.5 -96.5t88.5 -34.5q64 0 108 33t66 86.5t22 118.5q0 109 -46 211h67q44 -103 44 -207q0 -91 -34 -158.5t-94.5 -104t-140.5 -36.5q-82 0 -130.5 48zM292 712h41l-21 -124h-41z
M163 622q-12 12 -12 27q0 17 11.5 28t27.5 11q17 0 28 -11t11 -28q0 -16 -10.5 -27.5t-28.5 -11.5q-15 0 -27 12zM385 622q-12 12 -12 27q0 17 12 28t28 11q18 0 29 -11t11 -28q0 -16 -11 -27.5t-29 -11.5q-16 0 -28 12z" />
    <glyph glyph-name="alpha" unicode="&#x3b1;" horiz-adv-x="593" 
d="M127 11q-44 27 -69 77t-25 117q0 82 36 151t99 109.5t143 40.5q53 0 92.5 -25.5t60.5 -67.5h15l14 77h60l-84 -490h-61l14 75h-19q-30 -44 -73 -67.5t-104 -23.5q-55 0 -99 27zM352.5 73.5q47.5 32.5 74.5 87.5t27 120q0 76 -43 122t-106 46q-58 0 -105 -31t-74 -85.5
t-27 -119.5q0 -78 42.5 -125t106.5 -47q57 0 104.5 32.5z" />
    <glyph glyph-name="beta" unicode="&#x3b2;" horiz-adv-x="537" 
d="M117 504q16 96 71.5 152t151.5 56q52 0 92 -21.5t62 -58t22 -80.5q0 -61 -30 -103t-86 -64v-17q44 -24 67.5 -61.5t23.5 -91.5q0 -66 -31 -118.5t-86 -82.5t-120 -30q-42 0 -79 19t-56 54h-17l-10 -80l-32 -193h-66zM338 65q38 20 62 57.5t24 85.5q0 61 -40 98.5
t-103 37.5h-21l9 58h23q40 0 75.5 16.5t58.5 47.5t23 70q0 52 -33.5 83.5t-85.5 31.5q-56 0 -95.5 -39.5t-51.5 -103.5l-51 -297q-3 -20 -3 -38q0 -59 36.5 -93.5t96.5 -34.5q38 0 76 20z" />
    <glyph glyph-name="gamma" unicode="&#x3b3;" horiz-adv-x="509" 
d="M182 -3l-129 493h70l98 -413h14l242 413h69l-300 -487l-36 -219h-65z" />
    <glyph glyph-name="delta" unicode="&#x3b4;" horiz-adv-x="563" 
d="M136.5 14q-48.5 30 -76.5 83t-28 116q0 69 27.5 132t85.5 106t142 51q1 0 77 -39l-217 182l8 51h385l-8 -57h-299l189 -153q106 -86 106 -211q0 -80 -34.5 -147t-99.5 -105.5t-151 -38.5q-58 0 -106.5 30zM357 69.5q48 28.5 76.5 80t28.5 119.5q0 48 -20.5 90t-57.5 66.5
t-83 24.5q-56 0 -103 -30.5t-74 -84.5t-27 -119q0 -50 22 -90t57 -62.5t77 -22.5q56 0 104 28.5z" />
    <glyph glyph-name="epsilon" unicode="&#x3b5;" horiz-adv-x="466" 
d="M101 2q-39 18 -59.5 48t-20.5 67q0 48 27.5 79.5t80.5 48.5v16q-24 18 -37.5 43t-13.5 57q0 42 24.5 75t69 51.5t101.5 18.5q101 0 156 -74l-49 -39q-40 56 -113 56q-48 0 -86 -23.5t-38 -69.5q0 -34 25.5 -58.5t65.5 -24.5h55l-7 -48h-77q-45 0 -80 -26.5t-35 -69.5
q0 -38 31 -63t80 -25q45 0 81 17t69 48l40 -41q-37 -39 -85.5 -60t-112.5 -21q-53 0 -92 18z" />
    <glyph glyph-name="zeta" unicode="&#x3b6;" horiz-adv-x="462" 
d="M255 -111q23 0 44.5 15.5t21.5 43.5q0 52 -62 52h-124q-61 0 -93.5 32t-32.5 82q0 43 22 75t64 60t271 184h-286l10 57h367l-10 -59l-326 -227q-48 -35 -48 -78q0 -32 21.5 -50.5t54.5 -18.5h114q59 0 89.5 -26.5t30.5 -74.5q0 -56 -39 -90t-97 -34z" />
    <glyph glyph-name="eta" unicode="&#x3b7;" horiz-adv-x="529" 
d="M415 294q6 39 6 52q0 49 -31.5 76t-82.5 27q-64 0 -113 -48.5t-62 -121.5l-48 -279h-65l84 490h60l-12 -75h18q28 43 70.5 67t96.5 24q71 0 110.5 -38.5t39.5 -102.5q0 -39 -6 -69l-88 -512h-64z" />
    <glyph glyph-name="theta" unicode="&#x3b8;" horiz-adv-x="633" 
d="M159.5 18q-47.5 34 -73 97.5t-25.5 150.5q0 108 41.5 204t114 153t164.5 57q65 0 112.5 -34t73 -97.5t25.5 -150.5q0 -109 -41.5 -204.5t-114 -152.5t-164.5 -57q-65 0 -112.5 34zM525 373v16q-2 106 -43 168t-112 62q-51 0 -97.5 -31t-81.5 -84t-54 -131h388zM389 81.5
q50 36.5 84.5 98t48.5 147.5h-391q-2 -25 -2 -45q0 -109 41 -173t113 -64q56 0 106 36.5z" />
    <glyph glyph-name="iota" unicode="&#x3b9;" horiz-adv-x="225" 
d="M110 490h65l-84 -490h-65z" />
    <glyph glyph-name="kappa" unicode="&#x3ba;" horiz-adv-x="460" 
d="M105 490h65l-40 -231h18l246 231h91l3 9l-266 -243l189 -262l1 6h-86l-181 257h-15l-45 -257h-63z" />
    <glyph glyph-name="lambda" unicode="&#x3bb;" horiz-adv-x="459" 
d="M231 447l-66 239h69l171 -686h-67l-83 356h-14l-207 -356h-71z" />
    <glyph glyph-name="uni03BC" unicode="&#x3bc;" horiz-adv-x="525" 
d="M97 490h64l-52 -303q-3 -22 -3 -43q0 -50 31 -76.5t82 -26.5q64 0 113 48.5t62 120.5l48 280h64l-83 -490h-61l14 74h-19q-28 -41 -71.5 -65.5t-97.5 -24.5q-27 0 -52.5 11.5t-40.5 33.5h-16l-8 -69l-31 -176h-64z" />
    <glyph glyph-name="nu" unicode="&#x3bd;" horiz-adv-x="504" 
d="M52 490h69l83 -410h14l225 410h69l-280 -490h-73z" />
    <glyph glyph-name="xi" unicode="&#x3be;" horiz-adv-x="495" 
d="M291 -111q20 0 42.5 16.5t22.5 44.5q0 50 -56 50h-81q-61 0 -105.5 22.5t-68.5 60.5t-24 86q0 135 150 197l4 15q-75 52 -75 134q0 52 29 97t82.5 72.5t123.5 27.5q59 0 105 -26.5t69 -66.5l-57 -38q-18 32 -49 51t-78 19q-64 0 -110.5 -37t-46.5 -101q0 -54 37 -86
t94 -32h75l-10 -59h-98q-78 0 -127 -42t-49 -108q0 -60 39 -92.5t100 -32.5h65q63 0 94 -26t31 -73q0 -57 -41 -92.5t-95 -37.5z" />
    <glyph glyph-name="omicron" unicode="&#x3bf;" horiz-adv-x="585" 
d="M139 14.5q-49 30.5 -76.5 83.5t-27.5 119q0 80 34.5 146t98.5 104.5t146 38.5q64 0 113 -30.5t76 -83.5t27 -119q0 -81 -34.5 -147t-98.5 -104t-146 -38q-63 0 -112 30.5zM366 72q47 31 72 83t25 113q0 78 -43.5 129.5t-115.5 51.5q-58 0 -105 -31t-72 -83t-25 -113
q0 -79 43.5 -130t115.5 -51q58 0 105 31z" />
    <glyph glyph-name="pi" unicode="&#x3c0;" horiz-adv-x="667" 
d="M458.5 18.5q-30.5 26.5 -30.5 73.5q0 20 5 47l50 294h-246l-74 -433h-65l74 433h-117l10 57h610l-10 -57h-117l-48 -281q-4 -27 -4 -37q0 -27 14.5 -46.5t41.5 -19.5q17 0 31 4t14 3l-11 -58q-19 -6 -49 -6q-48 0 -78.5 26.5z" />
    <glyph glyph-name="rho" unicode="&#x3c1;" horiz-adv-x="570" 
d="M53 256q12 73 48 129t93.5 88.5t129.5 32.5q62 0 109 -27t72.5 -77t25.5 -118q0 -82 -36 -151t-99.5 -109t-142.5 -40q-53 0 -93.5 25.5t-59.5 66.5h-17l-9 -80l-36 -212h-65zM365 72q47 31 73.5 85.5t26.5 119.5q0 78 -42 124.5t-108 46.5q-57 0 -104.5 -32.5t-74 -87.5
t-26.5 -121q0 -76 42.5 -121t106.5 -45q59 0 106 31z" />
    <glyph glyph-name="sigma1" unicode="&#x3c2;" horiz-adv-x="510" 
d="M145 13q-53 29 -81.5 82t-28.5 120q0 79 35 146t98 105.5t143 38.5q79 0 128 -38t62 -87l-62 -24q-11 39 -46.5 65.5t-89.5 26.5q-57 0 -103 -31t-72 -83.5t-26 -112.5q0 -81 43.5 -130.5t126.5 -49.5h31q61 0 92.5 -25.5t31.5 -72.5q0 -57 -40 -91.5t-96 -35.5l10 57
q23 0 43.5 16t20.5 45q0 23 -15 36.5t-45 13.5h-38q-69 0 -122 29z" />
    <glyph glyph-name="sigma" unicode="&#x3c3;" horiz-adv-x="581" 
d="M136 13q-48 29 -75 80t-27 115q0 77 34 141.5t97 102.5t145 38h298l-10 -57h-52l-80 4l-4 -17q29 -30 43 -69.5t14 -85.5q0 -78 -34 -142.5t-96.5 -101.5t-142.5 -37q-62 0 -110 29zM357 70.5q45 29.5 70.5 79.5t25.5 108q0 77 -43 126t-110 49q-57 0 -103 -29.5
t-71 -80.5t-25 -110q0 -76 43 -124t112 -48q56 0 101 29.5z" />
    <glyph glyph-name="tau" unicode="&#x3c4;" horiz-adv-x="441" 
d="M222 433h-163l10 57h389l-10 -57h-162l-75 -433h-64z" />
    <glyph glyph-name="upsilon" unicode="&#x3c5;" horiz-adv-x="532" 
d="M100.5 32q-48.5 48 -48.5 131q0 32 5 58l44 269h66l-47 -268q-4 -24 -4 -50q0 -62 34.5 -96.5t88.5 -34.5q64 0 108 33t66 86.5t22 118.5q0 109 -46 211h67q44 -103 44 -207q0 -91 -34 -158.5t-94.5 -104t-140.5 -36.5q-82 0 -130.5 48z" />
    <glyph glyph-name="phi" unicode="&#x3c6;" horiz-adv-x="704" 
d="M273 -14q-74 9 -123 39t-76 78.5t-27 109.5q0 100 57.5 174t152.5 116l16 -56q-69 -33 -114 -90t-45 -136q0 -73 45.5 -119.5t122.5 -58.5l56 323q11 68 54 104t103 36q49 0 86 -26.5t58 -74t21 -108.5q0 -85 -39 -153t-111 -109t-174 -50l-33 -201h-64zM478.5 85
q52.5 33 83.5 86.5t31 121.5q0 67 -28.5 109.5t-74.5 42.5q-35 0 -57.5 -21t-29.5 -57l-56 -325q79 10 131.5 43z" />
    <glyph glyph-name="chi" unicode="&#x3c7;" horiz-adv-x="474" 
d="M176 250l-122 240h74l92 -188h10l153 188h75l-206 -243l128 -247h-73l-96 196h-10l-159 -196h-74z" />
    <glyph glyph-name="psi" unicode="&#x3c8;" horiz-adv-x="672" 
d="M261 -16h-13q-59 0 -105 23.5t-72 66t-26 97.5q0 21 4 50l46 269h65l-46 -266q-4 -23 -4 -43q0 -68 45 -104t107 -36h9l77 449h65l-78 -449h13q72 0 123 36.5t76 96t25 125.5q0 57 -9 105.5t-24 85.5h65q34 -85 34 -192q0 -91 -38 -163t-107.5 -111.5t-157.5 -39.5h-9
l-35 -200h-64z" />
    <glyph glyph-name="omega" unicode="&#x3c9;" horiz-adv-x="766" 
d="M109 7q-37 23 -59.5 67t-22.5 103q0 83 34.5 159.5t90.5 153.5h70q-52 -69 -90.5 -148t-38.5 -156q0 -66 30.5 -105.5t80.5 -39.5t89 47.5t55 130.5l25 146h62l-26 -142q-5 -32 -5 -64q0 -55 28 -86.5t73 -31.5q53 0 90 35.5t55.5 90t18.5 112.5q0 56 -11 107.5
t-31 103.5h70q17 -55 27 -104t10 -108q0 -70 -27 -138t-81 -112t-131 -44q-46 0 -81 23.5t-57 82.5q-65 -106 -166 -106q-45 0 -82 23z" />
    <glyph glyph-name="iotadieresis" unicode="&#x3ca;" horiz-adv-x="223" 
d="M74.5 638q-13.5 13 -13.5 31q0 19 13 31t31 12q19 0 31.5 -12t12.5 -31q0 -18 -12.5 -31t-31.5 -13q-17 0 -30.5 13zM204 638q-13 13 -13 31q0 19 13 31t31 12q19 0 31.5 -12t12.5 -31q0 -18 -12.5 -31t-31.5 -13q-18 0 -31 13zM110 490h65l-83 -490h-66z" />
    <glyph glyph-name="upsilondieresis" unicode="&#x3cb;" horiz-adv-x="552" 
d="M100.5 32q-48.5 48 -48.5 131q0 32 5 58l44 269h66l-47 -268q-4 -24 -4 -50q0 -62 34.5 -96.5t88.5 -34.5q64 0 108 33t66 86.5t22 118.5q0 109 -46 211h67q44 -103 44 -207q0 -91 -34 -158.5t-94.5 -104t-140.5 -36.5q-82 0 -130.5 48zM194 638q-13 13 -13 31
q0 19 12.5 31t30.5 12q21 0 32.5 -12t11.5 -31q0 -18 -12 -31t-32 -13q-17 0 -30 13zM354 638q-13 13 -13 31q0 19 13 31t31 12q19 0 31 -12t12 -31q0 -18 -12 -31t-31 -13q-18 0 -31 13z" />
    <glyph glyph-name="omicrontonos" unicode="&#x3cc;" horiz-adv-x="585" 
d="M139 14.5q-49 30.5 -76.5 83.5t-27.5 119q0 80 34.5 146t98.5 104.5t146 38.5q64 0 113 -30.5t76 -83.5t27 -119q0 -81 -34.5 -147t-98.5 -104t-146 -38q-63 0 -112 30.5zM366 72q47 31 72 83t25 113q0 78 -43.5 129.5t-115.5 51.5q-58 0 -105 -31t-72 -83t-25 -113
q0 -79 43.5 -130t115.5 -51q58 0 105 31zM368 716h69l-76 -107h-55z" />
    <glyph glyph-name="upsilontonos" unicode="&#x3cd;" horiz-adv-x="552" 
d="M100.5 32q-48.5 48 -48.5 131q0 32 5 58l44 269h66l-47 -268q-4 -24 -4 -50q0 -62 34.5 -96.5t88.5 -34.5q64 0 108 33t66 86.5t22 118.5q0 109 -46 211h67q44 -103 44 -207q0 -91 -34 -158.5t-94.5 -104t-140.5 -36.5q-82 0 -130.5 48zM326 716h69l-76 -107h-55z" />
    <glyph glyph-name="omegatonos" unicode="&#x3ce;" horiz-adv-x="786" 
d="M109 7q-37 23 -59.5 67t-22.5 103q0 83 34.5 159.5t90.5 153.5h70q-52 -69 -90.5 -148t-38.5 -156q0 -66 30.5 -105.5t80.5 -39.5t89 47.5t55 130.5l25 146h62l-26 -142q-5 -32 -5 -64q0 -55 28 -86.5t73 -31.5q53 0 90 35.5t55.5 90t18.5 112.5q0 56 -11 107.5
t-31 103.5h70q17 -55 27 -104t10 -108q0 -70 -27 -138t-81 -112t-131 -44q-46 0 -81 23.5t-57 82.5q-65 -106 -166 -106q-45 0 -82 23zM477 716h69l-76 -107h-55z" />
    <glyph glyph-name="theta1" unicode="&#x3d1;" horiz-adv-x="605" 
d="M98 31.5q-49 47.5 -49 129.5q0 25 5 54l47 275h65l-46 -264q-5 -31 -5 -53q0 -64 33.5 -98t89.5 -34q72 0 117 46t59 130l10 63q-57 12 -94.5 43.5t-59.5 80t-22 108.5q0 56 21 101.5t59.5 72t91.5 26.5q62 0 90.5 -33t28.5 -90q0 -24 -4 -49l-36 -202h89l-10 -57h-87
l-14 -77q-10 -64 -44.5 -114t-87.5 -78t-120 -28q-78 0 -127 47.5zM472 556q2 16 2 27q0 30 -17 50t-49 20q-44 0 -70.5 -41t-26.5 -94q0 -63 32 -112t93 -68z" />
    <glyph glyph-name="Upsilon1" unicode="&#x3d2;" horiz-adv-x="579" 
d="M273 306l-84 266q-12 37 -26 53.5t-38 16.5q-21 0 -27 -4l-18 53q5 3 25 8t39 5q70 0 95 -87l71 -237h16l147 230q36 57 64.5 75.5t66.5 18.5q35 0 54 -12l-29 -54q-6 4 -26 4q-24 0 -43 -15.5t-44 -51.5l-177 -266l-55 -309h-65z" />
    <glyph glyph-name="uni03D3" unicode="&#x3d3;" horiz-adv-x="680" 
d="M349 306l-84 266q-12 37 -26 53.5t-38 16.5q-21 0 -27 -4l-18 53q5 3 25 8t39 5q70 0 95 -87l71 -237h16l147 230q36 57 64.5 75.5t66.5 18.5q35 0 54 -12l-29 -54q-6 4 -26 4q-24 0 -43 -15.5t-44 -51.5l-177 -266l-55 -309h-65zM-1 696h69l-78 -107h-54z" />
    <glyph glyph-name="uni03D4" unicode="&#x3d4;" horiz-adv-x="604" 
d="M273 306l-84 266q-12 37 -26 53.5t-38 16.5q-21 0 -27 -4l-18 53q5 3 25 8t39 5q70 0 95 -87l71 -237h16l147 230q36 57 64.5 75.5t66.5 18.5q35 0 54 -12l-29 -54q-6 4 -26 4q-24 0 -43 -15.5t-44 -51.5l-177 -266l-55 -309h-65zM269.5 802.5q-13.5 13.5 -13.5 30.5
q0 19 13 31.5t31 12.5q19 0 31.5 -12.5t12.5 -31.5q0 -18 -12.5 -31t-31.5 -13q-17 0 -30.5 13.5zM434 802.5q-13 13.5 -13 30.5q0 19 13 31.5t30 12.5q19 0 31.5 -12.5t12.5 -31.5q0 -18 -12.5 -31t-31.5 -13q-17 0 -30 13.5z" />
    <glyph glyph-name="omega1" unicode="&#x3d6;" horiz-adv-x="846" 
d="M151 5.5q-36 21.5 -58 63.5t-22 101q0 65 21.5 125t69.5 138h-88l10 57h766l-10 -57h-90q22 -83 22 -163q0 -74 -27.5 -140t-80.5 -106t-127 -40q-46 0 -80.5 23t-56.5 85q-35 -60 -77.5 -84t-90.5 -24q-45 0 -81 21.5zM333.5 88q41.5 47 56.5 130l15 91h62l-16 -87
q-5 -31 -5 -58q0 -58 27 -90.5t69 -32.5q55 0 92 33.5t55 85.5t18 111q0 72 -29 162h-444q-44 -65 -70.5 -131t-26.5 -128t28 -97.5t76 -35.5q51 0 92.5 47z" />
    <glyph glyph-name="uni0400" unicode="&#x400;" horiz-adv-x="550" 
d="M157 696h394l-10 -61h-330l-46 -257h298l-10 -60h-298l-46 -257h330l-11 -61h-394zM296 880h69l24 -107h-52z" />
    <glyph glyph-name="uni0401" unicode="&#x401;" horiz-adv-x="550" 
d="M157 696h394l-10 -61h-330l-46 -257h298l-10 -60h-298l-46 -257h330l-11 -61h-394zM273.5 802.5q-13.5 13.5 -13.5 30.5q0 19 13 31.5t31 12.5q19 0 31.5 -12.5t12.5 -31.5q0 -18 -12.5 -31t-31.5 -13q-17 0 -30.5 13.5zM438 802.5q-13 13.5 -13 30.5q0 19 13 31.5
t30 12.5q19 0 31.5 -12.5t12.5 -31.5q0 -18 -12.5 -31t-31.5 -13q-17 0 -30 13.5z" />
    <glyph glyph-name="uni0402" unicode="&#x402;" horiz-adv-x="730" 
d="M284 635h-192l11 61h450l-10 -61h-195l-37 -208l-19 -82h21q37 35 82.5 54t101.5 19q54 0 98 -22.5t69.5 -65t25.5 -102.5t-30 -112.5t-84.5 -84t-122.5 -31.5h-19l10 61h14q71 0 117.5 46t46.5 117q0 60 -39 97t-106 37q-54 0 -104.5 -23t-88.5 -65l-48 -270h-65z" />
    <glyph glyph-name="uni0403" unicode="&#x403;" horiz-adv-x="504" 
d="M157 696h378l-10 -61h-314l-113 -635h-64zM395 880h69l-78 -107h-54z" />
    <glyph glyph-name="uni0404" unicode="&#x404;" horiz-adv-x="713" 
d="M207 24q-68 40 -108 114.5t-40 173.5q0 104 53.5 196.5t150 148t216.5 55.5q80 0 137.5 -27t98.5 -79l-51 -45q-66 90 -198 90q-78 0 -148.5 -33t-120 -92t-70.5 -148h344l-10 -60h-339v-13q0 -77 33 -136t89.5 -91.5t127.5 -32.5q74 0 132 27t107 75l39 -45
q-58 -57 -128.5 -87.5t-163.5 -30.5q-83 0 -151 40z" />
    <glyph glyph-name="uni0405" unicode="&#x405;" horiz-adv-x="564" 
d="M94.5 33q-59.5 49 -71.5 129l62 25q6 -56 49 -99t114 -43q43 0 83 18.5t65 53t25 79.5q0 49 -33 81t-103 57l-42 16q-61 24 -99 64.5t-38 104.5q0 55 31 98.5t83 69t114 25.5q63 0 105.5 -22.5t64.5 -54.5t26 -54l-63 -24q-6 30 -39.5 62t-99.5 32q-64 0 -109 -34
t-45 -91q0 -45 30.5 -74.5t86.5 -50.5l44 -16q154 -58 154 -177q0 -67 -32.5 -117.5t-89.5 -78.5t-129 -28q-84 0 -143.5 49z" />
    <glyph glyph-name="uni0406" unicode="&#x406;" horiz-adv-x="244" 
d="M157 696h64l-123 -696h-64z" />
    <glyph glyph-name="uni0407" unicode="&#x407;" horiz-adv-x="222" 
d="M109 819q-12 12 -12 27q0 17 12 28t28 11q17 0 28 -11t11 -28q0 -16 -11 -27.5t-28 -11.5q-16 0 -28 12zM260 819q-12 12 -12 27q0 17 11.5 28t27.5 11q17 0 28 -11t11 -28q0 -16 -11 -27.5t-28 -11.5q-15 0 -27 12zM157 696h64l-123 -696h-64z" />
    <glyph glyph-name="uni0408" unicode="&#x408;" horiz-adv-x="531" 
d="M70.5 26.5q-50.5 42.5 -57.5 106.5l62 25q5 -52 41 -82.5t90 -30.5q64 0 110 44.5t58 112.5l86 494h64l-85 -484q-19 -114 -84.5 -171t-158.5 -57q-75 0 -125.5 42.5z" />
    <glyph glyph-name="uni0409" unicode="&#x409;" horiz-adv-x="1048" 
d="M-19 -7l11 61q1 -1 23 -1q21 0 40.5 7t34.5 21q26 22 42 67.5t30 126.5l73 421h454l-53 -306h186q82 0 131.5 -45.5t49.5 -128.5q0 -64 -31 -112.5t-87 -76t-128 -27.5h-254l112 635h-325l-66 -370q-17 -96 -41.5 -151t-59.5 -84q-26 -21 -53.5 -29.5t-67.5 -8.5
q-17 0 -21 1zM775 61q70 0 115.5 42t45.5 106q0 55 -34.5 88t-91.5 33h-185l-48 -269h198z" />
    <glyph glyph-name="uni040A" unicode="&#x40a;" horiz-adv-x="994" 
d="M157 696h64l-54 -306h349l55 306h64l-54 -306h187q81 0 131 -45.5t50 -128.5q0 -64 -31 -112.5t-87 -76t-128 -27.5h-255l58 330h-349l-59 -330h-64zM721 61q69 0 114.5 42t45.5 106q0 55 -34.5 88t-90.5 33h-185l-48 -269h198z" />
    <glyph glyph-name="uni040B" unicode="&#x40b;" horiz-adv-x="726" 
d="M285 635h-191l11 61h450l-10 -61h-195l-37 -208l-19 -82h21q78 73 180 73q79 0 126 -44.5t47 -120.5q0 -19 -5 -48l-36 -205h-67l36 198q3 15 3 40q0 53 -34.5 86.5t-97.5 33.5q-52 0 -98 -23t-83 -66l-48 -269h-65z" />
    <glyph glyph-name="uni040C" unicode="&#x40c;" horiz-adv-x="615" 
d="M157 696h64l-63 -357h20l375 357h97l3 11l-395 -371l278 -344l2 8h-95l-267 337h-17l-61 -337h-64zM424 880h69l-78 -107h-54z" />
    <glyph glyph-name="uni040D" unicode="&#x40d;" horiz-adv-x="680" 
d="M147 696h65l-75 -420l-30 -150h21l449 570h90l-123 -696h-64l79 447l30 150h-21l-470 -597h-74zM343 880h69l24 -107h-52z" />
    <glyph glyph-name="uni040E" unicode="&#x40e;" horiz-adv-x="601" 
d="M36 -5l26 58q13 -8 44 -8t52 15t42 48l41 63l-145 525h72l110 -435h18l263 435h78l-386 -614q-63 -98 -149 -98q-43 0 -66 11zM300.5 798.5q-29.5 26.5 -29.5 66.5q0 6 1 11h48q1 6 1 -2q0 -25 15.5 -41.5t43.5 -16.5q30 0 51 18.5t25 41.5h48q-6 -46 -42 -75t-90 -29
q-42 0 -71.5 26.5z" />
    <glyph glyph-name="uni040F" unicode="&#x40f;" horiz-adv-x="650" 
d="M251 0h-216l122 696h65l-113 -635h366l112 635h64l-122 -696h-217l-26 -152h-61z" />
    <glyph glyph-name="uni0410" unicode="&#x410;" horiz-adv-x="669" 
d="M356 696h82l141 -696h-70l-36 197h-323l-108 -197h-72zM461 257l-52 270l-16 85h-18l-194 -355h280z" />
    <glyph glyph-name="uni0411" unicode="&#x411;" horiz-adv-x="573" 
d="M153 696h392l-10 -61h-329l-43 -244h191q81 0 130.5 -46.5t49.5 -128.5q0 -63 -31.5 -112t-87 -76.5t-126.5 -27.5h-259zM308 61q68 0 113 42.5t45 106.5q0 54 -34 87t-90 33h-189l-48 -269h203z" />
    <glyph glyph-name="uni0412" unicode="&#x412;" horiz-adv-x="605" 
d="M157 696h236q54 0 94.5 -22t61.5 -59.5t21 -81.5q0 -59 -35 -101t-91 -62l-5 -17q98 -50 98 -145q0 -57 -32 -104.5t-87.5 -75.5t-124.5 -28h-259zM351 386q65 0 109 36t44 98q0 49 -31.5 82t-86.5 33h-175l-45 -249h185zM311 61q39 0 76 17t60 50t23 78q0 54 -35.5 87
t-94.5 33h-184l-47 -265h202z" />
    <glyph glyph-name="uni0413" unicode="&#x413;" horiz-adv-x="480" 
d="M157 696h378l-10 -61h-314l-113 -635h-64z" />
    <glyph glyph-name="uni0414" unicode="&#x414;" horiz-adv-x="756" 
d="M12 61h59q62 53 107 164t68 242l39 229h431l-113 -635h76l-37 -213h-60l26 152h-546l-26 -152h-60zM539 61l102 574h-303l-37 -202q-21 -121 -55.5 -208.5t-99.5 -163.5h393z" />
    <glyph glyph-name="uni0415" unicode="&#x415;" horiz-adv-x="550" 
d="M157 696h394l-10 -61h-330l-46 -257h298l-10 -60h-298l-46 -257h330l-11 -61h-394z" />
    <glyph glyph-name="uni0416" unicode="&#x416;" horiz-adv-x="869" 
d="M-39 -11l366 359l-227 356l-2 -8h84l219 -350h18l63 350h64l-62 -350h20l339 350h91l3 11l-363 -370l241 -345l2 8h-91l-227 330h-17l-59 -330h-64l58 330h-20l-337 -330h-96z" />
    <glyph glyph-name="uni0417" unicode="&#x417;" horiz-adv-x="543" 
d="M139 3q-45 19 -77.5 57.5t-39.5 86.5l66 25q5 -51 45 -89t104 -38q46 0 86 20.5t63.5 57.5t23.5 84q0 54 -40.5 91t-100.5 37h-49l10 60h46q42 0 81 17.5t64 51t25 77.5q0 48 -37 79t-90 31q-58 0 -98.5 -31.5t-51.5 -65.5l-55 24q21 50 77 92t137 42q54 0 96 -21.5
t65.5 -57.5t23.5 -80q0 -59 -32.5 -102.5t-94.5 -73.5l-4 -16q44 -23 69.5 -61t25.5 -89q0 -65 -33 -116.5t-89.5 -81t-126.5 -29.5q-44 0 -89 19z" />
    <glyph glyph-name="uni0418" unicode="&#x418;" horiz-adv-x="656" 
d="M147 696h65l-75 -420l-30 -150h21l449 570h90l-123 -696h-64l79 447l30 150h-21l-470 -597h-74z" />
    <glyph glyph-name="uni0419" unicode="&#x419;" horiz-adv-x="680" 
d="M147 696h65l-75 -420l-30 -150h21l449 570h90l-123 -696h-64l79 447l30 150h-21l-470 -597h-74zM352.5 798.5q-29.5 26.5 -29.5 66.5q0 6 1 11h48q1 6 1 -2q0 -25 15.5 -41.5t43.5 -16.5q30 0 51 18.5t25 41.5h48q-6 -46 -42 -75t-90 -29q-42 0 -71.5 26.5z" />
    <glyph glyph-name="uni041A" unicode="&#x41a;" horiz-adv-x="615" 
d="M157 696h64l-63 -357h20l375 357h97l3 11l-395 -371l278 -344l2 8h-95l-267 337h-17l-61 -337h-64z" />
    <glyph glyph-name="uni041B" unicode="&#x41b;" horiz-adv-x="676" 
d="M-22 -7l11 61q1 -1 23 -1q43 0 76 27q25 23 41.5 69.5t29.5 125.5l73 421h455l-122 -696h-65l112 635h-325l-66 -370q-18 -97 -42 -151.5t-59 -83.5q-26 -21 -53.5 -29.5t-67.5 -8.5q-17 0 -21 1z" />
    <glyph glyph-name="uni041C" unicode="&#x41c;" horiz-adv-x="866" 
d="M157 696h103l126 -587h18l331 587h108l-123 -696h-64l78 443l31 148h-22l-335 -591h-57l-132 591h-21l-21 -144l-79 -447h-64z" />
    <glyph glyph-name="uni041D" unicode="&#x41d;" horiz-adv-x="698" 
d="M157 696h64l-55 -310h389l56 310h64l-123 -696h-64l57 326h-389l-58 -326h-64z" />
    <glyph glyph-name="uni041E" unicode="&#x41e;" horiz-adv-x="825" 
d="M212.5 24q-72.5 40 -114 112t-41.5 163q0 107 52.5 202.5t147 153t213.5 57.5q87 0 159 -40t113.5 -112t41.5 -163q0 -107 -52 -202.5t-146.5 -153t-212.5 -57.5q-88 0 -160.5 40zM550 94q77 49 122 128.5t45 167.5q0 79 -34 138t-92.5 91t-130.5 32q-92 0 -168.5 -49
t-121.5 -128.5t-45 -167.5q0 -79 34 -138t92 -91t130 -32q92 0 169 49z" />
    <glyph glyph-name="uni041F" unicode="&#x41f;" horiz-adv-x="650" 
d="M157 696h494l-123 -696h-64l112 635h-365l-113 -635h-64z" />
    <glyph glyph-name="uni0420" unicode="&#x420;" horiz-adv-x="576" 
d="M157 696h227q53 0 95 -22.5t65.5 -62t23.5 -90.5q0 -70 -32 -122t-89.5 -79.5t-131.5 -27.5h-164l-53 -292h-64zM330 353q75 0 123 40t48 117q0 57 -35.5 91t-88.5 34h-166l-50 -282h169z" />
    <glyph glyph-name="uni0421" unicode="&#x421;" horiz-adv-x="740" 
d="M203.5 22.5q-69.5 38.5 -108.5 109.5t-39 164q0 107 55.5 203.5t152.5 154.5t215 58q79 0 141.5 -32.5t90.5 -75.5l-53 -43q-28 42 -76 66t-113 24q-94 0 -173.5 -49.5t-126 -130t-46.5 -171.5q0 -76 32.5 -133.5t88.5 -89.5t126 -32q75 0 132.5 28t106.5 76l42 -47
q-60 -58 -129 -88t-161 -30q-88 0 -157.5 38.5z" />
    <glyph glyph-name="uni0422" unicode="&#x422;" horiz-adv-x="538" 
d="M293 635h-201l11 61h466l-11 -61h-200l-113 -635h-64z" />
    <glyph glyph-name="uni0423" unicode="&#x423;" horiz-adv-x="570" 
d="M36 -5l26 58q13 -8 44 -8t52 15t42 48l41 63l-145 525h72l110 -435h18l263 435h78l-386 -614q-63 -98 -149 -98q-43 0 -66 11z" />
    <glyph glyph-name="uni0424" unicode="&#x424;" horiz-adv-x="776" 
d="M323 57q-91 9 -150 43.5t-91 91t-32 128.5q0 94 49.5 164t133 109.5t192.5 44.5l19 106h64l-19 -106q93 -9 152 -43t90.5 -90.5t31.5 -128.5q0 -95 -49.5 -164.5t-133.5 -109t-194 -45.5l-17 -105h-64zM415 580q-90 -7 -154.5 -38.5t-104 -87t-39.5 -128.5
q0 -89 54.5 -144t161.5 -66zM553 155q65 31 104 85.5t39 126.5q0 90 -54.5 145t-162.5 67l-81 -463q90 8 155 39z" />
    <glyph glyph-name="uni0425" unicode="&#x425;" horiz-adv-x="629" 
d="M269 364l-164 332h77l131 -277h15l228 277h78l-281 -337l179 -359h-78l-146 299h-15l-249 -299h-74z" />
    <glyph glyph-name="uni0426" unicode="&#x426;" horiz-adv-x="672" 
d="M520 0h-485l122 696h64l-111 -635h341l111 635h65l-112 -635h80l-40 -229h-64z" />
    <glyph glyph-name="uni0427" unicode="&#x427;" horiz-adv-x="578" 
d="M466 344q-59 -50 -101.5 -67t-103.5 -17q-78 0 -129.5 44.5t-51.5 125.5q0 23 5 52l37 214h66l-38 -215q-3 -22 -3 -37q0 -60 37.5 -92t105.5 -32q54 0 102 23.5t85 66.5l51 286h64l-123 -696h-64z" />
    <glyph glyph-name="uni0428" unicode="&#x428;" horiz-adv-x="884" 
d="M157 696h64l-112 -635h267l113 635h64l-112 -635h267l113 635h64l-123 -696h-728z" />
    <glyph glyph-name="uni0429" unicode="&#x429;" horiz-adv-x="929" 
d="M777 0h-743l123 696h64l-112 -635h267l113 635h64l-112 -635h267l113 635h64l-113 -635h80l-39 -229h-65z" />
    <glyph glyph-name="uni042A" unicode="&#x42a;" horiz-adv-x="725" 
d="M281 635h-188l10 61h253l-48 -265h168q95 0 151 -51.5t56 -140.5q0 -68 -33.5 -122.5t-94.5 -85.5t-142 -31h-245zM429 61q52 0 94.5 21t67 60t24.5 88q0 62 -39 101t-103 39h-175l-55 -309h186z" />
    <glyph glyph-name="uni042B" unicode="&#x42b;" horiz-adv-x="795" 
d="M157 696h64l-47 -265h167q95 0 151.5 -51.5t56.5 -140.5q0 -68 -33.5 -122.5t-94.5 -85.5t-142 -31h-245zM732 696h64l-123 -696h-64zM295 61q52 0 94.5 21t67 60t24.5 88q0 62 -39.5 101t-103.5 39h-174l-56 -309h187z" />
    <glyph glyph-name="uni042C" unicode="&#x42c;" horiz-adv-x="591" 
d="M157 696h64l-47 -265h167q95 0 151.5 -51.5t56.5 -140.5q0 -68 -33.5 -122.5t-94.5 -85.5t-142 -31h-245zM295 61q52 0 94.5 21t67 60t24.5 88q0 62 -39.5 101t-103.5 39h-174l-56 -309h187z" />
    <glyph glyph-name="uni042D" unicode="&#x42d;" horiz-adv-x="714" 
d="M124.5 22q-66.5 38 -103.5 87l51 43q78 -107 217 -107q80 0 149.5 35.5t115.5 95t66 142.5h-341l10 60h328q7 3 4 2t7 9q-1 83 -34 141.5t-88.5 89.5t-126.5 31q-64 0 -120.5 -26t-93.5 -66l-45 46q51 50 118 78.5t151 28.5q90 0 158 -39t106 -112t38 -172
q0 -106 -52 -199.5t-146 -149.5t-213 -56q-89 0 -155.5 38z" />
    <glyph glyph-name="uni042E" unicode="&#x42e;" horiz-adv-x="1063" 
d="M470.5 24q-72.5 40 -113.5 112t-41 163v27h-160l-58 -326h-64l123 696h64l-55 -310h159q21 96 77.5 168.5t140.5 115t185 42.5q88 0 160 -40t113 -112t41 -163q0 -107 -52 -202.5t-146 -153t-212 -57.5q-89 0 -161.5 40zM808.5 94q76.5 49 121.5 128.5t45 167.5
q0 79 -34 138t-92 91t-131 32q-92 0 -168.5 -49t-121.5 -128.5t-45 -167.5q0 -79 34 -138t92.5 -91t130.5 -32q92 0 168.5 49z" />
    <glyph glyph-name="uni042F" unicode="&#x42f;" horiz-adv-x="559" 
d="M-35 -11l254 296l-4 13q-60 17 -98.5 64t-38.5 115q0 58 33 108.5t90.5 80.5t127.5 30h232l-123 -696h-65l53 292h-124l-248 -292h-86zM436 351l50 284h-169q-50 0 -89 -21t-61 -56t-22 -75q0 -61 38 -96.5t99 -35.5h154z" />
    <glyph glyph-name="uni0430" unicode="&#x430;" horiz-adv-x="521" 
d="M97 3.5q-35 19.5 -55.5 52.5t-20.5 74q0 80 58 128t161 48q38 0 74.5 -9t74.5 -30l9 42q3 18 3 31q0 50 -38 80t-93 30q-85 0 -135 -65l-50 36q27 36 79 60.5t115 24.5q86 0 134.5 -42t48.5 -112q0 -20 -4 -49l-53 -303h-62l13 72h-19q-28 -42 -69 -65t-93 -23
q-43 0 -78 19.5zM316 87q52 48 65 129q-36 22 -67.5 31.5t-78.5 9.5q-64 0 -105.5 -32t-41.5 -89q0 -45 30.5 -71t74.5 -26q71 0 123 48z" />
    <glyph glyph-name="uni0431" unicode="&#x431;" horiz-adv-x="574" 
d="M141 15q-48 31 -76 90t-28 140q0 110 36 202.5t108 154.5q42 35 97 55.5t116 20.5q38 0 59 4t32 12t16 19h65q-15 -48 -56 -70t-123 -22q-58 0 -95.5 -14.5t-67.5 -40.5q-78 -62 -105 -161h19q32 47 81 74t115 27q59 0 104 -29.5t70 -81t25 -114.5q0 -81 -35.5 -149
t-100.5 -108t-149 -40q-59 0 -107 31zM367.5 74.5q47.5 33.5 74 87.5t26.5 113q0 79 -44 126.5t-109 47.5q-63 0 -111.5 -32t-74.5 -85.5t-26 -113.5q0 -54 22 -94t58 -61.5t77 -21.5q60 0 107.5 33.5z" />
    <glyph glyph-name="uni0432" unicode="&#x432;" horiz-adv-x="475" 
d="M102 490h214q61 0 97 -32.5t36 -81.5q0 -42 -21 -71.5t-58 -44.5l-5 -17q33 -15 49 -37.5t16 -55.5q0 -45 -22.5 -79t-60.5 -52.5t-85 -18.5h-244zM295 275q37 0 62.5 24t25.5 60q0 33 -20.5 53.5t-55.5 20.5h-149l-28 -158h165zM265 57q41 0 69.5 27t28.5 69
q0 31 -20.5 52t-54.5 21h-166l-29 -169h172z" />
    <glyph glyph-name="uni0433" unicode="&#x433;" horiz-adv-x="389" 
d="M96 490h314l-9 -57h-249l-76 -433h-64z" />
    <glyph glyph-name="uni0434" unicode="&#x434;" horiz-adv-x="615" 
d="M-4 57h49q31 27 59 96t41 148l32 189h374l-73 -433h73l-35 -209h-61l26 152h-434l-26 -152h-60zM413 57l64 376h-246l-26 -144q-12 -70 -30.5 -121.5t-57.5 -110.5h296z" />
    <glyph glyph-name="uni0435" unicode="&#x435;" horiz-adv-x="554" 
d="M133.5 14q-48.5 30 -74.5 81t-26 113q0 78 34 146.5t96.5 110t142.5 41.5q62 0 106.5 -27.5t68 -74.5t23.5 -103q0 -41 -6 -62h-396q-3 -30 -3 -42q0 -47 21.5 -83t56.5 -54.5t73 -18.5q60 0 102.5 26t66.5 67l48 -29q-30 -55 -88 -88t-132 -33q-65 0 -113.5 30zM439 289
v24q0 36 -17.5 67t-49 50t-76.5 19q-65 0 -113.5 -41.5t-70.5 -118.5h327z" />
    <glyph glyph-name="uni0436" unicode="&#x436;" horiz-adv-x="696" 
d="M-38 -9l272 272l-168 233l-2 -6h84l158 -226h15l39 226h64l-39 -226h18l234 226h89l3 9l-256 -244l174 -261l1 6h-85l-165 252h-15l-43 -252h-64l43 252h-18l-249 -252h-87z" />
    <glyph glyph-name="uni0437" unicode="&#x437;" horiz-adv-x="463" 
d="M83.5 7.5q-45.5 23.5 -70.5 56.5l53 41q17 -25 53 -44.5t80 -19.5q57 0 96.5 24t39.5 74q0 39 -28 62.5t-81 23.5h-54l8 48h56q55 0 88 24.5t33 63.5q0 38 -28.5 63t-75.5 25q-38 0 -68 -14t-54 -39l-42 38q32 33 75 52.5t97 19.5q47 0 84.5 -19t58 -50t20.5 -69
q0 -39 -24.5 -67.5t-64.5 -41.5v-17q67 -31 67 -107q0 -70 -58.5 -110.5t-152.5 -40.5q-62 0 -107.5 23.5z" />
    <glyph glyph-name="uni0438" unicode="&#x438;" horiz-adv-x="536" 
d="M102 490h65l-47 -275l-23 -108h19l330 383h72l-85 -490h-65l47 275l23 108h-19l-331 -383h-71z" />
    <glyph glyph-name="uni0439" unicode="&#x439;" horiz-adv-x="560" 
d="M102 490h65l-47 -275l-23 -108h19l330 383h72l-85 -490h-65l47 275l23 108h-19l-331 -383h-71zM261 633.5q-29 26.5 -29 67.5q0 6 1 11h47q3 18 3 -2q0 -25 15 -42t41 -17q29 0 49 19t24 42h49q-7 -47 -41.5 -76t-88.5 -29q-41 0 -70 26.5z" />
    <glyph glyph-name="uni043A" unicode="&#x43a;" horiz-adv-x="482" 
d="M105 490h65l-40 -231h18l246 231h91l3 9l-266 -243l189 -262l1 6h-86l-181 257h-15l-45 -257h-63z" />
    <glyph glyph-name="uni043B" unicode="&#x43b;" horiz-adv-x="590" 
d="M5 -4l12 58q6 -3 24 -3q37 0 56.5 38t34.5 128l46 273h393l-83 -490h-65l75 433h-266l-40 -234q-20 -116 -59 -161.5t-91 -45.5q-26 0 -37 4z" />
    <glyph glyph-name="uni043C" unicode="&#x43c;" horiz-adv-x="633" 
d="M91 490h85l116 -343h12l234 343h87l-84 -490h-65l47 269l22 108h-19l-216 -313h-50l-111 313h-17l-14 -104l-47 -273h-64z" />
    <glyph glyph-name="uni043D" unicode="&#x43d;" horiz-adv-x="527" 
d="M96 490h66l-37 -214h288l37 214h65l-84 -490h-66l37 217h-288l-37 -217h-65z" />
    <glyph glyph-name="uni043E" unicode="&#x43e;" horiz-adv-x="585" 
d="M139 14.5q-49 30.5 -76.5 83.5t-27.5 119q0 80 34.5 146t98.5 104.5t146 38.5q64 0 113 -30.5t76 -83.5t27 -119q0 -81 -34.5 -147t-98.5 -104t-146 -38q-63 0 -112 30.5zM366 72q47 31 72 83t25 113q0 78 -43.5 129.5t-115.5 51.5q-58 0 -105 -31t-72 -83t-25 -113
q0 -79 43.5 -130t115.5 -51q58 0 105 31z" />
    <glyph glyph-name="uni043F" unicode="&#x43f;" horiz-adv-x="510" 
d="M96 490h402l-85 -490h-64l75 433h-272l-75 -433h-65z" />
    <glyph glyph-name="uni0440" unicode="&#x440;" horiz-adv-x="589" 
d="M102 490h60l-12 -75h18q31 44 74 67.5t103 23.5q55 0 99 -27t69.5 -77t25.5 -118q0 -82 -36 -151t-100 -109t-143 -40q-52 0 -92 25t-60 67h-17l-9 -80l-37 -212h-65zM373 72q47 31 73.5 85.5t26.5 119.5q0 78 -42.5 125t-108.5 47q-57 0 -104 -32.5t-73.5 -88
t-26.5 -121.5q0 -76 42.5 -121t106.5 -45q59 0 106 31z" />
    <glyph glyph-name="uni0441" unicode="&#x441;" horiz-adv-x="541" 
d="M134 14.5q-47 30.5 -73.5 82t-26.5 112.5q0 82 35.5 150t100 107.5t146.5 39.5q77 0 125 -39t62 -86l-61 -24q-11 38 -47.5 65t-88.5 27q-56 0 -103 -30.5t-74.5 -84t-27.5 -119.5q0 -74 42 -124t110 -50q53 0 95.5 27t63.5 68l50 -25q-32 -61 -86.5 -94t-133.5 -33
q-61 0 -108 30.5z" />
    <glyph glyph-name="uni0442" unicode="&#x442;" horiz-adv-x="465" 
d="M222 433h-163l10 57h389l-10 -57h-162l-75 -433h-64z" />
    <glyph glyph-name="uni0443" unicode="&#x443;" horiz-adv-x="506" 
d="M168 21l-121 469h68l92 -379h14l217 379h70l-422 -706h-66z" />
    <glyph glyph-name="uni0444" unicode="&#x444;" horiz-adv-x="722" 
d="M284 -14q-84 7 -138 38.5t-83.5 82t-29.5 110.5q0 87 44 150.5t119.5 98.5t176.5 39l33 191h65l-34 -191q82 -8 136 -39.5t83.5 -83.5t29.5 -117q0 -84 -44.5 -146.5t-120.5 -96.5t-173 -37l-34 -201h-65zM549.5 105q73.5 55 73.5 152q0 79 -51 130t-145 60l-69 -403
q118 6 191.5 61zM363 446q-81 -5 -139.5 -32t-93 -76t-34.5 -114q0 -76 53.5 -124t144.5 -56z" />
    <glyph glyph-name="uni0445" unicode="&#x445;" horiz-adv-x="474" 
d="M176 250l-122 240h74l92 -188h10l153 188h75l-206 -243l128 -247h-73l-96 196h-10l-159 -196h-74z" />
    <glyph glyph-name="uni0446" unicode="&#x446;" horiz-adv-x="568" 
d="M434 0h-415l84 490h64l-74 -433h272l74 433h65l-74 -433h74l-35 -209h-62z" />
    <glyph glyph-name="uni0447" unicode="&#x447;" horiz-adv-x="488" 
d="M355 205q-69 -47 -152 -47q-68 0 -109.5 40.5t-41.5 106.5q0 22 6 53l23 132h66l-24 -143q-4 -22 -4 -36q0 -46 29.5 -71t77.5 -25q90 0 140 51l38 224h66l-85 -490h-65z" />
    <glyph glyph-name="uni0448" unicode="&#x448;" horiz-adv-x="748" 
d="M103 490h64l-74 -433h207l75 433h64l-74 -433h207l75 433h64l-84 -490h-609z" />
    <glyph glyph-name="uni0449" unicode="&#x449;" horiz-adv-x="797" 
d="M640 0h-621l84 490h64l-74 -433h208l74 433h64l-74 -433h208l74 433h64l-74 -433h74l-35 -209h-61z" />
    <glyph glyph-name="uni044A" unicode="&#x44a;" horiz-adv-x="560" 
d="M176 433h-116l10 57h181l-31 -179h146q70 0 112 -38t42 -103q0 -76 -50.5 -123t-141.5 -47h-226zM340 57q49 0 80.5 28.5t31.5 79.5q0 39 -26.5 64t-67.5 25h-148l-34 -197h164z" />
    <glyph glyph-name="uni044B" unicode="&#x44b;" horiz-adv-x="670" 
d="M103 490h64l-30 -179h146q70 0 112 -38t42 -103q0 -76 -50 -123t-142 -47h-227zM588 490h65l-85 -490h-64zM256 57q50 0 81.5 28.5t31.5 79.5q0 39 -26.5 64t-66.5 25h-149l-34 -197h163z" />
    <glyph glyph-name="uni044C" unicode="&#x44c;" horiz-adv-x="477" 
d="M103 490h65l-31 -179h147q69 0 111.5 -38t42.5 -103q0 -76 -50.5 -123t-141.5 -47h-228zM256 57q50 0 81.5 28.5t31.5 79.5q0 39 -26.5 64t-66.5 25h-148l-35 -197h163z" />
    <glyph glyph-name="uni044D" unicode="&#x44d;" horiz-adv-x="515" 
d="M76 23q-50 39 -63 86l57 23q16 -39 51 -65t92 -26q72 0 126.5 48.5t75.5 130.5h-219l8 49h215v12q-2 54 -23.5 92t-55 57t-71.5 19q-55 0 -96 -27t-63 -67l-53 27q26 52 82.5 88t133.5 36q60 0 107 -27.5t74 -79.5t27 -123q0 -78 -35.5 -145.5t-99 -107t-141.5 -39.5
q-79 0 -129 39z" />
    <glyph glyph-name="uni044E" unicode="&#x44e;" horiz-adv-x="761" 
d="M333 12.5q-49 28.5 -77 78.5t-31 112v12h-104l-37 -215h-65l85 490h64l-38 -216h99q14 72 52 123t96 80t130 29q63 0 113 -30.5t78 -83.5t28 -119q0 -80 -35 -146.5t-99.5 -104.5t-148.5 -38q-61 0 -110 28.5zM560 72q47 31 73.5 83t26.5 113q0 50 -20.5 91.5t-57.5 65.5
t-84 24q-59 0 -106.5 -31t-74 -83.5t-26.5 -112.5q0 -51 20.5 -92.5t57.5 -65t84 -23.5q60 0 107 31z" />
    <glyph glyph-name="uni044F" unicode="&#x44f;" horiz-adv-x="458" 
d="M-42 -8l170 185l-9 12q-39 14 -65 48t-26 84q0 43 22.5 82t65 63t98.5 24h226l-85 -490h-64l32 184h-116l-164 -184h-84zM332 237l33 196h-154q-51 0 -82.5 -32t-31.5 -76q0 -41 26 -64.5t65 -23.5h144z" />
    <glyph glyph-name="uni0450" unicode="&#x450;" horiz-adv-x="554" 
d="M133.5 14q-48.5 30 -74.5 81t-26 113q0 78 34 146.5t96.5 110t142.5 41.5q62 0 106.5 -27.5t68 -74.5t23.5 -103q0 -41 -6 -62h-396q-3 -30 -3 -42q0 -47 21.5 -83t56.5 -54.5t73 -18.5q60 0 102.5 26t66.5 67l48 -29q-30 -55 -88 -88t-132 -33q-65 0 -113.5 30zM439 289
v24q0 36 -17.5 67t-49 50t-76.5 19q-65 0 -113.5 -41.5t-70.5 -118.5h327zM250 716h69l23 -107h-52z" />
    <glyph glyph-name="uni0451" unicode="&#x451;" horiz-adv-x="554" 
d="M133.5 14q-48.5 30 -74.5 81t-26 113q0 78 34 146.5t96.5 110t142.5 41.5q62 0 106.5 -27.5t68 -74.5t23.5 -103q0 -41 -6 -62h-396q-3 -30 -3 -42q0 -47 21.5 -83t56.5 -54.5t73 -18.5q60 0 102.5 26t66.5 67l48 -29q-30 -55 -88 -88t-132 -33q-65 0 -113.5 30zM439 289
v24q0 36 -17.5 67t-49 50t-76.5 19q-65 0 -113.5 -41.5t-70.5 -118.5h327zM221.5 638q-12.5 13 -12.5 31q0 19 12 31t30 12q21 0 32.5 -12t11.5 -31q0 -18 -12 -31t-32 -13q-17 0 -29.5 13zM381 638q-13 13 -13 31q0 19 13 31t31 12q20 0 31.5 -12t11.5 -31q0 -18 -11.5 -31
t-31.5 -13q-18 0 -31 13z" />
    <glyph glyph-name="uni0452" unicode="&#x452;" horiz-adv-x="529" 
d="M221 -221l24 55q4 -3 26 -3q63 0 77 76l67 388q6 28 6 51q0 47 -31.5 75t-81.5 28q-65 0 -114 -50.5t-64 -129.5l-47 -269h-64l100 583h-63l9 47h61l12 66h65l-11 -66h144l-8 -47h-144l-16 -86l-18 -82h19q29 43 71.5 67t95.5 24q73 0 112 -38.5t39 -102.5q0 -31 -7 -66
l-67 -390q-23 -135 -150 -135q-31 0 -42 5z" />
    <glyph glyph-name="uni0453" unicode="&#x453;" horiz-adv-x="413" 
d="M96 490h314l-9 -57h-249l-76 -433h-64zM307 716h69l-76 -107h-55z" />
    <glyph glyph-name="uni0454" unicode="&#x454;" horiz-adv-x="511" 
d="M133.5 14.5q-47.5 30.5 -73.5 82t-26 114.5q0 81 35 148t98.5 107t145.5 40q76 0 123.5 -39t58.5 -86l-59 -23q-11 37 -45.5 64t-87.5 27q-71 0 -124.5 -46t-75.5 -134h225l-7 -49h-222v-13q3 -72 45.5 -119t106.5 -47q106 0 153 95l50 -25q-31 -61 -83.5 -94t-129.5 -33
q-60 0 -107.5 30.5z" />
    <glyph glyph-name="uni0455" unicode="&#x455;" horiz-adv-x="460" 
d="M68 21q-49 37 -63 87l63 24q8 -38 46.5 -65.5t86.5 -27.5q50 0 84 25.5t34 65.5q0 35 -23 58t-68 35l-49 13q-58 15 -90 46.5t-32 79.5q0 40 23.5 73t66 52t96.5 19q64 0 112 -30.5t61 -69.5l-63 -24q-10 26 -41 47t-74 21q-49 0 -81 -22.5t-32 -59.5q0 -26 21 -47.5
t59 -31.5l64 -17q56 -14 87 -48.5t31 -83.5q0 -70 -51 -113t-143 -43q-76 0 -125 37z" />
    <glyph glyph-name="uni0456" unicode="&#x456;" horiz-adv-x="223" 
d="M135 619q-15 15 -15 36q0 22 15 36.5t36 14.5q22 0 36.5 -14.5t14.5 -36.5q0 -21 -14.5 -36t-36.5 -15q-21 0 -36 15zM108 490h66l-84 -490h-64z" />
    <glyph glyph-name="uni0457" unicode="&#x457;" horiz-adv-x="223" 
d="M74.5 638q-13.5 13 -13.5 31q0 19 13 31t31 12q19 0 31.5 -12t12.5 -31q0 -18 -12.5 -31t-31.5 -13q-17 0 -30.5 13zM204 638q-13 13 -13 31q0 19 13 31t31 12q19 0 31.5 -12t12.5 -31q0 -18 -12.5 -31t-31.5 -13q-18 0 -31 13zM110 490h65l-83 -490h-66z" />
    <glyph glyph-name="uni0458" unicode="&#x458;" horiz-adv-x="220" 
d="M133 619q-15 15 -15 36q0 22 15 36.5t36 14.5q22 0 36.5 -14.5t14.5 -36.5q0 -21 -14.5 -36t-36.5 -15q-21 0 -36 15zM-114 -221l10 56q-4 3 10.5 -0.5t24.5 -3.5q63 0 77 79l100 580h65l-100 -580q-13 -76 -50.5 -106t-97.5 -30q-21 0 -39 5z" />
    <glyph glyph-name="uni0459" unicode="&#x459;" horiz-adv-x="879" 
d="M6 -4l11 58q7 -3 24 -3q37 0 56.5 34.5t30.5 106.5l50 298h394l-33 -189h150q69 0 109 -37.5t40 -98.5q0 -76 -50 -120.5t-135 -44.5h-229l74 433h-265l-42 -239q-34 -202 -147 -202q-28 0 -38 4zM665 57q46 0 75.5 27.5t29.5 72.5q0 38 -24.5 62.5t-63.5 24.5h-153
l-32 -187h168z" />
    <glyph glyph-name="uni045A" unicode="&#x45a;" horiz-adv-x="793" 
d="M103 490h65l-33 -189h253l33 189h64l-33 -189h147q70 0 111 -38t41 -103q0 -47 -23.5 -83t-66 -56.5t-96.5 -20.5h-229l42 244h-252l-42 -244h-66zM577 57q46 0 75.5 27.5t29.5 73.5q0 37 -25 61.5t-64 24.5h-150l-32 -187h166z" />
    <glyph glyph-name="uni045B" unicode="&#x45b;" horiz-adv-x="529" 
d="M119 583h-63l9 47h61l12 66h65l-11 -66h144l-8 -47h-144l-16 -86l-18 -82h19q29 43 71.5 67t95.5 24q73 0 112 -38.5t39 -102.5q0 -31 -7 -66l-51 -299h-65l51 295q6 37 6 51q0 47 -31.5 75t-81.5 28q-65 0 -114 -50.5t-64 -129.5l-47 -269h-64z" />
    <glyph glyph-name="uni045C" unicode="&#x45c;" horiz-adv-x="482" 
d="M105 490h65l-40 -231h18l246 231h91l3 9l-266 -243l189 -262l1 6h-86l-181 257h-15l-45 -257h-63zM313 716h69l-76 -107h-55z" />
    <glyph glyph-name="uni045D" unicode="&#x45d;" horiz-adv-x="560" 
d="M102 490h65l-47 -275l-23 -108h19l330 383h72l-85 -490h-65l47 275l23 108h-19l-331 -383h-71zM259 716h69l24 -107h-53z" />
    <glyph glyph-name="uni045E" unicode="&#x45e;" horiz-adv-x="506" 
d="M168 21l-121 469h68l92 -379h14l217 379h70l-422 -706h-66zM226 633.5q-29 26.5 -29 67.5q0 6 1 11h46q3 18 3 -2q0 -25 15 -42t42 -17q29 0 49 19t24 42h49q-7 -47 -42 -76t-88 -29q-41 0 -70 26.5z" />
    <glyph glyph-name="uni045F" unicode="&#x45f;" horiz-adv-x="542" 
d="M199 0h-180l83 490h66l-74 -433h291l74 433h65l-83 -490h-181l-26 -152h-61z" />
    <glyph glyph-name="uni0490" unicode="&#x490;" horiz-adv-x="488" 
d="M156 696h329l19 110h61l-29 -171h-326l-112 -635h-63z" />
    <glyph glyph-name="uni0491" unicode="&#x491;" horiz-adv-x="385" 
d="M96 490h249l16 96h62l-27 -153h-244l-74 -433h-65z" />
    <glyph glyph-name="uni04AE" unicode="&#x4ae;" horiz-adv-x="595" 
d="M265 322l-169 374h75l130 -300h16l233 300h76l-295 -371l-58 -325h-64z" />
    <glyph glyph-name="uni04AF" unicode="&#x4af;" horiz-adv-x="475" 
d="M163 -10l-111 500h66l89 -433l238 433h68l-285 -496l-35 -210h-65z" />
    <glyph glyph-name="uni04B0" unicode="&#x4b0;" horiz-adv-x="562" 
d="M261 279h-178l8 46h175l-167 371h75l129 -300h16l234 300h76l-295 -371h177l-8 -46h-178l-49 -279h-64z" />
    <glyph glyph-name="uni04B1" unicode="&#x4b1;" horiz-adv-x="475" 
d="M165 0h-144l9 45h123l-11 45l-90 400h67l89 -433l237 433h68l-227 -397l-30 -48h125l-8 -45h-143l-37 -216h-65z" />
    <glyph glyph-name="uni0E3F" unicode="&#xe3f;" horiz-adv-x="557" 
d="M201 0h-180l117 664h179l18 100h50l-18 -100h15q70 -1 115.5 -43t45.5 -110q0 -56 -32 -97t-90 -61l-5 -16q45 -21 69.5 -54.5t24.5 -79.5q0 -56 -30 -102.5t-83.5 -73.5t-122.5 -27h-23l-17 -100h-50zM265 369l42 234h-115l-42 -234h115zM330 369q62 0 104 34.5t42 91.5
q0 50 -27.5 79t-79.5 29h-12l-41 -234h14zM211 61l44 249h-115l-44 -249h115zM293 61q64 0 106.5 38.5t42.5 99.5q0 47 -30 79t-83 32h-23l-44 -249h31z" />
    <glyph glyph-name="Wgrave" unicode="&#x1e80;" horiz-adv-x="944" 
d="M99 696h71l37 -517l5 -58h19l26 55l249 520h73l60 -517l7 -58h20l22 55l221 520h73l-308 -696h-72l-64 509l-8 65h-19l-29 -62l-245 -512h-74zM474 880h69l24 -107h-52z" />
    <glyph glyph-name="wgrave" unicode="&#x1e81;" horiz-adv-x="762" 
d="M52 490h66l46 -403h14l195 403h75l58 -402h13l186 402h67l-238 -490h-74l-60 427l-207 -427h-72zM355 716h70l23 -107h-53z" />
    <glyph glyph-name="Wacute" unicode="&#x1e82;" horiz-adv-x="944" 
d="M99 696h71l37 -517l5 -58h19l26 55l249 520h73l60 -517l7 -58h20l22 55l221 520h73l-308 -696h-72l-64 509l-8 65h-19l-29 -62l-245 -512h-74zM587 880h69l-78 -107h-54z" />
    <glyph glyph-name="wacute" unicode="&#x1e83;" horiz-adv-x="762" 
d="M52 490h66l46 -403h14l195 403h75l58 -402h13l186 402h67l-238 -490h-74l-60 427l-207 -427h-72zM459 716h69l-76 -107h-55z" />
    <glyph glyph-name="Wdieresis" unicode="&#x1e84;" horiz-adv-x="944" 
d="M99 696h71l37 -517l5 -58h19l26 55l249 520h73l60 -517l7 -58h20l22 55l221 520h73l-308 -696h-72l-64 509l-8 65h-19l-29 -62l-245 -512h-74zM451.5 802.5q-13.5 13.5 -13.5 30.5q0 19 13 31.5t31 12.5q19 0 31.5 -12.5t12.5 -31.5q0 -18 -12.5 -31t-31.5 -13
q-17 0 -30.5 13.5zM616 802.5q-13 13.5 -13 30.5q0 19 13 31.5t30 12.5q19 0 31.5 -12.5t12.5 -31.5q0 -18 -12.5 -31t-31.5 -13q-17 0 -30 13.5z" />
    <glyph glyph-name="wdieresis" unicode="&#x1e85;" horiz-adv-x="762" 
d="M52 490h66l46 -403h14l195 403h75l58 -402h13l186 402h67l-238 -490h-74l-60 427l-207 -427h-72zM327 638q-13 13 -13 31q0 19 12.5 31t30.5 12q21 0 32.5 -12t11.5 -31q0 -18 -12 -31t-32 -13q-17 0 -30 13zM487 638q-13 13 -13 31q0 19 13 31t31 12q20 0 31.5 -12
t11.5 -31q0 -18 -11.5 -31t-31.5 -13q-18 0 -31 13z" />
    <glyph glyph-name="uni1EA0" unicode="&#x1ea0;" horiz-adv-x="669" 
d="M356 696h82l141 -696h-70l-36 197h-323l-108 -197h-72zM461 257l-52 270l-16 85h-18l-194 -355h280zM228 -179q-13 13 -13 31q0 19 13 31t31 12q19 0 31 -12t12 -31q0 -18 -12 -31t-31 -13q-18 0 -31 13z" />
    <glyph glyph-name="uni1EA1" unicode="&#x1ea1;" horiz-adv-x="521" 
d="M97 3.5q-35 19.5 -55.5 52.5t-20.5 74q0 80 58 128t161 48q38 0 74.5 -9t74.5 -30l9 42q3 18 3 31q0 50 -38 80t-93 30q-85 0 -135 -65l-50 36q27 36 79 60.5t115 24.5q86 0 134.5 -42t48.5 -112q0 -20 -4 -49l-53 -303h-62l13 72h-19q-28 -42 -69 -65t-93 -23
q-43 0 -78 19.5zM316 87q52 48 65 129q-36 22 -67.5 31.5t-78.5 9.5q-64 0 -105.5 -32t-41.5 -89q0 -45 30.5 -71t74.5 -26q71 0 123 48zM149.5 -179q-12.5 13 -12.5 31q0 19 12.5 31t31.5 12t30.5 -12t11.5 -31q0 -18 -11.5 -31t-30.5 -13t-31.5 13z" />
    <glyph glyph-name="uni1EA2" unicode="&#x1ea2;" horiz-adv-x="669" 
d="M356 696h82l141 -696h-70l-36 197h-323l-108 -197h-72zM461 257l-52 270l-16 85h-18l-194 -355h280zM387 796q24 6 46 23.5t22 43.5q0 22 -13.5 33.5t-35.5 11.5q-29 0 -51 -9l-11 34q10 4 32.5 8.5t40.5 4.5q43 0 64.5 -18.5t21.5 -53.5q0 -46 -33.5 -75.5t-78.5 -36.5z
" />
    <glyph glyph-name="uni1EA3" unicode="&#x1ea3;" horiz-adv-x="521" 
d="M97 3.5q-35 19.5 -55.5 52.5t-20.5 74q0 80 58 128t161 48q38 0 74.5 -9t74.5 -30l9 42q3 18 3 31q0 50 -38 80t-93 30q-85 0 -135 -65l-50 36q27 36 79 60.5t115 24.5q86 0 134.5 -42t48.5 -112q0 -20 -4 -49l-53 -303h-62l13 72h-19q-28 -42 -69 -65t-93 -23
q-43 0 -78 19.5zM316 87q52 48 65 129q-36 22 -67.5 31.5t-78.5 9.5q-64 0 -105.5 -32t-41.5 -89q0 -45 30.5 -71t74.5 -26q71 0 123 48zM269 609q24 4 45 21.5t21 45.5q0 19 -12.5 29.5t-35.5 10.5q-28 0 -49 -9l-4 35q29 12 64 12q39 0 62 -19t23 -54q0 -46 -30.5 -73
t-80.5 -33z" />
    <glyph glyph-name="uni1EA4" unicode="&#x1ea4;" horiz-adv-x="669" 
d="M356 696h82l141 -696h-70l-36 197h-323l-108 -197h-72zM461 257l-52 270l-16 85h-18l-194 -355h280zM582 980h71l-75 -102h-48zM280 748l117 111h66l77 -108l2 7h-64l-47 57h-17l-60 -57h-72z" />
    <glyph glyph-name="uni1EA5" unicode="&#x1ea5;" horiz-adv-x="519" 
d="M97 3.5q-35 19.5 -55.5 52.5t-20.5 74q0 80 58 128t161 48q38 0 74.5 -9t74.5 -30l9 42q3 18 3 31q0 50 -38 80t-93 30q-85 0 -135 -65l-50 36q27 36 79 60.5t115 24.5q86 0 134.5 -42t48.5 -112q0 -20 -5 -49l-52 -303h-62l13 72h-19q-28 -42 -69 -65t-93 -23
q-43 0 -78 19.5zM316 87q52 48 65 129q-36 22 -67.5 31.5t-78.5 9.5q-64 0 -105.5 -32t-41.5 -89q0 -45 30.5 -71t74.5 -26q71 0 123 48zM470 836h68l-71 -102h-50zM174 606l112 110h66l74 -107l1 5h-64l-44 58h-15l-60 -58h-68z" />
    <glyph glyph-name="uni1EA6" unicode="&#x1ea6;" horiz-adv-x="669" 
d="M356 696h82l141 -696h-70l-36 197h-323l-108 -197h-72zM461 257l-52 270l-16 85h-18l-194 -355h280zM501 980h70l20 -102h-47zM280 748l117 111h66l77 -108l2 7h-64l-47 57h-17l-60 -57h-72z" />
    <glyph glyph-name="uni1EA7" unicode="&#x1ea7;" horiz-adv-x="521" 
d="M97 3.5q-35 19.5 -55.5 52.5t-20.5 74q0 80 58 128t161 48q38 0 74.5 -9t75.5 -30l8 42q3 18 3 31q0 50 -38 80t-93 30q-85 0 -135 -65l-50 36q27 36 79 60.5t115 24.5q87 0 135.5 -42t48.5 -112q0 -20 -5 -49l-53 -303h-61l12 72h-18q-29 -42 -70 -65t-93 -23
q-43 0 -78 19.5zM316 87q52 48 66 129q-37 22 -68.5 31.5t-78.5 9.5q-63 0 -105 -32t-42 -89q0 -45 30.5 -71t74.5 -26q71 0 123 48zM387 836h70l19 -102h-50zM173 606l112 110h66l74 -107l1 5h-64l-44 58h-15l-60 -58h-68z" />
    <glyph glyph-name="uni1EA8" unicode="&#x1ea8;" horiz-adv-x="669" 
d="M356 696h82l141 -696h-70l-36 197h-323l-108 -197h-72zM461 257l-52 270l-16 85h-18l-194 -355h280zM545 852q31 15 31 50q0 18 -11.5 29t-31.5 11q-19 0 -22 -1l7 36q16 3 33 3q37 0 55.5 -17t18.5 -50q0 -60 -63 -87zM281 748l117 111h66l77 -108l2 7h-64l-47 57h-17
l-60 -57h-72z" />
    <glyph glyph-name="uni1EA9" unicode="&#x1ea9;" horiz-adv-x="521" 
d="M97.5 3.5q-35.5 19.5 -56 52.5t-20.5 74q0 80 58.5 128t161.5 48q38 0 74.5 -9t74.5 -30l9 42q3 18 3 31q0 50 -38 80t-93 30q-85 0 -135 -65l-50 36q27 36 79 60.5t115 24.5q86 0 134.5 -42t48.5 -112q0 -20 -5 -49l-52 -303h-62l13 72h-19q-28 -42 -69 -65t-94 -23
q-42 0 -77.5 19.5zM316 87q52 48 66 129q-37 22 -68.5 31.5t-77.5 9.5q-64 0 -105.5 -32t-41.5 -89q0 -45 30.5 -71t74.5 -26q70 0 122 48zM434 695q36 28 36 66q0 37 -41 37q-18 0 -23 -1l7 36q17 3 33 3q36 0 55 -16.5t19 -42.5q0 -37 -17.5 -61t-52.5 -44zM175 606
l112 110h66l74 -107l1 5h-64l-44 58h-15l-61 -58h-68z" />
    <glyph glyph-name="uni1EAA" unicode="&#x1eaa;" horiz-adv-x="669" 
d="M356 696h82l141 -696h-70l-36 197h-323l-108 -197h-72zM461 257l-52 270l-16 85h-18l-194 -355h280zM333 960q23 20 58 20q16 0 29 -4.5t32 -13.5q10 -5 21.5 -9.5t22.5 -4.5q34 0 45 32h42q-4 -28 -27 -48t-58 -20q-17 0 -30.5 4.5t-31.5 13.5q-26 14 -43 14
q-34 0 -45 -32h-42q4 28 27 48zM280 748l117 111h66l77 -108l2 7h-64l-47 57h-17l-60 -57h-72z" />
    <glyph glyph-name="uni1EAB" unicode="&#x1eab;" horiz-adv-x="521" 
d="M97 3.5q-35 19.5 -55.5 52.5t-20.5 74q0 80 58 128t161 48q38 0 74.5 -9t74.5 -30l9 42q3 18 3 31q0 50 -38 80t-93 30q-85 0 -135 -65l-50 36q27 36 79 60.5t115 24.5q87 0 135 -42t48 -112q0 -20 -4 -49l-53 -303h-62l13 72h-19q-28 -42 -69 -65t-93 -23
q-43 0 -78 19.5zM316 87q52 48 66 129q-37 22 -68.5 31.5t-78.5 9.5q-63 0 -105 -32t-42 -89q0 -45 30.5 -71t74.5 -26q71 0 123 48zM287 836q16 0 28.5 -4.5t26.5 -13.5q23 -14 40 -14q39 0 45 32h42q-12 -68 -90 -68q-17 0 -30 4.5t-27 13.5q-23 14 -39 14q-37 0 -45 -32
h-42q11 68 91 68zM170 606l112 110h66l74 -107l1 5h-64l-44 58h-15l-60 -58h-68z" />
    <glyph glyph-name="uni1EAC" unicode="&#x1eac;" horiz-adv-x="669" 
d="M356 696h82l141 -696h-70l-36 197h-323l-108 -197h-72zM461 257l-52 270l-16 85h-18l-194 -355h280zM228 -179q-13 13 -13 31q0 19 13 31t31 12q19 0 31 -12t12 -31q0 -18 -12 -31t-31 -13q-18 0 -31 13zM279 769l118 111h66l75 -108l2 7h-63l-44 63h-17l-63 -63h-72z
" />
    <glyph glyph-name="uni1EAD" unicode="&#x1ead;" horiz-adv-x="521" 
d="M97 3.5q-35 19.5 -55.5 52.5t-20.5 74q0 80 58 128t161 48q38 0 74.5 -9t74.5 -30l9 42q3 18 3 31q0 50 -38 80t-93 30q-85 0 -135 -65l-50 36q27 36 79 60.5t115 24.5q86 0 134.5 -42t48.5 -112q0 -20 -4 -49l-53 -303h-62l13 72h-19q-28 -42 -69 -65t-93 -23
q-43 0 -78 19.5zM316 87q52 48 65 129q-36 22 -67.5 31.5t-78.5 9.5q-64 0 -105.5 -32t-41.5 -89q0 -45 30.5 -71t74.5 -26q71 0 123 48zM149.5 -179q-12.5 13 -12.5 31q0 19 12.5 31t31.5 12t30.5 -12t11.5 -31q0 -18 -11.5 -31t-30.5 -13t-31.5 13zM169 606l113 110h65
l73 -107l1 5h-62l-42 64h-16l-60 -64h-70z" />
    <glyph glyph-name="uni1EAE" unicode="&#x1eae;" horiz-adv-x="669" 
d="M356 696h82l141 -696h-70l-36 197h-323l-108 -197h-72zM461 257l-52 270l-16 85h-18l-194 -355h280zM466 980h68l-68 -74h-42zM358 771q-25 13 -40 35t-15 49q0 10 -1 7h43q3 9 3 0q0 -26 20 -45t53 -19q36 0 63.5 22t31.5 42h44q-8 -42 -46.5 -73t-102.5 -31
q-28 0 -53 13z" />
    <glyph glyph-name="uni1EAF" unicode="&#x1eaf;" horiz-adv-x="521" 
d="M97 3.5q-35 19.5 -55.5 52.5t-20.5 74q0 80 58 128t161 48q38 0 74.5 -9t74.5 -30l9 42q3 18 3 31q0 50 -38 80t-93 30q-85 0 -135 -65l-50 36q27 36 79 60.5t115 24.5q86 0 134.5 -42t48.5 -112q0 -20 -4 -49l-53 -303h-62l13 72h-19q-28 -42 -69 -65t-93 -23
q-43 0 -78 19.5zM316 87q52 48 65 129q-36 22 -67.5 31.5t-78.5 9.5q-64 0 -105.5 -32t-41.5 -89q0 -45 30.5 -71t74.5 -26q71 0 123 48zM354 836h71l-68 -83h-53zM227 615.5q-29 26.5 -29 67.5q0 6 1 11h45q4 14 4 -1q0 -26 16.5 -43t43.5 -17q33 0 54 20t25 41h49
q-18 -105 -136 -105q-44 0 -73 26.5z" />
    <glyph glyph-name="uni1EB0" unicode="&#x1eb0;" horiz-adv-x="669" 
d="M356 696h82l141 -696h-70l-36 197h-323l-108 -197h-72zM461 257l-52 270l-16 85h-18l-194 -355h280zM370 980h67l20 -74h-40zM358 771q-25 13 -40 35t-15 49q0 10 -1 7h43q3 9 3 0q0 -26 20 -45t53 -19q36 0 63.5 22t31.5 42h44q-8 -42 -46.5 -73t-102.5 -31
q-28 0 -53 13z" />
    <glyph glyph-name="uni1EB1" unicode="&#x1eb1;" horiz-adv-x="521" 
d="M97 3.5q-35 19.5 -55.5 52.5t-20.5 74q0 80 58 128t161 48q38 0 74.5 -9t74.5 -30l9 42q3 18 3 31q0 50 -38 80t-93 30q-85 0 -135 -65l-50 36q27 36 79 60.5t115 24.5q86 0 134.5 -42t48.5 -112q0 -20 -4 -49l-53 -303h-62l13 72h-19q-28 -42 -69 -65t-93 -23
q-43 0 -78 19.5zM316 87q52 48 65 129q-36 22 -67.5 31.5t-78.5 9.5q-64 0 -105.5 -32t-41.5 -89q0 -45 30.5 -71t74.5 -26q71 0 123 48zM252 836h67l26 -83h-52zM223 615.5q-29 26.5 -29 67.5q0 6 1 11h45q4 14 4 -1q0 -26 16.5 -43t43.5 -17q33 0 54 20t25 41h49
q-17 -105 -135 -105q-45 0 -74 26.5z" />
    <glyph glyph-name="uni1EB2" unicode="&#x1eb2;" horiz-adv-x="669" 
d="M356 696h82l141 -696h-70l-36 197h-323l-108 -197h-72zM461 257l-52 270l-16 85h-18l-194 -355h280zM419 863q24 15 24 44q0 16 -12.5 25.5t-30.5 9.5q-21 0 -26 -3l6 35q18 6 41 6q36 0 52 -16.5t16 -45.5t-16.5 -49t-36.5 -26zM358 771q-25 13 -40 35t-15 49q0 10 -1 7
h43q3 9 3 0q0 -26 20 -45t53 -19q36 0 63.5 22t31.5 42h44q-8 -42 -46.5 -73t-102.5 -31q-28 0 -53 13z" />
    <glyph glyph-name="uni1EB3" unicode="&#x1eb3;" horiz-adv-x="521" 
d="M97 3.5q-35 19.5 -55.5 52.5t-20.5 74q0 80 58 128t161 48q38 0 74.5 -9t74.5 -30l9 42q3 18 3 31q0 50 -38 80t-93 30q-85 0 -135 -65l-50 36q27 36 79 60.5t115 24.5q86 0 134.5 -42t48.5 -112q0 -20 -4 -49l-53 -303h-62l13 72h-19q-28 -42 -69 -65t-93 -23
q-43 0 -78 19.5zM316 87q52 48 65 129q-36 22 -67.5 31.5t-78.5 9.5q-64 0 -105.5 -32t-41.5 -89q0 -45 30.5 -71t74.5 -26q71 0 123 48zM306 720q4 4 13 17.5t9 26.5q0 15 -10.5 24.5t-27.5 9.5q-21 0 -29 -5l-7 33q5 2 21 6t29 4q35 0 53.5 -16.5t18.5 -42.5
q0 -30 -15.5 -50.5t-38.5 -27.5zM218.5 626q-31.5 27 -31.5 67q0 5 1 10h44l2 3q0 -27 20 -47t51 -20q39 0 63.5 22t28.5 42h44q-8 -43 -45 -73.5t-101 -30.5q-45 0 -76.5 27z" />
    <glyph glyph-name="uni1EB4" unicode="&#x1eb4;" horiz-adv-x="669" 
d="M356 696h82l141 -696h-70l-36 197h-323l-108 -197h-72zM461 257l-52 270l-16 85h-18l-194 -355h280zM335 960q24 20 59 20q16 0 29.5 -4.5t29.5 -13.5q26 -14 44 -14q34 0 45 32h42q-4 -28 -28 -48t-59 -20q-17 0 -30.5 4.5t-29.5 13.5q-26 14 -43 14q-34 0 -45 -32h-42
q4 28 28 48zM358 771q-25 13 -40 35t-15 49q0 10 -1 7h43q3 9 3 0q0 -26 20 -45t53 -19q36 0 63.5 22t31.5 42h44q-8 -42 -46.5 -73t-102.5 -31q-28 0 -53 13z" />
    <glyph glyph-name="uni1EB5" unicode="&#x1eb5;" horiz-adv-x="521" 
d="M97 3.5q-35 19.5 -55.5 52.5t-20.5 74q0 80 58 128t161 48q38 0 74.5 -9t74.5 -30l9 42q3 18 3 31q0 50 -38 80t-93 30q-85 0 -135 -65l-50 36q27 36 79 60.5t115 24.5q87 0 135 -42t48 -112q0 -20 -4 -49l-53 -303h-62l13 72h-19q-28 -42 -69 -65t-93 -23
q-43 0 -78 19.5zM316 87q52 48 65 129q-36 22 -67.5 31.5t-78.5 9.5q-64 0 -105.5 -32t-41.5 -89q0 -45 30.5 -71t74.5 -26q71 0 123 48zM218 812.5q22 23.5 61 23.5q16 0 29.5 -4.5t28.5 -13.5q25 -14 43 -14q31 0 43 32h43q-5 -36 -26 -57t-61 -21q-17 0 -30.5 4.5
t-29.5 13.5q-25 14 -41 14q-31 0 -44 -32h-43q5 31 27 54.5zM223.5 617.5q-31.5 28.5 -31.5 68.5v8h46q4 14 4 -1q0 -26 16.5 -43t43.5 -17q33 0 54 20t25 41h49q-7 -42 -41 -73.5t-92 -31.5q-42 0 -73.5 28.5z" />
    <glyph glyph-name="uni1EB6" unicode="&#x1eb6;" horiz-adv-x="669" 
d="M356 696h82l141 -696h-70l-36 197h-323l-108 -197h-72zM461 257l-52 270l-16 85h-18l-194 -355h280zM228 -179q-13 13 -13 31q0 19 13 31t31 12q19 0 31 -12t12 -31q0 -18 -12 -31t-31 -13q-18 0 -31 13zM343.5 798.5q-29.5 26.5 -29.5 66.5q0 6 1 11h48q1 6 1 -2
q0 -25 15.5 -41.5t43.5 -16.5q30 0 51 18.5t25 41.5h48q-6 -46 -42 -75t-90 -29q-42 0 -71.5 26.5z" />
    <glyph glyph-name="uni1EB7" unicode="&#x1eb7;" horiz-adv-x="521" 
d="M97 3.5q-35 19.5 -55.5 52.5t-20.5 74q0 80 58 128t161 48q38 0 74.5 -9t74.5 -30l9 42q3 18 3 31q0 50 -38 80t-93 30q-85 0 -135 -65l-50 36q27 36 79 60.5t115 24.5q86 0 134.5 -42t48.5 -112q0 -20 -4 -49l-53 -303h-62l13 72h-19q-28 -42 -69 -65t-93 -23
q-43 0 -78 19.5zM316 87q52 48 65 129q-36 22 -67.5 31.5t-78.5 9.5q-64 0 -105.5 -32t-41.5 -89q0 -45 30.5 -71t74.5 -26q71 0 123 48zM149.5 -179q-12.5 13 -12.5 31q0 19 12.5 31t31.5 12t30.5 -12t11.5 -31q0 -18 -11.5 -31t-30.5 -13t-31.5 13zM228 633.5
q-29 26.5 -29 67.5q0 6 1 11h47q3 18 3 -2q0 -25 15 -42t41 -17q29 0 49 19t24 42h49q-7 -47 -41.5 -76t-87.5 -29q-42 0 -71 26.5z" />
    <glyph glyph-name="uni1EB8" unicode="&#x1eb8;" horiz-adv-x="550" 
d="M157 696h394l-10 -61h-330l-46 -257h298l-10 -60h-298l-46 -257h330l-11 -61h-394zM182 -179q-13 13 -13 31q0 19 13 31t31 12q19 0 31 -12t12 -31q0 -18 -12 -31t-31 -13q-18 0 -31 13z" />
    <glyph glyph-name="uni1EB9" unicode="&#x1eb9;" horiz-adv-x="554" 
d="M133.5 14q-48.5 30 -74.5 81t-26 113q0 78 34 146.5t96.5 110t142.5 41.5q62 0 106.5 -27.5t68 -74.5t23.5 -103q0 -41 -6 -62h-396q-3 -30 -3 -42q0 -47 21.5 -83t56.5 -54.5t73 -18.5q60 0 102.5 26t66.5 67l48 -29q-30 -55 -88 -88t-132 -33q-65 0 -113.5 30zM439 289
v24q0 36 -17.5 67t-49 50t-76.5 19q-65 0 -113.5 -41.5t-70.5 -118.5h327zM187 -179q-13 13 -13 31q0 19 13 31t31 12q20 0 31.5 -12t11.5 -31q0 -18 -11.5 -31t-31.5 -13q-18 0 -31 13z" />
    <glyph glyph-name="uni1EBA" unicode="&#x1eba;" horiz-adv-x="550" 
d="M157 696h394l-10 -61h-330l-46 -257h298l-10 -60h-298l-46 -257h330l-11 -61h-394zM349 796q24 6 46 23.5t22 43.5q0 22 -13.5 33.5t-35.5 11.5q-29 0 -51 -9l-11 34q10 4 32.5 8.5t40.5 4.5q43 0 64.5 -18.5t21.5 -53.5q0 -46 -33.5 -75.5t-78.5 -36.5z" />
    <glyph glyph-name="uni1EBB" unicode="&#x1ebb;" horiz-adv-x="554" 
d="M133.5 14q-48.5 30 -74.5 81t-26 113q0 78 34 146.5t96.5 110t142.5 41.5q62 0 106.5 -27.5t68 -74.5t23.5 -103q0 -41 -6 -62h-396q-3 -30 -3 -42q0 -47 21.5 -83t56.5 -54.5t73 -18.5q60 0 102.5 26t66.5 67l48 -29q-30 -55 -88 -88t-132 -33q-65 0 -113.5 30zM439 289
v24q0 36 -17.5 67t-49 50t-76.5 19q-65 0 -113.5 -41.5t-70.5 -118.5h327zM292 609q24 4 45 21.5t21 45.5q0 19 -12.5 29.5t-35.5 10.5q-28 0 -49 -9l-4 35q29 12 64 12q39 0 62 -19t23 -54q0 -46 -30.5 -73t-80.5 -33z" />
    <glyph glyph-name="uni1EBC" unicode="&#x1ebc;" horiz-adv-x="550" 
d="M157 696h394l-10 -61h-330l-46 -257h298l-10 -60h-298l-46 -257h330l-11 -61h-394zM419.5 785.5q-13.5 5.5 -32.5 16.5q-18 12 -33 18.5t-33 6.5q-41 0 -50 -37h-50q5 41 32.5 67.5t67.5 26.5q15 0 29 -5.5t33 -16.5q18 -12 33 -18.5t32 -6.5q41 0 50 37h51
q-5 -41 -33 -67.5t-68 -26.5q-15 0 -28.5 5.5z" />
    <glyph glyph-name="uni1EBD" unicode="&#x1ebd;" horiz-adv-x="554" 
d="M133.5 14q-48.5 30 -74.5 81t-26 113q0 78 34 146.5t96.5 110t142.5 41.5q62 0 106.5 -27.5t68 -74.5t23.5 -103q0 -41 -6 -62h-396q-3 -30 -3 -42q0 -47 21.5 -83t56.5 -54.5t73 -18.5q60 0 102.5 26t66.5 67l48 -29q-30 -55 -88 -88t-132 -33q-65 0 -113.5 30zM439 289
v24q0 36 -17.5 67t-49 50t-76.5 19q-65 0 -113.5 -41.5t-70.5 -118.5h327zM364.5 621.5q-13.5 5.5 -32.5 16.5q-17 12 -31.5 18.5t-31.5 6.5q-39 0 -48 -37h-51q4 41 31 67t67 26q15 0 28 -5.5t33 -17.5q18 -11 32.5 -17.5t31.5 -6.5q38 0 47 37h51q-5 -41 -31.5 -67
t-66.5 -26q-15 0 -28.5 5.5z" />
    <glyph glyph-name="uni1EBE" unicode="&#x1ebe;" horiz-adv-x="550" 
d="M157 696h394l-10 -61h-330l-46 -257h298l-10 -60h-298l-46 -257h330l-11 -61h-394zM544 980h71l-75 -102h-48zM242 748l117 111h66l77 -108l2 7h-64l-47 57h-17l-60 -57h-72z" />
    <glyph glyph-name="uni1EBF" unicode="&#x1ebf;" horiz-adv-x="552" 
d="M132.5 14q-48.5 30 -74 81t-25.5 113q0 78 34 146.5t96 110t143 41.5q62 0 106.5 -27.5t68 -74.5t23.5 -103q0 -41 -6 -62h-396q-3 -30 -3 -42q0 -47 21.5 -83t56.5 -54.5t73 -18.5q60 0 102 26t66 67l48 -29q-29 -55 -87 -88t-133 -33q-65 0 -113.5 30zM438 289v24
q0 36 -17 67t-49 50t-76 19q-66 0 -114.5 -41.5t-69.5 -118.5h326zM493 836h68l-71 -102h-51zM197 606l112 110h66l74 -107l1 5h-64l-44 58h-15l-61 -58h-67z" />
    <glyph glyph-name="uni1EC0" unicode="&#x1ec0;" horiz-adv-x="550" 
d="M157 696h394l-10 -61h-330l-46 -257h298l-10 -60h-298l-46 -257h330l-11 -61h-394zM463 980h70l20 -102h-47zM242 748l117 111h66l77 -108l2 7h-64l-47 57h-17l-60 -57h-72z" />
    <glyph glyph-name="uni1EC1" unicode="&#x1ec1;" horiz-adv-x="554" 
d="M133.5 14q-48.5 30 -74.5 81t-26 113q0 78 34 146.5t96.5 110t142.5 41.5q62 0 106.5 -27.5t68 -74.5t23.5 -103q0 -41 -6 -62h-396q-3 -30 -3 -42q0 -47 21.5 -83t56.5 -54.5t73 -18.5q60 0 102.5 26t66.5 67l48 -29q-30 -55 -88 -88t-132 -33q-65 0 -113.5 30zM439 289
v24q0 36 -17.5 67t-49 50t-76.5 19q-65 0 -113.5 -41.5t-70.5 -118.5h327zM409 836h71l19 -102h-51zM196 606l112 110h66l74 -107l1 5h-64l-44 58h-15l-60 -58h-68z" />
    <glyph glyph-name="uni1EC2" unicode="&#x1ec2;" horiz-adv-x="550" 
d="M157 696h394l-10 -61h-330l-46 -257h298l-10 -60h-298l-46 -257h330l-11 -61h-394zM507 852q31 15 31 50q0 18 -11.5 29t-31.5 11q-19 0 -22 -1l7 36q16 3 33 3q37 0 55.5 -17t18.5 -50q0 -60 -63 -87zM243 748l117 111h66l77 -108l2 7h-64l-47 57h-17l-60 -57h-72z" />
    <glyph glyph-name="uni1EC3" unicode="&#x1ec3;" horiz-adv-x="550" 
d="M131.5 14q-48.5 30 -74 81t-25.5 113q0 78 34 146.5t96 110t143 41.5q61 0 106 -27.5t68 -74.5t23 -103q0 -41 -5 -62h-396q-3 -30 -3 -42q0 -47 21.5 -83t56 -54.5t73.5 -18.5q60 0 102 26t66 67l48 -29q-30 -55 -87.5 -88t-132.5 -33q-65 0 -113.5 30zM437 289v24
q0 36 -17 67t-49 50t-76 19q-66 0 -114.5 -41.5t-70.5 -118.5h327zM455 695q36 28 36 66q0 37 -41 37q-18 0 -23 -1l7 36q17 3 33 3q36 0 55 -16.5t19 -42.5q0 -37 -18 -61t-52 -44zM196 606l112 110h66l73 -107l2 5h-64l-44 58h-15l-61 -58h-68z" />
    <glyph glyph-name="uni1EC4" unicode="&#x1ec4;" horiz-adv-x="550" 
d="M157 696h394l-10 -61h-330l-46 -257h298l-10 -60h-298l-46 -257h330l-11 -61h-394zM295 960q23 20 58 20q16 0 29 -4.5t32 -13.5q10 -5 21.5 -9.5t22.5 -4.5q34 0 45 32h42q-4 -28 -27 -48t-58 -20q-17 0 -30.5 4.5t-31.5 13.5q-26 14 -43 14q-34 0 -45 -32h-42
q4 28 27 48zM242 748l117 111h66l77 -108l2 7h-64l-47 57h-17l-60 -57h-72z" />
    <glyph glyph-name="uni1EC5" unicode="&#x1ec5;" horiz-adv-x="554" 
d="M133.5 14q-48.5 30 -74.5 81t-26 113q0 78 34 146.5t96.5 110t142.5 41.5q62 0 106.5 -27.5t68 -74.5t23.5 -103q0 -41 -6 -62h-396q-3 -30 -3 -42q0 -47 21.5 -83t56.5 -54.5t73 -18.5q60 0 102.5 26t66.5 67l48 -29q-30 -55 -88 -88t-132 -33q-65 0 -113.5 30zM439 289
v24q0 36 -17.5 67t-49 50t-76.5 19q-65 0 -113.5 -41.5t-70.5 -118.5h327zM310 836q16 0 28.5 -4.5t26.5 -13.5q23 -14 40 -14q39 0 45 32h42q-12 -68 -90 -68q-17 0 -30 4.5t-27 13.5q-23 14 -39 14q-37 0 -45 -32h-42q11 68 91 68zM193 606l112 110h66l74 -107l1 5h-64
l-44 58h-15l-60 -58h-68z" />
    <glyph glyph-name="uni1EC6" unicode="&#x1ec6;" horiz-adv-x="550" 
d="M157 696h394l-10 -61h-330l-46 -257h298l-10 -60h-298l-46 -257h330l-11 -61h-394zM182 -179q-13 13 -13 31q0 19 13 31t31 12q19 0 31 -12t12 -31q0 -18 -12 -31t-31 -13q-18 0 -31 13zM241 769l118 111h66l75 -108l2 7h-63l-44 63h-17l-63 -63h-72z" />
    <glyph glyph-name="uni1EC7" unicode="&#x1ec7;" horiz-adv-x="554" 
d="M133.5 14q-48.5 30 -74.5 81t-26 113q0 78 34 146.5t96.5 110t142.5 41.5q62 0 106.5 -27.5t68 -74.5t23.5 -103q0 -41 -6 -62h-396q-3 -30 -3 -42q0 -47 21.5 -83t56.5 -54.5t73 -18.5q60 0 102.5 26t66.5 67l48 -29q-30 -55 -88 -88t-132 -33q-65 0 -113.5 30zM439 289
v24q0 36 -17.5 67t-49 50t-76.5 19q-65 0 -113.5 -41.5t-70.5 -118.5h327zM187 -179q-13 13 -13 31q0 19 13 31t31 12q20 0 31.5 -12t11.5 -31q0 -18 -11.5 -31t-31.5 -13q-18 0 -31 13zM192 606l113 110h65l73 -107l1 5h-62l-42 64h-16l-60 -64h-70z" />
    <glyph glyph-name="uni1EC8" unicode="&#x1ec8;" horiz-adv-x="244" 
d="M157 696h64l-123 -696h-64zM178 796q24 6 46 23.5t22 43.5q0 22 -13.5 33.5t-35.5 11.5q-29 0 -51 -9l-11 34q10 4 32.5 8.5t40.5 4.5q43 0 64.5 -18.5t21.5 -53.5q0 -46 -33.5 -75.5t-78.5 -36.5z" />
    <glyph glyph-name="uni1EC9" unicode="&#x1ec9;" horiz-adv-x="223" 
d="M110 490h65l-84 -490h-65zM135 609q24 4 44.5 21.5t20.5 45.5q0 19 -12.5 29.5t-34.5 10.5q-28 0 -49 -9l-4 35q29 12 63 12q40 0 63 -19t23 -54q0 -46 -31 -73t-80 -33z" />
    <glyph glyph-name="uni1ECA" unicode="&#x1eca;" horiz-adv-x="244" 
d="M157 696h64l-123 -696h-64zM11 -179q-13 13 -13 31q0 19 13 31t31 12q19 0 31 -12t12 -31q0 -18 -12 -31t-31 -13q-18 0 -31 13z" />
    <glyph glyph-name="uni1ECB" unicode="&#x1ecb;" horiz-adv-x="222" 
d="M134.5 619q-14.5 15 -14.5 36q0 22 14.5 36.5t35.5 14.5q23 0 37 -14.5t14 -36.5q0 -21 -14 -36t-37 -15q-21 0 -35.5 15zM108 490h65l-84 -490h-64zM3 -179q-13 13 -13 31q0 19 13 31t31 12q19 0 31 -12t12 -31q0 -18 -12 -31t-31 -13q-18 0 -31 13z" />
    <glyph glyph-name="uni1ECC" unicode="&#x1ecc;" horiz-adv-x="825" 
d="M212.5 24q-72.5 40 -114 112t-41.5 163q0 107 52.5 202.5t147 153t213.5 57.5q87 0 159 -40t113.5 -112t41.5 -163q0 -107 -52 -202.5t-146.5 -153t-212.5 -57.5q-88 0 -160.5 40zM550 94q77 49 122 128.5t45 167.5q0 79 -34 138t-92.5 91t-130.5 32q-92 0 -168.5 -49
t-121.5 -128.5t-45 -167.5q0 -79 34 -138t92 -91t130 -32q92 0 169 49zM321 -179q-13 13 -13 31q0 19 13 31t31 12q19 0 31 -12t12 -31q0 -18 -12 -31t-31 -13q-18 0 -31 13z" />
    <glyph glyph-name="uni1ECD" unicode="&#x1ecd;" horiz-adv-x="585" 
d="M139 14.5q-49 30.5 -76.5 83.5t-27.5 119q0 80 34.5 146t98.5 104.5t146 38.5q64 0 113 -30.5t76 -83.5t27 -119q0 -81 -34.5 -147t-98.5 -104t-146 -38q-63 0 -112 30.5zM366 72q47 31 72 83t25 113q0 78 -43.5 129.5t-115.5 51.5q-58 0 -105 -31t-72 -83t-25 -113
q0 -79 43.5 -130t115.5 -51q58 0 105 31zM201 -179q-13 13 -13 31q0 19 13 31t31 12q20 0 31.5 -12t11.5 -31q0 -18 -11.5 -31t-31.5 -13q-18 0 -31 13z" />
    <glyph glyph-name="uni1ECE" unicode="&#x1ece;" horiz-adv-x="825" 
d="M212.5 24q-72.5 40 -114 112t-41.5 163q0 107 52.5 202.5t147 153t213.5 57.5q87 0 159 -40t113.5 -112t41.5 -163q0 -107 -52 -202.5t-146.5 -153t-212.5 -57.5q-88 0 -160.5 40zM550 94q77 49 122 128.5t45 167.5q0 79 -34 138t-92.5 91t-130.5 32q-92 0 -168.5 -49
t-121.5 -128.5t-45 -167.5q0 -79 34 -138t92 -91t130 -32q92 0 169 49zM454 796q24 6 46 23.5t22 43.5q0 22 -13.5 33.5t-35.5 11.5q-29 0 -51 -9l-11 34q10 4 32.5 8.5t40.5 4.5q43 0 64.5 -18.5t21.5 -53.5q0 -46 -33.5 -75.5t-78.5 -36.5z" />
    <glyph glyph-name="uni1ECF" unicode="&#x1ecf;" horiz-adv-x="585" 
d="M139 14.5q-49 30.5 -76.5 83.5t-27.5 119q0 80 34.5 146t98.5 104.5t146 38.5q64 0 113 -30.5t76 -83.5t27 -119q0 -81 -34.5 -147t-98.5 -104t-146 -38q-63 0 -112 30.5zM366 72q47 31 72 83t25 113q0 78 -43.5 129.5t-115.5 51.5q-58 0 -105 -31t-72 -83t-25 -113
q0 -79 43.5 -130t115.5 -51q58 0 105 31zM307 609q24 4 45 21.5t21 45.5q0 19 -12.5 29.5t-35.5 10.5q-28 0 -49 -9l-4 35q29 12 64 12q39 0 62 -19t23 -54q0 -46 -30.5 -73t-80.5 -33z" />
    <glyph glyph-name="uni1ED0" unicode="&#x1ed0;" horiz-adv-x="825" 
d="M212.5 24q-72.5 40 -114 112t-41.5 163q0 107 52.5 202.5t147 153t213.5 57.5q87 0 159 -40t113.5 -112t41.5 -163q0 -107 -52 -202.5t-146.5 -153t-212.5 -57.5q-88 0 -160.5 40zM550 94q77 49 122 128.5t45 167.5q0 79 -34 138t-92.5 91t-130.5 32q-92 0 -168.5 -49
t-121.5 -128.5t-45 -167.5q0 -79 34 -138t92 -91t130 -32q92 0 169 49zM649 980h71l-75 -102h-48zM347 748l117 111h66l77 -108l2 7h-64l-47 57h-17l-60 -57h-72z" />
    <glyph glyph-name="uni1ED1" unicode="&#x1ed1;" horiz-adv-x="583" 
d="M138 14.5q-49 30.5 -76 83.5t-27 119q0 80 34 146t98 104.5t147 38.5q64 0 113 -30.5t75.5 -83.5t26.5 -119q0 -81 -34 -147t-98 -104t-147 -38q-63 0 -112 30.5zM365.5 72q46.5 31 72 83t25.5 113q0 78 -44 129.5t-115 51.5q-59 0 -105.5 -31t-72 -83t-25.5 -113
q0 -79 44 -130t115 -51q59 0 105.5 31zM508 836h68l-71 -102h-51zM212 606l112 110h66l73 -107l2 5h-64l-44 58h-15l-61 -58h-68z" />
    <glyph glyph-name="uni1ED2" unicode="&#x1ed2;" horiz-adv-x="825" 
d="M212.5 24q-72.5 40 -114 112t-41.5 163q0 107 52.5 202.5t147 153t213.5 57.5q87 0 159 -40t113.5 -112t41.5 -163q0 -107 -52 -202.5t-146.5 -153t-212.5 -57.5q-88 0 -160.5 40zM550 94q77 49 122 128.5t45 167.5q0 79 -34 138t-92.5 91t-130.5 32q-92 0 -168.5 -49
t-121.5 -128.5t-45 -167.5q0 -79 34 -138t92 -91t130 -32q92 0 169 49zM568 980h70l20 -102h-47zM347 748l117 111h66l77 -108l2 7h-64l-47 57h-17l-60 -57h-72z" />
    <glyph glyph-name="uni1ED3" unicode="&#x1ed3;" horiz-adv-x="585" 
d="M139 14.5q-49 30.5 -76.5 83.5t-27.5 119q0 80 34.5 146t98.5 104.5t146 38.5q64 0 113 -30.5t76 -83.5t27 -119q0 -81 -34.5 -147t-98.5 -104t-146 -38q-63 0 -112 30.5zM366 72q47 31 72 83t25 113q0 78 -43.5 129.5t-115.5 51.5q-58 0 -105 -31t-72 -83t-25 -113
q0 -79 43.5 -130t115.5 -51q58 0 105 31zM424 836h71l19 -102h-51zM211 606l112 110h66l74 -107l1 5h-64l-44 58h-15l-60 -58h-68z" />
    <glyph glyph-name="uni1ED4" unicode="&#x1ed4;" horiz-adv-x="825" 
d="M212.5 24q-72.5 40 -114 112t-41.5 163q0 107 52.5 202.5t147 153t213.5 57.5q87 0 159 -40t113.5 -112t41.5 -163q0 -107 -52 -202.5t-146.5 -153t-212.5 -57.5q-88 0 -160.5 40zM550 94q77 49 122 128.5t45 167.5q0 79 -34 138t-92.5 91t-130.5 32q-92 0 -168.5 -49
t-121.5 -128.5t-45 -167.5q0 -79 34 -138t92 -91t130 -32q92 0 169 49zM612 852q31 15 31 50q0 18 -11.5 29t-31.5 11q-19 0 -22 -1l7 36q16 3 33 3q37 0 55.5 -17t18.5 -50q0 -60 -63 -87zM348 748l117 111h66l77 -108l2 7h-64l-47 57h-17l-60 -57h-72z" />
    </font>
</defs>
</svg>
