<?xml version="1.0" standalone="no"?>
<!DOCTYPE svg PUBLIC "-//W3C//DTD SVG 1.1//EN" "http://www.w3.org/Graphics/SVG/1.1/DTD/svg11.dtd" >
<svg xmlns="http://www.w3.org/2000/svg" xmlns:xlink="http://www.w3.org/1999/xlink" version="1.1">
<metadata>
Created by FontForge 20170731 at Thu Aug  1 12:34:57 2019
 By Aleksey,,,
Copyright 2015 Google LLC. All Rights Reserved. mod by nongthaihoang
</metadata>
<defs>
<font id="GoogleSans-Italic" horiz-adv-x="0" >
  <font-face 
    font-family="Google Sans"
    font-weight="400"
    font-style="italic"
    font-stretch="normal"
    units-per-em="1000"
    panose-1="2 11 5 3 3 5 2 4 2 4"
    ascent="800"
    descent="-200"
    x-height="510"
    cap-height="716"
    bbox="-896.178 -271 3284 1056"
    underline-thickness="84"
    underline-position="-328"
    slope="-10"
    unicode-range="U+0002-1F16B"
  />
<missing-glyph horiz-adv-x="224" 
 />
    <glyph glyph-name="G_l_o_g_o_l_i_g_a_t_u_r_e.liga" unicode="Glogoligature" horiz-adv-x="861" 
d="M460 -16q-111 0 -207 55.5t-152.5 149.5t-56.5 205t56.5 205t152.5 149.5t207 55.5q163 0 281 -113l-79 -79q-85 80 -202 80q-81 0 -148.5 -40t-106.5 -108.5t-39 -149.5t39 -149.5t106.5 -108.5t148.5 -40q72 0 121.5 23t85.5 59q49 49 61 141h-268v112h377q6 -30 6 -70
q0 -71 -23 -141t-74 -121q-110 -115 -286 -115z" />
    <glyph glyph-name="e_l_o_g_o_l_i_g_a_t_u_r_e.liga" unicode="elogoligature" horiz-adv-x="514" 
d="M289 -16q-74 0 -134 35t-94 95.5t-34 133.5q0 77 33.5 137t90.5 93.5t125 33.5q91 0 147 -53t79 -115l12 -30l-353 -146q41 -80 128 -80q80 0 130 73l90 -60q-30 -45 -85 -81t-135 -36zM378 354q-10 25 -37 40.5t-61 15.5q-31 0 -64 -18t-54 -53t-20 -83z" />
    <glyph glyph-name="g_l_o_g_o_l_i_g_a_t_u_r_e.liga" unicode="glogoligature" horiz-adv-x="566" 
d="M277 -253q-88 0 -148 47t-86 109l101 42q16 -38 50 -66t83 -28q66 0 103.5 40t37.5 115v38h-4q-21 -26 -57.5 -43t-81.5 -17q-66 0 -124 35t-93.5 95.5t-35.5 132.5q0 73 35.5 133.5t94 96t123.5 35.5q45 0 81.5 -17t57.5 -42h4v43h110v-474q0 -138 -70.5 -206.5
t-180.5 -68.5zM285 88q39 0 71.5 20.5t51 57t18.5 81.5q0 46 -18.5 82.5t-51 57.5t-71.5 21q-40 0 -73.5 -21t-53.5 -58t-20 -82t20 -81.5t53.5 -57t73.5 -20.5z" />
    <glyph glyph-name="l_l_o_g_o_l_i_g_a_t_u_r_e.liga" unicode="llogoligature" horiz-adv-x="187" 
d="M42 0v776h116v-776h-116z" />
    <glyph glyph-name="o_l_o_g_o_l_i_g_a_t_u_r_e.liga" unicode="ologoligature" horiz-adv-x="578" 
d="M287 -16q-72 0 -133 34.5t-96.5 95t-35.5 134.5q0 75 35.5 135.5t96.5 94.5t133 34t133 -34t96.5 -94.5t35.5 -135.5q0 -74 -35.5 -134.5t-96.5 -95t-133 -34.5zM287 88q40 0 74 20.5t54.5 57t20.5 82.5t-20.5 82.5t-54.5 57t-74 20.5t-74 -20.5t-54.5 -57t-20.5 -82.5
t20.5 -82.5t54.5 -57t74 -20.5z" />
    <glyph glyph-name="f_b.liga" unicode="fb" horiz-adv-x="969" 
d="M653 -16q-56 0 -100.5 26.5t-66.5 65.5h-4l-14 -76h-79l113 643h-141q-41 0 -67 -22t-33 -65l-9 -46h130l-14 -77h-129l-76 -433h-85l76 433h-95l14 77h95l10 55q13 72 62 113.5t134 41.5h226l-38 -215l-17 -71h4q24 39 69.5 65.5t106.5 26.5t109.5 -30.5t76 -84.5
t27.5 -123q0 -81 -36.5 -151t-101.5 -111.5t-147 -41.5zM651 61q56 0 102 28.5t72.5 79t26.5 113.5q0 73 -42 120t-108 47q-53 0 -97.5 -32t-70 -84.5t-25.5 -111.5q0 -49 19 -85t51.5 -55.5t71.5 -19.5z" />
    <glyph glyph-name="f_f.liga" unicode="ff" horiz-adv-x="690" 
d="M154 433h-95l14 77h95l9 55q13 74 65.5 116.5t125.5 42.5q43 0 74 -12l-15 -83q-30 16 -69 16q-34 0 -62 -23t-35 -66l-8 -46h225l10 55q12 74 64.5 116.5t125.5 42.5q45 0 74 -12l-15 -83q-30 16 -69 16q-33 0 -61 -23t-36 -66l-8 -46h131l-14 -77h-131l-76 -433h-85
l77 433h-226l-77 -433h-84z" />
    <glyph glyph-name="f_f_b.liga" unicode="ffb" horiz-adv-x="1279" 
d="M963 -16q-56 0 -100.5 26.5t-66.5 65.5h-4l-14 -76h-79l113 643h-141q-41 0 -67 -22t-33 -65l-9 -46h130l-14 -77h-129l-76 -433h-85l76 433h-225l-77 -433h-84l76 433h-95l14 77h95l9 55q13 74 65.5 116.5t125.5 42.5q43 0 74 -12l-15 -83q-30 16 -69 16q-34 0 -62 -23
t-35 -66l-8 -46h225l10 55q13 72 62 113.5t134 41.5h226l-38 -215l-17 -71h4q24 39 69.5 65.5t106.5 26.5t109.5 -30.5t76 -84.5t27.5 -123q0 -81 -36.5 -151t-101.5 -111.5t-147 -41.5zM961 61q56 0 102 28.5t72.5 79t26.5 113.5q0 73 -42 120t-108 47q-53 0 -97.5 -32
t-70 -84.5t-25.5 -111.5q0 -49 19 -85t51.5 -55.5t71.5 -19.5z" />
    <glyph glyph-name="f_f_h.liga" unicode="ffh" horiz-adv-x="1241" 
d="M154 433h-95l14 77h95l9 55q13 74 65.5 116.5t125.5 42.5q43 0 74 -12l-15 -83q-30 16 -69 16q-34 0 -62 -23t-35 -66l-8 -46h225l10 55q13 72 62.5 113.5t134.5 41.5h225l-38 -215l-17 -70h4q29 41 74 66t102 25q78 0 120.5 -41.5t42.5 -109.5q0 -29 -6 -68l-55 -307
h-85l55 307q5 30 5 49q0 43 -29.5 68t-77.5 25q-62 0 -110 -48t-62 -124l-50 -277h-84l113 643h-141q-41 0 -67 -22t-33 -65l-8 -46h129l-14 -77h-129l-76 -433h-84l75 433h-225l-77 -433h-84z" />
    <glyph glyph-name="f_f_i.liga" unicode="ffi" horiz-adv-x="895" 
d="M856 603q-25 0 -43 18t-18 43q0 26 18 43.5t43 17.5t42.5 -18t17.5 -43t-17.5 -43t-42.5 -18zM154 433h-95l14 77h95l9 55q13 74 65.5 116.5t125.5 42.5q43 0 74 -12l-15 -83q-30 16 -69 16q-34 0 -62 -23t-35 -66l-8 -46h225l9 55q13 74 65.5 116.5t125.5 42.5
q44 0 73 -12l-14 -83q-30 16 -70 16q-33 0 -61 -23.5t-35 -65.5l-8 -46h310l-90 -510h-84l75 433h-225l-77 -433h-84l76 433h-225l-77 -433h-84z" />
    <glyph glyph-name="f_f_j.liga" unicode="ffj" horiz-adv-x="895" 
d="M856 603q-25 0 -43 18t-18 43q0 26 18 43.5t43 17.5t42.5 -18t17.5 -43t-17.5 -43t-42.5 -18zM608 -226q-24 0 -50 8l14 79q7 -4 19.5 -7t22.5 -3q58 0 70 71l90 511h-225l-77 -433h-84l76 433h-225l-77 -433h-84l76 433h-95l14 77h95l9 55q13 74 65.5 116.5t125.5 42.5
q43 0 74 -12l-15 -83q-30 16 -69 16q-34 0 -62 -23t-35 -66l-8 -46h225l9 55q13 74 65.5 116.5t125.5 42.5q44 0 73 -12l-14 -83q-30 16 -70 16q-33 0 -61 -23.5t-35 -65.5l-8 -46h310l-105 -592q-14 -79 -54.5 -111.5t-105.5 -32.5z" />
    <glyph glyph-name="f_f_k.liga" unicode="ffk" horiz-adv-x="1185" 
d="M154 433h-95l14 77h95l9 55q13 74 65.5 116.5t125.5 42.5q43 0 74 -12l-15 -83q-30 16 -69 16q-34 0 -62 -23t-35 -66l-8 -46h225l10 55q13 72 62.5 113.5t134.5 41.5h225l-79 -449l276 239h114l-1 -4l-238 -202l152 -300l-1 -4h-98l-121 246l-103 -88l-28 -158h-84
l113 643h-141q-41 0 -67 -22t-33 -65l-8 -46h129l-14 -77h-129l-76 -433h-84l75 433h-225l-77 -433h-84z" />
    <glyph glyph-name="f_f_l.liga" unicode="ffl" horiz-adv-x="892" 
d="M154 433h-95l14 77h95l9 55q13 74 65.5 116.5t125.5 42.5q43 0 74 -12l-15 -83q-30 16 -69 16q-34 0 -62 -23t-35 -66l-8 -46h225l10 55q13 72 62.5 113.5t134.5 41.5h225l-127 -720h-84l113 643h-141q-41 0 -67 -22t-33 -65l-8 -46h129l-14 -77h-129l-76 -433h-84
l75 433h-225l-77 -433h-84z" />
    <glyph glyph-name="f_f_t.liga" unicode="fft" horiz-adv-x="991" 
d="M839 -8q-53 0 -86 30.5t-33 80.5q0 23 5 49l49 281h-225l-77 -433h-84l76 433h-225l-77 -433h-84l76 433h-95l14 77h95l9 55q13 74 65.5 116.5t125.5 42.5q43 0 74 -12l-15 -83q-30 16 -69 16q-34 0 -62 -23t-35 -66l-8 -46h225l9 55q13 74 65.5 116.5t125.5 42.5
q44 0 73 -12l-14 -83q-30 16 -70 16q-33 0 -61 -23.5t-35 -65.5l-8 -46h225l25 144h85l-25 -144h124l-13 -77h-125l-48 -271q-5 -28 -5 -39q0 -24 15.5 -38t41.5 -14q33 0 62 17l-15 -83q-32 -13 -71 -13z" />
    <glyph glyph-name="f_h.liga" unicode="fh" horiz-adv-x="930" 
d="M154 433h-95l14 77h95l10 55q13 72 62 113.5t134 41.5h226l-38 -215l-17 -70h4q28 41 73.5 66t102.5 25q78 0 120.5 -41.5t42.5 -109.5q0 -32 -7 -68l-54 -307h-85l55 307q5 30 5 49q0 42 -29.5 67.5t-77.5 25.5q-62 0 -110 -48t-62 -124l-50 -277h-84l113 643h-141
q-41 0 -67 -22t-33 -65l-9 -46h130l-14 -77h-129l-76 -433h-85z" />
    <glyph glyph-name="f_i.liga" unicode="fi" horiz-adv-x="585" 
d="M545 603q-25 0 -42.5 18t-17.5 43t17.5 43t42.5 18q26 0 43.5 -17.5t17.5 -43.5q0 -25 -17.5 -43t-43.5 -18zM154 433h-95l14 77h95l9 55q13 74 65.5 116.5t125.5 42.5q43 0 74 -12l-15 -83q-30 16 -69 16q-34 0 -62 -23t-35 -66l-8 -46h310l-90 -510h-84l75 433h-225
l-77 -433h-84z" />
    <glyph glyph-name="f_j.liga" unicode="fj" horiz-adv-x="588" 
d="M298 -226q-24 0 -50 8l14 79q7 -4 19 -7t23 -3q58 0 70 71l90 511h-225l-77 -433h-84l76 433h-95l14 77h95l9 55q13 74 65.5 116.5t125.5 42.5q43 0 74 -12l-15 -83q-30 16 -69 16q-34 0 -62 -23t-35 -66l-8 -46h310l-105 -592q-14 -79 -54.5 -111.5t-105.5 -32.5z
M547 598q-25 0 -43 18t-18 43q0 26 18 43.5t43 17.5t43 -18t18 -43t-18 -43t-43 -18z" />
    <glyph glyph-name="f_k.liga" unicode="fk" horiz-adv-x="875" 
d="M154 433h-95l14 77h95l10 55q13 72 62 113.5t134 41.5h226l-79 -449l277 239h113l-1 -4l-238 -202l152 -300l-1 -4h-99l-120 246l-103 -88l-28 -158h-84l113 643h-141q-41 0 -67 -22t-33 -65l-9 -46h130l-14 -77h-129l-76 -433h-85z" />
    <glyph glyph-name="f_l.liga" unicode="fl" horiz-adv-x="582" 
d="M502 643h-141q-41 0 -67 -22t-33 -65l-9 -46h130l-14 -77h-129l-76 -433h-85l76 433h-95l14 77h95l10 55q13 72 62 113.5t134 41.5h226l-127 -720h-84z" />
    <glyph glyph-name="f_t.liga" unicode="ft" horiz-adv-x="681" 
d="M528 -8q-53 0 -85.5 30.5t-32.5 80.5q0 23 5 49l49 281h-225l-77 -433h-84l76 433h-95l14 77h95l9 55q13 74 65.5 116.5t125.5 42.5q43 0 74 -12l-15 -83q-30 16 -69 16q-34 0 -62 -23t-35 -66l-8 -46h225l25 144h85l-25 -144h124l-13 -77h-125l-48 -271q-5 -28 -5 -39
q0 -24 15.5 -38t41.5 -14q33 0 62 17l-15 -83q-32 -13 -72 -13z" />
    <glyph glyph-name="r_f.liga" unicode="rf" horiz-adv-x="749" 
d="M109 510h80l-14 -81h4q24 45 70.5 70t103.5 25q21 0 35 -3l-15 -87q-20 4 -43 4q-41 0 -78.5 -20t-63.5 -55.5t-34 -81.5l-50 -281h-85zM523 433h-95l14 77h95l9 55q13 74 65.5 116.5t125.5 42.5q43 0 74 -12l-15 -83q-30 16 -69 16q-34 0 -62 -23t-35 -66l-8 -46h130
l-13 -77h-131l-77 -433h-84z" />
    <glyph glyph-name="r_f_f.liga" unicode="rff" horiz-adv-x="1059" 
d="M109 510h80l-14 -81h4q24 45 70.5 70t103.5 25q21 0 35 -3l-15 -87q-20 4 -43 4q-41 0 -78.5 -20t-63.5 -55.5t-34 -81.5l-50 -281h-85zM523 433h-95l14 77h95l9 55q13 74 65.5 116.5t125.5 42.5q43 0 74 -12l-15 -83q-30 16 -69 16q-34 0 -62 -23t-35 -66l-8 -46h225
l10 55q12 74 64.5 116.5t125.5 42.5q45 0 74 -12l-15 -83q-30 16 -69 16q-33 0 -61 -23t-36 -66l-8 -46h131l-14 -77h-131l-76 -433h-85l77 433h-226l-77 -433h-84z" />
    <glyph glyph-name="r_t.liga" unicode="rt" horiz-adv-x="745" 
d="M592 -8q-53 0 -86 30.5t-33 80.5q0 23 5 49l50 281h-90l14 77h89l26 144h84l-25 -144h125l-14 -77h-125l-48 -271q-4 -23 -4 -39q0 -25 15.5 -38.5t41.5 -13.5q32 0 61 17l-14 -83q-32 -13 -72 -13zM109 510h80l-14 -81h4q24 45 70.5 70t103.5 25q21 0 35 -3l-15 -87
q-20 4 -43 4q-40 0 -77.5 -20t-64 -55.5t-34.5 -81.5l-50 -281h-85z" />
    <glyph glyph-name="t_f.liga" unicode="tf" horiz-adv-x="686" 
d="M213 -8q-53 0 -86 30.5t-33 80.5q0 23 5 49l50 281h-90l14 77h89l26 144h84l-25 -144h228l9 55q12 74 64.5 116.5t125.5 42.5q45 0 74 -12l-15 -83q-28 16 -69 16q-33 0 -61 -23t-36 -66l-8 -46h131l-14 -77h-131l-76 -433h-85l77 433h-228l-48 -271q-4 -23 -4 -39
q0 -25 15.5 -38.5t41.5 -13.5q32 0 61 17l-14 -83q-32 -13 -72 -13z" />
    <glyph glyph-name="t_t.liga" unicode="tt" horiz-adv-x="677" 
d="M213 -8q-53 0 -86 30.5t-33 80.5q0 23 5 49l50 281h-90l14 77h89l26 144h84l-25 -144h227l25 144h85l-26 -144h125l-14 -77h-124l-48 -271q-5 -28 -5 -39q0 -25 15.5 -38.5t41.5 -13.5q33 0 62 17l-15 -83q-32 -13 -72 -13q-53 0 -85.5 30.5t-32.5 80.5q0 23 5 49l49 281
h-227l-48 -271q-4 -23 -4 -39q0 -25 15.5 -38.5t41.5 -13.5q32 0 61 17l-14 -83q-32 -13 -72 -13z" />
    <glyph glyph-name="G_o_o_g_l_e_l_o_g_o_l_i_g_a_t_u" unicode="Googlelogoligature" horiz-adv-x="3284" 
d="M460 -16q-111 0 -207 55.5t-152.5 149.5t-56.5 205t56.5 205t152.5 149.5t207 55.5q163 0 281 -113l-79 -79q-85 80 -202 80q-81 0 -148.5 -40t-106.5 -108.5t-39 -149.5t39 -149.5t106.5 -108.5t148.5 -40q72 0 121.5 23t85.5 59q49 49 61 141h-268v112h377q6 -30 6 -70
q0 -71 -23 -141t-74 -121q-110 -115 -286 -115zM2625 0v776h116v-776h-116zM1148 -16q-72 0 -133 34.5t-96.5 95t-35.5 134.5q0 75 35.5 135.5t96.5 94.5t133 34t133 -34t96.5 -94.5t35.5 -135.5q0 -74 -35.5 -134.5t-96.5 -95t-133 -34.5zM1726 -16q-72 0 -133 34.5
t-96.5 95t-35.5 134.5q0 75 35.5 135.5t96.5 94.5t133 34t133 -34t96.5 -94.5t35.5 -135.5q0 -74 -35.5 -134.5t-96.5 -95t-133 -34.5zM2294 -253q-88 0 -148 47t-86 109l101 42q16 -38 50 -66t83 -28q66 0 103.5 40t37.5 115v38h-4q-21 -26 -57.5 -43t-81.5 -17
q-66 0 -124 35t-93.5 95.5t-35.5 132.5q0 73 35.5 133.5t94 96t123.5 35.5q45 0 81.5 -17t57.5 -42h4v43h110v-474q0 -138 -70.5 -206.5t-180.5 -68.5zM3059 -16q-74 0 -134 35t-94 95.5t-34 133.5q0 77 33.5 137t90.5 93.5t125 33.5q91 0 147 -53t79 -115l12 -30l-353 -146
q41 -80 128 -80q80 0 130 73l90 -60q-30 -45 -85 -81t-135 -36zM3148 354q-10 25 -37 40.5t-61 15.5q-31 0 -64 -18t-54 -53t-20 -83zM1148 88q40 0 74 20.5t54.5 57t20.5 82.5t-20.5 82.5t-54.5 57t-74 20.5t-74 -20.5t-54.5 -57t-20.5 -82.5t20.5 -82.5t54.5 -57t74 -20.5
zM1726 88q40 0 74 20.5t54.5 57t20.5 82.5t-20.5 82.5t-54.5 57t-74 20.5t-74 -20.5t-54.5 -57t-20.5 -82.5t20.5 -82.5t54.5 -57t74 -20.5zM2302 88q39 0 71.5 20.5t51 57t18.5 81.5q0 46 -18.5 82.5t-51 57.5t-71.5 21q-40 0 -73.5 -21t-53.5 -58t-20 -82t20 -81.5
t53.5 -57t73.5 -20.5z" />
    <glyph glyph-name=".notdef" horiz-adv-x="224" 
 />
    <glyph glyph-name=".null" 
 />
    <glyph glyph-name="nonmarkingreturn" horiz-adv-x="250" 
 />
    <glyph glyph-name="uni0002" 
 />
    <glyph glyph-name="space" unicode=" " horiz-adv-x="224" 
 />
    <glyph glyph-name="exclam" unicode="!" horiz-adv-x="238" 
d="M114 473l43 243h84l-43 -243l-55 -262h-66zM84 -6q-27 0 -45.5 18.5t-18.5 45.5q0 26 18.5 44.5t45.5 18.5t45.5 -18.5t18.5 -44.5q0 -27 -18.5 -45.5t-45.5 -18.5z" />
    <glyph glyph-name="quotedbl" unicode="&#x22;" horiz-adv-x="323" 
d="M133 716h77l-39 -221h-77zM276 716h77l-39 -221h-77z" />
    <glyph glyph-name="numbersign" unicode="#" horiz-adv-x="626" 
d="M159 206h-124l14 70h122l25 141h-125l13 70h124l34 197h75l-35 -197h142l34 197h75l-35 -197h124l-13 -70h-123l-25 -141h126l-13 -70h-125l-35 -206h-75l36 206h-142l-35 -206h-75zM387 276l25 141h-142l-25 -141h142z" />
    <glyph glyph-name="dollar" unicode="$" horiz-adv-x="535" 
d="M182 -12q-66 11 -116.5 58t-60.5 122l80 30q5 -49 34 -84t78 -45l44 251q-72 32 -112.5 77t-40.5 113q0 50 27 91t76.5 67t115.5 31l15 85h71l-16 -88q57 -11 94.5 -47.5t52.5 -86.5l-81 -32q-21 67 -80 83l-42 -237q76 -36 114.5 -78.5t38.5 -107.5q0 -88 -62 -142
t-160 -62l-14 -86h-71zM293 617q-53 -5 -85.5 -32.5t-32.5 -76.5q0 -62 81 -103zM266 67q53 6 87.5 35t34.5 81q0 37 -20.5 62t-61.5 45z" />
    <glyph glyph-name="percent" unicode="%" horiz-adv-x="827" 
d="M232 358q-64 0 -106 42t-42 107q0 53 26 97.5t71 70t101 25.5q65 0 106 -42t41 -107q0 -53 -25.5 -97.5t-71 -70t-100.5 -25.5zM123 32l562 659l47 -40l-561 -658zM240 420q52 0 86 36t34 89q0 41 -24.5 67t-61.5 26q-52 0 -86 -35.5t-34 -89.5q0 -41 24.5 -67t61.5 -26z
M575 -16q-64 0 -106 42t-42 107q0 53 26 97.5t71 70t101 25.5q65 0 106 -42t41 -107q0 -53 -25.5 -97.5t-71 -70t-100.5 -25.5zM583 46q52 0 86 36t34 89q0 41 -24.5 67t-61.5 26q-52 0 -86 -35.5t-34 -89.5q0 -41 24.5 -67t61.5 -26z" />
    <glyph glyph-name="ampersand" unicode="&#x26;" horiz-adv-x="628" 
d="M259 -16q-61 0 -111 27t-79 76t-29 114q0 80 42 143t125 104l-1 2q-33 57 -33 110q0 44 22 83.5t63.5 64t97.5 24.5q66 0 105.5 -33.5t55.5 -92.5l-83 -34q-20 79 -87 79q-37 0 -62 -25.5t-25 -65.5q0 -35 24 -78l176 -299l80 116l56 -41l-98 -140l55 -93l-74 -41l-40 68
q-78 -68 -180 -68zM268 61q80 0 134 54l-158 270q-56 -26 -90.5 -72t-34.5 -108q0 -39 19 -72t53 -52.5t77 -19.5z" />
    <glyph glyph-name="quotesingle" unicode="'" horiz-adv-x="180" 
d="M133 716h77l-39 -221h-77z" />
    <glyph glyph-name="parenleft" unicode="(" horiz-adv-x="323" 
d="M179 -136q-50 71 -83.5 170t-33.5 216q0 153 73 293.5t195 236.5l48 -45q-112 -104 -171.5 -226t-59.5 -274q0 -177 93 -327z" />
    <glyph glyph-name="parenright" unicode=")" horiz-adv-x="323" 
d="M-37 -91q112 104 171.5 226t59.5 274q0 177 -93 327l61 44q50 -71 83.5 -170t33.5 -216q0 -153 -73 -293.5t-195 -236.5z" />
    <glyph glyph-name="asterisk" unicode="*" horiz-adv-x="429" 
d="M103 421l98 104l-1 8l-102 38l28 64l104 -40l6 2l21 119h70l-21 -119l6 -2l106 37l22 -65l-117 -43l-4 -7l57 -99l-65 -42l-56 101h-7l-92 -101z" />
    <glyph glyph-name="plus" unicode="+" horiz-adv-x="558" 
d="M240 236h-182l12 70h182l32 182h71l-33 -182h183l-12 -70h-183l-32 -182h-70z" />
    <glyph glyph-name="comma" unicode="," horiz-adv-x="224" 
d="M52 0q-13 5 -25 20t-12 38q0 27 18.5 45t43.5 18q27 0 46 -18t19 -45q0 -15 -9 -29t-30 -40l-83 -99l-35 29z" />
    <glyph glyph-name="hyphen" unicode="-" horiz-adv-x="427" 
d="M388 345l-12 -70h-318l12 70h318z" />
    <glyph glyph-name="period" unicode="." horiz-adv-x="221" 
d="M76 -6q-27 0 -45.5 18.5t-18.5 45.5q0 26 18.5 44.5t45.5 18.5q26 0 44.5 -18.5t18.5 -44.5q0 -27 -18.5 -45.5t-44.5 -18.5z" />
    <glyph glyph-name="slash" unicode="/" horiz-adv-x="300" 
d="M301 716h78l-344 -716h-78z" />
    <glyph glyph-name="zero" unicode="0" horiz-adv-x="645" 
d="M284 -16q-69 0 -120.5 36t-79.5 103t-28 156q0 110 43.5 207t119.5 155.5t170 58.5q108 0 169 -78.5t61 -215.5q0 -111 -43.5 -208t-120.5 -155.5t-171 -58.5zM292 65q62 0 117.5 46t88.5 123t33 165q0 103 -38.5 161.5t-113.5 58.5q-60 0 -114.5 -47.5t-88 -124.5
t-33.5 -162q0 -104 39.5 -162t109.5 -58z" />
    <glyph glyph-name="one" unicode="1" horiz-adv-x="380" 
d="M263 564l-127 -85l-40 65l217 140h56l-121 -684h-84z" />
    <glyph glyph-name="two" unicode="2" horiz-adv-x="525" 
d="M16 85q227 196 295 257q41 36 63.5 59.5t36.5 51t14 60.5q0 48 -30.5 77t-84.5 29q-53 0 -88 -32t-49 -71l-76 34q23 61 79.5 105.5t144.5 44.5q55 0 99 -23t68.5 -62.5t24.5 -88.5q0 -48 -19.5 -88.5t-50 -74t-79.5 -76.5l-239 -206h321l-13 -81h-432z" />
    <glyph glyph-name="three" unicode="3" horiz-adv-x="536" 
d="M228 -16q-49 0 -94 19t-75.5 58t-37.5 94l82 32q7 -57 43 -89.5t92 -32.5q66 0 110.5 37.5t44.5 100.5q0 55 -34.5 85.5t-90.5 30.5h-59l14 79h54q68 0 108 32.5t40 89.5q0 44 -32 71.5t-79 27.5q-50 0 -82.5 -27t-51.5 -68l-75 35q26 62 80.5 101.5t137.5 39.5
q54 0 97 -21.5t67.5 -59.5t24.5 -85q0 -62 -33 -104.5t-88 -65.5v-4q38 -17 64 -56t26 -91q0 -68 -34.5 -120.5t-92.5 -80.5t-126 -28z" />
    <glyph glyph-name="four" unicode="4" horiz-adv-x="592" 
d="M353 147h-328l11 64l399 473h97l-80 -457h88l-14 -80h-88l-27 -147h-84zM367 227l59 332h-4l-276 -332h221z" />
    <glyph glyph-name="five" unicode="5" horiz-adv-x="563" 
d="M236 -16q-48 0 -94 21t-77 63t-36 101l81 30q5 -60 39.5 -97t91.5 -37q49 0 89.5 21t64 58.5t23.5 85.5q0 60 -34.5 96.5t-93.5 36.5q-36 0 -70 -16.5t-59 -45.5l-80 38l104 345h355l-14 -81h-285l-64 -207l4 -1q60 45 131 45q86 0 139 -54t53 -147q0 -69 -34 -127.5
t-95 -93t-139 -34.5z" />
    <glyph glyph-name="six" unicode="6" horiz-adv-x="558" 
d="M249 -16q-60 0 -109 27t-77.5 74.5t-28.5 106.5q0 63 27.5 114t90.5 122l238 272l59 -47l-206 -237l2 -2q37 20 76 20q52 0 94.5 -26t67 -73t24.5 -105q0 -73 -35.5 -129t-94.5 -86.5t-128 -30.5zM257 65q46 0 83.5 20t59 56t21.5 82q0 60 -38 97.5t-99 37.5
q-47 0 -84 -22t-58 -59t-21 -82q0 -56 40 -93t96 -37z" />
    <glyph glyph-name="seven" unicode="7" horiz-adv-x="529" 
d="M40 33l413 570h-347l15 81h438l-14 -87l-441 -613z" />
    <glyph glyph-name="eight" unicode="8" horiz-adv-x="552" 
d="M234 -16q-60 0 -107 24t-72.5 65t-25.5 91q0 66 40.5 117.5t106.5 77.5l1 4q-68 54 -68 130q0 55 31 103t85 76t120 28q83 0 133.5 -46t50.5 -122q0 -62 -34.5 -104.5t-84.5 -65.5l-1 -4q38 -19 63 -58.5t25 -86.5q0 -67 -36.5 -119.5t-97 -81t-129.5 -28.5zM304 398
q38 0 70 16t50.5 43t18.5 59q0 48 -30 75.5t-78 27.5q-58 0 -98.5 -34t-40.5 -88q0 -44 30.5 -71.5t77.5 -27.5zM242 65q42 0 80.5 17.5t63 50t24.5 75.5q0 49 -36.5 80t-91.5 31q-42 0 -80 -18.5t-61.5 -52t-23.5 -77.5q0 -47 35.5 -76.5t89.5 -29.5z" />
    <glyph glyph-name="nine" unicode="9" horiz-adv-x="557" 
d="M139 31l206 237l-2 2q-37 -20 -73 -20q-52 0 -95.5 26.5t-68.5 73t-25 104.5q0 73 35.5 129t94.5 86.5t128 30.5q60 0 109 -27t77.5 -74.5t28.5 -106.5q0 -63 -27.5 -114t-90.5 -122l-237 -272zM304 326q47 0 84 22t58 59t21 82q0 37 -18.5 66.5t-49.5 46.5t-67 17
q-46 0 -83.5 -20t-59.5 -56t-22 -82q0 -60 38.5 -97.5t98.5 -37.5z" />
    <glyph glyph-name="colon" unicode=":" horiz-adv-x="238" 
d="M154 388q-27 0 -45.5 18.5t-18.5 45.5t18.5 45.5t45.5 18.5q26 0 44.5 -18.5t18.5 -45.5t-18.5 -45.5t-44.5 -18.5zM84 -6q-27 0 -45.5 18.5t-18.5 45.5q0 26 18.5 44.5t45.5 18.5q26 0 44.5 -18.5t18.5 -44.5q0 -27 -18.5 -45.5t-44.5 -18.5z" />
    <glyph glyph-name="semicolon" unicode=";" horiz-adv-x="246" 
d="M153 388q-26 0 -44.5 18.5t-18.5 45.5t18.5 45.5t44.5 18.5q27 0 45.5 -18.5t18.5 -45.5t-18.5 -45.5t-45.5 -18.5zM-2 -64l67 80q-13 5 -25 20t-12 38q0 27 18.5 45.5t43.5 18.5q27 0 46 -18t19 -45q0 -15 -9 -29t-30 -40l-83 -99z" />
    <glyph glyph-name="less" unicode="&#x3c;" horiz-adv-x="497" 
d="M53 240l10 62l417 184l-14 -82l-316 -134l-1 -4l268 -137l-13 -73z" />
    <glyph glyph-name="equal" unicode="=" horiz-adv-x="568" 
d="M95 449h446l-12 -70h-446zM62 259h446l-13 -70h-446z" />
    <glyph glyph-name="greater" unicode="&#x3e;" horiz-adv-x="497" 
d="M38 138l316 134l1 4l-269 137l14 73l350 -184l-10 -62l-416 -184z" />
    <glyph glyph-name="question" unicode="?" horiz-adv-x="504" 
d="M202 259q8 52 31.5 84.5t83.5 77.5q45 33 71.5 65t26.5 71q0 42 -29.5 68t-77.5 26q-50 0 -84.5 -28t-48.5 -71l-74 33q23 65 78.5 106t140.5 41q52 0 94 -22t65.5 -59t23.5 -82q0 -59 -33.5 -103t-97.5 -93q-39 -30 -58.5 -57t-26.5 -63l-7 -42h-86zM209 -6
q-26 0 -44.5 18.5t-18.5 45.5q0 26 18.5 44.5t44.5 18.5q27 0 45.5 -18.5t18.5 -44.5q0 -27 -18.5 -45.5t-45.5 -18.5z" />
    <glyph glyph-name="at" unicode="@" horiz-adv-x="884" 
d="M399 -82q-97 0 -175.5 46.5t-122.5 126t-44 173.5q0 118 58 215.5t160 154t228 56.5q94 0 173 -41.5t125.5 -116t46.5 -170.5q0 -70 -22 -131t-63.5 -98t-96.5 -37q-39 0 -66.5 20.5t-37.5 55.5q-26 -36 -66 -56t-84 -20q-45 0 -84 22.5t-62.5 63t-23.5 92.5
q0 56 26.5 109.5t77.5 87t120 33.5q43 0 75.5 -18t48.5 -44h4l9 48h67l-46 -261q-2 -14 -2 -22q0 -20 13 -35t38 -15q32 0 56 29.5t37.5 76t13.5 96.5q0 79 -36.5 138.5t-102.5 92.5t-151 33q-102 0 -184.5 -46.5t-129.5 -127.5t-47 -181q0 -81 37 -145.5t100.5 -101
t139.5 -36.5t136 28l22 -62q-73 -33 -165 -33zM430 166q39 0 71.5 20.5t51.5 55.5t19 77q0 53 -30 84t-81 31q-42 0 -74.5 -21t-50.5 -57t-18 -79q0 -53 31.5 -82t80.5 -29z" />
    <glyph glyph-name="A" unicode="A" horiz-adv-x="669" 
d="M367 716h96l145 -716h-90l-36 197h-309l-108 -197h-95zM466 277l-50 258l-14 77h-4l-183 -335h251z" />
    <glyph glyph-name="B" unicode="B" horiz-adv-x="605" 
d="M161 716h244q57 0 99.5 -23.5t65 -63t22.5 -86.5q0 -63 -37 -107.5t-91 -63.5l-1 -4q96 -49 96 -150q0 -60 -33.5 -110t-91.5 -79t-129 -29h-271zM363 406q61 0 102 33.5t41 90.5q0 45 -28.5 75t-79.5 30h-167l-41 -229h173zM323 81q37 0 71.5 16t56 46.5t21.5 72.5
q0 50 -32.5 80t-87.5 30h-176l-43 -245h190z" />
    <glyph glyph-name="C" unicode="C" horiz-adv-x="740" 
d="M371 -16q-91 0 -162.5 40t-112 113t-40.5 169q0 110 57 208.5t156 158t220 59.5q81 0 146 -33.5t99 -86.5l-68 -56q-33 49 -78.5 72t-108.5 23q-91 0 -168.5 -48t-122.5 -126.5t-45 -166.5q0 -73 31 -128.5t85 -86t121 -30.5q73 0 128.5 27t111.5 81l55 -61
q-68 -66 -139 -97t-165 -31z" />
    <glyph glyph-name="D" unicode="D" horiz-adv-x="703" 
d="M161 716h216q97 0 166 -40t104.5 -109.5t35.5 -158.5q0 -109 -51 -202.5t-147 -149.5t-225 -56h-226zM265 81q93 0 169 42.5t119 116t43 162.5q0 113 -61.5 173t-172.5 60h-131l-98 -554h132z" />
    <glyph glyph-name="E" unicode="E" horiz-adv-x="550" 
d="M161 716h414l-14 -81h-330l-42 -237h298l-14 -80h-298l-42 -237h330l-15 -81h-414z" />
    <glyph glyph-name="F" unicode="F" horiz-adv-x="530" 
d="M161 716h414l-14 -81h-330l-43 -245h298l-14 -80h-298l-56 -310h-84z" />
    <glyph glyph-name="G" unicode="G" horiz-adv-x="814" 
d="M378 -16q-85 0 -158 40t-117.5 115t-44.5 174q0 113 55.5 209t155.5 153t226 57q79 0 145.5 -29.5t100.5 -80.5l-69 -58q-25 40 -77 63.5t-113 23.5q-93 0 -170.5 -44t-122 -120.5t-44.5 -169.5q0 -78 33 -135t89 -87t122 -30q67 0 122.5 23.5t96.5 66.5q57 59 78 147
h-259l14 79h344q0 -20 -5 -52q-19 -135 -110 -229q-111 -116 -292 -116z" />
    <glyph glyph-name="H" unicode="H" horiz-adv-x="698" 
d="M161 716h84l-55 -310h369l56 310h84l-127 -716h-84l57 326h-369l-58 -326h-84z" />
    <glyph glyph-name="I" unicode="I" horiz-adv-x="244" 
d="M161 716h84l-127 -716h-84z" />
    <glyph glyph-name="J" unicode="J" horiz-adv-x="531" 
d="M207 -16q-79 0 -132 45t-62 121l82 32q6 -61 39 -89t83 -28q60 0 103.5 42t54.5 107l88 502h84l-87 -496q-20 -117 -88 -176.5t-165 -59.5z" />
    <glyph glyph-name="K" unicode="K" horiz-adv-x="626" 
d="M161 716h84l-65 -374h4l385 374h112l-1 -4l-319 -306l213 -402l-1 -4h-99l-180 341l-138 -131l-38 -210h-84z" />
    <glyph glyph-name="L" unicode="L" horiz-adv-x="508" 
d="M161 716h84l-112 -635h314l-15 -81h-398z" />
    <glyph glyph-name="M" unicode="M" horiz-adv-x="866" 
d="M161 716h119l126 -587h4l331 587h126l-127 -716h-84l80 455l29 136h-4l-335 -591h-71l-132 591h-4l-20 -136l-81 -455h-84z" />
    <glyph glyph-name="N" unicode="N" horiz-adv-x="707" 
d="M161 716h97l265 -570h4l21 138l76 432h85l-127 -716h-81l-277 597h-4l-20 -138l-82 -459h-84z" />
    <glyph glyph-name="O" unicode="O" horiz-adv-x="825" 
d="M383 -16q-91 0 -165.5 41.5t-117.5 115.5t-43 168q0 110 54 207.5t150.5 156.5t218.5 59q90 0 164 -41.5t117 -115.5t43 -168q0 -110 -53.5 -207.5t-150 -156.5t-217.5 -59zM391 65q89 0 164 47.5t118.5 125t43.5 162.5q0 76 -32.5 133t-89 87.5t-125.5 30.5
q-89 0 -163.5 -47.5t-118 -125t-43.5 -162.5q0 -76 32.5 -133t88.5 -87.5t125 -30.5z" />
    <glyph glyph-name="P" unicode="P" horiz-adv-x="576" 
d="M161 716h235q56 0 100 -23.5t69 -65.5t25 -96q0 -73 -33.5 -127.5t-93.5 -83t-136 -28.5h-156l-53 -292h-84zM342 373q71 0 116 37.5t45 109.5q0 53 -32.5 84t-81.5 31h-158l-46 -262h157z" />
    <glyph glyph-name="Q" unicode="Q" horiz-adv-x="825" 
d="M553 20q-81 -36 -170 -36q-91 0 -165.5 41.5t-117.5 115.5t-43 168q0 110 54 207.5t150.5 156.5t218.5 59q90 0 164 -41.5t117 -115.5t43 -168q0 -103 -47 -194.5t-130 -150.5l33 -69l-75 -38zM391 65q63 0 125 27l-65 134l76 40l63 -127q58 48 92.5 117.5t34.5 143.5
q0 76 -32.5 133t-89 87.5t-125.5 30.5q-89 0 -163.5 -47.5t-118 -125t-43.5 -162.5q0 -76 32.5 -133t88.5 -87.5t125 -30.5z" />
    <glyph glyph-name="R" unicode="R" horiz-adv-x="586" 
d="M161 716h235q56 0 100 -24t69 -67t25 -99q0 -88 -57.5 -149t-151.5 -79l-3 -3l149 -291l-1 -4h-95l-146 292h-114l-53 -292h-84zM337 371q71 0 118.5 41t47.5 112q0 48 -32.5 79.5t-88.5 31.5h-151l-46 -264h152z" />
    <glyph glyph-name="S" unicode="S" horiz-adv-x="564" 
d="M249 -16q-88 0 -150 51.5t-76 142.5l81 33q8 -65 48 -105.5t107 -40.5q41 0 78.5 17.5t61 49.5t23.5 74q0 45 -30.5 74.5t-98.5 54.5l-43 16q-63 24 -103 67t-40 111q0 58 32.5 104t87 72.5t118.5 26.5q65 0 110 -23.5t68.5 -57.5t28.5 -67l-82 -30q-7 38 -38 67.5
t-93 29.5q-61 0 -102.5 -31.5t-41.5 -83.5q0 -41 28 -68t83 -48l43 -16q161 -60 161 -186q0 -70 -34 -123t-93.5 -82t-133.5 -29z" />
    <glyph glyph-name="T" unicode="T" horiz-adv-x="538" 
d="M293 635h-201l15 81h486l-15 -81h-200l-113 -635h-84z" />
    <glyph glyph-name="U" unicode="U" horiz-adv-x="661" 
d="M285 -16q-60 0 -110 26.5t-79.5 75t-29.5 113.5q0 44 8 94l75 423h84l-78 -443q-6 -35 -6 -61q0 -68 38 -107.5t112 -39.5q85 0 140.5 54.5t71.5 141.5l80 455h84l-82 -466q-22 -125 -101.5 -195.5t-206.5 -70.5z" />
    <glyph glyph-name="V" unicode="V" horiz-adv-x="631" 
d="M96 716h91l97 -590h4l314 590h96l-389 -716h-87z" />
    <glyph glyph-name="W" unicode="W" horiz-adv-x="944" 
d="M99 716h91l42 -575h4l275 575h88l67 -575h4l243 575h95l-316 -716h-88l-72 574h-4l-274 -574h-89z" />
    <glyph glyph-name="X" unicode="X" horiz-adv-x="629" 
d="M278 375l-168 341h99l131 -277h4l228 277h104l-290 -348l183 -368h-100l-146 299h-4l-249 -299h-100z" />
    <glyph glyph-name="Y" unicode="Y" horiz-adv-x="595" 
d="M270 331l-174 385h97l130 -300h4l233 300h102l-307 -385l-59 -331h-84z" />
    <glyph glyph-name="Z" unicode="Z" horiz-adv-x="571" 
d="M9 89l479 546h-367l14 81h468l-16 -89l-480 -546h388l-15 -81h-487z" />
    <glyph glyph-name="bracketleft" unicode="[" horiz-adv-x="318" 
d="M174 792h201l-12 -70h-124l-137 -776h124l-12 -70h-200z" />
    <glyph glyph-name="backslash" unicode="\" horiz-adv-x="298" 
d="M83 716h76l92 -716h-76z" />
    <glyph glyph-name="bracketright" unicode="]" horiz-adv-x="318" 
d="M-16 -54h123l136 776h-123l12 70h201l-161 -916h-200z" />
    <glyph glyph-name="asciicircum" unicode="^" horiz-adv-x="464" 
d="M304 634h-4l-167 -224h-94l241 306h67l133 -306h-85z" />
    <glyph glyph-name="underscore" unicode="_" horiz-adv-x="476" 
d="M405 -146l-12 -70h-476l13 70h475z" />
    <glyph glyph-name="grave" unicode="`" horiz-adv-x="397" 
d="M162 716h91l29 -127h-72z" />
    <glyph glyph-name="a" unicode="a" horiz-adv-x="531" 
d="M188 -16q-45 0 -83.5 20.5t-61 56t-22.5 79.5q0 85 62.5 135.5t171.5 50.5q40 0 78.5 -9.5t68.5 -25.5l6 30q3 17 3 29q0 45 -35.5 72.5t-89.5 27.5q-83 0 -137 -68l-66 47q36 46 91 71.5t121 25.5q92 0 144.5 -44.5t52.5 -119.5q0 -21 -5 -51l-56 -311h-81l13 72h-4
q-27 -40 -71 -64t-100 -24zM207 59q69 0 120 45.5t63 116.5q-31 18 -62 27t-78 9q-63 0 -102.5 -29.5t-39.5 -81.5q0 -40 28.5 -63.5t70.5 -23.5z" />
    <glyph glyph-name="b" unicode="b" horiz-adv-x="600" 
d="M283 -16q-56 0 -100.5 26.5t-66.5 65.5h-4l-13 -76h-80l126 716h85l-38 -211l-16 -71h4q24 39 69 65.5t106 26.5t110 -30.5t76.5 -84.5t27.5 -123q0 -81 -36.5 -151t-102 -111.5t-147.5 -41.5zM282 61q56 0 102 28.5t72.5 79t26.5 113.5q0 73 -42.5 120t-108.5 47
q-53 0 -97.5 -32t-70 -84.5t-25.5 -111.5q0 -73 41 -116.5t102 -43.5z" />
    <glyph glyph-name="c" unicode="c" horiz-adv-x="551" 
d="M256 -16q-65 0 -115.5 32t-78.5 86t-28 117q0 85 38 155t106 111t154 41q82 0 134 -41t69 -100l-79 -31q-14 45 -48.5 70t-85.5 25q-55 0 -101 -29t-73 -80t-27 -115q0 -70 40.5 -117t106.5 -47q52 0 93 25.5t66 71.5l68 -33q-40 -72 -97.5 -106.5t-141.5 -34.5z" />
    <glyph glyph-name="d" unicode="d" horiz-adv-x="600" 
d="M236 -16q-59 0 -106.5 28.5t-74.5 81t-27 121.5q0 85 38 156t105.5 113t151.5 42q57 0 99.5 -27t62.5 -66h4l8 71l38 212h84l-127 -716h-80l13 75h-4q-29 -42 -75 -66.5t-110 -24.5zM259 61q56 0 102.5 31t73 83.5t26.5 115.5q0 72 -41 115t-103 43q-58 0 -104 -29.5
t-72 -81.5t-26 -115q0 -74 40.5 -118t103.5 -44z" />
    <glyph glyph-name="e" unicode="e" horiz-adv-x="564" 
d="M261 -16q-69 0 -121 31.5t-79.5 85t-27.5 117.5q0 80 36 151t102 114t151 43q66 0 114 -29t73 -78.5t25 -107.5q0 -43 -9 -72h-404q-2 -20 -2 -32q0 -44 20.5 -77.5t54 -51t71.5 -17.5q59 0 100.5 24.5t69.5 70.5l65 -37q-38 -66 -99 -100.5t-140 -34.5zM449 309v14
q0 33 -16 62t-47 46.5t-74 17.5q-64 0 -111.5 -39.5t-65.5 -100.5h314z" />
    <glyph glyph-name="f" unicode="f" horiz-adv-x="380" 
d="M154 433h-95l14 77h95l9 55q13 74 65.5 116.5t125.5 42.5q43 0 74 -12l-15 -83q-30 16 -69 16q-34 0 -62 -23t-35 -66l-8 -46h130l-13 -77h-131l-77 -433h-84z" />
    <glyph glyph-name="g" unicode="g" horiz-adv-x="597" 
d="M207 -232q-58 0 -101.5 21t-69.5 53.5t-33 68.5l82 33q11 -44 45 -71.5t89 -27.5q79 0 130 47t65 129l10 56h-4q-29 -42 -73 -64.5t-108 -22.5q-57 0 -104 28.5t-74 81t-27 119.5q0 81 36 151.5t101.5 113t150.5 42.5q58 0 101 -25t61 -64h4l13 73h81l-87 -494
q-22 -126 -98 -187t-190 -61zM257 67q58 0 104.5 31t72.5 82.5t26 110.5q0 72 -39 115t-100 43q-60 0 -106 -30t-71 -81.5t-25 -114.5q0 -73 39 -114.5t99 -41.5z" />
    <glyph glyph-name="h" unicode="h" horiz-adv-x="561" 
d="M145 716h85l-38 -211l-16 -70h4q28 41 73 66t102 25q78 0 121 -41.5t43 -109.5q0 -32 -7 -68l-55 -307h-84l54 307q6 27 6 49q0 42 -29.5 67.5t-77.5 25.5q-63 0 -111 -48t-62 -124l-49 -277h-85z" />
    <glyph glyph-name="i" unicode="i" horiz-adv-x="226" 
d="M186 604q-25 0 -43 18t-18 43q0 26 18 43.5t43 17.5q26 0 43.5 -17.5t17.5 -43.5q0 -25 -17.5 -43t-43.5 -18zM115 510h85l-90 -510h-84z" />
    <glyph glyph-name="j" unicode="j" horiz-adv-x="226" 
d="M186 604q-25 0 -43 18t-18 43q0 26 18 43.5t43 17.5q26 0 43.5 -17.5t17.5 -43.5q0 -25 -17.5 -43t-43.5 -18zM-64 -226q-24 0 -50 8l14 79q7 -4 19.5 -7t22.5 -3q58 0 70 71l104 588h85l-105 -592q-14 -79 -54.5 -111.5t-105.5 -32.5z" />
    <glyph glyph-name="k" unicode="k" horiz-adv-x="507" 
d="M147 716h84l-78 -444l275 238h115l-1 -4l-238 -202l152 -300l-1 -4h-99l-120 246l-103 -88l-28 -158h-84z" />
    <glyph glyph-name="l" unicode="l" horiz-adv-x="212" 
d="M145 716h84l-126 -716h-84z" />
    <glyph glyph-name="m" unicode="m" horiz-adv-x="876" 
d="M189 510l-13 -75h4q27 43 69.5 67t99.5 24q56 0 93 -26t50 -73q28 46 77 72.5t110 26.5q74 0 115 -38.5t41 -101.5q0 -27 -9 -77l-54 -309h-84l55 314q5 30 5 49q0 41 -25 63.5t-73 22.5q-60 0 -104.5 -48t-57.5 -121l-50 -280h-85l55 313q5 30 5 48q0 41 -26 64.5
t-71 23.5q-60 0 -105.5 -49.5t-57.5 -121.5l-49 -278h-85l90 510h80z" />
    <glyph glyph-name="n" unicode="n" horiz-adv-x="561" 
d="M180 435q27 41 72 66t103 25q76 0 119.5 -41.5t43.5 -109.5q0 -40 -6 -71l-54 -304h-85l54 306q6 38 6 50q0 44 -29.5 68.5t-78.5 24.5q-62 0 -110 -46t-60 -116l-51 -287h-85l90 510h80l-13 -75h4z" />
    <glyph glyph-name="o" unicode="o" horiz-adv-x="595" 
d="M265 -16q-67 0 -119.5 32t-81.5 87.5t-29 123.5q0 83 36.5 151t104 108t154.5 40q68 0 120.5 -32t81 -87.5t28.5 -123.5q0 -83 -36.5 -151.5t-104 -108t-154.5 -39.5zM275 61q58 0 103.5 29.5t70.5 79t25 108.5q0 74 -42.5 122.5t-111.5 48.5q-58 0 -103.5 -29.5
t-70.5 -79t-25 -108.5q0 -75 42.5 -123t111.5 -48z" />
    <glyph glyph-name="p" unicode="p" horiz-adv-x="601" 
d="M109 510h80l-13 -75h4q29 42 75.5 66.5t109.5 24.5q59 0 106.5 -28.5t74.5 -81t27 -122.5q0 -84 -38 -155.5t-105.5 -113t-151.5 -41.5q-56 0 -99 26.5t-62 65.5h-4l-9 -71l-39 -221h-85zM285 61q58 0 104 29.5t72 81.5t26 115q0 74 -40.5 118t-104.5 44q-56 0 -102 -31
t-72.5 -84t-26.5 -117q0 -72 41 -114t103 -42z" />
    <glyph glyph-name="q" unicode="q" horiz-adv-x="597" 
d="M403 5l17 70h-4q-23 -41 -67.5 -66t-107.5 -25q-62 0 -111 30t-77 84.5t-28 123.5q0 80 37 150t102.5 112t147.5 42q57 0 101 -26.5t66 -65.5h4l14 76h79l-126 -726h-85zM263 61q53 0 97.5 32t70 84.5t25.5 111.5q0 73 -41.5 116.5t-103.5 43.5q-55 0 -101 -28.5
t-72.5 -79t-26.5 -113.5q0 -74 42.5 -120.5t109.5 -46.5z" />
    <glyph glyph-name="r" unicode="r" horiz-adv-x="375" 
d="M109 510h80l-13 -76h4q20 42 66.5 66.5t97.5 24.5q36 0 59 -10l-17 -93q-25 17 -69 17q-36 0 -71.5 -21t-60 -56.5t-31.5 -76.5l-50 -285h-85z" />
    <glyph glyph-name="s" unicode="s" horiz-adv-x="468" 
d="M209 -16q-81 0 -134 39t-70 101l81 32q10 -46 47 -71.5t84 -25.5q49 0 80.5 23t31.5 58q0 31 -21 51.5t-65 31.5l-51 13q-61 16 -96.5 50t-35.5 86q0 43 25.5 78.5t71.5 55.5t103 20q68 0 119.5 -32t68.5 -84l-81 -31q-12 32 -41.5 51.5t-70.5 19.5q-48 0 -77.5 -20
t-29.5 -52q0 -22 19 -41t55 -28l66 -17q60 -15 94.5 -52t34.5 -90q0 -75 -55.5 -120.5t-152.5 -45.5z" />
    <glyph glyph-name="t" unicode="t" horiz-adv-x="366" 
d="M213 -8q-53 0 -86 30.5t-33 80.5q0 23 5 49l50 281h-90l14 77h89l26 144h84l-25 -144h125l-14 -77h-125l-48 -271q-4 -23 -4 -39q0 -25 15.5 -38.5t41.5 -13.5q32 0 61 17l-14 -83q-32 -13 -72 -13z" />
    <glyph glyph-name="u" unicode="u" horiz-adv-x="561" 
d="M382 74q-27 -41 -72 -65.5t-103 -24.5q-76 0 -120 41.5t-44 109.5q0 33 7 71l54 304h84l-54 -306q-5 -25 -5 -50q0 -44 29.5 -68.5t77.5 -24.5q62 0 110 45.5t61 115.5l51 288h84l-89 -510h-81l14 74h-4z" />
    <glyph glyph-name="v" unicode="v" horiz-adv-x="514" 
d="M52 510h90l85 -410h2l231 410h92l-298 -510h-87z" />
    <glyph glyph-name="w" unicode="w" horiz-adv-x="778" 
d="M52 510h86l48 -403h1l200 403h90l59 -402h1l190 402h89l-254 -510h-89l-58 407l-203 -407h-86z" />
    <glyph glyph-name="x" unicode="x" horiz-adv-x="486" 
d="M192 261l-129 249h96l94 -188h1l157 188h103l-222 -254l136 -256h-96l-98 196h-1l-163 -196h-102z" />
    <glyph glyph-name="y" unicode="y" horiz-adv-x="516" 
d="M179 33l-127 477h89l95 -379h2l222 379h94l-444 -726h-90z" />
    <glyph glyph-name="z" unicode="z" horiz-adv-x="481" 
d="M366 433h-290l14 77h397l-13 -73l-362 -360h301l-14 -77h-406l12 73z" />
    <glyph glyph-name="braceleft" unicode="{" horiz-adv-x="314" 
d="M193 -124q-61 0 -99 34.5t-38 89.5q0 21 3 39l31 176q2 14 2 21q0 31 -16 47t-45 16l12 70q33 0 57 21t32 64l31 175q14 81 59.5 122t128.5 41h25l-12 -70h-22q-41 0 -67.5 -25t-34.5 -71l-32 -175q-9 -49 -29.5 -76t-57.5 -39l-1 -4q26 -10 39 -29t13 -50q0 -17 -4 -36
l-32 -176q-3 -18 -3 -26q0 -33 20.5 -51t52.5 -18h21l-12 -70h-22z" />
    <glyph glyph-name="bar" unicode="|" horiz-adv-x="237" 
d="M175 792h77l-161 -912h-77z" />
    <glyph glyph-name="braceright" unicode="}" horiz-adv-x="314" 
d="M-22 -54h22q41 0 67.5 25t34.5 71l32 175q9 49 29.5 76t57.5 39l1 4q-26 10 -39 29t-13 50q0 17 4 36l32 176q3 18 3 26q0 33 -20 51t-53 18h-21l12 70h22q61 0 99 -34.5t38 -89.5q0 -21 -3 -39l-31 -176q-2 -14 -2 -21q0 -31 16 -47t45 -16l-12 -70q-33 0 -57 -21
t-32 -64l-31 -175q-14 -81 -59.5 -122t-127.5 -41h-26z" />
    <glyph glyph-name="asciitilde" unicode="~" horiz-adv-x="536" 
d="M380 236q-27 0 -53 9t-62 27q-36 17 -56.5 24.5t-41.5 7.5q-25 0 -42 -16.5t-23 -38.5h-66q7 62 42.5 96.5t95.5 34.5q27 0 53 -9t62 -27q36 -17 56.5 -24.5t41.5 -7.5q25 0 42 16.5t22 38.5h67q-8 -62 -43 -96.5t-95 -34.5z" />
    <glyph glyph-name="uni00A0" unicode="&#xa0;" horiz-adv-x="224" 
 />
    <glyph glyph-name="exclamdown" unicode="&#xa1;" horiz-adv-x="238" 
d="M156 398q-27 0 -45.5 18.5t-18.5 45.5t18.5 45.5t45.5 18.5q26 0 44.5 -18.5t18.5 -45.5t-18.5 -45.5t-44.5 -18.5zM38 27l59 277h65l-39 -277l-43 -243h-85z" />
    <glyph glyph-name="cent" unicode="&#xa2;" horiz-adv-x="531" 
d="M223 86q-77 13 -124.5 75.5t-47.5 148.5q0 77 34 141t94 103t135 45l15 85h70l-16 -87q62 -11 100.5 -48t53.5 -87l-80 -32q-23 75 -87 90l-63 -359q40 8 68 31t52 63l70 -33q-41 -66 -88 -99t-116 -39l-15 -84h-70zM300 523q-72 -11 -118 -69.5t-46 -137.5
q0 -57 27 -98.5t74 -55.5z" />
    <glyph glyph-name="sterling" unicode="&#xa3;" horiz-adv-x="525" 
d="M10 73q55 26 91.5 71t36.5 96l-1 9h-96l12 71h68q-2 6 -4.5 14t-5.5 17q-14 41 -21.5 70t-7.5 62q0 58 28 108t81 79.5t123 29.5q78 0 122 -39.5t60 -101.5l-82 -32q-11 42 -37 67t-75 25q-58 0 -96 -39.5t-38 -97.5q0 -27 7 -52.5t21 -63.5q4 -10 16 -46h141l-12 -71
h-119v-5q-1 -46 -25 -86.5t-64 -72.5l4 -4h183q37 0 59.5 15t38.5 44l65 -29q-27 -56 -69 -83.5t-109 -27.5h-308z" />
    <glyph glyph-name="currency" unicode="&#xa4;" horiz-adv-x="593" 
d="M72 143l60 58q-38 57 -38 124q0 69 38 124l-60 59l49 50l59 -57q56 43 129 43q72 0 129 -43l59 57l49 -50l-59 -58q37 -55 37 -125q0 -68 -37 -124l59 -58l-49 -50l-59 57q-59 -44 -129 -44q-72 0 -129 44l-59 -57zM309 180q37 0 69 19.5t50.5 53t18.5 72.5t-18.5 72.5
t-50.5 53t-69 19.5t-69 -19.5t-50.5 -53t-18.5 -72.5t18.5 -72.5t50.5 -53t69 -19.5z" />
    <glyph glyph-name="yen" unicode="&#xa5;" horiz-adv-x="572" 
d="M230 169h-170l12 70h171l15 85h-170l12 70h125l-134 290h93l124 -289h4l222 289h98l-233 -290h122l-12 -70h-167l-15 -85h167l-13 -70h-166l-30 -169h-85z" />
    <glyph glyph-name="brokenbar" unicode="&#xa6;" horiz-adv-x="237" 
d="M169 756h77l-67 -380h-77zM87 292h77l-73 -412h-77z" />
    <glyph glyph-name="section" unicode="&#xa7;" horiz-adv-x="545" 
d="M204 -232q-54 0 -100.5 22.5t-76.5 65.5t-35 102l80 32q7 -62 42.5 -101.5t98.5 -39.5q60 0 101.5 32t41.5 88q0 47 -31.5 75t-99.5 50l-4 1q-75 24 -117.5 67t-42.5 103q0 50 33.5 92.5t84.5 65.5q-29 23 -46.5 55.5t-17.5 70.5q0 50 27 92t77 66.5t116 24.5
q83 0 132 -42t63 -103l-83 -32q-6 38 -35.5 67t-84.5 29q-49 0 -86.5 -25.5t-37.5 -66.5q0 -37 30 -63t93 -50l4 -1q81 -32 124.5 -75.5t43.5 -108.5q0 -54 -27.5 -94.5t-75.5 -67.5q49 -46 49 -119q0 -58 -30 -106.5t-84.5 -77t-125.5 -28.5zM331 142q33 17 55.5 44.5
t22.5 60.5q0 41 -33 73.5t-97 53.5l-19 6q-45 -12 -77.5 -41t-32.5 -68q0 -35 27.5 -58t83.5 -42q43 -15 70 -29z" />
    <glyph glyph-name="dieresis" unicode="&#xa8;" horiz-adv-x="392" 
d="M165 605q-21 0 -37.5 16.5t-16.5 37.5q0 23 16 38.5t38 15.5q23 0 38.5 -15.5t15.5 -38.5q0 -22 -15.5 -38t-38.5 -16zM329 605q-21 0 -37 16.5t-16 37.5q0 23 16 38.5t37 15.5q23 0 38.5 -15.5t15.5 -38.5q0 -22 -15.5 -38t-38.5 -16z" />
    <glyph glyph-name="copyright" unicode="&#xa9;" horiz-adv-x="530" 
d="M308 272q-62 0 -115 31t-84 84t-31 115t31 115t84 84t115 31t115 -31t84 -84t31 -115t-31 -115t-84 -84t-115 -31zM308 318q50 0 92.5 25t67 67.5t24.5 91.5q0 50 -24.5 92.5t-67 67t-92.5 24.5q-49 0 -91.5 -24.5t-67.5 -67t-25 -92.5q0 -49 25 -91.5t67.5 -67.5
t91.5 -25zM312 383q-50 0 -84.5 35t-34.5 84q0 50 34 84.5t85 34.5q28 0 48 -10t39 -29l-31 -28q-11 13 -23.5 19t-32.5 6q-30 0 -52 -22.5t-22 -54.5t22 -54.5t52 -22.5q37 0 61 32l33 -26q-36 -48 -94 -48z" />
    <glyph glyph-name="ordfeminine" unicode="&#xaa;" horiz-adv-x="474" 
d="M220 272q-67 0 -109.5 36t-42.5 96q0 49 29.5 86t77.5 56.5t103 19.5q70 0 128 -30l2 16q1 9 1 19q0 41 -28 65t-70 24q-81 0 -121 -55l-62 36q24 40 72 65.5t117 25.5q73 0 122 -41.5t49 -108.5q0 -18 -3 -36l-46 -260h-78l12 65h-4q-26 -35 -65 -57t-84 -22zM236 342
q57 0 102.5 37t55.5 93q-26 16 -52 24t-62 8q-50 0 -88.5 -23.5t-38.5 -69.5q0 -33 25.5 -51t57.5 -18z" />
    <glyph glyph-name="guillemotleft" unicode="&#xab;" horiz-adv-x="548" 
d="M204 54l-162 217l238 217l44 -49l-189 -173l124 -167zM404 54l-162 217l238 217l44 -49l-189 -173l124 -167z" />
    <glyph glyph-name="logicalnot" unicode="&#xac;" horiz-adv-x="573" 
d="M429 312h-363l12 70h430l-48 -277h-68z" />
    <glyph glyph-name="uni00AD" unicode="&#xad;" horiz-adv-x="427" 
d="M388 345l-12 -70h-318l12 70h318z" />
    <glyph glyph-name="registered" unicode="&#xae;" horiz-adv-x="530" 
d="M308 272q-62 0 -115 31t-84 84t-31 115t31 115t84 84t115 31t115 -31t84 -84t31 -115t-31 -115t-84 -84t-115 -31zM308 318q50 0 92.5 25t67 67.5t24.5 91.5q0 50 -24.5 92.5t-67 67t-92.5 24.5q-49 0 -91.5 -24.5t-67.5 -67t-25 -92.5q0 -49 25 -91.5t67.5 -67.5
t91.5 -25zM232 615h94q30 0 52 -21t22 -51q0 -23 -14.5 -41t-36.5 -24l-2 -2l60 -85v-2h-49l-56 85h-26v-85h-44v226zM323 514q13 0 23 8t10 21q0 12 -9.5 21t-23.5 9h-47v-59h47z" />
    <glyph glyph-name="macron" unicode="&#xaf;" horiz-adv-x="399" 
d="M120 692h276l-12 -66h-276z" />
    <glyph glyph-name="degree" unicode="&#xb0;" horiz-adv-x="323" 
d="M203 442q-49 0 -83.5 32.5t-34.5 81.5q0 63 41 103.5t105 40.5q48 0 83 -32.5t35 -81.5q0 -63 -41 -103.5t-105 -40.5zM209 501q31 0 53.5 23t22.5 55q0 27 -17 44.5t-43 17.5q-31 0 -53.5 -22.5t-22.5 -55.5q0 -27 17 -44.5t43 -17.5z" />
    <glyph glyph-name="plusminus" unicode="&#xb1;" horiz-adv-x="544" 
d="M245 299h-182l12 70h182l28 157h70l-28 -157h183l-12 -70h-183l-28 -157h-70zM23 70h434l-13 -70h-433z" />
    <glyph glyph-name="uni00B2" unicode="&#xb2;" horiz-adv-x="302" 
d="M53 406l159 136q55 43 55 78q0 21 -14 33t-36 12q-49 0 -72 -61l-55 25q13 45 49.5 70t83.5 25q49 0 80.5 -27.5t31.5 -69.5q0 -37 -19 -63t-58 -59l-113 -96h155l-11 -59h-246z" />
    <glyph glyph-name="uni00B3" unicode="&#xb3;" horiz-adv-x="321" 
d="M180 342q-45 0 -79.5 25.5t-42.5 73.5l60 22q16 -62 69 -62q30 0 50.5 17.5t20.5 43.5q0 24 -16.5 37t-46.5 13h-32l10 56h36q27 0 46 15.5t19 39.5q0 20 -13.5 31t-33.5 11q-43 0 -68 -45l-54 23q14 37 48.5 59t80.5 22q48 0 78 -26t30 -65q0 -29 -20 -55t-47 -36
q23 -11 36.5 -31t13.5 -47q0 -52 -41.5 -87t-103.5 -35z" />
    <glyph glyph-name="acute" unicode="&#xb4;" horiz-adv-x="397" 
d="M266 716h95l-93 -127h-77z" />
    <glyph glyph-name="mu" unicode="&#xb5;" horiz-adv-x="561" 
d="M104 510h84l-55 -315q-4 -21 -4 -41q0 -45 29 -69t78 -24q63 0 111 46t60 115l51 288h84l-89 -510h-81l14 74h-4q-27 -39 -73 -64.5t-104 -25.5q-30 0 -58 12.5t-42 32.5h-4l-7 -60l-34 -185h-84z" />
    <glyph glyph-name="paragraph" unicode="&#xb6;" horiz-adv-x="614" 
d="M288 296h-44q-60 0 -111.5 25.5t-82 73.5t-30.5 111t30.5 111t82 73.5t111.5 25.5h288v-932h-78v851h-88v-851h-78v512z" />
    <glyph glyph-name="periodcentered" unicode="&#xb7;" horiz-adv-x="166" 
d="M95 260q-26 0 -44.5 18.5t-18.5 45.5t18.5 45.5t44.5 18.5q27 0 45.5 -18.5t18.5 -45.5t-18.5 -45.5t-45.5 -18.5z" />
    <glyph glyph-name="cedilla" unicode="&#xb8;" horiz-adv-x="403" 
d="M85 -237q-33 0 -58.5 19.5t-31.5 47.5l53 22q2 -15 13.5 -25.5t27.5 -10.5q21 0 35.5 13.5t14.5 36.5q0 16 -11 27t-28 11q-19 0 -36 -17l-41 20l51 93h53l-29 -49q15 3 22 3q34 0 55 -24.5t21 -63.5q0 -45 -30.5 -74t-80.5 -29z" />
    <glyph glyph-name="uni00B9" unicode="&#xb9;" horiz-adv-x="239" 
d="M184 629l-56 -41l-31 49l112 79h56l-65 -366h-65z" />
    <glyph glyph-name="ordmasculine" unicode="&#xba;" horiz-adv-x="515" 
d="M269 272q-56 0 -100 25t-68.5 70t-24.5 102q0 66 32.5 127t91.5 98.5t134 37.5q87 0 139.5 -53.5t52.5 -142.5q0 -70 -34.5 -131t-93.5 -97t-129 -36zM276 346q45 0 83.5 23.5t61 65.5t22.5 96q0 56 -35 91.5t-84 35.5q-46 0 -84 -25t-59.5 -67t-21.5 -92
q0 -57 33.5 -92.5t83.5 -35.5z" />
    <glyph glyph-name="guillemotright" unicode="&#xbb;" horiz-adv-x="548" 
d="M152 488l161 -217l-238 -217l-43 49l188 173l-124 167zM352 488l161 -217l-238 -217l-43 49l188 173l-124 167z" />
    <glyph glyph-name="onequarter" unicode="&#xbc;" horiz-adv-x="704" 
d="M209 629l-56 -41l-31 49l112 79h56l-65 -366h-65zM662 723l49 -40l-589 -691l-52 41zM526 74h-171l7 44l220 248h61l-42 -236h49l-10 -56h-49l-13 -74h-65zM536 130l23 132h-4l-117 -132h98z" />
    <glyph glyph-name="onehalf" unicode="&#xbd;" horiz-adv-x="774" 
d="M209 629l-56 -41l-31 49l112 79h56l-65 -366h-65zM661 723l49 -40l-589 -691l-52 41zM465 56l159 136q55 43 55 78q0 21 -14 33t-36 12q-49 0 -72 -61l-55 25q13 45 49.5 70t83.5 25q49 0 80.5 -27.5t31.5 -69.5q0 -37 -19 -63t-58 -59l-113 -96h155l-11 -59h-246z" />
    <glyph glyph-name="threequarters" unicode="&#xbe;" horiz-adv-x="824" 
d="M223 342q-45 0 -79.5 25.5t-42.5 73.5l60 22q16 -62 69 -62q30 0 50.5 17.5t20.5 43.5q0 24 -16.5 37t-46.5 13h-32l10 56h36q27 0 46 15.5t19 39.5q0 20 -13.5 31t-33.5 11q-43 0 -68 -45l-54 23q14 37 48.5 59t80.5 22q48 0 78 -26t30 -65q0 -29 -20 -55t-47 -36
q23 -11 36.5 -31t13.5 -47q0 -52 -41.5 -87t-103.5 -35zM748 723l49 -40l-589 -691l-52 41zM639 74h-171l7 44l220 248h61l-42 -236h49l-10 -56h-49l-13 -74h-65zM649 130l23 132h-4l-117 -132h98z" />
    <glyph glyph-name="questiondown" unicode="&#xbf;" horiz-adv-x="505" 
d="M297 398q-26 0 -44.5 18.5t-18.5 45.5t18.5 45.5t44.5 18.5q27 0 45.5 -18.5t18.5 -45.5t-18.5 -45.5t-45.5 -18.5zM183 -232q-52 0 -94 22t-65.5 59t-23.5 82q0 59 33.5 103t97.5 93q39 30 58.5 57t25.5 63l11 57h86l-11 -63q-9 -51 -32.5 -84t-83.5 -78
q-46 -34 -72 -66t-26 -70q0 -42 29.5 -68t78.5 -26q50 0 84.5 28t48.5 71l74 -33q-23 -65 -78.5 -106t-140.5 -41z" />
    <glyph glyph-name="Agrave" unicode="&#xc0;" horiz-adv-x="669" 
d="M367 716h96l145 -716h-90l-36 197h-309l-108 -197h-95zM466 277l-50 258l-14 77h-4l-183 -335h251zM334 900h91l29 -127h-72z" />
    <glyph glyph-name="Aacute" unicode="&#xc1;" horiz-adv-x="669" 
d="M367 716h96l145 -716h-90l-36 197h-309l-108 -197h-95zM466 277l-50 258l-14 77h-4l-183 -335h251zM459 900h95l-93 -127h-77z" />
    <glyph glyph-name="Acircumflex" unicode="&#xc2;" horiz-adv-x="669" 
d="M367 716h96l145 -716h-90l-36 197h-309l-108 -197h-95zM466 277l-50 258l-14 77h-4l-183 -335h251zM280 784l123 116h75l81 -116l-1 -5h-76l-44 63h-8l-63 -63h-88z" />
    <glyph glyph-name="Atilde" unicode="&#xc3;" horiz-adv-x="669" 
d="M367 716h96l145 -716h-90l-36 197h-309l-108 -197h-95zM466 277l-50 258l-14 77h-4l-183 -335h251zM498 780q-17 0 -32 6t-34 18q-18 11 -31.5 17t-29.5 6q-33 0 -42 -37h-70q8 56 38 85t74 29q17 0 32.5 -6t34.5 -18q18 -11 31.5 -17t28.5 -6q33 0 42 37h70
q-7 -56 -37.5 -85t-74.5 -29z" />
    <glyph glyph-name="Adieresis" unicode="&#xc4;" horiz-adv-x="669" 
d="M367 716h96l145 -716h-90l-36 197h-309l-108 -197h-95zM466 277l-50 258l-14 77h-4l-183 -335h251zM352 789q-21 0 -37.5 16.5t-16.5 37.5q0 23 16 38.5t38 15.5q23 0 38.5 -15.5t15.5 -38.5q0 -22 -15.5 -38t-38.5 -16zM516 789q-21 0 -37 16.5t-16 37.5q0 23 16 38.5
t37 15.5q23 0 38.5 -15.5t15.5 -38.5q0 -22 -15.5 -38t-38.5 -16z" />
    <glyph glyph-name="Aring" unicode="&#xc5;" horiz-adv-x="669" 
d="M347 680q-15 15 -24 34.5t-9 41.5q0 43 30 73t73 30t73.5 -30t30.5 -73q0 -26 -13 -49.5t-35 -37.5l135 -669h-90l-36 197h-309l-108 -197h-95zM417 712q18 0 31 13t13 31t-13 31t-31 13t-30.5 -13t-12.5 -31t12.5 -31t30.5 -13zM466 277l-64 333h-5l-182 -333h251z" />
    <glyph glyph-name="AE" unicode="&#xc6;" horiz-adv-x="959" 
d="M487 716h469l-14 -81h-330l-42 -237h298l-14 -80h-298l-42 -237h330l-15 -81h-414l35 197h-262l-152 -197h-102zM464 277l63 358h-4l-275 -358h216z" />
    <glyph glyph-name="Ccedilla" unicode="&#xc7;" horiz-adv-x="740" 
d="M351 -49q15 3 22 3q34 0 55 -24.5t21 -63.5q0 -45 -30.5 -74t-80.5 -29q-33 0 -58.5 19.5t-31.5 47.5l53 22q2 -15 13.5 -25.5t27.5 -10.5q21 0 35.5 13.5t14.5 36.5q0 16 -11 27t-28 11q-19 0 -36 -17l-41 20l44 80q-78 11 -138 53.5t-93 110.5t-33 155q0 110 57 208.5
t156 158t220 59.5q81 0 146 -33.5t99 -86.5l-68 -56q-33 49 -78.5 72t-108.5 23q-91 0 -168.5 -48t-122.5 -126.5t-45 -166.5q0 -73 31 -128.5t85 -86t121 -30.5q73 0 128.5 27t111.5 81l55 -61q-68 -66 -139 -97t-165 -31z" />
    <glyph glyph-name="Egrave" unicode="&#xc8;" horiz-adv-x="550" 
d="M161 716h414l-14 -81h-330l-42 -237h298l-14 -80h-298l-42 -237h330l-15 -81h-414zM296 900h91l29 -127h-72z" />
    <glyph glyph-name="Eacute" unicode="&#xc9;" horiz-adv-x="550" 
d="M161 716h414l-14 -81h-330l-42 -237h298l-14 -80h-298l-42 -237h330l-15 -81h-414zM421 900h95l-93 -127h-77z" />
    <glyph glyph-name="Ecircumflex" unicode="&#xca;" horiz-adv-x="550" 
d="M161 716h414l-14 -81h-330l-42 -237h298l-14 -80h-298l-42 -237h330l-15 -81h-414zM242 784l123 116h75l81 -116l-1 -5h-76l-44 63h-8l-63 -63h-88z" />
    <glyph glyph-name="Edieresis" unicode="&#xcb;" horiz-adv-x="550" 
d="M161 716h414l-14 -81h-330l-42 -237h298l-14 -80h-298l-42 -237h330l-15 -81h-414zM314 789q-21 0 -37.5 16.5t-16.5 37.5q0 23 16 38.5t38 15.5q23 0 38.5 -15.5t15.5 -38.5q0 -22 -15.5 -38t-38.5 -16zM478 789q-21 0 -37 16.5t-16 37.5q0 23 16 38.5t37 15.5
q23 0 38.5 -15.5t15.5 -38.5q0 -22 -15.5 -38t-38.5 -16z" />
    <glyph glyph-name="Igrave" unicode="&#xcc;" horiz-adv-x="244" 
d="M161 716h84l-127 -716h-84zM125 900h91l29 -127h-72z" />
    <glyph glyph-name="Iacute" unicode="&#xcd;" horiz-adv-x="244" 
d="M161 716h84l-127 -716h-84zM250 900h95l-93 -127h-77z" />
    <glyph glyph-name="Icircumflex" unicode="&#xce;" horiz-adv-x="244" 
d="M161 716h84l-127 -716h-84zM71 784l123 116h75l81 -116l-1 -5h-76l-44 63h-8l-63 -63h-88z" />
    <glyph glyph-name="Idieresis" unicode="&#xcf;" horiz-adv-x="245" 
d="M155 790q-22 0 -38 16t-16 38q0 23 16 38.5t38 15.5q23 0 38 -15.5t15 -38.5q0 -22 -15 -38t-38 -16zM287 790q-21 0 -37 16t-16 38q0 23 16 38.5t37 15.5q23 0 38.5 -15.5t15.5 -38.5q0 -22 -15.5 -38t-38.5 -16zM161 716h84l-127 -716h-84z" />
    <glyph glyph-name="Eth" unicode="&#xd0;" horiz-adv-x="733" 
d="M121 322h-75l11 70h76l58 324h216q97 0 166 -40t104.5 -109.5t35.5 -158.5q0 -109 -51 -202.5t-147 -149.5t-225 -56h-226zM295 81q93 0 169 42.5t119 116t43 162.5q0 113 -61.5 173t-172.5 60h-131l-43 -243h203l-12 -70h-204l-42 -241h132z" />
    <glyph glyph-name="Ntilde" unicode="&#xd1;" horiz-adv-x="707" 
d="M161 716h97l265 -570h4l21 138l76 432h85l-127 -716h-81l-277 597h-4l-20 -138l-82 -459h-84zM520 780q-17 0 -32 6t-34 18q-18 11 -31.5 17t-29.5 6q-33 0 -42 -37h-70q8 56 38 85t74 29q17 0 32.5 -6t34.5 -18q18 -11 31.5 -17t28.5 -6q33 0 42 37h70q-7 -56 -37.5 -85
t-74.5 -29z" />
    <glyph glyph-name="Ograve" unicode="&#xd2;" horiz-adv-x="825" 
d="M383 -16q-91 0 -165.5 41.5t-117.5 115.5t-43 168q0 110 54 207.5t150.5 156.5t218.5 59q90 0 164 -41.5t117 -115.5t43 -168q0 -110 -53.5 -207.5t-150 -156.5t-217.5 -59zM391 65q89 0 164 47.5t118.5 125t43.5 162.5q0 76 -32.5 133t-89 87.5t-125.5 30.5
q-89 0 -163.5 -47.5t-118 -125t-43.5 -162.5q0 -76 32.5 -133t88.5 -87.5t125 -30.5zM401 900h91l29 -127h-72z" />
    <glyph glyph-name="Oacute" unicode="&#xd3;" horiz-adv-x="825" 
d="M383 -16q-91 0 -165.5 41.5t-117.5 115.5t-43 168q0 110 54 207.5t150.5 156.5t218.5 59q90 0 164 -41.5t117 -115.5t43 -168q0 -110 -53.5 -207.5t-150 -156.5t-217.5 -59zM391 65q89 0 164 47.5t118.5 125t43.5 162.5q0 76 -32.5 133t-89 87.5t-125.5 30.5
q-89 0 -163.5 -47.5t-118 -125t-43.5 -162.5q0 -76 32.5 -133t88.5 -87.5t125 -30.5zM526 900h95l-93 -127h-77z" />
    <glyph glyph-name="Ocircumflex" unicode="&#xd4;" horiz-adv-x="825" 
d="M383 -16q-91 0 -165.5 41.5t-117.5 115.5t-43 168q0 110 54 207.5t150.5 156.5t218.5 59q90 0 164 -41.5t117 -115.5t43 -168q0 -110 -53.5 -207.5t-150 -156.5t-217.5 -59zM391 65q89 0 164 47.5t118.5 125t43.5 162.5q0 76 -32.5 133t-89 87.5t-125.5 30.5
q-89 0 -163.5 -47.5t-118 -125t-43.5 -162.5q0 -76 32.5 -133t88.5 -87.5t125 -30.5zM347 784l123 116h75l81 -116l-1 -5h-76l-44 63h-8l-63 -63h-88z" />
    <glyph glyph-name="Otilde" unicode="&#xd5;" horiz-adv-x="825" 
d="M383 -16q-91 0 -165.5 41.5t-117.5 115.5t-43 168q0 110 54 207.5t150.5 156.5t218.5 59q90 0 164 -41.5t117 -115.5t43 -168q0 -110 -53.5 -207.5t-150 -156.5t-217.5 -59zM391 65q89 0 164 47.5t118.5 125t43.5 162.5q0 76 -32.5 133t-89 87.5t-125.5 30.5
q-89 0 -163.5 -47.5t-118 -125t-43.5 -162.5q0 -76 32.5 -133t88.5 -87.5t125 -30.5zM565 780q-17 0 -32 6t-34 18q-18 11 -31.5 17t-29.5 6q-33 0 -42 -37h-70q8 56 38 85t74 29q17 0 32.5 -6t34.5 -18q18 -11 31.5 -17t28.5 -6q33 0 42 37h70q-7 -56 -37.5 -85t-74.5 -29z
" />
    <glyph glyph-name="Odieresis" unicode="&#xd6;" horiz-adv-x="825" 
d="M383 -16q-91 0 -165.5 41.5t-117.5 115.5t-43 168q0 110 54 207.5t150.5 156.5t218.5 59q90 0 164 -41.5t117 -115.5t43 -168q0 -110 -53.5 -207.5t-150 -156.5t-217.5 -59zM391 65q89 0 164 47.5t118.5 125t43.5 162.5q0 76 -32.5 133t-89 87.5t-125.5 30.5
q-89 0 -163.5 -47.5t-118 -125t-43.5 -162.5q0 -76 32.5 -133t88.5 -87.5t125 -30.5zM419 789q-21 0 -37.5 16.5t-16.5 37.5q0 23 16 38.5t38 15.5q23 0 38.5 -15.5t15.5 -38.5q0 -22 -15.5 -38t-38.5 -16zM583 789q-21 0 -37 16.5t-16 37.5q0 23 16 38.5t37 15.5
q23 0 38.5 -15.5t15.5 -38.5q0 -22 -15.5 -38t-38.5 -16z" />
    <glyph glyph-name="multiply" unicode="&#xd7;" horiz-adv-x="546" 
d="M40 119l187 155l-130 153l53 45l131 -154l187 156l43 -52l-187 -155l131 -152l-53 -45l-131 153l-188 -156z" />
    <glyph glyph-name="Oslash" unicode="&#xd8;" horiz-adv-x="825" 
d="M101 5l53 66q-46 45 -71.5 105.5t-25.5 132.5q0 110 54 207.5t150.5 156.5t218.5 59q91 0 168 -44l54 68l58 -45l-54 -66q47 -44 72.5 -105t25.5 -133q0 -110 -53.5 -207.5t-150 -156.5t-217.5 -59q-93 0 -170 44l-53 -67zM594 620q-57 31 -124 31q-89 0 -163.5 -47.5
t-118 -125t-43.5 -162.5q0 -110 64 -177zM391 65q89 0 164 47.5t118.5 125t43.5 162.5q0 107 -65 177l-385 -482q58 -30 124 -30z" />
    <glyph glyph-name="Ugrave" unicode="&#xd9;" horiz-adv-x="661" 
d="M285 -16q-60 0 -110 26.5t-79.5 75t-29.5 113.5q0 44 8 94l75 423h84l-78 -443q-6 -35 -6 -61q0 -68 38 -107.5t112 -39.5q85 0 140.5 54.5t71.5 141.5l80 455h84l-82 -466q-22 -125 -101.5 -195.5t-206.5 -70.5zM327 900h91l29 -127h-72z" />
    <glyph glyph-name="Uacute" unicode="&#xda;" horiz-adv-x="661" 
d="M285 -16q-60 0 -110 26.5t-79.5 75t-29.5 113.5q0 44 8 94l75 423h84l-78 -443q-6 -35 -6 -61q0 -68 38 -107.5t112 -39.5q85 0 140.5 54.5t71.5 141.5l80 455h84l-82 -466q-22 -125 -101.5 -195.5t-206.5 -70.5zM452 900h95l-93 -127h-77z" />
    <glyph glyph-name="Ucircumflex" unicode="&#xdb;" horiz-adv-x="661" 
d="M285 -16q-60 0 -110 26.5t-79.5 75t-29.5 113.5q0 44 8 94l75 423h84l-78 -443q-6 -35 -6 -61q0 -68 38 -107.5t112 -39.5q85 0 140.5 54.5t71.5 141.5l80 455h84l-82 -466q-22 -125 -101.5 -195.5t-206.5 -70.5zM273 784l123 116h75l81 -116l-1 -5h-76l-44 63h-8
l-63 -63h-88z" />
    <glyph glyph-name="Udieresis" unicode="&#xdc;" horiz-adv-x="661" 
d="M285 -16q-60 0 -110 26.5t-79.5 75t-29.5 113.5q0 44 8 94l75 423h84l-78 -443q-6 -35 -6 -61q0 -68 38 -107.5t112 -39.5q85 0 140.5 54.5t71.5 141.5l80 455h84l-82 -466q-22 -125 -101.5 -195.5t-206.5 -70.5zM345 789q-21 0 -37.5 16.5t-16.5 37.5q0 23 16 38.5
t38 15.5q23 0 38.5 -15.5t15.5 -38.5q0 -22 -15.5 -38t-38.5 -16zM509 789q-21 0 -37 16.5t-16 37.5q0 23 16 38.5t37 15.5q23 0 38.5 -15.5t15.5 -38.5q0 -22 -15.5 -38t-38.5 -16z" />
    <glyph glyph-name="Yacute" unicode="&#xdd;" horiz-adv-x="595" 
d="M270 331l-174 385h97l130 -300h4l233 300h102l-307 -385l-59 -331h-84zM413 900h95l-93 -127h-77z" />
    <glyph glyph-name="Thorn" unicode="&#xde;" horiz-adv-x="571" 
d="M155 716h85l-22 -123h151q56 0 100.5 -23.5t69.5 -65.5t25 -96q0 -73 -34 -127.5t-94 -83t-136 -28.5h-157l-30 -169h-85zM316 250q70 0 115 37.5t45 109.5q0 52 -32.5 83.5t-81.5 31.5h-158l-46 -262h158z" />
    <glyph glyph-name="germandbls" unicode="&#xdf;" horiz-adv-x="558" 
d="M426 385q42 -20 68 -60.5t26 -95.5q0 -69 -34.5 -123t-93.5 -84t-132 -30q-39 0 -63 5l14 80q27 -4 56 -4q71 0 118 40t47 108q0 55 -33.5 89t-99.5 34h-33l14 78h27q39 0 74 15.5t56.5 45t21.5 69.5q0 45 -31.5 72t-80.5 27q-56 0 -94 -37t-49 -98l-90 -516h-87l91 516
q17 99 77 157.5t161 58.5q57 0 100 -23t66.5 -62.5t23.5 -87.5q0 -61 -33 -105t-87 -65v-4z" />
    <glyph glyph-name="agrave" unicode="&#xe0;" horiz-adv-x="531" 
d="M188 -16q-45 0 -83.5 20.5t-61 56t-22.5 79.5q0 85 62.5 135.5t171.5 50.5q40 0 78.5 -9.5t68.5 -25.5l6 30q3 17 3 29q0 45 -35.5 72.5t-89.5 27.5q-83 0 -137 -68l-66 47q36 46 91 71.5t121 25.5q92 0 144.5 -44.5t52.5 -119.5q0 -21 -5 -51l-56 -311h-81l13 72h-4
q-27 -40 -71 -64t-100 -24zM207 59q69 0 120 45.5t63 116.5q-31 18 -62 27t-78 9q-63 0 -102.5 -29.5t-39.5 -81.5q0 -40 28.5 -63.5t70.5 -23.5zM232 736h91l29 -127h-72z" />
    <glyph glyph-name="aacute" unicode="&#xe1;" horiz-adv-x="531" 
d="M188 -16q-45 0 -83.5 20.5t-61 56t-22.5 79.5q0 85 62.5 135.5t171.5 50.5q40 0 78.5 -9.5t68.5 -25.5l6 30q3 17 3 29q0 45 -35.5 72.5t-89.5 27.5q-83 0 -137 -68l-66 47q36 46 91 71.5t121 25.5q92 0 144.5 -44.5t52.5 -119.5q0 -21 -5 -51l-56 -311h-81l13 72h-4
q-27 -40 -71 -64t-100 -24zM207 59q69 0 120 45.5t63 116.5q-31 18 -62 27t-78 9q-63 0 -102.5 -29.5t-39.5 -81.5q0 -40 28.5 -63.5t70.5 -23.5zM349 736h95l-93 -127h-76z" />
    <glyph glyph-name="acircumflex" unicode="&#xe2;" horiz-adv-x="531" 
d="M188 -16q-45 0 -83.5 20.5t-61 56t-22.5 79.5q0 85 62.5 135.5t171.5 50.5q40 0 78.5 -9.5t68.5 -25.5l6 30q3 17 3 29q0 45 -35.5 72.5t-89.5 27.5q-83 0 -137 -68l-66 47q36 46 91 71.5t121 25.5q92 0 144.5 -44.5t52.5 -119.5q0 -21 -5 -51l-56 -311h-81l13 72h-4
q-27 -40 -71 -64t-100 -24zM207 59q69 0 120 45.5t63 116.5q-31 18 -62 27t-78 9q-63 0 -102.5 -29.5t-39.5 -81.5q0 -40 28.5 -63.5t70.5 -23.5zM172 619l123 117h74l82 -117l-1 -5h-77l-43 64h-9l-62 -64h-88z" />
    <glyph glyph-name="atilde" unicode="&#xe3;" horiz-adv-x="531" 
d="M188 -16q-45 0 -83.5 20.5t-61 56t-22.5 79.5q0 85 62.5 135.5t171.5 50.5q40 0 78.5 -9.5t68.5 -25.5l6 30q3 17 3 29q0 45 -35.5 72.5t-89.5 27.5q-83 0 -137 -68l-66 47q36 46 91 71.5t121 25.5q92 0 144.5 -44.5t52.5 -119.5q0 -21 -5 -51l-56 -311h-81l13 72h-4
q-27 -40 -71 -64t-100 -24zM207 59q69 0 120 45.5t63 116.5q-31 18 -62 27t-78 9q-63 0 -102.5 -29.5t-39.5 -81.5q0 -40 28.5 -63.5t70.5 -23.5zM389 616q-17 0 -32 6t-34 18q-18 11 -31.5 17t-29.5 6q-33 0 -42 -37h-70q7 56 37 84.5t74 28.5q17 0 31 -6t36 -18
q18 -11 31.5 -17t29.5 -6q32 0 41 37h71q-8 -56 -38 -84.5t-74 -28.5z" />
    <glyph glyph-name="adieresis" unicode="&#xe4;" horiz-adv-x="531" 
d="M188 -16q-45 0 -83.5 20.5t-61 56t-22.5 79.5q0 85 62.5 135.5t171.5 50.5q40 0 78.5 -9.5t68.5 -25.5l6 30q3 17 3 29q0 45 -35.5 72.5t-89.5 27.5q-83 0 -137 -68l-66 47q36 46 91 71.5t121 25.5q92 0 144.5 -44.5t52.5 -119.5q0 -21 -5 -51l-56 -311h-81l13 72h-4
q-27 -40 -71 -64t-100 -24zM207 59q69 0 120 45.5t63 116.5q-31 18 -62 27t-78 9q-63 0 -102.5 -29.5t-39.5 -81.5q0 -40 28.5 -63.5t70.5 -23.5zM243 625q-21 0 -37 16t-16 38q0 23 15.5 38t37.5 15q24 0 39 -15t15 -38q0 -22 -15.5 -38t-38.5 -16zM408 625q-22 0 -38 16
t-16 38q0 23 16 38t38 15q23 0 38 -15t15 -38q0 -22 -15 -38t-38 -16z" />
    <glyph glyph-name="aring" unicode="&#xe5;" horiz-adv-x="531" 
d="M188 -16q-45 0 -83.5 20.5t-61 56t-22.5 79.5q0 85 62.5 135.5t171.5 50.5q40 0 78.5 -9.5t68.5 -25.5l6 30q3 17 3 29q0 45 -35.5 72.5t-89.5 27.5q-83 0 -137 -68l-66 47q36 46 91 71.5t121 25.5q92 0 144.5 -44.5t52.5 -119.5q0 -21 -5 -51l-56 -311h-81l13 72h-4
q-27 -40 -71 -64t-100 -24zM207 59q69 0 120 45.5t63 116.5q-31 18 -62 27t-78 9q-63 0 -102.5 -29.5t-39.5 -81.5q0 -40 28.5 -63.5t70.5 -23.5zM328 588q-43 0 -73.5 30.5t-30.5 73.5t30.5 73t73.5 30t73 -30t30 -73t-30 -73.5t-73 -30.5zM328 644q19 0 33 14t14 34
q0 19 -14 33t-33 14q-20 0 -33.5 -13.5t-13.5 -33.5t13.5 -34t33.5 -14z" />
    <glyph glyph-name="ae" unicode="&#xe6;" horiz-adv-x="921" 
d="M188 -16q-45 0 -83.5 20.5t-61 56t-22.5 79.5q0 91 67 138.5t174 47.5q45 0 82.5 -10t58.5 -23l6 31q3 21 3 23q0 47 -33.5 75t-88.5 28q-43 0 -79 -17.5t-57 -50.5l-70 41q31 49 85.5 76t126.5 27q64 0 111 -26.5t67 -69.5q36 46 89 71t116 25q66 0 114 -29t73 -78
t25 -108q0 -42 -9 -72h-403q-2 -18 -2 -32q0 -44 20.5 -77.5t53.5 -51t71 -17.5q60 0 100.5 24t69.5 71l65 -37q-38 -66 -99 -100.5t-141 -34.5q-71 0 -123.5 37t-74.5 92q-40 -64 -100 -96.5t-131 -32.5zM806 309v14q0 32 -15.5 61t-46.5 47t-75 18q-63 0 -110.5 -39.5
t-66.5 -100.5h314zM207 59q69 0 120 45.5t63 116.5q-64 36 -140 36q-63 0 -102.5 -29.5t-39.5 -81.5q0 -40 28.5 -63.5t70.5 -23.5z" />
    <glyph glyph-name="ccedilla" unicode="&#xe7;" horiz-adv-x="551" 
d="M268 61q52 0 93 25.5t66 71.5l68 -33q-40 -72 -97.5 -106.5t-141.5 -34.5h-4l-20 -33q15 3 22 3q34 0 55 -24.5t21 -63.5q0 -45 -30.5 -74t-80.5 -29q-33 0 -58.5 19.5t-31.5 47.5l53 22q2 -15 13.5 -25.5t27.5 -10.5q21 0 35.5 13.5t14.5 36.5q0 16 -11 27t-28 11
q-19 0 -36 -17l-41 20l46 83q-77 18 -123 82.5t-46 146.5q0 85 38 155t106 111t154 41q82 0 134 -41t69 -100l-79 -31q-14 45 -48.5 70t-85.5 25q-55 0 -101 -29t-73 -80t-27 -115q0 -70 40.5 -117t106.5 -47z" />
    <glyph glyph-name="egrave" unicode="&#xe8;" horiz-adv-x="564" 
d="M261 -16q-69 0 -121 31.5t-79.5 85t-27.5 117.5q0 80 36 151t102 114t151 43q66 0 114 -29t73 -78.5t25 -107.5q0 -43 -9 -72h-404q-2 -20 -2 -32q0 -44 20.5 -77.5t54 -51t71.5 -17.5q59 0 100.5 24.5t69.5 70.5l65 -37q-38 -66 -99 -100.5t-140 -34.5zM449 309v14
q0 33 -16 62t-47 46.5t-74 17.5q-64 0 -111.5 -39.5t-65.5 -100.5h314zM255 736h91l29 -127h-72z" />
    <glyph glyph-name="eacute" unicode="&#xe9;" horiz-adv-x="564" 
d="M261 -16q-69 0 -121 31.5t-79.5 85t-27.5 117.5q0 80 36 151t102 114t151 43q66 0 114 -29t73 -78.5t25 -107.5q0 -43 -9 -72h-404q-2 -20 -2 -32q0 -44 20.5 -77.5t54 -51t71.5 -17.5q59 0 100.5 24.5t69.5 70.5l65 -37q-38 -66 -99 -100.5t-140 -34.5zM449 309v14
q0 33 -16 62t-47 46.5t-74 17.5q-64 0 -111.5 -39.5t-65.5 -100.5h314zM372 736h95l-93 -127h-76z" />
    <glyph glyph-name="ecircumflex" unicode="&#xea;" horiz-adv-x="564" 
d="M261 -16q-69 0 -121 31.5t-79.5 85t-27.5 117.5q0 80 36 151t102 114t151 43q66 0 114 -29t73 -78.5t25 -107.5q0 -43 -9 -72h-404q-2 -20 -2 -32q0 -44 20.5 -77.5t54 -51t71.5 -17.5q59 0 100.5 24.5t69.5 70.5l65 -37q-38 -66 -99 -100.5t-140 -34.5zM449 309v14
q0 33 -16 62t-47 46.5t-74 17.5q-64 0 -111.5 -39.5t-65.5 -100.5h314zM195 619l123 117h74l82 -117l-1 -5h-77l-43 64h-9l-62 -64h-88z" />
    <glyph glyph-name="edieresis" unicode="&#xeb;" horiz-adv-x="564" 
d="M261 -16q-69 0 -121 31.5t-79.5 85t-27.5 117.5q0 80 36 151t102 114t151 43q66 0 114 -29t73 -78.5t25 -107.5q0 -43 -9 -72h-404q-2 -20 -2 -32q0 -44 20.5 -77.5t54 -51t71.5 -17.5q59 0 100.5 24.5t69.5 70.5l65 -37q-38 -66 -99 -100.5t-140 -34.5zM449 309v14
q0 33 -16 62t-47 46.5t-74 17.5q-64 0 -111.5 -39.5t-65.5 -100.5h314zM266 625q-21 0 -37 16t-16 38q0 23 15.5 38t37.5 15q24 0 39 -15t15 -38q0 -22 -15.5 -38t-38.5 -16zM431 625q-22 0 -38 16t-16 38q0 23 16 38t38 15q23 0 38 -15t15 -38q0 -22 -15 -38t-38 -16z" />
    <glyph glyph-name="igrave" unicode="&#xec;" horiz-adv-x="227" 
d="M116 510h85l-90 -510h-85zM94 736h91l29 -127h-72z" />
    <glyph glyph-name="iacute" unicode="&#xed;" horiz-adv-x="227" 
d="M116 510h85l-90 -510h-85zM211 736h95l-93 -127h-76z" />
    <glyph glyph-name="icircumflex" unicode="&#xee;" horiz-adv-x="227" 
d="M116 510h85l-90 -510h-85zM34 619l123 117h74l82 -117l-1 -5h-77l-43 64h-9l-62 -64h-88z" />
    <glyph glyph-name="idieresis" unicode="&#xef;" horiz-adv-x="227" 
d="M118 625q-21 0 -37.5 16t-16.5 38q0 23 16 38t38 15q23 0 38.5 -15t15.5 -38q0 -22 -15.5 -38t-38.5 -16zM251 625q-22 0 -38 16t-16 38q0 23 16 38t38 15q23 0 38.5 -15t15.5 -38q0 -22 -15.5 -38t-38.5 -16zM116 510h85l-90 -510h-85z" />
    <glyph glyph-name="eth" unicode="&#xf0;" horiz-adv-x="581" 
d="M267 -16q-64 0 -117 30t-83.5 82t-30.5 115q0 76 34.5 140.5t97 102t142.5 37.5q45 0 80.5 -17t58.5 -42l5 3q-9 40 -28.5 70.5t-51.5 63.5l-135 -55l-24 59l102 41q-48 31 -102 44l28 72q91 -25 160 -81l112 47l24 -58l-85 -36q45 -55 70.5 -127t25.5 -151
q0 -92 -32 -169.5t-96 -124t-155 -46.5zM276 65q50 0 90.5 26t64 70.5t23.5 96.5q0 67 -39 111t-106 44q-54 0 -96.5 -26.5t-66 -72t-23.5 -99.5q0 -42 20 -76.5t55 -54t78 -19.5z" />
    <glyph glyph-name="ntilde" unicode="&#xf1;" horiz-adv-x="561" 
d="M180 435q27 41 72 66t103 25q76 0 119.5 -41.5t43.5 -109.5q0 -40 -6 -71l-54 -304h-85l54 306q6 38 6 50q0 44 -29.5 68.5t-78.5 24.5q-62 0 -110 -46t-60 -116l-51 -287h-85l90 510h80l-13 -75h4zM431 616q-17 0 -32 6t-34 18q-18 11 -31.5 17t-29.5 6q-33 0 -42 -37
h-70q7 56 37 84.5t74 28.5q17 0 31 -6t36 -18q18 -11 31.5 -17t29.5 -6q32 0 41 37h71q-8 -56 -38 -84.5t-74 -28.5z" />
    <glyph glyph-name="ograve" unicode="&#xf2;" horiz-adv-x="595" 
d="M265 -16q-67 0 -119.5 32t-81.5 87.5t-29 123.5q0 83 36.5 151t104 108t154.5 40q68 0 120.5 -32t81 -87.5t28.5 -123.5q0 -83 -36.5 -151.5t-104 -108t-154.5 -39.5zM275 61q58 0 103.5 29.5t70.5 79t25 108.5q0 74 -42.5 122.5t-111.5 48.5q-58 0 -103.5 -29.5
t-70.5 -79t-25 -108.5q0 -75 42.5 -123t111.5 -48zM270 736h91l29 -127h-72z" />
    <glyph glyph-name="oacute" unicode="&#xf3;" horiz-adv-x="595" 
d="M265 -16q-67 0 -119.5 32t-81.5 87.5t-29 123.5q0 83 36.5 151t104 108t154.5 40q68 0 120.5 -32t81 -87.5t28.5 -123.5q0 -83 -36.5 -151.5t-104 -108t-154.5 -39.5zM275 61q58 0 103.5 29.5t70.5 79t25 108.5q0 74 -42.5 122.5t-111.5 48.5q-58 0 -103.5 -29.5
t-70.5 -79t-25 -108.5q0 -75 42.5 -123t111.5 -48zM387 736h95l-93 -127h-76z" />
    <glyph glyph-name="ocircumflex" unicode="&#xf4;" horiz-adv-x="595" 
d="M265 -16q-67 0 -119.5 32t-81.5 87.5t-29 123.5q0 83 36.5 151t104 108t154.5 40q68 0 120.5 -32t81 -87.5t28.5 -123.5q0 -83 -36.5 -151.5t-104 -108t-154.5 -39.5zM275 61q58 0 103.5 29.5t70.5 79t25 108.5q0 74 -42.5 122.5t-111.5 48.5q-58 0 -103.5 -29.5
t-70.5 -79t-25 -108.5q0 -75 42.5 -123t111.5 -48zM210 619l123 117h74l82 -117l-1 -5h-77l-43 64h-9l-62 -64h-88z" />
    <glyph glyph-name="otilde" unicode="&#xf5;" horiz-adv-x="595" 
d="M265 -16q-67 0 -119.5 32t-81.5 87.5t-29 123.5q0 83 36.5 151t104 108t154.5 40q68 0 120.5 -32t81 -87.5t28.5 -123.5q0 -83 -36.5 -151.5t-104 -108t-154.5 -39.5zM275 61q58 0 103.5 29.5t70.5 79t25 108.5q0 74 -42.5 122.5t-111.5 48.5q-58 0 -103.5 -29.5
t-70.5 -79t-25 -108.5q0 -75 42.5 -123t111.5 -48zM427 616q-17 0 -32 6t-34 18q-18 11 -31.5 17t-29.5 6q-33 0 -42 -37h-70q7 56 37 84.5t74 28.5q17 0 31 -6t36 -18q18 -11 31.5 -17t29.5 -6q32 0 41 37h71q-8 -56 -38 -84.5t-74 -28.5z" />
    <glyph glyph-name="odieresis" unicode="&#xf6;" horiz-adv-x="595" 
d="M265 -16q-67 0 -119.5 32t-81.5 87.5t-29 123.5q0 83 36.5 151t104 108t154.5 40q68 0 120.5 -32t81 -87.5t28.5 -123.5q0 -83 -36.5 -151.5t-104 -108t-154.5 -39.5zM275 61q58 0 103.5 29.5t70.5 79t25 108.5q0 74 -42.5 122.5t-111.5 48.5q-58 0 -103.5 -29.5
t-70.5 -79t-25 -108.5q0 -75 42.5 -123t111.5 -48zM281 625q-21 0 -37 16t-16 38q0 23 15.5 38t37.5 15q24 0 39 -15t15 -38q0 -22 -15.5 -38t-38.5 -16zM446 625q-22 0 -38 16t-16 38q0 23 16 38t38 15q23 0 38 -15t15 -38q0 -22 -15 -38t-38 -16z" />
    <glyph glyph-name="divide" unicode="&#xf7;" horiz-adv-x="544" 
d="M307 395q-26 0 -44.5 18.5t-18.5 44.5q0 27 18.5 45.5t44.5 18.5q27 0 45.5 -18.5t18.5 -45.5q0 -26 -18.5 -44.5t-45.5 -18.5zM64 306h434l-13 -70h-434zM242 20q-27 0 -45.5 18.5t-18.5 45.5q0 26 18.5 44.5t45.5 18.5q26 0 44.5 -18.5t18.5 -44.5q0 -27 -18.5 -45.5
t-44.5 -18.5z" />
    <glyph glyph-name="oslash" unicode="&#xf8;" horiz-adv-x="583" 
d="M59 8l34 43q-33 33 -50.5 78.5t-17.5 97.5q0 82 37.5 150.5t106 108.5t155.5 40q65 0 117 -30l38 48l53 -41l-39 -49q31 -33 48 -77t17 -94q0 -83 -37.5 -151t-106 -108t-155.5 -40q-61 0 -113 27l-33 -43zM389 429q-32 20 -75 20q-58 0 -104.5 -29.5t-72.5 -79.5
t-26 -108q0 -64 35 -112zM269 61q58 0 104 29.5t72 79t26 108.5q0 62 -31 107l-242 -308q34 -16 71 -16z" />
    <glyph glyph-name="ugrave" unicode="&#xf9;" horiz-adv-x="561" 
d="M382 74q-27 -41 -72 -65.5t-103 -24.5q-76 0 -120 41.5t-44 109.5q0 33 7 71l54 304h84l-54 -306q-5 -25 -5 -50q0 -44 29.5 -68.5t77.5 -24.5q62 0 110 45.5t61 115.5l51 288h84l-89 -510h-81l14 74h-4zM259 736h91l29 -127h-72z" />
    <glyph glyph-name="uacute" unicode="&#xfa;" horiz-adv-x="561" 
d="M382 74q-27 -41 -72 -65.5t-103 -24.5q-76 0 -120 41.5t-44 109.5q0 33 7 71l54 304h84l-54 -306q-5 -25 -5 -50q0 -44 29.5 -68.5t77.5 -24.5q62 0 110 45.5t61 115.5l51 288h84l-89 -510h-81l14 74h-4zM376 736h95l-93 -127h-76z" />
    <glyph glyph-name="ucircumflex" unicode="&#xfb;" horiz-adv-x="561" 
d="M382 74q-27 -41 -72 -65.5t-103 -24.5q-76 0 -120 41.5t-44 109.5q0 33 7 71l54 304h84l-54 -306q-5 -25 -5 -50q0 -44 29.5 -68.5t77.5 -24.5q62 0 110 45.5t61 115.5l51 288h84l-89 -510h-81l14 74h-4zM199 619l123 117h74l82 -117l-1 -5h-77l-43 64h-9l-62 -64h-88z
" />
    <glyph glyph-name="udieresis" unicode="&#xfc;" horiz-adv-x="561" 
d="M382 74q-27 -41 -72 -65.5t-103 -24.5q-76 0 -120 41.5t-44 109.5q0 33 7 71l54 304h84l-54 -306q-5 -25 -5 -50q0 -44 29.5 -68.5t77.5 -24.5q62 0 110 45.5t61 115.5l51 288h84l-89 -510h-81l14 74h-4zM270 625q-21 0 -37 16t-16 38q0 23 15.5 38t37.5 15q24 0 39 -15
t15 -38q0 -22 -15.5 -38t-38.5 -16zM435 625q-22 0 -38 16t-16 38q0 23 16 38t38 15q23 0 38 -15t15 -38q0 -22 -15 -38t-38 -16z" />
    <glyph glyph-name="yacute" unicode="&#xfd;" horiz-adv-x="516" 
d="M179 33l-127 477h89l95 -379h2l222 379h94l-444 -726h-90zM346 736h95l-93 -127h-76z" />
    <glyph glyph-name="thorn" unicode="&#xfe;" horiz-adv-x="601" 
d="M145 716h85l-38 -210l-16 -71h4q29 42 75.5 66.5t109.5 24.5q59 0 106.5 -28.5t74.5 -81t27 -122.5q0 -84 -38 -155.5t-105.5 -113t-151.5 -41.5q-56 0 -99 26.5t-62 65.5h-4l-9 -71l-39 -221h-85zM285 61q57 0 103 29.5t72 81.5t26 115q0 75 -40 118.5t-104 43.5
q-56 0 -102.5 -31t-73 -84t-26.5 -117q0 -71 41.5 -113.5t103.5 -42.5z" />
    <glyph glyph-name="ydieresis" unicode="&#xff;" horiz-adv-x="516" 
d="M179 33l-127 477h89l95 -379h2l222 379h94l-444 -726h-90zM240 625q-21 0 -37 16t-16 38q0 23 15.5 38t37.5 15q24 0 39 -15t15 -38q0 -22 -15.5 -38t-38.5 -16zM405 625q-22 0 -38 16t-16 38q0 23 16 38t38 15q23 0 38 -15t15 -38q0 -22 -15 -38t-38 -16z" />
    <glyph glyph-name="Amacron" unicode="&#x100;" horiz-adv-x="669" 
d="M367 716h96l145 -716h-90l-36 197h-309l-108 -197h-95zM466 277l-50 258l-14 77h-4l-183 -335h251zM302 876h276l-12 -66h-276z" />
    <glyph glyph-name="amacron" unicode="&#x101;" horiz-adv-x="531" 
d="M188 -16q-45 0 -83.5 20.5t-61 56t-22.5 79.5q0 85 62.5 135.5t171.5 50.5q40 0 78.5 -9.5t68.5 -25.5l6 30q3 17 3 29q0 45 -35.5 72.5t-89.5 27.5q-83 0 -137 -68l-66 47q36 46 91 71.5t121 25.5q92 0 144.5 -44.5t52.5 -119.5q0 -21 -5 -51l-56 -311h-81l13 72h-4
q-27 -40 -71 -64t-100 -24zM207 59q69 0 120 45.5t63 116.5q-31 18 -62 27t-78 9q-63 0 -102.5 -29.5t-39.5 -81.5q0 -40 28.5 -63.5t70.5 -23.5zM193 712h277l-12 -67h-277z" />
    <glyph glyph-name="Abreve" unicode="&#x102;" horiz-adv-x="669" 
d="M367 716h96l145 -716h-90l-36 197h-309l-108 -197h-95zM466 277l-50 258l-14 77h-4l-183 -335h251zM425 772q-46 0 -78.5 29.5t-32.5 73.5q0 7 2 21h69q-1 -5 -1 -12q0 -21 12.5 -34.5t36.5 -13.5q26 0 44.5 16t23.5 44h68q-9 -61 -47.5 -92.5t-96.5 -31.5z" />
    <glyph glyph-name="abreve" unicode="&#x103;" horiz-adv-x="531" 
d="M188 -16q-45 0 -83.5 20.5t-61 56t-22.5 79.5q0 85 62.5 135.5t171.5 50.5q40 0 78.5 -9.5t68.5 -25.5l6 30q3 17 3 29q0 45 -35.5 72.5t-89.5 27.5q-83 0 -137 -68l-66 47q36 46 91 71.5t121 25.5q92 0 144.5 -44.5t52.5 -119.5q0 -21 -5 -51l-56 -311h-81l13 72h-4
q-27 -40 -71 -64t-100 -24zM207 59q69 0 120 45.5t63 116.5q-31 18 -62 27t-78 9q-63 0 -102.5 -29.5t-39.5 -81.5q0 -40 28.5 -63.5t70.5 -23.5zM315 607q-46 0 -78.5 29.5t-32.5 74.5q0 7 2 21h69q-1 -5 -1 -12q0 -21 12.5 -35t36.5 -14q26 0 44.5 16.5t23.5 44.5h68
q-10 -62 -48 -93.5t-96 -31.5z" />
    <glyph glyph-name="Aogonek" unicode="&#x104;" horiz-adv-x="669" 
d="M540 -224q-44 0 -72.5 26.5t-28.5 65.5q0 78 78 134l-35 195h-309l-108 -197h-95l397 716h96l145 -716q-35 -20 -63 -51.5t-28 -62.5q0 -19 11.5 -29.5t28.5 -10.5q21 0 42 9l-12 -72q-11 -4 -20.5 -5.5t-26.5 -1.5zM466 277l-50 258l-14 77h-4l-183 -335h251z" />
    <glyph glyph-name="aogonek" unicode="&#x105;" horiz-adv-x="531" 
d="M363 -224q-44 0 -72.5 26.5t-28.5 65.5q0 40 23.5 73.5t65.5 59.5l12 71h-4q-27 -40 -71 -64t-100 -24q-45 0 -83.5 20.5t-61 56t-22.5 79.5q0 85 62.5 135.5t171.5 50.5q40 0 78.5 -9.5t68.5 -25.5l6 30q3 17 3 29q0 45 -35.5 72.5t-89.5 27.5q-83 0 -137 -68l-66 47
q36 46 91 71.5t121 25.5q92 0 144.5 -44.5t52.5 -119.5q0 -21 -5 -51l-56 -311q-35 -20 -63 -51.5t-28 -62.5q0 -19 11.5 -29.5t29.5 -10.5q20 0 42 9l-13 -72q-18 -7 -47 -7zM207 59q69 0 120 45.5t63 116.5q-31 18 -62 27t-78 9q-63 0 -102.5 -29.5t-39.5 -81.5
q0 -40 28.5 -63.5t70.5 -23.5z" />
    <glyph glyph-name="Cacute" unicode="&#x106;" horiz-adv-x="740" 
d="M371 -16q-91 0 -162.5 40t-112 113t-40.5 169q0 110 57 208.5t156 158t220 59.5q81 0 146 -33.5t99 -86.5l-68 -56q-33 49 -78.5 72t-108.5 23q-91 0 -168.5 -48t-122.5 -126.5t-45 -166.5q0 -73 31 -128.5t85 -86t121 -30.5q73 0 128.5 27t111.5 81l55 -61
q-68 -66 -139 -97t-165 -31zM522 900h95l-93 -127h-77z" />
    <glyph glyph-name="cacute" unicode="&#x107;" horiz-adv-x="551" 
d="M256 -16q-65 0 -115.5 32t-78.5 86t-28 117q0 85 38 155t106 111t154 41q82 0 134 -41t69 -100l-79 -31q-14 45 -48.5 70t-85.5 25q-55 0 -101 -29t-73 -80t-27 -115q0 -70 40.5 -117t106.5 -47q52 0 93 25.5t66 71.5l68 -33q-40 -72 -97.5 -106.5t-141.5 -34.5zM376 736
h95l-93 -127h-76z" />
    <glyph glyph-name="Ccircumflex" unicode="&#x108;" horiz-adv-x="740" 
d="M371 -16q-91 0 -162.5 40t-112 113t-40.5 169q0 110 57 208.5t156 158t220 59.5q81 0 146 -33.5t99 -86.5l-68 -56q-33 49 -78.5 72t-108.5 23q-91 0 -168.5 -48t-122.5 -126.5t-45 -166.5q0 -73 31 -128.5t85 -86t121 -30.5q73 0 128.5 27t111.5 81l55 -61
q-68 -66 -139 -97t-165 -31zM343 784l123 116h75l81 -116l-1 -5h-76l-44 63h-8l-63 -63h-88z" />
    <glyph glyph-name="ccircumflex" unicode="&#x109;" horiz-adv-x="551" 
d="M256 -16q-65 0 -115.5 32t-78.5 86t-28 117q0 85 38 155t106 111t154 41q82 0 134 -41t69 -100l-79 -31q-14 45 -48.5 70t-85.5 25q-55 0 -101 -29t-73 -80t-27 -115q0 -70 40.5 -117t106.5 -47q52 0 93 25.5t66 71.5l68 -33q-40 -72 -97.5 -106.5t-141.5 -34.5zM199 619
l123 117h74l82 -117l-1 -5h-77l-43 64h-9l-62 -64h-88z" />
    <glyph glyph-name="Cdotaccent" unicode="&#x10a;" horiz-adv-x="740" 
d="M371 -16q-91 0 -162.5 40t-112 113t-40.5 169q0 110 57 208.5t156 158t220 59.5q81 0 146 -33.5t99 -86.5l-68 -56q-33 49 -78.5 72t-108.5 23q-91 0 -168.5 -48t-122.5 -126.5t-45 -166.5q0 -73 31 -128.5t85 -86t121 -30.5q73 0 128.5 27t111.5 81l55 -61
q-68 -66 -139 -97t-165 -31zM500 807q-20 0 -35 15t-15 34q0 21 15 35t35 14q21 0 35 -14t14 -35q0 -20 -14 -34.5t-35 -14.5z" />
    <glyph glyph-name="cdotaccent" unicode="&#x10b;" horiz-adv-x="551" 
d="M256 -16q-65 0 -115.5 32t-78.5 86t-28 117q0 85 38 155t106 111t154 41q82 0 134 -41t69 -100l-79 -31q-14 45 -48.5 70t-85.5 25q-55 0 -101 -29t-73 -80t-27 -115q0 -70 40.5 -117t106.5 -47q52 0 93 25.5t66 71.5l68 -33q-40 -72 -97.5 -106.5t-141.5 -34.5zM353 625
q-21 0 -37 16t-16 38q0 23 15.5 38t37.5 15q23 0 38.5 -15t15.5 -38q0 -22 -15.5 -38t-38.5 -16z" />
    <glyph glyph-name="Ccaron" unicode="&#x10c;" horiz-adv-x="740" 
d="M371 -16q-91 0 -162.5 40t-112 113t-40.5 169q0 110 57 208.5t156 158t220 59.5q81 0 146 -33.5t99 -86.5l-68 -56q-33 49 -78.5 72t-108.5 23q-91 0 -168.5 -48t-122.5 -126.5t-45 -166.5q0 -73 31 -128.5t85 -86t121 -30.5q73 0 128.5 27t111.5 81l55 -61
q-68 -66 -139 -97t-165 -31zM371 895l1 5h77l43 -63h8l63 63h88l-1 -5l-123 -116h-75z" />
    <glyph glyph-name="ccaron" unicode="&#x10d;" horiz-adv-x="551" 
d="M256 -16q-65 0 -115.5 32t-78.5 86t-28 117q0 85 38 155t106 111t154 41q82 0 134 -41t69 -100l-79 -31q-14 45 -48.5 70t-85.5 25q-55 0 -101 -29t-73 -80t-27 -115q0 -70 40.5 -117t106.5 -47q52 0 93 25.5t66 71.5l68 -33q-40 -72 -97.5 -106.5t-141.5 -34.5zM226 731
l1 5h77l44 -64h8l62 64h89l-1 -5l-124 -117h-74z" />
    <glyph glyph-name="Dcaron" unicode="&#x10e;" horiz-adv-x="703" 
d="M161 716h216q97 0 166 -40t104.5 -109.5t35.5 -158.5q0 -109 -51 -202.5t-147 -149.5t-225 -56h-226zM265 81q93 0 169 42.5t119 116t43 162.5q0 113 -61.5 173t-172.5 60h-131l-98 -554h132zM258 895l1 5h77l43 -63h8l63 63h88l-1 -5l-123 -116h-75z" />
    <glyph glyph-name="dcaron" unicode="&#x10f;" horiz-adv-x="681" 
d="M236 -16q-59 0 -106.5 28.5t-74.5 81t-27 121.5q0 85 38 156t105.5 113t151.5 42q57 0 99.5 -27t62.5 -66h4l8 71l38 212h84l-127 -716h-80l13 75h-4q-29 -42 -75 -66.5t-110 -24.5zM259 61q56 0 102.5 31t73 83.5t26.5 115.5q0 72 -41 115t-103 43q-58 0 -104 -29.5
t-72 -81.5t-26 -115q0 -74 40.5 -118t103.5 -44zM687 716h92l-63 -189h-62z" />
    <glyph glyph-name="Dcroat" unicode="&#x110;" horiz-adv-x="706" 
d="M17 339l10 66h81l55 311h217q97 0 166 -40t104.5 -109.5t35.5 -158.5q0 -109 -51 -202.5t-147 -149.5t-226 -56h-226l60 339h-79zM267 81q94 0 170 42.5t119 116t43 162.5q0 113 -61.5 173t-172.5 60h-132l-41 -230h185l-11 -66h-185l-45 -258h131z" />
    <glyph glyph-name="dcroat" unicode="&#x111;" horiz-adv-x="600" 
d="M236 -16q-59 0 -106.5 28.5t-74.5 81t-27 121.5q0 85 38 156t105.5 113t151.5 42q57 0 99.5 -27t62.5 -66h4l8 71l14 79h-155l12 67h155l12 66h84l-12 -66h64l-12 -67h-63l-104 -583h-80l13 75h-4q-29 -42 -75 -66.5t-110 -24.5zM259 61q56 0 102.5 31t73 83.5
t26.5 115.5q0 72 -41 115t-103 43q-58 0 -104 -29.5t-72 -81.5t-26 -115q0 -74 40.5 -118t103.5 -44z" />
    <glyph glyph-name="Emacron" unicode="&#x112;" horiz-adv-x="550" 
d="M161 716h414l-14 -81h-330l-42 -237h298l-14 -80h-298l-42 -237h330l-15 -81h-414zM264 876h276l-12 -66h-276z" />
    <glyph glyph-name="emacron" unicode="&#x113;" horiz-adv-x="564" 
d="M261 -16q-69 0 -121 31.5t-79.5 85t-27.5 117.5q0 80 36 151t102 114t151 43q66 0 114 -29t73 -78.5t25 -107.5q0 -43 -9 -72h-404q-2 -20 -2 -32q0 -44 20.5 -77.5t54 -51t71.5 -17.5q59 0 100.5 24.5t69.5 70.5l65 -37q-38 -66 -99 -100.5t-140 -34.5zM449 309v14
q0 33 -16 62t-47 46.5t-74 17.5q-64 0 -111.5 -39.5t-65.5 -100.5h314zM216 712h277l-12 -67h-277z" />
    <glyph glyph-name="Ebreve" unicode="&#x114;" horiz-adv-x="550" 
d="M161 716h414l-14 -81h-330l-42 -237h298l-14 -80h-298l-42 -237h330l-15 -81h-414zM387 772q-46 0 -78.5 29.5t-32.5 73.5q0 7 2 21h69q-1 -5 -1 -12q0 -21 12.5 -34.5t36.5 -13.5q26 0 44.5 16t23.5 44h68q-9 -61 -47.5 -92.5t-96.5 -31.5z" />
    <glyph glyph-name="ebreve" unicode="&#x115;" horiz-adv-x="564" 
d="M261 -16q-69 0 -121 31.5t-79.5 85t-27.5 117.5q0 80 36 151t102 114t151 43q66 0 114 -29t73 -78.5t25 -107.5q0 -43 -9 -72h-404q-2 -20 -2 -32q0 -44 20.5 -77.5t54 -51t71.5 -17.5q59 0 100.5 24.5t69.5 70.5l65 -37q-38 -66 -99 -100.5t-140 -34.5zM449 309v14
q0 33 -16 62t-47 46.5t-74 17.5q-64 0 -111.5 -39.5t-65.5 -100.5h314zM338 607q-46 0 -78.5 29.5t-32.5 74.5q0 7 2 21h69q-1 -5 -1 -12q0 -21 12.5 -35t36.5 -14q26 0 44.5 16.5t23.5 44.5h68q-10 -62 -48 -93.5t-96 -31.5z" />
    <glyph glyph-name="Edotaccent" unicode="&#x116;" horiz-adv-x="550" 
d="M161 716h414l-14 -81h-330l-42 -237h298l-14 -80h-298l-42 -237h330l-15 -81h-414zM399 807q-20 0 -35 15t-15 34q0 21 15 35t35 14q21 0 35 -14t14 -35q0 -20 -14 -34.5t-35 -14.5z" />
    <glyph glyph-name="edotaccent" unicode="&#x117;" horiz-adv-x="564" 
d="M261 -16q-69 0 -121 31.5t-79.5 85t-27.5 117.5q0 80 36 151t102 114t151 43q66 0 114 -29t73 -78.5t25 -107.5q0 -43 -9 -72h-404q-2 -20 -2 -32q0 -44 20.5 -77.5t54 -51t71.5 -17.5q59 0 100.5 24.5t69.5 70.5l65 -37q-38 -66 -99 -100.5t-140 -34.5zM449 309v14
q0 33 -16 62t-47 46.5t-74 17.5q-64 0 -111.5 -39.5t-65.5 -100.5h314zM349 625q-21 0 -37 16t-16 38q0 23 15.5 38t37.5 15q23 0 38.5 -15t15.5 -38q0 -22 -15.5 -38t-38.5 -16z" />
    <glyph glyph-name="Eogonek" unicode="&#x118;" horiz-adv-x="550" 
d="M231 635l-42 -237h298l-14 -80h-298l-42 -237h330l-15 -81q-35 -20 -63 -51.5t-28 -62.5q0 -19 11 -29.5t29 -10.5q12 0 20.5 2t21.5 7l-12 -72q-11 -4 -20.5 -5.5t-26.5 -1.5q-44 0 -73 26.5t-29 65.5q0 78 85 132h-329l127 716h414l-14 -81h-330z" />
    <glyph glyph-name="eogonek" unicode="&#x119;" horiz-adv-x="564" 
d="M291 -224q-44 0 -72.5 26.5t-28.5 65.5q0 69 63 116h-4q-66 3 -115 35t-75 84.5t-26 114.5q0 80 36 151t102 114t151 43q66 0 114 -29t73 -78.5t25 -107.5q0 -43 -9 -72h-404q-2 -20 -2 -32q0 -44 20.5 -77.5t54 -51t71.5 -17.5q59 0 100.5 24.5t69.5 70.5l65 -37
q-23 -42 -56.5 -71t-69.5 -43q-43 -18 -74.5 -52t-31.5 -67q0 -19 11.5 -29.5t29.5 -10.5q20 0 42 9l-13 -72q-18 -7 -47 -7zM449 309v14q0 33 -16 62t-47 46.5t-74 17.5q-64 0 -111.5 -39.5t-65.5 -100.5h314z" />
    <glyph glyph-name="Ecaron" unicode="&#x11a;" horiz-adv-x="550" 
d="M161 716h414l-14 -81h-330l-42 -237h298l-14 -80h-298l-42 -237h330l-15 -81h-414zM270 895l1 5h77l43 -63h8l63 63h88l-1 -5l-123 -116h-75z" />
    <glyph glyph-name="ecaron" unicode="&#x11b;" horiz-adv-x="564" 
d="M261 -16q-69 0 -121 31.5t-79.5 85t-27.5 117.5q0 80 36 151t102 114t151 43q66 0 114 -29t73 -78.5t25 -107.5q0 -43 -9 -72h-404q-2 -20 -2 -32q0 -44 20.5 -77.5t54 -51t71.5 -17.5q59 0 100.5 24.5t69.5 70.5l65 -37q-38 -66 -99 -100.5t-140 -34.5zM449 309v14
q0 33 -16 62t-47 46.5t-74 17.5q-64 0 -111.5 -39.5t-65.5 -100.5h314zM222 731l1 5h77l44 -64h8l62 64h89l-1 -5l-124 -117h-74z" />
    <glyph glyph-name="Gcircumflex" unicode="&#x11c;" horiz-adv-x="814" 
d="M378 -16q-85 0 -158 40t-117.5 115t-44.5 174q0 113 55.5 209t155.5 153t226 57q79 0 145.5 -29.5t100.5 -80.5l-69 -58q-25 40 -77 63.5t-113 23.5q-93 0 -170.5 -44t-122 -120.5t-44.5 -169.5q0 -78 33 -135t89 -87t122 -30q67 0 122.5 23.5t96.5 66.5q57 59 78 147
h-259l14 79h344q0 -20 -5 -52q-19 -135 -110 -229q-111 -116 -292 -116zM351 784l123 116h75l81 -116l-1 -5h-76l-44 63h-8l-63 -63h-88z" />
    <glyph glyph-name="gcircumflex" unicode="&#x11d;" horiz-adv-x="597" 
d="M207 -232q-58 0 -101.5 21t-69.5 53.5t-33 68.5l82 33q11 -44 45 -71.5t89 -27.5q79 0 130 47t65 129l10 56h-4q-29 -42 -73 -64.5t-108 -22.5q-57 0 -104 28.5t-74 81t-27 119.5q0 81 36 151.5t101.5 113t150.5 42.5q58 0 101 -25t61 -64h4l13 73h81l-87 -494
q-22 -126 -98 -187t-190 -61zM257 67q58 0 104.5 31t72.5 82.5t26 110.5q0 72 -39 115t-100 43q-60 0 -106 -30t-71 -81.5t-25 -114.5q0 -73 39 -114.5t99 -41.5zM200 619l123 117h74l82 -117l-1 -5h-77l-43 64h-9l-62 -64h-88z" />
    <glyph glyph-name="Gbreve" unicode="&#x11e;" horiz-adv-x="814" 
d="M378 -16q-85 0 -158 40t-117.5 115t-44.5 174q0 113 55.5 209t155.5 153t226 57q79 0 145.5 -29.5t100.5 -80.5l-69 -58q-25 40 -77 63.5t-113 23.5q-93 0 -170.5 -44t-122 -120.5t-44.5 -169.5q0 -78 33 -135t89 -87t122 -30q67 0 122.5 23.5t96.5 66.5q57 59 78 147
h-259l14 79h344q0 -20 -5 -52q-19 -135 -110 -229q-111 -116 -292 -116zM496 772q-46 0 -78.5 29.5t-32.5 73.5q0 7 2 21h69q-1 -5 -1 -12q0 -21 12.5 -34.5t36.5 -13.5q26 0 44.5 16t23.5 44h68q-9 -61 -47.5 -92.5t-96.5 -31.5z" />
    <glyph glyph-name="gbreve" unicode="&#x11f;" horiz-adv-x="597" 
d="M207 -232q-58 0 -101.5 21t-69.5 53.5t-33 68.5l82 33q11 -44 45 -71.5t89 -27.5q79 0 130 47t65 129l10 56h-4q-29 -42 -73 -64.5t-108 -22.5q-57 0 -104 28.5t-74 81t-27 119.5q0 81 36 151.5t101.5 113t150.5 42.5q58 0 101 -25t61 -64h4l13 73h81l-87 -494
q-22 -126 -98 -187t-190 -61zM257 67q58 0 104.5 31t72.5 82.5t26 110.5q0 72 -39 115t-100 43q-60 0 -106 -30t-71 -81.5t-25 -114.5q0 -73 39 -114.5t99 -41.5zM343 607q-46 0 -78.5 29.5t-32.5 74.5q0 7 2 21h69q-1 -5 -1 -12q0 -21 12.5 -35t36.5 -14q26 0 44.5 16.5
t23.5 44.5h68q-10 -62 -48 -93.5t-96 -31.5z" />
    <glyph glyph-name="Gdotaccent" unicode="&#x120;" horiz-adv-x="814" 
d="M378 -16q-85 0 -158 40t-117.5 115t-44.5 174q0 113 55.5 209t155.5 153t226 57q79 0 145.5 -29.5t100.5 -80.5l-69 -58q-25 40 -77 63.5t-113 23.5q-93 0 -170.5 -44t-122 -120.5t-44.5 -169.5q0 -78 33 -135t89 -87t122 -30q67 0 122.5 23.5t96.5 66.5q57 59 78 147
h-259l14 79h344q0 -20 -5 -52q-19 -135 -110 -229q-111 -116 -292 -116zM508 807q-20 0 -35 15t-15 34q0 21 15 35t35 14q21 0 35 -14t14 -35q0 -20 -14 -34.5t-35 -14.5z" />
    <glyph glyph-name="gdotaccent" unicode="&#x121;" horiz-adv-x="597" 
d="M207 -232q-58 0 -101.5 21t-69.5 53.5t-33 68.5l82 33q11 -44 45 -71.5t89 -27.5q79 0 130 47t65 129l10 56h-4q-29 -42 -73 -64.5t-108 -22.5q-57 0 -104 28.5t-74 81t-27 119.5q0 81 36 151.5t101.5 113t150.5 42.5q58 0 101 -25t61 -64h4l13 73h81l-87 -494
q-22 -126 -98 -187t-190 -61zM257 67q58 0 104.5 31t72.5 82.5t26 110.5q0 72 -39 115t-100 43q-60 0 -106 -30t-71 -81.5t-25 -114.5q0 -73 39 -114.5t99 -41.5zM354 625q-21 0 -37 16t-16 38q0 23 15.5 38t37.5 15q23 0 38.5 -15t15.5 -38q0 -22 -15.5 -38t-38.5 -16z" />
    <glyph glyph-name="uni0122" unicode="&#x122;" horiz-adv-x="814" 
d="M378 -16q-85 0 -158 40t-117.5 115t-44.5 174q0 113 55.5 209t155.5 153t226 57q79 0 145.5 -29.5t100.5 -80.5l-69 -58q-25 40 -77 63.5t-113 23.5q-93 0 -170.5 -44t-122 -120.5t-44.5 -169.5q0 -78 33 -135t89 -87t122 -30q67 0 122.5 23.5t96.5 66.5q57 59 78 147
h-259l14 79h344q0 -20 -5 -52q-19 -135 -110 -229q-111 -116 -292 -116zM351 -155q-18 4 -29 18.5t-11 33.5q0 21 16 38t40 17q25 0 40.5 -16.5t15.5 -40.5q0 -30 -18 -51l-71 -86l-34 29z" />
    <glyph glyph-name="uni0123" unicode="&#x123;" horiz-adv-x="597" 
d="M207 -232q-58 0 -101.5 21t-69.5 53.5t-33 68.5l82 33q11 -44 45 -71.5t89 -27.5q79 0 130 47t65 129l10 56h-4q-29 -42 -73 -64.5t-108 -22.5q-57 0 -104 28.5t-74 81t-27 119.5q0 81 36 151.5t101.5 113t150.5 42.5q58 0 101 -25t61 -64h4l13 73h81l-87 -494
q-22 -126 -98 -187t-190 -61zM257 67q58 0 104.5 31t72.5 82.5t26 110.5q0 72 -39 115t-100 43q-60 0 -106 -30t-71 -81.5t-25 -114.5q0 -73 39 -114.5t99 -41.5zM367 699q18 -4 29 -18.5t11 -33.5q0 -21 -16 -38t-40 -17q-25 0 -40.5 16.5t-15.5 40.5q0 30 18 51l71 86
l34 -29z" />
    <glyph glyph-name="Hcircumflex" unicode="&#x124;" horiz-adv-x="698" 
d="M161 716h84l-55 -310h369l56 310h84l-127 -716h-84l57 326h-369l-58 -326h-84zM297 784l123 116h75l81 -116l-1 -5h-76l-44 63h-8l-63 -63h-88z" />
    <glyph glyph-name="hcircumflex" unicode="&#x125;" horiz-adv-x="561" 
d="M145 716h85l-38 -211l-16 -70h4q28 41 73 66t102 25q78 0 121 -41.5t43 -109.5q0 -32 -7 -68l-55 -307h-84l54 307q6 27 6 49q0 42 -29.5 67.5t-77.5 25.5q-63 0 -111 -48t-62 -124l-49 -277h-85zM56 783l123 117h74l82 -117l-1 -5h-77l-43 64h-9l-62 -64h-88z" />
    <glyph glyph-name="Hbar" unicode="&#x126;" horiz-adv-x="698" 
d="M60 509l12 66h64l25 141h84l-25 -141h369l26 141h84l-25 -141h64l-11 -66h-64l-91 -509h-84l57 326h-369l-58 -326h-84l90 509h-64zM577 509h-369l-18 -103h369z" />
    <glyph glyph-name="hbar" unicode="&#x127;" horiz-adv-x="561" 
d="M122 583h-65l13 67h63l12 66h85l-12 -66h148l-12 -67h-148l-14 -78l-16 -70h4q28 41 73 66t102 25q78 0 121 -41.5t43 -109.5q0 -32 -7 -68l-55 -307h-84l54 307q6 27 6 49q0 42 -29.5 67.5t-77.5 25.5q-63 0 -111 -48t-62 -124l-50 -277h-84z" />
    <glyph glyph-name="Itilde" unicode="&#x128;" horiz-adv-x="244" 
d="M161 716h84l-127 -716h-84zM289 780q-17 0 -32 6t-34 18q-18 11 -31.5 17t-29.5 6q-33 0 -42 -37h-70q8 56 38 85t74 29q17 0 32.5 -6t34.5 -18q18 -11 31.5 -17t28.5 -6q33 0 42 37h70q-7 -56 -37.5 -85t-74.5 -29z" />
    <glyph glyph-name="itilde" unicode="&#x129;" horiz-adv-x="227" 
d="M116 510h85l-90 -510h-85zM251 616q-17 0 -32 6t-34 18q-18 11 -31.5 17t-29.5 6q-33 0 -42 -37h-70q7 56 37 84.5t74 28.5q17 0 31 -6t36 -18q18 -11 31.5 -17t29.5 -6q32 0 41 37h71q-8 -56 -38 -84.5t-74 -28.5z" />
    <glyph glyph-name="Imacron" unicode="&#x12a;" horiz-adv-x="244" 
d="M109 876h245l-11 -66h-246zM161 716h84l-127 -716h-84z" />
    <glyph glyph-name="imacron" unicode="&#x12b;" horiz-adv-x="227" 
d="M116 510h85l-90 -510h-85zM55 712h277l-12 -67h-277z" />
    <glyph glyph-name="Ibreve" unicode="&#x12c;" horiz-adv-x="244" 
d="M161 716h84l-127 -716h-84zM216 772q-46 0 -78.5 29.5t-32.5 73.5q0 7 2 21h69q-1 -5 -1 -12q0 -21 12.5 -34.5t36.5 -13.5q26 0 44.5 16t23.5 44h68q-9 -61 -47.5 -92.5t-96.5 -31.5z" />
    <glyph glyph-name="ibreve" unicode="&#x12d;" horiz-adv-x="227" 
d="M116 510h85l-90 -510h-85zM177 607q-46 0 -78.5 29.5t-32.5 74.5q0 7 2 21h69q-1 -5 -1 -12q0 -21 12.5 -35t36.5 -14q26 0 44.5 16.5t23.5 44.5h68q-10 -62 -48 -93.5t-96 -31.5z" />
    <glyph glyph-name="Iogonek" unicode="&#x12e;" horiz-adv-x="244" 
d="M50 -224q-44 0 -72.5 26.5t-28.5 65.5q0 80 85 133l127 715h84l-127 -716q-35 -20 -63 -51.5t-28 -62.5q0 -19 11.5 -29.5t29.5 -10.5q20 0 42 9l-13 -72q-18 -7 -47 -7z" />
    <glyph glyph-name="iogonek" unicode="&#x12f;" horiz-adv-x="223" 
d="M186 604q-25 0 -43 18t-18 43q0 26 18 43.5t43 17.5q26 0 43.5 -17.5t17.5 -43.5q0 -25 -17.5 -43t-43.5 -18zM42 -224q-44 0 -72.5 26.5t-28.5 65.5q0 79 85 133l89 509h85l-90 -510q-35 -20 -63 -51.5t-28 -62.5q0 -19 11.5 -29.5t28.5 -10.5q21 0 42 9l-12 -72
q-11 -4 -20.5 -5.5t-26.5 -1.5z" />
    <glyph glyph-name="Idotaccent" unicode="&#x130;" horiz-adv-x="244" 
d="M161 716h84l-127 -716h-84zM228 807q-20 0 -35 15t-15 34q0 21 15 35t35 14q21 0 35 -14t14 -35q0 -20 -14 -34.5t-35 -14.5z" />
    <glyph glyph-name="dotlessi" unicode="&#x131;" horiz-adv-x="227" 
d="M116 510h85l-90 -510h-85z" />
    <glyph glyph-name="IJ" unicode="&#x132;" horiz-adv-x="798" 
d="M706 711h91l-85 -503q-14 -99 -81 -160t-168 -59q-95 2 -146.5 58t-44.5 150h92q-4 -56 20.5 -92.5t83.5 -37.5q62 -2 101 37.5t50 96.5zM250 711l-123 -711h-92l124 711h91z" />
    <glyph glyph-name="ij" unicode="&#x133;" horiz-adv-x="467" 
d="M361 667q0 23 14.5 38.5t37.5 16t37.5 -14.5t14.5 -37q0 -23 -14.5 -37.5t-37 -15t-37.5 13.5t-15 36zM346 528h89l-100 -591q-8 -66 -46 -109.5t-110 -42.5q-28 1 -59 9l9 73q24 -6 41 -6q62 0 75 76zM132 667q0 23 14.5 38.5t37.5 16t37.5 -14.5t14.5 -37t-15 -37
t-37.5 -15.5t-37 13.5t-14.5 36zM203 528l-92 -528h-89l92 528h89z" />
    <glyph glyph-name="Jcircumflex" unicode="&#x134;" horiz-adv-x="531" 
d="M207 -16q-79 0 -132 45t-62 121l82 32q6 -61 39 -89t83 -28q60 0 103.5 42t54.5 107l88 502h84l-87 -496q-20 -117 -88 -176.5t-165 -59.5zM373 784l123 116h75l81 -116l-1 -5h-76l-44 63h-8l-63 -63h-88z" />
    <glyph glyph-name="jcircumflex" unicode="&#x135;" horiz-adv-x="230" 
d="M-64 -226q-24 0 -50 8l14 79q7 -4 19.5 -7t22.5 -3q58 0 70 71l104 588h85l-105 -592q-14 -79 -54.5 -111.5t-105.5 -32.5zM34 619l123 117h74l82 -117l-1 -5h-77l-43 64h-9l-62 -64h-88z" />
    <glyph glyph-name="uni0136" unicode="&#x136;" horiz-adv-x="626" 
d="M161 716h84l-65 -374h4l385 374h112l-1 -4l-319 -306l213 -402l-1 -4h-99l-180 341l-138 -131l-38 -210h-84zM260 -155q-18 4 -29 18.5t-11 33.5q0 21 16 38t40 17q25 0 40.5 -16.5t15.5 -40.5q0 -30 -18 -51l-71 -86l-34 29z" />
    <glyph glyph-name="uni0137" unicode="&#x137;" horiz-adv-x="507" 
d="M147 716h84l-78 -444l275 238h115l-1 -4l-238 -202l152 -300l-1 -4h-99l-120 246l-103 -88l-28 -158h-84zM198 -155q-18 4 -29 18.5t-11 33.5q0 21 16 38t40 17q25 0 40.5 -16.5t15.5 -40.5q0 -30 -18 -51l-71 -86l-34 29z" />
    <glyph glyph-name="kgreenlandic" unicode="&#x138;" horiz-adv-x="494" 
d="M111 510h85l-41 -231h4l252 231h111l-1 -4l-271 -241l193 -261l-1 -4h-101l-186 257h-4l-46 -257h-83z" />
    <glyph glyph-name="Lacute" unicode="&#x139;" horiz-adv-x="508" 
d="M161 716h84l-112 -635h314l-15 -81h-398zM250 900h95l-93 -127h-77z" />
    <glyph glyph-name="lacute" unicode="&#x13a;" horiz-adv-x="212" 
d="M145 716h84l-126 -716h-84zM233 900h95l-93 -127h-76z" />
    <glyph glyph-name="uni013B" unicode="&#x13b;" horiz-adv-x="508" 
d="M161 716h84l-112 -635h314l-15 -81h-398zM222 -155q-18 4 -29 18.5t-11 33.5q0 21 16 38t40 17q25 0 40.5 -16.5t15.5 -40.5q0 -30 -18 -51l-71 -86l-34 29z" />
    <glyph glyph-name="uni013C" unicode="&#x13c;" horiz-adv-x="212" 
d="M145 716h84l-126 -716h-84zM27 -155q-18 4 -29 18.5t-11 33.5q0 21 16 38t40 17q25 0 40.5 -16.5t15.5 -40.5q0 -30 -18 -51l-71 -86l-34 29z" />
    <glyph glyph-name="Lcaron" unicode="&#x13d;" horiz-adv-x="508" 
d="M161 716h84l-112 -635h314l-15 -81h-398zM398 716h92l-63 -189h-62z" />
    <glyph glyph-name="lcaron" unicode="&#x13e;" horiz-adv-x="309" 
d="M145 716h84l-126 -716h-84zM298 716h92l-63 -189h-62z" />
    <glyph glyph-name="Ldot" unicode="&#x13f;" horiz-adv-x="508" 
d="M161 716h84l-112 -635h314l-15 -81h-398zM356 280q-26 0 -44.5 18.5t-18.5 45.5t18.5 45.5t44.5 18.5q27 0 45.5 -18.5t18.5 -45.5t-18.5 -45.5t-45.5 -18.5z" />
    <glyph glyph-name="ldot" unicode="&#x140;" horiz-adv-x="343" 
d="M231 380q0 23 14.5 38t37.5 15q22 0 37 -14t15 -37t-14.5 -37.5t-37.5 -15.5q-23 0 -37.5 14.5t-14.5 36.5zM241 750l-130 -750h-89l130 750h89z" />
    <glyph glyph-name="Lslash" unicode="&#x141;" horiz-adv-x="575" 
d="M80 242l-34 62l120 67l62 345h84l-50 -286l140 79l34 -63l-191 -107l-45 -258h314l-15 -81h-398l50 281z" />
    <glyph glyph-name="lslash" unicode="&#x142;" horiz-adv-x="357" 
d="M143 310l-65 -41l-37 61l120 78l54 308h85l-45 -251l80 53l38 -63l-135 -87l-65 -368h-84z" />
    <glyph glyph-name="Nacute" unicode="&#x143;" horiz-adv-x="707" 
d="M161 716h97l265 -570h4l21 138l76 432h85l-127 -716h-81l-277 597h-4l-20 -138l-82 -459h-84zM481 900h95l-93 -127h-77z" />
    <glyph glyph-name="nacute" unicode="&#x144;" horiz-adv-x="561" 
d="M180 435q27 41 72 66t103 25q76 0 119.5 -41.5t43.5 -109.5q0 -40 -6 -71l-54 -304h-85l54 306q6 38 6 50q0 44 -29.5 68.5t-78.5 24.5q-62 0 -110 -46t-60 -116l-51 -287h-85l90 510h80l-13 -75h4zM391 736h95l-93 -127h-76z" />
    <glyph glyph-name="uni0145" unicode="&#x145;" horiz-adv-x="707" 
d="M161 716h97l265 -570h4l21 138l76 432h85l-127 -716h-81l-277 597h-4l-20 -138l-82 -459h-84zM276 -155q-18 4 -29 18.5t-11 33.5q0 21 16 38t40 17q25 0 40.5 -16.5t15.5 -40.5q0 -30 -18 -51l-71 -86l-34 29z" />
    <glyph glyph-name="uni0146" unicode="&#x146;" horiz-adv-x="561" 
d="M180 435q27 41 72 66t103 25q76 0 119.5 -41.5t43.5 -109.5q0 -40 -6 -71l-54 -304h-85l54 306q6 38 6 50q0 44 -29.5 68.5t-78.5 24.5q-62 0 -110 -46t-60 -116l-51 -287h-85l90 510h80l-13 -75h4zM212 -155q-18 4 -29 18.5t-11 33.5q0 21 16 38t40 17q25 0 40.5 -16.5
t15.5 -40.5q0 -30 -18 -51l-71 -86l-34 29z" />
    <glyph glyph-name="Ncaron" unicode="&#x147;" horiz-adv-x="707" 
d="M161 716h97l265 -570h4l21 138l76 432h85l-127 -716h-81l-277 597h-4l-20 -138l-82 -459h-84zM330 895l1 5h77l43 -63h8l63 63h88l-1 -5l-123 -116h-75z" />
    <glyph glyph-name="ncaron" unicode="&#x148;" horiz-adv-x="561" 
d="M180 435q27 41 72 66t103 25q76 0 119.5 -41.5t43.5 -109.5q0 -40 -6 -71l-54 -304h-85l54 306q6 38 6 50q0 44 -29.5 68.5t-78.5 24.5q-62 0 -110 -46t-60 -116l-51 -287h-85l90 510h80l-13 -75h4zM241 731l1 5h77l44 -64h8l62 64h89l-1 -5l-124 -117h-74z" />
    <glyph glyph-name="napostrophe" unicode="&#x149;" horiz-adv-x="535" 
d="M165 753l-6 -38q-15 -97 -91 -158l-49 37q45 62 56 119l6 40h84zM309 462q-45 1 -80 -24t-60 -60l-65 -378h-88l91 528l84 1l-13 -67q69 77 162 76q85 -1 115 -58t22 -134l-58 -346h-88l58 348q5 47 -11 80t-69 34z" />
    <glyph glyph-name="Eng" unicode="&#x14a;" horiz-adv-x="707" 
d="M403 -226q-25 0 -43 6l15 81q15 -10 37 -10q31 0 48 19.5t24 57.5l14 76l-274 593h-4l-20 -138l-82 -459h-84l127 716h97l265 -570h4l21 138l76 432h85l-140 -789q-14 -77 -57.5 -115t-108.5 -38z" />
    <glyph glyph-name="eng" unicode="&#x14b;" horiz-adv-x="561" 
d="M283 -226q-25 0 -49 8l14 79q6 -4 18.5 -7t22.5 -3q31 0 47.5 18t22.5 53l68 382q6 38 6 52q0 44 -29.5 68.5t-78.5 24.5q-62 0 -110 -46t-60 -116l-51 -287h-85l90 510h80l-13 -75h4q27 41 72 66t103 25q76 0 119.5 -41.5t43.5 -109.5q0 -40 -6 -71l-68 -386
q-14 -79 -55 -111.5t-106 -32.5z" />
    <glyph glyph-name="Omacron" unicode="&#x14c;" horiz-adv-x="825" 
d="M383 -16q-91 0 -165.5 41.5t-117.5 115.5t-43 168q0 110 54 207.5t150.5 156.5t218.5 59q90 0 164 -41.5t117 -115.5t43 -168q0 -110 -53.5 -207.5t-150 -156.5t-217.5 -59zM391 65q89 0 164 47.5t118.5 125t43.5 162.5q0 76 -32.5 133t-89 87.5t-125.5 30.5
q-89 0 -163.5 -47.5t-118 -125t-43.5 -162.5q0 -76 32.5 -133t88.5 -87.5t125 -30.5zM369 876h276l-12 -66h-276z" />
    <glyph glyph-name="omacron" unicode="&#x14d;" horiz-adv-x="595" 
d="M265 -16q-67 0 -119.5 32t-81.5 87.5t-29 123.5q0 83 36.5 151t104 108t154.5 40q68 0 120.5 -32t81 -87.5t28.5 -123.5q0 -83 -36.5 -151.5t-104 -108t-154.5 -39.5zM275 61q58 0 103.5 29.5t70.5 79t25 108.5q0 74 -42.5 122.5t-111.5 48.5q-58 0 -103.5 -29.5
t-70.5 -79t-25 -108.5q0 -75 42.5 -123t111.5 -48zM231 712h277l-12 -67h-277z" />
    <glyph glyph-name="Obreve" unicode="&#x14e;" horiz-adv-x="825" 
d="M383 -16q-91 0 -165.5 41.5t-117.5 115.5t-43 168q0 110 54 207.5t150.5 156.5t218.5 59q90 0 164 -41.5t117 -115.5t43 -168q0 -110 -53.5 -207.5t-150 -156.5t-217.5 -59zM391 65q89 0 164 47.5t118.5 125t43.5 162.5q0 76 -32.5 133t-89 87.5t-125.5 30.5
q-89 0 -163.5 -47.5t-118 -125t-43.5 -162.5q0 -76 32.5 -133t88.5 -87.5t125 -30.5zM492 772q-46 0 -78.5 29.5t-32.5 73.5q0 7 2 21h69q-1 -5 -1 -12q0 -21 12.5 -34.5t36.5 -13.5q26 0 44.5 16t23.5 44h68q-9 -61 -47.5 -92.5t-96.5 -31.5z" />
    <glyph glyph-name="obreve" unicode="&#x14f;" horiz-adv-x="595" 
d="M265 -16q-67 0 -119.5 32t-81.5 87.5t-29 123.5q0 83 36.5 151t104 108t154.5 40q68 0 120.5 -32t81 -87.5t28.5 -123.5q0 -83 -36.5 -151.5t-104 -108t-154.5 -39.5zM275 61q58 0 103.5 29.5t70.5 79t25 108.5q0 74 -42.5 122.5t-111.5 48.5q-58 0 -103.5 -29.5
t-70.5 -79t-25 -108.5q0 -75 42.5 -123t111.5 -48zM353 607q-46 0 -78.5 29.5t-32.5 74.5q0 7 2 21h69q-1 -5 -1 -12q0 -21 12.5 -35t36.5 -14q26 0 44.5 16.5t23.5 44.5h68q-10 -62 -48 -93.5t-96 -31.5z" />
    <glyph glyph-name="Ohungarumlaut" unicode="&#x150;" horiz-adv-x="825" 
d="M383 -16q-91 0 -165.5 41.5t-117.5 115.5t-43 168q0 110 54 207.5t150.5 156.5t218.5 59q90 0 164 -41.5t117 -115.5t43 -168q0 -110 -53.5 -207.5t-150 -156.5t-217.5 -59zM391 65q89 0 164 47.5t118.5 125t43.5 162.5q0 76 -32.5 133t-89 87.5t-125.5 30.5
q-89 0 -163.5 -47.5t-118 -125t-43.5 -162.5q0 -76 32.5 -133t88.5 -87.5t125 -30.5zM462 900h95l-93 -127h-77zM589 900h95l-93 -127h-77z" />
    <glyph glyph-name="ohungarumlaut" unicode="&#x151;" horiz-adv-x="595" 
d="M265 -16q-67 0 -119.5 32t-81.5 87.5t-29 123.5q0 83 36.5 151t104 108t154.5 40q68 0 120.5 -32t81 -87.5t28.5 -123.5q0 -83 -36.5 -151.5t-104 -108t-154.5 -39.5zM275 61q58 0 103.5 29.5t70.5 79t25 108.5q0 74 -42.5 122.5t-111.5 48.5q-58 0 -103.5 -29.5
t-70.5 -79t-25 -108.5q0 -75 42.5 -123t111.5 -48zM307 736h95l-93 -127h-77zM466 736h95l-93 -127h-77z" />
    <glyph glyph-name="OE" unicode="&#x152;" horiz-adv-x="1166" 
d="M383 -16q-91 0 -165.5 41.5t-117.5 115.5t-43 168q0 110 54 207.5t151 156.5t219 59q88 0 159.5 -39.5t112.5 -109.5l24 133h414l-14 -81h-330l-42 -237h298l-14 -80h-298l-42 -237h330l-15 -81h-414l18 99q-57 -55 -129 -85t-156 -30zM391 65q89 0 163.5 47.5t118 125
t43.5 162.5q0 76 -32.5 133t-88.5 87.5t-125 30.5q-89 0 -164 -47.5t-118 -125t-43 -162.5q0 -76 32.5 -133t88.5 -87.5t125 -30.5z" />
    <glyph glyph-name="oe" unicode="&#x153;" horiz-adv-x="1008" 
d="M269 -16q-68 0 -121.5 32t-83 87.5t-29.5 123.5q0 82 37.5 150.5t105.5 108.5t156 40q68 0 121 -32.5t81 -88.5q39 56 98 88.5t132 32.5q65 0 113 -29t73.5 -78t25.5 -108q0 -42 -9 -72h-404q-2 -18 -2 -32q0 -44 20.5 -77.5t54 -51t71.5 -17.5q60 0 100.5 24t68.5 71
l65 -37q-37 -66 -98 -100.5t-141 -34.5q-67 0 -118 31t-79 84q-40 -54 -101.5 -84.5t-136.5 -30.5zM278 61q59 0 105 29.5t72 79t26 108.5q0 49 -20 88t-55.5 61t-81.5 22q-58 0 -104.5 -29.5t-72.5 -79.5t-26 -108q0 -49 20 -88t55.5 -61t81.5 -22zM892 309v14
q0 51 -35.5 88.5t-100.5 37.5q-64 0 -111 -39.5t-66 -100.5h313z" />
    <glyph glyph-name="Racute" unicode="&#x154;" horiz-adv-x="586" 
d="M161 716h235q56 0 100 -24t69 -67t25 -99q0 -88 -57.5 -149t-151.5 -79l-3 -3l149 -291l-1 -4h-95l-146 292h-114l-53 -292h-84zM337 371q71 0 118.5 41t47.5 112q0 48 -32.5 79.5t-88.5 31.5h-151l-46 -264h152zM399 900h95l-93 -127h-77z" />
    <glyph glyph-name="racute" unicode="&#x155;" horiz-adv-x="375" 
d="M109 510h80l-13 -76h4q20 42 66.5 66.5t97.5 24.5q36 0 59 -10l-17 -93q-25 17 -69 17q-36 0 -71.5 -21t-60 -56.5t-31.5 -76.5l-50 -285h-85zM307 736h95l-93 -127h-76z" />
    <glyph glyph-name="uni0156" unicode="&#x156;" horiz-adv-x="586" 
d="M161 716h235q56 0 100 -24t69 -67t25 -99q0 -88 -57.5 -149t-151.5 -79l-3 -3l149 -291l-1 -4h-95l-146 292h-114l-53 -292h-84zM337 371q71 0 118.5 41t47.5 112q0 48 -32.5 79.5t-88.5 31.5h-151l-46 -264h152zM239 -155q-18 4 -29 18.5t-11 33.5q0 21 16 38t40 17
q25 0 40.5 -16.5t15.5 -40.5q0 -30 -18 -51l-71 -86l-34 29z" />
    <glyph glyph-name="uni0157" unicode="&#x157;" horiz-adv-x="375" 
d="M109 510h80l-13 -76h4q20 42 66.5 66.5t97.5 24.5q36 0 59 -10l-17 -93q-25 17 -69 17q-36 0 -71.5 -21t-60 -56.5t-31.5 -76.5l-50 -285h-85zM27 -155q-18 4 -29 18.5t-11 33.5q0 21 16 38t40 17q25 0 40.5 -16.5t15.5 -40.5q0 -30 -18 -51l-71 -86l-34 29z" />
    <glyph glyph-name="Rcaron" unicode="&#x158;" horiz-adv-x="586" 
d="M161 716h235q56 0 100 -24t69 -67t25 -99q0 -88 -57.5 -149t-151.5 -79l-3 -3l149 -291l-1 -4h-95l-146 292h-114l-53 -292h-84zM337 371q71 0 118.5 41t47.5 112q0 48 -32.5 79.5t-88.5 31.5h-151l-46 -264h152zM248 895l1 5h77l43 -63h8l63 63h88l-1 -5l-123 -116h-75z
" />
    <glyph glyph-name="rcaron" unicode="&#x159;" horiz-adv-x="375" 
d="M109 510h80l-13 -76h4q20 42 66.5 66.5t97.5 24.5q36 0 59 -10l-17 -93q-25 17 -69 17q-36 0 -71.5 -21t-60 -56.5t-31.5 -76.5l-50 -285h-85zM157 731l1 5h77l44 -64h8l62 64h89l-1 -5l-124 -117h-74z" />
    <glyph glyph-name="Sacute" unicode="&#x15a;" horiz-adv-x="564" 
d="M249 -16q-88 0 -150 51.5t-76 142.5l81 33q8 -65 48 -105.5t107 -40.5q41 0 78.5 17.5t61 49.5t23.5 74q0 45 -30.5 74.5t-98.5 54.5l-43 16q-63 24 -103 67t-40 111q0 58 32.5 104t87 72.5t118.5 26.5q65 0 110 -23.5t68.5 -57.5t28.5 -67l-82 -30q-7 38 -38 67.5
t-93 29.5q-61 0 -102.5 -31.5t-41.5 -83.5q0 -41 28 -68t83 -48l43 -16q161 -60 161 -186q0 -70 -34 -123t-93.5 -82t-133.5 -29zM392 900h95l-93 -127h-77z" />
    <glyph glyph-name="sacute" unicode="&#x15b;" horiz-adv-x="468" 
d="M209 -16q-81 0 -134 39t-70 101l81 32q10 -46 47 -71.5t84 -25.5q49 0 80.5 23t31.5 58q0 31 -21 51.5t-65 31.5l-51 13q-61 16 -96.5 50t-35.5 86q0 43 25.5 78.5t71.5 55.5t103 20q68 0 119.5 -32t68.5 -84l-81 -31q-12 32 -41.5 51.5t-70.5 19.5q-48 0 -77.5 -20
t-29.5 -52q0 -22 19 -41t55 -28l66 -17q60 -15 94.5 -52t34.5 -90q0 -75 -55.5 -120.5t-152.5 -45.5zM316 736h95l-93 -127h-76z" />
    <glyph glyph-name="Scircumflex" unicode="&#x15c;" horiz-adv-x="564" 
d="M249 -16q-88 0 -150 51.5t-76 142.5l81 33q8 -65 48 -105.5t107 -40.5q41 0 78.5 17.5t61 49.5t23.5 74q0 45 -30.5 74.5t-98.5 54.5l-43 16q-63 24 -103 67t-40 111q0 58 32.5 104t87 72.5t118.5 26.5q65 0 110 -23.5t68.5 -57.5t28.5 -67l-82 -30q-7 38 -38 67.5
t-93 29.5q-61 0 -102.5 -31.5t-41.5 -83.5q0 -41 28 -68t83 -48l43 -16q161 -60 161 -186q0 -70 -34 -123t-93.5 -82t-133.5 -29zM213 784l123 116h75l81 -116l-1 -5h-76l-44 63h-8l-63 -63h-88z" />
    <glyph glyph-name="scircumflex" unicode="&#x15d;" horiz-adv-x="468" 
d="M209 -16q-81 0 -134 39t-70 101l81 32q10 -46 47 -71.5t84 -25.5q49 0 80.5 23t31.5 58q0 31 -21 51.5t-65 31.5l-51 13q-61 16 -96.5 50t-35.5 86q0 43 25.5 78.5t71.5 55.5t103 20q68 0 119.5 -32t68.5 -84l-81 -31q-12 32 -41.5 51.5t-70.5 19.5q-48 0 -77.5 -20
t-29.5 -52q0 -22 19 -41t55 -28l66 -17q60 -15 94.5 -52t34.5 -90q0 -75 -55.5 -120.5t-152.5 -45.5zM139 619l123 117h74l82 -117l-1 -5h-77l-43 64h-9l-62 -64h-88z" />
    <glyph glyph-name="Scedilla" unicode="&#x15e;" horiz-adv-x="564" 
d="M349 404q161 -60 161 -186q0 -70 -34 -123t-93.5 -82t-133.5 -29h-6l-20 -33q15 3 22 3q34 0 55 -24.5t21 -63.5q0 -45 -30.5 -74t-80.5 -29q-33 0 -58.5 19.5t-31.5 47.5l53 22q2 -15 13.5 -25.5t27.5 -10.5q21 0 35.5 13.5t14.5 36.5q0 16 -11 27t-28 11q-19 0 -36 -17
l-41 20l45 83q-67 15 -112.5 64t-57.5 124l81 33q8 -65 48 -105.5t107 -40.5q41 0 78.5 17.5t61 49.5t23.5 74q0 45 -30.5 74.5t-98.5 54.5l-43 16q-63 24 -103 67t-40 111q0 58 32.5 104t87 72.5t118.5 26.5q65 0 110 -23.5t68.5 -57.5t28.5 -67l-82 -30q-7 38 -38 67.5
t-93 29.5q-61 0 -102.5 -31.5t-41.5 -83.5q0 -41 28 -68t83 -48z" />
    <glyph glyph-name="scedilla" unicode="&#x15f;" horiz-adv-x="468" 
d="M288 292q60 -15 94.5 -52t34.5 -90q0 -75 -55.5 -120.5t-152.5 -45.5h-3l-20 -33q15 3 22 3q34 0 55 -24.5t21 -63.5q0 -45 -30.5 -74t-80.5 -29q-33 0 -58.5 19.5t-31.5 47.5l53 22q2 -15 13.5 -25.5t27.5 -10.5q21 0 35.5 13.5t14.5 36.5q0 16 -11 27t-28 11
q-19 0 -36 -17l-41 20l45 82q-59 12 -98 48t-53 87l81 32q10 -46 47 -71.5t84 -25.5q49 0 80.5 23t31.5 58q0 31 -21 51.5t-65 31.5l-51 13q-61 16 -96.5 50t-35.5 86q0 43 25.5 78.5t71.5 55.5t103 20q68 0 119.5 -32t68.5 -84l-81 -31q-12 32 -41.5 51.5t-70.5 19.5
q-48 0 -77.5 -20t-29.5 -52q0 -22 19 -41t55 -28z" />
    <glyph glyph-name="Scaron" unicode="&#x160;" horiz-adv-x="564" 
d="M249 -16q-88 0 -150 51.5t-76 142.5l81 33q8 -65 48 -105.5t107 -40.5q41 0 78.5 17.5t61 49.5t23.5 74q0 45 -30.5 74.5t-98.5 54.5l-43 16q-63 24 -103 67t-40 111q0 58 32.5 104t87 72.5t118.5 26.5q65 0 110 -23.5t68.5 -57.5t28.5 -67l-82 -30q-7 38 -38 67.5
t-93 29.5q-61 0 -102.5 -31.5t-41.5 -83.5q0 -41 28 -68t83 -48l43 -16q161 -60 161 -186q0 -70 -34 -123t-93.5 -82t-133.5 -29zM241 895l1 5h77l43 -63h8l63 63h88l-1 -5l-123 -116h-75z" />
    <glyph glyph-name="scaron" unicode="&#x161;" horiz-adv-x="468" 
d="M209 -16q-81 0 -134 39t-70 101l81 32q10 -46 47 -71.5t84 -25.5q49 0 80.5 23t31.5 58q0 31 -21 51.5t-65 31.5l-51 13q-61 16 -96.5 50t-35.5 86q0 43 25.5 78.5t71.5 55.5t103 20q68 0 119.5 -32t68.5 -84l-81 -31q-12 32 -41.5 51.5t-70.5 19.5q-48 0 -77.5 -20
t-29.5 -52q0 -22 19 -41t55 -28l66 -17q60 -15 94.5 -52t34.5 -90q0 -75 -55.5 -120.5t-152.5 -45.5zM166 731l1 5h77l44 -64h8l62 64h89l-1 -5l-124 -117h-74z" />
    <glyph glyph-name="uni0162" unicode="&#x162;" horiz-adv-x="538" 
d="M209 -237q-33 0 -58.5 19.5t-31.5 47.5l53 22q2 -15 13.5 -25.5t27.5 -10.5q20 0 34.5 13.5t14.5 36.5q0 16 -10.5 27t-27.5 11q-19 0 -36 -17l-41 20l51 93h-17l112 635h-201l15 81h486l-15 -81h-200l-113 -635h-14l-30 -49q18 3 23 3q34 0 55 -24.5t21 -63.5
q0 -45 -30.5 -74t-80.5 -29z" />
    <glyph glyph-name="uni0163" unicode="&#x163;" horiz-adv-x="366" 
d="M150 -237q-33 0 -58.5 19.5t-32.5 47.5l53 22q3 -15 14.5 -25.5t27.5 -10.5q20 0 34.5 13.5t14.5 36.5q0 16 -10.5 27t-27.5 11q-20 0 -37 -17l-40 20l55 103q-23 14 -36 38t-13 55q0 22 5 49l50 281h-90l14 77h89l26 144h85l-26 -144h125l-14 -77h-125l-48 -272
q-4 -20 -4 -38q0 -22 14.5 -37t38.5 -15q17 0 28.5 3.5t22.5 10.5l15 -75q-20 -9 -40 -13.5t-47 -4.5q-9 0 -25 2l-26 -43q18 3 23 3q34 0 55 -24.5t21 -63.5q0 -45 -30.5 -74t-80.5 -29z" />
    <glyph glyph-name="Tcaron" unicode="&#x164;" horiz-adv-x="538" 
d="M293 635h-201l15 81h486l-15 -81h-200l-113 -635h-84zM236 895l1 5h77l43 -63h8l63 63h88l-1 -5l-123 -116h-75z" />
    <glyph glyph-name="tcaron" unicode="&#x165;" horiz-adv-x="349" 
d="M355 716h85l-49 -142h-62zM213 -8q-53 0 -86 30.5t-33 80.5q0 23 5 49l50 281h-90l14 77h89l26 144h84l-25 -144h125l-14 -77h-125l-48 -271q-4 -23 -4 -39q0 -25 15.5 -38.5t41.5 -13.5q32 0 61 17l-14 -83q-32 -13 -72 -13z" />
    <glyph glyph-name="Tbar" unicode="&#x166;" horiz-adv-x="538" 
d="M240 341h-129l12 66h129l41 228h-201l15 81h486l-15 -81h-200l-41 -228h131l-12 -66h-131l-60 -341h-84z" />
    <glyph glyph-name="tbar" unicode="&#x167;" horiz-adv-x="366" 
d="M214 -8q-53 0 -86 30.5t-33 80.5q0 23 5 49l15 82h-87l14 77h86l22 122h-90l14 77h89l26 144h84l-25 -144h124l-13 -77h-125l-21 -122h121l-14 -77h-121l-13 -72q-5 -28 -5 -39q0 -24 15.5 -38t41.5 -14q33 0 62 17l-15 -83q-31 -13 -71 -13z" />
    <glyph glyph-name="Utilde" unicode="&#x168;" horiz-adv-x="661" 
d="M285 -16q-60 0 -110 26.5t-79.5 75t-29.5 113.5q0 44 8 94l75 423h84l-78 -443q-6 -35 -6 -61q0 -68 38 -107.5t112 -39.5q85 0 140.5 54.5t71.5 141.5l80 455h84l-82 -466q-22 -125 -101.5 -195.5t-206.5 -70.5zM491 780q-17 0 -32 6t-34 18q-18 11 -31.5 17t-29.5 6
q-33 0 -42 -37h-70q8 56 38 85t74 29q17 0 32.5 -6t34.5 -18q18 -11 31.5 -17t28.5 -6q33 0 42 37h70q-7 -56 -37.5 -85t-74.5 -29z" />
    <glyph glyph-name="utilde" unicode="&#x169;" horiz-adv-x="561" 
d="M382 74q-27 -41 -72 -65.5t-103 -24.5q-76 0 -120 41.5t-44 109.5q0 33 7 71l54 304h84l-54 -306q-5 -25 -5 -50q0 -44 29.5 -68.5t77.5 -24.5q62 0 110 45.5t61 115.5l51 288h84l-89 -510h-81l14 74h-4zM416 616q-17 0 -32 6t-34 18q-18 11 -31.5 17t-29.5 6
q-33 0 -42 -37h-70q7 56 37 84.5t74 28.5q17 0 31 -6t36 -18q18 -11 31.5 -17t29.5 -6q32 0 41 37h71q-8 -56 -38 -84.5t-74 -28.5z" />
    <glyph glyph-name="Umacron" unicode="&#x16a;" horiz-adv-x="661" 
d="M285 -16q-60 0 -110 26.5t-79.5 75t-29.5 113.5q0 44 8 94l75 423h84l-78 -443q-6 -35 -6 -61q0 -68 38 -107.5t112 -39.5q85 0 140.5 54.5t71.5 141.5l80 455h84l-82 -466q-22 -125 -101.5 -195.5t-206.5 -70.5zM295 876h276l-12 -66h-276z" />
    <glyph glyph-name="umacron" unicode="&#x16b;" horiz-adv-x="561" 
d="M382 74q-27 -41 -72 -65.5t-103 -24.5q-76 0 -120 41.5t-44 109.5q0 33 7 71l54 304h84l-54 -306q-5 -25 -5 -50q0 -44 29.5 -68.5t77.5 -24.5q62 0 110 45.5t61 115.5l51 288h84l-89 -510h-81l14 74h-4zM220 712h277l-12 -67h-277z" />
    <glyph glyph-name="Ubreve" unicode="&#x16c;" horiz-adv-x="661" 
d="M285 -16q-60 0 -110 26.5t-79.5 75t-29.5 113.5q0 44 8 94l75 423h84l-78 -443q-6 -35 -6 -61q0 -68 38 -107.5t112 -39.5q85 0 140.5 54.5t71.5 141.5l80 455h84l-82 -466q-22 -125 -101.5 -195.5t-206.5 -70.5zM418 772q-46 0 -78.5 29.5t-32.5 73.5q0 7 2 21h69
q-1 -5 -1 -12q0 -21 12.5 -34.5t36.5 -13.5q26 0 44.5 16t23.5 44h68q-9 -61 -47.5 -92.5t-96.5 -31.5z" />
    <glyph glyph-name="ubreve" unicode="&#x16d;" horiz-adv-x="561" 
d="M382 74q-27 -41 -72 -65.5t-103 -24.5q-76 0 -120 41.5t-44 109.5q0 33 7 71l54 304h84l-54 -306q-5 -25 -5 -50q0 -44 29.5 -68.5t77.5 -24.5q62 0 110 45.5t61 115.5l51 288h84l-89 -510h-81l14 74h-4zM342 607q-46 0 -78.5 29.5t-32.5 74.5q0 7 2 21h69q-1 -5 -1 -12
q0 -21 12.5 -35t36.5 -14q26 0 44.5 16.5t23.5 44.5h68q-10 -62 -48 -93.5t-96 -31.5z" />
    <glyph glyph-name="Uring" unicode="&#x16e;" horiz-adv-x="661" 
d="M285 -16q-60 0 -110 26.5t-79.5 75t-29.5 113.5q0 44 8 94l75 423h84l-78 -443q-6 -35 -6 -61q0 -68 38 -107.5t112 -39.5q85 0 140.5 54.5t71.5 141.5l80 455h84l-82 -466q-22 -125 -101.5 -195.5t-206.5 -70.5zM430 753q-43 0 -73 30t-30 73q0 44 30 73.5t73 29.5
t73.5 -30t30.5 -73t-30.5 -73t-73.5 -30zM430 808q19 0 33 14t14 34t-13.5 33.5t-33.5 13.5q-19 0 -33 -14t-14 -33t14 -33.5t33 -14.5z" />
    <glyph glyph-name="uring" unicode="&#x16f;" horiz-adv-x="561" 
d="M382 74q-27 -41 -72 -65.5t-103 -24.5q-76 0 -120 41.5t-44 109.5q0 33 7 71l54 304h84l-54 -306q-5 -25 -5 -50q0 -44 29.5 -68.5t77.5 -24.5q62 0 110 45.5t61 115.5l51 288h84l-89 -510h-81l14 74h-4zM355 588q-43 0 -73.5 30.5t-30.5 73.5t30.5 73t73.5 30t73 -30
t30 -73t-30 -73.5t-73 -30.5zM355 644q19 0 33 14t14 34q0 19 -14 33t-33 14q-20 0 -33.5 -13.5t-13.5 -33.5t13.5 -34t33.5 -14z" />
    <glyph glyph-name="Uhungarumlaut" unicode="&#x170;" horiz-adv-x="661" 
d="M285 -16q-60 0 -110 26.5t-79.5 75t-29.5 113.5q0 44 8 94l75 423h84l-78 -443q-6 -35 -6 -61q0 -68 38 -107.5t112 -39.5q85 0 140.5 54.5t71.5 141.5l80 455h84l-82 -466q-22 -125 -101.5 -195.5t-206.5 -70.5zM388 900h95l-93 -127h-77zM515 900h95l-93 -127h-77z" />
    <glyph glyph-name="uhungarumlaut" unicode="&#x171;" horiz-adv-x="561" 
d="M382 74q-27 -41 -72 -65.5t-103 -24.5q-76 0 -120 41.5t-44 109.5q0 33 7 71l54 304h84l-54 -306q-5 -25 -5 -50q0 -44 29.5 -68.5t77.5 -24.5q62 0 110 45.5t61 115.5l51 288h84l-89 -510h-81l14 74h-4zM296 736h95l-93 -127h-77zM455 736h95l-93 -127h-77z" />
    <glyph glyph-name="Uogonek" unicode="&#x172;" horiz-adv-x="661" 
d="M326 -224q-44 0 -73 26.5t-29 65.5q0 34 16.5 63.5t46.5 52.5h-6q-59 1 -108 27.5t-78 75t-29 112.5q0 44 8 94l75 423h84l-78 -443q-6 -35 -6 -61q0 -68 38 -107.5t112 -39.5q85 0 140.5 54.5t71.5 141.5l80 455h84l-82 -466q-17 -93 -64 -154.5t-114 -86.5
q-51 -20 -81.5 -53t-30.5 -70q0 -19 11 -29.5t29 -10.5q12 0 20.5 2t21.5 7l-12 -72q-11 -4 -20.5 -5.5t-26.5 -1.5z" />
    <glyph glyph-name="uogonek" unicode="&#x173;" horiz-adv-x="561" 
d="M385 -224q-44 0 -73 26.5t-29 65.5q0 81 90 133l13 73h-4q-27 -41 -72 -65.5t-103 -24.5q-76 0 -120 41.5t-44 109.5q0 33 7 71l54 304h84l-54 -306q-5 -25 -5 -50q0 -44 29.5 -68.5t77.5 -24.5q63 0 111 46t60 115l51 288h84l-89 -510q-35 -20 -63 -51.5t-28 -62.5
q0 -19 11 -29.5t29 -10.5q12 0 20.5 2t21.5 7l-12 -72q-11 -4 -20.5 -5.5t-26.5 -1.5z" />
    <glyph glyph-name="Wcircumflex" unicode="&#x174;" horiz-adv-x="944" 
d="M99 716h91l42 -575h4l275 575h88l67 -575h4l243 575h95l-316 -716h-88l-72 574h-4l-274 -574h-89zM420 784l123 116h75l81 -116l-1 -5h-76l-44 63h-8l-63 -63h-88z" />
    <glyph glyph-name="wcircumflex" unicode="&#x175;" horiz-adv-x="778" 
d="M52 510h86l48 -403h1l200 403h90l59 -402h1l190 402h89l-254 -510h-89l-58 407l-203 -407h-86zM303 619l123 117h74l82 -117l-1 -5h-77l-43 64h-9l-62 -64h-88z" />
    <glyph glyph-name="Ycircumflex" unicode="&#x176;" horiz-adv-x="595" 
d="M270 331l-174 385h97l130 -300h4l233 300h102l-307 -385l-59 -331h-84zM234 784l123 116h75l81 -116l-1 -5h-76l-44 63h-8l-63 -63h-88z" />
    <glyph glyph-name="ycircumflex" unicode="&#x177;" horiz-adv-x="516" 
d="M179 33l-127 477h89l95 -379h2l222 379h94l-444 -726h-90zM169 619l123 117h74l82 -117l-1 -5h-77l-43 64h-9l-62 -64h-88z" />
    <glyph glyph-name="Ydieresis" unicode="&#x178;" horiz-adv-x="595" 
d="M270 331l-174 385h97l130 -300h4l233 300h102l-307 -385l-59 -331h-84zM306 789q-21 0 -37.5 16.5t-16.5 37.5q0 23 16 38.5t38 15.5q23 0 38.5 -15.5t15.5 -38.5q0 -22 -15.5 -38t-38.5 -16zM470 789q-21 0 -37 16.5t-16 37.5q0 23 16 38.5t37 15.5q23 0 38.5 -15.5
t15.5 -38.5q0 -22 -15.5 -38t-38.5 -16z" />
    <glyph glyph-name="Zacute" unicode="&#x179;" horiz-adv-x="571" 
d="M9 89l479 546h-367l14 81h468l-16 -89l-480 -546h388l-15 -81h-487zM403 900h95l-93 -127h-77z" />
    <glyph glyph-name="zacute" unicode="&#x17a;" horiz-adv-x="481" 
d="M366 433h-290l14 77h397l-13 -73l-362 -360h301l-14 -77h-406l12 73zM330 736h95l-93 -127h-76z" />
    <glyph glyph-name="Zdotaccent" unicode="&#x17b;" horiz-adv-x="571" 
d="M9 89l479 546h-367l14 81h468l-16 -89l-480 -546h388l-15 -81h-487zM381 807q-20 0 -35 15t-15 34q0 21 15 35t35 14q21 0 35 -14t14 -35q0 -20 -14 -34.5t-35 -14.5z" />
    <glyph glyph-name="zdotaccent" unicode="&#x17c;" horiz-adv-x="481" 
d="M366 433h-290l14 77h397l-13 -73l-362 -360h301l-14 -77h-406l12 73zM307 625q-21 0 -37 16t-16 38q0 23 15.5 38t37.5 15q23 0 38.5 -15t15.5 -38q0 -22 -15.5 -38t-38.5 -16z" />
    <glyph glyph-name="Zcaron" unicode="&#x17d;" horiz-adv-x="571" 
d="M9 89l479 546h-367l14 81h468l-16 -89l-480 -546h388l-15 -81h-487zM252 895l1 5h77l43 -63h8l63 63h88l-1 -5l-123 -116h-75z" />
    <glyph glyph-name="zcaron" unicode="&#x17e;" horiz-adv-x="481" 
d="M366 433h-290l14 77h397l-13 -73l-362 -360h301l-14 -77h-406l12 73zM180 731l1 5h77l44 -64h8l62 64h89l-1 -5l-124 -117h-74z" />
    <glyph glyph-name="longs" unicode="&#x17f;" horiz-adv-x="240" 
d="M113 0h-88l99 584q10 77 56 128t129 50q26 0 71 -11l-17 -70q-23 6 -43 7q-47 0 -73.5 -30.5t-33.5 -73.5z" />
    <glyph glyph-name="uni0180" unicode="&#x180;" horiz-adv-x="588" 
d="M155 62l-18 -62h-82l105 599h-93l13 74h93l13 77h88l-14 -77h123l-13 -74h-124l-24 -128q63 69 153 67q72 -1 109 -43q37 -43 48 -104q11 -62 5 -121q-23 -169 -119 -244q-49 -37 -121 -36q-95 3 -142 72zM210 380l-40 -231q29 -80 110 -83q53 -1 88 29q34 29 53 74
t25 90l1 11q5 40 2 84t-26 76q-23 31 -74 32q-82 2 -139 -82z" />
    <glyph glyph-name="uni0181" unicode="&#x181;" horiz-adv-x="701" 
d="M60 571q5 78 60 109t125 31l220 -1q90 0 150.5 -43.5t52.5 -141.5q-5 -58 -41.5 -94.5t-86.5 -58.5q51 -19 72.5 -65.5t17.5 -97.5q-8 -105 -82 -157t-173 -52h-249l110 635q-35 -1 -60 -15t-35.5 -39t-7.5 -48l1 -17h-71q-5 31 -3 55zM328 634l-39 -226h132
q56 0 101.5 29.5t53.5 89.5q7 58 -24.5 81.5t-83.5 24.5zM540 208q15 120 -105 124l-160 1l-44 -256l144 -1q62 0 109.5 34t55.5 98z" />
    <glyph glyph-name="uni0182" unicode="&#x182;" horiz-adv-x="612" 
d="M469 55q-76 -55 -176 -55h-267l123 711h425l-14 -77h-332l-37 -213h160q92 -2 151 -53t53 -145l-1 -7q-9 -106 -85 -161zM406 113q48 37 57 104q7 60 -24.5 92.5t-89.5 34.5h-171l-47 -267l161 -1q65 0 114 37z" />
    <glyph glyph-name="uni0183" unicode="&#x183;" horiz-adv-x="544" 
d="M15 0l131 750h332l-14 -74h-243l-39 -205q63 69 153 67q72 -1 109 -43.5t48 -104t5 -120.5q-23 -169 -119 -244q-49 -38 -121 -36q-95 3 -142 72l-18 -62h-82zM309 462q-82 2 -139 -82l-40 -231q30 -80 110 -83q54 -1 88.5 28.5t53 74.5t24.5 91l1 10q5 40 2 84
t-25.5 75.5t-74.5 32.5z" />
    <glyph glyph-name="uni0184" unicode="&#x184;" horiz-adv-x="651" 
d="M598 216q-9 -106 -85 -161t-176 -55h-267l83 477l-58 101l6 36l89 97h95l-50 -290h160q92 -2 150.5 -53t53.5 -145zM175 77l161 -1q66 0 114 37t56 104q7 59 -24 92t-89 35h-171z" />
    <glyph glyph-name="uni0185" unicode="&#x185;" horiz-adv-x="597" 
d="M549 259q-8 -64 -36 -126.5t-78 -103.5t-124 -39q-96 2 -142 72l-18 -62h-82l90 516l-58 101l6 36l89 97h92l-53 -280q63 70 154 68q72 -1 109 -43.5t47.5 -104t4.5 -120.5zM363 462q-46 1 -80.5 -22.5t-59.5 -60.5l-39 -230q29 -80 109 -83q51 -1 85 25.5t54.5 71
t28.5 107.5q4 39 1 83t-25 76t-74 33z" />
    <glyph glyph-name="uni0186" unicode="&#x186;" horiz-adv-x="631" 
d="M32 229h91q2 -67 31 -113.5t103 -48.5q71 -2 118.5 35t75 95t37.5 119l12 76q7 52 1 109q-6 58 -36 99.5t-96 43.5q-83 3 -129.5 -40.5t-68.5 -118.5h-91q22 109 101 173.5t192 62.5q90 -2 141 -51.5t69.5 -125t7.5 -153.5l-10 -71q-13 -86 -54.5 -162t-110 -123
t-164.5 -45q-108 2 -163 69t-57 170z" />
    <glyph glyph-name="uni0187" unicode="&#x187;" horiz-adv-x="686" 
d="M737 658q-88 3 -104 -94l-13 -81l-89 -1q-3 67 -31.5 113.5t-103.5 48.5q-71 2 -119 -36t-76 -97.5t-37 -122.5l-11 -69q-7 -51 -1 -109q5 -58 35.5 -99.5t97.5 -43.5q82 -3 128.5 40.5t68.5 118.5h91q-22 -110 -101 -174t-192 -62q-90 2 -141.5 52t-69 125t-7.5 153
l10 71q13 86 54.5 162t110 122.5t164.5 45.5q50 0 98 -17.5t79 -58.5q46 95 141 93q21 0 58 -9l-8 -76q-17 4 -32 5z" />
    <glyph glyph-name="uni0188" unicode="&#x188;" horiz-adv-x="588" 
d="M586 498q-78 2 -91 -89l-10 -62l-82 -1q-1 47 -26 81.5t-76 36.5q-54 2 -90 -26t-56.5 -72t-26.5 -92l-3 -21q-4 -42 1 -85.5t29.5 -73t75.5 -30.5q48 -1 86 27.5t51 75.5h84q-12 -80 -79 -129.5t-146 -47.5q-74 2 -118 39.5t-61 97.5t-10 125l3 21q8 71 42 132.5t90 98
t134 35.5q92 -2 141 -60q18 40 46.5 62.5t74.5 22.5q21 0 52 -8l-7 -62z" />
    <glyph glyph-name="uni0189" unicode="&#x189;" horiz-adv-x="675" 
d="M527 664q61 -46 86 -122q25 -77 14 -166l-6 -42q-21 -145 -117 -239q-96 -95 -245 -95h-196l55 318h-96l13 74h96l55 319l185 -1q95 0 156 -46zM445 152q69 75 86 185l5 41q8 62 -2 120q-11 58 -49 96q-38 37 -111 39l-109 1l-42 -242h115l-13 -74h-115l-42 -241l90 -1
q117 0 187 76z" />
    <glyph glyph-name="uni018A" unicode="&#x18a;" horiz-adv-x="733" 
d="M60 571q6 78 60 109t125 31l193 -1q95 -1 154.5 -48t83.5 -122.5t13 -163.5l-6 -45q-21 -143 -116.5 -236.5t-244.5 -94.5h-197l111 635q-44 -2 -73 -23.5t-31 -67.5v-11l1 -17h-70q-4 31 -3 55zM436 633l-109 1l-97 -557l90 -1q116 0 185.5 74t86.5 184l6 44
q8 62 -2.5 120t-48.5 95.5t-111 39.5z" />
    <glyph glyph-name="uni018B" unicode="&#x18b;" horiz-adv-x="607" 
d="M479 0h-251q-94 3 -153 56.5t-51 151.5q9 107 86.5 160.5t178.5 53.5l171 -1l38 213h-333l13 77h425zM401 77l46 267l-161 1q-64 0 -112.5 -34t-57.5 -101q-7 -59 24 -94.5t89 -38.5h172z" />
    <glyph glyph-name="uni018C" unicode="&#x18c;" horiz-adv-x="546" 
d="M212 676l14 74h331l-130 -750h-80l9 57q-64 -68 -154 -67q-69 2 -107 45t-50 104t-6 118q23 170 120 244q50 39 123 37q88 -1 135 -63l39 201h-244zM128 257q-4 -39 0 -82.5t27 -75t73 -32.5q79 -2 135 76l42 245q-29 72 -106 74q-53 2 -88 -26.5t-55 -74t-28 -104.5z
" />
    <glyph glyph-name="uni018D" unicode="&#x18d;" horiz-adv-x="549" 
d="M353 -184h-336l13 73h217q-16 27 -41.5 52.5t-40.5 41.5q-56 59 -94.5 129.5t-29.5 153.5q16 128 89.5 201.5t177.5 70.5q72 -1 117 -38.5t63.5 -95.5t12.5 -124l-2 -19q-14 -100 -93.5 -164t-185.5 -64q32 -42 70 -80.5t72 -80.5zM412 282q4 41 -2.5 82.5t-31.5 70
t-74 29.5q-52 1 -88.5 -26t-57.5 -71t-28 -90l-1 -10q-5 -46 7.5 -91t48.5 -77q25 -6 44 -7q78 -2 125 52.5t57 126.5z" />
    <glyph glyph-name="uni018E" unicode="&#x18e;" horiz-adv-x="551" 
d="M91 634l14 77h439l-124 -711h-434l14 77h342l40 231h-299l14 76h298l43 250h-347z" />
    <glyph glyph-name="uni018F" unicode="&#x18f;" horiz-adv-x="670" 
d="M285 -10q-94 1 -150 46.5t-77 119t-9 158.5l10 61l476 -2l2 6q14 64 1 124t-54.5 99t-114.5 40q-86 1 -180 -40l-17 70q41 29 96 39t104 9q99 -1 159.5 -48.5t85 -125.5t12.5 -168l-6 -46q-12 -85 -56.5 -164t-115.5 -129.5t-166 -48.5zM289 67q67 -1 114 34t77.5 90
t46.5 111h-387l-3 -17q-14 -87 21 -151.5t131 -66.5z" />
    <glyph glyph-name="uni0190" unicode="&#x190;" horiz-adv-x="580" 
d="M302 402l84 -1l-14 -77h-73q-68 0 -121.5 -28.5t-61.5 -103.5q-8 -67 35 -96.5t103 -30.5q63 -1 113 33.5t61 98.5h91q-11 -104 -90.5 -156.5t-178.5 -51.5q-96 2 -165.5 50.5t-61.5 154.5q5 68 47 109t103 63q-89 48 -83 149q5 72 45 118t100.5 68t126.5 20
q87 -2 149 -53t58 -144l-91 1q3 56 -31.5 87t-88.5 32q-62 1 -115 -29.5t-61 -96.5q-7 -61 28.5 -88t91.5 -28z" />
    <glyph glyph-name="uni0191" unicode="&#x191;" horiz-adv-x="565" 
d="M596 634h-336l-42 -243h289l-14 -77h-288l-60 -357q-10 -75 -55 -123.5t-124 -47.5q-26 0 -57 9l15 78q27 -8 47 -9q39 0 57 27.5t25 65.5l129 754h428z" />
    <glyph glyph-name="florin" unicode="&#x192;" horiz-adv-x="556" 
d="M480 643q-32 0 -54 -17t-29 -49l-35 -174h130v-78h-145l-82 -412q-12 -59 -53 -96t-101 -37q-31 0 -60 10v82q33 -15 61 -15t47.5 18.5t26.5 50.5l79 399h-106v78h121l37 185q11 59 55.5 95.5t107.5 36.5q21 0 32.5 -2t26.5 -7v-83q-26 15 -59 15z" />
    <glyph glyph-name="uni0193" unicode="&#x193;" horiz-adv-x="687" 
d="M739 662q-87 3 -104 -100l-9 -59l-89 -1q-6 63 -39 101.5t-100 40.5q-74 2 -122 -37t-74.5 -100t-35.5 -123l-9 -56q-7 -56 1 -116t42 -101.5t104 -43.5q103 -2 163 52l29 159h-160l14 76h251l-43 -260q-44 -60 -115.5 -82.5t-142.5 -21.5q-94 1 -149.5 51t-76 127
t-9.5 160l8 55q13 90 53 167.5t108.5 125t168.5 45.5q50 -1 99 -17t81 -58q46 93 138 92q22 0 59 -9l-9 -73q-19 5 -32 6z" />
    <glyph glyph-name="uni0194" unicode="&#x194;" horiz-adv-x="608" 
d="M361 -92q-4 -56 -40.5 -87t-91.5 -30q-51 0 -82.5 29t-27.5 81q3 57 43.5 116t68.5 106l-147 588h98l109 -481l277 481h106l-357 -594q10 -49 29 -103.5t15 -105.5zM212 -99q-4 -35 25 -35q18 0 28.5 12t13.5 28q4 27 -4 57l-12 54l-31 -55q-17 -30 -20 -61z" />
    <glyph glyph-name="uni0195" unicode="&#x195;" horiz-adv-x="812" 
d="M340 538q86 -1 116.5 -59t21.5 -135l-19 -128q-3 -28 -1 -63q1 -34 16 -59.5t53 -27.5q96 -6 120 147l52 315h89l-53 -311q-13 -93 -61.5 -161.5t-152.5 -65.5q-66 2 -101 34.5t-46 83.5t-4 109l19 128q5 48 -10.5 82t-70.5 35q-45 1 -79.5 -24t-59.5 -60l-65 -378h-88
l130 750h88l-53 -285q69 75 159 73z" />
    <glyph glyph-name="uni0196" unicode="&#x196;" horiz-adv-x="313" 
d="M243 750l-99 -585q-4 -37 8.5 -67.5t55.5 -31.5q16 0 43 4l6 -70q-42 -9 -66 -9q-77 1 -109.5 53t-25.5 123l99 583h88z" />
    <glyph glyph-name="uni0197" unicode="&#x197;" horiz-adv-x="325" 
d="M316 318h-108l-55 -318h-92l55 318h-103l13 74h103l56 319h91l-55 -319h108z" />
    <glyph glyph-name="uni0198" unicode="&#x198;" horiz-adv-x="608" 
d="M452 0l-184 328l-108 -106l-39 -222h-92l123 711h93l-63 -356l93 97l163 174q29 33 63 65t82 31q46 -1 95 -39l-37 -65q-24 19 -52 19q-25 0 -45 -20l-211 -223l222 -394h-103z" />
    <glyph glyph-name="uni0199" unicode="&#x199;" horiz-adv-x="491" 
d="M300 696q-76 3 -91 -86l-52 -308l53 54l188 172h115l-243 -224l168 -304h-98l-134 244l-70 -62l-32 -182h-88l104 613q9 65 52 107.5t111 40.5q17 0 52 -8l-7 -62q-14 4 -28 5z" />
    <glyph glyph-name="uni019A" unicode="&#x19a;" horiz-adv-x="325" 
d="M322 352h-108l-61 -352h-89l61 352h-106l13 74h106l56 324h89l-56 -324h108z" />
    <glyph glyph-name="uni019B" unicode="&#x19b;" horiz-adv-x="537" 
d="M465 -2q-18 -5 -33 -6q-48 0 -70 28t-33 71l-61 289l-202 -380h-101l277 508l-11 45l-96 -34l15 83l63 23q-8 26 -21 34.5t-34 6.5h-12l6 69q24 5 43 5q88 0 107 -83l96 36l-15 -83l-65 -24l96 -472q4 -16 11.5 -28t25.5 -14l18 1z" />
    <glyph glyph-name="uni019C" unicode="&#x19c;" horiz-adv-x="883" 
d="M668 0l12 60q-62 -71 -158 -70q-49 1 -86.5 24.5t-48.5 73.5q-69 -102 -181 -99q-64 2 -95 37t-39 86.5t-1 104.5l83 494h89l-84 -495q-3 -27 -1 -62q1 -35 15.5 -60.5t52.5 -27.5q54 -2 100 31.5t55 88.5l4 31l85 494h89l-84 -495q-3 -27 -1 -62q1 -35 15.5 -60.5
t52.5 -27.5q50 -2 93.5 27.5t57.5 79.5l93 538h89l-124 -711h-83z" />
    <glyph glyph-name="uni019D" unicode="&#x19d;" horiz-adv-x="720" 
d="M500 0l-254 552l-101 -595q-10 -75 -55 -123.5t-124 -47.5q-26 0 -57 9l15 78q24 -7 47 -9q39 0 57 27.5t25 65.5l129 754h88l255 -554l96 554h91l-123 -711h-89z" />
    <glyph glyph-name="uni019E" unicode="&#x19e;" horiz-adv-x="549" 
d="M484 339l-91 -542h-89l92 541q6 53 -11 89t-76 37q-84 2 -136 -81l-67 -383h-88l92 528l78 1l-9 -67q67 77 160 76q91 -1 122.5 -58.5t22.5 -140.5z" />
    <glyph glyph-name="uni019F" unicode="&#x19f;" horiz-adv-x="660" 
d="M617 378l-6 -45q-13 -88 -53.5 -167t-109.5 -128.5t-167 -47.5q-94 2 -146.5 54t-70.5 130t-8 159l6 45q13 86 53.5 165.5t110 129.5t167.5 48q95 -2 147 -53.5t69.5 -129.5t7.5 -160zM388 641q-72 2 -119 -36t-75 -97.5t-42 -119.5h375q8 54 1 112t-39.5 98.5
t-100.5 42.5zM286 70q71 -2 117.5 34t74 93t41.5 117h-374q-6 -53 2.5 -109t41 -94.5t97.5 -40.5z" />
    <glyph glyph-name="Ohorn" unicode="&#x1a0;" horiz-adv-x="825" 
d="M383 -16q-91 0 -165.5 41.5t-117.5 115.5t-43 168q0 110 54 207.5t150.5 156.5t218.5 59q48 0 108 -7q31 -3 68.5 -6t81.5 -3q39 0 53 8.5t18 31.5l12 68h68l-12 -68q-11 -59 -37 -81.5t-86 -22.5q-29 0 -51 5l-1 -4q49 -47 75.5 -110.5t26.5 -135.5q0 -110 -53.5 -207.5
t-150 -156.5t-217.5 -59zM391 65q89 0 164 47.5t118.5 125t43.5 162.5q0 76 -32.5 133t-89 87.5t-125.5 30.5q-89 0 -163.5 -47.5t-118 -125t-43.5 -162.5q0 -76 32.5 -133t88.5 -87.5t125 -30.5z" />
    <glyph glyph-name="ohorn" unicode="&#x1a1;" horiz-adv-x="595" 
d="M265 -16q-67 0 -119.5 32t-81.5 87.5t-29 123.5q0 83 36.5 151t104 108t154.5 40q24 0 66 -7q67 -9 106 -9q26 0 39.5 9.5t17.5 30.5l12 68h68l-15 -85q-7 -39 -29.5 -60t-53.5 -21q-26 0 -44 4l-1 -5q64 -73 64 -168q0 -83 -36.5 -151.5t-104 -108t-154.5 -39.5zM275 61
q58 0 103.5 29.5t70.5 79t25 108.5q0 74 -42.5 122.5t-111.5 48.5q-58 0 -103.5 -29.5t-70.5 -79t-25 -108.5q0 -75 42.5 -123t111.5 -48z" />
    <glyph glyph-name="uni01A2" unicode="&#x1a2;" horiz-adv-x="823" 
d="M298 -10q-95 1 -150 50.5t-75 126.5t-9 161l7 55q13 89 56.5 166.5t114.5 125t170 46.5q51 0 104.5 -13.5t91.5 -50.5l132 54h75l-159 -914h-89l143 821l-72 -27l-83 -497q-44 -60 -115.5 -82.5t-141.5 -21.5zM409 645q-74 1 -125.5 -37.5t-81.5 -99t-39 -125.5l-9 -55
q-7 -58 1.5 -118t43 -100.5t106.5 -42.5q99 -2 163 53l84 472q-23 34 -64 43.5t-79 9.5z" />
    <glyph glyph-name="uni01A3" unicode="&#x1a3;" horiz-adv-x="647" 
d="M510 405l-62 -34l-50 -307q-71 -76 -171 -74q-74 1 -118 39.5t-61 98t-10 124.5l3 21q9 71 42.5 132t90 98t133.5 35q40 0 77 -14t64 -45l96 49h76l-127 -731h-89zM229 64q36 -1 80 22l64 355q-29 23 -69 24q-82 2 -124.5 -60t-51.5 -135l-2 -17q-4 -40 1 -83.5t28.5 -74
t73.5 -31.5z" />
    <glyph glyph-name="uni01A4" unicode="&#x1a4;" horiz-adv-x="708" 
d="M60 571q6 78 60 109t125 31l248 -1q98 0 160.5 -55.5t53.5 -156.5q-10 -113 -88.5 -166.5t-184.5 -53.5l-168 1l-49 -279h-92l111 635q-35 -1 -60.5 -15t-36 -39t-7.5 -48l1 -17h-70q-4 31 -3 55zM327 634l-48 -279l158 -1q69 0 119 35.5t59 107.5q8 62 -25 98t-95 38z
" />
    <glyph glyph-name="uni01A5" unicode="&#x1a5;" horiz-adv-x="544" 
d="M256 -10q-89 1 -140 62l-47 -255h-89l124 731q11 63 52.5 104.5t108.5 41.5q21 -1 50 -8l-3 -63l-28 4q-41 1 -62.5 -22t-28.5 -60l-11 -51q64 66 152 64q73 -1 109.5 -43.5t47.5 -104t5 -120.5q-23 -173 -121 -246q-49 -35 -119 -34zM304 462q-76 2 -132 -72l-45 -254
q30 -69 107 -72q52 -1 87 26.5t55.5 72t30.5 107.5q4 39 -1 83t-28 76t-74 33z" />
    <glyph glyph-name="uni01A6" unicode="&#x1a6;" horiz-adv-x="665" 
d="M121 0h-92l132 761h92l-9 -50l131 -1q97 -2 158.5 -53.5t51.5 -155.5q-6 -73 -51.5 -121.5t-111.5 -73.5l173 -475v-7l-97 1l-163 463h-164zM231 634l-47 -269l135 -1q64 0 115 35t60 103q8 63 -25.5 96t-95.5 35z" />
    <glyph glyph-name="uni01A7" unicode="&#x1a7;" horiz-adv-x="576" 
d="M109 176q-7 -59 34 -83.5t92 -26.5q69 -1 125.5 33t68.5 107h91q-8 -71 -51.5 -119.5t-107 -73t-130.5 -23.5q-56 1 -107 21.5t-81.5 61t-25.5 104.5q4 60 35 100t84 69t139 53t120 43t49.5 40t19.5 50q8 58 -30.5 84.5t-90.5 27.5q-68 1 -116 -34.5t-59 -103.5h-91
q7 68 47 116.5t99 74t125 24.5q55 -1 104 -23t79 -64t25 -103q-4 -54 -32.5 -92t-81.5 -67.5t-142 -54.5t-123.5 -45.5t-49.5 -42.5t-18 -53z" />
    <glyph glyph-name="uni01A8" unicode="&#x1a8;" horiz-adv-x="500" 
d="M110 137q-5 -42 27.5 -57.5t67.5 -16.5q50 -1 87.5 24.5t50.5 75.5h88q-8 -86 -79 -130.5t-151 -42.5q-68 1 -125.5 38.5t-53.5 114.5q3 55 35.5 86.5t80 48.5t99.5 29t68 18.5t29.5 15.5t21 21t9.5 28q5 40 -24 57.5t-63 17.5q-43 0 -78 -24t-44 -67l-88 -1
q8 82 72 124.5t142 41.5q65 -1 120 -40t52 -111q-3 -54 -36 -85t-80 -46.5t-89 -24.5t-87.5 -27t-51.5 -68z" />
    <glyph glyph-name="uni01A9" unicode="&#x1a9;" horiz-adv-x="559" 
d="M94 646l11 65h462l-13 -77h-350l166 -271l-2 -12l-254 -274h366l-13 -77h-485l13 74l278 287z" />
    <glyph glyph-name="uni01AA" unicode="&#x1aa;" horiz-adv-x="452" 
d="M352 -191q-28 -8 -51 -8q-72 1 -94.5 54.5t-16.5 114.5l84 479q-37 -18 -72 -17q-65 1 -104 49.5t-35 110.5q4 69 56 121t124 50q66 -1 106 -51.5t33 -115.5l-104 -626q-4 -31 2.5 -61t45.5 -31l31 3zM210 514q38 0 62.5 25.5t28.5 61.5q3 32 -13.5 56t-50.5 24
q-38 0 -63 -26t-28 -62q-3 -33 13.5 -56t50.5 -23z" />
    <glyph glyph-name="uni01AB" unicode="&#x1ab;" horiz-adv-x="317" 
d="M97 -181q-19 0 -51 8l4 64q18 -5 28 -5q79 -3 94 92l2 13h-4q-60 3 -81 44t-16 96l53 328h-93l12 69h94l22 129h89l-23 -129h96l-12 -69h-96l-55 -329q-3 -26 4.5 -43.5t36.5 -18.5q19 0 43 6l-11 -74h1l-5 -35q-9 -59 -38 -102.5t-94 -43.5z" />
    <glyph glyph-name="uni01AC" unicode="&#x1ac;" horiz-adv-x="607" 
d="M60 571q6 77 60.5 108.5t124.5 31.5h413l-14 -77h-222l-110 -634h-91l110 634l-89 1q-35 0 -62 -13.5t-38 -37.5t-10 -51l1 -17h-70q-4 31 -3 55z" />
    <glyph glyph-name="uni01AD" unicode="&#x1ad;" horiz-adv-x="322" 
d="M338 698q-78 3 -92 -89l-13 -81h96l-13 -69h-95l-53 -315q-2 -24 3.5 -49t36.5 -26q8 0 42 5l-7 -74q-31 -9 -65 -9q-63 1 -82.5 51t-14.5 103l52 314h-93l12 69h93l13 87q8 65 51.5 107.5t111.5 41.5q21 -1 51 -9l-7 -62z" />
    <glyph glyph-name="uni01AE" unicode="&#x1ae;" horiz-adv-x="578" 
d="M82 634l14 77h533l-14 -77h-221l-116 -678q-3 -26 2 -57.5t41 -32.5q12 0 47 5l-1 -76q-25 -8 -50 -7q-73 1 -104 51t-25 118l115 677h-221z" />
    <glyph glyph-name="Uhorn" unicode="&#x1af;" horiz-adv-x="681" 
d="M285 -16q-60 0 -110 26.5t-79.5 75t-29.5 113.5q0 44 8 94l75 423h84l-78 -443q-6 -35 -6 -61q0 -68 38 -107.5t112 -39.5q85 0 140.5 54.5t71.5 141.5l80 455h95q20 0 30 9t14 31l12 68h68l-12 -68q-11 -59 -37 -81.5t-86 -22.5h-11l-71 -402q-22 -125 -101.5 -195.5
t-206.5 -70.5z" />
    <glyph glyph-name="uhorn" unicode="&#x1b0;" horiz-adv-x="601" 
d="M207 -16q-76 0 -120 41.5t-44 109.5q0 33 7 71l54 304h84l-54 -306q-5 -25 -5 -50q0 -44 29.5 -68.5t77.5 -24.5q62 0 110 45.5t61 115.5l51 288h95q19 0 29.5 9.5t14.5 30.5l12 68h68l-12 -68q-10 -56 -37.5 -80t-85.5 -24h-11l-78 -446h-81l14 74h-4q-27 -41 -72 -65.5
t-103 -24.5z" />
    <glyph glyph-name="uni01B1" unicode="&#x1b1;" horiz-adv-x="644" 
d="M509 460q0 59 -20.5 107.5t-77.5 63.5l12 80h234l-14 -77l-105 -1q79 -128 58 -277l-8 -56q-12 -81 -51.5 -152.5t-105 -115.5t-154.5 -42q-85 1 -136.5 47t-71 117t-9.5 146l6 42q27 188 159 293l-105 -1l14 77h229l-12 -80q-56 -12 -92.5 -47.5t-60.5 -91t-35.5 -127.5
t-12.5 -104.5t3 -65.5q6 -53 36 -90t93 -39q65 -2 109 31.5t69.5 88.5t35 121t11.5 94z" />
    <glyph glyph-name="uni01B2" unicode="&#x1b2;" horiz-adv-x="633" 
d="M271 -10q-106 2 -166 67.5t-47 172.5l82 481h90l-82 -482q-8 -69 23.5 -114.5t104.5 -48.5q77 -2 126 41t62 117l54 327q4 37 -7 63.5t-52 27.5q-11 0 -34 -4l6 74q28 8 52 8q72 0 102.5 -52t23.5 -117l-51 -321q-16 -111 -95.5 -176.5t-191.5 -63.5z" />
    <glyph glyph-name="uni01B3" unicode="&#x1b3;" horiz-adv-x="628" 
d="M507 509l-176 -250l-45 -259h-92l47 271l-159 440h100l116 -360l132 198l49 78q26 42 59.5 69t80.5 26q53 -2 101 -40l-38 -64q-24 18 -52 19q-31 1 -53 -22.5t-39 -54t-31 -51.5z" />
    <glyph glyph-name="uni01B4" unicode="&#x1b4;" horiz-adv-x="576" 
d="M180 -82q-24 -53 -65.5 -94t-104.5 -40q-11 0 -52 8l5 75l23 -3q48 -2 77.5 22t50.5 66l31 59l-93 517h93l54 -355l4 -45l183 384q17 38 38 75t52.5 61t80.5 23t95 -36l-27 -55q-32 21 -58 22q-31 1 -51.5 -20t-34.5 -50l-23 -52z" />
    <glyph glyph-name="uni01B5" unicode="&#x1b5;" horiz-adv-x="581" 
d="M105 634l14 77h481l-13 -73l-203 -242h142l-13 -73h-191l-208 -246h391l-13 -77h-502l13 75l209 248h-149l13 73h198l201 238h-370z" />
    <glyph glyph-name="uni01B6" unicode="&#x1b6;" horiz-adv-x="489" 
d="M78 454l13 74h389l-12 -68l-141 -156h89l-14 -75h-142l-140 -155h296l-14 -74h-406l12 71l143 158h-91l13 75h145l135 150h-275z" />
    <glyph glyph-name="uni01B7" unicode="&#x1b7;" horiz-adv-x="624" 
d="M113 634l13 77h479l-13 -71l-295 -279h1q128 -2 187 -78t47 -200q-13 -130 -96 -210t-216 -77q-108 2 -166 66.5t-62 169.5h91q3 -72 33 -115t108 -45q99 -3 152 57t64 154q10 86 -19.5 144t-123.5 60l-113 1l12 74l283 272h-366z" />
    <glyph glyph-name="uni01B8" unicode="&#x1b8;" horiz-adv-x="624" 
d="M451 353l-12 -65h-101q-103 0 -159.5 -56t-67.5 -157q-10 -83 18 -142t121 -61q83 -2 129 40.5t68 118.5h92q-23 -109 -101.5 -173t-190.5 -62q-127 2 -184 80t-45 200q14 140 102.5 213t226.5 73l-194 286l12 63h478l-14 -77h-373z" />
    <glyph glyph-name="uni01B9" unicode="&#x1b9;" horiz-adv-x="547" 
d="M211 454l141 -225l-13 -70l-62 1q-75 0 -125.5 -36.5t-58.5 -114.5q-6 -58 27.5 -92.5t90.5 -36.5q61 -1 103.5 37.5t53.5 96.5h87q-10 -98 -80.5 -153.5t-167.5 -53.5q-91 2 -151 55.5t-53 149.5q8 105 78.5 157.5t168.5 60.5l-146 245l11 53h412l-13 -74h-303z" />
    <glyph glyph-name="uni01BA" unicode="&#x1ba;" horiz-adv-x="517" 
d="M318 186q5 38 -24.5 49t-59.5 12h-87l11 61l205 146h-277l14 74h406l-10 -60l-196 -155q46 -12 77.5 -45t28.5 -84q-2 -40 -19.5 -67t-58 -49t-122 -41t-110.5 -38t-33 -56q-5 -41 28 -57t66 -16q51 -1 88.5 24t50.5 75h88q-8 -86 -79 -130t-151 -43q-68 1 -125.5 39
t-53.5 115q3 55 37.5 86.5t82 47.5t92 25.5t84.5 24.5t47 59v3z" />
    <glyph glyph-name="uni01BB" unicode="&#x1bb;" horiz-adv-x="547" 
d="M471 74l-13 -74h-452l13 69l258 247h-132l12 74h193q26 29 48.5 62t27.5 72q7 50 -18 86t-77 37q-68 2 -109.5 -39.5t-51.5 -105.5l-87 -1q10 101 81 161.5t171 58.5q83 -1 136.5 -50.5t45.5 -135.5q-7 -69 -71 -146l80 1l-13 -74h-126l-258 -242h342z" />
    <glyph glyph-name="uni01BC" unicode="&#x1bc;" horiz-adv-x="544" 
d="M87 627l15 84h457l-15 -84h-278l-59 -193q53 31 117 30q65 -1 105 -34.5t55.5 -87t10.5 -112.5q-10 -104 -76.5 -173.5t-174.5 -66.5q-88 2 -138 57t-52 141h83q2 -53 28.5 -88t82.5 -36q71 -2 111 49.5t47 116.5q7 57 -18 104.5t-89 48.5q-35 1 -63 -11t-55 -33l-73 19
l73 269h-94z" />
    <glyph glyph-name="uni01BD" unicode="&#x1bd;" horiz-adv-x="486" 
d="M46 449l14 79h407l-14 -79h-243l-41 -122q48 31 105 32q81 1 122.5 -50t35.5 -128q-7 -93 -71 -142.5t-154 -47.5q-70 2 -124.5 43t-52.5 116l86 7q-1 -44 26 -67t69 -24q53 -1 90 29.5t43 84.5q5 46 -18 75.5t-71 30.5q-68 0 -112 -54l-79 6l61 211h-79z" />
    <glyph glyph-name="uni01BE" unicode="&#x1be;" horiz-adv-x="496" 
d="M425 151q-3 -56 -36 -92t-81.5 -53t-98.5 -16q-78 1 -135 46t-54 128h88q0 -48 29 -73t75 -26q39 0 79 17.5t47 61.5q5 34 -15.5 59.5t-48.5 50.5t-49 55.5t-17 74.5l10 75h-93l12 69h93l22 129h89l-22 -129h96l-13 -69h-95l-12 -73q-5 -42 14.5 -68t47.5 -48t49 -49
t19 -70z" />
    <glyph glyph-name="uni01BF" unicode="&#x1bf;" horiz-adv-x="544" 
d="M495 261q-14 -105 -75 -170t-148 -103.5t-179 -62.5l-24 -128h-89l127 731l80 1l-9 -59q65 70 156 68q72 -2 109 -43.5t48 -102t5 -120.5zM304 462q-77 2 -132 -72l-71 -392q69 19 134.5 50.5t112 83t58.5 130.5l1 10q5 40 -0.5 83.5t-28.5 74.5t-74 32z" />
    <glyph glyph-name="uni01C0" unicode="&#x1c0;" horiz-adv-x="246" 
d="M231 711l-123 -711h-71l123 711h71z" />
    <glyph glyph-name="uni01C1" unicode="&#x1c1;" horiz-adv-x="374" 
d="M353 711l-123 -711h-71l123 711h71zM231 711l-123 -711h-71l123 711h71z" />
    <glyph glyph-name="uni01C2" unicode="&#x1c2;" horiz-adv-x="327" 
d="M297 206h-112l-36 -206h-71l36 206h-120l13 74h119l31 174h-120l13 74h119l32 183h71l-32 -183h113l-13 -74h-112l-31 -174h113z" />
    <glyph glyph-name="uni01C3" unicode="&#x1c3;" horiz-adv-x="254" 
d="M244 711l-95 -510h-80l82 510h93zM33 44q0 23 14.5 38.5t37.5 15.5q22 0 37 -14.5t15 -36.5t-15 -37.5t-37.5 -16t-37 14t-14.5 36.5z" />
    <glyph glyph-name="uni01C4" unicode="&#x1c4;" horiz-adv-x="1133" 
d="M870 902l56 -83l86 82l79 1v-6l-140 -133h-54l-100 133v6h73zM652 634l14 77h481l-13 -73l-473 -561h391l-13 -77h-502l13 75l472 559h-370zM29 0l123 711l185 -1q95 0 156 -46t86 -122.5t14 -165.5l-6 -42q-21 -145 -117 -239.5t-245 -94.5h-196zM340 633l-109 1
l-97 -557l90 -1q117 0 186.5 75.5t86.5 185.5l5 41q8 62 -2.5 120t-48.5 95.5t-111 39.5z" />
    <glyph glyph-name="uni01C5" unicode="&#x1c5;" horiz-adv-x="1054" 
d="M820 740l58 -73l84 72l79 1v-10l-137 -119h-55l-103 118l1 11h73zM29 0l123 711l185 -1q95 0 156 -46.5t86 -122.5t14 -165l-6 -45q-22 -142 -117 -236t-244 -95h-197zM340 633l-109 1l-97 -557l90 -1q117 0 186.5 74.5t86.5 186.5l5 41q8 62 -2.5 120t-48.5 95.5
t-111 39.5zM647 454l14 74h389l-12 -68l-349 -386h296l-13 -74h-407l12 71l345 383h-275z" />
    <glyph glyph-name="uni01C6" unicode="&#x1c6;" horiz-adv-x="963" 
d="M351 0l7 59q-65 -71 -157 -69q-69 2 -106.5 45t-50 104t-6.5 118l1 11q8 65 37 127.5t80 103.5t126 39q89 -2 135 -63l54 287h88l-132 -762h-76zM729 740l57 -73l84 72l79 1v-10l-137 -119h-55l-103 118l1 11h74zM556 454l13 74h389l-12 -68l-349 -386h296l-13 -74h-407
l12 71l346 383h-275zM129 257q-5 -39 -1 -82q4 -44 27 -75.5t73 -32.5q78 -2 135 76l42 245q-29 72 -105 74q-54 2 -89.5 -27.5t-55 -75.5t-25.5 -91z" />
    <glyph glyph-name="uni01C7" unicode="&#x1c7;" horiz-adv-x="1057" 
d="M964 711h91l-85 -503q-14 -99 -81 -160t-168 -59q-95 2 -146.5 58t-44.5 150h92q-4 -56 20.5 -92.5t83.5 -37.5q62 -2 101 37.5t50 96.5zM461 77l-13 -77h-419l123 711h93l-111 -634h327z" />
    <glyph glyph-name="uni01C8" unicode="&#x1c8;" horiz-adv-x="754" 
d="M647 667q0 23 14.5 38.5t37.5 16t37.5 -14.5t14.5 -37q0 -23 -14.5 -37.5t-37 -15t-37.5 13.5t-15 36zM632 528h89l-100 -591q-8 -66 -46 -109.5t-110 -42.5q-28 1 -59 9l9 73q24 -6 41 -6q62 0 75 76zM461 77l-13 -77h-419l123 711h93l-111 -634h327z" />
    <glyph glyph-name="uni01C9" unicode="&#x1c9;" horiz-adv-x="467" 
d="M361 667q0 23 14.5 38.5t37.5 16t37.5 -14.5t14.5 -37q0 -23 -14.5 -37.5t-37 -15t-37.5 13.5t-15 36zM346 528h89l-100 -591q-8 -66 -46 -109.5t-110 -42.5q-28 1 -59 9l9 73q24 -6 41 -6q62 0 75 76zM241 750l-130 -750h-89l130 750h89z" />
    <glyph glyph-name="uni01CA" unicode="&#x1ca;" horiz-adv-x="1227" 
d="M1134 711h91l-85 -503q-14 -99 -81 -160t-168 -59q-95 2 -146.5 58t-44.5 150h92q-4 -56 20.5 -92.5t83.5 -37.5q62 -2 101 37.5t50 96.5zM684 711l-124 -711h-89l-254 552l-96 -552h-92l123 711h89l255 -554l96 554h92z" />
    <glyph glyph-name="uni01CB" unicode="&#x1cb;" horiz-adv-x="923" 
d="M817 667q0 23 14.5 38.5t37.5 16t37.5 -14.5t14.5 -37q0 -23 -14.5 -37.5t-37 -15t-37.5 13.5t-15 36zM802 528h89l-100 -591q-8 -66 -46 -109.5t-110 -42.5q-28 1 -59 9l9 73q24 -6 41 -6q62 0 75 76zM684 711l-124 -711h-89l-254 552l-96 -552h-92l123 711h89l255 -554
l96 554h92z" />
    <glyph glyph-name="uni01CC" unicode="&#x1cc;" horiz-adv-x="767" 
d="M661 667q0 23 14.5 38.5t37.5 16t37.5 -14.5t14.5 -37q0 -23 -14.5 -37.5t-37 -15t-37.5 13.5t-15 36zM646 528h89l-100 -591q-8 -66 -46 -109.5t-110 -42.5q-28 1 -59 9l9 73q24 -6 41 -6q62 0 75 76zM309 462q-45 1 -80 -24t-60 -60l-65 -378h-88l91 528l84 1l-13 -67
q69 77 162 76q85 -1 115 -58t22 -134l-58 -346h-88l58 348q5 47 -11 80t-69 34z" />
    <glyph glyph-name="uni01CD" unicode="&#x1cd;" horiz-adv-x="669" 
d="M367 716h96l145 -716h-90l-36 197h-309l-108 -197h-95zM466 277l-50 258l-14 77h-4l-183 -335h251zM308 895l1 5h77l43 -63h8l63 63h88l-1 -5l-123 -116h-75z" />
    <glyph glyph-name="uni01CE" unicode="&#x1ce;" horiz-adv-x="527" 
d="M279 750l56 -83l86 82l79 1v-6l-140 -133h-54l-100 133v6h73zM336 0q-3 14 -3 28l1 28q-73 -67 -154 -66q-65 1 -111.5 42.5t-42.5 110.5q4 67 43 106t96.5 55.5t115.5 16.5l92 -1l6 43q5 46 -18 74t-70 29q-41 0 -77.5 -21t-46.5 -63h-88q5 53 40 88t84 52t97 17
q80 -1 127.5 -48.5t38.5 -129.5l-42 -258l-3 -41q-1 -27 6 -54l-1 -8h-90zM198 69q44 -1 82 21t63 58l19 109h-67q-94 0 -143 -37q-29 -22 -35 -65q-5 -40 18.5 -63t62.5 -23z" />
    <glyph glyph-name="uni01CF" unicode="&#x1cf;" horiz-adv-x="263" 
d="M163 907l56 -83l86 82l79 1v-6l-140 -133h-54l-100 133v6h73zM250 711l-123 -711h-92l124 711h91z" />
    <glyph glyph-name="uni01D0" unicode="&#x1d0;" horiz-adv-x="240" 
d="M123 749l56 -83l86 82l79 1v-6l-140 -133h-54l-100 133v6h73zM202 528l-92 -528h-88l92 528h88z" />
    <glyph glyph-name="uni01D1" unicode="&#x1d1;" horiz-adv-x="667" 
d="M365 903l56 -83l86 82l79 1v-6l-140 -133h-54l-100 133v6h73zM625 378l-6 -45q-13 -87 -53.5 -166.5t-109.5 -129t-167 -47.5q-94 2 -146.5 54t-70.5 130t-8 159l6 45q13 86 54 165.5t110.5 129.5t165.5 48q95 -2 148 -53.5t70.5 -129.5t6.5 -160zM536 495
q-6 60 -37.5 102t-102.5 44q-75 2 -125.5 -40.5t-79.5 -115t-38 -172.5q-4 -46 2 -95q6 -61 37.5 -103.5t100.5 -45.5q76 -2 126.5 40.5t79.5 115.5t37 174q4 47 0 96z" />
    <glyph glyph-name="uni01D2" unicode="&#x1d2;" horiz-adv-x="553" 
d="M271 750l56 -83l86 82l79 1v-6l-140 -133h-54l-100 133v6h73zM39 255l1 12q8 73 42.5 135t91 100t133.5 36q74 -1 120.5 -40t66 -100t12.5 -127l-1 -12q-8 -71 -42.5 -133t-91.5 -100t-134 -36q-74 1 -120 39.5t-65 99t-13 126.5zM128 267l-1 -12q-4 -42 3.5 -85.5
t33.5 -74t77 -31.5q54 -1 90.5 28.5t57.5 75t28 91.5v12q4 42 -3 85.5t-33.5 74.5t-76.5 33q-54 2 -91 -28.5t-58 -76.5t-27 -92z" />
    <glyph glyph-name="uni01D3" unicode="&#x1d3;" horiz-adv-x="628" 
d="M346 902l56 -83l86 82l79 1v-6l-140 -133h-54l-100 133v6h73zM546 711h92l-82 -480q-16 -111 -95 -177t-191 -64q-106 2 -166 67.5t-48 172.5l82 481h91l-82 -482q-8 -69 23.5 -114.5t104.5 -47.5q76 -2 125.5 41t62.5 116z" />
    <glyph glyph-name="uni01D4" unicode="&#x1d4;" horiz-adv-x="534" 
d="M272 750l56 -83l86 82l79 1v-6l-140 -133h-54l-100 133v6h73zM333 0l12 53q-61 -65 -157 -63q-86 1 -116 61q-31 61 -24 137l57 340h88l-57 -342q-4 -42 8.5 -79.5t63.5 -39.5q94 -3 146 76l66 385h89l-92 -528h-84z" />
    <glyph glyph-name="uni01D5" unicode="&#x1d5;" horiz-adv-x="628" 
d="M595 980l-13 -69h-318l12 69h319zM246 817q0 23 14.5 38.5t37.5 16t37.5 -14t14.5 -37t-15 -37.5t-37.5 -15.5t-37 13.5t-14.5 36zM465 817q0 23 14.5 38t37.5 15t37.5 -14t14.5 -36q0 -23 -15 -38t-37.5 -15.5t-37 14t-14.5 36.5zM546 711h92l-82 -480
q-16 -111 -95 -177t-191 -64q-106 2 -166 67.5t-48 172.5l82 481h91l-82 -482q-8 -69 23.5 -114.5t104.5 -47.5q76 -2 125.5 41t62.5 116z" />
    <glyph glyph-name="uni01D6" unicode="&#x1d6;" horiz-adv-x="534" 
d="M526 850l-12 -70h-319l13 70h318zM181 668q0 23 14.5 38.5t37 16t37.5 -14.5t14.5 -37.5t-15 -37t-37 -15t-37 13.5t-14.5 36zM384 667q0 23 14.5 38.5t37.5 16t37.5 -14t14.5 -37.5t-14.5 -37.5t-37 -15t-37.5 13.5t-15 36zM333 0l12 53q-61 -65 -157 -63q-86 1 -116 61
q-31 61 -24 137l57 340h88l-57 -342q-4 -42 8.5 -79.5t63.5 -39.5q94 -3 146 76l66 385h89l-92 -528h-84z" />
    <glyph glyph-name="uni01D7" unicode="&#x1d7;" horiz-adv-x="628" 
d="M370 843l81 110l88 -1l-106 -109h-63zM246 820q0 23 14.5 38t37.5 15.5t37.5 -14t14.5 -36.5q0 -23 -15 -38t-37.5 -15.5t-37 14t-14.5 36.5zM465 819q0 23 14.5 38t37.5 15t37.5 -14t14.5 -36q0 -23 -15 -38t-37.5 -15.5t-37 14t-14.5 36.5zM546 711h92l-82 -480
q-16 -111 -95 -177t-191 -64q-106 2 -166 67.5t-48 172.5l82 481h91l-82 -482q-8 -69 23.5 -114.5t104.5 -47.5q76 -2 125.5 41t62.5 116z" />
    <glyph glyph-name="uni01D8" unicode="&#x1d8;" horiz-adv-x="534" 
d="M295 747l116 143h114l-152 -143h-78zM181 668q0 23 14.5 38.5t37 16t37.5 -14.5t15 -37q0 -23 -15 -37.5t-37.5 -15t-37 13.5t-14.5 36zM384 667q0 23 14.5 38.5t37.5 16t37.5 -14t14.5 -37.5t-14.5 -37.5t-37 -15t-37.5 13.5t-15 36zM333 0l12 53q-61 -65 -157 -63
q-86 1 -116 61q-31 61 -24 137l57 340h88l-57 -342q-4 -42 8.5 -79.5t63.5 -39.5q94 -3 146 76l66 385h89l-92 -528h-84z" />
    <glyph glyph-name="uni01D9" unicode="&#x1d9;" horiz-adv-x="628" 
d="M358 978l60 -62l82 62l79 1v-10l-134 -104h-55l-105 103l1 11zM246 819q0 23 14 38t37 15.5t38 -14t15 -36.5q0 -23 -15 -38t-37.5 -15.5t-37 14t-14.5 36.5zM464 818q0 23 14.5 38t37.5 15.5t38 -14t14 -36.5q0 -23 -15 -38t-37 -15.5t-37 14t-15 36.5zM546 711h92
l-82 -480q-16 -111 -95 -177t-191 -64q-106 2 -166 67.5t-48 172.5l82 481h91l-82 -482q-8 -69 23.5 -114.5t104.5 -47.5q76 -2 125.5 41t62.5 116z" />
    <glyph glyph-name="uni01DA" unicode="&#x1da;" horiz-adv-x="534" 
d="M296 890l57 -83l86 82l78 2v-7l-139 -133h-54l-101 133v7zM181 668q0 23 14.5 38.5t37 16t37.5 -14.5t15 -37q0 -23 -15 -37.5t-37.5 -15t-37 13.5t-14.5 36zM384 667q0 23 14.5 38.5t37.5 16t37.5 -14t14.5 -37.5t-14.5 -37.5t-37 -15t-37.5 13.5t-15 36zM333 0l12 53
q-61 -65 -157 -63q-86 1 -116 61q-31 61 -24 137l57 340h88l-57 -342q-4 -42 8.5 -79.5t63.5 -39.5q94 -3 146 76l66 385h89l-92 -528h-84z" />
    <glyph glyph-name="uni01DB" unicode="&#x1db;" horiz-adv-x="628" 
d="M403 953l43 -111h-51l-67 111h75zM246 820q0 23 14.5 38t37.5 15.5t37.5 -14t14.5 -36.5q0 -23 -15 -38t-37.5 -15.5t-37 14t-14.5 36.5zM465 819q0 23 14.5 38t37.5 15t37.5 -14t14.5 -36q0 -23 -15 -38t-37.5 -15.5t-37 14t-14.5 36.5zM546 711h92l-82 -480
q-16 -111 -95 -177t-191 -64q-106 2 -166 67.5t-48 172.5l82 481h91l-82 -482q-8 -69 23.5 -114.5t104.5 -47.5q76 -2 125.5 41t62.5 116z" />
    <glyph glyph-name="uni01DC" unicode="&#x1dc;" horiz-adv-x="534" 
d="M327 890l67 -143h-69l-98 143h100zM181 668q0 23 14.5 38.5t37 16t37.5 -14.5t15 -37q0 -23 -15 -37.5t-37.5 -15t-37 13.5t-14.5 36zM384 667q0 23 14.5 38.5t37.5 16t37.5 -14t14.5 -37.5t-14.5 -37.5t-37 -15t-37.5 13.5t-15 36zM333 0l12 53q-61 -65 -157 -63
q-86 1 -116 61q-31 61 -24 137l57 340h88l-57 -342q-4 -42 8.5 -79.5t63.5 -39.5q94 -3 146 76l66 385h89l-92 -528h-84z" />
    <glyph glyph-name="uni01DD" unicode="&#x1dd;" horiz-adv-x="511" 
d="M211 -9q-102 2 -144.5 71.5t-30.5 163.5l9 60h337q5 40 -2 80t-32 68t-73 30q-83 2 -154 -51l-30 62q37 35 87 50t100 14q73 -1 117.5 -39.5t62.5 -98t12 -125.5l-3 -22q-7 -65 -40.5 -126t-89 -100t-126.5 -37zM216 64q62 -2 99.5 47.5t56.5 99.5l-249 1l-2 -13
q-8 -52 15 -93t80 -42z" />
    <glyph glyph-name="uni01DE" unicode="&#x1de;" horiz-adv-x="632" 
d="M597 980l-13 -69h-318l12 69h319zM248 817q0 23 14.5 38.5t37.5 16t37.5 -14t14.5 -37t-15 -37.5t-37.5 -15.5t-37 13.5t-14.5 36zM467 817q0 23 14.5 38t37.5 15t37.5 -14t14.5 -36q0 -23 -15 -38t-37.5 -15.5t-37 14t-14.5 36.5zM-40 0l387 711h81l140 -711h-90
l-34 186h-287l-98 -186h-99zM197 263h233l-59 331z" />
    <glyph glyph-name="uni01DF" unicode="&#x1df;" horiz-adv-x="527" 
d="M534 850l-12 -70h-319l13 70h318zM189 668q0 23 14.5 38.5t37 16t37.5 -14.5t14.5 -37.5t-15 -37t-37 -15t-37 13.5t-14.5 36zM392 667q0 23 14.5 38.5t37.5 16t37.5 -14t14.5 -37.5t-14.5 -37.5t-37 -15t-37.5 13.5t-15 36zM336 0q-3 14 -3 28l1 28q-73 -67 -154 -66
q-65 1 -111.5 42.5t-42.5 110.5q4 67 43 106t96.5 55.5t115.5 16.5l92 -1l6 43q5 46 -18 74t-70 29q-41 0 -77.5 -21t-46.5 -63h-88q5 53 40 88t84 52t97 17q80 -1 127.5 -48.5t38.5 -129.5l-42 -258l-3 -41q-1 -27 6 -54l-1 -8h-90zM198 69q44 -1 82 21t63 58l19 109h-67
q-94 0 -143 -37q-29 -22 -35 -65q-5 -40 18.5 -63t62.5 -23z" />
    <glyph glyph-name="uni01E0" unicode="&#x1e0;" horiz-adv-x="632" 
d="M597 980l-12 -69h-319l12 69h319zM358 817q0 22 14.5 37.5t37.5 15.5q22 0 37 -14t15 -37t-15 -38t-37 -15q-23 0 -37.5 14t-14.5 37zM-40 0l387 711h81l140 -711h-90l-34 186h-287l-98 -186h-99zM197 263h233l-59 331z" />
    <glyph glyph-name="uni01E1" unicode="&#x1e1;" horiz-adv-x="527" 
d="M533 847l-12 -69h-319l13 69h318zM289 667q0 22 14.5 37.5t37.5 15.5q22 0 37 -14t15 -37t-15 -37.5t-37 -15.5q-23 0 -37.5 14t-14.5 37zM336 0q-3 14 -3 28l1 28q-73 -67 -154 -66q-65 1 -111.5 42.5t-42.5 110.5q4 67 43 106t96.5 55.5t115.5 16.5l92 -1l6 43
q5 46 -18 74t-70 29q-41 0 -77.5 -21t-46.5 -63h-88q5 53 40 88t84 52t97 17q80 -1 127.5 -48.5t38.5 -129.5l-42 -258l-3 -41q-1 -27 6 -54l-1 -8h-90zM198 69q44 -1 82 21t63 58l19 109h-67q-94 0 -143 -37q-29 -22 -35 -65q-5 -40 18.5 -63t62.5 -23z" />
    <glyph glyph-name="uni01E2" unicode="&#x1e2;" horiz-adv-x="906" 
d="M704 867l-11 -70h-318l11 70h318zM853 74l-14 -74h-419l23 172h-264l-127 -172h-114l541 711h455l-14 -74h-327l-31 -230h281l-13 -74h-277l-34 -259h334zM242 258h213l47 352z" />
    <glyph glyph-name="uni01E3" unicode="&#x1e3;" horiz-adv-x="819" 
d="M639 710l-11 -70h-318l11 70h318zM738 49q-37 -32 -87 -46t-98 -13q-52 0 -100 21t-75 67q-42 -45 -98.5 -67t-118.5 -21q-70 1 -111.5 42t-37.5 113q4 63 39.5 99t88 51.5t107.5 15.5h110l6 41q5 44 -13 77t-67 35q-45 1 -82.5 -23t-46.5 -69l-87 8q8 83 77 121.5
t145 37.5q45 -1 87 -19.5t62 -61.5q80 83 174 80q102 -2 144 -72.5t31 -164.5l-9 -58h-342q-8 -66 17.5 -121.5t102.5 -56.5q44 -1 82 14t75 37zM607 465q-67 2 -105.5 -47.5t-56.5 -105.5h254l3 16q8 54 -14 94.5t-81 42.5zM181 63q68 -1 144 62l21 117l-99 1
q-47 0 -93 -23.5t-53 -76.5q-5 -39 19.5 -59t60.5 -21z" />
    <glyph glyph-name="uni01E4" unicode="&#x1e4;" horiz-adv-x="660" 
d="M558 94q-43 -60 -115.5 -82.5t-142.5 -21.5q-94 1 -149.5 51t-76 127t-10.5 160l8 55q13 89 53 167t108.5 125.5t168.5 45.5q102 -2 160 -60.5t65 -158.5h-91q-5 63 -38.5 101.5t-99.5 40.5q-74 2 -122 -37t-75 -100t-36 -123l-8 -56q-7 -56 1 -116t41.5 -101.5
t103.5 -43.5q104 -2 164 52l8 42h-141l14 74h140l8 43h-161l14 76h252l-21 -119h70l-13 -74h-70z" />
    <glyph glyph-name="uni01E5" unicode="&#x1e5;" horiz-adv-x="544" 
d="M474 -83h-56q-31 -75 -92 -117t-144 -40q-53 1 -101.5 24.5t-78.5 67.5l51 54q49 -70 125 -72q93 -3 147 84l-376 -1l10 57l379 -2l21 81q-62 -65 -151 -63q-70 2 -107.5 45t-49 104t-5.5 118l1 11q8 65 36.5 127.5t79 103.5t126.5 39q93 -2 139 -69l17 59h81l-99 -556
l58 2zM135 257q-5 -39 0 -82q4 -44 27 -75.5t73 -32.5q79 -2 135 77l43 243q-29 73 -107 75q-54 2 -89 -27.5t-54.5 -75.5t-26.5 -91z" />
    <glyph glyph-name="Gcaron" unicode="&#x1e6;" horiz-adv-x="660" 
d="M351 917l56 -83l86 82l79 1v-6l-140 -133h-54l-100 133v6h73zM600 354l-42 -260q-43 -60 -115.5 -82.5t-142.5 -21.5q-94 1 -149.5 51t-76 127t-10.5 160l8 55q13 89 53 167t108.5 125.5t168.5 45.5q102 -2 160 -60.5t65 -158.5h-91q-5 63 -38.5 101.5t-99.5 40.5
q-74 2 -122.5 -37t-75 -100t-35.5 -123l-8 -56q-7 -56 1 -116t41.5 -101.5t103.5 -43.5q104 -2 164 52l29 159h-161l14 76h251z" />
    <glyph glyph-name="gcaron" unicode="&#x1e7;" horiz-adv-x="544" 
d="M267 750l56 -83l86 82l79 1v-6l-140 -133h-54l-100 133v6h73zM431 11q-14 -99 -80.5 -160.5t-168.5 -58.5q-53 1 -102.5 25t-78.5 68l51 53q49 -70 126 -73q67 -2 109.5 37t55.5 101l10 50q-64 -65 -151 -62q-70 1 -107 44t-49 104t-6 118l1 11q8 65 36.5 128t79.5 103.5
t125 38.5q93 -2 139 -69l17 59h81zM128 175q4 -44 27 -75.5t73 -32.5q45 -1 78 21t58 57l42 241q-29 74 -107 76q-54 2 -89 -27.5t-54.5 -75.5t-26.5 -91q-5 -53 -1 -93z" />
    <glyph glyph-name="uni01E8" unicode="&#x1e8;" horiz-adv-x="608" 
d="M316 899l56 -83l86 82l79 1v-6l-140 -133h-54l-100 133v6h73zM453 0l-187 330l-104 -94l-41 -236h-92l123 711h93l-61 -346l362 346h119l-331 -318l221 -393h-102z" />
    <glyph glyph-name="uni01E9" unicode="&#x1e9;" horiz-adv-x="491" 
d="M291 907l56 -83l86 82l79 1v-6l-140 -133h-54l-100 133v6h73zM340 0l-134 244l-70 -62l-32 -182h-88l130 750h89l-78 -448l53 54l188 172h115l-243 -224l168 -304h-98z" />
    <glyph glyph-name="uni01EA" unicode="&#x1ea;" horiz-adv-x="667" 
d="M261 -48q-33 -27 -36 -64q-3 -31 27 -32q19 0 49 13l2 -60q-34 -21 -74 -21t-62 25q-22 26 -21 65q1 57 47 93q18 14 36 26q-52 13 -86 47q-53 52 -71 130t-8 159l6 45q13 86 54 166q41 79 111 129q69 50 165 48q95 -2 148 -53q53 -52 71 -130q17 -78 6 -160l-6 -45
q-13 -87 -53 -166q-41 -80 -110 -129q-62 -45 -148 -48q-22 -17 -47 -38zM499 597q-32 42 -103 44q-75 2 -125 -40q-51 -43 -80 -115q-29 -73 -38 -173q-4 -46 2 -95q6 -61 38 -103q31 -43 100 -46q76 -2 127 41q50 42 79 115t37 174q4 47 0 96q-6 60 -37 102z" />
    <glyph glyph-name="uni01EB" unicode="&#x1eb;" horiz-adv-x="553" 
d="M208 -48q-33 -27 -36 -64q-3 -31 27 -32q19 0 49 13l2 -60q-34 -21 -74 -21t-62 25q-22 26 -21 65q1 57 47 93q19 15 38 27q-35 10 -61 32q-46 38 -65 99q-19 60 -13 126v1l1 11q8 73 43 135q34 62 91 100q56 38 133 36q74 -1 121 -40q46 -39 66 -100q19 -61 12 -127
l-1 -12q-8 -71 -42 -133q-35 -62 -92 -100q-50 -33 -116 -36q-22 -17 -47 -38zM131 170q7 -44 33 -74q26 -31 77 -32q54 -1 91 29q36 29 57 75q21 45 28 91v12q4 42 -3 86q-7 43 -33 74q-27 31 -77 33q-54 2 -91 -28q-37 -31 -58 -77t-27 -92l-1 -12q-4 -42 4 -85z" />
    <glyph glyph-name="uni01EC" unicode="&#x1ec;" horiz-adv-x="667" 
d="M261 -48q-33 -27 -36 -64q-3 -31 27 -32q19 0 49 13l2 -60q-34 -21 -74 -21t-62 25q-22 26 -21 65q1 57 47 93q18 14 36 26q-52 13 -86 47q-53 52 -71 130t-8 159l6 45q13 86 54 166q41 79 111 129q69 50 165 48q95 -2 148 -53q53 -52 71 -130q17 -78 6 -160l-6 -45
q-13 -87 -53 -166q-41 -80 -110 -129q-62 -45 -148 -48q-22 -17 -47 -38zM499 597q-32 42 -103 44q-75 2 -125 -40q-51 -43 -80 -115q-29 -73 -38 -173q-4 -46 2 -95q6 -61 38 -103q31 -43 100 -46q76 -2 127 41q50 42 79 115t37 174q4 47 0 96q-6 60 -37 102zM583 793h-318
l11 70h318z" />
    <glyph glyph-name="uni01ED" unicode="&#x1ed;" horiz-adv-x="553" 
d="M208 -48q-33 -27 -36 -64q-3 -31 27 -32q19 0 49 13l2 -60q-34 -21 -74 -21t-62 25q-22 26 -21 65q1 57 47 93q19 15 38 27q-35 10 -61 32q-46 38 -65 99q-19 60 -13 126v1l1 11q8 73 43 135q34 62 91 100q56 38 133 36q74 -1 121 -40q46 -39 66 -100q19 -61 12 -127
l-1 -12q-8 -71 -42 -133q-35 -62 -92 -100q-50 -33 -116 -36q-22 -17 -47 -38zM131 170q7 -44 33 -74q26 -31 77 -32q54 -1 91 29q36 29 57 75q21 45 28 91v12q4 42 -3 86q-7 43 -33 74q-27 31 -77 33q-54 2 -91 -28q-37 -31 -58 -77t-27 -92l-1 -12q-4 -42 4 -85zM488 640
h-318l11 70h318z" />
    <glyph glyph-name="uni01EE" unicode="&#x1ee;" horiz-adv-x="629" 
d="M316 894l56 -83l86 82l79 1v-6l-140 -133h-54l-100 133v6h73zM113 634l13 77h479l-13 -71l-295 -279h1q128 -2 187 -78t47 -200q-13 -130 -96 -210t-216 -77q-108 2 -166 66.5t-62 169.5h91q3 -72 33 -115t108 -45q99 -3 152 57t64 154q10 86 -19.5 144t-123.5 60l-113 1
l12 74l283 272h-366z" />
    <glyph glyph-name="uni01EF" unicode="&#x1ef;" horiz-adv-x="564" 
d="M269 740l57 -73l84 72l79 1v-10l-137 -119h-56l-102 118l1 11h74zM242 159h-72l14 78l209 217h-296l13 74h412l-9 -62l-231 -238q87 -8 134 -64t40 -144q-8 -103 -85.5 -159t-175.5 -54q-91 2 -145 59t-49 148h87q-4 -54 25.5 -92.5t87.5 -40.5q62 -1 110.5 35.5
t56.5 100.5q8 69 -25 104.5t-101 37.5z" />
    <glyph glyph-name="uni01F0" unicode="&#x1f0;" horiz-adv-x="244" 
d="M126 730l56 -83l86 82l79 1v-6l-140 -133h-54l-100 133v6h73zM122 528h88l-97 -571q-9 -75 -53 -123.5t-124 -48.5q-26 0 -57 10l15 72q26 -8 46 -8q39 0 58.5 29t25.5 66z" />
    <glyph glyph-name="uni01F1" unicode="&#x1f1;" horiz-adv-x="1217" 
d="M742 634l14 77h481l-13 -73l-473 -561h391l-13 -77h-502l13 75l472 559h-370zM29 0l123 711l185 -1q95 0 156 -46t86 -122.5t14 -165.5l-6 -42q-21 -145 -117 -239.5t-245 -94.5h-196zM340 633l-109 1l-97 -557l90 -1q117 0 186.5 75.5t86.5 185.5l5 41q8 62 -2.5 120
t-48.5 95.5t-111 39.5z" />
    <glyph glyph-name="uni01F2" unicode="&#x1f2;" horiz-adv-x="1117" 
d="M710 454l13 74h390l-12 -68l-349 -386h296l-14 -74h-406l12 71l346 383h-276zM29 0l123 711l185 -1q95 0 156 -46t86 -122.5t14 -165.5l-6 -42q-21 -145 -117 -239.5t-245 -94.5h-196zM340 633l-109 1l-97 -557l90 -1q117 0 186.5 75.5t86.5 185.5l5 41q8 62 -2.5 120
t-48.5 95.5t-111 39.5z" />
    <glyph glyph-name="uni01F3" unicode="&#x1f3;" horiz-adv-x="1028" 
d="M620 454l13 74h390l-12 -68l-349 -386h296l-14 -74h-406l12 71l346 383h-276zM347 0l9 57q-64 -68 -154 -67q-69 2 -107 45t-50 104t-6 118q23 170 120 244q50 39 123 37q88 -1 135 -63l51 275h89l-130 -750h-80zM128 257q-4 -39 0 -82.5t27 -75t73 -32.5q79 -2 135 76
l42 245q-29 72 -106 74q-53 2 -88 -26.5t-55 -74t-28 -104.5z" />
    <glyph glyph-name="uni01F4" unicode="&#x1f4;" horiz-adv-x="660" 
d="M351 773l115 144h112l-149 -144h-78zM600 354l-42 -260q-43 -60 -115.5 -82.5t-142.5 -21.5q-94 1 -149.5 51t-76 127t-10.5 160l8 55q13 89 53 167t108.5 125.5t168.5 45.5q102 -2 160 -60.5t65 -158.5h-91q-5 63 -38.5 101.5t-99.5 40.5q-74 2 -122.5 -37t-75 -100
t-35.5 -123l-8 -56q-7 -56 1 -116t41.5 -101.5t103.5 -43.5q104 -2 164 52l29 159h-161l14 76h251z" />
    <glyph glyph-name="uni01F5" unicode="&#x1f5;" horiz-adv-x="544" 
d="M267 606l115 144h112l-149 -144h-78zM431 11q-14 -99 -80.5 -160.5t-168.5 -58.5q-53 1 -102.5 25t-78.5 68l51 53q49 -70 126 -73q67 -2 109.5 37t55.5 101l10 50q-64 -65 -151 -62q-70 1 -107 44t-49 104t-6 118l1 11q8 65 36.5 128t79.5 103.5t125 38.5q93 -2 139 -69
l17 59h81zM128 175q4 -44 27 -75.5t73 -32.5q45 -1 78 21t58 57l42 241q-29 74 -107 76q-54 2 -89 -27.5t-54.5 -75.5t-26.5 -91q-5 -53 -1 -93z" />
    <glyph glyph-name="uni01F6" unicode="&#x1f6;" horiz-adv-x="1058" 
d="M591 711h92l-82 -485q-7 -65 18 -111t97 -48q77 -2 121.5 42.5t55.5 117.5l50 301h92l-51 -301q-16 -107 -89 -173.5t-184 -63.5q-105 2 -159.5 68t-42.5 169l16 102h-347l-57 -329h-92l123 711h93l-54 -306h347z" />
    <glyph glyph-name="uni01F7" unicode="&#x1f7;" horiz-adv-x="640" 
d="M110 -75l-25 -129h-92l159 915l88 1l-5 -27q61 36 139 35q132 -1 189 -85.5t42 -209.5l-3 -26q-18 -123 -89.5 -221t-177 -163.5t-223.5 -88.5zM369 644q-91 1 -148 -68l-102 -573q95 25 179.5 82t141.5 138t71 181l4 23q11 86 -18 151t-128 66z" />
    <glyph glyph-name="uni01F8" unicode="&#x1f8;" horiz-adv-x="691" 
d="M403 902l69 -144h-70l-100 144h101zM684 711l-124 -711h-89l-254 552l-96 -552h-92l123 711h89l255 -554l96 554h92z" />
    <glyph glyph-name="uni01F9" unicode="&#x1f9;" horiz-adv-x="535" 
d="M305 750l69 -144h-70l-100 144h101zM309 462q-45 1 -80 -24t-60 -60l-65 -378h-88l91 528l84 1l-13 -67q69 77 162 76q85 -1 115 -58t22 -134l-58 -346h-88l58 348q5 47 -11 80t-69 34z" />
    <glyph glyph-name="Aringacute" unicode="&#x1fa;" horiz-adv-x="669" 
d="M347 680q-15 15 -24 34.5t-9 41.5q0 40 26 69t66 34l2 -1l44 74h86l-63 -90q21 -14 33.5 -37t12.5 -49t-13 -49.5t-35 -37.5l135 -669h-90l-36 197h-309l-108 -197h-95zM417 712q18 0 31 13t13 31t-13 31t-31 13t-30.5 -13t-12.5 -31t12.5 -31t30.5 -13zM466 277l-64 333
h-5l-182 -333h251z" />
    <glyph glyph-name="aringacute" unicode="&#x1fb;" horiz-adv-x="528" 
d="M358 920h95l-78 -106h-75zM322 589q-43 0 -73 30t-30 73q0 44 30 73.5t73 29.5t73.5 -30t30.5 -73t-30.5 -73t-73.5 -30zM322 644q19 0 33 14t14 34t-13.5 33.5t-33.5 13.5q-19 0 -33 -14t-14 -33t14 -33.5t33 -14.5zM188 -16q-45 0 -83.5 20.5t-61 56t-22.5 79.5
q0 85 62.5 135.5t171.5 50.5q40 0 78.5 -9.5t68.5 -25.5l6 30q3 17 3 29q0 45 -35.5 72.5t-89.5 27.5q-83 0 -137 -68l-66 47q36 46 91 71.5t121 25.5q92 0 144.5 -44.5t52.5 -119.5q0 -21 -5 -51l-56 -311h-81l13 72h-4q-27 -40 -71 -64t-100 -24zM207 59q69 0 120 45.5
t63 116.5q-31 18 -62 27t-78 9q-63 0 -102.5 -29.5t-39.5 -81.5q0 -40 28.5 -63.5t70.5 -23.5z" />
    <glyph glyph-name="AEacute" unicode="&#x1fc;" horiz-adv-x="959" 
d="M487 716h469l-14 -81h-330l-42 -237h298l-14 -80h-298l-42 -237h330l-15 -81h-414l35 197h-262l-152 -197h-102zM464 277l63 358h-4l-275 -358h216zM768 900h95l-93 -127h-77z" />
    <glyph glyph-name="aeacute" unicode="&#x1fd;" horiz-adv-x="921" 
d="M188 -16q-45 0 -83.5 20.5t-61 56t-22.5 79.5q0 91 67 138.5t174 47.5q45 0 82.5 -10t58.5 -23l6 31q3 21 3 23q0 47 -33.5 75t-88.5 28q-43 0 -79 -17.5t-57 -50.5l-70 41q31 49 85.5 76t126.5 27q64 0 111 -26.5t67 -69.5q36 46 89 71t116 25q66 0 114 -29t73 -78
t25 -108q0 -42 -9 -72h-403q-2 -18 -2 -32q0 -44 20.5 -77.5t53.5 -51t71 -17.5q60 0 100.5 24t69.5 71l65 -37q-38 -66 -99 -100.5t-141 -34.5q-71 0 -123.5 37t-74.5 92q-40 -64 -100 -96.5t-131 -32.5zM806 309v14q0 32 -15.5 61t-46.5 47t-75 18q-63 0 -110.5 -39.5
t-66.5 -100.5h314zM207 59q69 0 120 45.5t63 116.5q-64 36 -140 36q-63 0 -102.5 -29.5t-39.5 -81.5q0 -40 28.5 -63.5t70.5 -23.5zM535 736h95l-93 -127h-76z" />
    <glyph glyph-name="Oslashacute" unicode="&#x1fe;" horiz-adv-x="825" 
d="M101 5l53 66q-46 45 -71.5 105.5t-25.5 132.5q0 110 54 207.5t150.5 156.5t218.5 59q91 0 168 -44l54 68l58 -45l-54 -66q47 -44 72.5 -105t25.5 -133q0 -110 -53.5 -207.5t-150 -156.5t-217.5 -59q-93 0 -170 44l-53 -67zM594 620q-57 31 -124 31q-89 0 -163.5 -47.5
t-118 -125t-43.5 -162.5q0 -110 64 -177zM391 65q89 0 164 47.5t118.5 125t43.5 162.5q0 107 -65 177l-385 -482q58 -30 124 -30zM526 900h95l-93 -127h-77z" />
    <glyph glyph-name="oslashacute" unicode="&#x1ff;" horiz-adv-x="583" 
d="M59 8l34 43q-33 33 -50.5 78.5t-17.5 97.5q0 82 37.5 150.5t106 108.5t155.5 40q65 0 117 -30l38 48l53 -41l-39 -49q31 -33 48 -77t17 -94q0 -83 -37.5 -151t-106 -108t-155.5 -40q-61 0 -113 27l-33 -43zM389 429q-32 20 -75 20q-58 0 -104.5 -29.5t-72.5 -79.5
t-26 -108q0 -64 35 -112zM269 61q58 0 104 29.5t72 79t26 108.5q0 62 -31 107l-242 -308q34 -16 71 -16zM379 736h95l-93 -127h-76z" />
    <glyph glyph-name="uni0200" unicode="&#x200;" horiz-adv-x="632" 
d="M428 890l68 -130h-65l-94 130h91zM276 890l95 -130h-72l-122 130h99zM-40 0l387 711h81l140 -711h-90l-34 186h-287l-98 -186h-99zM197 263h233l-59 331z" />
    <glyph glyph-name="uni0201" unicode="&#x201;" horiz-adv-x="527" 
d="M360 739l68 -130h-65l-94 130h91zM208 739l95 -130h-72l-122 130h99zM336 0q-3 14 -3 28l1 28q-73 -67 -154 -66q-65 1 -111.5 42.5t-42.5 110.5q4 67 43 106t96.5 55.5t115.5 16.5l92 -1l6 43q5 46 -18 74t-70 29q-41 0 -77.5 -21t-46.5 -63h-88q5 53 40 88t84 52t97 17
q80 -1 127.5 -48.5t38.5 -129.5l-42 -258l-3 -41q-1 -27 6 -54l-1 -8h-90zM198 69q44 -1 82 21t63 58l19 109h-67q-94 0 -143 -37q-29 -22 -35 -65q-5 -40 18.5 -63t62.5 -23z" />
    <glyph glyph-name="uni0202" unicode="&#x202;" horiz-adv-x="632" 
d="M544 778l-72 1q2 31 -11.5 51.5t-46.5 20.5q-35 0 -55.5 -20t-26.5 -52h-71q6 62 49 97t104 33q59 -1 95 -36t35 -95zM-40 0l387 711h81l140 -711h-90l-34 186h-287l-98 -186h-99zM197 263h233l-59 331z" />
    <glyph glyph-name="uni0203" unicode="&#x203;" horiz-adv-x="527" 
d="M476 626l-72 1q2 31 -11.5 51.5t-46.5 20.5q-35 0 -55.5 -20t-26.5 -52h-71q6 62 49 97t104 33q59 -1 95 -36t35 -95zM336 0q-3 14 -3 28l1 28q-73 -67 -154 -66q-65 1 -111.5 42.5t-42.5 110.5q4 67 43 106t96.5 55.5t115.5 16.5l92 -1l6 43q5 46 -18 74t-70 29
q-41 0 -77.5 -21t-46.5 -63h-88q5 53 40 88t84 52t97 17q80 -1 127.5 -48.5t38.5 -129.5l-42 -258l-3 -41q-1 -27 6 -54l-1 -8h-90zM198 69q44 -1 82 21t63 58l19 109h-67q-94 0 -143 -37q-29 -22 -35 -65q-5 -40 18.5 -63t62.5 -23z" />
    <glyph glyph-name="uni0204" unicode="&#x204;" horiz-adv-x="551" 
d="M404 896l68 -130h-65l-94 130h91zM252 896l95 -130h-72l-122 130h99zM29 0l123 711h434l-13 -77h-342l-40 -229h299l-13 -76h-299l-44 -252h347l-13 -77h-439z" />
    <glyph glyph-name="uni0205" unicode="&#x205;" horiz-adv-x="514" 
d="M346 739l68 -130h-65l-94 130h91zM194 739l95 -130h-72l-122 130h99zM441 92q-35 -51 -88 -77t-114 -25q-108 2 -159 78.5t-43 175.5l3 26q8 67 41 129t88.5 101.5t129.5 37.5q73 -1 114 -39.5t55.5 -97t7.5 -122.5l-6 -40h-345q-7 -62 21 -117.5t100 -57.5
q44 -1 79.5 19.5t65.5 51.5zM294 464q-67 2 -104.5 -47t-54.5 -105h256l2 8q7 53 -16.5 97.5t-82.5 46.5z" />
    <glyph glyph-name="uni0206" unicode="&#x206;" horiz-adv-x="551" 
d="M520 783l-72 1q2 31 -11.5 51.5t-46.5 20.5q-35 0 -55.5 -20t-26.5 -52h-71q6 62 49 97t104 33q59 -1 95 -36t35 -95zM29 0l123 711h434l-13 -77h-342l-40 -229h299l-13 -76h-299l-44 -252h347l-13 -77h-439z" />
    <glyph glyph-name="uni0207" unicode="&#x207;" horiz-adv-x="514" 
d="M462 626l-72 1q2 31 -11.5 51.5t-46.5 20.5q-35 0 -55.5 -20t-26.5 -52h-71q6 62 49 97t104 33q59 -1 95 -36t35 -95zM441 92q-35 -51 -88 -77t-114 -25q-108 2 -159 78.5t-43 175.5l3 26q8 67 41 129t88.5 101.5t129.5 37.5q73 -1 114 -39.5t55.5 -97t7.5 -122.5l-6 -40
h-345q-7 -62 21 -117.5t100 -57.5q44 -1 79.5 19.5t65.5 51.5zM294 464q-67 2 -104.5 -47t-54.5 -105h256l2 8q7 53 -16.5 97.5t-82.5 46.5z" />
    <glyph glyph-name="uni0208" unicode="&#x208;" horiz-adv-x="263" 
d="M243 896l68 -130h-65l-94 130h91zM91 896l95 -130h-72l-122 130h99zM250 711l-123 -711h-92l124 711h91z" />
    <glyph glyph-name="uni0209" unicode="&#x209;" horiz-adv-x="240" 
d="M203 738l68 -130h-65l-94 130h91zM51 738l95 -130h-72l-122 130h99zM202 528l-92 -528h-88l92 528h88z" />
    <glyph glyph-name="uni020A" unicode="&#x20a;" horiz-adv-x="263" 
d="M359 783l-72 1q2 31 -11.5 51.5t-46.5 20.5q-35 0 -55.5 -20t-26.5 -52h-71q6 62 49 97t104 33q59 -1 95 -36t35 -95zM250 711l-123 -711h-92l124 711h91z" />
    <glyph glyph-name="uni020B" unicode="&#x20b;" horiz-adv-x="240" 
d="M319 625l-72 1q2 31 -11.5 51.5t-46.5 20.5q-35 0 -55.5 -20t-26.5 -52h-71q6 62 49 97t104 33q59 -1 95 -36t35 -95zM202 528l-92 -528h-88l92 528h88z" />
    <glyph glyph-name="uni020C" unicode="&#x20c;" horiz-adv-x="667" 
d="M445 891l68 -130h-65l-94 130h91zM293 891l95 -130h-72l-122 130h99zM625 378l-6 -45q-13 -87 -53.5 -166.5t-109.5 -129t-167 -47.5q-94 2 -146.5 54t-70.5 130t-8 159l6 45q13 86 54 165.5t110.5 129.5t165.5 48q95 -2 148 -53.5t70.5 -129.5t6.5 -160zM536 495
q-6 60 -37.5 102t-102.5 44q-75 2 -125.5 -40.5t-79.5 -115t-38 -172.5q-4 -46 2 -95q6 -61 37.5 -103.5t100.5 -45.5q76 -2 126.5 40.5t79.5 115.5t37 174q4 47 0 96z" />
    <glyph glyph-name="uni020D" unicode="&#x20d;" horiz-adv-x="553" 
d="M350 739l68 -130h-65l-94 130h91zM198 739l95 -130h-72l-122 130h99zM39 255l1 12q8 73 42.5 135t91 100t133.5 36q74 -1 120.5 -40t66 -100t12.5 -127l-1 -12q-8 -71 -42.5 -133t-91.5 -100t-134 -36q-74 1 -120 39.5t-65 99t-13 126.5zM128 267l-1 -12
q-4 -42 3.5 -85.5t33.5 -74t77 -31.5q54 -1 90.5 28.5t57.5 75t28 91.5v12q4 42 -3 85.5t-33.5 74.5t-76.5 33q-54 2 -91 -28.5t-58 -76.5t-27 -92z" />
    <glyph glyph-name="uni020E" unicode="&#x20e;" horiz-adv-x="667" 
d="M561 779l-72 1q2 31 -11.5 51.5t-46.5 20.5q-35 0 -55.5 -20t-26.5 -52h-71q6 62 49 97t104 33q59 -1 95 -36t35 -95zM625 378l-6 -45q-13 -87 -53.5 -166.5t-109.5 -129t-167 -47.5q-94 2 -146.5 54t-70.5 130t-8 159l6 45q13 86 54 165.5t110.5 129.5t165.5 48
q95 -2 148 -53.5t70.5 -129.5t6.5 -160zM536 495q-6 60 -37.5 102t-102.5 44q-75 2 -125.5 -40.5t-79.5 -115t-38 -172.5q-4 -46 2 -95q6 -61 37.5 -103.5t100.5 -45.5q76 -2 126.5 40.5t79.5 115.5t37 174q4 47 0 96z" />
    <glyph glyph-name="uni020F" unicode="&#x20f;" horiz-adv-x="553" 
d="M467 626l-72 1q2 31 -11.5 51.5t-46.5 20.5q-35 0 -55.5 -20t-26.5 -52h-71q6 62 49 97t104 33q59 -1 95 -36t35 -95zM39 255l1 12q8 73 42.5 135t91 100t133.5 36q74 -1 120.5 -40t66 -100t12.5 -127l-1 -12q-8 -71 -42.5 -133t-91.5 -100t-134 -36q-74 1 -120 39.5
t-65 99t-13 126.5zM128 267l-1 -12q-4 -42 3.5 -85.5t33.5 -74t77 -31.5q54 -1 90.5 28.5t57.5 75t28 91.5v12q4 42 -3 85.5t-33.5 74.5t-76.5 33q-54 2 -91 -28.5t-58 -76.5t-27 -92z" />
    <glyph glyph-name="uni0210" unicode="&#x210;" horiz-adv-x="597" 
d="M399 890l68 -130h-65l-94 130h91zM247 890l95 -130h-72l-122 130h99zM435 0l-101 288h-163l-50 -288h-92l123 711l223 -1q97 -2 158.5 -53.5t51.5 -155.5q-6 -73 -51.5 -121.5t-111.5 -72.5l111 -301l-1 -6h-97zM231 634l-47 -269l135 -1q64 0 115 35t60 103
q8 63 -25.5 96t-95.5 35z" />
    <glyph glyph-name="uni0211" unicode="&#x211;" horiz-adv-x="328" 
d="M277 739l68 -130h-65l-94 130h91zM125 739l95 -130h-72l-122 130h99zM303 453q-84 1 -134 -78l-65 -375h-88l91 528l86 1l-13 -61q53 73 131 72q17 0 41 -7l-8 -85q-23 5 -41 5z" />
    <glyph glyph-name="uni0212" unicode="&#x212;" horiz-adv-x="597" 
d="M515 778l-72 1q2 31 -11.5 51.5t-46.5 20.5q-35 0 -55.5 -20t-26.5 -52h-71q6 62 49 97t104 33q59 -1 95 -36t35 -95zM435 0l-101 288h-163l-50 -288h-92l123 711l223 -1q97 -2 158.5 -53.5t51.5 -155.5q-6 -73 -51.5 -121.5t-111.5 -72.5l111 -301l-1 -6h-97zM231 634
l-47 -269l135 -1q64 0 115 35t60 103q8 63 -25.5 96t-95.5 35z" />
    <glyph glyph-name="uni0213" unicode="&#x213;" horiz-adv-x="328" 
d="M393 626l-72 1q2 31 -11.5 51.5t-46.5 20.5q-35 0 -55.5 -20t-26.5 -52h-71q6 62 49 97t104 33q59 -1 95 -36t35 -95zM303 453q-84 1 -134 -78l-65 -375h-88l91 528l86 1l-13 -61q53 73 131 72q17 0 41 -7l-8 -85q-23 5 -41 5z" />
    <glyph glyph-name="uni0214" unicode="&#x214;" horiz-adv-x="628" 
d="M426 890l68 -130h-65l-94 130h91zM274 890l95 -130h-72l-122 130h99zM546 711h92l-82 -480q-16 -111 -95 -177t-191 -64q-106 2 -166 67.5t-48 172.5l82 481h91l-82 -482q-8 -69 23.5 -114.5t104.5 -47.5q76 -2 125.5 41t62.5 116z" />
    <glyph glyph-name="uni0215" unicode="&#x215;" horiz-adv-x="534" 
d="M352 739l68 -130h-65l-94 130h91zM200 739l95 -130h-72l-122 130h99zM333 0l12 53q-61 -65 -157 -63q-86 1 -116 61q-31 61 -24 137l57 340h88l-57 -342q-4 -42 8.5 -79.5t63.5 -39.5q94 -3 146 76l66 385h89l-92 -528h-84z" />
    <glyph glyph-name="uni0216" unicode="&#x216;" horiz-adv-x="628" 
d="M542 778l-72 1q2 31 -11.5 51.5t-46.5 20.5q-35 0 -55.5 -20t-26.5 -52h-71q6 62 49 97t104 33q59 -1 95 -36t35 -95zM546 711h92l-82 -480q-16 -111 -95 -177t-191 -64q-106 2 -166 67.5t-48 172.5l82 481h91l-82 -482q-8 -69 23.5 -114.5t104.5 -47.5q76 -2 125.5 41
t62.5 116z" />
    <glyph glyph-name="uni0217" unicode="&#x217;" horiz-adv-x="534" 
d="M469 626l-72 1q2 31 -11.5 51.5t-46.5 20.5q-35 0 -55.5 -20t-26.5 -52h-71q6 62 49 97t104 33q59 -1 95 -36t35 -95zM333 0l12 53q-61 -65 -157 -63q-86 1 -116 61q-31 61 -24 137l57 340h88l-57 -342q-4 -42 8.5 -79.5t63.5 -39.5q94 -3 146 76l66 385h89l-92 -528h-84
z" />
    <glyph glyph-name="uni0218" unicode="&#x218;" horiz-adv-x="564" 
d="M249 -16q-88 0 -150 51.5t-76 142.5l81 33q8 -65 48 -105.5t107 -40.5q41 0 78.5 17.5t61 49.5t23.5 74q0 45 -30.5 74.5t-98.5 54.5l-43 16q-63 24 -103 67t-40 111q0 58 32.5 104t87 72.5t118.5 26.5q65 0 110 -23.5t68.5 -57.5t28.5 -67l-82 -30q-7 38 -38 67.5
t-93 29.5q-61 0 -102.5 -31.5t-41.5 -83.5q0 -41 28 -68t83 -48l43 -16q161 -60 161 -186q0 -70 -34 -123t-93.5 -82t-133.5 -29zM192 -155q-18 4 -29 18.5t-11 33.5q0 21 16 38t40 17q25 0 40.5 -16.5t15.5 -40.5q0 -30 -18 -51l-71 -86l-34 29z" />
    <glyph glyph-name="uni0219" unicode="&#x219;" horiz-adv-x="468" 
d="M209 -16q-81 0 -134 39t-70 101l81 32q10 -46 47 -71.5t84 -25.5q49 0 80.5 23t31.5 58q0 31 -21 51.5t-65 31.5l-51 13q-61 16 -96.5 50t-35.5 86q0 43 25.5 78.5t71.5 55.5t103 20q68 0 119.5 -32t68.5 -84l-81 -31q-12 32 -41.5 51.5t-70.5 19.5q-48 0 -77.5 -20
t-29.5 -52q0 -22 19 -41t55 -28l66 -17q60 -15 94.5 -52t34.5 -90q0 -75 -55.5 -120.5t-152.5 -45.5zM155 -155q-18 4 -29 18.5t-11 33.5q0 21 16 38t40 17q25 0 40.5 -16.5t15.5 -40.5q0 -30 -18 -51l-71 -86l-34 29z" />
    <glyph glyph-name="uni021A" unicode="&#x21a;" horiz-adv-x="538" 
d="M293 635h-201l15 81h486l-15 -81h-200l-113 -635h-84zM187 -155q-18 4 -29 18.5t-11 33.5q0 21 16 38t40 17q25 0 40.5 -16.5t15.5 -40.5q0 -30 -18 -51l-71 -86l-34 29z" />
    <glyph glyph-name="uni021B" unicode="&#x21b;" horiz-adv-x="366" 
d="M213 -8q-53 0 -86 30.5t-33 80.5q0 23 5 49l50 281h-90l14 77h89l26 144h84l-25 -144h125l-14 -77h-125l-48 -271q-4 -23 -4 -39q0 -25 15.5 -38.5t41.5 -13.5q32 0 61 17l-14 -83q-32 -13 -72 -13zM157 -155q-18 4 -29 18.5t-11 33.5q0 21 16 38t40 17q25 0 40.5 -16.5
t15.5 -40.5q0 -30 -18 -51l-71 -86l-34 29z" />
    <glyph glyph-name="uni021C" unicode="&#x21c;" horiz-adv-x="582" 
d="M509 163q-10 -95 -59.5 -160t-123.5 -107t-158.5 -68t-164.5 -41l9 76q85 19 174 51t153 91q85 79 82 227q-1 36 -24 62q-139 -88 -329 -133l7 70q56 17 122.5 40t124 55t97 80t48.5 118q8 62 -31.5 91t-96.5 30t-104 -31t-57 -90h-92q6 64 44.5 108.5t95 67t117.5 21.5
q92 -1 159 -49t58 -150q-5 -56 -34.5 -100.5t-69.5 -79.5q38 -34 48 -82t5 -97z" />
    <glyph glyph-name="uni021D" unicode="&#x21d;" horiz-adv-x="487" 
d="M401 98q-10 -106 -72.5 -170t-152.5 -96.5t-182 -44.5l8 72q63 15 126.5 38.5t108.5 60.5t63 85.5t16 105.5q-1 27 -14 50q-108 -67 -253 -95l7 69q56 15 122 38.5t116 65.5t58 111q4 41 -23 59t-63 18q-41 1 -76.5 -20.5t-44.5 -62.5l-88 -1q8 80 73.5 119.5t139.5 37.5
q69 -1 123 -36t47 -114q-6 -75 -80 -143q50 -55 41 -147z" />
    <glyph glyph-name="uni021E" unicode="&#x21e;" horiz-adv-x="691" 
d="M368 907l56 -83l86 82l79 1v-6l-140 -133h-54l-100 133v6h73zM468 0l57 329h-347l-57 -329h-92l123 711h93l-54 -306h347l53 306h92l-123 -711h-92z" />
    <glyph glyph-name="uni021F" unicode="&#x21f;" horiz-adv-x="534" 
d="M268 907l56 -83l86 82l79 1v-6l-140 -133h-54l-100 133v6h73zM309 462q-45 1 -80 -24t-60 -60l-65 -378h-88l130 750h88l-53 -285q69 75 159 73q85 -1 115 -58t22 -134l-58 -346h-88l58 348q5 47 -11 80t-69 34z" />
    <glyph glyph-name="uni0220" unicode="&#x220;" horiz-adv-x="640" 
d="M606 485l-117 -689h-89l118 689q8 69 -23 113t-103 46q-85 2 -167 -38l-107 -606h-89l123 711h85l-6 -31q80 42 164 40q102 -1 162 -66.5t49 -168.5z" />
    <glyph glyph-name="uni0221" unicode="&#x221;" horiz-adv-x="691" 
d="M468 750h89l-128 -720q34 13 65 12q54 0 87 -34t30 -89q-3 -62 -48 -97.5t-104 -34.5q-45 0 -81.5 21.5t-45.5 68.5l-75 -70l-46 59l123 111l18 76q-62 -64 -150 -63q-69 2 -106.5 45t-50 104t-6.5 118l1 11q8 65 37 127.5t80 103.5t125 40q89 -2 135 -64zM128 257
q-4 -39 0 -82.5t27 -75t73 -32.5q78 -2 135 76l42 245q-29 72 -105 74q-52 2 -86.5 -25t-55.5 -72t-30 -108zM416 -81q-3 -25 9 -41.5t39 -16.5q24 0 41 17t20 40q2 22 -10.5 36.5t-34.5 15.5q-22 0 -59 -20z" />
    <glyph glyph-name="uni0222" unicode="&#x222;" horiz-adv-x="647" 
d="M576 215q-7 -78 -49.5 -127.5t-106.5 -74t-134 -23.5h-15q-99 3 -168.5 56t-60.5 161q11 123 133 187q-41 23 -59.5 62t-14.5 86q6 90 67.5 132.5t144.5 46.5l-8 -73q-44 -10 -75.5 -34t-37.5 -73q-5 -42 14 -64t53 -31t95 -11q87 0 135 28.5t55 85.5q5 44 -15.5 66
t-60.5 32l7 74q73 -7 118.5 -50.5t40.5 -120.5q-4 -61 -39 -99.5t-89 -61.5q41 -32 57.5 -77.5t12.5 -96.5zM331 356q-73 0 -131 -35.5t-67 -113.5q-8 -71 33.5 -102.5t107.5 -34.5l11 -1q73 0 132 33.5t68 112.5q8 71 -34 104.5t-107 36.5h-13z" />
    <glyph glyph-name="uni0223" unicode="&#x223;" horiz-adv-x="630" 
d="M567 215q-6 -78 -48.5 -127.5t-106.5 -73.5t-135 -24h-14q-98 3 -167.5 56t-60.5 161q11 124 135 187q-43 27 -60.5 70t-13.5 93q7 92 67.5 145.5t149.5 58.5l-7 -69q-49 -18 -82 -50t-39 -86q-8 -70 35.5 -96.5t104.5 -27.5l19 -1q69 0 127.5 28t68.5 105q12 93 -73 127
l7 69q79 -7 119.5 -62.5t34.5 -132.5q-10 -121 -134 -176q42 -31 59.5 -76.5t13.5 -97.5zM323 358q-74 0 -132 -36.5t-67 -115.5q-8 -71 34 -105.5t107 -36.5h11q74 -1 133.5 35.5t68.5 115.5q8 71 -34.5 105.5t-107.5 37.5h-13z" />
    <glyph glyph-name="uni0224" unicode="&#x224;" horiz-adv-x="592" 
d="M105 634l14 77h481l-13 -73l-473 -561l252 -1q65 -1 108 -34.5t38 -103.5q-1 -26 -13 -58l-77 1l9 34q11 81 -67 85h-374l13 75l472 559h-370z" />
    <glyph glyph-name="uni0225" unicode="&#x225;" horiz-adv-x="497" 
d="M464 460l-349 -385l153 -1q62 -2 107 -27.5t41 -94.5q-2 -26 -14 -59l-73 1l8 34q5 39 -15 55t-56 17h-275l12 71l345 383h-275l13 74h390z" />
    <glyph glyph-name="uni0226" unicode="&#x226;" horiz-adv-x="632" 
d="M358 819q0 23 14.5 38t37.5 15q22 0 37 -14t15 -37t-14.5 -37.5t-37.5 -15.5q-23 0 -37.5 14.5t-14.5 36.5zM-40 0l387 711h81l140 -711h-90l-34 186h-287l-98 -186h-99zM197 263h233l-59 331z" />
    <glyph glyph-name="uni0227" unicode="&#x227;" horiz-adv-x="527" 
d="M289 667q0 23 14.5 38t37.5 15q22 0 37 -14t15 -37t-14.5 -37.5t-37.5 -15.5q-23 0 -37.5 14.5t-14.5 36.5zM336 0q-3 14 -3 28l1 28q-73 -67 -154 -66q-65 1 -111.5 42.5t-42.5 110.5q4 67 43 106t96.5 55.5t115.5 16.5l92 -1l6 43q5 46 -18 74t-70 29q-41 0 -77.5 -21
t-46.5 -63h-88q5 53 40 88t84 52t97 17q80 -1 127.5 -48.5t38.5 -129.5l-42 -258l-3 -41q-1 -27 6 -54l-1 -8h-90zM198 69q44 -1 82 21t63 58l19 109h-67q-94 0 -143 -37q-29 -22 -35 -65q-5 -40 18.5 -63t62.5 -23z" />
    <glyph glyph-name="uni0228" unicode="&#x228;" horiz-adv-x="551" 
d="M325 -102q-1 -42 -26.5 -64.5t-61.5 -31.5q-37 -9 -71 -10l2 52q26 1 55 11q28 10 33 42q4 29 -21 34q-25 6 -45 9l20 60h-181l123 711h434l-13 -77h-342l-40 -229h299l-13 -76h-299l-44 -252h347l-13 -77h-195l-9 -22q62 -14 61 -80z" />
    <glyph glyph-name="uni0229" unicode="&#x229;" horiz-adv-x="514" 
d="M305 -107q-1 -42 -26.5 -64.5t-61.5 -31.5q-37 -9 -71 -10l2 52q26 1 55 11q28 10 33 42q4 29 -21 34q-25 6 -45 9l20 60q-71 15 -110 74q-51 76 -43 175l3 26q8 67 41 129t89 102q55 39 129 37q73 -1 114 -39q41 -39 56 -97q14 -59 7 -123l-6 -40h-345q-7 -62 21 -117
q28 -56 100 -58q44 -1 80 20q35 20 65 51l50 -43q-35 -51 -88 -77q-48 -23 -102 -25l-7 -17q62 -14 61 -80zM190 417q-38 -49 -55 -105h256l2 8q7 53 -16 98q-24 44 -83 46q-67 2 -104 -47z" />
    <glyph glyph-name="uni022A" unicode="&#x22a;" horiz-adv-x="667" 
d="M614 981l-13 -69h-318l12 69h319zM265 818q0 23 14.5 38.5t37.5 16t37.5 -14t14.5 -37t-15 -37.5t-37.5 -15.5t-37 13.5t-14.5 36zM484 818q0 23 14.5 38t37.5 15t37.5 -14t14.5 -36q0 -23 -15 -38t-37.5 -15.5t-37 14t-14.5 36.5zM625 378l-6 -45q-13 -87 -53.5 -166.5
t-109.5 -129t-167 -47.5q-94 2 -146.5 54t-70.5 130t-8 159l6 45q13 86 54 165.5t110.5 129.5t165.5 48q95 -2 148 -53.5t70.5 -129.5t6.5 -160zM536 495q-6 60 -37.5 102t-102.5 44q-75 2 -125.5 -40.5t-79.5 -115t-38 -172.5q-4 -46 2 -95q6 -61 37.5 -103.5t100.5 -45.5
q76 -2 126.5 40.5t79.5 115.5t37 174q4 47 0 96z" />
    <glyph glyph-name="uni022B" unicode="&#x22b;" horiz-adv-x="553" 
d="M524 850l-12 -70h-319l13 70h318zM179 668q0 23 14.5 38.5t37 16t37.5 -14.5t14.5 -37.5t-15 -37t-37 -15t-37 13.5t-14.5 36zM382 667q0 23 14.5 38.5t37.5 16t37.5 -14t14.5 -37.5t-14.5 -37.5t-37 -15t-37.5 13.5t-15 36zM39 255l1 12q8 73 42.5 135t91 100t133.5 36
q74 -1 120.5 -40t66 -100t12.5 -127l-1 -12q-8 -71 -42.5 -133t-91.5 -100t-134 -36q-74 1 -120 39.5t-65 99t-13 126.5zM128 267l-1 -12q-4 -42 3.5 -85.5t33.5 -74t77 -31.5q54 -1 90.5 28.5t57.5 75t28 91.5v12q4 42 -3 85.5t-33.5 74.5t-76.5 33q-54 2 -91 -28.5
t-58 -76.5t-27 -92z" />
    <glyph glyph-name="uni022C" unicode="&#x22c;" horiz-adv-x="667" 
d="M615 983l-13 -69h-319l13 69h319zM522 866l38 -12q-4 -34 -24 -61t-59 -28q-30 0 -52 19.5t-50 18.5q-33 -1 -48 -43l-40 10q4 34 25.5 62t59.5 28q29 0 51.5 -20.5t51.5 -18.5q32 2 47 45zM625 378l-6 -45q-13 -87 -53.5 -166.5t-109.5 -129t-167 -47.5q-94 2 -146.5 54
t-70.5 130t-8 159l6 45q13 86 54 165.5t110.5 129.5t165.5 48q95 -2 148 -53.5t70.5 -129.5t6.5 -160zM536 495q-6 60 -37.5 102t-102.5 44q-75 2 -125.5 -40.5t-79.5 -115t-38 -172.5q-4 -46 2 -95q6 -61 37.5 -103.5t100.5 -45.5q76 -2 126.5 40.5t79.5 115.5t37 174
q4 47 0 96z" />
    <glyph glyph-name="uni022D" unicode="&#x22d;" horiz-adv-x="553" 
d="M527 862l-13 -69h-318l13 69h318zM451 740l59 -5q-5 -46 -33 -84t-80 -37q-37 0 -63 25.5t-61 24.5q-42 -2 -59 -55l-59 3q5 46 33 84.5t81 37.5q36 -1 62.5 -25.5t61.5 -23.5q43 1 58 55zM39 255l1 12q8 73 42.5 135t91 100t133.5 36q74 -1 120.5 -40t66 -100t12.5 -127
l-1 -12q-8 -71 -42.5 -133t-91.5 -100t-134 -36q-74 1 -120 39.5t-65 99t-13 126.5zM128 267l-1 -12q-4 -42 3.5 -85.5t33.5 -74t77 -31.5q54 -1 90.5 28.5t57.5 75t28 91.5v12q4 42 -3 85.5t-33.5 74.5t-76.5 33q-54 2 -91 -28.5t-58 -76.5t-27 -92z" />
    <glyph glyph-name="uni022E" unicode="&#x22e;" horiz-adv-x="667" 
d="M374 820q0 23 14.5 38t37.5 15q22 0 37 -14t15 -37t-14.5 -37.5t-37.5 -15.5q-23 0 -37.5 14.5t-14.5 36.5zM625 378l-6 -45q-13 -87 -53.5 -166.5t-109.5 -129t-167 -47.5q-94 2 -146.5 54t-70.5 130t-8 159l6 45q13 86 54 165.5t110.5 129.5t165.5 48q95 -2 148 -53.5
t70.5 -129.5t6.5 -160zM536 495q-6 60 -37.5 102t-102.5 44q-75 2 -125.5 -40.5t-79.5 -115t-38 -172.5q-4 -46 2 -95q6 -61 37.5 -103.5t100.5 -45.5q76 -2 126.5 40.5t79.5 115.5t37 174q4 47 0 96z" />
    <glyph glyph-name="uni022F" unicode="&#x22f;" horiz-adv-x="553" 
d="M280 667q0 23 14.5 38t37.5 15q22 0 37 -14t15 -37t-14.5 -37.5t-37.5 -15.5q-23 0 -37.5 14.5t-14.5 36.5zM39 255l1 12q8 73 42.5 135t91 100t133.5 36q74 -1 120.5 -40t66 -100t12.5 -127l-1 -12q-8 -71 -42.5 -133t-91.5 -100t-134 -36q-74 1 -120 39.5t-65 99
t-13 126.5zM128 267l-1 -12q-4 -42 3.5 -85.5t33.5 -74t77 -31.5q54 -1 90.5 28.5t57.5 75t28 91.5v12q4 42 -3 85.5t-33.5 74.5t-76.5 33q-54 2 -91 -28.5t-58 -76.5t-27 -92z" />
    <glyph glyph-name="uni0230" unicode="&#x230;" horiz-adv-x="667" 
d="M613 981l-12 -69h-319l12 69h319zM374 818q0 22 14.5 37.5t37.5 15.5q22 0 37 -14t15 -37t-15 -38t-37 -15q-23 0 -37.5 14t-14.5 37zM625 378l-6 -45q-13 -87 -53.5 -166.5t-109.5 -129t-167 -47.5q-94 2 -146.5 54t-70.5 130t-8 159l6 45q13 86 54 165.5t110.5 129.5
t165.5 48q95 -2 148 -53.5t70.5 -129.5t6.5 -160zM536 495q-6 60 -37.5 102t-102.5 44q-75 2 -125.5 -40.5t-79.5 -115t-38 -172.5q-4 -46 2 -95q6 -61 37.5 -103.5t100.5 -45.5q76 -2 126.5 40.5t79.5 115.5t37 174q4 47 0 96z" />
    <glyph glyph-name="uni0231" unicode="&#x231;" horiz-adv-x="553" 
d="M523 847l-12 -69h-319l13 69h318zM279 667q0 22 14.5 37.5t37.5 15.5q22 0 37 -14t15 -37t-15 -37.5t-37 -15.5q-23 0 -37.5 14t-14.5 37zM39 255l1 12q8 73 42.5 135t91 100t133.5 36q74 -1 120.5 -40t66 -100t12.5 -127l-1 -12q-8 -71 -42.5 -133t-91.5 -100t-134 -36
q-74 1 -120 39.5t-65 99t-13 126.5zM128 267l-1 -12q-4 -42 3.5 -85.5t33.5 -74t77 -31.5q54 -1 90.5 28.5t57.5 75t28 91.5v12q4 42 -3 85.5t-33.5 74.5t-76.5 33q-54 2 -91 -28.5t-58 -76.5t-27 -92z" />
    <glyph glyph-name="uni0232" unicode="&#x232;" horiz-adv-x="582" 
d="M551 861l-11 -70h-318l11 70h318zM182 711l117 -357l241 357h110l-319 -450l-45 -261h-92l47 271l-159 440h100z" />
    <glyph glyph-name="uni0233" unicode="&#x233;" horiz-adv-x="458" 
d="M473 710l-11 -70h-318l11 70h318zM180 -82q-25 -52 -66 -93t-104 -40q-20 1 -52 8l5 74l23 -2q48 -2 77 20.5t50 64.5l32 61l-92 517h92l60 -394l187 394h98z" />
    <glyph glyph-name="uni0234" unicode="&#x234;" horiz-adv-x="415" 
d="M192 750h89l-129 -720q35 13 65 12q54 0 87 -34.5t31 -88.5q-2 -62 -48 -97.5t-105 -34.5q-45 0 -81.5 21.5t-45.5 68.5l-74 -70l-46 59l123 111zM139 -81q-3 -25 9 -41.5t40 -16.5q24 0 41 17t20 40q2 22 -10.5 36.5t-34.5 14.5q-23 0 -59 -19z" />
    <glyph glyph-name="uni0235" unicode="&#x235;" horiz-adv-x="683" 
d="M340 538q85 -1 115 -58t22 -134l-56 -316q37 14 66 12q54 0 86.5 -34.5t30.5 -88.5q-2 -62 -48 -97.5t-105 -34.5q-45 0 -81.5 22t-45.5 68l-74 -70l-46 59l123 111l62 371q5 47 -11 80t-69 34q-45 1 -80 -24t-60 -60l-65 -378h-88l91 528l84 1l-13 -67q70 78 162 76z
M408 -81q-3 -25 9.5 -41.5t39.5 -16.5q24 0 40.5 17.5t19.5 39.5q2 22 -10 36.5t-34 15.5q-22 0 -59 -20z" />
    <glyph glyph-name="uni0236" unicode="&#x236;" horiz-adv-x="417" 
d="M374 123q-2 -62 -48 -98t-105 -35q-45 0 -81.5 22t-45.5 69l-74 -70l-47 58l124 112l48 278h-94l12 69h94l22 129h89l-23 -129h96l-12 -69h-96l-42 -226q38 13 65 13q54 0 87 -34.5t31 -88.5zM178 123q-3 -25 9 -41.5t39 -16.5q24 0 41 17t20 40q2 22 -10 36.5t-34 15
t-60 -19.5z" />
    <glyph glyph-name="uni0237" unicode="&#x237;" horiz-adv-x="230" 
d="M-64 -226q-24 0 -50 8l14 79q7 -4 19.5 -7t22.5 -3q58 0 70 71l104 588h85l-105 -592q-14 -79 -54.5 -111.5t-105.5 -32.5z" />
    <glyph glyph-name="uni0238" unicode="&#x238;" horiz-adv-x="869" 
d="M818 259q-8 -64 -36 -126.5t-78 -103.5t-124 -39q-92 2 -140 68l-12 -58h-81l9 57q-64 -69 -154 -67q-69 2 -106.5 45t-50 104t-6.5 118l1 11q8 65 37 127.5t80 103.5t125 40q88 -2 135 -64l51 275h89l-53 -279q63 69 154 67q72 -1 109 -43.5t48 -104t4 -120.5zM128 175
q4 -44 27 -75.5t73 -32.5q79 -2 135 76l42 245q-29 72 -106 74q-54 2 -89.5 -27.5t-55 -75.5t-25.5 -91q-5 -53 -1 -93zM632 462q-82 2 -139 -82l-40 -231q29 -80 110 -83q51 -1 85 26t54 71t28 107q4 39 1 83t-25 76t-74 33z" />
    <glyph glyph-name="uni0239" unicode="&#x239;" horiz-adv-x="868" 
d="M580 -10q-92 2 -141 62l-48 -255h-88l48 252q-63 -61 -148 -59q-71 2 -108.5 44.5t-49.5 103.5t-6 119q22 167 116 242q52 42 129 40q89 -2 136 -64l16 53l74 1l-10 -59q65 70 157 68q72 -2 109 -44t48 -103.5t4 -120.5l-1 -11q-8 -64 -36 -126.5t-77.5 -103
t-123.5 -39.5zM128 257q-5 -39 0 -83q4 -44 27 -76t74 -34q75 -2 132 71l46 261q-32 67 -106 68q-54 2 -90 -28t-56 -76.5t-26 -91.5zM627 462q-78 2 -133 -73l-43 -253q30 -70 107 -72q51 -1 86 26t56 72t29 108q4 39 0 83t-27.5 76t-74.5 33z" />
    <glyph glyph-name="uni023A" unicode="&#x23a;" horiz-adv-x="632" 
d="M-145 -61l168 176l324 596h80l28 -141l183 193h83l-252 -265l98 -498h-90l-33 186h-271l-38 -40l-77 -146h-61l-59 -61h-83zM371 594l-139 -259l156 164zM246 263h184l-29 163z" />
    <glyph glyph-name="uni023B" unicode="&#x23b;" horiz-adv-x="631" 
d="M280 -10q-45 0 -91 16l-37 -67h-68l55 94q-59 55 -73 133t-4 154l10 71q13 87 54.5 162.5t110.5 122.5t164 46q53 -1 100 -18l35 59l66 -1l-51 -86q39 -39 54 -89.5t16 -104.5l-90 1q0 72 -20 111l-285 -517q26 -11 57 -12q83 -2 130 41.5t69 119.5h91
q-22 -110 -101 -173.5t-192 -62.5zM147 213q1 -56 31 -101l287 520q-29 12 -68 14q-71 1 -119 -36.5t-75.5 -95t-37.5 -119.5l-12 -76q-8 -50 -6 -106z" />
    <glyph glyph-name="uni023C" unicode="&#x23c;" horiz-adv-x="507" 
d="M227 -11q-45 0 -88 17l-121 -209h-67l139 240q-39 45 -48.5 102t-2.5 113l1 10q15 128 87.5 203.5t180.5 73.5q26 0 57 -8l104 180h67l-118 -203q69 -56 69 -162l-83 1q2 54 -23 87l-207 -359q25 -12 55 -12q49 -1 88 28t52 76h84q-12 -81 -79.5 -130t-146.5 -48z
M120 185q0 -35 12 -68l199 345l-26 3q-81 1 -123 -57q-62 -86 -62 -223z" />
    <glyph glyph-name="uni023D" unicode="&#x23d;" horiz-adv-x="560" 
d="M321 321h-111l-43 -244h327l-13 -77h-419l56 321h-100l13 74h99l55 316h93l-55 -316h111z" />
    <glyph glyph-name="uni023E" unicode="&#x23e;" horiz-adv-x="578" 
d="M83 634l13 77h419l35 52h71l-35 -52h43l-13 -77h-81l-190 -286l-61 -348h-90l29 164l-150 -225h-72l247 370l56 325h-221zM395 634l-25 -141l94 141h-69z" />
    <glyph glyph-name="uni023F" unicode="&#x23f;" horiz-adv-x="500" 
d="M339 144q5 35 -15 52.5t-86.5 36t-100 40t-46.5 46.5t-11 61q2 53 34 88t79 53t94 17q74 -1 126.5 -44t49.5 -121h-88q1 42 -25 66t-67 24q-39 0 -74.5 -19t-41.5 -62q-4 -29 14 -44t44 -22.5t48 -13.5q60 -17 109.5 -49.5t45.5 -101.5q-3 -56 -36.5 -92t-82.5 -53
t-99 -17q-30 0 -68 8l15 -51q10 -34 25 -60t41 -26q28 0 69 29l26 -55q-48 -47 -99 -47q-50 0 -79 39.5t-46 79.5l-80 215l62 33q42 -88 138 -90q39 0 78.5 18t46.5 62z" />
    <glyph glyph-name="uni0240" unicode="&#x240;" horiz-adv-x="481" 
d="M73 454l13 74h390l-12 -68l-349 -386l31 -1q49 -2 77 -34.5t46.5 -74t37.5 -73t50 -32.5q20 0 37.5 9t32.5 21l27 -55q-48 -47 -102 -47q-49 0 -75 31.5t-44 72.5t-43.5 73.5t-75.5 35.5h-123l12 71l345 383h-275z" />
    <glyph glyph-name="uni0241" unicode="&#x241;" horiz-adv-x="522" 
d="M146 0l33 219l41 -1q83 0 124.5 57t51.5 132l8 51q5 42 -1 84t-30.5 70t-75.5 29q-56 2 -92 -32t-47 -86h-86q13 88 76.5 144t153.5 54q74 -2 119.5 -40t63.5 -97.5t10 -126.5l-8 -54q-14 -96 -69.5 -168.5t-155.5 -90.5l-28 -144h-88z" />
    <glyph glyph-name="uni0242" unicode="&#x242;" horiz-adv-x="461" 
d="M136 0l32 217l41 -1q58 0 90 35t38 91q5 49 -15 85.5t-75 37.5q-53 1 -82.5 -37.5t-37.5 -85.5h-88q9 85 67 142t146 55q90 -2 135.5 -56.5t38.5 -142.5q-6 -77 -52.5 -122t-121.5 -56l-30 -162h-86z" />
    <glyph glyph-name="uni0243" unicode="&#x243;" horiz-adv-x="642" 
d="M485 52q-75 -52 -174 -52h-249l29 169h-99l13 74h99l81 468l221 -1q88 -2 147 -44q59 -43 51 -141q-5 -57 -41 -94q-37 -37 -87 -59q51 -20 73 -66t18 -97q-8 -105 -82 -157zM371 332l-159 1l-16 -90h112l-13 -74h-112l-16 -92l145 -1q62 0 109 34q47 33 55 98
q15 120 -105 124zM459 438q45 29 53 89q7 57 -24 81t-84 25l-140 1l-39 -226h132q56 0 102 30z" />
    <glyph glyph-name="uni0244" unicode="&#x244;" horiz-adv-x="751" 
d="M332 -10q-106 2 -166 67.5t-48 172.5l16 100h-113l13 74h113l53 307h92l-54 -307h317l53 307h92l-54 -307h111l-13 -74h-110l-16 -100q-16 -110 -95 -176t-191 -64zM209 229q-8 -69 23.5 -114.5t104.5 -47.5q76 -2 125.5 41t62.5 116l17 106h-317z" />
    <glyph glyph-name="uni0245" unicode="&#x245;" horiz-adv-x="617" 
d="M-40 0l378 711h81l133 -711h-96l-96 585l-297 -585h-103z" />
    <glyph glyph-name="uni0246" unicode="&#x246;" horiz-adv-x="551" 
d="M29 0l123 711h306l23 52h66l-23 -52h62l-13 -77h-83l-101 -229h101l-13 -76h-123l-111 -252h238l-13 -77h-259l-27 -61h-66l27 61h-114zM191 405h132l101 229h-193zM134 77h43l112 252h-111z" />
    <glyph glyph-name="uni0247" unicode="&#x247;" horiz-adv-x="514" 
d="M234 -11q-48 1 -94 19l-122 -211h-67l140 242q-38 42 -48.5 96t-5.5 109l3 21q8 69 42 132t90.5 103t131.5 39q29 0 62 -8l103 180h67l-119 -204q47 -42 57 -105.5t2 -122.5l-6 -40h-201l-92 -159q28 -17 64 -17q45 0 81 20t66 52l50 -43q-36 -51 -89 -77t-115 -26z
M301 465q-68 1 -107 -47t-59 -106h108l88 150q-18 3 -30 3zM398 378q-2 29 -19 54l-68 -120h81q8 36 6 66zM125 239q-5 -30 -3.5 -59t13.5 -57l67 116h-77z" />
    <glyph glyph-name="uni0248" unicode="&#x248;" horiz-adv-x="584" 
d="M367 48q-67 -61 -168 -59q-95 2 -146 58q-52 56 -45 150h92q-4 -56 21 -92q24 -37 83 -38q62 -2 101 38q39 39 50 96l20 120h-107l13 74h107l54 316h91l-53 -316h104l-13 -74h-104l-19 -113q-14 -99 -81 -160z" />
    <glyph glyph-name="uni0249" unicode="&#x249;" horiz-adv-x="335" 
d="M109 -173q-38 -43 -110 -42q-28 1 -59 9l9 73q24 -6 41 -6q62 0 75 76l55 322h-111l13 74h111l33 195h89l-33 -195h103l-13 -74h-103l-54 -322q-8 -66 -46 -110zM196 706q14 15 37 15.5t38 -14.5q14 -15 14 -37q0 -23 -14 -37q-15 -15 -37 -15q-23 -1 -38 13t-15 36
q0 23 15 39z" />
    <glyph glyph-name="uni024A" unicode="&#x24a;" horiz-adv-x="690" 
d="M588 711h74l-129 -755q-3 -29 1.5 -59t42.5 -31q13 0 32 4l-5 -75q-28 -8 -52 -7q-72 1 -94.5 54t-15.5 114l12 64q-67 -30 -155 -29q-95 1 -151 50.5t-76 126t-9 160.5l9 58q14 89 57 166t114 123.5t169 45.5q100 -1 165 -37zM409 642q-74 1 -124.5 -35.5t-80 -94.5
t-41 -125t-12.5 -103t4 -73q8 -59 42 -99t106 -42q102 -2 164 53l83 465q-23 34 -63 44t-78 10z" />
    <glyph glyph-name="uni024B" unicode="&#x24b;" horiz-adv-x="573" 
d="M437 528h81l-101 -595q-4 -32 6.5 -55.5t47.5 -24.5q15 0 28 3l-3 -63q-23 -6 -45 -5q-62 1 -95 44t-27 102l21 115q-62 -60 -147 -59q-71 2 -108.5 44.5t-49.5 103.5t-6 119q23 173 122 246q50 37 123 35q87 -1 136 -63zM128 257q-4 -39 0.5 -83.5t27.5 -76.5t73 -33
q74 -2 132 71l46 261q-32 67 -105 69q-55 1 -91 -29t-56 -76.5t-26 -91.5z" />
    <glyph glyph-name="uni024C" unicode="&#x24c;" horiz-adv-x="625" 
d="M464 0l-100 288h-163l-51 -288h-91l50 288h-92l13 77h92l60 346l223 -1q97 -2 158.5 -53.5t52.5 -155.5q-7 -73 -52.5 -121.5t-111.5 -72.5l110 -301v-6h-98zM260 634l-47 -269l135 -1q64 0 115.5 35t59.5 102q8 64 -25.5 97t-94.5 35z" />
    <glyph glyph-name="uni024D" unicode="&#x24d;" horiz-adv-x="375" 
d="M211 375l-11 -61h121l-13 -74h-120l-42 -240h-88l41 240h-94l13 74h94l37 214l86 1l-13 -61q53 73 131 72q17 0 41 -7l-8 -85q-23 5 -41 5q-84 1 -134 -78z" />
    <glyph glyph-name="uni024E" unicode="&#x24e;" horiz-adv-x="654" 
d="M367 261l-46 -261h-91l47 271l-90 249h-134l10 56h104l-49 135h99l45 -135h222l92 135h109l-96 -135h100l-10 -56h-129zM334 354l112 166h-166z" />
    <glyph glyph-name="uni024F" unicode="&#x24f;" horiz-adv-x="497" 
d="M32 -215q-23 1 -54 9l8 73l23 -2q49 -2 77.5 21.5t49.5 64.5l31 60l-53 301h-96l10 57h76l-28 159h92l24 -159h147l76 159h98l-82 -159h65l-10 -57h-83l-202 -398q-27 -53 -67.5 -91.5t-101.5 -37.5zM201 312l26 -179l85 179h-111z" />
    <glyph glyph-name="uni0250" unicode="&#x250;" horiz-adv-x="527" 
d="M438 146q-5 -53 -39.5 -88t-84 -52t-96.5 -16q-80 1 -127.5 48t-39.5 129l43 262l3 38q0 27 -6 53v9h90l4 -28l-2 -28q72 66 155 65q66 -1 111.5 -42.5t41.5 -110.5q-4 -67 -43 -105.5t-96 -55t-115 -16.5h-92l-6 -42q-5 -46 18 -74q23 -30 70 -30q41 -1 77.5 20.5
t45.5 63.5h88zM320 460q-44 1 -82 -21.5t-64 -58.5l-19 -109h68q42 0 82 9.5t65.5 31t30.5 61.5t-18.5 63t-62.5 24z" />
    <glyph glyph-name="uni0251" unicode="&#x251;" horiz-adv-x="571" 
d="M494 6q-26 -16 -56 -15q-68 1 -76 79q-68 -83 -161 -80q-69 1 -106.5 40t-50 97t-5.5 116l1 8q22 164 111 243q51 46 130 44q44 -1 80 -20.5t57 -58.5l23 69h76l-65 -384l-2 -42q0 -28 23 -30l16 3zM128 244q-5 -39 0 -80q5 -42 27.5 -70.5t71.5 -30.5q48 -1 80.5 26
t56.5 65l37 219q-12 38 -36.5 63.5t-66.5 27.5q-56 2 -91 -31.5t-53.5 -83t-24.5 -95.5z" />
    <glyph glyph-name="uni0252" unicode="&#x252;" horiz-adv-x="571" 
d="M280 -10q-44 1 -79.5 20t-57.5 58l-23 -68h-76l65 384l2 43q0 27 -23 29q-4 0 -16 -2l-5 68q26 16 56 15q37 0 55 -22.5t21 -56.5q67 82 161 80q69 -1 106 -40.5t49.5 -97t6.5 -115.5q-24 -181 -120 -258q-49 -39 -122 -37zM334 464q-47 1 -80 -26t-57 -64l-37 -220
q12 -37 36.5 -63t66.5 -27q56 -2 91 31.5t53.5 83t25.5 95.5l1 10q5 39 -0.5 80t-28 70t-71.5 30z" />
    <glyph glyph-name="uni0253" unicode="&#x253;" horiz-adv-x="545" 
d="M300 698q-41 1 -62.5 -22.5t-28.5 -60.5l-27 -144q63 69 153 67q72 -2 109 -44t48 -103.5t5 -120.5q-23 -169 -119 -244q-49 -38 -121 -36q-43 1 -80 18t-62 54l-18 -62h-82l105 615q8 64 50.5 107t109.5 43q20 -1 51 -8l-4 -64zM309 463q-82 2 -139 -83l-40 -231
q29 -80 109 -83q53 -1 87 27t53.5 72.5t28.5 104.5q4 40 0.5 84t-25.5 76t-74 33z" />
    <glyph glyph-name="uni0254" unicode="&#x254;" horiz-adv-x="507" 
d="M9 167h83q1 -45 29.5 -73.5t73.5 -30.5q72 -2 118 52t59 160q5 41 -0.5 84.5t-30 73.5t-75.5 31q-54 1 -91 -33t-49 -84h-83q12 86 75.5 140t151.5 51q74 -1 118 -39t61 -97.5t10 -125.5l-1 -13q-15 -125 -88 -200.5t-179 -72.5q-75 2 -128 52t-54 125z" />
    <glyph glyph-name="uni0255" unicode="&#x255;" horiz-adv-x="513" 
d="M23 -62l-58 54l93 94q-15 41 -17 83q-3 42 2 83l3 25q9 70 43.5 130.5t90 96.5t132.5 34q83 -2 131.5 -56t48.5 -136h-84q0 47 -25.5 81.5t-75.5 36.5q-54 1 -89.5 -26.5t-56 -70.5t-28.5 -91q-12 -68 -9 -120q44 42 95.5 78t115.5 34q51 -1 87 -28.5t34 -83.5
q-2 -55 -37 -92.5t-85.5 -56t-99.5 -17.5q-75 1 -128 39zM329 193q-49 1 -91 -38t-73 -70q25 -22 72 -23q38 0 83.5 19.5t51.5 64.5q5 46 -43 47z" />
    <glyph glyph-name="uni0256" unicode="&#x256;" horiz-adv-x="572" 
d="M468 750h87l-138 -817q-3 -32 7 -55.5t46 -24.5l30 2l-5 -62q-23 -6 -45 -5q-62 1 -94.5 44t-26.5 102l22 119q-62 -64 -150 -63q-70 2 -107.5 45t-49.5 104t-6 118q23 170 120 244q50 39 123 37q88 -1 136 -63zM126 257q-4 -39 0 -82q4 -44 27 -75.5t74 -32.5
q79 -2 135 77l43 244q-30 72 -107 75q-52 1 -86.5 -26t-55.5 -72t-30 -108z" />
    <glyph glyph-name="uni0257" unicode="&#x257;" horiz-adv-x="572" 
d="M623 698q-77 3 -93 -88l-104 -610h-76l7 59q-65 -71 -156 -69q-69 2 -106.5 45t-50 104t-6.5 118q22 166 118 242q51 41 126 40q88 -2 135 -64l25 140q8 65 51.5 107.5t110.5 41.5q23 0 51 -8l-5 -63zM127 257q-4 -39 0 -82.5t27 -75t73 -32.5q79 -2 136 77l42 244
q-30 73 -106 75q-53 1 -88 -27t-55 -72.5t-29 -106.5z" />
    <glyph glyph-name="uni0258" unicode="&#x258;" horiz-adv-x="514" 
d="M190 -10q-121 2 -183 103l57 43q45 -71 124 -73q78 -2 124 52.5t63 123.5h-349l6 38q25 158 118 225q52 38 131 37q72 -2 114.5 -44t59 -103.5t10.5 -123.5l-3 -21q-12 -107 -86 -183t-186 -74zM124 312h257q1 52 -21 101.5t-84 50.5q-65 2 -101 -44t-51 -108z" />
    <glyph glyph-name="uni0259" unicode="&#x259;" horiz-adv-x="565" 
d="M242 -16q-66 0 -114 29t-73 78t-25 108q0 42 9 72h404q2 16 2 32q0 44 -20.5 77.5t-53.5 51t-71 17.5q-59 0 -100.5 -24.5t-69.5 -71.5l-65 37q37 67 98 101.5t141 34.5q69 0 120.5 -31.5t79.5 -85t28 -117.5q0 -80 -36.5 -151t-102.5 -114t-151 -43zM252 61
q64 0 111.5 40t66.5 100h-314v-14q0 -51 35.5 -88.5t100.5 -37.5z" />
    <glyph glyph-name="uni025A" unicode="&#x25a;" horiz-adv-x="674" 
d="M202 -10q-74 2 -114 40t-53.5 96.5t-7.5 122.5l3 32l351 69q-6 49 -37 81t-82 33q-79 2 -145 -71l-51 44q36 50 89 76t115 25q77 -1 132.5 -47.5t65.5 -123.5l95 18l1 -52q0 -33 9.5 -60t38.5 -29l31 2l6 -58q-29 -14 -57 -14q-54 0 -74 39t-22 86l-23 -5l-6 -25
q-30 -163 -132 -239q-55 -42 -133 -40zM110 208q-8 -53 14 -97.5t83 -46.5q55 -2 90 29.5t54.5 80t28.5 101.5l-267 -52z" />
    <glyph glyph-name="uni025B" unicode="&#x25b;" horiz-adv-x="528" 
d="M252 306h103l-12 -72h-92q-46 0 -89.5 -18t-49.5 -71q-5 -45 34 -63q38 -20 74 -20q45 0 89 22.5t54 71.5h88q-6 -59 -41.5 -96t-87 -54t-105.5 -16q-46 0 -92 16t-75.5 50t-26.5 89q3 53 37 83t80 46q-30 16 -49.5 43.5t-17.5 62.5q3 59 37.5 93.5t85 50t100.5 14.5
q71 -1 130 -40t57 -117h-87q1 42 -32 62t-71 21q-41 0 -83.5 -18.5t-49.5 -64.5q-6 -44 25 -59t67 -16z" />
    <glyph glyph-name="uni025C" unicode="&#x25c;" horiz-adv-x="523" 
d="M159 234l13 72l92 -1q42 0 83 17t47 66q5 43 -30.5 60t-70.5 17q-42 0 -82.5 -19.5t-49.5 -63.5l-88 -1q5 55 39.5 90t84 51.5t99.5 15.5q46 -1 90.5 -15.5t72 -47.5t23.5 -86q-3 -46 -35.5 -74t-71.5 -45q80 -33 76 -117q-3 -59 -40 -95.5t-90 -52.5t-104 -15
q-76 1 -136 42t-58 125l87 -1q-2 -47 33 -69.5t77 -22.5q42 -1 89 19t54 69q7 48 -25.5 64t-73.5 17z" />
    <glyph glyph-name="uni025D" unicode="&#x25d;" horiz-adv-x="689" 
d="M159 234l13 72l92 -1q42 0 83 17.5t47 65.5q5 43 -30.5 60t-70.5 17q-42 0 -82.5 -19.5t-49.5 -63.5l-88 -1q5 55 40 90t84.5 51.5t99.5 15.5q53 0 109.5 -21t72.5 -80l112 21l1 -50q0 -33 9.5 -60.5t38.5 -29.5l31 1l6 -57q-30 -15 -57 -14q-54 0 -74 38.5t-22 85.5
l-43 -10q-17 -35 -43.5 -56t-62.5 -36q79 -34 75 -117q-3 -59 -39.5 -95.5t-89.5 -52.5t-104 -15q-76 1 -136 42t-58 125l87 -1q-2 -47 33 -69.5t77 -22.5q42 -1 89 19t54 69q6 48 -26.5 64t-72.5 17z" />
    <glyph glyph-name="uni025E" unicode="&#x25e;" horiz-adv-x="506" 
d="M434 153q-3 -57 -36 -93.5t-82 -53.5t-100 -16q-78 2 -118 44.5t-51.5 106.5t-3.5 129l-1 -1l-1 6v-1q10 71 39.5 132t82.5 97.5t132 34.5q69 -1 122 -36.5t48 -113.5q-3 -44 -32.5 -72t-66.5 -46q73 -33 68 -117zM200 231l13 77h49q41 0 75 17t39 63q4 41 -23 58.5
t-62 18.5q-57 1 -93 -34t-54.5 -98t-16.5 -150q1 -48 21 -84t72 -36q42 -1 81 21t45 68q6 45 -20.5 61.5t-65.5 17.5h-60z" />
    <glyph glyph-name="uni025F" unicode="&#x25f;" horiz-adv-x="315" 
d="M6 -215q-27 1 -58 9l8 73q22 -5 41 -5q63 -1 76 79l9 59h-100l14 74h98l79 454h89l-79 -454h91l-13 -74h-91l-8 -63q-8 -67 -46 -110t-110 -42z" />
    <glyph glyph-name="uni0260" unicode="&#x260;" horiz-adv-x="574" 
d="M607 607q-76 3 -91 -88l-85 -508q-14 -99 -80.5 -160.5t-168.5 -58.5q-53 1 -102.5 25t-78.5 68l51 53q50 -71 127 -73q67 -2 109 37t55 101l10 50q-64 -65 -151 -63q-70 2 -107 44.5t-49 104t-6 118.5l1 8q23 159 114 233q52 42 127 41q90 -2 136 -65l11 62
q12 60 53.5 99t107.5 38q17 0 51 -7l-5 -63zM128 175q4 -44 27 -75.5t73 -32.5q45 -1 78 21t58 57l42 241q-29 74 -107 76q-54 2 -89 -27.5t-54.5 -75.5t-26.5 -91q-5 -53 -1 -93z" />
    <glyph glyph-name="uni0261" unicode="&#x261;" horiz-adv-x="549" 
d="M431 11q-14 -99 -80.5 -160.5t-168.5 -58.5q-53 1 -102.5 25t-78.5 68l51 53q49 -70 126 -73q67 -2 109.5 37t55.5 101l10 50q-64 -65 -151 -62q-70 1 -107 44t-49 104t-6 118l1 11q8 65 36.5 128t79.5 103.5t125 38.5q93 -2 139 -69l17 59h81zM128 175q4 -44 27 -75.5
t73 -32.5q45 -1 78 21t58 57l42 241q-29 74 -107 76q-54 2 -89 -27.5t-54.5 -75.5t-26.5 -91q-5 -53 -1 -93z" />
    <glyph glyph-name="uni0262" unicode="&#x262;" horiz-adv-x="583" 
d="M523 268l-29 -191q-38 -51 -110 -69t-131 -17q-100 1 -160.5 67.5t-49.5 166.5l11 80q15 105 93 170.5t184 62.5q85 -1 139.5 -46t58.5 -132h-87q-4 103 -114 105q-71 1 -122.5 -45t-61.5 -114l-13 -81q-8 -64 24.5 -111.5t100.5 -49.5q84 -2 140 36l18 94h-125l13 74
h221z" />
    <glyph glyph-name="uni0263" unicode="&#x263;" horiz-adv-x="528" 
d="M322 -92q-5 -56 -41.5 -87t-92.5 -31q-51 0 -81.5 29.5t-26.5 81.5q2 36 27 80l81 129l-131 418h91l99 -327l211 327h100l-281 -427l36 -115q12 -40 9 -78zM171 -99q-3 -35 25 -35q18 0 28.5 12.5t13.5 28.5q4 26 -3 53l-13 52l-32 -54q-16 -28 -19 -57z" />
    <glyph glyph-name="uni0264" unicode="&#x264;" horiz-adv-x="615" 
d="M402 110q-4 -57 -42 -89t-94 -31q-51 0 -83.5 29.5t-28.5 83.5q4 49 34 94l68 97l-18 50q-15 43 -34 73.5t-47 29.5q-20 0 -35.5 -13t-28.5 -26l-51 57q26 30 59 52t74 21q45 -1 79.5 -39t63.5 -116l49 68q27 37 61.5 63t78.5 25q41 -1 70 -23t53 -53l-61 -56
q-10 15 -22 27.5t-31 13.5q-36 3 -66.5 -26.5t-54 -68t-40.5 -61.5l34 -90q17 -46 13 -92zM246 102q-3 -30 27 -36q39 7 45 42q3 22 -5 46l-16 47l-31 -47q-17 -25 -20 -52z" />
    <glyph glyph-name="uni0265" unicode="&#x265;" horiz-adv-x="534" 
d="M509 528l-127 -731h-89l51 266q-69 -76 -160 -73q-85 2 -114.5 58.5t-22.5 133.5l58 346h88l-58 -347q-5 -47 11.5 -80.5t68.5 -34.5q46 -1 81 24t60 61l64 377h89z" />
    <glyph glyph-name="uni0266" unicode="&#x266;" horiz-adv-x="534" 
d="M300 698q-41 1 -63 -22.5t-28 -60.5l-28 -150q69 74 159 73q85 -2 115 -58.5t22 -133.5l-58 -346h-88l58 348q5 47 -11 80t-69 35q-45 1 -80 -24t-60 -61l-65 -378h-88l104 615q8 64 50.5 107t109.5 43q20 -1 51 -8l-4 -64z" />
    <glyph glyph-name="uni0267" unicode="&#x267;" horiz-adv-x="534" 
d="M340 538q85 -1 115 -58t22 -134l-60 -377q-8 -65 -52 -107.5t-112 -41.5q-18 0 -51 8l6 63q17 -4 28 -5q77 -2 91 85l62 377q5 47 -11 80t-68 35q-46 1 -81 -24t-60 -61l-65 -378h-88l104 615q8 64 50.5 107t109.5 43q20 -1 51 -8l-4 -64l-27 5q-41 1 -63 -22.5
t-28 -60.5l-28 -150q69 74 159 73z" />
    <glyph glyph-name="uni0268" unicode="&#x268;" horiz-adv-x="327" 
d="M307 259h-109l-45 -259h-89l45 259h-105l13 74h105l34 195h89l-34 -195h109zM189 706q14 15 37 15.5t38 -14.5q14 -15 14 -37t-15 -37t-37 -15q-23 -1 -37 13q-15 14 -15 36q0 23 15 39z" />
    <glyph glyph-name="uni0269" unicode="&#x269;" horiz-adv-x="275" 
d="M105 528h88l-66 -392q-3 -32 7.5 -55.5t46.5 -24.5l29 3l-4 -62q-23 -6 -45 -6q-62 1 -94 44t-27 103z" />
    <glyph glyph-name="uni026A" unicode="&#x26a;" horiz-adv-x="325" 
d="M76 454l12 74h231l-13 -74h-72l-66 -380h72l-13 -74h-230l13 74h70l66 380h-70z" />
    <glyph glyph-name="uni026B" unicode="&#x26b;" horiz-adv-x="352" 
d="M326 358q-28 -38 -80 -37q-14 0 -26 3l-56 -324h-89l64 368q-8 2 -17 1q-42 -1 -57 -54l-60 2q5 46 33 85q28 38 80 37q17 0 32 -6l55 317h89l-62 -359h11q42 2 56 55l59 -5q-4 -46 -32 -83z" />
    <glyph glyph-name="uni026C" unicode="&#x26c;" horiz-adv-x="420" 
d="M252 0h-88l48 281h-61q-54 2 -86.5 36t-29.5 88q3 62 49 98t106 36q30 0 62 -11l42 222h88l-69 -395h108l-13 -74h-107zM163 355h62l7 50q2 25 -10.5 41.5t-39.5 16.5q-24 0 -41 -16.5t-21 -40.5q-5 -48 43 -51z" />
    <glyph glyph-name="uni026D" unicode="&#x26d;" horiz-adv-x="315" 
d="M180 750h89l-140 -817q-3 -32 7 -56t47 -24q8 0 28 2l-4 -62q-23 -6 -44 -5q-62 1 -94.5 44t-27.5 102z" />
    <glyph glyph-name="uni026E" unicode="&#x26e;" horiz-adv-x="588" 
d="M264 139h-73l14 78l222 237h-237l-79 -454h-89l130 750h89l-38 -222h344l-11 -62l-243 -258q90 -6 140 -61t43 -147q-9 -104 -85.5 -160t-175.5 -53q-81 1 -136.5 43t-63.5 126l86 -1q6 -48 39 -70.5t80 -23.5q63 -1 112 35t56 101q17 138 -124 142z" />
    <glyph glyph-name="uni026F" unicode="&#x26f;" horiz-adv-x="850" 
d="M651 0l11 58q-66 -70 -160 -68q-43 1 -81 20.5t-53 63.5q-75 -87 -176 -84q-86 2 -119 57t-25 134l58 347h89l-58 -348q-6 -51 13.5 -82.5t74.5 -32.5q50 -1 88 31t49 81l60 351h89l-59 -348q-5 -49 14.5 -81t72.5 -33q83 -2 131 76l67 386h89l-92 -528h-83z" />
    <glyph glyph-name="uni0270" unicode="&#x270;" horiz-adv-x="850" 
d="M826 528l-127 -731h-89l50 259q-65 -67 -158 -66q-43 1 -81 20.5t-53 63.5q-74 -87 -176 -85q-85 2 -118.5 57.5t-25.5 134.5l58 347h89l-58 -348q-6 -51 13.5 -82.5t74.5 -32.5q50 -1 88 31t49 81l60 351h89l-59 -348q-5 -49 14.5 -81t72.5 -33q83 -2 131 76l67 386h89z
" />
    <glyph glyph-name="uni0271" unicode="&#x271;" horiz-adv-x="850" 
d="M647 538q86 -1 120 -56t25 -135l-67 -413q-8 -65 -52 -107t-111 -41q-18 0 -52 7l8 63q14 -4 27 -5q77 -3 92 88l67 410q6 51 -13.5 82t-73.5 32q-50 1 -89 -31t-49 -81l-61 -351h-88l59 348q6 49 -14.5 81t-72.5 33q-83 2 -131 -74l-67 -388h-89l91 528l84 1l-11 -58
q67 69 160 67q44 0 81.5 -20t52.5 -64q74 86 174 84z" />
    <glyph glyph-name="uni0272" unicode="&#x272;" horiz-adv-x="564" 
d="M338 462q-45 1 -79.5 -24t-59.5 -60l-74 -444q-8 -65 -51.5 -107t-111.5 -42q-19 0 -50 7l5 64l28 -5q76 -3 91 86l101 591l83 1l-12 -67q69 77 161 76q85 -1 115 -58t22 -134l-57 -346h-88l58 348q5 47 -11.5 80t-69.5 34z" />
    <glyph glyph-name="uni0273" unicode="&#x273;" horiz-adv-x="565" 
d="M340 538q85 -2 115 -58.5t22 -133.5l-67 -412q-4 -33 6.5 -56.5t47.5 -24.5q14 0 28 3l-4 -63q-23 -6 -44 -5q-62 1 -95 44t-27 102l67 414q5 47 -11 80t-68 34q-46 1 -81 -24t-60 -60l-65 -378h-88l91 528l84 1l-13 -67q70 78 162 76z" />
    <glyph glyph-name="uni0274" unicode="&#x274;" horiz-adv-x="544" 
d="M15 0l92 528h85l171 -391l69 391h87l-91 -528h-85l-171 392l-68 -392h-89z" />
    <glyph glyph-name="uni0275" unicode="&#x275;" horiz-adv-x="551" 
d="M38 255l3 22q11 70 46 130.5t91.5 96.5t132.5 35q74 -2 119 -41.5t63.5 -100t11.5 -126.5l-1 -12q-9 -71 -44 -133t-93 -100t-135 -36q-73 2 -118.5 40.5t-64 98.5t-11.5 126zM306 464q-72 2 -113.5 -49t-60.5 -111h287q3 57 -22.5 107.5t-90.5 52.5zM236 64
q74 -2 115.5 51t60.5 115h-288q-4 -58 20 -111t92 -55z" />
    <glyph glyph-name="uni0276" unicode="&#x276;" horiz-adv-x="813" 
d="M736 73l-13 -73h-297q-44 0 -90.5 -5t-89.5 -4q-74 2 -119 40.5t-63 99t-11 126.5q16 129 91 206t183 76q42 0 88.5 -5.5t91.5 -5.5h308l-13 -73h-281l-26 -151h240l-13 -73h-240l-27 -158h281zM142 257q-5 -41 1 -84.5t31 -74t76 -32.5q29 -1 113 5l72 387l-78 7l-33 1
q-82 0 -127 -64.5t-55 -144.5z" />
    <glyph glyph-name="uni0277" unicode="&#x277;" horiz-adv-x="797" 
d="M730 247q-7 -61 -33 -121t-72 -99t-117 -38q-54 1 -90.5 32.5t-45.5 84.5q-27 -51 -68 -84.5t-102 -32.5q-66 2 -101.5 41.5t-47 96.5t-5.5 112q12 99 69 165.5t141.5 100.5t177.5 32l1 1h1q86 -4 156.5 -37.5t108.5 -97t27 -156.5zM360 325h89l-15 -96q-4 -30 -2 -68
q1 -39 18 -68t59 -30q45 -1 72.5 30t42 74t18.5 79q14 108 -46 162t-164 55q-109 2 -194 -52q-111 -72 -102 -242q2 -41 18.5 -72.5t56.5 -33.5q52 -3 84.5 36t47.5 116z" />
    <glyph glyph-name="uni0278" unicode="&#x278;" horiz-adv-x="553" 
d="M504 259q-13 -100 -72 -174t-161 -91l-37 -197h-88l37 198q-90 22 -122 100t-23 162l1 12q13 99 72 173.5t160 91.5l40 216h88l-40 -217q90 -22 122.5 -100.5t23.5 -161.5zM125 257q-6 -50 4 -106t62 -80l72 387q-62 -22 -94 -75t-42 -115zM417 271q7 50 -3.5 106
t-62.5 80l-72 -388q62 22 95 76.5t43 125.5z" />
    <glyph glyph-name="uni0279" unicode="&#x279;" horiz-adv-x="328" 
d="M126 0l13 61q-55 -74 -133 -72q-18 0 -42 8l11 84q23 -4 41 -5q85 0 133 77l65 375h89l-92 -528h-85z" />
    <glyph glyph-name="uni027A" unicode="&#x27a;" horiz-adv-x="328" 
d="M126 0l13 61q-55 -74 -133 -72q-18 0 -42 8l11 84q23 -4 41 -5q85 0 133 77l104 597h89l-131 -750h-85z" />
    <glyph glyph-name="uni027B" unicode="&#x27b;" horiz-adv-x="357" 
d="M214 528h89l-101 -595q-3 -32 7 -55.5t47 -24.5l28 2l-4 -62q-22 -6 -44 -5q-62 1 -95 44t-27 102l23 126q-54 -72 -131 -71q-18 0 -42 8l11 84q23 -4 41 -5q84 -1 133 77z" />
    </font>
</defs>
</svg>
