<?xml version="1.0" standalone="no"?>
<!DOCTYPE svg PUBLIC "-//W3C//DTD SVG 1.1//EN" "http://www.w3.org/Graphics/SVG/1.1/DTD/svg11.dtd" >
<svg xmlns="http://www.w3.org/2000/svg" xmlns:xlink="http://www.w3.org/1999/xlink" version="1.1">
<metadata>
Created by FontForge 20170731 at Sat Mar 28 19:08:41 2020
 By Aleksey,,,
Copyright 2015 Google LLC. All Rights Reserved.
</metadata>
<defs>
<font id="GoogleSans-Thin" horiz-adv-x="0" >
  <font-face 
    font-family="Google Sans"
    font-weight="100"
    font-stretch="normal"
    units-per-em="1000"
    panose-1="2 11 5 3 3 5 2 4 2 4"
    ascent="800"
    descent="-200"
    x-height="480"
    cap-height="686"
    bbox="-365 -299 3250 1054"
    underline-thickness="84"
    underline-position="-328"
    unicode-range="U+0002-FFFD"
  />
<missing-glyph 
 />
    <glyph glyph-name="G_l_o_g_o_l_i_g_a_t_u_r_e.liga" unicode="Glogoligature" horiz-adv-x="831" 
d="M245.5 37.5q-92.5 53.5 -147 144t-54.5 197.5t54.5 197.5t147 144t199.5 53.5q157 0 260 -98l-58 -58q-79 74 -202 74q-85 0 -156 -42t-112 -114t-41 -157t41 -157t112 -114t156 -42q75 0 127.5 24.5t90.5 61.5q52 53 67 167h-270v82h350q3 -16 3 -55q0 -69 -22 -136
t-71 -116q-105 -110 -275 -110q-107 0 -199.5 53.5z" />
    <glyph glyph-name="e_l_o_g_o_l_i_g_a_t_u_r_e.liga" unicode="elogoligature" horiz-adv-x="480" 
d="M147.5 17q-56.5 33 -88.5 90t-32 126q0 73 31.5 129.5t85 88t117.5 31.5q85 0 137.5 -49.5t74.5 -108.5l7 -17l-355 -146q53 -103 149 -103q88 0 134 67l65 -43q-20 -30 -71.5 -64t-127.5 -34q-70 0 -126.5 33zM382 331q-17 43 -48 61t-69 18q-35 0 -71.5 -20
t-59.5 -58.5t-22 -112.5z" />
    <glyph glyph-name="g_l_o_g_o_l_i_g_a_t_u_r_e.liga" unicode="glogoligature" horiz-adv-x="536" 
d="M122.5 -209q-56.5 44 -74.5 89l73 30q12 -27 49.5 -58t91.5 -31q72 0 114 44.5t42 125.5v53h-26q-23 -29 -56.5 -44.5t-75.5 -15.5q-62 0 -116.5 33t-88 90t-33.5 125q0 69 33.5 126t88.5 90.5t116 33.5q42 0 75.5 -15.5t56.5 -43.5h26v43h80v-459q0 -132 -66 -196
t-170 -64q-83 0 -139.5 44zM349.5 81q36.5 23 56.5 62.5t20 88.5q0 50 -20 89.5t-56.5 63t-79.5 23.5q-44 0 -81 -23t-59 -63.5t-22 -89.5t22 -89t59 -62.5t81 -22.5q43 0 79.5 23z" />
    <glyph glyph-name="l_l_o_g_o_l_i_g_a_t_u_r_e.liga" unicode="llogoligature" horiz-adv-x="157" 
d="M42 746h86v-746h-86v746z" />
    <glyph glyph-name="o_l_o_g_o_l_i_g_a_t_u_r_e.liga" unicode="ologoligature" horiz-adv-x="548" 
d="M146.5 16.5q-57.5 32.5 -91 89.5t-33.5 127q0 71 33.5 128t91 89t125.5 32t125.5 -32t91 -89t33.5 -128q0 -70 -33.5 -127t-91 -89.5t-125.5 -32.5t-125.5 32.5zM353.5 80.5q37.5 22.5 60 62.5t22.5 90t-22.5 90t-60 62.5t-81.5 22.5t-81.5 -22.5t-60 -62.5t-22.5 -90
t22.5 -90t60 -62.5t81.5 -22.5t81.5 22.5z" />
    <glyph glyph-name="f_b.liga" unicode="fb" horiz-adv-x="949" 
d="M587 8.5q-43 24.5 -70 66.5h-27v-75h-51v643h-162q-44 0 -72 -27t-28 -75v-61h131v-47h-131v-433h-55v433h-94v47h94v63q0 67 42.5 107t112.5 40h217v-203l-5 -83h29q25 43 68.5 67.5t97.5 24.5q64 0 116.5 -33t82.5 -91.5t30 -131.5q0 -74 -30 -132t-82.5 -91
t-116.5 -33q-54 0 -97 24.5zM764.5 57q42.5 26 68 74t25.5 109t-25.5 109t-68 74t-90.5 26q-49 0 -91 -26t-67.5 -73.5t-25.5 -109.5t25.5 -109.5t67.5 -73.5t91 -26q48 0 90.5 26z" />
    <glyph glyph-name="f_f.liga" unicode="ff" horiz-adv-x="666" 
d="M122 433h-94v47h94v70q0 44 20 76.5t53.5 50t74.5 17.5q40 0 60 -7v-51q2 -1 -15.5 4t-41.5 5q-39 0 -67.5 -28t-28.5 -76v-61h262v70q0 44 19.5 76.5t53.5 50t75 17.5q38 0 60 -8v-50l-17 4q-17 5 -41 5q-39 0 -67 -28t-28 -76v-61h131v-47h-131v-433h-55v433h-262v-433
h-55v433z" />
    <glyph glyph-name="f_f_b.liga" unicode="ffb" horiz-adv-x="1265" 
d="M903.5 8.5q-42.5 24.5 -69.5 66.5h-27v-75h-51v643h-163q-44 0 -72 -27t-28 -75v-61h131v-47h-131v-433h-54v433h-262v-433h-55v433h-94v47h94v70q0 44 20 76.5t53.5 50t74.5 17.5q40 0 60 -7v-51q2 -1 -15.5 4t-41.5 5q-39 0 -67.5 -28t-28.5 -76v-61h262v63
q0 67 42.5 107t111.5 40h218v-203l-5 -83h28q27 43 69.5 67.5t96.5 24.5q65 0 117 -33t82 -91.5t30 -131.5q0 -74 -30 -132t-82 -91t-117 -33q-54 0 -96.5 24.5zM1081.5 57q42.5 26 67.5 73.5t25 109.5t-25 109.5t-67.5 73.5t-90.5 26q-49 0 -91 -26t-67.5 -73.5
t-25.5 -109.5t25.5 -109.5t67.5 -73.5t91 -26q48 0 90.5 26z" />
    <glyph glyph-name="f_f_h.liga" unicode="ffh" horiz-adv-x="1226" 
d="M122 433h-94v47h94v70q0 44 20 76.5t53.5 50t74.5 17.5q40 0 60 -7v-51q2 -1 -15.5 4t-41.5 5q-39 0 -67.5 -28t-28.5 -76v-61h262v63q0 67 42.5 107t111.5 40h217v-200l-5 -85h29q23 43 65 67t92 24q86 0 131 -50t45 -134v-312h-55v299q0 75 -39.5 112.5t-101.5 37.5
q-45 0 -82 -26.5t-58 -67.5t-21 -86v-269h-55v643h-162q-44 0 -72 -27t-28 -75v-61h131v-47h-131v-433h-54v433h-262v-433h-55v433z" />
    <glyph glyph-name="f_f_i.liga" unicode="ffi" horiz-adv-x="880" 
d="M122 433h-94v47h94v70q0 44 20 76.5t53.5 50t74.5 17.5q40 0 60 -7v-51q2 -1 -15.5 4t-41.5 5q-39 0 -67.5 -28t-28.5 -76v-61h262v70q0 44 19.5 76.5t53.5 50t75 17.5q38 0 60 -8v-50l-17 4q-17 5 -41 5q-39 0 -67.5 -28t-28.5 -76v-61h317v-480h-55v433h-262v-433h-54
v433h-262v-433h-55v433zM750 611.5q-13 13.5 -13 32.5t13 32.5t32 13.5q20 0 33 -13t13 -33q0 -19 -13 -32.5t-33 -13.5q-19 0 -32 13.5z" />
    <glyph glyph-name="f_f_j.liga" unicode="ffj" horiz-adv-x="880" 
d="M654 -223v43q-13 8 1.5 4.5t26.5 -3.5q39 0 56 24.5t17 67.5v520h-262v-433h-54v433h-262v-433h-55v433h-94v47h94v70q0 44 20 76.5t53.5 50t74.5 17.5q40 0 60 -7v-51q2 -1 -15.5 4t-41.5 5q-39 0 -67.5 -28t-28.5 -76v-61h262v70q0 44 19.5 76.5t53.5 50t75 17.5
q38 0 60 -8v-50l-17 4q-17 5 -41 5q-39 0 -67.5 -28t-28.5 -76v-61h317v-567q0 -71 -32.5 -105t-93.5 -34q-20 0 -30 3zM750 611.5q-13 13.5 -13 32.5t13 32.5t32 13.5q20 0 33 -13t13 -33q0 -19 -13 -32.5t-33 -13.5q-19 0 -32 13.5z" />
    <glyph glyph-name="f_f_k.liga" unicode="ffk" horiz-adv-x="1167" 
d="M122 433h-94v47h94v70q0 44 20 76.5t53.5 50t74.5 17.5q40 0 60 -7v-51q2 -1 -15.5 4t-41.5 5q-39 0 -67.5 -28t-28.5 -76v-61h262v63q0 67 42.5 107t111.5 40h217v-476l261 266h87v17l-204 -206l210 -307v16h-79l-170 254l-105 -106v-148h-55v643h-162q-44 0 -72 -27
t-28 -75v-61h131v-47h-131v-433h-54v433h-262v-433h-55v433z" />
    <glyph glyph-name="f_f_l.liga" unicode="ffl" horiz-adv-x="873" 
d="M122 433h-94v47h94v70q0 44 20 76.5t53.5 50t74.5 17.5q40 0 60 -7v-51q2 -1 -15.5 4t-41.5 5q-39 0 -67.5 -28t-28.5 -76v-61h262v63q0 67 42.5 107t111.5 40h217v-690h-55v643h-162q-44 0 -72 -27t-28 -75v-61h131v-47h-131v-433h-54v433h-262v-433h-55v433z" />
    <glyph glyph-name="f_f_t.liga" unicode="fft" horiz-adv-x="974" 
d="M830 1q-24 9 -40 24q-17 17 -26 39t-9 55v314h-262v-433h-54v433h-262v-433h-55v433h-94v47h94v70q0 44 20 76.5t53.5 50t74.5 17.5q40 0 60 -7v-51q2 -1 -15.5 4t-41.5 5q-39 0 -67.5 -28t-28.5 -76v-61h262v70q0 44 19.5 76.5t53.5 50t75 17.5q38 0 60 -8v-50l-17 4
q-17 5 -41 5q-39 0 -67.5 -28t-28.5 -76v-61h262v144h55v-144h124v-47h-124v-293q0 -47 19 -72q24 -27 67 -27q33 0 41 5v-46q-6 -3 -19 -5.5t-36 -2.5q-28 0 -52 9z" />
    <glyph glyph-name="f_h.liga" unicode="fh" horiz-adv-x="910" 
d="M122 433h-94v47h94v63q0 67 42.5 107t112.5 40h217v-200l-5 -85h29q24 43 66 67t92 24q86 0 130.5 -50t44.5 -134v-312h-54v299q0 75 -39.5 112.5t-101.5 37.5q-46 0 -83 -26.5t-58 -67.5t-21 -86v-269h-55v643h-162q-44 0 -72 -27t-28 -75v-61h131v-47h-131v-433h-55
v433z" />
    <glyph glyph-name="f_i.liga" unicode="fi" horiz-adv-x="564" 
d="M433.5 617.5q-13.5 13.5 -13.5 32.5q0 20 13.5 33t32.5 13q20 0 33 -13t13 -33q0 -19 -13 -32.5t-33 -13.5q-19 0 -32.5 13.5zM122 433h-94v47h94v70q0 44 20 76.5t53.5 50t74.5 17.5q40 0 60 -7v-51q2 -1 -15.5 4t-41.5 5q-39 0 -67.5 -28t-28.5 -76v-61h317v-480h-55
v433h-262v-433h-55v433z" />
    <glyph glyph-name="f_j.liga" unicode="fj" horiz-adv-x="564" 
d="M433.5 617.5q-13.5 13.5 -13.5 32.5q0 20 13.5 33t32.5 13q20 0 33 -13t13 -33q0 -19 -13 -32.5t-33 -13.5q-19 0 -32.5 13.5zM338 -223v43q-13 8 1 4.5t26 -3.5q39 0 56.5 24.5t17.5 67.5v520h-262v-433h-55v433h-94v47h94v70q0 44 20 76.5t53.5 50t74.5 17.5
q40 0 60 -7v-51q2 -1 -15.5 4t-41.5 5q-39 0 -67.5 -28t-28.5 -76v-61h317v-567q0 -71 -33 -105t-93 -34q-22 0 -30 3z" />
    <glyph glyph-name="f_k.liga" unicode="fk" horiz-adv-x="851" 
d="M122 433h-94v47h94v63q0 67 42.5 107t112.5 40h217v-476l262 266h87v17l-204 -206l209 -307v16h-78l-170 253l-106 -105v-148h-55v643h-162q-44 0 -72 -27t-28 -75v-61h131v-47h-131v-433h-55v433z" />
    <glyph glyph-name="f_l.liga" unicode="fl" horiz-adv-x="557" 
d="M122 433h-94v47h94v63q0 67 42.5 107t112.5 40h217v-690h-55v643h-162q-44 0 -72 -27t-28 -75v-61h131v-47h-131v-433h-55v433z" />
    <glyph glyph-name="f_t.liga" unicode="ft" horiz-adv-x="658" 
d="M514 1q-24 9 -40 24q-35 33 -35 94v314h-262v-433h-55v433h-94v47h94v70q0 44 20 76.5t53.5 50t74.5 17.5q40 0 60 -7v-51q2 -1 -15.5 4t-41.5 5q-39 0 -67.5 -28t-28.5 -76v-61h262v144h55v-144h125v-47h-125v-293q0 -48 20 -72q23 -27 66 -27q36 0 41 4v-45
q-5 -3 -18.5 -5.5t-36.5 -2.5q-28 0 -52 9z" />
    <glyph glyph-name="r_f.liga" unicode="rf" horiz-adv-x="726" 
d="M499 433h-95v47h95v70q0 44 20 76.5t53.5 50t74.5 17.5q40 0 60 -7v-51l-17 4q-17 5 -40 5q-40 0 -68 -28t-28 -76v-61h130v-47h-130v-433h-55v433zM63 480h51v-81h29q20 50 59 72.5t87 22.5h21v-56h-31q-71 0 -116 -47.5t-45 -122.5v-268h-55v480z" />
    <glyph glyph-name="r_f_f.liga" unicode="rff" horiz-adv-x="1065" 
d="M63 480h51v-81h29q20 50 59 72.5t87 22.5h21v-56h-31q-71 0 -116 -47.5t-45 -122.5v-268h-55v480zM491 433h-94v47h94v70q0 44 20 76.5t53.5 50t74.5 17.5q40 0 60 -7v-51q2 -1 -15.5 4t-41.5 5q-39 0 -67.5 -28t-28.5 -76v-61h262v70q0 44 19.5 76.5t53.5 50t75 17.5
q38 0 60 -8v-50l-17 4q-17 5 -41 5q-39 0 -67 -28t-28 -76v-61h131v-47h-131v-433h-55v433h-262v-433h-55v433z" />
    <glyph glyph-name="r_t.liga" unicode="rt" horiz-adv-x="715" 
d="M571 1q-24 9 -40 24q-35 33 -35 94v314h-89v47h89v144h55v-144h125v-47h-125v-293q0 -47 19 -72q24 -27 67 -27q36 0 41 4v-45q-5 -3 -18.5 -5.5t-36.5 -2.5q-28 0 -52 9zM63 480h51v-81h29q20 50 59 72.5t87 22.5h21v-56h-31q-71 0 -116 -47.5t-45 -122.5v-268h-55v480z
" />
    <glyph glyph-name="t_f.liga" unicode="tf" horiz-adv-x="661" 
d="M192 1q-24 9 -40 24q-35 33 -35 94v314h-89v47h89v144h55v-144h262v70q0 44 19.5 76.5t53.5 50t75 17.5q38 0 60 -8v-50l-17 4q-17 5 -41 5q-39 0 -67.5 -28t-28.5 -76v-61h131v-47h-131v-433h-54v433h-262v-293q0 -47 19 -72q24 -27 67 -27q36 0 41 4v-45
q-5 -3 -18.5 -5.5t-36.5 -2.5q-28 0 -52 9z" />
    <glyph glyph-name="t_t.liga" unicode="tt" horiz-adv-x="650" 
d="M192 1q-24 9 -40 24q-35 33 -35 94v314h-89v47h89v144h55v-144h260v144h54v-144h125v-47h-125v-293q0 -48 21 -72q23 -27 66 -27q35 0 40 4v-45q-5 -3 -18 -5.5t-36 -2.5q-28 0 -52.5 9t-40.5 24q-17 16 -25.5 39t-8.5 55v314h-260v-293q0 -47 19 -72q24 -27 67 -27
q36 0 41 4v-45q-5 -3 -18.5 -5.5t-36.5 -2.5q-28 0 -52 9z" />
    <glyph glyph-name="G_o_o_g_l_e_l_o_g_o_l_i_g_a_t_u_r_e.liga" unicode="Googlelogoligature" horiz-adv-x="3250" 
d="M245.5 37.5q-92.5 53.5 -147 144t-54.5 197.5t54.5 197.5t147 144t199.5 53.5q157 0 260 -98l-58 -58q-79 74 -202 74q-85 0 -156 -42t-112 -114t-41 -157t41 -157t112 -114t156 -42q75 0 127.5 24.5t90.5 61.5q52 53 67 167h-270v82h350q3 -16 3 -55q0 -69 -22 -136
t-71 -116q-105 -110 -275 -110q-107 0 -199.5 53.5zM2625 746h86v-746h-86v746zM1007.5 16.5q-57.5 32.5 -91 89.5t-33.5 127q0 71 33.5 128t91 89t125.5 32t125.5 -32t91 -89t33.5 -128q0 -70 -33.5 -127t-91 -89.5t-125.5 -32.5t-125.5 32.5zM1585.5 16.5
q-57.5 32.5 -91 89.5t-33.5 127q0 71 33.5 128t91 89t125.5 32t125.5 -32t91 -89t33.5 -128q0 -70 -33.5 -127t-91 -89.5t-125.5 -32.5t-125.5 32.5zM2139.5 -209q-56.5 44 -74.5 89l73 30q12 -27 49.5 -58t91.5 -31q72 0 114 44.5t42 125.5v53h-26q-23 -29 -56.5 -44.5
t-75.5 -15.5q-62 0 -116.5 33t-88 90t-33.5 125q0 69 33.5 126t88.5 90.5t116 33.5q42 0 75.5 -15.5t56.5 -43.5h26v43h80v-459q0 -132 -66 -196t-170 -64q-83 0 -139.5 44zM2917.5 17q-56.5 33 -88.5 90t-32 126q0 73 31.5 129.5t85 88t117.5 31.5q85 0 137.5 -49.5
t74.5 -108.5l7 -17l-355 -146q53 -103 149 -103q88 0 134 67l65 -43q-20 -30 -71.5 -64t-127.5 -34q-70 0 -126.5 33zM3152 331q-17 43 -48 61t-69 18q-35 0 -71.5 -20t-59.5 -58.5t-22 -112.5zM1214.5 80.5q37.5 22.5 60 62.5t22.5 90t-22.5 90t-60 62.5t-81.5 22.5
t-81.5 -22.5t-60 -62.5t-22.5 -90t22.5 -90t60 -62.5t81.5 -22.5t81.5 22.5zM1792.5 80.5q37.5 22.5 60 62.5t22.5 90t-22.5 90t-60 62.5t-81.5 22.5t-81.5 -22.5t-60 -62.5t-22.5 -90t22.5 -90t60 -62.5t81.5 -22.5t81.5 22.5zM2366.5 81q36.5 23 56.5 62.5t20 88.5
q0 50 -20 89.5t-56.5 63t-79.5 23.5q-44 0 -81 -23t-59 -63.5t-22 -89.5t22 -89t59 -62.5t81 -22.5q43 0 79.5 23z" />
    <glyph glyph-name=".notdef" 
 />
    <glyph glyph-name=".null" 
 />
    <glyph glyph-name="nonmarkingreturn" horiz-adv-x="333" 
 />
    <glyph glyph-name="uni0002" 
 />
    <glyph glyph-name="space" unicode=" " horiz-adv-x="232" 
 />
    <glyph glyph-name="exclam" unicode="!" horiz-adv-x="208" 
d="M77 458v228h54v-228l-9 -247h-37zM69 8q-14 14 -14 35q0 20 14 34t35 14t35 -14t14 -34q0 -21 -14 -35t-35 -14t-35 14z" />
    <glyph glyph-name="quotedbl" unicode="&#x22;" horiz-adv-x="293" 
d="M51 686h47v-191h-47v191zM194 686h47v-191h-47v191z" />
    <glyph glyph-name="numbersign" unicode="#" horiz-adv-x="605" 
d="M153 206h-123l7 40h123l25 171h-124l6 40h124l29 197h45l-30 -197h172l29 197h45l-30 -197h123l-6 -40h-123l-25 -171h124l-6 -40h-125l-30 -206h-45l31 206h-172l-30 -206h-45zM376 246l25 171h-172l-25 -171h172z" />
    <glyph glyph-name="dollar" unicode="$" horiz-adv-x="509" 
d="M414 42.5q-49 -45.5 -136 -57.5v-85h-40v84q-80 9 -136 54t-72 106l48 19q11 -38 50.5 -77t109.5 -52v280l-13 4q-86 35 -129 78.5t-43 107.5q0 40 20 76t59 60t106 30v84h40v-85q78 -12 118 -48.5t49 -65.5l-48 -20q-5 16 -31 42.5t-88 40.5v-264q95 -40 140 -81
t45 -108q0 -77 -49 -122.5zM135.5 432q27.5 -29 102.5 -63v251q-67 -11 -98.5 -41.5t-31.5 -74.5q0 -43 27.5 -72zM377.5 81q31.5 32 31.5 82q0 43 -28 72t-103 62v-261q68 13 99.5 45z" />
    <glyph glyph-name="percent" unicode="%" horiz-adv-x="797" 
d="M117 379.5q-36 21.5 -56.5 57.5t-20.5 77t20.5 77t56.5 57.5t78 21.5t77.5 -21.5t56.5 -57.5t21 -77t-21 -77t-56.5 -57.5t-77.5 -21.5t-78 21.5zM170 17l428 638l28 -19l-427 -637zM278 426q33 36 33 88q0 53 -33 88.5t-83 35.5q-49 0 -83 -35.5t-34 -88.5
q0 -52 33.5 -88t83.5 -36t83 36zM525 5.5q-36 21.5 -56.5 57.5t-20.5 77t20.5 77t56.5 57.5t78 21.5t77.5 -21.5t56.5 -57.5t21 -77t-21 -77t-56.5 -57.5t-77.5 -21.5t-78 21.5zM686 52q33 36 33 88q0 53 -33 88.5t-83 35.5q-49 0 -83 -35.5t-34 -88.5q0 -52 33.5 -88
t83.5 -36t83 36z" />
    <glyph glyph-name="ampersand" unicode="&#x26;" horiz-adv-x="592" 
d="M483 105l65 -85l-40 -30l-52 68q-78 -74 -169 -74q-67 0 -122.5 31t-88 85t-32.5 120q0 59 31.5 112t102.5 97l-14 14q-24 32 -36 58t-12 53q0 40 21 74t56.5 54t77.5 20q55 0 92 -31.5t49 -67.5l-47 -24q-24 72 -94 72q-43 0 -71.5 -27t-28.5 -70q0 -42 28 -78l255 -333
l69 119l41 -24zM426 98l-221 291q-58 -31 -86 -75t-28 -93q0 -54 26 -97.5t71 -68t99 -24.5q80 0 139 67z" />
    <glyph glyph-name="quotesingle" unicode="'" horiz-adv-x="150" 
d="M51 686h47v-191h-47v191z" />
    <glyph glyph-name="parenleft" unicode="(" horiz-adv-x="286" 
d="M114.5 58q-51.5 117 -51.5 249t51.5 249t113.5 189l38 -27q-59 -70 -104 -182t-45 -229t45 -229t104 -182l-38 -27q-62 72 -113.5 189z" />
    <glyph glyph-name="parenright" unicode=")" horiz-adv-x="286" 
d="M20 -104q59 70 104 182t45 229t-45 229t-104 182l38 27q62 -72 113.5 -189t51.5 -249t-51.5 -249t-113.5 -189z" />
    <glyph glyph-name="asterisk" unicode="*" horiz-adv-x="389" 
d="M79 406l71 97l-5 23l-106 35l13 39l101 -36l21 7v115h41v-114l20 -8l102 36l13 -39l-105 -35l-8 -22l73 -98l-34 -24l-70 97h-23l-70 -97z" />
    <glyph glyph-name="plus" unicode="+" horiz-adv-x="528" 
d="M466 236h-182v-182h-40v182h-182v40h182v182h40v-182h182v-40z" />
    <glyph glyph-name="comma" unicode="," horiz-adv-x="205" 
d="M51 -94l58 90q-35 6 -46 18t-11 29q0 20 14 34t35 14t35 -14t14 -34q0 -14 -6 -27.5t-19 -32.5l-58 -87z" />
    <glyph glyph-name="hyphen" unicode="-" horiz-adv-x="411" 
d="M62 315h287v-40h-287v40z" />
    <glyph glyph-name="period" unicode="." horiz-adv-x="208" 
d="M69 8q-14 14 -14 35q0 20 14 34t35 14t35 -14t14 -34q0 -21 -14 -35t-35 -14t-35 14z" />
    <glyph glyph-name="slash" unicode="/" horiz-adv-x="260" 
d="M211 686h47l-209 -686h-47z" />
    <glyph glyph-name="zero" unicode="0" horiz-adv-x="615" 
d="M172 28.5q-59 44.5 -91 123t-32 175.5t32 175.5t90.5 123t135.5 44.5t135.5 -44.5t91 -123t32.5 -175.5t-32.5 -175t-91.5 -123t-135 -45t-135 44.5zM415.5 74.5q45.5 39.5 69.5 105.5t24 147t-24 147t-69.5 105.5t-108.5 39.5t-108.5 -39.5t-69 -105.5t-23.5 -147
t23.5 -147t69 -105.5t108.5 -39.5t108.5 39.5z" />
    <glyph glyph-name="one" unicode="1" horiz-adv-x="344" 
d="M203 579l-131 -94l-27 40l179 129h34v-654h-55v579z" />
    <glyph glyph-name="two" unicode="2" horiz-adv-x="496" 
d="M45 64q192 193 247 253q52 56 71.5 89.5t19.5 81.5q0 33 -17 63.5t-50 49t-78 18.5q-60 0 -96.5 -35t-43.5 -60l-49 20q5 16 29 48t65 55t97 23q59 0 104 -25t70 -66.5t25 -89.5q0 -99 -106 -206l-230 -232h344v-51h-402v64z" />
    <glyph glyph-name="three" unicode="3" horiz-adv-x="502" 
d="M161 1q-42 17 -76.5 53t-45.5 77l49 21q13 -47 55.5 -82t99.5 -35q42 0 78 18t58 51t22 74q0 40 -22 72.5t-59 50.5t-80 18h-44v49h38q61 0 102.5 35.5t41.5 94.5q0 55 -41 88t-99 33t-91 -30.5t-42 -57.5l-50 21q12 37 59.5 77.5t123.5 40.5q56 0 101 -22.5t70 -61.5
t25 -88q0 -48 -24.5 -81.5t-69.5 -57.5v-23q57 -23 87 -63t30 -94q0 -56 -28 -100.5t-77.5 -69.5t-108.5 -25q-40 0 -82 17z" />
    <glyph glyph-name="four" unicode="4" horiz-adv-x="563" 
d="M373 147h-328v44l313 463h69v-457h88v-50h-88v-147h-54v147zM373 197v363h-27l-247 -363h274z" />
    <glyph glyph-name="five" unicode="5" horiz-adv-x="530" 
d="M167 3q-44 19 -77.5 58t-44.5 84l47 19q13 -49 56.5 -89t105.5 -40q73 0 120 45.5t47 117.5q0 71 -46.5 118t-118.5 47q-40 0 -75 -18t-50 -40l-65 28l41 321h326v-51h-282l-31 -233l25 -6q55 46 126 46q55 0 102 -27t75 -75.5t28 -108.5t-28.5 -109t-78.5 -77.5
t-113 -28.5q-45 0 -89 19z" />
    <glyph glyph-name="six" unicode="6" horiz-adv-x="527" 
d="M150 15q-50 31 -77.5 80t-27.5 103q0 52 21.5 100.5t62.5 109.5l171 256l43 -30l-171 -239l20 -19q42 28 90 28t94.5 -27t76 -74t29.5 -105q0 -56 -30 -105t-80 -79t-108 -30q-64 0 -114 31zM345.5 56.5q37.5 21.5 59.5 58.5t22 82q0 44 -22 81t-59.5 58.5t-81.5 21.5
t-82 -21.5t-60 -58.5t-22 -81q0 -45 22 -82t60 -58.5t82 -21.5t81.5 21.5z" />
    <glyph glyph-name="seven" unicode="7" horiz-adv-x="499" 
d="M83 14l323 589h-361v51h410v-68l-323 -597z" />
    <glyph glyph-name="eight" unicode="8" horiz-adv-x="521" 
d="M150 9.5q-50 25.5 -77.5 68t-27.5 95.5t29 93t85 68v21q-44 27 -67.5 63t-23.5 75q0 50 24.5 90.5t68.5 63.5t100 23q55 0 99 -23t68.5 -63.5t24.5 -90.5q0 -39 -23.5 -75t-66.5 -63v-21q56 -28 85 -68t29 -93t-28 -95.5t-78 -68t-110 -25.5q-61 0 -111 25.5zM358.5 403
q38.5 35 38.5 92t-39 90.5t-97 33.5q-59 0 -98 -33.5t-39 -90.5t39 -92t98 -35t97.5 35zM374 74.5q46 39.5 46 103.5q0 62 -46 101.5t-113 39.5q-66 0 -113 -39.5t-47 -101.5q0 -64 47 -103.5t113 -39.5q67 0 113 39.5z" />
    <glyph glyph-name="nine" unicode="9" horiz-adv-x="527" 
d="M184 20l171 239l-20 19q-42 -28 -90 -28t-94.5 27t-76 74t-29.5 105q0 56 29.5 105t79.5 79t109 30q64 0 114 -31t77.5 -80t27.5 -103q0 -52 -21.5 -100.5t-62.5 -109.5l-171 -256zM345 317.5q38 21.5 60 58.5t22 81q0 45 -22 82t-60 58.5t-82 21.5t-81.5 -21.5
t-59.5 -58.5t-22 -82q0 -44 22 -81t59.5 -58.5t81.5 -21.5t82 21.5z" />
    <glyph glyph-name="colon" unicode=":" horiz-adv-x="208" 
d="M69 402q-14 14 -14 35t14 35t35 14t35 -14t14 -35t-14 -35t-35 -14t-35 14zM69 8q-14 14 -14 35q0 20 14 34t35 14t35 -14t14 -34q0 -21 -14 -35t-35 -14t-35 14z" />
    <glyph glyph-name="semicolon" unicode=";" horiz-adv-x="211" 
d="M70 402q-14 14 -14 35t14 35t35 14t35 -14t14 -35t-14 -35t-35 -14t-35 14zM57 -78l58 90q-35 6 -46 18t-11 29q0 20 14 34t35 14t35 -14t14 -34q0 -14 -6 -27.5t-19 -32.5l-58 -87z" />
    <glyph glyph-name="less" unicode="&#x3c;" horiz-adv-x="467" 
d="M55 234v44l353 169v-44l-294 -135v-24l294 -135v-44z" />
    <glyph glyph-name="equal" unicode="=" horiz-adv-x="538" 
d="M61 419h416v-40h-416v40zM61 229h416v-40h-416v40z" />
    <glyph glyph-name="greater" unicode="&#x3e;" horiz-adv-x="467" 
d="M59 109l293 135v24l-293 135v44l353 -169v-44l-353 -169v44z" />
    <glyph glyph-name="question" unicode="?" horiz-adv-x="470" 
d="M197 244q0 46 17.5 76.5t64.5 74.5q41 37 60.5 65t19.5 69q0 54 -35.5 88t-96.5 34q-56 0 -89 -32t-44 -62l-50 21q15 41 62 82.5t121 41.5q56 0 98.5 -22.5t66 -62t23.5 -88.5q0 -50 -25.5 -86t-67.5 -74q-35 -32 -51.5 -61.5t-16.5 -69.5v-27h-57v33zM191 8
q-14 14 -14 35q0 20 14 34t35 14q20 0 34 -14t14 -34q0 -21 -14 -35t-34 -14q-21 0 -35 14z" />
    <glyph glyph-name="at" unicode="@" horiz-adv-x="854" 
d="M238 -32q-86 50 -135.5 135t-49.5 186t49.5 186t136 135t190.5 50t189 -50t134 -135t49 -186q0 -87 -35 -140t-98 -53q-32 0 -57.5 18t-51.5 74q-36 -57 -69.5 -74.5t-75.5 -17.5q-49 0 -90 24t-64.5 67t-23.5 98q0 54 24 97.5t64 67.5t87 24q36 0 66.5 -15t57.5 -47h26
v48h37v-246q0 -34 19 -61t57 -27q52 0 71 50.5t19 112.5q0 92 -45 168.5t-121.5 121t-168.5 44.5t-169 -44.5t-122 -121t-45 -168.5t45 -168.5t122 -121t169 -44.5q75 0 119 22l15 -34q-53 -25 -134 -25q-105 0 -191 50zM520 177q41 41 41 108t-41 108t-99 41t-99.5 -41.5
t-41.5 -107.5t41.5 -107.5t99.5 -41.5t99 41z" />
    <glyph glyph-name="A" unicode="A" horiz-adv-x="626" 
d="M275 686h76l260 -686h-61l-72 197h-330l-72 -197h-61zM461 247l-104 278l-31 87h-26l-31 -87l-104 -278h296z" />
    <glyph glyph-name="B" unicode="B" horiz-adv-x="576" 
d="M80 686h242q50 0 94 -23t70 -63.5t26 -91.5q0 -47 -24 -82.5t-74 -58.5v-25q60 -20 91 -60t31 -94t-27.5 -97t-73.5 -67t-99 -24h-256v686zM322 377q40 0 71 18.5t48 48.5t17 62q0 31 -16.5 61t-46.5 49t-69 19h-191v-258h187zM341 51q40 0 72 20t49.5 52t17.5 66t-18 66
t-50.5 51.5t-74.5 19.5h-202v-275h206z" />
    <glyph glyph-name="C" unicode="C" horiz-adv-x="706" 
d="M219.5 31q-81.5 47 -128 129t-46.5 183t46.5 183t128 129t181.5 47q77 0 140.5 -28.5t100.5 -72.5l-39 -38q-33 39 -84.5 63.5t-117.5 24.5q-82 0 -150.5 -38.5t-109 -108.5t-40.5 -161t40.5 -161t109 -108.5t150.5 -38.5q137 0 222 100l41 -39q-38 -46 -108.5 -79
t-154.5 -33q-100 0 -181.5 47z" />
    <glyph glyph-name="D" unicode="D" horiz-adv-x="673" 
d="M80 686h201q106 0 184.5 -43.5t120.5 -121t42 -178.5t-42 -178.5t-120.5 -121t-184.5 -43.5h-201v686zM281 51q133 0 212 77.5t79 214.5t-79 214.5t-212 77.5h-146v-584h146z" />
    <glyph glyph-name="E" unicode="E" horiz-adv-x="521" 
d="M80 686h384v-51h-329v-267h297v-50h-297v-267h329v-51h-384v686z" />
    <glyph glyph-name="F" unicode="F" horiz-adv-x="501" 
d="M80 686h384v-51h-329v-275h297v-50h-297v-310h-55v686z" />
    <glyph glyph-name="G" unicode="G" horiz-adv-x="783" 
d="M222.5 31q-81.5 47 -129.5 129.5t-48 182.5t48 182.5t129.5 129.5t178.5 47q76 0 142.5 -27t100.5 -64l-39 -40q-27 32 -83 56t-120 24q-79 0 -148.5 -38.5t-111 -108.5t-41.5 -161t41.5 -161t111 -108.5t148.5 -38.5q75 0 126.5 24t88.5 63q28 30 45 71.5t22 108.5h-266
v49h316q3 -14 3 -37q0 -64 -20 -123.5t-64 -104.5q-95 -102 -252 -102q-97 0 -178.5 47z" />
    <glyph glyph-name="H" unicode="H" horiz-adv-x="668" 
d="M80 686h55v-309h398v309h55v-686h-55v326h-398v-326h-55v686z" />
    <glyph glyph-name="I" unicode="I" horiz-adv-x="215" 
d="M80 686h55v-686h-55v686z" />
    <glyph glyph-name="J" unicode="J" horiz-adv-x="497" 
d="M100 24.5q-55 40.5 -74 101.5l52 22q35 -113 151 -113q66 0 105.5 45.5t39.5 118.5v487h55v-480q0 -71 -25.5 -121t-70.5 -75.5t-104 -25.5q-74 0 -129 40.5z" />
    <glyph glyph-name="K" unicode="K" horiz-adv-x="596" 
d="M80 686h55v-377h26l322 377h72l-254 -294l277 -392h-69l-245 350l-129 -149v-201h-55v686z" />
    <glyph glyph-name="L" unicode="L" horiz-adv-x="479" 
d="M80 686h55v-635h313v-51h-368v686z" />
    <glyph glyph-name="M" unicode="M" horiz-adv-x="836" 
d="M80 686h98l228 -587h24l228 587h98v-686h-54v440l4 151h-29l-234 -591h-50l-234 591h-29l4 -151v-440h-54v686z" />
    <glyph glyph-name="N" unicode="N" horiz-adv-x="678" 
d="M80 686h81l359 -570h27l-4 153v417h55v-686h-65l-375 597h-27l4 -153v-444h-55v686z" />
    <glyph glyph-name="O" unicode="O" horiz-adv-x="794" 
d="M217.5 32q-80.5 48 -126.5 130.5t-46 180.5t46 180.5t126.5 130.5t179.5 48t179.5 -48t126.5 -130.5t46 -180.5t-46 -180.5t-126.5 -130.5t-179.5 -48t-179.5 48zM546 74.5q68 39.5 107.5 109.5t39.5 159t-39.5 159t-107.5 109.5t-149 39.5t-149 -39.5t-107.5 -109.5
t-39.5 -159t39.5 -159t107.5 -109.5t149 -39.5t149 39.5z" />
    <glyph glyph-name="P" unicode="P" horiz-adv-x="546" 
d="M80 686h226q56 0 103.5 -25t76 -70t28.5 -102t-28.5 -102t-76 -70t-103.5 -25h-171v-292h-55v686zM308 343q44 0 78 21t53 54.5t19 70.5t-19 70.5t-53 54.5t-78 21h-173v-292h173z" />
    <glyph glyph-name="Q" unicode="Q" horiz-adv-x="794" 
d="M577 32q-90 -48 -180 -48q-99 0 -179.5 48t-126.5 130t-46 181q0 98 46 180.5t126.5 130.5t179.5 48t179.5 -48t126.5 -130.5t46 -180.5q0 -83 -31.5 -154t-100.5 -129l49 -73l-41 -26zM548 75l-88 132l41 28l87 -131q57 53 81 111.5t24 127.5q0 89 -39.5 159
t-107.5 109.5t-149 39.5t-149 -39.5t-107.5 -109.5t-39.5 -159q0 -88 40 -158.5t107.5 -110t148.5 -39.5q71 0 151 40z" />
    <glyph glyph-name="R" unicode="R" horiz-adv-x="556" 
d="M80 686h227q55 0 102.5 -25t76 -70t28.5 -102q0 -46 -21 -86t-57.5 -67t-87.5 -38l-11 -16l205 -298v16h-77l-195 292h-135v-292h-55v686zM302 341q41 0 76.5 19t57.5 53t22 76q0 37 -19 70.5t-53 54.5t-78 21h-173v-294h167z" />
    <glyph glyph-name="S" unicode="S" horiz-adv-x="529" 
d="M163.5 5q-47.5 21 -84 62t-49.5 87l53 22q14 -52 63.5 -96.5t117.5 -44.5q67 0 115 37.5t48 102.5q0 57 -40 92.5t-126 64.5l-45 16q-73 26 -117.5 67t-44.5 112q0 47 25.5 87t72.5 64t105 24t101 -21.5t69 -52t31 -47.5l-50 -22q-8 26 -47.5 59t-102.5 33
q-60 0 -104 -35t-44 -89q0 -49 37 -78.5t106 -53.5l47 -16q88 -32 135.5 -78t47.5 -125q0 -64 -32.5 -107.5t-83.5 -64t-105 -20.5q-51 0 -98.5 21z" />
    <glyph glyph-name="T" unicode="T" horiz-adv-x="508" 
d="M227 635h-201v51h456v-51h-200v-635h-55v635z" />
    <glyph glyph-name="U" unicode="U" horiz-adv-x="623" 
d="M181.5 17.5q-56.5 33.5 -87.5 93.5t-31 139v436h55v-440q0 -92 50 -151.5t143 -59.5t143.5 59t50.5 152v440h55v-436q0 -80 -29.5 -140t-86 -93t-133.5 -33q-73 0 -129.5 33.5z" />
    <glyph glyph-name="V" unicode="V" horiz-adv-x="589" 
d="M14 686h62l174 -509l27 -81h26l28 81l182 509h62l-251 -686h-66z" />
    <glyph glyph-name="W" unicode="W" horiz-adv-x="904" 
d="M17 686h62l127 -515l15 -60h27l18 60l157 515h66l150 -515l18 -60h27l141 575h62l-184 -686h-66l-149 507l-19 67h-26l-20 -67l-155 -507h-66z" />
    <glyph glyph-name="X" unicode="X" horiz-adv-x="575" 
d="M250 355l-218 331h66l180 -279h20l180 279h65l-218 -331l232 -355h-64l-195 299h-20l-196 -299h-64z" />
    <glyph glyph-name="Y" unicode="Y" horiz-adv-x="541" 
d="M245 320l-230 366h64l183 -300h20l180 300h64l-226 -366v-320h-55v320z" />
    <glyph glyph-name="Z" unicode="Z" horiz-adv-x="542" 
d="M38 69l400 566h-384v51h438v-69l-400 -566h404v-51h-458v69z" />
    <glyph glyph-name="bracketleft" unicode="[" horiz-adv-x="288" 
d="M80 762h171v-40h-124v-806h124v-40h-171v886z" />
    <glyph glyph-name="backslash" unicode="\" horiz-adv-x="260" 
d="M2 686h47l209 -686h-47z" />
    <glyph glyph-name="bracketright" unicode="]" horiz-adv-x="288" 
d="M37 -84h124v806h-124v40h171v-886h-171v40z" />
    <glyph glyph-name="asciicircum" unicode="^" horiz-adv-x="411" 
d="M180 686h51l168 -276h-53l-130 224h-22l-129 -224h-53z" />
    <glyph glyph-name="underscore" unicode="_" horiz-adv-x="446" 
d="M0 -176h446v-40h-446v40z" />
    <glyph glyph-name="grave" unicode="`" horiz-adv-x="350" 
d="M98 686h58l40 -97h-44z" />
    <glyph glyph-name="a" unicode="a" horiz-adv-x="493" 
d="M116.5 4.5q-40.5 20.5 -61.5 55t-21 79.5q0 73 55 115t141 42q43 0 80 -9.5t76 -34.5v57q0 64 -43 102.5t-108 38.5q-44 0 -82.5 -20t-53.5 -44l-40 31q19 30 67.5 54.5t108.5 24.5q96 0 149.5 -50.5t53.5 -137.5v-308h-52v73h-25q-24 -41 -63.5 -65t-89.5 -24
q-51 0 -91.5 20.5zM300 53q39 24 62.5 64.5t23.5 96.5q-32 22 -67.5 32.5t-75.5 10.5q-73 0 -112 -33t-39 -86q0 -49 36 -79t88 -30q45 0 84 24z" />
    <glyph glyph-name="b" unicode="b" horiz-adv-x="562" 
d="M206.5 8.5q-42.5 24.5 -67.5 66.5h-24v-75h-52v686h56v-196l-5 -86h26q24 43 66.5 67.5t95.5 24.5q64 0 115 -33t80 -91.5t29 -131.5q0 -74 -29 -132t-80 -91t-115 -33q-53 0 -95.5 24.5zM380.5 57q41.5 26 65.5 73.5t24 109.5t-24 109.5t-65.5 73.5t-87.5 26
q-47 0 -88 -26t-65.5 -73.5t-24.5 -109.5t24.5 -109.5t65.5 -73.5t88 -26q46 0 87.5 26z" />
    <glyph glyph-name="c" unicode="c" horiz-adv-x="501" 
d="M150.5 17.5q-54.5 33.5 -84.5 91.5t-30 131t30 131.5t84.5 91.5t123.5 33q76 0 128 -36t68 -82l-50 -20q-15 37 -55 64t-95 27q-48 0 -89 -26.5t-66 -74t-25 -108.5t25 -108.5t66 -74t89 -26.5q56 0 97.5 27.5t56.5 63.5l48 -20q-17 -45 -70 -81.5t-128 -36.5
q-69 0 -123.5 33.5z" />
    <glyph glyph-name="d" unicode="d" horiz-adv-x="562" 
d="M145 17q-51 33 -80 91t-29 132q0 73 29 131.5t80 91.5t115 33q53 0 95 -24.5t68 -67.5h25l-5 86v196h56v-686h-52v75h-24q-26 -42 -68 -66.5t-95 -24.5q-64 0 -115 33zM357 57q41 26 65.5 73.5t24.5 109.5t-24.5 109.5t-65.5 73.5t-88 26q-46 0 -87.5 -26t-66 -74
t-24.5 -109t24.5 -109t66 -74t87.5 -26q47 0 88 26z" />
    <glyph glyph-name="e" unicode="e" horiz-adv-x="523" 
d="M148.5 17q-53.5 33 -83 91t-29.5 131q0 70 28 129t79.5 93.5t119.5 34.5q70 0 120.5 -31.5t77 -87t26.5 -127.5l-1 -11h-396q4 -78 30.5 -121t67 -65t85.5 -22q105 0 152 88l46 -23q-22 -44 -74.5 -78t-126.5 -34q-68 0 -121.5 33zM428 279q-3 51 -20 86t-54 59.5
t-91 24.5q-64 0 -108.5 -42t-61.5 -128h335z" />
    <glyph glyph-name="f" unicode="f" horiz-adv-x="346" 
d="M119 433h-91v47h91v70q0 44 19.5 76.5t52.5 50t74 17.5q39 0 59 -7v-51q3 -2 -15 3.5t-41 5.5q-38 0 -65.5 -28t-27.5 -76v-61h128v-47h-128v-433h-56v433z" />
    <glyph glyph-name="g" unicode="g" horiz-adv-x="557" 
d="M130 -193q-53 39 -67 81l51 21q13 -34 54.5 -64t98.5 -30q82 0 128.5 50.5t46.5 140.5v72h-24q-27 -43 -68.5 -65.5t-94.5 -22.5q-61 0 -111 32t-79 89.5t-29 131.5q0 73 29 131t79 90t111 32q53 0 94.5 -22.5t68.5 -66.5h24v73h52v-475q0 -117 -62 -177t-165 -60
q-84 0 -137 39zM355 62q40 25 63.5 71.5t23.5 109.5q0 64 -23.5 110.5t-63.5 71t-88 24.5t-88.5 -25t-64 -71.5t-23.5 -109.5t23.5 -110t64 -71.5t88.5 -24.5t88 25z" />
    <glyph glyph-name="h" unicode="h" horiz-adv-x="526" 
d="M63 686h56v-196l-5 -85h26q23 43 64 67t90 24q85 0 129 -50t44 -134v-312h-56v299q0 75 -38 112.5t-98 37.5q-44 0 -79.5 -26.5t-56 -67.5t-20.5 -86v-269h-56v686z" />
    <glyph glyph-name="i" unicode="i" horiz-adv-x="196" 
d="M65.5 617.5q-13.5 13.5 -13.5 32.5q0 20 13.5 33t32.5 13q20 0 33 -13t13 -33q0 -19 -13 -32.5t-33 -13.5q-19 0 -32.5 13.5zM71 480h55v-480h-55v480z" />
    <glyph glyph-name="j" unicode="j" horiz-adv-x="207" 
d="M76.5 617.5q-13.5 13.5 -13.5 32.5q0 20 13.5 33t32.5 13q20 0 33 -13t13 -33q0 -19 -13 -32.5t-33 -13.5q-19 0 -32.5 13.5zM-17 -223v43q-13 8 1.5 4.5t25.5 -3.5q38 0 54.5 24.5t16.5 67.5v567h56v-567q0 -71 -32.5 -105t-91.5 -34q-22 0 -30 3z" />
    <glyph glyph-name="k" unicode="k" horiz-adv-x="467" 
d="M63 686h56v-470l252 264h70l-182 -189l194 -291h-68l-165 253l-101 -105v-148h-56v686z" />
    <glyph glyph-name="l" unicode="l" horiz-adv-x="181" 
d="M63 690l55 21v-711h-55v690z" />
    <glyph glyph-name="m" unicode="m" horiz-adv-x="830" 
d="M63 480h52v-75h25q23 43 63 67t84 24q52 0 88.5 -24.5t62.5 -91.5q38 66 78.5 91t94.5 25q80 0 119.5 -48.5t39.5 -135.5v-312h-55v299q0 77 -32 113.5t-93 36.5q-42 0 -75.5 -24.5t-52 -65t-18.5 -86.5v-273h-55v298q0 78 -32 114.5t-93 36.5q-41 0 -74.5 -25t-52 -66
t-18.5 -87v-271h-56v480z" />
    <glyph glyph-name="n" unicode="n" horiz-adv-x="523" 
d="M63 480h52v-75h25q23 42 64.5 66.5t88.5 24.5q84 0 127.5 -49t43.5 -135v-312h-56v299q0 77 -37.5 113.5t-99.5 36.5q-44 0 -79 -25.5t-54 -66.5t-19 -85v-272h-56v480z" />
    <glyph glyph-name="o" unicode="o" horiz-adv-x="556" 
d="M153 18q-55 34 -86 92.5t-31 129.5t31 129.5t86 92.5t125 34t125 -34t86 -92.5t31 -129.5t-31 -129.5t-86 -92.5t-125 -34t-125 34zM369.5 56.5q42.5 25.5 68.5 73t26 110.5t-26 110.5t-68.5 73t-91.5 25.5t-92 -25.5t-69 -73t-26 -110.5t26 -110.5t69 -73t92 -25.5
t91.5 25.5z" />
    <glyph glyph-name="p" unicode="p" horiz-adv-x="558" 
d="M59 480h52v-76h25q24 43 66.5 67.5t95.5 24.5q64 0 115 -33t80 -91.5t29 -131.5q0 -74 -29 -132t-80 -91t-115 -33q-53 0 -95.5 24.5t-67.5 66.5h-25l5 -85v-206h-56v696zM376.5 57q41.5 26 65.5 73.5t24 109.5t-24 109.5t-65.5 73.5t-87.5 26q-47 0 -88 -26t-65.5 -73.5
t-24.5 -109.5t24.5 -109.5t65.5 -73.5t88 -26q46 0 87.5 26z" />
    <glyph glyph-name="q" unicode="q" horiz-adv-x="558" 
d="M443 -10l5 85h-25q-26 -42 -68 -66.5t-95 -24.5q-64 0 -115 33t-80 91t-29 132q0 73 29 131.5t80 91.5t115 33q53 0 95 -24.5t68 -67.5h24v76h52v-696h-56v206zM357 57q41 26 65.5 73.5t24.5 109.5t-24.5 109.5t-65.5 73.5t-88 26q-46 0 -87.5 -26t-66 -74t-24.5 -109
t24.5 -109t66 -74t87.5 -26q47 0 88 26z" />
    <glyph glyph-name="r" unicode="r" horiz-adv-x="341" 
d="M63 480h52v-82h27q16 47 54 72t81 25q31 0 45 -5v-59q-14 8 -57 8q-40 0 -73.5 -23.5t-53 -62t-19.5 -83.5v-270h-56v480z" />
    <glyph glyph-name="s" unicode="s" horiz-adv-x="431" 
d="M91.5 20q-50.5 36 -65.5 78l49 23q15 -37 55 -64.5t88 -27.5q50 0 88.5 22.5t38.5 67.5q0 40 -31 62.5t-89 37.5l-60 16q-57 14 -91.5 46.5t-34.5 82.5q0 39 23 69t63.5 46.5t87.5 16.5q62 0 109.5 -27t61.5 -60l-48 -23q-31 64 -124 64q-44 0 -80 -23t-36 -61
q0 -35 25.5 -56t70.5 -33l72 -19q70 -18 103.5 -51.5t33.5 -81.5q0 -42 -23.5 -74t-65.5 -49.5t-94 -17.5q-76 0 -126.5 36z" />
    <glyph glyph-name="t" unicode="t" horiz-adv-x="332" 
d="M188.5 1q-23.5 9 -39.5 24q-34 33 -34 94v314h-87v47h87v144h56v-144h122v-47h-122v-293q0 -47 18 -72q23 -27 65 -27q34 0 41 5v-46q-6 -3 -19 -5.5t-36 -2.5q-28 0 -51.5 9z" />
    <glyph glyph-name="u" unicode="u" horiz-adv-x="523" 
d="M102.5 33.5q-43.5 49.5 -43.5 140.5v306h56v-293q0 -79 36.5 -117.5t95.5 -38.5q47 0 82.5 25.5t55 65.5t19.5 85v273h56v-480h-52v74h-25q-23 -42 -64.5 -66t-88.5 -24q-84 0 -127.5 49.5z" />
    <glyph glyph-name="v" unicode="v" horiz-adv-x="460" 
d="M7 480h59l154 -410h20l156 410h57l-191 -480h-66z" />
    <glyph glyph-name="w" unicode="w" horiz-adv-x="719" 
d="M7 480h57l118 -403h20l126 403h65l126 -402h20l118 402h55l-151 -480h-64l-139 438l-137 -438h-64z" />
    <glyph glyph-name="x" unicode="x" horiz-adv-x="421" 
d="M178 244l-161 236h59l135 -200l131 200h63l-164 -236l167 -244h-62l-136 207l-135 -207h-62z" />
    <glyph glyph-name="y" unicode="y" horiz-adv-x="460" 
d="M207 17l-199 463h59l156 -379h20l150 379h59l-294 -696h-56z" />
    <glyph glyph-name="z" unicode="z" horiz-adv-x="449" 
d="M37 53l310 380h-301v47h358v-53l-310 -380h318v-47h-375v53z" />
    <glyph glyph-name="braceleft" unicode="{" horiz-adv-x="283" 
d="M136.5 -84q-39.5 40 -39.5 108v175q0 47 -24.5 73.5t-49.5 26.5v40q25 0 49.5 26.5t24.5 73.5v175q0 68 39.5 108t108.5 40h7v-40h-6q-45 0 -73 -30.5t-28 -80.5v-175q0 -43 -14.5 -67t-53.5 -37v-26q39 -13 53.5 -36.5t14.5 -67.5v-175q0 -50 28 -80.5t73 -30.5h6v-40
h-7q-69 0 -108.5 40z" />
    <glyph glyph-name="bar" unicode="|" horiz-adv-x="207" 
d="M80 762h47v-882h-47v882z" />
    <glyph glyph-name="braceright" unicode="}" horiz-adv-x="283" 
d="M31 -84h6q44 0 73 30.5t29 80.5v175q0 44 14 67.5t53 36.5v26q-39 13 -53 37t-14 67v175q0 50 -29 80.5t-73 30.5h-6v40h7q69 0 108.5 -40t39.5 -108v-175q0 -47 24.5 -73.5t49.5 -26.5v-40q-25 0 -49.5 -26.5t-24.5 -73.5v-175q0 -68 -39.5 -108t-108.5 -40h-7v40z" />
    <glyph glyph-name="asciitilde" unicode="~" horiz-adv-x="506" 
d="M316 245q-27 9 -68 27q-38 16 -62 24t-43 8q-30 0 -48 -21t-20 -34h-38q0 20 15 46.5t39 40.5t50 14q23 0 49.5 -9t69.5 -27q37 -16 60.5 -24t42.5 -8q30 0 48 21t20 34h38q0 -20 -15.5 -46.5t-39 -40.5t-50.5 -14q-21 0 -48 9z" />
    <glyph glyph-name="uni00A0" unicode="&#xa0;" horiz-adv-x="232" 
 />
    <glyph glyph-name="exclamdown" unicode="&#xa1;" horiz-adv-x="208" 
d="M69 412q-14 14 -14 35t14 35t35 14t35 -14t14 -35t-14 -35t-35 -14t-35 14zM77 12l9 262h36l9 -262v-228h-54v228z" />
    <glyph glyph-name="cent" unicode="&#xa2;" horiz-adv-x="496" 
d="M408.5 127q-43.5 -35 -119.5 -44v-83h-40v83q-71 10 -116.5 43.5t-71 85t-25.5 115.5t25.5 116t71 85.5t116.5 42.5v83h40v-83q76 -9 118 -43.5t57 -72.5l-49 -20q-28 69 -126 91v-398q59 13 89 39.5t42 51.5l47 -20q-15 -37 -58.5 -72zM130.5 200q40.5 -53 118.5 -72
v398q-78 -19 -118.5 -72t-40.5 -127t40.5 -127z" />
    <glyph glyph-name="sterling" unicode="&#xa3;" horiz-adv-x="491" 
d="M471 88q-33 -88 -139 -88h-294v48q44 20 72 65t28 97q0 9 -4 39h-95v41h79q-13 26 -28 52q-26 43 -38.5 74.5t-12.5 71.5q0 48 23.5 90t66.5 67t99 25q74 0 119.5 -39.5t58.5 -77.5l-49 -21q-9 27 -42 57t-87 30q-62 0 -98.5 -39.5t-36.5 -91.5q0 -37 13 -67.5t38 -72.5
q4 -7 13.5 -22t18.5 -36h133v-41h-118v-26q0 -39 -15.5 -77t-55.5 -79l22 -16h190q43 0 66.5 17.5t30.5 36.5z" />
    <glyph glyph-name="currency" unicode="&#xa4;" horiz-adv-x="569" 
d="M68 128l58 56q-42 65 -42 126q0 62 42 126l-58 57l29 29l58 -56q62 48 130 48q67 0 129 -48l58 56l29 -29l-57 -56q41 -64 41 -127q0 -62 -41 -126l57 -56l-29 -29l-58 56q-35 -28 -66 -38.5t-63 -10.5q-67 0 -130 49l-58 -56zM361 171.5q35 21.5 55.5 58.5t20.5 80
t-20.5 80t-55.5 58.5t-76 21.5q-42 0 -77 -21.5t-55.5 -58.5t-20.5 -80t20.5 -80t55.5 -58.5t77 -21.5q41 0 76 21.5z" />
    <glyph glyph-name="yen" unicode="&#xa5;" horiz-adv-x="518" 
d="M234 169h-171v40h171v115h-171v40h138l-186 290h62l135 -225l38 -64h22l37 64l133 225h61l-183 -290h135v-40h-167v-115h167v-40h-167v-169h-54v169z" />
    <glyph glyph-name="brokenbar" unicode="&#xa6;" horiz-adv-x="207" 
d="M80 726h47v-350h-47v350zM80 262h47v-382h-47v382z" />
    <glyph glyph-name="section" unicode="&#xa7;" horiz-adv-x="513" 
d="M465 -57q0 -54 -29.5 -93.5t-77 -60.5t-99.5 -21q-73 0 -133 46.5t-78 119.5l51 21q14 -51 56 -93.5t104 -42.5q61 0 105 34.5t44 87.5q0 58 -42.5 92.5t-133.5 62.5q-85 27 -124.5 67t-39.5 99q0 37 20.5 70t79.5 68q-102 61 -102 144q0 38 22 74.5t65 60t102 23.5
q49 0 89 -21t65 -52t31 -48l-50 -21q-8 24 -44 57.5t-89 33.5q-38 0 -69 -14.5t-48.5 -39.5t-17.5 -53q0 -44 34 -71t102 -50q102 -32 154.5 -75.5t52.5 -122.5q0 -39 -17 -73t-61 -65q78 -63 78 -144zM157 193q33 -27 101 -49q42 -13 89 -34q32 22 47 52t15 59
q0 59 -42.5 92.5t-134.5 62.5l-11 4q-46 -14 -71.5 -47t-25.5 -68q0 -45 33 -72z" />
    <glyph glyph-name="dieresis" unicode="&#xa8;" horiz-adv-x="362" 
d="M71.5 617q-11.5 12 -11.5 27q0 17 11.5 28t27.5 11q17 0 27.5 -11t10.5 -28q0 -16 -10.5 -27.5t-27.5 -11.5q-16 0 -27.5 12zM236 617q-12 12 -12 27q0 17 11.5 28t27.5 11q17 0 28 -11t11 -28q0 -16 -11 -27.5t-28 -11.5q-15 0 -27 12z" />
    <glyph glyph-name="copyright" unicode="&#xa9;" horiz-adv-x="500" 
d="M142.5 301q-49.5 29 -78.5 78.5t-29 107.5t29 107.5t78.5 78.5t107.5 29t107.5 -29t78.5 -78.5t29 -107.5t-29 -107.5t-78.5 -78.5t-107.5 -29t-107.5 29zM350 315q46 27 73 73t27 99q0 54 -27 100t-73 72.5t-100 26.5q-53 0 -99 -26.5t-73 -72.5t-27 -100q0 -53 27 -99
t73 -73t99 -27q54 0 100 27zM180.5 413.5q-29.5 30.5 -29.5 73.5q0 44 29.5 74t73.5 30q24 0 41.5 -8.5t23.5 -14.5l-8 -7q-3 3 -18.5 10.5t-38.5 7.5q-36 0 -62.5 -27t-26.5 -65t26.5 -65t62.5 -27q45 0 64 26l9 -8q-22 -30 -73 -30q-44 0 -73.5 30.5z" />
    <glyph glyph-name="ordfeminine" unicode="&#xaa;" horiz-adv-x="444" 
d="M115.5 289q-34.5 17 -54.5 47t-20 68q0 61 49.5 96.5t124.5 35.5q37 0 68.5 -9t71.5 -32v42q0 57 -37.5 90t-91.5 33q-43 0 -72.5 -15.5t-41.5 -36.5l-46 22q11 22 51.5 47t105.5 25q51 0 92 -20t64.5 -57.5t23.5 -91.5v-247h-48v66h-28q-22 -39 -56 -59.5t-79 -20.5
q-42 0 -76.5 17zM276.5 331q34.5 19 56.5 51.5t22 80.5q-6 7 -19.5 16t-42.5 17t-61 8q-66 0 -101.5 -28.5t-35.5 -75.5q0 -43 33 -65.5t76 -22.5q38 0 72.5 19z" />
    <glyph glyph-name="guillemotleft" unicode="&#xab;" horiz-adv-x="548" 
d="M37 256l181 196l28 -26l-161 -170l161 -170l-28 -26zM237 256l181 196l28 -26l-161 -170l161 -170l-28 -26z" />
    <glyph glyph-name="logicalnot" unicode="&#xac;" horiz-adv-x="543" 
d="M418 312h-363v40h401v-247h-38v207z" />
    <glyph glyph-name="uni00AD" unicode="&#xad;" horiz-adv-x="441" 
d="M62 315h287v-40h-287v40z" />
    <glyph glyph-name="registered" unicode="&#xae;" horiz-adv-x="500" 
d="M142.5 301q-49.5 29 -78.5 78.5t-29 107.5t29 107.5t78.5 78.5t107.5 29t107.5 -29t78.5 -78.5t29 -107.5t-29 -107.5t-78.5 -78.5t-107.5 -29t-107.5 29zM350 315q46 27 73 73t27 99q0 54 -27 100t-73 72.5t-100 26.5q-53 0 -99 -26.5t-73 -72.5t-27 -100q0 -53 27 -99
t73 -73t99 -27q54 0 100 27zM189 585h80q23 0 40.5 -16.5t17.5 -40.5q0 -18 -11.5 -32t-31.5 -20l-14 -13l65 -92v18h-27l-56 85h-49v-85h-14v196zM265 484q18 0 33 12t15 32q0 18 -13.5 31.5t-33.5 13.5h-63v-89h62z" />
    <glyph glyph-name="macron" unicode="&#xaf;" horiz-adv-x="369" 
d="M61 662h247v-36h-247v36z" />
    <glyph glyph-name="degree" unicode="&#xb0;" horiz-adv-x="293" 
d="M89 457.5q-27 15.5 -42.5 41.5t-15.5 57t15.5 57.5t42.5 41.5t58 15t57 -15t41.5 -41.5t15.5 -57.5t-15.5 -57t-41.5 -41.5t-57 -15.5t-58 15.5zM205 496q23 25 23 60t-23 60t-58 25q-34 0 -58.5 -25t-24.5 -60t24.5 -60t58.5 -25q35 0 58 25z" />
    <glyph glyph-name="plusminus" unicode="&#xb1;" horiz-adv-x="514" 
d="M237 299h-182v40h182v157h40v-157h182v-40h-182v-157h-40v157zM55 40h404v-40h-404v40z" />
    <glyph glyph-name="uni00B2" unicode="&#xb2;" horiz-adv-x="302" 
d="M21 385l131 131q22 23 35 42t13 44q0 27 -20.5 45t-50.5 18t-51.5 -19t-24.5 -36l-32 13q6 26 37 48.5t70 22.5q45 0 76.5 -25.5t31.5 -66.5q0 -26 -16.5 -50.5t-41.5 -49.5l-122 -123h182v-29h-217v35z" />
    <glyph glyph-name="uni00B3" unicode="&#xb3;" horiz-adv-x="322" 
d="M62 364q-33 22 -40 53l32 12q5 -21 29.5 -39.5t54.5 -18.5q31 0 55.5 20.5t24.5 52.5q0 31 -23.5 49.5t-55.5 18.5h-26v26h21q31 0 51 18t20 47q0 28 -20.5 45t-47.5 17q-54 0 -70 -40l-30 12q7 19 33.5 38t66.5 19q47 0 76 -25.5t29 -64.5q0 -38 -60 -77q72 -40 72 -83
q0 -46 -33.5 -74t-82.5 -28q-43 0 -76 22z" />
    <glyph glyph-name="acute" unicode="&#xb4;" horiz-adv-x="349" 
d="M195 686h57l-54 -97h-43z" />
    <glyph glyph-name="mu" unicode="&#xb5;" horiz-adv-x="553" 
d="M59 480h56v-290q0 -80 37 -119.5t95 -39.5q47 0 82.5 25.5t55 66.5t19.5 85v272h56v-480h-52v74h-25q-24 -43 -63.5 -66.5t-89.5 -23.5q-27 0 -51 11t-46 34h-23l5 -75v-170h-56v696z" />
    <glyph glyph-name="paragraph" unicode="&#xb6;" horiz-adv-x="584" 
d="M292 296h-59q-57 0 -105.5 24t-76.5 68t-28 103t28 103t76.5 68t105.5 24h273v-902h-48v851h-119v-851h-47v512z" />
    <glyph glyph-name="periodcentered" unicode="&#xb7;" horiz-adv-x="153" 
d="M42 274q-14 14 -14 35t14 35t35 14q20 0 34 -14t14 -35t-14 -35t-34 -14q-21 0 -35 14z" />
    <glyph glyph-name="cedilla" unicode="&#xb8;" horiz-adv-x="369" 
d="M98 -221q-22 16 -26 28l22 10q1 -3 16 -17t37 -14q26 0 42.5 17t16.5 41q0 25 -16 42.5t-43 17.5q-28 0 -39 -14l-21 10l26 70h20l-24 -53q44 7 48 7q32 0 54 -22.5t22 -57.5q0 -34 -24.5 -57.5t-61.5 -23.5q-27 0 -49 16z" />
    <glyph glyph-name="uni00B9" unicode="&#xb9;" horiz-adv-x="239" 
d="M106 649l-65 -54l-18 25l82 66h36v-336h-35v299z" />
    <glyph glyph-name="ordmasculine" unicode="&#xba;" horiz-adv-x="485" 
d="M137 300q-47 28 -73.5 77t-26.5 110t26.5 110t73.5 77t106 28t106 -28t73.5 -77t26.5 -110t-26.5 -110t-73.5 -77t-106 -28t-106 28zM318.5 338q35.5 22 57 61t21.5 88t-21.5 88t-57 61t-75.5 22q-41 0 -76.5 -22t-57 -61t-21.5 -88t21.5 -88t57 -61t76.5 -22
q40 0 75.5 22z" />
    <glyph glyph-name="guillemotright" unicode="&#xbb;" horiz-adv-x="548" 
d="M57 86l160 170l-160 170l28 26l181 -196l-181 -196zM257 86l160 170l-160 170l28 26l181 -196l-181 -196z" />
    <glyph glyph-name="onequarter" unicode="&#xbc;" horiz-adv-x="732" 
d="M131 649l-65 -54l-18 25l82 66h36v-336h-35v299zM100 17l449 670l28 -19l-449 -669zM562 74h-172v24l169 238h38v-236h49v-26h-49v-74h-35v74zM562 100v167h-27l-119 -167h146z" />
    <glyph glyph-name="onehalf" unicode="&#xbd;" horiz-adv-x="774" 
d="M131 649l-65 -54l-18 25l82 66h36v-336h-35v299zM92 17l449 670l28 -19l-449 -669zM467 35l131 131q22 23 35 42t13 44q0 27 -20.5 45t-50.5 18t-51.5 -19t-24.5 -36l-32 13q6 26 37 48.5t70 22.5q45 0 76.5 -25.5t31.5 -66.5q0 -26 -16.5 -50.5t-41.5 -49.5l-122 -123
h182v-29h-217v35z" />
    <glyph glyph-name="threequarters" unicode="&#xbe;" horiz-adv-x="825" 
d="M88 364q-33 22 -40 53l32 12q5 -21 29.5 -39.5t54.5 -18.5q31 0 55.5 20.5t24.5 52.5q0 31 -23.5 49.5t-55.5 18.5h-26v26h21q31 0 51 18t20 47q0 28 -20.5 45t-47.5 17q-54 0 -70 -40l-30 12q7 19 33.5 38t66.5 19q47 0 76 -25.5t29 -64.5q0 -38 -60 -77q72 -40 72 -83
q0 -46 -33.5 -74t-82.5 -28q-43 0 -76 22zM180 17l449 670l28 -19l-449 -669zM655 74h-172v24l169 238h38v-236h49v-26h-49v-74h-35v74zM655 100v167h-27l-119 -167h146z" />
    <glyph glyph-name="questiondown" unicode="&#xbf;" horiz-adv-x="460" 
d="M201 412q-14 14 -14 35t14 35t35 14t35 -14t14 -35t-14 -35t-35 -14t-35 14zM136.5 -209.5q-42.5 22.5 -66 62t-23.5 88.5q0 35 15 65t32.5 50t44.5 45q35 31 52 61t17 70v42h56v-48q0 -46 -17 -77t-65 -74q-40 -38 -59.5 -65.5t-19.5 -68.5q0 -54 35.5 -88t96.5 -34
q56 0 89 32t43 62l51 -21q-14 -41 -61.5 -82.5t-121.5 -41.5q-56 0 -98.5 22.5z" />
    <glyph glyph-name="Agrave" unicode="&#xc0;" horiz-adv-x="670" 
d="M275 686h76l260 -686h-61l-72 197h-330l-72 -197h-61zM461 247l-104 278l-31 87h-26l-31 -87l-104 -278h296zM228 870h58l40 -97h-44z" />
    <glyph glyph-name="Aacute" unicode="&#xc1;" horiz-adv-x="670" 
d="M275 686h76l260 -686h-61l-72 197h-330l-72 -197h-61zM461 247l-104 278l-31 87h-26l-31 -87l-104 -278h296zM338 870h57l-54 -97h-43z" />
    <glyph glyph-name="Acircumflex" unicode="&#xc2;" horiz-adv-x="670" 
d="M275 686h76l260 -686h-61l-72 197h-330l-72 -197h-61zM461 247l-104 278l-31 87h-26l-31 -87l-104 -278h296zM210 779l80 91h61l80 -91h-46l-54 63h-22l-53 -63h-46z" />
    <glyph glyph-name="Atilde" unicode="&#xc3;" horiz-adv-x="670" 
d="M275 686h76l260 -686h-61l-72 197h-330l-72 -197h-61zM461 247l-104 278l-31 87h-26l-31 -87l-104 -278h296zM347.5 786.5q-15.5 6.5 -39.5 20.5q-33 20 -48 20q-47 0 -50 -37h-41q0 19 13.5 40.5t35.5 32.5t43 11q27 0 72 -28q34 -19 47 -19q47 0 50 37h41
q0 -33 -29 -58.5t-64 -25.5q-15 0 -30.5 6.5z" />
    <glyph glyph-name="Adieresis" unicode="&#xc4;" horiz-adv-x="670" 
d="M275 686h76l260 -686h-61l-72 197h-330l-72 -197h-61zM461 247l-104 278l-31 87h-26l-31 -87l-104 -278h296zM210.5 801q-11.5 12 -11.5 27q0 17 11.5 28t27.5 11q17 0 27.5 -11t10.5 -28q0 -16 -10.5 -27.5t-27.5 -11.5q-16 0 -27.5 12zM375 801q-12 12 -12 27
q0 17 11.5 28t27.5 11q17 0 28 -11t11 -28q0 -16 -11 -27.5t-28 -11.5q-15 0 -27 12z" />
    <glyph glyph-name="Aring" unicode="&#xc5;" horiz-adv-x="625" 
d="M610 0h-61l-72 197h-329l-72 -197h-61l252 664q-24 20 -33.5 38.5t-9.5 38.5q0 37 25.5 62.5t62.5 25.5t63 -25.5t26 -62.5q0 -20 -9 -38t-34 -38zM271.5 782.5q-17.5 -17.5 -17.5 -41.5t17.5 -41.5t40.5 -17.5q24 0 41.5 17.5t17.5 41.5t-17.5 41.5t-41.5 17.5
q-23 0 -40.5 -17.5zM460 247l-103 278l-33 87h-25l-31 -87l-103 -278h295z" />
    <glyph glyph-name="AE" unicode="&#xc6;" horiz-adv-x="918" 
d="M420 686h441v-51h-329v-267h297v-50h-297v-267h329v-51h-384v197h-288l-118 -197h-64zM477 247v388h-28l-33 -57l-197 -331h258z" />
    <glyph glyph-name="Ccedilla" unicode="&#xc7;" horiz-adv-x="706" 
d="M558 18q-69 -33 -160 -34l-30 -67q44 7 48 7q32 0 54 -22.5t22 -57.5q0 -34 -24.5 -57.5t-61.5 -23.5q-27 0 -49 16t-26 28l22 10q1 -3 16 -17t37 -14q26 0 42.5 17t16.5 41q0 25 -16 42.5t-43 17.5q-28 0 -39 -14l-21 10l32 84q-110 12 -181 61t-111.5 127t-40.5 171
q0 101 46.5 183t128 129t181.5 47q77 0 140.5 -28.5t100.5 -72.5l-39 -38q-33 39 -84.5 63.5t-117.5 24.5q-82 0 -150.5 -38.5t-109 -108.5t-40.5 -161t40.5 -161t109 -108.5t150.5 -38.5q137 0 222 100l41 -39q-37 -45 -106 -78z" />
    <glyph glyph-name="Egrave" unicode="&#xc8;" horiz-adv-x="551" 
d="M80 686h384v-51h-329v-267h297v-50h-297v-267h329v-51h-384v686zM180 870h58l40 -97h-44z" />
    <glyph glyph-name="Eacute" unicode="&#xc9;" horiz-adv-x="551" 
d="M80 686h384v-51h-329v-267h297v-50h-297v-267h329v-51h-384v686zM290 870h57l-54 -97h-43z" />
    <glyph glyph-name="Ecircumflex" unicode="&#xca;" horiz-adv-x="551" 
d="M80 686h384v-51h-329v-267h297v-50h-297v-267h329v-51h-384v686zM162 779l80 91h61l80 -91h-46l-54 63h-22l-53 -63h-46z" />
    <glyph glyph-name="Edieresis" unicode="&#xcb;" horiz-adv-x="551" 
d="M80 686h384v-51h-329v-267h297v-50h-297v-267h329v-51h-384v686zM162.5 801q-11.5 12 -11.5 27q0 17 11.5 28t27.5 11q17 0 27.5 -11t10.5 -28q0 -16 -10.5 -27.5t-27.5 -11.5q-16 0 -27.5 12zM327 801q-12 12 -12 27q0 17 11.5 28t27.5 11q17 0 28 -11t11 -28
q0 -16 -11 -27.5t-28 -11.5q-15 0 -27 12z" />
    <glyph glyph-name="Igrave" unicode="&#xcc;" horiz-adv-x="245" 
d="M80 686h55v-686h-55v686zM15 870h58l40 -97h-44z" />
    <glyph glyph-name="Iacute" unicode="&#xcd;" horiz-adv-x="245" 
d="M80 686h55v-686h-55v686zM125 870h57l-54 -97h-43z" />
    <glyph glyph-name="Icircumflex" unicode="&#xce;" horiz-adv-x="245" 
d="M80 686h55v-686h-55v686zM-3 779l80 91h61l80 -91h-46l-54 63h-22l-53 -63h-46z" />
    <glyph glyph-name="Idieresis" unicode="&#xcf;" horiz-adv-x="215" 
d="M13.5 801.5q-11.5 11.5 -11.5 27.5q0 17 11.5 28t27.5 11q17 0 28 -11t11 -28q0 -16 -11 -27.5t-28 -11.5q-16 0 -27.5 11.5zM146.5 801.5q-11.5 11.5 -11.5 27.5q0 17 11.5 28t27.5 11q17 0 27.5 -11t10.5 -28q0 -16 -10.5 -27.5t-27.5 -11.5q-16 0 -27.5 11.5zM80 686
h55v-686h-55v686z" />
    <glyph glyph-name="Eth" unicode="&#xd0;" horiz-adv-x="702" 
d="M109 322h-76v40h76v324h201q106 0 184.5 -43.5t120.5 -121t42 -178.5t-42 -178.5t-120.5 -121t-184.5 -43.5h-201v322zM310 51q133 0 212 77.5t79 214.5t-79 214.5t-212 77.5h-147v-273h204v-40h-204v-271h147z" />
    <glyph glyph-name="Ntilde" unicode="&#xd1;" horiz-adv-x="708" 
d="M80 686h81l359 -570h27l-4 153v417h55v-686h-65l-375 597h-27l4 -153v-444h-55v686zM366.5 786.5q-15.5 6.5 -39.5 20.5q-33 20 -48 20q-47 0 -50 -37h-41q0 19 13.5 40.5t35.5 32.5t43 11q27 0 72 -28q34 -19 47 -19q47 0 50 37h41q0 -33 -29 -58.5t-64 -25.5
q-15 0 -30.5 6.5z" />
    <glyph glyph-name="Ograve" unicode="&#xd2;" horiz-adv-x="824" 
d="M217.5 32q-80.5 48 -126.5 130.5t-46 180.5t46 180.5t126.5 130.5t179.5 48t179.5 -48t126.5 -130.5t46 -180.5t-46 -180.5t-126.5 -130.5t-179.5 -48t-179.5 48zM546 74.5q68 39.5 107.5 109.5t39.5 159t-39.5 159t-107.5 109.5t-149 39.5t-149 -39.5t-107.5 -109.5
t-39.5 -159t39.5 -159t107.5 -109.5t149 -39.5t149 39.5zM305 870h58l40 -97h-44z" />
    <glyph glyph-name="Oacute" unicode="&#xd3;" horiz-adv-x="824" 
d="M217.5 32q-80.5 48 -126.5 130.5t-46 180.5t46 180.5t126.5 130.5t179.5 48t179.5 -48t126.5 -130.5t46 -180.5t-46 -180.5t-126.5 -130.5t-179.5 -48t-179.5 48zM546 74.5q68 39.5 107.5 109.5t39.5 159t-39.5 159t-107.5 109.5t-149 39.5t-149 -39.5t-107.5 -109.5
t-39.5 -159t39.5 -159t107.5 -109.5t149 -39.5t149 39.5zM415 870h57l-54 -97h-43z" />
    <glyph glyph-name="Ocircumflex" unicode="&#xd4;" horiz-adv-x="824" 
d="M217.5 32q-80.5 48 -126.5 130.5t-46 180.5t46 180.5t126.5 130.5t179.5 48t179.5 -48t126.5 -130.5t46 -180.5t-46 -180.5t-126.5 -130.5t-179.5 -48t-179.5 48zM546 74.5q68 39.5 107.5 109.5t39.5 159t-39.5 159t-107.5 109.5t-149 39.5t-149 -39.5t-107.5 -109.5
t-39.5 -159t39.5 -159t107.5 -109.5t149 -39.5t149 39.5zM287 779l80 91h61l80 -91h-46l-54 63h-22l-53 -63h-46z" />
    <glyph glyph-name="Otilde" unicode="&#xd5;" horiz-adv-x="824" 
d="M217.5 32q-80.5 48 -126.5 130.5t-46 180.5t46 180.5t126.5 130.5t179.5 48t179.5 -48t126.5 -130.5t46 -180.5t-46 -180.5t-126.5 -130.5t-179.5 -48t-179.5 48zM546 74.5q68 39.5 107.5 109.5t39.5 159t-39.5 159t-107.5 109.5t-149 39.5t-149 -39.5t-107.5 -109.5
t-39.5 -159t39.5 -159t107.5 -109.5t149 -39.5t149 39.5zM424.5 786.5q-15.5 6.5 -39.5 20.5q-33 20 -48 20q-47 0 -50 -37h-41q0 19 13.5 40.5t35.5 32.5t43 11q27 0 72 -28q34 -19 47 -19q47 0 50 37h41q0 -33 -29 -58.5t-64 -25.5q-15 0 -30.5 6.5z" />
    <glyph glyph-name="Odieresis" unicode="&#xd6;" horiz-adv-x="824" 
d="M217.5 32q-80.5 48 -126.5 130.5t-46 180.5t46 180.5t126.5 130.5t179.5 48t179.5 -48t126.5 -130.5t46 -180.5t-46 -180.5t-126.5 -130.5t-179.5 -48t-179.5 48zM546 74.5q68 39.5 107.5 109.5t39.5 159t-39.5 159t-107.5 109.5t-149 39.5t-149 -39.5t-107.5 -109.5
t-39.5 -159t39.5 -159t107.5 -109.5t149 -39.5t149 39.5zM287.5 801q-11.5 12 -11.5 27q0 17 11.5 28t27.5 11q17 0 27.5 -11t10.5 -28q0 -16 -10.5 -27.5t-27.5 -11.5q-16 0 -27.5 12zM452 801q-12 12 -12 27q0 17 11.5 28t27.5 11q17 0 28 -11t11 -28q0 -16 -11 -27.5
t-28 -11.5q-15 0 -27 12z" />
    <glyph glyph-name="multiply" unicode="&#xd7;" horiz-adv-x="504" 
d="M66 101l159 155l-159 155l26 26l160 -156l160 156l26 -26l-161 -155l161 -155l-26 -26l-160 156l-160 -156z" />
    <glyph glyph-name="Oslash" unicode="&#xd8;" horiz-adv-x="795" 
d="M714 504q36 -74 36 -161q0 -99 -46 -181t-127 -130t-180 -48q-87 0 -172 44l-37 -58l-32 21l36 58q-75 58 -111 132t-36 162q0 98 46 180.5t126.5 130.5t179.5 48q87 0 173 -45l38 60l33 -22l-37 -59q74 -58 110 -132zM129 208.5q28 -61.5 91 -115.5l324 521
q-78 37 -147 37q-81 0 -148.5 -39.5t-107.5 -110t-40 -158.5q0 -73 28 -134.5zM546 74.5q68 39.5 107.5 109.5t39.5 159q0 73 -27.5 134t-88.5 115l-326 -520q78 -37 146 -37q81 0 149 39.5z" />
    <glyph glyph-name="Ugrave" unicode="&#xd9;" horiz-adv-x="653" 
d="M181.5 17.5q-56.5 33.5 -87.5 93.5t-31 139v436h55v-440q0 -92 50 -151.5t143 -59.5t143.5 59t50.5 152v440h55v-436q0 -80 -29.5 -140t-86 -93t-133.5 -33q-73 0 -129.5 33.5zM219 870h58l40 -97h-44z" />
    <glyph glyph-name="Uacute" unicode="&#xda;" horiz-adv-x="653" 
d="M181.5 17.5q-56.5 33.5 -87.5 93.5t-31 139v436h55v-440q0 -92 50 -151.5t143 -59.5t143.5 59t50.5 152v440h55v-436q0 -80 -29.5 -140t-86 -93t-133.5 -33q-73 0 -129.5 33.5zM329 870h57l-54 -97h-43z" />
    <glyph glyph-name="Ucircumflex" unicode="&#xdb;" horiz-adv-x="653" 
d="M181.5 17.5q-56.5 33.5 -87.5 93.5t-31 139v436h55v-440q0 -92 50 -151.5t143 -59.5t143.5 59t50.5 152v440h55v-436q0 -80 -29.5 -140t-86 -93t-133.5 -33q-73 0 -129.5 33.5zM201 779l80 91h61l80 -91h-46l-54 63h-22l-53 -63h-46z" />
    <glyph glyph-name="Udieresis" unicode="&#xdc;" horiz-adv-x="653" 
d="M181.5 17.5q-56.5 33.5 -87.5 93.5t-31 139v436h55v-440q0 -92 50 -151.5t143 -59.5t143.5 59t50.5 152v440h55v-436q0 -80 -29.5 -140t-86 -93t-133.5 -33q-73 0 -129.5 33.5zM201.5 801q-11.5 12 -11.5 27q0 17 11.5 28t27.5 11q17 0 27.5 -11t10.5 -28
q0 -16 -10.5 -27.5t-27.5 -11.5q-16 0 -27.5 12zM366 801q-12 12 -12 27q0 17 11.5 28t27.5 11q17 0 28 -11t11 -28q0 -16 -11 -27.5t-28 -11.5q-15 0 -27 12z" />
    <glyph glyph-name="Yacute" unicode="&#xdd;" horiz-adv-x="595" 
d="M245 320l-230 366h64l183 -300h20l180 300h64l-226 -366v-320h-55v320zM300 870h57l-54 -97h-43z" />
    <glyph glyph-name="Thorn" unicode="&#xde;" horiz-adv-x="546" 
d="M80 686h55v-123h171q56 0 103.5 -25t76 -70t28.5 -102t-28.5 -102t-76 -70t-103.5 -25h-171v-169h-55v686zM308 220q44 0 78 21t53 54.5t19 70.5t-19 70.5t-53 54.5t-78 21h-173v-292h173z" />
    <glyph glyph-name="germandbls" unicode="&#xdf;" horiz-adv-x="533" 
d="M245 -6v51q13 -2 40 -2q64 0 107.5 43.5t43.5 107.5q0 42 -22.5 76.5t-58.5 54t-78 19.5h-24v48h13q63 0 101 37t38 96q0 56 -39 91t-94 35q-63 0 -99.5 -41t-36.5 -109v-501h-57v501q0 58 22.5 103.5t66 71.5t104.5 26q55 0 98.5 -23t67.5 -63t24 -91q0 -97 -87 -142
v-23q57 -23 87.5 -64.5t30.5 -101.5q0 -58 -26.5 -104t-74 -72t-107.5 -26q-28 0 -40 2z" />
    <glyph glyph-name="agrave" unicode="&#xe0;" horiz-adv-x="523" 
d="M116.5 4.5q-40.5 20.5 -61.5 55t-21 79.5q0 73 55 115t141 42q43 0 80 -9.5t76 -34.5v57q0 64 -43 102.5t-108 38.5q-44 0 -82.5 -20t-53.5 -44l-40 31q19 30 67.5 54.5t108.5 24.5q96 0 149.5 -50.5t53.5 -137.5v-308h-52v73h-25q-24 -41 -63.5 -65t-89.5 -24
q-51 0 -91.5 20.5zM300 53q39 24 62.5 64.5t23.5 96.5q-32 22 -67.5 32.5t-75.5 10.5q-73 0 -112 -33t-39 -86q0 -49 36 -79t88 -30q45 0 84 24zM149 706h59l39 -97h-45z" />
    <glyph glyph-name="aacute" unicode="&#xe1;" horiz-adv-x="523" 
d="M116.5 4.5q-40.5 20.5 -61.5 55t-21 79.5q0 73 55 115t141 42q43 0 80 -9.5t76 -34.5v57q0 64 -43 102.5t-108 38.5q-44 0 -82.5 -20t-53.5 -44l-40 31q19 30 67.5 54.5t108.5 24.5q96 0 149.5 -50.5t53.5 -137.5v-308h-52v73h-25q-24 -41 -63.5 -65t-89.5 -24
q-51 0 -91.5 20.5zM300 53q39 24 62.5 64.5t23.5 96.5q-32 22 -67.5 32.5t-75.5 10.5q-73 0 -112 -33t-39 -86q0 -49 36 -79t88 -30q45 0 84 24zM257 706h57l-53 -97h-43z" />
    <glyph glyph-name="acircumflex" unicode="&#xe2;" horiz-adv-x="523" 
d="M116.5 4.5q-40.5 20.5 -61.5 55t-21 79.5q0 73 55 115t141 42q43 0 80 -9.5t76 -34.5v57q0 64 -43 102.5t-108 38.5q-44 0 -82.5 -20t-53.5 -44l-40 31q19 30 67.5 54.5t108.5 24.5q96 0 149.5 -50.5t53.5 -137.5v-308h-52v73h-25q-24 -41 -63.5 -65t-89.5 -24
q-51 0 -91.5 20.5zM300 53q39 24 62.5 64.5t23.5 96.5q-32 22 -67.5 32.5t-75.5 10.5q-73 0 -112 -33t-39 -86q0 -49 36 -79t88 -30q45 0 84 24zM132 614l78 92h61l78 -92h-46l-53 64h-20l-52 -64h-46z" />
    <glyph glyph-name="atilde" unicode="&#xe3;" horiz-adv-x="523" 
d="M116.5 4.5q-40.5 20.5 -61.5 55t-21 79.5q0 73 55 115t141 42q43 0 80 -9.5t76 -34.5v57q0 64 -43 102.5t-108 38.5q-44 0 -82.5 -20t-53.5 -44l-40 31q19 30 67.5 54.5t108.5 24.5q96 0 149.5 -50.5t53.5 -137.5v-308h-52v73h-25q-24 -41 -63.5 -65t-89.5 -24
q-51 0 -91.5 20.5zM300 53q39 24 62.5 64.5t23.5 96.5q-32 22 -67.5 32.5t-75.5 10.5q-73 0 -112 -33t-39 -86q0 -49 36 -79t88 -30q45 0 84 24zM266 622.5q-15 6.5 -39 20.5q-32 20 -46 20q-44 0 -47 -37h-42q0 33 28 58t62 25q27 0 71 -28q33 -19 45 -19q45 0 48 37h42
q0 -33 -28 -58t-64 -25q-15 0 -30 6.5z" />
    <glyph glyph-name="adieresis" unicode="&#xe4;" horiz-adv-x="523" 
d="M116.5 4.5q-40.5 20.5 -61.5 55t-21 79.5q0 73 55 115t141 42q43 0 80 -9.5t76 -34.5v57q0 64 -43 102.5t-108 38.5q-44 0 -82.5 -20t-53.5 -44l-40 31q19 30 67.5 54.5t108.5 24.5q96 0 149.5 -50.5t53.5 -137.5v-308h-52v73h-25q-24 -41 -63.5 -65t-89.5 -24
q-51 0 -91.5 20.5zM300 53q39 24 62.5 64.5t23.5 96.5q-32 22 -67.5 32.5t-75.5 10.5q-73 0 -112 -33t-39 -86q0 -49 36 -79t88 -30q45 0 84 24zM132.5 636.5q-11.5 11.5 -11.5 27.5q0 17 11.5 27.5t27.5 10.5q17 0 27.5 -10.5t10.5 -27.5q0 -16 -10.5 -27.5t-27.5 -11.5
q-16 0 -27.5 11.5zM293 636.5q-12 11.5 -12 27.5q0 17 11.5 27.5t27.5 10.5q17 0 28 -10.5t11 -27.5q0 -16 -11 -27.5t-28 -11.5q-15 0 -27 11.5z" />
    <glyph glyph-name="aring" unicode="&#xe5;" horiz-adv-x="523" 
d="M116.5 4.5q-40.5 20.5 -61.5 55t-21 79.5q0 73 55 115t141 42q43 0 80 -9.5t76 -34.5v57q0 64 -43 102.5t-108 38.5q-44 0 -82.5 -20t-53.5 -44l-40 31q19 30 67.5 54.5t108.5 24.5q96 0 149.5 -50.5t53.5 -137.5v-308h-52v73h-25q-24 -41 -63.5 -65t-89.5 -24
q-51 0 -91.5 20.5zM300 53q39 24 62.5 64.5t23.5 96.5q-32 22 -67.5 32.5t-75.5 10.5q-73 0 -112 -33t-39 -86q0 -49 36 -79t88 -30q45 0 84 24zM178 614q-25 26 -25 63t25 62.5t62 25.5t62.5 -25.5t25.5 -62.5t-25.5 -63t-62.5 -26t-62 26zM282 632.5q17 18.5 17 44.5
t-17.5 44t-41.5 18t-42 -18.5t-18 -43.5q0 -26 18 -44.5t42 -18.5q25 0 42 18.5z" />
    <glyph glyph-name="ae" unicode="&#xe6;" horiz-adv-x="871" 
d="M116.5 4.5q-40.5 20.5 -61.5 55t-21 79.5q0 73 55 115t141 42q43 0 80 -9.5t76 -34.5v57q0 64 -41 102.5t-105 38.5q-43 0 -76.5 -21.5t-46.5 -47.5l-47 24q15 34 61.5 62.5t106.5 28.5q64 0 109 -24.5t77 -89.5q42 64 86 88.5t100 24.5q70 0 120.5 -31t77.5 -86.5
t27 -127.5l-1 -11h-396q4 -78 30.5 -121t67 -65t85.5 -22q105 0 152 88l46 -23q-22 -44 -74.5 -78t-127.5 -34q-68 0 -118.5 32.5t-88.5 110.5q-79 -143 -202 -143q-51 0 -91.5 20.5zM775 279q-3 51 -20 86t-53.5 59t-91.5 24q-64 0 -108.5 -41.5t-60.5 -127.5h334zM300 53
q39 24 62.5 64.5t23.5 96.5q-29 21 -65.5 32t-77.5 11q-73 0 -112 -33t-39 -86q0 -49 36 -79t88 -30q45 0 84 24z" />
    <glyph glyph-name="ccedilla" unicode="&#xe7;" horiz-adv-x="501" 
d="M403.5 21.5q-51.5 -36.5 -134.5 -37.5l-30 -67q42 7 46 7q32 0 53.5 -22.5t21.5 -57.5q0 -34 -24 -57.5t-61 -23.5q-26 0 -48 16t-26 28l24 11q1 -4 15.5 -18t34.5 -14q25 0 41 17t16 41q0 25 -15.5 42.5t-41.5 17.5t-37 -14l-22 10l30 85q-74 12 -118 47t-68 88.5
t-24 119.5q0 73 30 131.5t84.5 91.5t123.5 33q76 0 128 -36t68 -82l-50 -20q-15 37 -55 64t-95 27q-48 0 -89 -26.5t-66 -74t-25 -108.5t25 -108.5t66 -74t89 -26.5q56 0 97.5 27.5t56.5 63.5l48 -20q-17 -44 -68.5 -80.5z" />
    <glyph glyph-name="egrave" unicode="&#xe8;" horiz-adv-x="553" 
d="M148.5 17q-53.5 33 -83 91t-29.5 131q0 70 28 129t79.5 93.5t119.5 34.5q70 0 120.5 -31.5t77 -87t26.5 -127.5l-1 -11h-396q4 -78 30.5 -121t67 -65t85.5 -22q105 0 152 88l46 -23q-22 -44 -74.5 -78t-126.5 -34q-68 0 -121.5 33zM428 279q-3 51 -20 86t-54 59.5
t-91 24.5q-64 0 -108.5 -42t-61.5 -128h335zM173 706h59l39 -97h-45z" />
    <glyph glyph-name="eacute" unicode="&#xe9;" horiz-adv-x="553" 
d="M148.5 17q-53.5 33 -83 91t-29.5 131q0 70 28 129t79.5 93.5t119.5 34.5q70 0 120.5 -31.5t77 -87t26.5 -127.5l-1 -11h-396q4 -78 30.5 -121t67 -65t85.5 -22q105 0 152 88l46 -23q-22 -44 -74.5 -78t-126.5 -34q-68 0 -121.5 33zM428 279q-3 51 -20 86t-54 59.5
t-91 24.5q-64 0 -108.5 -42t-61.5 -128h335zM281 706h57l-53 -97h-43z" />
    <glyph glyph-name="ecircumflex" unicode="&#xea;" horiz-adv-x="553" 
d="M148.5 17q-53.5 33 -83 91t-29.5 131q0 70 28 129t79.5 93.5t119.5 34.5q70 0 120.5 -31.5t77 -87t26.5 -127.5l-1 -11h-396q4 -78 30.5 -121t67 -65t85.5 -22q105 0 152 88l46 -23q-22 -44 -74.5 -78t-126.5 -34q-68 0 -121.5 33zM428 279q-3 51 -20 86t-54 59.5
t-91 24.5q-64 0 -108.5 -42t-61.5 -128h335zM156 614l78 92h61l78 -92h-46l-53 64h-20l-52 -64h-46z" />
    <glyph glyph-name="edieresis" unicode="&#xeb;" horiz-adv-x="553" 
d="M148.5 17q-53.5 33 -83 91t-29.5 131q0 70 28 129t79.5 93.5t119.5 34.5q70 0 120.5 -31.5t77 -87t26.5 -127.5l-1 -11h-396q4 -78 30.5 -121t67 -65t85.5 -22q105 0 152 88l46 -23q-22 -44 -74.5 -78t-126.5 -34q-68 0 -121.5 33zM428 279q-3 51 -20 86t-54 59.5
t-91 24.5q-64 0 -108.5 -42t-61.5 -128h335zM156.5 636.5q-11.5 11.5 -11.5 27.5q0 17 11.5 27.5t27.5 10.5q17 0 27.5 -10.5t10.5 -27.5q0 -16 -10.5 -27.5t-27.5 -11.5q-16 0 -27.5 11.5zM317 636.5q-12 11.5 -12 27.5q0 17 11.5 27.5t27.5 10.5q17 0 28 -10.5t11 -27.5
q0 -16 -11 -27.5t-28 -11.5q-15 0 -27 11.5z" />
    <glyph glyph-name="igrave" unicode="&#xec;" horiz-adv-x="226" 
d="M69 480h56v-480h-56v480zM7 706h58l39 -97h-45z" />
    <glyph glyph-name="iacute" unicode="&#xed;" horiz-adv-x="227" 
d="M71 480h56v-480h-56v480zM116 706h58l-53 -97h-44z" />
    <glyph glyph-name="icircumflex" unicode="&#xee;" horiz-adv-x="223" 
d="M69 480h55v-480h-55v480zM-11 614l78 92h61l78 -92h-46l-53 64h-20l-52 -64h-46z" />
    <glyph glyph-name="idieresis" unicode="&#xef;" horiz-adv-x="192" 
d="M4 636.5q-11 11.5 -11 27.5q0 17 11 27.5t28 10.5t27.5 -10.5t10.5 -27.5q0 -16 -10.5 -27.5t-27.5 -11.5t-28 11.5zM133.5 636.5q-11.5 11.5 -11.5 27.5q0 17 11.5 27.5t27.5 10.5q18 0 28 -10.5t10 -27.5q0 -16 -10 -27.5t-28 -11.5q-16 0 -27.5 11.5zM69 480h54v-480
h-54v480z" />
    <glyph glyph-name="eth" unicode="&#xf0;" horiz-adv-x="548" 
d="M158.5 17q-52.5 33 -82.5 88t-30 120q0 67 30.5 121t81.5 84.5t109 30.5q44 0 75.5 -15.5t55.5 -43.5l25 15q-22 56 -46.5 88.5t-66.5 65.5l-120 -54l-13 35l100 46q-84 46 -127 56l17 43q83 -25 157 -78l93 43l14 -35l-74 -33q81 -78 113 -163t32 -186q0 -77 -28.5 -136
t-80.5 -92t-120 -33q-62 0 -114.5 33zM359.5 59q39.5 24 62.5 67.5t23 97.5t-23 97t-62 67.5t-85 24.5q-47 0 -87 -24t-63 -67.5t-23 -97.5t23 -97.5t62.5 -67.5t85.5 -24q47 0 86.5 24z" />
    <glyph glyph-name="ntilde" unicode="&#xf1;" horiz-adv-x="553" 
d="M63 480h52v-75h25q23 42 64.5 66.5t88.5 24.5q84 0 127.5 -49t43.5 -135v-312h-56v299q0 77 -37.5 113.5t-99.5 36.5q-44 0 -79 -25.5t-54 -66.5t-19 -85v-272h-56v480zM300 622.5q-15 6.5 -39 20.5q-32 20 -46 20q-45 0 -48 -37h-41q0 33 27.5 58t62.5 25q27 0 71 -28
q33 -19 45 -19q45 0 48 37h42q0 -33 -28 -58t-64 -25q-15 0 -30 6.5z" />
    <glyph glyph-name="ograve" unicode="&#xf2;" horiz-adv-x="586" 
d="M153 18q-55 34 -86 92.5t-31 129.5t31 129.5t86 92.5t125 34t125 -34t86 -92.5t31 -129.5t-31 -129.5t-86 -92.5t-125 -34t-125 34zM369.5 56.5q42.5 25.5 68.5 73t26 110.5t-26 110.5t-68.5 73t-91.5 25.5t-92 -25.5t-69 -73t-26 -110.5t26 -110.5t69 -73t92 -25.5
t91.5 25.5zM187 706h59l39 -97h-45z" />
    <glyph glyph-name="oacute" unicode="&#xf3;" horiz-adv-x="586" 
d="M153 18q-55 34 -86 92.5t-31 129.5t31 129.5t86 92.5t125 34t125 -34t86 -92.5t31 -129.5t-31 -129.5t-86 -92.5t-125 -34t-125 34zM369.5 56.5q42.5 25.5 68.5 73t26 110.5t-26 110.5t-68.5 73t-91.5 25.5t-92 -25.5t-69 -73t-26 -110.5t26 -110.5t69 -73t92 -25.5
t91.5 25.5zM295 706h57l-53 -97h-43z" />
    <glyph glyph-name="ocircumflex" unicode="&#xf4;" horiz-adv-x="586" 
d="M153 18q-55 34 -86 92.5t-31 129.5t31 129.5t86 92.5t125 34t125 -34t86 -92.5t31 -129.5t-31 -129.5t-86 -92.5t-125 -34t-125 34zM369.5 56.5q42.5 25.5 68.5 73t26 110.5t-26 110.5t-68.5 73t-91.5 25.5t-92 -25.5t-69 -73t-26 -110.5t26 -110.5t69 -73t92 -25.5
t91.5 25.5zM170 614l78 92h61l78 -92h-46l-53 64h-20l-52 -64h-46z" />
    <glyph glyph-name="otilde" unicode="&#xf5;" horiz-adv-x="586" 
d="M153 18q-55 34 -86 92.5t-31 129.5t31 129.5t86 92.5t125 34t125 -34t86 -92.5t31 -129.5t-31 -129.5t-86 -92.5t-125 -34t-125 34zM369.5 56.5q42.5 25.5 68.5 73t26 110.5t-26 110.5t-68.5 73t-91.5 25.5t-92 -25.5t-69 -73t-26 -110.5t26 -110.5t69 -73t92 -25.5
t91.5 25.5zM304.5 622.5q-15.5 6.5 -39.5 20.5q-31 20 -45 20q-45 0 -48 -37h-42q0 33 28 58t62 25q27 0 72 -28q32 -19 45 -19q44 0 47 37h42q0 -33 -28 -58t-63 -25q-15 0 -30.5 6.5z" />
    <glyph glyph-name="odieresis" unicode="&#xf6;" horiz-adv-x="586" 
d="M153 18q-55 34 -86 92.5t-31 129.5t31 129.5t86 92.5t125 34t125 -34t86 -92.5t31 -129.5t-31 -129.5t-86 -92.5t-125 -34t-125 34zM369.5 56.5q42.5 25.5 68.5 73t26 110.5t-26 110.5t-68.5 73t-91.5 25.5t-92 -25.5t-69 -73t-26 -110.5t26 -110.5t69 -73t92 -25.5
t91.5 25.5zM170.5 636.5q-11.5 11.5 -11.5 27.5q0 17 11.5 27.5t27.5 10.5q17 0 27.5 -10.5t10.5 -27.5q0 -16 -10.5 -27.5t-27.5 -11.5q-16 0 -27.5 11.5zM331 636.5q-12 11.5 -12 27.5q0 17 11.5 27.5t27.5 10.5q17 0 28 -10.5t11 -27.5q0 -16 -11 -27.5t-28 -11.5
q-15 0 -27 11.5z" />
    <glyph glyph-name="divide" unicode="&#xf7;" horiz-adv-x="514" 
d="M222 409q-14 14 -14 34q0 21 14 35t35 14t35 -14t14 -35q0 -20 -14 -34t-35 -14t-35 14zM55 276h404v-40h-404v40zM222 34q-14 14 -14 35q0 20 14 34t35 14t35 -14t14 -34q0 -21 -14 -35t-35 -14t-35 14z" />
    <glyph glyph-name="oslash" unicode="&#xf8;" horiz-adv-x="556" 
d="M497.5 352q22.5 -52 22.5 -112q0 -71 -31 -129.5t-86 -92.5t-125 -34q-58 0 -117 29l-25 -41l-29 17l26 42q-52 44 -74.5 95.5t-22.5 113.5q0 71 31 129.5t86 92.5t125 34q59 0 117 -30l27 43l28 -18l-26 -43q51 -44 73.5 -96zM105.5 154.5q14.5 -38.5 53.5 -79.5
l212 348q-53 26 -93 26q-49 0 -92 -25.5t-69 -73t-26 -110.5q0 -47 14.5 -85.5zM369.5 56.5q42.5 25.5 68.5 73t26 110.5q0 92 -66 164l-212 -348q51 -25 92 -25q49 0 91.5 25.5z" />
    <glyph glyph-name="ugrave" unicode="&#xf9;" horiz-adv-x="553" 
d="M102.5 33.5q-43.5 49.5 -43.5 140.5v306h56v-293q0 -79 36.5 -117.5t95.5 -38.5q47 0 82.5 25.5t55 65.5t19.5 85v273h56v-480h-52v74h-25q-23 -42 -64.5 -66t-88.5 -24q-84 0 -127.5 49.5zM168 706h59l39 -97h-45z" />
    <glyph glyph-name="uacute" unicode="&#xfa;" horiz-adv-x="553" 
d="M102.5 33.5q-43.5 49.5 -43.5 140.5v306h56v-293q0 -79 36.5 -117.5t95.5 -38.5q47 0 82.5 25.5t55 65.5t19.5 85v273h56v-480h-52v74h-25q-23 -42 -64.5 -66t-88.5 -24q-84 0 -127.5 49.5zM276 706h57l-53 -97h-43z" />
    <glyph glyph-name="ucircumflex" unicode="&#xfb;" horiz-adv-x="553" 
d="M102.5 33.5q-43.5 49.5 -43.5 140.5v306h56v-293q0 -79 36.5 -117.5t95.5 -38.5q47 0 82.5 25.5t55 65.5t19.5 85v273h56v-480h-52v74h-25q-23 -42 -64.5 -66t-88.5 -24q-84 0 -127.5 49.5zM151 614l78 92h61l78 -92h-46l-53 64h-20l-52 -64h-46z" />
    <glyph glyph-name="udieresis" unicode="&#xfc;" horiz-adv-x="553" 
d="M102.5 33.5q-43.5 49.5 -43.5 140.5v306h56v-293q0 -79 36.5 -117.5t95.5 -38.5q47 0 82.5 25.5t55 65.5t19.5 85v273h56v-480h-52v74h-25q-23 -42 -64.5 -66t-88.5 -24q-84 0 -127.5 49.5zM151.5 636.5q-11.5 11.5 -11.5 27.5q0 17 11.5 27.5t27.5 10.5q17 0 27.5 -10.5
t10.5 -27.5q0 -16 -10.5 -27.5t-27.5 -11.5q-16 0 -27.5 11.5zM312 636.5q-12 11.5 -12 27.5q0 17 11.5 27.5t27.5 10.5q17 0 28 -10.5t11 -27.5q0 -16 -11 -27.5t-28 -11.5q-15 0 -27 11.5z" />
    <glyph glyph-name="yacute" unicode="&#xfd;" horiz-adv-x="506" 
d="M207 17l-199 463h59l156 -379h20l150 379h59l-294 -696h-56zM254 706h58l-53 -97h-44z" />
    <glyph glyph-name="thorn" unicode="&#xfe;" horiz-adv-x="559" 
d="M60 686h56v-199l-5 -83h25q26 43 68 67.5t95 24.5q64 0 115 -33t80 -91.5t29 -131.5q0 -74 -29 -132t-80 -91t-115 -33q-53 0 -95 24.5t-68 66.5h-25l5 -83v-208h-56v902zM377.5 57q41.5 26 66 74t24.5 109t-24.5 109t-66 74t-87.5 26q-47 0 -88 -26t-65.5 -73.5
t-24.5 -109.5t24.5 -109.5t65.5 -73.5t88 -26q46 0 87.5 26z" />
    <glyph glyph-name="ydieresis" unicode="&#xff;" horiz-adv-x="506" 
d="M207 17l-199 463h59l156 -379h20l150 379h59l-294 -696h-56zM130.5 636.5q-11.5 11.5 -11.5 27.5q0 17 11.5 27.5t27.5 10.5q17 0 27.5 -10.5t10.5 -27.5q0 -16 -10.5 -27.5t-27.5 -11.5q-16 0 -27.5 11.5zM290.5 636.5q-11.5 11.5 -11.5 27.5q0 17 11 27.5t28 10.5
t28 -10.5t11 -27.5q0 -16 -11 -27.5t-28 -11.5q-16 0 -27.5 11.5z" />
    <glyph glyph-name="Amacron" unicode="&#x100;" horiz-adv-x="670" 
d="M275 686h76l260 -686h-61l-72 197h-330l-72 -197h-61zM461 247l-104 278l-31 87h-26l-31 -87l-104 -278h296zM197 846h247v-36h-247v36z" />
    <glyph glyph-name="amacron" unicode="&#x101;" horiz-adv-x="523" 
d="M116.5 4.5q-40.5 20.5 -61.5 55t-21 79.5q0 73 55 115t141 42q43 0 80 -9.5t76 -34.5v57q0 64 -43 102.5t-108 38.5q-44 0 -82.5 -20t-53.5 -44l-40 31q19 30 67.5 54.5t108.5 24.5q96 0 149.5 -50.5t53.5 -137.5v-308h-52v73h-25q-24 -41 -63.5 -65t-89.5 -24
q-51 0 -91.5 20.5zM300 53q39 24 62.5 64.5t23.5 96.5q-32 22 -67.5 32.5t-75.5 10.5q-73 0 -112 -33t-39 -86q0 -49 36 -79t88 -30q45 0 84 24zM119 682h243v-37h-243v37z" />
    <glyph glyph-name="Abreve" unicode="&#x102;" horiz-adv-x="670" 
d="M275 686h76l260 -686h-61l-72 197h-330l-72 -197h-61zM461 247l-104 278l-31 87h-26l-31 -87l-104 -278h296zM266 786.5q-26 14.5 -42 39.5t-16 40h39q0 -16 20 -38t54 -22q32 0 52 22t20 38h38q0 -15 -15.5 -40t-41 -39.5t-53.5 -14.5q-29 0 -55 14.5z" />
    <glyph glyph-name="abreve" unicode="&#x103;" horiz-adv-x="523" 
d="M116.5 4.5q-40.5 20.5 -61.5 55t-21 79.5q0 73 55 115t141 42q43 0 80 -9.5t76 -34.5v57q0 64 -43 102.5t-108 38.5q-44 0 -82.5 -20t-53.5 -44l-40 31q19 30 67.5 54.5t108.5 24.5q96 0 149.5 -50.5t53.5 -137.5v-308h-52v73h-25q-24 -41 -63.5 -65t-89.5 -24
q-51 0 -91.5 20.5zM300 53q39 24 62.5 64.5t23.5 96.5q-32 22 -67.5 32.5t-75.5 10.5q-73 0 -112 -33t-39 -86q0 -49 36 -79t88 -30q45 0 84 24zM186.5 621.5q-25.5 14.5 -41 39.5t-15.5 41h40q0 -16 19 -38.5t52 -22.5q30 0 49.5 22.5t19.5 38.5h39q0 -16 -15 -41
t-40 -39.5t-53 -14.5q-29 0 -54.5 14.5z" />
    <glyph glyph-name="Aogonek" unicode="&#x104;" horiz-adv-x="633" 
d="M528 -195q-28 29 -28 72q0 53 58 103l-80 217h-330l-72 -197h-61l260 686h76l264 -696q-29 -22 -49 -47t-20 -58q0 -29 17.5 -49t47.5 -20h25v-37q-6 -3 -32 -3q-48 0 -76 29zM461 247l-104 278l-31 87h-26l-31 -87l-104 -278h296z" />
    <glyph glyph-name="aogonek" unicode="&#x105;" horiz-adv-x="493" 
d="M347.5 -196q-27.5 28 -27.5 69q0 33 17.5 58t48.5 46v96h-25q-23 -41 -63 -65t-90 -24q-51 0 -91.5 20.5t-61.5 55t-21 79.5q0 73 55 115t141 42q44 0 80.5 -9.5t75.5 -34.5v57q0 64 -43 102.5t-108 38.5q-44 0 -82.5 -20t-53.5 -44l-40 31q19 30 67.5 54.5t108.5 24.5
q96 0 149.5 -50.5t53.5 -137.5v-316q-30 -24 -50.5 -49t-20.5 -58q0 -29 17.5 -49t45.5 -20q23 0 26 3v-40q-7 -3 -33 -3q-48 0 -75.5 28zM300 53q39 24 62.5 64.5t23.5 96.5q-32 22 -67.5 32.5t-75.5 10.5q-72 0 -111.5 -33t-39.5 -86q0 -49 36 -79t88 -30q45 0 84 24z" />
    <glyph glyph-name="Cacute" unicode="&#x106;" horiz-adv-x="741" 
d="M219.5 31q-81.5 47 -128 129t-46.5 183t46.5 183t128 129t181.5 47q77 0 140.5 -28.5t100.5 -72.5l-39 -38q-33 39 -84.5 63.5t-117.5 24.5q-82 0 -150.5 -38.5t-109 -108.5t-40.5 -161t40.5 -161t109 -108.5t150.5 -38.5q137 0 222 100l41 -39q-38 -46 -108.5 -79
t-154.5 -33q-100 0 -181.5 47zM411 870h57l-54 -97h-43z" />
    <glyph glyph-name="cacute" unicode="&#x107;" horiz-adv-x="536" 
d="M150.5 17.5q-54.5 33.5 -84.5 91.5t-30 131t30 131.5t84.5 91.5t123.5 33q76 0 128 -36t68 -82l-50 -20q-15 37 -55 64t-95 27q-48 0 -89 -26.5t-66 -74t-25 -108.5t25 -108.5t66 -74t89 -26.5q56 0 97.5 27.5t56.5 63.5l48 -20q-17 -45 -70 -81.5t-128 -36.5
q-69 0 -123.5 33.5zM288 706h58l-53 -97h-44z" />
    <glyph glyph-name="Ccircumflex" unicode="&#x108;" horiz-adv-x="741" 
d="M219.5 31q-81.5 47 -128 129t-46.5 183t46.5 183t128 129t181.5 47q77 0 140.5 -28.5t100.5 -72.5l-39 -38q-33 39 -84.5 63.5t-117.5 24.5q-82 0 -150.5 -38.5t-109 -108.5t-40.5 -161t40.5 -161t109 -108.5t150.5 -38.5q137 0 222 100l41 -39q-38 -46 -108.5 -79
t-154.5 -33q-100 0 -181.5 47zM283 779l80 91h61l80 -91h-46l-54 63h-22l-53 -63h-46z" />
    <glyph glyph-name="ccircumflex" unicode="&#x109;" horiz-adv-x="536" 
d="M150.5 17.5q-54.5 33.5 -84.5 91.5t-30 131t30 131.5t84.5 91.5t123.5 33q76 0 128 -36t68 -82l-50 -20q-15 37 -55 64t-95 27q-48 0 -89 -26.5t-66 -74t-25 -108.5t25 -108.5t66 -74t89 -26.5q56 0 97.5 27.5t56.5 63.5l48 -20q-17 -45 -70 -81.5t-128 -36.5
q-69 0 -123.5 33.5zM164 614l78 92h61l78 -92h-47l-52 64h-20l-52 -64h-46z" />
    <glyph glyph-name="Cdotaccent" unicode="&#x10a;" horiz-adv-x="741" 
d="M219.5 31q-81.5 47 -128 129t-46.5 183t46.5 183t128 129t181.5 47q77 0 140.5 -28.5t100.5 -72.5l-39 -38q-33 39 -84.5 63.5t-117.5 24.5q-82 0 -150.5 -38.5t-109 -108.5t-40.5 -161t40.5 -161t109 -108.5t150.5 -38.5q137 0 222 100l41 -39q-38 -46 -108.5 -79
t-154.5 -33q-100 0 -181.5 47zM369.5 817.5q-10.5 10.5 -10.5 23.5q0 14 10.5 24t23.5 10q16 0 25.5 -9.5t9.5 -24.5q0 -14 -10 -24t-25 -10q-13 0 -23.5 10.5z" />
    <glyph glyph-name="cdotaccent" unicode="&#x10b;" horiz-adv-x="536" 
d="M150.5 17.5q-54.5 33.5 -84.5 91.5t-30 131t30 131.5t84.5 91.5t123.5 33q76 0 128 -36t68 -82l-50 -20q-15 37 -55 64t-95 27q-48 0 -89 -26.5t-66 -74t-25 -108.5t25 -108.5t66 -74t89 -26.5q56 0 97.5 27.5t56.5 63.5l48 -20q-17 -45 -70 -81.5t-128 -36.5
q-69 0 -123.5 33.5zM244 636.5q-11 11.5 -11 27.5q0 17 11 27.5t28 10.5t27.5 -10.5t10.5 -27.5q0 -16 -10.5 -27.5t-27.5 -11.5t-28 11.5z" />
    <glyph glyph-name="Ccaron" unicode="&#x10c;" horiz-adv-x="741" 
d="M219.5 31q-81.5 47 -128 129t-46.5 183t46.5 183t128 129t181.5 47q77 0 140.5 -28.5t100.5 -72.5l-39 -38q-33 39 -84.5 63.5t-117.5 24.5q-82 0 -150.5 -38.5t-109 -108.5t-40.5 -161t40.5 -161t109 -108.5t150.5 -38.5q137 0 222 100l41 -39q-38 -46 -108.5 -79
t-154.5 -33q-100 0 -181.5 47zM283 870h46l53 -63h22l54 63h46l-80 -91h-61z" />
    <glyph glyph-name="ccaron" unicode="&#x10d;" horiz-adv-x="536" 
d="M150.5 17.5q-54.5 33.5 -84.5 91.5t-30 131t30 131.5t84.5 91.5t123.5 33q76 0 128 -36t68 -82l-50 -20q-15 37 -55 64t-95 27q-48 0 -89 -26.5t-66 -74t-25 -108.5t25 -108.5t66 -74t89 -26.5q56 0 97.5 27.5t56.5 63.5l48 -20q-17 -45 -70 -81.5t-128 -36.5
q-69 0 -123.5 33.5zM164 706h46l52 -64h20l52 64h47l-78 -92h-61z" />
    <glyph glyph-name="Dcaron" unicode="&#x10e;" horiz-adv-x="703" 
d="M80 686h201q106 0 184.5 -43.5t120.5 -121t42 -178.5t-42 -178.5t-120.5 -121t-184.5 -43.5h-201v686zM281 51q133 0 212 77.5t79 214.5t-79 214.5t-212 77.5h-146v-584h146zM193 870h46l53 -63h22l54 63h46l-80 -91h-61z" />
    <glyph glyph-name="dcaron" unicode="&#x10f;" horiz-adv-x="667" 
d="M145 17q-51 33 -80 91t-29 132q0 73 29 131.5t80 91.5t115 33q53 0 95 -24.5t68 -67.5h25l-5 86v196h56v-686h-52v75h-24q-26 -42 -68 -66.5t-95 -24.5q-64 0 -115 33zM357 57q41 26 65.5 73.5t24.5 109.5t-24.5 109.5t-65.5 73.5t-88 26q-46 0 -87.5 -26t-66 -74
t-24.5 -109t24.5 -109t66 -74t87.5 -26q47 0 88 26zM592 686h59l-24 -159h-35v159z" />
    <glyph glyph-name="Dcroat" unicode="&#x110;" horiz-adv-x="675" 
d="M82 339h-81v36h81v311h201q106 0 184.5 -43.5t120.5 -121t42 -178.5t-42 -178.5t-120.5 -121t-184.5 -43.5h-201v339zM283 51q133 0 212 77.5t79 214.5t-79 214.5t-212 77.5h-146v-260h184v-36h-184v-288h146z" />
    <glyph glyph-name="dcroat" unicode="&#x111;" horiz-adv-x="560" 
d="M561 583h-62v-583h-52v75h-24q-26 -42 -68 -66.5t-95 -24.5q-64 0 -115 33t-80 91t-29 132q0 73 29 131.5t80 91.5t115 33q53 0 95 -24.5t68 -67.5h25l-5 83v96h-150v37h150v66h56v-66h62v-37zM356.5 57q40.5 26 65.5 73.5t25 109.5t-25 109.5t-65.5 73.5t-87.5 26
t-88 -26t-66 -74t-25 -109t25 -109t66 -74t88 -26t87.5 26z" />
    <glyph glyph-name="Emacron" unicode="&#x112;" horiz-adv-x="551" 
d="M80 686h384v-51h-329v-267h297v-50h-297v-267h329v-51h-384v686zM149 846h247v-36h-247v36z" />
    <glyph glyph-name="emacron" unicode="&#x113;" horiz-adv-x="553" 
d="M148.5 17q-53.5 33 -83 91t-29.5 131q0 70 28 129t79.5 93.5t119.5 34.5q70 0 120.5 -31.5t77 -87t26.5 -127.5l-1 -11h-396q4 -78 30.5 -121t67 -65t85.5 -22q105 0 152 88l46 -23q-22 -44 -74.5 -78t-126.5 -34q-68 0 -121.5 33zM428 279q-3 51 -20 86t-54 59.5
t-91 24.5q-64 0 -108.5 -42t-61.5 -128h335zM143 682h243v-37h-243v37z" />
    <glyph glyph-name="Ebreve" unicode="&#x114;" horiz-adv-x="551" 
d="M80 686h384v-51h-329v-267h297v-50h-297v-267h329v-51h-384v686zM218 786.5q-26 14.5 -42 39.5t-16 40h39q0 -16 20 -38t54 -22q32 0 52 22t20 38h38q0 -15 -15.5 -40t-41 -39.5t-53.5 -14.5q-29 0 -55 14.5z" />
    <glyph glyph-name="ebreve" unicode="&#x115;" horiz-adv-x="553" 
d="M148.5 17q-53.5 33 -83 91t-29.5 131q0 70 28 129t79.5 93.5t119.5 34.5q70 0 120.5 -31.5t77 -87t26.5 -127.5l-1 -11h-396q4 -78 30.5 -121t67 -65t85.5 -22q105 0 152 88l46 -23q-22 -44 -74.5 -78t-126.5 -34q-68 0 -121.5 33zM428 279q-3 51 -20 86t-54 59.5
t-91 24.5q-64 0 -108.5 -42t-61.5 -128h335zM210.5 621.5q-25.5 14.5 -41 39.5t-15.5 41h40q0 -16 19.5 -38.5t51.5 -22.5q30 0 49.5 22.5t19.5 38.5h39q0 -16 -15 -41t-40 -39.5t-53 -14.5q-29 0 -54.5 14.5z" />
    <glyph glyph-name="Edotaccent" unicode="&#x116;" horiz-adv-x="551" 
d="M80 686h384v-51h-329v-267h297v-50h-297v-267h329v-51h-384v686zM248.5 817.5q-10.5 10.5 -10.5 23.5q0 14 10.5 24t23.5 10q16 0 25.5 -9.5t9.5 -24.5q0 -14 -10 -24t-25 -10q-13 0 -23.5 10.5z" />
    <glyph glyph-name="edotaccent" unicode="&#x117;" horiz-adv-x="553" 
d="M148.5 17q-53.5 33 -83 91t-29.5 131q0 70 28 129t79.5 93.5t119.5 34.5q70 0 120.5 -31.5t77 -87t26.5 -127.5l-1 -11h-396q4 -78 30.5 -121t67 -65t85.5 -22q105 0 152 88l46 -23q-22 -44 -74.5 -78t-126.5 -34q-68 0 -121.5 33zM428 279q-3 51 -20 86t-54 59.5
t-91 24.5q-64 0 -108.5 -42t-61.5 -128h335zM236.5 636.5q-11.5 11.5 -11.5 27.5q0 17 11.5 27.5t27.5 10.5q17 0 27.5 -10.5t10.5 -27.5q0 -16 -10.5 -27.5t-27.5 -11.5q-16 0 -27.5 11.5z" />
    <glyph glyph-name="Eogonek" unicode="&#x118;" horiz-adv-x="521" 
d="M374 -196.5q-28 27.5 -28 69.5q0 32 17 57t78 70h-361v686h384v-51h-329v-267h297v-50h-297v-267h329v-59q-32 -24 -52 -49t-20 -58q0 -29 17.5 -49t47.5 -20h25v-37q-6 -3 -32 -3q-48 0 -76 27.5z" />
    <glyph glyph-name="eogonek" unicode="&#x119;" horiz-adv-x="523" 
d="M272.5 -196.5q-27.5 27.5 -27.5 69.5q0 46 67 111h-42q-68 0 -121.5 33t-83 91t-29.5 131q0 70 28 129t79.5 93.5t119.5 34.5q70 0 120.5 -31.5t77 -87t26.5 -127.5l-1 -11h-396q4 -78 30.5 -121t67 -65t85.5 -22q105 0 152 88l46 -23q-20 -38 -83 -83q-52 -37 -74.5 -65
t-22.5 -63q0 -29 17.5 -49t46.5 -20q22 0 25 3v-40q-6 -3 -32 -3q-48 0 -75.5 27.5zM428 279q-3 51 -20 86t-54 59.5t-91 24.5q-64 0 -108.5 -42t-61.5 -128h335z" />
    <glyph glyph-name="Ecaron" unicode="&#x11a;" horiz-adv-x="551" 
d="M80 686h384v-51h-329v-267h297v-50h-297v-267h329v-51h-384v686zM162 870h46l53 -63h22l54 63h46l-80 -91h-61z" />
    <glyph glyph-name="ecaron" unicode="&#x11b;" horiz-adv-x="553" 
d="M148.5 17q-53.5 33 -83 91t-29.5 131q0 70 28 129t79.5 93.5t119.5 34.5q70 0 120.5 -31.5t77 -87t26.5 -127.5l-1 -11h-396q4 -78 30.5 -121t67 -65t85.5 -22q105 0 152 88l46 -23q-22 -44 -74.5 -78t-126.5 -34q-68 0 -121.5 33zM428 279q-3 51 -20 86t-54 59.5
t-91 24.5q-64 0 -108.5 -42t-61.5 -128h335zM156 706h46l52 -64h20l53 64h46l-78 -92h-61z" />
    <glyph glyph-name="Gcircumflex" unicode="&#x11c;" horiz-adv-x="813" 
d="M222.5 31q-81.5 47 -129.5 129.5t-48 182.5t48 182.5t129.5 129.5t178.5 47q76 0 142.5 -27t100.5 -64l-39 -40q-27 32 -83 56t-120 24q-79 0 -148.5 -38.5t-111 -108.5t-41.5 -161t41.5 -161t111 -108.5t148.5 -38.5q75 0 126.5 24t88.5 63q28 30 45 71.5t22 108.5h-266
v49h316q3 -14 3 -37q0 -64 -20 -123.5t-64 -104.5q-95 -102 -252 -102q-97 0 -178.5 47zM291 779l80 91h61l80 -91h-46l-54 63h-22l-53 -63h-46z" />
    <glyph glyph-name="gcircumflex" unicode="&#x11d;" horiz-adv-x="587" 
d="M130 -193q-53 39 -67 81l51 21q13 -34 54.5 -64t98.5 -30q82 0 128.5 50.5t46.5 140.5v72h-24q-27 -43 -68.5 -65.5t-94.5 -22.5q-61 0 -111 32t-79 89.5t-29 131.5q0 73 29 131t79 90t111 32q53 0 94.5 -22.5t68.5 -66.5h24v73h52v-475q0 -117 -62 -177t-165 -60
q-84 0 -137 39zM355 62q40 25 63.5 71.5t23.5 109.5q0 64 -23.5 110.5t-63.5 71t-88 24.5t-88.5 -25t-64 -71.5t-23.5 -109.5t23.5 -110t64 -71.5t88.5 -24.5t88 25zM169 614l78 92h61l78 -92h-47l-52 64h-20l-52 -64h-46z" />
    <glyph glyph-name="Gbreve" unicode="&#x11e;" horiz-adv-x="813" 
d="M222.5 31q-81.5 47 -129.5 129.5t-48 182.5t48 182.5t129.5 129.5t178.5 47q76 0 142.5 -27t100.5 -64l-39 -40q-27 32 -83 56t-120 24q-79 0 -148.5 -38.5t-111 -108.5t-41.5 -161t41.5 -161t111 -108.5t148.5 -38.5q75 0 126.5 24t88.5 63q28 30 45 71.5t22 108.5h-266
v49h316q3 -14 3 -37q0 -64 -20 -123.5t-64 -104.5q-95 -102 -252 -102q-97 0 -178.5 47zM347 786.5q-26 14.5 -42 39.5t-16 40h39q0 -16 20 -38t54 -22q32 0 52 22t20 38h38q0 -15 -15.5 -40t-41 -39.5t-53.5 -14.5q-29 0 -55 14.5z" />
    <glyph glyph-name="gbreve" unicode="&#x11f;" horiz-adv-x="587" 
d="M130 -193q-53 39 -67 81l51 21q13 -34 54.5 -64t98.5 -30q82 0 128.5 50.5t46.5 140.5v72h-24q-27 -43 -68.5 -65.5t-94.5 -22.5q-61 0 -111 32t-79 89.5t-29 131.5q0 73 29 131t79 90t111 32q53 0 94.5 -22.5t68.5 -66.5h24v73h52v-475q0 -117 -62 -177t-165 -60
q-84 0 -137 39zM355 62q40 25 63.5 71.5t23.5 109.5q0 64 -23.5 110.5t-63.5 71t-88 24.5t-88.5 -25t-64 -71.5t-23.5 -109.5t23.5 -110t64 -71.5t88.5 -24.5t88 25zM223.5 621.5q-25.5 14.5 -41 39.5t-15.5 41h40q0 -16 19 -38.5t52 -22.5q30 0 49.5 22.5t19.5 38.5h39
q0 -16 -15 -41t-40.5 -39.5t-52.5 -14.5q-29 0 -54.5 14.5z" />
    <glyph glyph-name="Gdotaccent" unicode="&#x120;" horiz-adv-x="813" 
d="M222.5 31q-81.5 47 -129.5 129.5t-48 182.5t48 182.5t129.5 129.5t178.5 47q76 0 142.5 -27t100.5 -64l-39 -40q-27 32 -83 56t-120 24q-79 0 -148.5 -38.5t-111 -108.5t-41.5 -161t41.5 -161t111 -108.5t148.5 -38.5q75 0 126.5 24t88.5 63q28 30 45 71.5t22 108.5h-266
v49h316q3 -14 3 -37q0 -64 -20 -123.5t-64 -104.5q-95 -102 -252 -102q-97 0 -178.5 47zM377.5 817.5q-10.5 10.5 -10.5 23.5q0 14 10.5 24t23.5 10q16 0 25.5 -9.5t9.5 -24.5q0 -14 -10 -24t-25 -10q-13 0 -23.5 10.5z" />
    <glyph glyph-name="gdotaccent" unicode="&#x121;" horiz-adv-x="587" 
d="M130 -193q-53 39 -67 81l51 21q13 -34 54.5 -64t98.5 -30q82 0 128.5 50.5t46.5 140.5v72h-24q-27 -43 -68.5 -65.5t-94.5 -22.5q-61 0 -111 32t-79 89.5t-29 131.5q0 73 29 131t79 90t111 32q53 0 94.5 -22.5t68.5 -66.5h24v73h52v-475q0 -117 -62 -177t-165 -60
q-84 0 -137 39zM355 62q40 25 63.5 71.5t23.5 109.5q0 64 -23.5 110.5t-63.5 71t-88 24.5t-88.5 -25t-64 -71.5t-23.5 -109.5t23.5 -110t64 -71.5t88.5 -24.5t88 25zM249 636.5q-11 11.5 -11 27.5q0 17 11 27.5t28 10.5t27.5 -10.5t10.5 -27.5q0 -16 -10.5 -27.5
t-27.5 -11.5t-28 11.5z" />
    <glyph glyph-name="uni0122" unicode="&#x122;" horiz-adv-x="813" 
d="M222.5 31q-81.5 47 -129.5 129.5t-48 182.5t48 182.5t129.5 129.5t178.5 47q76 0 142.5 -27t100.5 -64l-39 -40q-27 32 -83 56t-120 24q-79 0 -148.5 -38.5t-111 -108.5t-41.5 -161t41.5 -161t111 -108.5t148.5 -38.5q75 0 126.5 24t88.5 63q28 30 45 71.5t22 108.5h-266
v49h316q3 -14 3 -37q0 -64 -20 -123.5t-64 -104.5q-95 -102 -252 -102q-97 0 -178.5 47zM358 -223l44 63q-35 7 -43 17.5t-8 24.5q0 15 11.5 27.5t29.5 12.5q19 0 30 -12t11 -31q0 -15 -10 -35l-52 -76z" />
    <glyph glyph-name="uni0123" unicode="&#x123;" horiz-adv-x="587" 
d="M130 -193q-53 39 -67 81l51 21q13 -34 54.5 -64t98.5 -30q82 0 128.5 50.5t46.5 140.5v72h-24q-27 -43 -68.5 -65.5t-94.5 -22.5q-61 0 -111 32t-79 89.5t-29 131.5q0 73 29 131t79 90t111 32q53 0 94.5 -22.5t68.5 -66.5h24v73h52v-475q0 -117 -62 -177t-165 -60
q-84 0 -137 39zM355 62q40 25 63.5 71.5t23.5 109.5q0 64 -23.5 110.5t-63.5 71t-88 24.5t-88.5 -25t-64 -71.5t-23.5 -109.5t23.5 -110t64 -71.5t88.5 -24.5t88 25zM309 737l-43 -63q34 -7 42 -17.5t8 -24.5q0 -15 -11.5 -27.5t-29.5 -12.5q-20 0 -30.5 12t-10.5 31
q0 15 9 35l52 77z" />
    <glyph glyph-name="Hcircumflex" unicode="&#x124;" horiz-adv-x="698" 
d="M80 686h55v-309h398v309h55v-686h-55v326h-398v-326h-55v686zM224 779l80 91h61l80 -91h-46l-54 63h-22l-53 -63h-46z" />
    <glyph glyph-name="hcircumflex" unicode="&#x125;" horiz-adv-x="554" 
d="M61 686h56v-196l-5 -85h26q22 43 63.5 67t90.5 24q85 0 129 -50t44 -134v-312h-56v299q0 75 -38.5 112.5t-97.5 37.5q-44 0 -79.5 -26.5t-56 -67.5t-20.5 -86v-269h-56v686zM-21 778l78 92h61l78 -92h-46l-53 64h-19l-52 -64h-47z" />
    <glyph glyph-name="Hbar" unicode="&#x126;" horiz-adv-x="668" 
d="M652 509h-64v-509h-54v326h-399v-326h-55v509h-64v36h64v141h55v-141h399v141h54v-141h64v-36zM534 509h-399v-133h399v133z" />
    <glyph glyph-name="hbar" unicode="&#x127;" horiz-adv-x="524" 
d="M421 446q44 -50 44 -134v-312h-56v299q0 75 -38 112.5t-98 37.5q-43 0 -79 -26.5t-56.5 -67.5t-20.5 -86v-269h-56v583h-62v37h62v66h56v-66h149v-37h-149v-93l-5 -85h26q23 43 64 67t90 24q85 0 129 -50z" />
    <glyph glyph-name="Itilde" unicode="&#x128;" horiz-adv-x="245" 
d="M80 686h55v-686h-55v686zM134.5 786.5q-15.5 6.5 -39.5 20.5q-33 20 -48 20q-47 0 -50 -37h-41q0 19 13.5 40.5t35.5 32.5t43 11q27 0 72 -28q34 -19 47 -19q47 0 50 37h41q0 -33 -29 -58.5t-64 -25.5q-15 0 -30.5 6.5z" />
    <glyph glyph-name="itilde" unicode="&#x129;" horiz-adv-x="221" 
d="M68 480h55v-480h-55v480zM122.5 622.5q-15.5 6.5 -39.5 20.5q-31 20 -45 20q-45 0 -48 -37h-42q0 33 28 58t62 25q27 0 72 -28q32 -19 45 -19q44 0 47 37h42q0 -33 -28 -58t-63 -25q-15 0 -30.5 6.5z" />
    <glyph glyph-name="Imacron" unicode="&#x12a;" horiz-adv-x="215" 
d="M-1 846h216v-36h-216v36zM81 686h55v-686h-55v686z" />
    <glyph glyph-name="imacron" unicode="&#x12b;" horiz-adv-x="223" 
d="M69 480h55v-480h-55v480zM-24 682h243v-37h-243v37z" />
    <glyph glyph-name="Ibreve" unicode="&#x12c;" horiz-adv-x="245" 
d="M80 686h55v-686h-55v686zM53 786.5q-26 14.5 -42 39.5t-16 40h39q0 -16 20 -38t54 -22q32 0 52 22t20 38h38q0 -15 -15.5 -40t-41 -39.5t-53.5 -14.5q-29 0 -55 14.5z" />
    <glyph glyph-name="ibreve" unicode="&#x12d;" horiz-adv-x="223" 
d="M69 480h55v-480h-55v480zM43.5 621.5q-25.5 14.5 -41 39.5t-15.5 41h40q0 -16 19.5 -38.5t51.5 -22.5q30 0 49.5 22.5t19.5 38.5h39q0 -16 -15 -41t-40 -39.5t-53 -14.5q-29 0 -54.5 14.5z" />
    <glyph glyph-name="Iogonek" unicode="&#x12e;" horiz-adv-x="212" 
d="M43 -196q-28 28 -28 69q0 56 64 105v708h54v-694q-32 -24 -52 -49t-20 -58q0 -29 17.5 -49t47.5 -20h25v-37q-6 -3 -32 -3q-48 0 -76 28z" />
    <glyph glyph-name="iogonek" unicode="&#x12f;" horiz-adv-x="194" 
d="M64 617.5q-13 13.5 -13 32.5q0 20 13 33t32 13q21 0 33.5 -13t12.5 -33q0 -19 -12.5 -32.5t-33.5 -13.5q-19 0 -32 13.5zM34.5 -196q-27.5 28 -27.5 69q0 56 62 105v502h55v-488q-31 -24 -50.5 -49t-19.5 -58q0 -29 16.5 -49t45.5 -20h25v-37q-6 -3 -32 -3
q-47 0 -74.5 28z" />
    <glyph glyph-name="Idotaccent" unicode="&#x130;" horiz-adv-x="245" 
d="M80 686h55v-686h-55v686zM83.5 817.5q-10.5 10.5 -10.5 23.5q0 14 10.5 24t23.5 10q16 0 25.5 -9.5t9.5 -24.5q0 -14 -10 -24t-25 -10q-13 0 -23.5 10.5z" />
    <glyph glyph-name="dotlessi" unicode="&#x131;" horiz-adv-x="197" 
d="M71 480h55v-480h-55v480z" />
    <glyph glyph-name="Jcircumflex" unicode="&#x134;" horiz-adv-x="530" 
d="M100 24.5q-55 40.5 -74 101.5l52 22q35 -113 151 -113q66 0 105.5 45.5t39.5 118.5v487h55v-480q0 -71 -25.5 -121t-70.5 -75.5t-104 -25.5q-74 0 -129 40.5zM295 779l80 91h61l80 -91h-46l-54 63h-22l-53 -63h-46z" />
    <glyph glyph-name="jcircumflex" unicode="&#x135;" horiz-adv-x="222" 
d="M-17 -223v43q-13 8 1.5 4.5t25.5 -3.5q37 0 54 24.5t17 67.5v567h56v-567q0 -71 -32.5 -105t-91.5 -34q-22 0 -30 3zM-12 614l78 92h61l78 -92h-47l-52 64h-20l-52 -64h-46z" />
    <glyph glyph-name="uni0136" unicode="&#x136;" horiz-adv-x="626" 
d="M80 686h55v-377h26l322 377h72l-254 -294l277 -392h-69l-245 350l-129 -149v-201h-55v686zM264 -223l44 63q-35 7 -43 17.5t-8 24.5q0 15 11.5 27.5t29.5 12.5q19 0 30 -12t11 -31q0 -15 -10 -35l-52 -76z" />
    <glyph glyph-name="uni0137" unicode="&#x137;" horiz-adv-x="497" 
d="M63 686h56v-470l252 264h70l-182 -189l194 -291h-68l-165 253l-101 -105v-148h-56v686zM209 -223l43 63q-34 7 -42 17.5t-8 24.5q0 15 11.5 27.5t29.5 12.5q20 0 30.5 -12t10.5 -31q0 -15 -9 -35l-52 -77z" />
    <glyph glyph-name="kgreenlandic" unicode="&#x138;" horiz-adv-x="480" 
d="M63 480h55v-223v-8v-249h-55v480zM146 253l206 227h68l-214 -227l225 -253h-67z" />
    <glyph glyph-name="Lacute" unicode="&#x139;" horiz-adv-x="509" 
d="M80 686h55v-635h313v-51h-368v686zM125 870h57l-54 -97h-43z" />
    <glyph glyph-name="lacute" unicode="&#x13a;" horiz-adv-x="211" 
d="M63 690l56 21v-711h-56v690zM107 870h58l-53 -97h-44z" />
    <glyph glyph-name="uni013B" unicode="&#x13b;" horiz-adv-x="509" 
d="M80 686h55v-635h313v-51h-368v686zM230 -223l44 63q-35 7 -43 17.5t-8 24.5q0 15 11.5 27.5t29.5 12.5q19 0 30 -12t11 -31q0 -15 -10 -35l-52 -76z" />
    <glyph glyph-name="uni013C" unicode="&#x13c;" horiz-adv-x="211" 
d="M63 690l55 21v-711h-55v690zM56 -223l43 63q-34 7 -42 17.5t-8 24.5q0 15 11.5 27.5t29.5 12.5q19 0 30 -12t11 -31q0 -15 -10 -35l-51 -77z" />
    <glyph glyph-name="Lcaron" unicode="&#x13d;" horiz-adv-x="509" 
d="M80 686h55v-635h313v-51h-368v686zM317 686h59l-25 -159h-34v159z" />
    <glyph glyph-name="lcaron" unicode="&#x13e;" horiz-adv-x="302" 
d="M63 690l55 21v-711h-55v690zM211 686h59l-24 -159h-35v159z" />
    <glyph glyph-name="Ldot" unicode="&#x13f;" horiz-adv-x="509" 
d="M80 686h55v-635h313v-51h-368v686zM281 294q-14 14 -14 35t14 35t35 14q20 0 34 -14t14 -35t-14 -35t-34 -14q-21 0 -35 14z" />
    <glyph glyph-name="Lslash" unicode="&#x141;" horiz-adv-x="546" 
d="M148 293l-76 -46l-22 36l98 62v341h54v-301l141 87l23 -37l-164 -102v-282h314v-51h-368v293z" />
    <glyph glyph-name="lslash" unicode="&#x142;" horiz-adv-x="321" 
d="M130 328l-69 -51l-25 35l94 71v303h55v-267l83 63l26 -36l-109 -81v-365h-55v328z" />
    <glyph glyph-name="Nacute" unicode="&#x143;" horiz-adv-x="708" 
d="M80 686h81l359 -570h27l-4 153v417h55v-686h-65l-375 597h-27l4 -153v-444h-55v686zM357 870h57l-54 -97h-43z" />
    <glyph glyph-name="nacute" unicode="&#x144;" horiz-adv-x="553" 
d="M63 480h52v-75h25q23 42 64.5 66.5t88.5 24.5q84 0 127.5 -49t43.5 -135v-312h-56v299q0 77 -37.5 113.5t-99.5 36.5q-44 0 -79 -25.5t-54 -66.5t-19 -85v-272h-56v480zM290 706h58l-53 -97h-44z" />
    <glyph glyph-name="uni0145" unicode="&#x145;" horiz-adv-x="708" 
d="M80 686h81l359 -570h27l-4 153v417h55v-686h-65l-375 597h-27l4 -153v-444h-55v686zM305 -223l44 63q-35 7 -43 17.5t-8 24.5q0 15 11.5 27.5t29.5 12.5q19 0 30 -12t11 -31q0 -15 -10 -35l-52 -76z" />
    <glyph glyph-name="uni0146" unicode="&#x146;" horiz-adv-x="553" 
d="M63 480h52v-75h25q23 42 64.5 66.5t88.5 24.5q84 0 127.5 -49t43.5 -135v-312h-56v299q0 77 -37.5 113.5t-99.5 36.5q-44 0 -79 -25.5t-54 -66.5t-19 -85v-272h-56v480zM230 -223l43 63q-34 7 -42 17.5t-8 24.5q0 15 11.5 27.5t29.5 12.5q19 0 30 -12t11 -31
q0 -15 -10 -35l-51 -77z" />
    <glyph glyph-name="Ncaron" unicode="&#x147;" horiz-adv-x="708" 
d="M80 686h81l359 -570h27l-4 153v417h55v-686h-65l-375 597h-27l4 -153v-444h-55v686zM229 870h46l53 -63h22l54 63h46l-80 -91h-61z" />
    <glyph glyph-name="ncaron" unicode="&#x148;" horiz-adv-x="553" 
d="M63 480h52v-75h25q23 42 64.5 66.5t88.5 24.5q84 0 127.5 -49t43.5 -135v-312h-56v299q0 77 -37.5 113.5t-99.5 36.5q-44 0 -79 -25.5t-54 -66.5t-19 -85v-272h-56v480zM166 706h46l52 -64h20l52 64h47l-78 -92h-61z" />
    <glyph glyph-name="Eng" unicode="&#x14a;" horiz-adv-x="678" 
d="M444 -224v46q1 -1 26 -1q39 0 56 24.5t17 67.5v79l-385 605h-27l4 -153v-444h-55v686h81l359 -570h27l-4 153v417h55v-773q0 -71 -32.5 -105t-93.5 -34q-22 0 -28 2z" />
    <glyph glyph-name="eng" unicode="&#x14b;" horiz-adv-x="523" 
d="M310 -223v43q-13 8 2 4.5t26 -3.5q37 0 53.5 24.5t16.5 67.5v386q0 77 -37.5 113.5t-99.5 36.5q-44 0 -79 -25.5t-54 -66.5t-19 -85v-272h-56v480h52v-75h25q23 42 64.5 66.5t88.5 24.5q84 0 127.5 -49t43.5 -135v-399q0 -71 -32 -105t-92 -34q-20 0 -30 3z" />
    <glyph glyph-name="Omacron" unicode="&#x14c;" horiz-adv-x="824" 
d="M217.5 32q-80.5 48 -126.5 130.5t-46 180.5t46 180.5t126.5 130.5t179.5 48t179.5 -48t126.5 -130.5t46 -180.5t-46 -180.5t-126.5 -130.5t-179.5 -48t-179.5 48zM546 74.5q68 39.5 107.5 109.5t39.5 159t-39.5 159t-107.5 109.5t-149 39.5t-149 -39.5t-107.5 -109.5
t-39.5 -159t39.5 -159t107.5 -109.5t149 -39.5t149 39.5zM274 846h247v-36h-247v36z" />
    <glyph glyph-name="omacron" unicode="&#x14d;" horiz-adv-x="586" 
d="M153 18q-55 34 -86 92.5t-31 129.5t31 129.5t86 92.5t125 34t125 -34t86 -92.5t31 -129.5t-31 -129.5t-86 -92.5t-125 -34t-125 34zM369.5 56.5q42.5 25.5 68.5 73t26 110.5t-26 110.5t-68.5 73t-91.5 25.5t-92 -25.5t-69 -73t-26 -110.5t26 -110.5t69 -73t92 -25.5
t91.5 25.5zM157 682h243v-37h-243v37z" />
    <glyph glyph-name="Obreve" unicode="&#x14e;" horiz-adv-x="824" 
d="M217.5 32q-80.5 48 -126.5 130.5t-46 180.5t46 180.5t126.5 130.5t179.5 48t179.5 -48t126.5 -130.5t46 -180.5t-46 -180.5t-126.5 -130.5t-179.5 -48t-179.5 48zM546 74.5q68 39.5 107.5 109.5t39.5 159t-39.5 159t-107.5 109.5t-149 39.5t-149 -39.5t-107.5 -109.5
t-39.5 -159t39.5 -159t107.5 -109.5t149 -39.5t149 39.5zM343 786.5q-26 14.5 -42 39.5t-16 40h39q0 -16 20 -38t54 -22q32 0 52 22t20 38h38q0 -15 -15.5 -40t-41 -39.5t-53.5 -14.5q-29 0 -55 14.5z" />
    <glyph glyph-name="obreve" unicode="&#x14f;" horiz-adv-x="586" 
d="M153 18q-55 34 -86 92.5t-31 129.5t31 129.5t86 92.5t125 34t125 -34t86 -92.5t31 -129.5t-31 -129.5t-86 -92.5t-125 -34t-125 34zM369.5 56.5q42.5 25.5 68.5 73t26 110.5t-26 110.5t-68.5 73t-91.5 25.5t-92 -25.5t-69 -73t-26 -110.5t26 -110.5t69 -73t92 -25.5
t91.5 25.5zM224.5 621.5q-25.5 14.5 -41 39.5t-15.5 41h40q0 -16 19.5 -38.5t51.5 -22.5q30 0 49.5 22.5t19.5 38.5h39q0 -16 -15 -41t-40 -39.5t-53 -14.5q-29 0 -54.5 14.5z" />
    <glyph glyph-name="Ohungarumlaut" unicode="&#x150;" horiz-adv-x="824" 
d="M217.5 32q-80.5 48 -126.5 130.5t-46 180.5t46 180.5t126.5 130.5t179.5 48t179.5 -48t126.5 -130.5t46 -180.5t-46 -180.5t-126.5 -130.5t-179.5 -48t-179.5 48zM546 74.5q68 39.5 107.5 109.5t39.5 159t-39.5 159t-107.5 109.5t-149 39.5t-149 -39.5t-107.5 -109.5
t-39.5 -159t39.5 -159t107.5 -109.5t149 -39.5t149 39.5zM352 870h57l-54 -97h-43zM479 870h57l-54 -97h-43z" />
    <glyph glyph-name="ohungarumlaut" unicode="&#x151;" horiz-adv-x="586" 
d="M153 18q-55 34 -86 92.5t-31 129.5t31 129.5t86 92.5t125 34t125 -34t86 -92.5t31 -129.5t-31 -129.5t-86 -92.5t-125 -34t-125 34zM369.5 56.5q42.5 25.5 68.5 73t26 110.5t-26 110.5t-68.5 73t-91.5 25.5t-92 -25.5t-69 -73t-26 -110.5t26 -110.5t69 -73t92 -25.5
t91.5 25.5zM218 706h57l-53 -97h-43zM373 706h57l-53 -97h-43z" />
    <glyph glyph-name="OE" unicode="&#x152;" horiz-adv-x="1135" 
d="M217.5 32q-80.5 48 -126.5 130t-46 181q0 98 46 180.5t126.5 130.5t179.5 48q85 0 154.5 -35t141.5 -134v153h385v-51h-330v-267h298v-50h-298v-267h330v-51h-385v152q-72 -98 -141.5 -133t-154.5 -35q-99 0 -179.5 48zM546 74.5q68 39.5 107.5 109.5t39.5 159t-39.5 159
t-107.5 109.5t-149 39.5t-148.5 -39.5t-107.5 -110t-40 -158.5t40 -158.5t107.5 -110t148.5 -39.5t149 39.5z" />
    <glyph glyph-name="oe" unicode="&#x153;" horiz-adv-x="953" 
d="M153 18q-55 34 -86 92.5t-31 129.5t31 129.5t86 92.5t125 34q67 0 119.5 -31.5t94.5 -108.5q40 77 89 108.5t111 31.5q70 0 120.5 -31.5t77.5 -87t27 -127.5l-1 -11h-396q4 -78 30.5 -121t67 -65t85.5 -22q105 0 152 88l46 -23q-22 -44 -74.5 -78t-127.5 -34
q-65 0 -116 31t-92 110q-41 -79 -93.5 -110t-119.5 -31q-70 0 -125 34zM370 56.5q43 25.5 68.5 73t25.5 110.5t-25.5 110.5t-68.5 73t-92 25.5t-92 -25.5t-69 -73t-26 -110.5t26 -110.5t69 -73t92 -25.5t92 25.5zM857 279q-3 51 -20 86t-53.5 59.5t-91.5 24.5
q-63 0 -108 -42t-61 -128h334z" />
    <glyph glyph-name="Racute" unicode="&#x154;" horiz-adv-x="586" 
d="M80 686h227q55 0 102.5 -25t76 -70t28.5 -102q0 -46 -21 -86t-57.5 -67t-87.5 -38l-11 -16l205 -298v16h-77l-195 292h-135v-292h-55v686zM302 341q41 0 76.5 19t57.5 53t22 76q0 37 -19 70.5t-53 54.5t-78 21h-173v-294h167zM283 870h57l-54 -97h-43z" />
    <glyph glyph-name="racute" unicode="&#x155;" horiz-adv-x="371" 
d="M63 480h52v-82h27q16 47 54 72t81 25q31 0 45 -5v-59q-14 8 -57 8q-40 0 -73.5 -23.5t-53 -62t-19.5 -83.5v-270h-56v480zM204 706h57l-53 -97h-43z" />
    <glyph glyph-name="uni0156" unicode="&#x156;" horiz-adv-x="586" 
d="M80 686h227q55 0 102.5 -25t76 -70t28.5 -102q0 -46 -21 -86t-57.5 -67t-87.5 -38l-11 -16l205 -298v16h-77l-195 292h-135v-292h-55v686zM302 341q41 0 76.5 19t57.5 53t22 76q0 37 -19 70.5t-53 54.5t-78 21h-173v-294h167zM244 -223l44 63q-35 7 -43 17.5t-8 24.5
q0 15 11.5 27.5t29.5 12.5q19 0 30 -12t11 -31q0 -15 -10 -35l-52 -76z" />
    <glyph glyph-name="uni0157" unicode="&#x157;" horiz-adv-x="371" 
d="M63 480h52v-82h27q16 47 54 72t81 25q31 0 45 -5v-59q-15 8 -57 8q-40 0 -73.5 -23.5t-53 -62t-19.5 -83.5v-270h-56v480zM57 -223l42 63q-34 7 -42 17.5t-8 24.5q0 15 11.5 27.5t29.5 12.5q20 0 30.5 -12t10.5 -31q0 -15 -9 -35l-52 -77z" />
    <glyph glyph-name="Rcaron" unicode="&#x158;" horiz-adv-x="586" 
d="M80 686h227q55 0 102.5 -25t76 -70t28.5 -102q0 -46 -21 -86t-57.5 -67t-87.5 -38l-11 -16l205 -298v16h-77l-195 292h-135v-292h-55v686zM302 341q41 0 76.5 19t57.5 53t22 76q0 37 -19 70.5t-53 54.5t-78 21h-173v-294h167zM155 870h46l53 -63h22l54 63h46l-80 -91h-61
z" />
    <glyph glyph-name="rcaron" unicode="&#x159;" horiz-adv-x="371" 
d="M63 480h52v-82h27q16 47 54 72t81 25q31 0 45 -5v-59q-14 8 -57 8q-40 0 -73.5 -23.5t-53 -62t-19.5 -83.5v-270h-56v480zM79 706h47l51 -64h20l53 64h46l-78 -92h-61z" />
    <glyph glyph-name="Sacute" unicode="&#x15a;" horiz-adv-x="562" 
d="M163.5 5q-47.5 21 -84 62t-49.5 87l53 22q14 -52 63.5 -96.5t117.5 -44.5q67 0 115 37.5t48 102.5q0 57 -40 92.5t-126 64.5l-45 16q-73 26 -117.5 67t-44.5 112q0 47 25.5 87t72.5 64t105 24t101 -21.5t69 -52t31 -47.5l-50 -22q-8 26 -47.5 59t-102.5 33
q-60 0 -104 -35t-44 -89q0 -49 37 -78.5t106 -53.5l47 -16q88 -32 135.5 -78t47.5 -125q0 -64 -32.5 -107.5t-83.5 -64t-105 -20.5q-51 0 -98.5 21zM278 870h57l-54 -97h-43z" />
    <glyph glyph-name="sacute" unicode="&#x15b;" horiz-adv-x="465" 
d="M91.5 20q-50.5 36 -65.5 78l49 23q15 -37 55 -64.5t88 -27.5q50 0 88.5 22.5t38.5 67.5q0 40 -31 62.5t-89 37.5l-60 16q-57 14 -91.5 46.5t-34.5 82.5q0 39 23 69t63.5 46.5t87.5 16.5q62 0 109.5 -27t61.5 -60l-48 -23q-31 64 -124 64q-44 0 -80 -23t-36 -61
q0 -35 25.5 -56t70.5 -33l72 -19q70 -18 103.5 -51.5t33.5 -81.5q0 -42 -23.5 -74t-65.5 -49.5t-94 -17.5q-76 0 -126.5 36zM234 706h57l-53 -97h-43z" />
    <glyph glyph-name="Scircumflex" unicode="&#x15c;" horiz-adv-x="562" 
d="M163.5 5q-47.5 21 -84 62t-49.5 87l53 22q14 -52 63.5 -96.5t117.5 -44.5q67 0 115 37.5t48 102.5q0 57 -40 92.5t-126 64.5l-45 16q-73 26 -117.5 67t-44.5 112q0 47 25.5 87t72.5 64t105 24t101 -21.5t69 -52t31 -47.5l-50 -22q-8 26 -47.5 59t-102.5 33
q-60 0 -104 -35t-44 -89q0 -49 37 -78.5t106 -53.5l47 -16q88 -32 135.5 -78t47.5 -125q0 -64 -32.5 -107.5t-83.5 -64t-105 -20.5q-51 0 -98.5 21zM150 779l80 91h61l80 -91h-46l-54 63h-22l-53 -63h-46z" />
    <glyph glyph-name="scircumflex" unicode="&#x15d;" horiz-adv-x="465" 
d="M91.5 20q-50.5 36 -65.5 78l49 23q15 -37 55 -64.5t88 -27.5q50 0 88.5 22.5t38.5 67.5q0 40 -31 62.5t-89 37.5l-60 16q-57 14 -91.5 46.5t-34.5 82.5q0 39 23 69t63.5 46.5t87.5 16.5q62 0 109.5 -27t61.5 -60l-48 -23q-31 64 -124 64q-44 0 -80 -23t-36 -61
q0 -35 25.5 -56t70.5 -33l72 -19q70 -18 103.5 -51.5t33.5 -81.5q0 -42 -23.5 -74t-65.5 -49.5t-94 -17.5q-76 0 -126.5 36zM109 614l78 92h61l78 -92h-46l-53 64h-20l-52 -64h-46z" />
    <glyph glyph-name="Scedilla" unicode="&#x15e;" horiz-adv-x="529" 
d="M454.5 74.5q-28.5 -41.5 -74.5 -63.5t-106 -27l-30 -67q44 7 48 7q32 0 54 -22.5t22 -57.5q0 -34 -24.5 -57.5t-61.5 -23.5q-27 0 -49 16t-26 28l22 10q1 -3 16 -17t37 -14q26 0 42.5 17t16.5 41q0 25 -16 42.5t-43 17.5q-28 0 -39 -14l-21 10l32 84q-91 10 -148 57
t-76 113l53 22q14 -52 63.5 -96.5t117.5 -44.5q67 0 115 37.5t48 102.5q0 57 -40 92.5t-126 64.5l-45 16q-73 26 -117.5 67t-44.5 112q0 47 25.5 87t72.5 64t105 24t101 -21.5t69 -52t31 -47.5l-50 -22q-8 26 -47.5 59t-102.5 33q-60 0 -104 -35t-44 -89q0 -49 37 -78.5
t106 -53.5l47 -16q88 -32 135.5 -78t47.5 -125q0 -60 -28.5 -101.5z" />
    <glyph glyph-name="scedilla" unicode="&#x15f;" horiz-adv-x="431" 
d="M355.5 28q-45.5 -38 -125.5 -44l-30 -67q42 7 46 7q32 0 53.5 -22.5t21.5 -57.5q0 -34 -24 -57.5t-61 -23.5q-27 0 -48.5 16t-25.5 28l24 11q1 -4 15.5 -18t34.5 -14q25 0 41 17t16 41q0 25 -15.5 42.5t-41.5 17.5t-37 -14l-22 10l31 84q-82 8 -125.5 42.5t-56.5 71.5
l49 23q15 -37 55 -64.5t88 -27.5q50 0 88.5 22.5t38.5 67.5q0 40 -31 62.5t-89 37.5l-60 16q-57 14 -91.5 46.5t-34.5 82.5q0 39 23 69t63.5 46.5t87.5 16.5q62 0 109.5 -27t61.5 -60l-48 -23q-31 64 -124 64q-44 0 -80 -23t-36 -61q0 -35 25.5 -56t70.5 -33l72 -19
q70 -18 103.5 -51.5t33.5 -81.5q0 -59 -45.5 -97z" />
    <glyph glyph-name="Scaron" unicode="&#x160;" horiz-adv-x="562" 
d="M163.5 5q-47.5 21 -84 62t-49.5 87l53 22q14 -52 63.5 -96.5t117.5 -44.5q67 0 115 37.5t48 102.5q0 57 -40 92.5t-126 64.5l-45 16q-73 26 -117.5 67t-44.5 112q0 47 25.5 87t72.5 64t105 24t101 -21.5t69 -52t31 -47.5l-50 -22q-8 26 -47.5 59t-102.5 33
q-60 0 -104 -35t-44 -89q0 -49 37 -78.5t106 -53.5l47 -16q88 -32 135.5 -78t47.5 -125q0 -64 -32.5 -107.5t-83.5 -64t-105 -20.5q-51 0 -98.5 21zM150 870h46l53 -63h22l54 63h46l-80 -91h-61z" />
    <glyph glyph-name="scaron" unicode="&#x161;" horiz-adv-x="465" 
d="M91.5 20q-50.5 36 -65.5 78l49 23q15 -37 55 -64.5t88 -27.5q50 0 88.5 22.5t38.5 67.5q0 40 -31 62.5t-89 37.5l-60 16q-57 14 -91.5 46.5t-34.5 82.5q0 39 23 69t63.5 46.5t87.5 16.5q62 0 109.5 -27t61.5 -60l-48 -23q-31 64 -124 64q-44 0 -80 -23t-36 -61
q0 -35 25.5 -56t70.5 -33l72 -19q70 -18 103.5 -51.5t33.5 -81.5q0 -42 -23.5 -74t-65.5 -49.5t-94 -17.5q-76 0 -126.5 36zM109 706h46l52 -64h20l53 64h46l-78 -92h-61z" />
    <glyph glyph-name="uni0162" unicode="&#x162;" horiz-adv-x="509" 
d="M221 -221q-22 16 -26 28l22 10q1 -4 16 -17.5t37 -13.5q25 0 42 17t17 41t-16.5 42t-42.5 18q-28 0 -39 -14l-21 10l36 100h-19v635h-201v51h456v-51h-200v-635h-13l-38 -84q42 8 49 8q31 0 53 -22.5t22 -57.5q0 -34 -24 -57.5t-61 -23.5q-27 0 -49 16z" />
    <glyph glyph-name="uni0163" unicode="&#x163;" horiz-adv-x="332" 
d="M207 -5l-37 -79q43 8 47 8q31 0 52.5 -22.5t21.5 -57.5q0 -34 -23.5 -57.5t-60.5 -23.5q-27 0 -48.5 16t-25.5 28l23 11q1 -4 15.5 -18.5t35.5 -14.5q25 0 40.5 17.5t15.5 41.5q0 25 -15.5 42.5t-40.5 17.5q-27 0 -38 -14l-22 10l41 100q-27 14 -39 25q-34 33 -34 94v314
h-87v47h87v144h56v-144h122v-47h-122v-293q0 -47 18 -72q23 -27 65 -27q34 0 41 5v-46q-6 -3 -19 -5.5t-36 -2.5q-9 0 -33 3z" />
    <glyph glyph-name="Tcaron" unicode="&#x164;" horiz-adv-x="538" 
d="M227 635h-201v51h456v-51h-200v-635h-55v635zM144 870h46l53 -63h22l54 63h46l-80 -91h-61z" />
    <glyph glyph-name="tcaron" unicode="&#x165;" horiz-adv-x="320" 
d="M261 686h52l-18 -112h-34v112zM188 1q-24 9 -40 24q-34 33 -34 94v314h-86v47h86v144h56v-144h122v-47h-122v-293q0 -47 19 -72q23 -27 64 -27q34 0 41 5v-46q-5 -3 -18.5 -5.5t-36.5 -2.5q-27 0 -51 9z" />
    <glyph glyph-name="Tbar" unicode="&#x166;" horiz-adv-x="509" 
d="M282 635v-258h130v-36h-130v-341h-55v341h-130v36h130v258h-201v51h456v-51h-200z" />
    <glyph glyph-name="tbar" unicode="&#x167;" horiz-adv-x="332" 
d="M295 46v-46q-6 -3 -19 -5.5t-36 -2.5q-28 0 -51.5 9t-39.5 24q-34 33 -34 94v115h-87v47h87v152h-87v47h87v144h56v-144h122v-47h-122v-152h122v-47h-122v-94q0 -47 18 -72q23 -27 65 -27q34 0 41 5z" />
    <glyph glyph-name="Utilde" unicode="&#x168;" horiz-adv-x="653" 
d="M181.5 17.5q-56.5 33.5 -87.5 93.5t-31 139v436h55v-440q0 -92 50 -151.5t143 -59.5t143.5 59t50.5 152v440h55v-436q0 -80 -29.5 -140t-86 -93t-133.5 -33q-73 0 -129.5 33.5zM338.5 786.5q-15.5 6.5 -39.5 20.5q-33 20 -48 20q-47 0 -50 -37h-41q0 19 13.5 40.5
t35.5 32.5t43 11q27 0 72 -28q34 -19 47 -19q47 0 50 37h41q0 -33 -29 -58.5t-64 -25.5q-15 0 -30.5 6.5z" />
    <glyph glyph-name="utilde" unicode="&#x169;" horiz-adv-x="553" 
d="M102.5 33.5q-43.5 49.5 -43.5 140.5v306h56v-293q0 -79 36.5 -117.5t95.5 -38.5q47 0 82.5 25.5t55 65.5t19.5 85v273h56v-480h-52v74h-25q-23 -42 -64.5 -66t-88.5 -24q-84 0 -127.5 49.5zM285.5 622.5q-15.5 6.5 -39.5 20.5q-31 20 -45 20q-45 0 -48 -37h-42
q0 33 28 58t62 25q27 0 72 -28q32 -19 45 -19q44 0 47 37h42q0 -33 -28 -58t-63 -25q-15 0 -30.5 6.5z" />
    <glyph glyph-name="Umacron" unicode="&#x16a;" horiz-adv-x="653" 
d="M181.5 17.5q-56.5 33.5 -87.5 93.5t-31 139v436h55v-440q0 -92 50 -151.5t143 -59.5t143.5 59t50.5 152v440h55v-436q0 -80 -29.5 -140t-86 -93t-133.5 -33q-73 0 -129.5 33.5zM188 846h247v-36h-247v36z" />
    <glyph glyph-name="umacron" unicode="&#x16b;" horiz-adv-x="553" 
d="M102.5 33.5q-43.5 49.5 -43.5 140.5v306h56v-293q0 -79 36.5 -117.5t95.5 -38.5q47 0 82.5 25.5t55 65.5t19.5 85v273h56v-480h-52v74h-25q-23 -42 -64.5 -66t-88.5 -24q-84 0 -127.5 49.5zM138 682h243v-37h-243v37z" />
    <glyph glyph-name="Ubreve" unicode="&#x16c;" horiz-adv-x="653" 
d="M181.5 17.5q-56.5 33.5 -87.5 93.5t-31 139v436h55v-440q0 -92 50 -151.5t143 -59.5t143.5 59t50.5 152v440h55v-436q0 -80 -29.5 -140t-86 -93t-133.5 -33q-73 0 -129.5 33.5zM257 786.5q-26 14.5 -42 39.5t-16 40h39q0 -16 20 -38t54 -22q32 0 52 22t20 38h38
q0 -15 -15.5 -40t-41 -39.5t-53.5 -14.5q-29 0 -55 14.5z" />
    <glyph glyph-name="ubreve" unicode="&#x16d;" horiz-adv-x="553" 
d="M102.5 33.5q-43.5 49.5 -43.5 140.5v306h56v-293q0 -79 36.5 -117.5t95.5 -38.5q47 0 82.5 25.5t55 65.5t19.5 85v273h56v-480h-52v74h-25q-23 -42 -64.5 -66t-88.5 -24q-84 0 -127.5 49.5zM205.5 621.5q-25.5 14.5 -41 39.5t-15.5 41h40q0 -16 19.5 -38.5t51.5 -22.5
q30 0 49.5 22.5t19.5 38.5h39q0 -16 -15 -41t-40 -39.5t-53 -14.5q-29 0 -54.5 14.5z" />
    <glyph glyph-name="Uring" unicode="&#x16e;" horiz-adv-x="653" 
d="M181.5 17.5q-56.5 33.5 -87.5 93.5t-31 139v436h55v-440q0 -92 50 -151.5t143 -59.5t143.5 59t50.5 152v440h55v-436q0 -80 -29.5 -140t-86 -93t-133.5 -33q-73 0 -129.5 33.5zM248.5 778.5q-25.5 25.5 -25.5 62.5q0 38 25.5 63t62.5 25t63 -25.5t26 -62.5t-26 -62.5
t-63 -25.5t-62.5 25.5zM354.5 796.5q18.5 18.5 18.5 44.5t-18 44t-44 18q-25 0 -43.5 -18.5t-18.5 -43.5t18.5 -44t43.5 -19t43.5 18.5z" />
    <glyph glyph-name="uring" unicode="&#x16f;" horiz-adv-x="553" 
d="M102.5 33.5q-43.5 49.5 -43.5 140.5v306h56v-293q0 -79 36.5 -117.5t95.5 -38.5q47 0 82.5 25.5t55 65.5t19.5 85v273h56v-480h-52v74h-25q-23 -42 -64.5 -66t-88.5 -24q-84 0 -127.5 49.5zM197 614q-25 26 -25 63t25 62.5t62 25.5t62.5 -25.5t25.5 -62.5t-25.5 -63
t-62.5 -26t-62 26zM301 632.5q17 18.5 17 44.5t-17.5 44t-41.5 18t-41.5 -18.5t-17.5 -43.5q0 -26 17.5 -44.5t41.5 -18.5q25 0 42 18.5z" />
    <glyph glyph-name="Uhungarumlaut" unicode="&#x170;" horiz-adv-x="653" 
d="M181.5 17.5q-56.5 33.5 -87.5 93.5t-31 139v436h55v-440q0 -92 50 -151.5t143 -59.5t143.5 59t50.5 152v440h55v-436q0 -80 -29.5 -140t-86 -93t-133.5 -33q-73 0 -129.5 33.5zM266 870h57l-54 -97h-43zM393 870h57l-54 -97h-43z" />
    <glyph glyph-name="uhungarumlaut" unicode="&#x171;" horiz-adv-x="553" 
d="M102.5 33.5q-43.5 49.5 -43.5 140.5v306h56v-293q0 -79 36.5 -117.5t95.5 -38.5q47 0 82.5 25.5t55 65.5t19.5 85v273h56v-480h-52v74h-25q-23 -42 -64.5 -66t-88.5 -24q-84 0 -127.5 49.5zM199 706h57l-53 -97h-43zM354 706h57l-53 -97h-43z" />
    <glyph glyph-name="Uogonek" unicode="&#x172;" horiz-adv-x="631" 
d="M329 -196.5q-28 27.5 -28 69.5q0 26 13 48t78 72q-62 -9 -77 -9q-73 0 -129.5 33.5t-87.5 93.5t-31 139v436h55v-440q0 -92 50 -151.5t143 -59.5t143.5 59t50.5 152v440h55v-436q0 -74 -26.5 -132t-73.5 -91q-118 -79 -118 -142q0 -29 18 -49t48 -20q24 0 25 1v-38
q-6 -3 -32 -3q-48 0 -76 27.5z" />
    <glyph glyph-name="uogonek" unicode="&#x173;" horiz-adv-x="523" 
d="M369.5 -196q-27.5 28 -27.5 69q0 32 17.5 57.5t48.5 46.5v97h-25q-22 -42 -64 -66t-89 -24q-84 0 -127.5 49.5t-43.5 140.5v306h56v-293q0 -79 36.5 -117.5t96.5 -38.5q46 0 81.5 25.5t55 65.5t19.5 85v273h56v-488q-30 -24 -50.5 -49t-20.5 -58q0 -29 17.5 -49t45.5 -20
q23 0 26 3v-40q-7 -3 -33 -3q-48 0 -75.5 28z" />
    <glyph glyph-name="Wcircumflex" unicode="&#x174;" horiz-adv-x="944" 
d="M17 686h62l127 -515l15 -60h27l18 60l157 515h66l150 -515l18 -60h27l141 575h62l-184 -686h-66l-149 507l-19 67h-26l-20 -67l-155 -507h-66zM351 779l80 91h61l80 -91h-46l-54 63h-22l-53 -63h-46z" />
    <glyph glyph-name="wcircumflex" unicode="&#x175;" horiz-adv-x="761" 
d="M7 480h57l118 -403h20l126 403h65l126 -402h20l118 402h55l-151 -480h-64l-139 438l-137 -438h-64zM258 614l78 92h61l78 -92h-47l-52 64h-20l-52 -64h-46z" />
    <glyph glyph-name="Ycircumflex" unicode="&#x176;" horiz-adv-x="595" 
d="M245 320l-230 366h64l183 -300h20l180 300h64l-226 -366v-320h-55v320zM172 779l80 91h61l80 -91h-46l-54 63h-22l-53 -63h-46z" />
    <glyph glyph-name="ycircumflex" unicode="&#x177;" horiz-adv-x="506" 
d="M207 17l-199 463h59l156 -379h20l150 379h59l-294 -696h-56zM130 614l78 92h61l78 -92h-47l-52 64h-20l-52 -64h-46z" />
    <glyph glyph-name="Ydieresis" unicode="&#x178;" horiz-adv-x="595" 
d="M245 320l-230 366h64l183 -300h20l180 300h64l-226 -366v-320h-55v320zM172.5 801q-11.5 12 -11.5 27q0 17 11.5 28t27.5 11q17 0 27.5 -11t10.5 -28q0 -16 -10.5 -27.5t-27.5 -11.5q-16 0 -27.5 12zM337 801q-12 12 -12 27q0 17 11.5 28t27.5 11q17 0 28 -11t11 -28
q0 -16 -11 -27.5t-28 -11.5q-15 0 -27 12z" />
    <glyph glyph-name="Zacute" unicode="&#x179;" horiz-adv-x="572" 
d="M38 69l400 566h-384v51h438v-69l-400 -566h404v-51h-458v69zM291 870h57l-54 -97h-43z" />
    <glyph glyph-name="zacute" unicode="&#x17a;" horiz-adv-x="479" 
d="M37 53l310 380h-301v47h358v-53l-310 -380h318v-47h-375v53zM242 706h57l-53 -97h-43z" />
    <glyph glyph-name="Zdotaccent" unicode="&#x17b;" horiz-adv-x="572" 
d="M38 69l400 566h-384v51h438v-69l-400 -566h404v-51h-458v69zM249.5 817.5q-10.5 10.5 -10.5 23.5q0 14 10.5 24t23.5 10q16 0 25.5 -9.5t9.5 -24.5q0 -14 -10 -24t-25 -10q-13 0 -23.5 10.5z" />
    <glyph glyph-name="zdotaccent" unicode="&#x17c;" horiz-adv-x="479" 
d="M37 53l310 380h-301v47h358v-53l-310 -380h318v-47h-375v53zM197.5 636.5q-11.5 11.5 -11.5 27.5q0 17 11.5 27.5t27.5 10.5q17 0 27.5 -10.5t10.5 -27.5q0 -16 -10.5 -27.5t-27.5 -11.5q-16 0 -27.5 11.5z" />
    <glyph glyph-name="Zcaron" unicode="&#x17d;" horiz-adv-x="572" 
d="M38 69l400 566h-384v51h438v-69l-400 -566h404v-51h-458v69zM163 870h46l53 -63h22l54 63h46l-80 -91h-61z" />
    <glyph glyph-name="zcaron" unicode="&#x17e;" horiz-adv-x="479" 
d="M37 53l310 380h-301v47h358v-53l-310 -380h318v-47h-375v53zM117 706h46l52 -64h20l53 64h46l-78 -92h-61z" />
    <glyph glyph-name="florin" unicode="&#x192;" horiz-adv-x="535" 
d="M396 623q-25 -20 -34 -58l-37 -192h129v-48h-138l-83 -424q-11 -54 -47 -87.5t-89 -33.5q-28 0 -45 6v49q16 -8 46 -8q32 0 54.5 22t30.5 59l80 417h-106v48h115l39 197q10 54 49 87t96 33q20 0 30 -2t14 -3v-47q-8 5 -44 5q-35 0 -60 -20z" />
    <glyph glyph-name="Ohorn" unicode="&#x1a0;" horiz-adv-x="794" 
d="M217.5 32q-80.5 48 -126.5 130.5t-46 180.5t46 180.5t126.5 130.5t179.5 48q35 0 68 -3t42 -4q69 -9 146 -9q35 0 50.5 13.5t15.5 41.5v53h38v-53q0 -47 -21.5 -68t-68.5 -21q-25 0 -70 8v-30q79 -52 115.5 -125.5t36.5 -161.5q0 -98 -46 -180.5t-126.5 -130.5
t-179.5 -48t-179.5 48zM546 74.5q68 39.5 107.5 109.5t39.5 159t-39.5 159t-107.5 109.5t-149 39.5t-149 -39.5t-107.5 -109.5t-39.5 -159t39.5 -159t107.5 -109.5t149 -39.5t149 39.5z" />
    <glyph glyph-name="ohorn" unicode="&#x1a1;" horiz-adv-x="556" 
d="M153 18q-55 34 -86 92.5t-31 129.5t31 129.5t86 92.5t125 34q33 0 74 -8q44 -8 71 -8q38 0 55 13.5t17 41.5v53h39v-53q0 -40 -16 -61.5t-46 -21.5q-8 0 -33 8v-31q81 -73 81 -189q0 -71 -30.5 -129.5t-86 -92.5t-125.5 -34t-125 34zM370 56.5q43 25.5 68.5 73
t25.5 110.5t-25.5 110.5t-68.5 73t-92 25.5t-92 -25.5t-69 -73t-26 -110.5t26 -110.5t69 -73t92 -25.5t92 25.5z" />
    <glyph glyph-name="Uhorn" unicode="&#x1af;" horiz-adv-x="643" 
d="M181.5 17.5q-56.5 33.5 -87.5 93.5t-31 139v436h55v-440q0 -92 50 -151.5t143 -59.5t143.5 59t50.5 152v440h81q52 0 52 55v53h38v-53q0 -47 -21.5 -68t-68.5 -21h-26v-402q0 -80 -29.5 -140t-86 -93t-133.5 -33q-73 0 -129.5 33.5z" />
    <glyph glyph-name="uhorn" unicode="&#x1b0;" horiz-adv-x="560" 
d="M102.5 33.5q-43.5 49.5 -43.5 140.5v306h55v-293q0 -79 36.5 -117.5t96.5 -38.5q46 0 82 25.5t55.5 65.5t19.5 85v273h80q49 0 49 55v53h39v-53q0 -47 -21 -68t-67 -21h-25v-446h-51v74h-26q-22 -42 -63.5 -66t-89.5 -24q-83 0 -126.5 49.5z" />
    <glyph glyph-name="uni01CD" unicode="&#x1cd;" horiz-adv-x="670" 
d="M275 686h76l260 -686h-61l-72 197h-330l-72 -197h-61zM461 247l-104 278l-31 87h-26l-31 -87l-104 -278h296zM210 870h46l53 -63h22l54 63h46l-80 -91h-61z" />
    <glyph glyph-name="Aringacute" unicode="&#x1fa;" horiz-adv-x="625" 
d="M610 0h-61l-72 197h-329l-72 -197h-61l252 664q-24 20 -33.5 38.5t-9.5 38.5q0 30 17 52.5t51 33.5l32 75h50l-38 -74q37 -18 51 -39.5t14 -47.5q0 -20 -9 -38t-34 -38zM353.5 699.5q17.5 17.5 17.5 41.5t-17.5 41.5t-41.5 17.5q-23 0 -40.5 -17.5t-17.5 -41.5
t17.5 -41.5t40.5 -17.5q24 0 41.5 17.5zM460 247l-103 278l-33 87h-25l-31 -87l-103 -278h295z" />
    <glyph glyph-name="aringacute" unicode="&#x1fb;" horiz-adv-x="493" 
d="M252 889h57l-41 -75h-47zM178 614q-25 26 -25 63t25 62.5t62 25.5t62.5 -25.5t25.5 -62.5t-25.5 -63t-62.5 -26t-62 26zM282 632.5q17 18.5 17 44.5t-17 44t-42 18q-24 0 -42 -18.5t-18 -43.5q0 -26 18 -44.5t42 -18.5q25 0 42 18.5zM116.5 4.5q-40.5 20.5 -61.5 55
t-21 79.5q0 73 55 115t141 42q43 0 80 -9.5t76 -34.5v57q0 64 -43 102.5t-108 38.5q-44 0 -82.5 -20t-53.5 -44l-40 31q19 30 67.5 54.5t108.5 24.5q96 0 149.5 -50.5t53.5 -137.5v-308h-52v73h-25q-24 -41 -63.5 -65t-89.5 -24q-51 0 -91.5 20.5zM300 53q39 24 62.5 64.5
t23.5 96.5q-32 22 -67.5 32.5t-75.5 10.5q-73 0 -112 -33t-39 -86q0 -49 36 -79t88 -30q45 0 84 24z" />
    <glyph glyph-name="AEacute" unicode="&#x1fc;" horiz-adv-x="960" 
d="M420 686h441v-51h-329v-267h297v-50h-297v-267h329v-51h-384v197h-288l-118 -197h-64zM477 247v388h-28l-33 -57l-197 -331h258zM669 870h57l-54 -97h-43z" />
    <glyph glyph-name="aeacute" unicode="&#x1fd;" horiz-adv-x="901" 
d="M116.5 4.5q-40.5 20.5 -61.5 55t-21 79.5q0 73 55 115t141 42q43 0 80 -9.5t76 -34.5v57q0 64 -41 102.5t-105 38.5q-43 0 -76.5 -21.5t-46.5 -47.5l-47 24q15 34 61.5 62.5t106.5 28.5q64 0 109 -24.5t77 -89.5q42 64 86 88.5t100 24.5q70 0 120.5 -31t77.5 -86.5
t27 -127.5l-1 -11h-396q4 -78 30.5 -121t67 -65t85.5 -22q105 0 152 88l46 -23q-22 -44 -74.5 -78t-127.5 -34q-68 0 -118.5 32.5t-88.5 110.5q-79 -143 -202 -143q-51 0 -91.5 20.5zM775 279q-3 51 -20 86t-53.5 59t-91.5 24q-64 0 -108.5 -41.5t-60.5 -127.5h334zM300 53
q39 24 62.5 64.5t23.5 96.5q-29 21 -65.5 32t-77.5 11q-73 0 -112 -33t-39 -86q0 -49 36 -79t88 -30q45 0 84 24zM443 706h57l-52 -97h-44z" />
    <glyph glyph-name="Oslashacute" unicode="&#x1fe;" horiz-adv-x="825" 
d="M714 504q36 -74 36 -161q0 -99 -46 -181t-127 -130t-180 -48q-87 0 -172 44l-37 -58l-32 21l36 58q-75 58 -111 132t-36 162q0 98 46 180.5t126.5 130.5t179.5 48q87 0 173 -45l38 60l33 -22l-37 -59q74 -58 110 -132zM129 208.5q28 -61.5 91 -115.5l324 521
q-78 37 -147 37q-81 0 -148.5 -39.5t-107.5 -110t-40 -158.5q0 -73 28 -134.5zM546 74.5q68 39.5 107.5 109.5t39.5 159q0 73 -27.5 134t-88.5 115l-326 -520q78 -37 146 -37q81 0 149 39.5zM415 870h57l-54 -97h-43z" />
    <glyph glyph-name="oslashacute" unicode="&#x1ff;" horiz-adv-x="586" 
d="M497.5 352q22.5 -52 22.5 -112q0 -71 -31 -129.5t-86 -92.5t-125 -34q-58 0 -117 29l-25 -41l-29 17l26 42q-52 44 -74.5 95.5t-22.5 113.5q0 71 31 129.5t86 92.5t125 34q59 0 117 -30l27 43l28 -18l-26 -43q51 -44 73.5 -96zM105.5 154.5q14.5 -38.5 53.5 -79.5
l212 348q-53 26 -93 26q-49 0 -92 -25.5t-69 -73t-26 -110.5q0 -47 14.5 -85.5zM369.5 56.5q42.5 25.5 68.5 73t26 110.5q0 92 -66 164l-212 -348q51 -25 92 -25q49 0 91.5 25.5zM295 706h57l-53 -97h-43z" />
    <glyph glyph-name="uni0218" unicode="&#x218;" horiz-adv-x="562" 
d="M163.5 5q-47.5 21 -84 62t-49.5 87l53 22q14 -52 63.5 -96.5t117.5 -44.5q67 0 115 37.5t48 102.5q0 57 -40 92.5t-126 64.5l-45 16q-73 26 -117.5 67t-44.5 112q0 47 25.5 87t72.5 64t105 24t101 -21.5t69 -52t31 -47.5l-50 -22q-8 26 -47.5 59t-102.5 33
q-60 0 -104 -35t-44 -89q0 -49 37 -78.5t106 -53.5l47 -16q88 -32 135.5 -78t47.5 -125q0 -64 -32.5 -107.5t-83.5 -64t-105 -20.5q-51 0 -98.5 21zM233 -223l44 63q-35 7 -43 17.5t-8 24.5q0 15 11.5 27.5t29.5 12.5q19 0 30 -12t11 -31q0 -15 -10 -35l-52 -76z" />
    <glyph glyph-name="uni0219" unicode="&#x219;" horiz-adv-x="465" 
d="M91.5 20q-50.5 36 -65.5 78l49 23q15 -37 55 -64.5t88 -27.5q50 0 88.5 22.5t38.5 67.5q0 40 -31 62.5t-89 37.5l-60 16q-57 14 -91.5 46.5t-34.5 82.5q0 39 23 69t63.5 46.5t87.5 16.5q62 0 109.5 -27t61.5 -60l-48 -23q-31 64 -124 64q-44 0 -80 -23t-36 -61
q0 -35 25.5 -56t70.5 -33l72 -19q70 -18 103.5 -51.5t33.5 -81.5q0 -42 -23.5 -74t-65.5 -49.5t-94 -17.5q-76 0 -126.5 36zM189 -223l43 63q-35 7 -42.5 17.5t-7.5 24.5q0 15 11 27.5t30 12.5t30 -12t11 -31q0 -15 -10 -35l-51 -77z" />
    <glyph glyph-name="uni021A" unicode="&#x21a;" horiz-adv-x="538" 
d="M227 635h-201v51h456v-51h-200v-635h-55v635zM220 -223l44 63q-35 7 -43 17.5t-8 24.5q0 15 11.5 27.5t29.5 12.5q19 0 30 -12t11 -31q0 -15 -10 -35l-52 -76z" />
    <glyph glyph-name="uni021B" unicode="&#x21b;" horiz-adv-x="362" 
d="M188.5 1q-23.5 9 -39.5 24q-34 33 -34 94v314h-87v47h87v144h56v-144h122v-47h-122v-293q0 -47 18 -72q23 -27 65 -27q34 0 41 5v-46q-6 -3 -19 -5.5t-36 -2.5q-28 0 -51.5 9zM182 -223l43 63q-35 7 -42.5 17.5t-7.5 24.5q0 15 11 27.5t30 12.5t30 -12t11 -31
q0 -15 -10 -35l-51 -77z" />
    <glyph glyph-name="uni0237" unicode="&#x237;" horiz-adv-x="207" 
d="M-17 -223v43q-13 8 1.5 4.5t25.5 -3.5q37 0 54 24.5t17 67.5v567h56v-567q0 -71 -32.5 -105t-91.5 -34q-22 0 -30 3z" />
    <glyph glyph-name="uni0259" unicode="&#x259;" horiz-adv-x="523" 
d="M374.5 463q53.5 -33 83 -91t29.5 -131q0 -70 -28 -129t-79.5 -93.5t-119.5 -34.5q-70 0 -120.5 31.5t-77 87t-26.5 127.5l1 11h396q-4 78 -30.5 121t-67 65t-85.5 22q-105 0 -152 -88l-46 23q22 44 74.5 78t126.5 34q68 0 121.5 -33zM95 201q3 -51 20 -86t54 -59.5
t91 -24.5q64 0 108.5 42t61.5 128h-335z" />
    <glyph glyph-name="circumflex" unicode="&#x2c6;" horiz-adv-x="365" 
d="M72 595l80 91h61l80 -91h-46l-54 63h-22l-53 -63h-46z" />
    <glyph glyph-name="caron" unicode="&#x2c7;" horiz-adv-x="365" 
d="M72 686h46l53 -63h22l54 63h46l-80 -91h-61z" />
    <glyph glyph-name="breve" unicode="&#x2d8;" horiz-adv-x="369" 
d="M131 602.5q-26 14.5 -42 39.5t-16 40h39q0 -16 20 -38t54 -22q32 0 52 22t20 38h38q0 -15 -15.5 -40t-41 -39.5t-53.5 -14.5q-29 0 -55 14.5z" />
    <glyph glyph-name="dotaccent" unicode="&#x2d9;" horiz-adv-x="197" 
d="M71.5 617q-11.5 12 -11.5 27q0 17 11.5 28t27.5 11q17 0 27.5 -11t10.5 -28q0 -16 -10.5 -27.5t-27.5 -11.5q-16 0 -27.5 12z" />
    <glyph glyph-name="ring" unicode="&#x2da;" horiz-adv-x="372" 
d="M123.5 594.5q-25.5 25.5 -25.5 62.5q0 38 25.5 63t62.5 25t63 -25.5t26 -62.5t-26 -62.5t-63 -25.5t-62.5 25.5zM229.5 612.5q18.5 18.5 18.5 44.5t-18 44t-44 18q-25 0 -43.5 -18.5t-18.5 -43.5t18.5 -44t43.5 -19t43.5 18.5z" />
    <glyph glyph-name="ogonek" unicode="&#x2db;" horiz-adv-x="371" 
d="M118 -196.5q-28 27.5 -28 69.5q0 57 53 97h36q-2 -2 -23 -27t-21 -58q0 -29 18 -49t48 -20q24 0 25 1v-38q-6 -3 -32 -3q-48 0 -76 27.5z" />
    <glyph glyph-name="tilde" unicode="&#x2dc;" horiz-adv-x="368" 
d="M211.5 602.5q-15.5 6.5 -39.5 20.5q-33 20 -48 20q-47 0 -50 -37h-41q0 19 13.5 40.5t35.5 32.5t43 11q27 0 72 -28q34 -19 47 -19q47 0 50 37h41q0 -33 -29 -58.5t-64 -25.5q-15 0 -30.5 6.5z" />
    <glyph glyph-name="hungarumlaut" unicode="&#x2dd;" horiz-adv-x="389" 
d="M114 686h57l-54 -97h-43zM273 686h57l-54 -97h-43z" />
    <glyph glyph-name="gravecomb" unicode="&#x300;" 
d="M-299 706h58l40 -97h-44z" />
    <glyph glyph-name="acutecomb" unicode="&#x301;" 
d="M-202 706h57l-54 -97h-43z" />
    <glyph glyph-name="uni0302" unicode="&#x302;" 
d="M-323 614l80 92h61l80 -92h-46l-54 64h-22l-53 -64h-46z" />
    <glyph glyph-name="tildecomb" unicode="&#x303;" 
d="M-186.5 622.5q-15.5 6.5 -39.5 20.5q-33 20 -48 20q-47 0 -50 -37h-41q0 33 28.5 58t63.5 25q27 0 72 -28q34 -19 47 -19q47 0 50 37h41q0 -33 -28.5 -58t-64.5 -25q-15 0 -30.5 6.5z" />
    <glyph glyph-name="uni0304" unicode="&#x304;" 
d="M-338 682h247v-37h-247v37z" />
    <glyph glyph-name="uni0306" unicode="&#x306;" 
d="M-268 621.5q-26 14.5 -42 39.5t-16 41h39q0 -16 20 -38.5t54 -22.5q32 0 52 22.5t20 38.5h38q0 -16 -15.5 -41t-41 -39.5t-53.5 -14.5q-29 0 -55 14.5z" />
    <glyph glyph-name="uni0307" unicode="&#x307;" 
d="M-155.5 636.5q-11.5 11.5 -11.5 27.5q0 17 11.5 27.5t27.5 10.5q17 0 27.5 -10.5t10.5 -27.5q0 -16 -10.5 -27.5t-27.5 -11.5q-16 0 -27.5 11.5z" />
    <glyph glyph-name="uni0308" unicode="&#x308;" 
d="M-320.5 636.5q-11.5 11.5 -11.5 27.5q0 17 11.5 27.5t27.5 10.5q17 0 27.5 -10.5t10.5 -27.5q0 -16 -10.5 -27.5t-27.5 -11.5q-16 0 -27.5 11.5zM-156 636.5q-12 11.5 -12 27.5q0 17 11.5 27.5t27.5 10.5q17 0 28 -10.5t11 -27.5q0 -16 -11 -27.5t-28 -11.5
q-15 0 -27 11.5z" />
    <glyph glyph-name="hookabovecomb" unicode="&#x309;" 
d="M-124 602q20 5 37.5 19.5t17.5 42.5q0 24 -16 38t-44 14q-30 0 -46 -7l-8 26q21 9 62 9q43 0 65.5 -19.5t22.5 -56.5q0 -40 -25.5 -63.5t-57.5 -28.5z" />
    <glyph glyph-name="uni030A" unicode="&#x30a;" 
d="M-278.5 614q-25.5 26 -25.5 63t25.5 62.5t62.5 25.5t63 -25.5t26 -62.5t-26 -63t-63 -26t-62.5 26zM-172 632.5q18 18.5 18 44.5t-18.5 44t-43.5 18t-43.5 -18.5t-18.5 -43.5q0 -26 18.5 -44.5t43.5 -18.5q26 0 44 18.5z" />
    <glyph glyph-name="uni030B" unicode="&#x30b;" 
d="M-275 706h57l-54 -97h-43zM-116 706h57l-54 -97h-43z" />
    <glyph glyph-name="uni030C" unicode="&#x30c;" 
d="M-323 706h46l53 -64h22l54 64h46l-80 -92h-61z" />
    <glyph glyph-name="uni0312" unicode="&#x312;" 
d="M-183 737l-44 -63q35 -7 43 -17.5t8 -24.5q0 -15 -11.5 -27.5t-29.5 -12.5q-19 0 -30 12t-11 31q0 15 10 35l52 76z" />
    <glyph glyph-name="uni031B" unicode="&#x31b;" 
d="M-126 480h6q52 0 52 55v53h38v-53q0 -47 -21.5 -68t-68.5 -21h-6v34z" />
    <glyph glyph-name="dotbelowcomb" unicode="&#x323;" 
d="M-155.5 -180.5q-11.5 11.5 -11.5 27.5q0 17 11.5 27.5t27.5 10.5q17 0 27.5 -10.5t10.5 -27.5q0 -16 -10.5 -27.5t-27.5 -11.5q-16 0 -27.5 11.5z" />
    <glyph glyph-name="uni0324" unicode="&#x324;" 
d="M-260.5 -183.5q-11.5 11.5 -11.5 27.5q0 17 11.5 27.5t27.5 10.5q17 0 27.5 -10.5t10.5 -27.5q0 -16 -10.5 -27.5t-27.5 -11.5q-16 0 -27.5 11.5zM-96 -183.5q-12 11.5 -12 27.5q0 17 11.5 27.5t27.5 10.5q17 0 28 -10.5t11 -27.5q0 -16 -11 -27.5t-28 -11.5
q-15 0 -27 11.5z" />
    <glyph glyph-name="uni0326" unicode="&#x326;" 
d="M-253 -223l44 63q-35 7 -43 17.5t-8 24.5q0 15 11.5 27.5t29.5 12.5q19 0 30 -12t11 -31q0 -15 -10 -35l-52 -76z" />
    <glyph glyph-name="uni0327" unicode="&#x327;" 
d="M-305 -221q-22 16 -26 28l22 10q1 -3 16 -17t37 -14q26 0 42.5 17t16.5 41q0 25 -16 42.5t-43 17.5q-28 0 -39 -14l-21 10l26 70h20l-24 -53q44 7 48 7q32 0 54 -22.5t22 -57.5q0 -34 -24.5 -57.5t-61.5 -23.5q-27 0 -49 16z" />
    <glyph glyph-name="uni0328" unicode="&#x328;" 
d="M-283.5 -196.5q-27.5 27.5 -27.5 69.5q0 57 53 97h36q-2 -2 -23 -27t-21 -58q0 -29 18 -49t48 -20q24 0 25 1v-38q-6 -3 -32 -3q-49 0 -76.5 27.5z" />
    <glyph glyph-name="uni032E" unicode="&#x32e;" 
d="M-268 -217.5q-26 14.5 -42 39.5t-16 40h39q0 -16 20 -38t54 -22q32 0 52 22t20 38h38q0 -15 -15.5 -40t-41 -39.5t-53.5 -14.5q-29 0 -55 14.5z" />
    <glyph glyph-name="uni0331" unicode="&#x331;" 
d="M-338 -138h247v-36h-247v36z" />
    <glyph glyph-name="uni0374" unicode="&#x374;" horiz-adv-x="270" 
d="M109 686h70l-100 -179h-40z" />
    <glyph glyph-name="uni0375" unicode="&#x375;" horiz-adv-x="223" 
d="M139 92h43l-70 -179h-71z" />
    <glyph glyph-name="uni037E" unicode="&#x37e;" horiz-adv-x="198" 
d="M61 402q-14 14 -14 35t14 35t35 14q20 0 34 -14t14 -35t-14 -35t-34 -14q-21 0 -35 14zM47 -78l58 90q-35 6 -46 18t-11 29q0 20 14 34t35 14t35 -14t14 -34q0 -14 -6 -27.5t-19 -32.5l-58 -87z" />
    <glyph glyph-name="tonos" unicode="&#x384;" horiz-adv-x="350" 
d="M170 706h58l-54 -97h-43z" />
    <glyph glyph-name="dieresistonos" unicode="&#x385;" horiz-adv-x="363" 
d="M166 722h30v-114h-30v114zM43.5 639.5q-10.5 10.5 -10.5 24.5q0 15 10 24.5t24 9.5q15 0 24.5 -9.5t9.5 -24.5q0 -14 -10 -24.5t-24 -10.5q-13 0 -23.5 10.5zM272 640q-11 11 -11 24q0 14 10.5 24t24.5 10q15 0 24.5 -9.5t9.5 -24.5q0 -14 -10 -24.5t-24 -10.5
q-13 0 -24 11z" />
    <glyph glyph-name="Alphatonos" unicode="&#x386;" horiz-adv-x="669" 
d="M100 686h57l-54 -97h-43zM275 686h76l260 -686h-61l-72 197h-330l-72 -197h-61zM461 247l-104 278l-31 87h-26l-31 -87l-104 -278h296z" />
    <glyph glyph-name="anoteleia" unicode="&#x387;" horiz-adv-x="183" 
d="M42 274q-14 14 -14 35t14 35t35 14q20 0 34 -14t14 -35t-14 -35t-34 -14q-21 0 -35 14z" />
    <glyph glyph-name="Epsilontonos" unicode="&#x388;" horiz-adv-x="584" 
d="M-34 686h57l-54 -97h-43zM113 686h384v-51h-329v-267h297v-50h-297v-267h329v-51h-384v686z" />
    <glyph glyph-name="Etatonos" unicode="&#x389;" horiz-adv-x="731" 
d="M-34 686h57l-54 -97h-43zM113 686h55v-309h398v309h55v-686h-55v326h-398v-326h-55v686z" />
    <glyph glyph-name="Iotatonos" unicode="&#x38a;" horiz-adv-x="278" 
d="M-34 686h57l-54 -97h-43zM113 686h55v-686h-55v686z" />
    <glyph glyph-name="Omicrontonos" unicode="&#x38c;" horiz-adv-x="783" 
d="M-32 686h57l-54 -97h-43zM176.5 32q-80.5 48 -126.5 130.5t-46 180.5t46 180.5t126.5 130.5t179.5 48t179.5 -48t126.5 -130.5t46 -180.5t-46 -180.5t-126.5 -130.5t-179.5 -48t-179.5 48zM505 74.5q68 39.5 107.5 109.5t39.5 159t-39.5 159t-107.5 109.5t-149 39.5
t-149 -39.5t-107.5 -109.5t-39.5 -159t39.5 -159t107.5 -109.5t149 -39.5t149 39.5z" />
    <glyph glyph-name="Upsilontonos" unicode="&#x38e;" horiz-adv-x="664" 
d="M-34 686h57l-54 -97h-43zM314 320l-230 366h64l183 -300h20l180 300h64l-226 -366v-320h-55v320z" />
    <glyph glyph-name="Omegatonos" unicode="&#x38f;" horiz-adv-x="759" 
d="M-32 686h57l-54 -97h-43zM23 51h166v28q-90 46 -136 120.5t-46 168.5q0 88 44 165t120.5 123t170.5 46t171 -46t120.5 -122.5t43.5 -165.5q0 -94 -46 -168.5t-135 -120.5v-28h166v-51h-246v93q50 12 99.5 51t77.5 97.5t28 126.5q0 79 -37.5 143.5t-101.5 102t-140 37.5
t-140 -37.5t-101.5 -102t-37.5 -143.5q0 -68 28 -126.5t77.5 -97.5t99.5 -51v-93h-245v51z" />
    <glyph glyph-name="iotadieresistonos" unicode="&#x390;" horiz-adv-x="221" 
d="M68 480h55v-480h-55v480zM80 722h32v-114h-32v114zM-39 639.5q-10 10.5 -10 24.5q0 15 10 24.5t24 9.5q15 0 24.5 -9.5t9.5 -24.5q0 -14 -10 -24.5t-24 -10.5t-24 10.5zM184 640q-11 11 -11 24q0 14 10.5 24t24.5 10q15 0 24.5 -9.5t9.5 -24.5q0 -14 -9.5 -24.5
t-24.5 -10.5q-13 0 -24 11z" />
    <glyph glyph-name="Alpha" unicode="&#x391;" horiz-adv-x="670" 
d="M275 686h76l260 -686h-61l-72 197h-330l-72 -197h-61zM461 247l-104 278l-31 87h-26l-31 -87l-104 -278h296z" />
    <glyph glyph-name="Beta" unicode="&#x392;" horiz-adv-x="606" 
d="M80 686h242q50 0 94 -23t70 -63.5t26 -91.5q0 -47 -24 -82.5t-74 -58.5v-25q60 -20 91 -60t31 -94t-27.5 -97t-73.5 -67t-99 -24h-256v686zM322 377q40 0 71 18.5t48 48.5t17 62q0 31 -16.5 61t-46.5 49t-69 19h-191v-258h187zM341 51q40 0 72 20t49.5 52t17.5 66t-18 66
t-50.5 51.5t-74.5 19.5h-202v-275h206z" />
    <glyph glyph-name="Gamma" unicode="&#x393;" horiz-adv-x="505" 
d="M80 686h368v-51h-313v-635h-55v686z" />
    <glyph glyph-name="uni0394" unicode="&#x394;" horiz-adv-x="615" 
d="M269 686h76l255 -686h-585zM521 51l-201 561h-26l-200 -561h427z" />
    <glyph glyph-name="Epsilon" unicode="&#x395;" horiz-adv-x="551" 
d="M80 686h384v-51h-329v-267h297v-50h-297v-267h329v-51h-384v686z" />
    <glyph glyph-name="Zeta" unicode="&#x396;" horiz-adv-x="572" 
d="M38 69l400 566h-384v51h438v-69l-400 -566h404v-51h-458v69z" />
    <glyph glyph-name="Eta" unicode="&#x397;" horiz-adv-x="698" 
d="M80 686h55v-309h398v309h55v-686h-55v326h-398v-326h-55v686z" />
    <glyph glyph-name="Theta" unicode="&#x398;" horiz-adv-x="808" 
d="M217.5 32q-80.5 48 -126.5 130t-46 181q0 98 46 180.5t126.5 130.5t179.5 48t179.5 -48t127 -130.5t46.5 -180.5q0 -99 -46 -181t-127 -130t-180 -48t-179.5 48zM546 74.5q68 39.5 108 110t40 158.5t-40 158.5t-108 110t-149 39.5t-148.5 -39.5t-107.5 -110t-40 -158.5
t40 -158.5t107.5 -110t148.5 -39.5t149 39.5zM253 368h289v-50h-289v50z" />
    <glyph glyph-name="Iota" unicode="&#x399;" horiz-adv-x="245" 
d="M80 686h55v-686h-55v686z" />
    <glyph glyph-name="Kappa" unicode="&#x39a;" horiz-adv-x="614" 
d="M80 686h55v-349v-8v-329h-55v686zM164 333l311 353h74l-317 -351l329 -335h-79z" />
    <glyph glyph-name="Lambda" unicode="&#x39b;" horiz-adv-x="608" 
d="M266 686h76l251 -686h-62l-187 533l-27 79h-26l-27 -79l-188 -533h-61z" />
    <glyph glyph-name="Mu" unicode="&#x39c;" horiz-adv-x="866" 
d="M80 686h98l228 -587h24l228 587h98v-686h-54v440l4 151h-29l-234 -591h-50l-234 591h-29l4 -151v-440h-54v686z" />
    <glyph glyph-name="Nu" unicode="&#x39d;" horiz-adv-x="708" 
d="M80 686h81l359 -570h27l-4 153v417h55v-686h-65l-375 597h-27l4 -153v-444h-55v686z" />
    <glyph glyph-name="Xi" unicode="&#x39e;" horiz-adv-x="466" 
d="M33 686h400v-51h-400v51zM65 368h336v-50h-336v50zM33 51h400v-51h-400v51z" />
    <glyph glyph-name="Omicron" unicode="&#x39f;" horiz-adv-x="824" 
d="M217.5 32q-80.5 48 -126.5 130.5t-46 180.5t46 180.5t126.5 130.5t179.5 48t179.5 -48t126.5 -130.5t46 -180.5t-46 -180.5t-126.5 -130.5t-179.5 -48t-179.5 48zM546 74.5q68 39.5 107.5 109.5t39.5 159t-39.5 159t-107.5 109.5t-149 39.5t-149 -39.5t-107.5 -109.5
t-39.5 -159t39.5 -159t107.5 -109.5t149 -39.5t149 39.5z" />
    <glyph glyph-name="Pi" unicode="&#x3a0;" horiz-adv-x="674" 
d="M80 686h484v-686h-54v635h-375v-635h-55v686z" />
    <glyph glyph-name="Rho" unicode="&#x3a1;" horiz-adv-x="576" 
d="M80 686h226q56 0 103.5 -25t76 -70t28.5 -102t-28.5 -102t-76 -70t-103.5 -25h-171v-292h-55v686zM308 343q44 0 78 21t53 54.5t19 70.5t-19 70.5t-53 54.5t-78 21h-173v-292h173z" />
    <glyph glyph-name="Sigma" unicode="&#x3a3;" horiz-adv-x="482" 
d="M49 68l221 283l-221 267v68h401v-51h-355l239 -284l-238 -300h354v-51h-401v68z" />
    <glyph glyph-name="Tau" unicode="&#x3a4;" horiz-adv-x="538" 
d="M227 635h-201v51h456v-51h-200v-635h-55v635z" />
    <glyph glyph-name="Upsilon" unicode="&#x3a5;" horiz-adv-x="595" 
d="M245 320l-230 366h64l183 -300h20l180 300h64l-226 -366v-320h-55v320z" />
    <glyph glyph-name="Phi" unicode="&#x3a6;" horiz-adv-x="769" 
d="M686.5 205q-36.5 -62 -104 -100.5t-170.5 -47.5v-57h-55v57q-102 9 -170 47.5t-105 100.5t-37 138t37 138t105 100.5t170 47.5v57h55v-57q103 -9 170.5 -47.5t104 -100.5t36.5 -138t-36.5 -138zM165.5 183q64.5 -64 191.5 -78v475q-127 -12 -191.5 -76t-64.5 -161
q0 -96 64.5 -160zM603 183.5q64 64.5 64 159.5q0 96 -64 160t-191 78v-476q127 14 191 78.5z" />
    <glyph glyph-name="Chi" unicode="&#x3a7;" horiz-adv-x="631" 
d="M250 355l-218 331h66l180 -279h20l180 279h65l-218 -331l232 -355h-64l-195 299h-20l-196 -299h-64z" />
    <glyph glyph-name="Psi" unicode="&#x3a8;" horiz-adv-x="717" 
d="M331 156q-85 0 -142 33t-90.5 95t-33.5 146v256h54v-260q0 -98 51.5 -158.5t160.5 -60.5v479h55v-479q109 0 160.5 60.5t51.5 158.5v260h55v-256q0 -84 -33.5 -146t-91 -95t-142.5 -33v-156h-55v156z" />
    <glyph glyph-name="uni03A9" unicode="&#x3a9;" horiz-adv-x="773" 
d="M67 51h166v28q-90 46 -136 120.5t-46 168.5q0 88 44 165t120.5 123t170.5 46t171 -46t120.5 -122.5t43.5 -165.5q0 -94 -46 -168.5t-135 -120.5v-28h166v-51h-246v93q50 12 99.5 51t77.5 97.5t28 126.5q0 79 -37.5 143.5t-101.5 102t-140 37.5t-140 -37.5t-101.5 -102
t-37.5 -143.5q0 -68 28 -126.5t77.5 -97.5t99.5 -51v-93h-245v51z" />
    <glyph glyph-name="Iotadieresis" unicode="&#x3aa;" horiz-adv-x="215" 
d="M9.5 815.5q-10.5 10.5 -10.5 23.5q0 15 10.5 25t23.5 10q16 0 25.5 -9.5t9.5 -25.5q0 -14 -10 -24t-25 -10q-13 0 -23.5 10.5zM157.5 815.5q-10.5 10.5 -10.5 23.5q0 15 10 25t24 10q16 0 25 -9.5t9 -25.5q0 -14 -9.5 -24t-24.5 -10q-13 0 -23.5 10.5zM80 686h55v-686
h-55v686z" />
    <glyph glyph-name="Upsilondieresis" unicode="&#x3ab;" horiz-adv-x="595" 
d="M245 320l-230 366h64l183 -300h20l180 300h64l-226 -366v-320h-55v320zM172.5 801q-11.5 12 -11.5 27q0 17 11.5 28t27.5 11q17 0 27.5 -11t10.5 -28q0 -16 -10.5 -27.5t-27.5 -11.5q-16 0 -27.5 12zM337 801q-12 12 -12 27q0 17 11.5 28t27.5 11q17 0 28 -11t11 -28
q0 -16 -11 -27.5t-28 -11.5q-15 0 -27 12z" />
    <glyph glyph-name="alphatonos" unicode="&#x3ac;" horiz-adv-x="589" 
d="M145 17q-51 33 -80 91t-29 132q0 73 29 131.5t80 91.5t115 33q53 0 95 -24.5t68 -67.5h24v76h52v-480h-52v75h-24q-26 -42 -68 -66.5t-95 -24.5q-64 0 -115 33zM357 57q41 26 65.5 73.5t24.5 109.5t-24.5 109.5t-65.5 73.5t-88 26q-46 0 -87.5 -26t-66 -74t-24.5 -109
t24.5 -109t66 -74t87.5 -26q47 0 88 26zM286 706h58l-53 -97h-43z" />
    <glyph glyph-name="epsilontonos" unicode="&#x3ad;" horiz-adv-x="492" 
d="M94.5 23q-50.5 39 -50.5 102q0 36 20 64t65 47v24q-37 16 -53 41t-16 61q0 37 22 67.5t61.5 48.5t87.5 18q53 0 94 -18t67 -45l-35 -36q-22 24 -54.5 38t-71.5 14q-50 0 -82.5 -27.5t-32.5 -64.5q0 -44 30 -69t71 -25h60v-38h-66q-50 0 -80.5 -28t-30.5 -68
q0 -45 37 -71.5t96 -26.5q44 0 80 19t61 46l36 -37q-25 -30 -74 -52.5t-103 -22.5q-88 0 -138.5 39zM248 706h58l-53 -97h-44z" />
    <glyph glyph-name="etatonos" unicode="&#x3ae;" horiz-adv-x="553" 
d="M408 298q0 76 -37.5 113.5t-99.5 37.5q-44 0 -79 -25.5t-54 -66.5t-19 -85v-272h-56v480h52v-75h25q23 42 64.5 66.5t88.5 24.5q84 0 127.5 -49.5t43.5 -135.5v-527h-56v514zM289 706h59l-53 -97h-44z" />
    <glyph glyph-name="iotatonos" unicode="&#x3af;" horiz-adv-x="227" 
d="M71 480h56v-480h-56v480zM115 706h59l-53 -97h-44z" />
    <glyph glyph-name="upsilondieresistonos" unicode="&#x3b0;" horiz-adv-x="552" 
d="M158 12q-46 28 -72.5 77t-26.5 109v282h56v-265q0 -87 42 -135.5t109 -48.5q43 0 80.5 23t60.5 67.5t23 104.5q0 64 -24.5 136t-53.5 118h59q30 -50 52.5 -118t22.5 -136q0 -80 -32 -134.5t-83 -81t-111 -26.5q-56 0 -102 28zM237 722h31v-114h-31v114zM117.5 639.5
q-10.5 10.5 -10.5 24.5q0 15 10 24.5t24 9.5q16 0 25.5 -9.5t9.5 -24.5q0 -14 -10 -24.5t-25 -10.5q-13 0 -23.5 10.5zM340.5 640q-10.5 11 -10.5 24q0 14 10 24t25 10t24.5 -9.5t9.5 -24.5q0 -14 -10 -24.5t-24 -10.5t-24.5 11z" />
    <glyph glyph-name="alpha" unicode="&#x3b1;" horiz-adv-x="589" 
d="M145 17q-51 33 -80 91t-29 132q0 73 29 131.5t80 91.5t115 33q53 0 95 -24.5t68 -67.5h24v76h52v-480h-52v75h-24q-26 -42 -68 -66.5t-95 -24.5q-64 0 -115 33zM357 57q41 26 65.5 73.5t24.5 109.5t-24.5 109.5t-65.5 73.5t-88 26q-46 0 -87.5 -26t-66 -74t-24.5 -109
t24.5 -109t66 -74t87.5 -26q47 0 88 26z" />
    <glyph glyph-name="beta" unicode="&#x3b2;" horiz-adv-x="533" 
d="M79 501q0 58 22.5 103.5t66 71.5t104.5 26q55 0 98.5 -23t67.5 -63t24 -91q0 -97 -87 -142v-23q55 -23 86.5 -66t31.5 -103q0 -59 -27 -106t-74 -74t-106 -27q-39 0 -72.5 17.5t-57.5 54.5h-25l5 -86v-186h-57v717zM359 56q35 21 56 56.5t21 77.5q0 41 -22 76.5
t-58.5 56.5t-78.5 21h-28v48h17q63 0 101 37t38 96q0 56 -39 91t-94 35q-63 0 -99.5 -41t-36.5 -109v-307q0 -71 38.5 -115t107.5 -44q42 0 77 21z" />
    <glyph glyph-name="gamma" unicode="&#x3b3;" horiz-adv-x="492" 
d="M218 -4l-210 484h60l168 -414h20l170 414h58l-212 -484v-212h-54v212z" />
    <glyph glyph-name="delta" unicode="&#x3b4;" horiz-adv-x="556" 
d="M153 18q-55 34 -86 92.5t-31 129.5q0 99 54.5 165.5t148.5 83.5h48l-205 155v42h378v-47h-291l246 -184q49 -37 77 -91t28 -124q0 -71 -31 -129.5t-86 -92.5t-125 -34t-125 34zM369.5 56.5q42.5 25.5 68.5 73t26 110.5t-26 110.5t-68.5 73t-91.5 25.5t-92 -25.5t-69 -73
t-26 -110.5t26 -110.5t69 -73t92 -25.5t91.5 25.5z" />
    <glyph glyph-name="epsilon" unicode="&#x3b5;" horiz-adv-x="456" 
d="M94.5 23q-50.5 39 -50.5 102q0 36 20 64t65 47v24q-37 16 -53 41t-16 61q0 37 22 67.5t61.5 48.5t87.5 18q53 0 94 -18t67 -45l-35 -36q-22 24 -54.5 38t-71.5 14q-50 0 -82.5 -27.5t-32.5 -64.5q0 -44 30 -69t71 -25h60v-38h-66q-50 0 -80.5 -28t-30.5 -68
q0 -45 37 -71.5t96 -26.5q44 0 80 19t61 46l36 -37q-25 -30 -74 -52.5t-103 -22.5q-88 0 -138.5 39z" />
    <glyph glyph-name="zeta" unicode="&#x3b6;" horiz-adv-x="457" 
d="M321 -121q17 0 35 17t18 44t-17.5 43.5t-50.5 16.5h-133q-68 0 -104.5 35.5t-36.5 91.5q0 34 15 63t46 50q38 27 261 193h-303v47h364v-52l-292 -225q-19 -15 -28.5 -32.5t-9.5 -41.5q0 -36 25 -59t64 -23h124q61 0 94.5 -29t33.5 -78q0 -47 -33.5 -77.5t-71.5 -30.5v47z
" />
    <glyph glyph-name="eta" unicode="&#x3b7;" horiz-adv-x="523" 
d="M408 298q0 76 -37.5 113.5t-99.5 37.5q-44 0 -79 -25.5t-54 -66.5t-19 -85v-272h-56v480h52v-75h25q23 42 64.5 66.5t88.5 24.5q84 0 127.5 -49.5t43.5 -135.5v-527h-56v514z" />
    <glyph glyph-name="theta" unicode="&#x3b8;" horiz-adv-x="625" 
d="M171.5 28.5q-57.5 44.5 -89 123t-31.5 175.5t31.5 175.5t88.5 123t133 44.5t133 -44.5t89 -123t32 -175.5t-32 -175t-89.5 -123t-132.5 -45t-132.5 44.5zM500 363q-14 122 -65 189t-131 67q-79 0 -130 -67t-65 -189h391zM406 72q44 37 67.5 99.5t27.5 155.5h-393
q4 -93 27.5 -155.5t67.5 -99.5t101 -37q58 0 102 37z" />
    <glyph glyph-name="iota" unicode="&#x3b9;" horiz-adv-x="227" 
d="M71 480h55v-480h-55v480z" />
    <glyph glyph-name="kappa" unicode="&#x3ba;" horiz-adv-x="450" 
d="M63 480h55v-223v-8v-249h-55v480zM146 253l206 227h68l-214 -227l225 -253h-67z" />
    <glyph glyph-name="lambda" unicode="&#x3bb;" horiz-adv-x="444" 
d="M199 443l-105 233h55l287 -676h-59l-143 359h-20l-147 -359h-59z" />
    <glyph glyph-name="uni03BC" unicode="&#x3bc;" horiz-adv-x="523" 
d="M59 480h56v-290q0 -80 37 -119.5t95 -39.5q47 0 82.5 25.5t55 66.5t19.5 85v272h56v-480h-52v74h-25q-24 -43 -63.5 -66.5t-89.5 -23.5q-27 0 -51 11t-46 34h-23l5 -75v-170h-56v696z" />
    <glyph glyph-name="nu" unicode="&#x3bd;" horiz-adv-x="504" 
d="M7 480h59l154 -410h20l156 410h57l-191 -480h-66z" />
    <glyph glyph-name="xi" unicode="&#x3be;" horiz-adv-x="490" 
d="M353 -121q17 0 35.5 17t18.5 44t-18 43.5t-50 16.5h-85q-108 0 -165 52t-57 141q0 59 30.5 97t88.5 62v23q-47 25 -71 57.5t-24 85.5t25 95t70 65.5t103 23.5q59 0 105 -23t77 -60l-37 -37q-24 31 -60.5 50t-84.5 19q-61 0 -101.5 -37t-40.5 -95q0 -62 42 -98t105 -36h81
v-49h-93q-68 0 -113 -40.5t-45 -103.5q0 -66 44.5 -103.5t120.5 -37.5h77q60 0 93.5 -30t33.5 -79t-33 -79.5t-72 -30.5v47z" />
    <glyph glyph-name="omicron" unicode="&#x3bf;" horiz-adv-x="586" 
d="M153 18q-55 34 -86 92.5t-31 129.5t31 129.5t86 92.5t125 34t125 -34t86 -92.5t31 -129.5t-31 -129.5t-86 -92.5t-125 -34t-125 34zM369.5 56.5q42.5 25.5 68.5 73t26 110.5t-26 110.5t-68.5 73t-91.5 25.5t-92 -25.5t-69 -73t-26 -110.5t26 -110.5t69 -73t92 -25.5
t91.5 25.5z" />
    <glyph glyph-name="pi" unicode="&#x3c0;" horiz-adv-x="661" 
d="M487 27.5q-35 35.5 -35 101.5v304h-257v-433h-54v433h-118v47h601v-47h-118v-298q0 -45 20.5 -70.5t54.5 -25.5q32 0 39 4v-47q-14 -4 -39 -4q-59 0 -94 35.5z" />
    <glyph glyph-name="rho" unicode="&#x3c1;" horiz-adv-x="560" 
d="M62 242q0 73 29 131t81.5 90.5t119.5 32.5q68 0 121 -33t82.5 -91t29.5 -132t-29 -132t-80.5 -91t-114.5 -33q-53 0 -95.5 24.5t-68.5 66.5h-25l5 -83v-209h-55v459zM379 57q41 26 65.5 73.5t24.5 109.5q0 61 -24.5 108.5t-66 73.5t-87.5 26q-47 0 -88 -25.5t-65.5 -73
t-24.5 -109.5t24.5 -109.5t65.5 -73.5t88 -26t88 26z" />
    <glyph glyph-name="sigma1" unicode="&#x3c2;" horiz-adv-x="499" 
d="M361 -137q18 0 37 17t19 44t-18 43.5t-49 16.5h-52q-85 0 -144.5 34t-88.5 92t-29 130q0 73 30 131.5t84 91.5t123 33q77 0 129 -36t68 -82l-50 -20q-15 37 -55 64t-95 27q-48 0 -89 -26.5t-66 -74t-25 -108.5q0 -59 25.5 -106.5t71.5 -75t108 -27.5h47q61 0 94 -29
t33 -78q0 -48 -33.5 -78t-74.5 -30v47z" />
    <glyph glyph-name="sigma" unicode="&#x3c3;" horiz-adv-x="570" 
d="M146.5 16q-53.5 32 -82 88.5t-28.5 127.5t28.5 127.5t82 88.5t123.5 32h283v-47h-44l-82 5v-26q77 -77 77 -180q0 -71 -29 -127.5t-82.5 -88.5t-122.5 -32q-70 0 -123.5 32zM358.5 55q40.5 24 65.5 69.5t25 107.5t-25 107.5t-65.5 69.5t-88.5 24q-49 0 -89.5 -24
t-65.5 -69.5t-25 -107.5t25 -107.5t65.5 -69.5t89.5 -24q48 0 88.5 24z" />
    <glyph glyph-name="tau" unicode="&#x3c4;" horiz-adv-x="434" 
d="M190 433h-162v47h379v-47h-163v-433h-54v433z" />
    <glyph glyph-name="upsilon" unicode="&#x3c5;" horiz-adv-x="522" 
d="M158 12q-46 28 -72.5 77t-26.5 109v282h56v-265q0 -87 42 -135.5t109 -48.5q43 0 80.5 23t60.5 67.5t23 104.5q0 64 -24.5 136t-53.5 118h59q30 -50 52.5 -118t22.5 -136q0 -80 -32 -134.5t-83 -81t-111 -26.5q-56 0 -102 28z" />
    <glyph glyph-name="phi" unicode="&#x3c6;" horiz-adv-x="696" 
d="M612.5 122.5q-32.5 -56.5 -91.5 -92.5t-148 -45v-201h-54v201q-86 9 -144 44.5t-91 92t-33 126.5q0 159 155 244l24 -49q-44 -22 -83 -72t-39 -123q0 -92 55.5 -147.5t155.5 -68.5v331q0 65 34 99t89 34q56 0 102.5 -32.5t73.5 -89.5t27 -126t-32.5 -125.5zM532 100.5
q57 54.5 57 147.5q0 55 -19 99.5t-51.5 71t-71.5 26.5q-34 0 -54 -23.5t-20 -61.5v-328q102 14 159 68.5z" />
    <glyph glyph-name="chi" unicode="&#x3c7;" horiz-adv-x="479" 
d="M178 244l-161 236h59l135 -200l131 200h63l-164 -236l167 -244h-62l-136 207l-135 -207h-62z" />
    <glyph glyph-name="psi" unicode="&#x3c8;" horiz-adv-x="664" 
d="M313 -16h-17q-70 0 -124 30.5t-83.5 84.5t-29.5 123v258h56v-257q0 -61 24.5 -104.5t65.5 -65.5t90 -22h18v449h54v-449h17q51 0 94 23.5t69 68.5t26 105q0 135 -65 252h58q27 -49 45 -117t18 -135q0 -79 -35 -133.5t-91 -82.5t-119 -28h-17v-200h-54v200z" />
    <glyph glyph-name="omega" unicode="&#x3c9;" horiz-adv-x="756" 
d="M132.5 11.5q-44.5 27.5 -70.5 82t-26 133.5q0 127 68 253h59q-73 -122 -73 -253q0 -89 36.5 -142.5t102.5 -53.5q56 0 89.5 49.5t33.5 135.5v139h52v-139q0 -86 33.5 -135.5t89.5 -49.5q66 0 102.5 53.5t36.5 142.5q0 131 -73 253h59q68 -126 68 -253q0 -79 -26 -133.5
t-70.5 -82t-97.5 -27.5q-44 0 -78.5 23t-69.5 93q-35 -70 -69.5 -93t-78.5 -23q-53 0 -97.5 27.5z" />
    <glyph glyph-name="iotadieresis" unicode="&#x3ca;" horiz-adv-x="192" 
d="M4 636.5q-11 11.5 -11 27.5q0 17 11 27.5t28 10.5t27.5 -10.5t10.5 -27.5q0 -16 -10.5 -27.5t-27.5 -11.5t-28 11.5zM133.5 636.5q-11.5 11.5 -11.5 27.5q0 17 11.5 27.5t27.5 10.5q18 0 28 -10.5t10 -27.5q0 -16 -10 -27.5t-28 -11.5q-16 0 -27.5 11.5zM69 480h55v-480
h-55v480z" />
    <glyph glyph-name="upsilondieresis" unicode="&#x3cb;" horiz-adv-x="552" 
d="M158 12q-46 28 -72.5 77t-26.5 109v282h56v-265q0 -87 42 -135.5t109 -48.5q43 0 80.5 23t60.5 67.5t23 104.5q0 64 -24.5 136t-53.5 118h59q30 -50 52.5 -118t22.5 -136q0 -80 -32 -134.5t-83 -81t-111 -26.5q-56 0 -102 28zM145 636.5q-11 11.5 -11 27.5q0 17 11 27.5
t28 10.5t27.5 -10.5t10.5 -27.5q0 -16 -10.5 -27.5t-27.5 -11.5t-28 11.5zM305 636.5q-12 11.5 -12 27.5q0 17 11.5 27.5t27.5 10.5q18 0 28.5 -10.5t10.5 -27.5q0 -16 -10.5 -27.5t-28.5 -11.5q-15 0 -27 11.5z" />
    <glyph glyph-name="omicrontonos" unicode="&#x3cc;" horiz-adv-x="586" 
d="M153 18q-55 34 -86 92.5t-31 129.5t31 129.5t86 92.5t125 34t125 -34t86 -92.5t31 -129.5t-31 -129.5t-86 -92.5t-125 -34t-125 34zM369.5 56.5q42.5 25.5 68.5 73t26 110.5t-26 110.5t-68.5 73t-91.5 25.5t-92 -25.5t-69 -73t-26 -110.5t26 -110.5t69 -73t92 -25.5
t91.5 25.5zM294 706h58l-53 -97h-43z" />
    <glyph glyph-name="upsilontonos" unicode="&#x3cd;" horiz-adv-x="552" 
d="M158 12q-46 28 -72.5 77t-26.5 109v282h56v-265q0 -87 42 -135.5t109 -48.5q43 0 80.5 23t60.5 67.5t23 104.5q0 64 -24.5 136t-53.5 118h59q30 -50 52.5 -118t22.5 -136q0 -80 -32 -134.5t-83 -81t-111 -26.5q-56 0 -102 28zM268 706h59l-53 -97h-44z" />
    <glyph glyph-name="omegatonos" unicode="&#x3ce;" horiz-adv-x="786" 
d="M132.5 11.5q-44.5 27.5 -70.5 82t-26 133.5q0 127 68 253h59q-73 -122 -73 -253q0 -89 36.5 -142.5t102.5 -53.5q56 0 89.5 49.5t33.5 135.5v139h52v-139q0 -86 33.5 -135.5t89.5 -49.5q66 0 102.5 53.5t36.5 142.5q0 131 -73 253h59q68 -126 68 -253q0 -79 -26 -133.5
t-70.5 -82t-97.5 -27.5q-44 0 -78.5 23t-69.5 93q-35 -70 -69.5 -93t-78.5 -23q-53 0 -97.5 27.5zM394 706h58l-53 -97h-43z" />
    <glyph glyph-name="theta1" unicode="&#x3d1;" horiz-adv-x="594" 
d="M158 11.5q-47 27.5 -73 75.5t-26 110v283h56v-266q0 -88 41 -135.5t111 -47.5q71 0 112 48t41 135v65q-68 14 -116 52.5t-76 94.5t-28 118q0 49 18 85t49 54.5t69 18.5q65 0 102 -44t37 -111v-219h89v-47h-89v-84q0 -62 -25.5 -110t-72.5 -75.5t-110 -27.5
q-62 0 -109 27.5zM420 553q0 41 -22 70.5t-62 29.5q-36 0 -59 -31t-23 -79q0 -72 42 -132t124 -85v227z" />
    <glyph glyph-name="Upsilon1" unicode="&#x3d2;" horiz-adv-x="575" 
d="M260 303l-132 268q-18 37 -36 54t-43 17q-23 0 -27 -2v49q-1 0 12 2.5t23 2.5q37 0 62 -19.5t53 -79.5l103 -225h24l104 225q28 60 53 79.5t62 19.5q10 0 23 -2.5t12 -2.5v-49q-2 2 -27 2t-43 -17t-36 -54l-132 -268v-303h-55v303z" />
    <glyph glyph-name="uni03D3" unicode="&#x3d3;" horiz-adv-x="684" 
d="M-31 686h57l-54 -97h-43zM341 303l-132 268q-18 37 -36 54t-43 17q-23 0 -27 -2v49q-1 0 12 2.5t23 2.5q37 0 62 -19.5t53 -79.5l103 -225h24l104 225q28 60 53 79.5t62 19.5q10 0 23 -2.5t12 -2.5v-49q-2 2 -27 2t-43 -17t-36 -54l-132 -268v-303h-55v303z" />
    <glyph glyph-name="uni03D4" unicode="&#x3d4;" horiz-adv-x="603" 
d="M260 303l-132 268q-18 37 -36 54t-43 17q-23 0 -27 -2v49q-1 0 12 2.5t23 2.5q37 0 62 -19.5t53 -79.5l103 -225h24l104 225q28 60 53 79.5t62 19.5q10 0 23 -2.5t12 -2.5v-49q-2 2 -27 2t-43 -17t-36 -54l-132 -268v-303h-55v303zM177.5 801q-11.5 12 -11.5 27
q0 17 11.5 28t27.5 11q17 0 27.5 -11t10.5 -28q0 -16 -10.5 -27.5t-27.5 -11.5q-16 0 -27.5 12zM342 801q-12 12 -12 27q0 17 11.5 28t27.5 11q17 0 28 -11t11 -28q0 -16 -11 -27.5t-28 -11.5q-15 0 -27 12z" />
    <glyph glyph-name="omega1" unicode="&#x3d6;" horiz-adv-x="848" 
d="M178.5 11.5q-44.5 27.5 -70.5 82t-26 133.5q0 90 49 206h-85v47h756v-47h-85q49 -112 49 -206q0 -79 -26 -133.5t-70.5 -82t-97.5 -27.5q-44 0 -78.5 23t-69.5 93q-34 -69 -69 -92.5t-79 -23.5q-53 0 -97.5 27.5zM365 80.5q34 49.5 34 135.5v83h51v-83q0 -87 33.5 -136
t90.5 -49q65 0 101.5 53.5t36.5 142.5t-55 206h-466q-54 -115 -54 -206q0 -89 36 -142.5t102 -53.5q56 0 90 49.5z" />
    <glyph glyph-name="uni0400" unicode="&#x400;" horiz-adv-x="551" 
d="M80 686h384v-51h-329v-267h297v-50h-297v-267h329v-51h-384v686zM180 870h58l40 -97h-44z" />
    <glyph glyph-name="uni0401" unicode="&#x401;" horiz-adv-x="551" 
d="M80 686h384v-51h-329v-267h297v-50h-297v-267h329v-51h-384v686zM162.5 801q-11.5 12 -11.5 27q0 17 11.5 28t27.5 11q17 0 27.5 -11t10.5 -28q0 -16 -10.5 -27.5t-27.5 -11.5q-16 0 -27.5 12zM327 801q-12 12 -12 27q0 17 11.5 28t27.5 11q17 0 28 -11t11 -28
q0 -16 -11 -27.5t-28 -11.5q-15 0 -27 12z" />
    <glyph glyph-name="uni0402" unicode="&#x402;" horiz-adv-x="722" 
d="M218 635h-192v51h441v-51h-195v-215l-5 -85h26q73 73 180 73q55 0 104 -25.5t79 -73t30 -109.5q0 -63 -26.5 -107.5t-71.5 -68t-98 -24.5h-10v51h10q65 0 102.5 42.5t37.5 106.5q0 44 -21.5 80t-61 57t-90.5 21q-59 0 -105 -23.5t-80 -69.5v-265h-54v635z" />
    <glyph glyph-name="uni0403" unicode="&#x403;" horiz-adv-x="505" 
d="M80 686h368v-51h-313v-635h-55v686zM282 870h57l-54 -97h-43z" />
    <glyph glyph-name="uni0404" unicode="&#x404;" horiz-adv-x="702" 
d="M660 96q-38 -46 -108 -79t-155 -33q-99 0 -179.5 47t-126.5 129t-46 183t46 183t126.5 129t179.5 47q78 0 141.5 -29t99.5 -72l-38 -38q-70 88 -203 88q-75 0 -139.5 -32.5t-106 -93.5t-53.5 -157h339v-50h-339q12 -96 53.5 -157t106 -93.5t139.5 -32.5q72 0 130.5 29.5
t93.5 69.5z" />
    <glyph glyph-name="uni0405" unicode="&#x405;" horiz-adv-x="562" 
d="M163.5 5q-47.5 21 -84 62t-49.5 87l53 22q14 -52 63.5 -96.5t117.5 -44.5q67 0 115 37.5t48 102.5q0 57 -40 92.5t-126 64.5l-45 16q-73 26 -117.5 67t-44.5 112q0 47 25.5 87t72.5 64t105 24t101 -21.5t69 -52t31 -47.5l-50 -22q-8 26 -47.5 59t-102.5 33
q-60 0 -104 -35t-44 -89q0 -49 37 -78.5t106 -53.5l47 -16q88 -32 135.5 -78t47.5 -125q0 -64 -32.5 -107.5t-83.5 -64t-105 -20.5q-51 0 -98.5 21z" />
    <glyph glyph-name="uni0406" unicode="&#x406;" horiz-adv-x="245" 
d="M80 686h55v-686h-55v686z" />
    <glyph glyph-name="uni0407" unicode="&#x407;" horiz-adv-x="215" 
d="M8.5 817.5q-10.5 10.5 -10.5 23.5q0 15 10 24.5t24 9.5q15 0 24.5 -9.5t9.5 -24.5q0 -14 -9.5 -24t-24.5 -10q-13 0 -23.5 10.5zM158.5 817.5q-10.5 10.5 -10.5 23.5q0 14 10.5 24t23.5 10q16 0 25.5 -9.5t9.5 -24.5q0 -14 -10 -24t-25 -10q-13 0 -23.5 10.5zM80 686h55
v-686h-55v686z" />
    <glyph glyph-name="uni0408" unicode="&#x408;" horiz-adv-x="530" 
d="M100 24.5q-55 40.5 -74 101.5l52 22q35 -113 151 -113q66 0 105.5 45.5t39.5 118.5v487h55v-480q0 -71 -25.5 -121t-70.5 -75.5t-104 -25.5q-74 0 -129 40.5z" />
    <glyph glyph-name="uni0409" unicode="&#x409;" horiz-adv-x="1046" 
d="M31 -8v49q-5 2 18 2q45 0 75 30q23 25 31 76.5t8 151.5v385h445v-306h197q54 0 100.5 -23.5t73.5 -66t27 -99.5t-27.5 -100.5t-73.5 -67t-100 -23.5h-252v635h-335v-370q0 -98 -14.5 -152t-44.5 -83q-37 -38 -110 -38h-18zM809 51q41 0 73.5 19.5t50 51.5t17.5 68
t-17.5 68.5t-49.5 52t-74 19.5h-201v-279h201z" />
    <glyph glyph-name="uni040A" unicode="&#x40a;" horiz-adv-x="987" 
d="M80 686h55v-306h359v306h54v-306h197q54 0 101 -23.5t74 -66t27 -99.5t-27.5 -100.5t-74 -67t-100.5 -23.5h-251v330h-359v-330h-55v686zM749 51q42 0 74.5 19.5t50 51.5t17.5 68t-17.5 68.5t-50 52t-74.5 19.5h-201v-279h201z" />
    <glyph glyph-name="uni040B" unicode="&#x40b;" horiz-adv-x="719" 
d="M218 635h-192v51h441v-51h-195v-215l-5 -85h27q68 73 170 73q54 0 99 -24t71.5 -69t26.5 -106v-209h-56v194q0 77 -42 120.5t-118 43.5q-54 0 -96.5 -23t-76.5 -70v-265h-54v635z" />
    <glyph glyph-name="uni040C" unicode="&#x40c;" horiz-adv-x="614" 
d="M80 686h55v-349v-8v-329h-55v686zM164 333l311 353h74l-317 -351l329 -335h-79zM309 870h57l-54 -97h-43z" />
    <glyph glyph-name="uni040D" unicode="&#x40d;" horiz-adv-x="700" 
d="M80 686h55v-417l-4 -153h27l351 570h81v-686h-55v444l4 153h-27l-367 -597h-65v686zM243 870h58l40 -97h-44z" />
    <glyph glyph-name="uni040E" unicode="&#x40e;" horiz-adv-x="601" 
d="M84 -9v52q15 -8 43 -8q36 0 56.5 15t39.5 54l27 61l-235 521h66l185 -437h24l184 437h66l-265 -583q-28 -61 -64 -90t-86 -29q-29 0 -41 7zM231 786.5q-26 14.5 -42 39.5t-16 40h39q0 -16 20 -38t54 -22q32 0 52 22t20 38h38q0 -15 -15.5 -40t-41 -39.5t-53.5 -14.5
q-29 0 -55 14.5z" />
    <glyph glyph-name="uni040F" unicode="&#x40f;" horiz-adv-x="644" 
d="M296 0h-216v686h55v-635h375v635h54v-686h-216v-152h-52v152z" />
    <glyph glyph-name="uni0410" unicode="&#x410;" horiz-adv-x="670" 
d="M275 686h76l260 -686h-61l-72 197h-330l-72 -197h-61zM461 247l-104 278l-31 87h-26l-31 -87l-104 -278h296z" />
    <glyph glyph-name="uni0411" unicode="&#x411;" horiz-adv-x="576" 
d="M80 686h383v-51h-328v-254h201q53 0 99 -23.5t73.5 -67t27.5 -99.5q0 -57 -27.5 -100t-73.5 -67t-99 -24h-256v686zM340 51q41 0 73 20t49.5 52t17.5 67t-17.5 67.5t-49.5 52.5t-73 20h-205v-279h205z" />
    <glyph glyph-name="uni0412" unicode="&#x412;" horiz-adv-x="606" 
d="M80 686h242q50 0 94 -23t70 -63.5t26 -91.5q0 -47 -24 -82.5t-74 -58.5v-25q60 -20 91 -60t31 -94t-27.5 -97t-73.5 -67t-99 -24h-256v686zM322 377q40 0 71 18.5t48 48.5t17 62q0 31 -16.5 61t-46.5 49t-69 19h-191v-258h187zM341 51q40 0 72 20t49.5 52t17.5 66t-18 66
t-50.5 51.5t-74.5 19.5h-202v-275h206z" />
    <glyph glyph-name="uni0413" unicode="&#x413;" horiz-adv-x="475" 
d="M80 686h368v-51h-313v-635h-55v686z" />
    <glyph glyph-name="uni0414" unicode="&#x414;" horiz-adv-x="750" 
d="M704 -152h-51v152h-556v-152h-51v203h56q57 56 81.5 168.5t24.5 244.5v222h420v-635h76v-203zM574 51v584h-313v-183q0 -120 -21 -217.5t-75 -183.5h409z" />
    <glyph glyph-name="uni0415" unicode="&#x415;" horiz-adv-x="551" 
d="M80 686h384v-51h-329v-267h297v-50h-297v-267h329v-51h-384v686z" />
    <glyph glyph-name="uni0416" unicode="&#x416;" horiz-adv-x="864" 
d="M21 0l296 335l-287 351h67l282 -350h26v350h54v-350h26l281 350h68l-287 -351l296 -335h-73l-285 330h-26v-330h-54v330h-26l-286 -330h-72z" />
    <glyph glyph-name="uni0417" unicode="&#x417;" horiz-adv-x="550" 
d="M255 -16q-43 0 -86.5 17.5t-79 55.5t-47.5 83l51 21q12 -48 57 -87t105 -39q44 0 81 20t60 54t23 78q0 42 -23.5 76t-61.5 53t-83 19h-46v50h40q64 0 107 37t43 98q0 58 -42.5 94.5t-103.5 36.5q-56 0 -93.5 -34.5t-45.5 -61.5l-51 21q13 40 63 83t127 43q58 0 104 -23.5
t72 -65t26 -92.5q0 -54 -25 -88.5t-94 -70.5l22 -9q59 -25 90 -66t31 -100t-29 -105t-79.5 -72t-111.5 -26z" />
    <glyph glyph-name="uni0418" unicode="&#x418;" horiz-adv-x="670" 
d="M80 686h55v-417l-4 -153h27l351 570h81v-686h-55v444l4 153h-27l-367 -597h-65v686z" />
    <glyph glyph-name="uni0419" unicode="&#x419;" horiz-adv-x="700" 
d="M80 686h55v-417l-4 -153h27l351 570h81v-686h-55v444l4 153h-27l-367 -597h-65v686zM281 786.5q-26 14.5 -42 39.5t-16 40h39q0 -16 20 -38t54 -22q32 0 52 22t20 38h38q0 -15 -15.5 -40t-41 -39.5t-53.5 -14.5q-29 0 -55 14.5z" />
    <glyph glyph-name="uni041A" unicode="&#x41a;" horiz-adv-x="614" 
d="M80 686h55v-349v-8v-329h-55v686zM164 333l311 353h74l-317 -351l329 -335h-79z" />
    <glyph glyph-name="uni041B" unicode="&#x41b;" horiz-adv-x="688" 
d="M31 -8v49q-5 2 18 2q45 0 75 30q23 25 31 76.5t8 151.5v385h445v-686h-55v635h-335v-370q0 -98 -14.5 -152t-44.5 -83q-37 -38 -110 -38h-18z" />
    <glyph glyph-name="uni041C" unicode="&#x41c;" horiz-adv-x="866" 
d="M80 686h98l228 -587h24l228 587h98v-686h-54v440l4 151h-29l-234 -591h-50l-234 591h-29l4 -151v-440h-54v686z" />
    <glyph glyph-name="uni041D" unicode="&#x41d;" horiz-adv-x="698" 
d="M80 686h55v-309h398v309h55v-686h-55v326h-398v-326h-55v686z" />
    <glyph glyph-name="uni041E" unicode="&#x41e;" horiz-adv-x="824" 
d="M217.5 32q-80.5 48 -126.5 130.5t-46 180.5t46 180.5t126.5 130.5t179.5 48t179.5 -48t126.5 -130.5t46 -180.5t-46 -180.5t-126.5 -130.5t-179.5 -48t-179.5 48zM546 74.5q68 39.5 107.5 109.5t39.5 159t-39.5 159t-107.5 109.5t-149 39.5t-149 -39.5t-107.5 -109.5
t-39.5 -159t39.5 -159t107.5 -109.5t149 -39.5t149 39.5z" />
    <glyph glyph-name="uni041F" unicode="&#x41f;" horiz-adv-x="644" 
d="M80 686h484v-686h-54v635h-375v-635h-55v686z" />
    <glyph glyph-name="uni0420" unicode="&#x420;" horiz-adv-x="576" 
d="M80 686h226q56 0 103.5 -25t76 -70t28.5 -102t-28.5 -102t-76 -70t-103.5 -25h-171v-292h-55v686zM308 343q44 0 78 21t53 54.5t19 70.5t-19 70.5t-53 54.5t-78 21h-173v-292h173z" />
    <glyph glyph-name="uni0421" unicode="&#x421;" horiz-adv-x="741" 
d="M219.5 31q-81.5 47 -128 129t-46.5 183t46.5 183t128 129t181.5 47q77 0 140.5 -28.5t100.5 -72.5l-39 -38q-33 39 -84.5 63.5t-117.5 24.5q-82 0 -150.5 -38.5t-109 -108.5t-40.5 -161t40.5 -161t109 -108.5t150.5 -38.5q137 0 222 100l41 -39q-38 -46 -108.5 -79
t-154.5 -33q-100 0 -181.5 47z" />
    <glyph glyph-name="uni0422" unicode="&#x422;" horiz-adv-x="538" 
d="M227 635h-201v51h456v-51h-200v-635h-55v635z" />
    <glyph glyph-name="uni0423" unicode="&#x423;" horiz-adv-x="555" 
d="M84 -9v52q15 -8 43 -8q36 0 56.5 15t39.5 54l27 61l-235 521h66l185 -437h24l184 437h66l-265 -583q-28 -61 -64 -90t-86 -29q-29 0 -41 7z" />
    <glyph glyph-name="uni0424" unicode="&#x424;" horiz-adv-x="785" 
d="M701 204q-38 -62 -107 -100t-174 -47v-105h-55v105q-104 8 -173.5 46.5t-108 100.5t-38.5 139t38.5 139t108 100.5t173.5 46.5v105h55v-105q105 -9 174 -47t107 -100t38 -139t-38 -139zM168.5 182q67.5 -63 196.5 -77v476q-129 -14 -196.5 -77t-67.5 -161t67.5 -161z
M616 182.5q67 63.5 67 160.5t-67 160.5t-196 77.5v-476q129 14 196 77.5z" />
    <glyph glyph-name="uni0425" unicode="&#x425;" horiz-adv-x="631" 
d="M250 355l-218 331h66l180 -279h20l180 279h65l-218 -331l232 -355h-64l-195 299h-20l-196 -299h-64z" />
    <glyph glyph-name="uni0426" unicode="&#x426;" horiz-adv-x="666" 
d="M565 0h-485v686h55v-635h351v635h54v-635h80v-219h-55v168z" />
    <glyph glyph-name="uni0427" unicode="&#x427;" horiz-adv-x="567" 
d="M453 348q-58 -55 -97.5 -71.5t-95.5 -16.5q-60 0 -108.5 24t-76 68.5t-27.5 106.5v227h56v-212q0 -78 47 -121t125 -43q55 0 99.5 24t77.5 70v282h55v-686h-55v348z" />
    <glyph glyph-name="uni0428" unicode="&#x428;" horiz-adv-x="878" 
d="M80 686h55v-635h277v635h54v-635h278v635h54v-686h-718v686z" />
    <glyph glyph-name="uni0429" unicode="&#x429;" horiz-adv-x="924" 
d="M823 0h-743v686h55v-635h277v635h54v-635h278v635h54v-635h80v-219h-55v168z" />
    <glyph glyph-name="uni042A" unicode="&#x42a;" horiz-adv-x="717" 
d="M214 635h-188v51h243v-265h187q59 0 110.5 -26t81.5 -74t30 -110q0 -63 -30 -111t-81.5 -74t-110.5 -26h-242v635zM462 51q47 0 83.5 22.5t56 59.5t19.5 77t-19.5 77t-56 60t-83.5 23h-193v-319h193z" />
    <glyph glyph-name="uni042B" unicode="&#x42b;" horiz-adv-x="789" 
d="M80 686h55v-265h187q59 0 109.5 -26t81 -74t30.5 -110q0 -63 -30.5 -111t-81 -74t-109.5 -26h-242v686zM655 686h54v-686h-54v686zM327 51q47 0 83.5 22.5t56.5 59.5t20 77t-20 77t-56.5 60t-83.5 23h-192v-319h192z" />
    <glyph glyph-name="uni042C" unicode="&#x42c;" horiz-adv-x="583" 
d="M80 686h55v-265h187q59 0 109.5 -26t81 -74t30.5 -110q0 -63 -30.5 -111t-81 -74t-109.5 -26h-242v686zM327 51q47 0 83.5 22.5t56.5 59.5t20 77t-20 77t-56.5 60t-83.5 23h-192v-319h192z" />
    <glyph glyph-name="uni042D" unicode="&#x42d;" horiz-adv-x="702" 
d="M485.5 655q80.5 -47 126 -129t45.5 -183t-45.5 -183t-126 -129t-180.5 -47q-85 0 -155 33t-108 79l40 38q84 -99 223 -99q76 0 140 32.5t105.5 93.5t53.5 157h-338v50h338q-12 96 -53.5 157t-105.5 93.5t-140 32.5q-132 0 -202 -88l-39 38q37 44 100.5 72.5t140.5 28.5
q100 0 180.5 -47z" />
    <glyph glyph-name="uni042E" unicode="&#x42e;" horiz-adv-x="1055" 
d="M836.5 654q80.5 -48 126.5 -130.5t46 -180.5q0 -99 -46 -181t-126.5 -130t-179.5 -48q-94 0 -171.5 43t-125 118t-55.5 181h-170v-326h-55v686h55v-310h171q12 101 60 172.5t124 112.5t167 41q99 0 179.5 -48zM806 74.5q68 39.5 107.5 109.5t39.5 159t-39.5 159
t-107.5 109.5t-149 39.5t-148.5 -39.5t-107.5 -110t-40 -158.5t40 -158.5t107.5 -110t148.5 -39.5t149 39.5z" />
    <glyph glyph-name="uni042F" unicode="&#x42f;" horiz-adv-x="551" 
d="M9 -16l205 298l-11 16q-51 11 -87.5 38t-57.5 67t-21 86q0 57 28.5 102t76 70t102.5 25h227v-686h-54v292h-136l-195 -292h-77v-16zM417 341v294h-174q-44 0 -78 -21t-53 -54.5t-19 -70.5q0 -42 22 -76t57.5 -53t77.5 -19h167z" />
    <glyph glyph-name="uni0430" unicode="&#x430;" horiz-adv-x="523" 
d="M116.5 4.5q-40.5 20.5 -61.5 55t-21 79.5q0 73 55 115t141 42q43 0 80 -9.5t76 -34.5v57q0 64 -43 102.5t-108 38.5q-44 0 -82.5 -20t-53.5 -44l-40 31q19 30 67.5 54.5t108.5 24.5q96 0 149.5 -50.5t53.5 -137.5v-308h-52v73h-25q-24 -41 -63.5 -65t-89.5 -24
q-51 0 -91.5 20.5zM300 53q39 24 62.5 64.5t23.5 96.5q-32 22 -67.5 32.5t-75.5 10.5q-73 0 -112 -33t-39 -86q0 -49 36 -79t88 -30q45 0 84 24z" />
    <glyph glyph-name="uni0431" unicode="&#x431;" horiz-adv-x="577" 
d="M179 17.5q-54 33.5 -86.5 103t-32.5 176.5q0 117 23.5 186.5t63.5 110.5q34 35 83 54.5t108 19.5q38 0 59.5 4t32.5 13.5t13 17.5h56q-8 -40 -43.5 -61t-112.5 -21q-59 0 -94.5 -14.5t-62.5 -41.5q-56 -58 -69 -170h26q29 47 73 74t106 27q63 0 113 -33.5t79.5 -92.5
t29.5 -130q0 -72 -31 -130.5t-85.5 -92t-124.5 -33.5t-124 33.5zM394.5 56.5q42.5 25.5 68.5 73t26 110.5t-26 110.5t-68.5 73t-91.5 25.5t-91.5 -25.5t-67.5 -73t-25 -110.5q0 -62 25 -109.5t67.5 -73.5t91.5 -26t91.5 25.5z" />
    <glyph glyph-name="uni0432" unicode="&#x432;" horiz-adv-x="471" 
d="M63 480h225q38 0 69.5 -16t48.5 -43t17 -60q0 -34 -15.5 -60t-47.5 -43v-23q43 -17 61.5 -42.5t18.5 -59.5q0 -39 -18.5 -69t-50.5 -47t-69 -17h-239v480zM284 265q36 0 60 24t24 60q0 37 -24.5 60.5t-60.5 23.5h-165v-168h166zM295 47q36 0 62.5 26t26.5 64
q0 37 -26.5 63t-62.5 26h-177v-179h177z" />
    <glyph glyph-name="uni0433" unicode="&#x433;" horiz-adv-x="395" 
d="M63 480h304v-47h-248v-433h-56v480z" />
    <glyph glyph-name="uni0434" unicode="&#x434;" horiz-adv-x="611" 
d="M32 47h43q31 33 47.5 103t16.5 148v182h365v-433h74v-199h-52v152h-442v-152h-52v199zM449 47v386h-256v-142q0 -63 -12 -121t-47 -123h315z" />
    <glyph glyph-name="uni0435" unicode="&#x435;" horiz-adv-x="553" 
d="M148.5 17q-53.5 33 -83 91t-29.5 131q0 70 28 129t79.5 93.5t119.5 34.5q70 0 120.5 -31.5t77 -87t26.5 -127.5l-1 -11h-396q4 -78 30.5 -121t67 -65t85.5 -22q105 0 152 88l46 -23q-22 -44 -74.5 -78t-126.5 -34q-68 0 -121.5 33zM428 279q-3 51 -20 86t-54 59.5
t-91 24.5q-64 0 -108.5 -42t-61.5 -128h335z" />
    <glyph glyph-name="uni0436" unicode="&#x436;" horiz-adv-x="689" 
d="M4 -15l227 270l-217 240v-15h82l197 -226h24v226h54v-226h24l198 226h82v15l-218 -240l228 -270v15h-81l-209 252h-24v-252h-54v252h-24l-208 -252h-81v-15z" />
    <glyph glyph-name="uni0437" unicode="&#x437;" horiz-adv-x="458" 
d="M121 6.5q-49 22.5 -73 52.5l36 37q25 -27 61 -46t80 -19q59 0 96 26.5t37 71.5q0 40 -30.5 68t-81.5 28h-65v38h60q40 0 70.5 25t30.5 69q0 38 -32.5 65t-83.5 27q-39 0 -71 -14t-54 -38l-35 35q26 28 66.5 46t93.5 18q48 0 87.5 -18t61.5 -48.5t22 -67.5q0 -36 -16 -61
t-52 -41v-24q45 -19 65 -47t20 -64q0 -63 -50.5 -102t-139.5 -39q-54 0 -103 22.5z" />
    <glyph glyph-name="uni0438" unicode="&#x438;" horiz-adv-x="533" 
d="M63 480h56v-272l-5 -111h25l269 383h61v-480h-55v272l5 111h-25l-269 -383h-62v480z" />
    <glyph glyph-name="uni0439" unicode="&#x439;" horiz-adv-x="563" 
d="M63 480h56v-272l-5 -111h25l269 383h61v-480h-55v272l5 111h-25l-269 -383h-62v480zM212.5 621.5q-25.5 14.5 -41 39.5t-15.5 41h40q0 -16 19.5 -38.5t51.5 -22.5q30 0 49.5 22.5t19.5 38.5h39q0 -16 -15 -41t-40 -39.5t-53 -14.5q-29 0 -54.5 14.5z" />
    <glyph glyph-name="uni043A" unicode="&#x43a;" horiz-adv-x="480" 
d="M63 480h55v-223v-8v-249h-55v480zM146 253l206 227h68l-214 -227l225 -253h-67z" />
    <glyph glyph-name="uni043B" unicode="&#x43b;" horiz-adv-x="584" 
d="M49 -5v46h20q28 0 43 20t20 58t5 103v258h384v-480h-56v433h-275v-238q0 -113 -30.5 -158t-80.5 -45q-23 0 -30 3z" />
    <glyph glyph-name="uni043C" unicode="&#x43c;" horiz-adv-x="648" 
d="M62 480h77l175 -343h19l175 343h78v-480h-55v266l5 111h-27l-163 -313h-43l-165 313h-27l5 -111v-266h-54v480z" />
    <glyph glyph-name="uni043D" unicode="&#x43d;" horiz-adv-x="535" 
d="M63 480h56v-214h298v214h55v-480h-55v217h-298v-217h-56v480z" />
    <glyph glyph-name="uni043E" unicode="&#x43e;" horiz-adv-x="586" 
d="M153 18q-55 34 -86 92.5t-31 129.5t31 129.5t86 92.5t125 34t125 -34t86 -92.5t31 -129.5t-31 -129.5t-86 -92.5t-125 -34t-125 34zM369.5 56.5q42.5 25.5 68.5 73t26 110.5t-26 110.5t-68.5 73t-91.5 25.5t-92 -25.5t-69 -73t-26 -110.5t26 -110.5t69 -73t92 -25.5
t91.5 25.5z" />
    <glyph glyph-name="uni043F" unicode="&#x43f;" horiz-adv-x="518" 
d="M63 480h392v-480h-56v433h-280v-433h-56v480z" />
    <glyph glyph-name="uni0440" unicode="&#x440;" horiz-adv-x="588" 
d="M59 480h52v-76h25q24 43 66.5 67.5t95.5 24.5q64 0 115 -33t80 -91.5t29 -131.5q0 -74 -29 -132t-80 -91t-115 -33q-53 0 -95.5 24.5t-67.5 66.5h-25l5 -85v-206h-56v696zM376.5 57q41.5 26 65.5 73.5t24 109.5t-24 109.5t-65.5 73.5t-87.5 26q-47 0 -88 -26t-65.5 -73.5
t-24.5 -109.5t24.5 -109.5t65.5 -73.5t88 -26q46 0 87.5 26z" />
    <glyph glyph-name="uni0441" unicode="&#x441;" horiz-adv-x="536" 
d="M150.5 17.5q-54.5 33.5 -84.5 91.5t-30 131t30 131.5t84.5 91.5t123.5 33q76 0 128 -36t68 -82l-50 -20q-15 37 -55 64t-95 27q-48 0 -89 -26.5t-66 -74t-25 -108.5t25 -108.5t66 -74t89 -26.5q56 0 97.5 27.5t56.5 63.5l48 -20q-17 -45 -70 -81.5t-128 -36.5
q-69 0 -123.5 33.5z" />
    <glyph glyph-name="uni0442" unicode="&#x442;" horiz-adv-x="464" 
d="M190 433h-162v47h379v-47h-163v-433h-54v433z" />
    <glyph glyph-name="uni0443" unicode="&#x443;" horiz-adv-x="506" 
d="M207 17l-199 463h59l156 -379h20l150 379h59l-294 -696h-56z" />
    <glyph glyph-name="uni0444" unicode="&#x444;" horiz-adv-x="727" 
d="M647.5 111.5q-34.5 -54.5 -98 -86.5t-158.5 -40v-201h-55v201q-95 8 -158.5 40t-98 86.5t-34.5 128.5q0 73 34.5 127.5t98 87t158.5 40.5v191h55v-191q95 -8 158.5 -40.5t98 -87t34.5 -127.5q0 -74 -34.5 -128.5zM569 97.5q61 53.5 61 142.5q0 88 -61 142t-178 64v-412
q117 10 178 63.5zM158 98q61 -54 178 -64v412q-117 -10 -178 -64t-61 -142t61 -142z" />
    <glyph glyph-name="uni0445" unicode="&#x445;" horiz-adv-x="479" 
d="M178 244l-161 236h59l135 -200l131 200h63l-164 -236l167 -244h-62l-136 207l-135 -207h-62z" />
    <glyph glyph-name="uni0446" unicode="&#x446;" horiz-adv-x="561" 
d="M477 0h-414v480h56v-433h280v433h56v-433h74v-199h-52v152z" />
    <glyph glyph-name="uni0447" unicode="&#x447;" horiz-adv-x="480" 
d="M362 210q-63 -52 -149 -52q-52 0 -92 22.5t-61.5 62t-21.5 87.5v150h57v-149q0 -58 36.5 -92t94.5 -34q42 0 77 12t59 40v223h55v-480h-55v210z" />
    <glyph glyph-name="uni0448" unicode="&#x448;" horiz-adv-x="744" 
d="M63 480h55v-433h217v433h55v-433h217v433h55v-480h-599v480z" />
    <glyph glyph-name="uni0449" unicode="&#x449;" horiz-adv-x="791" 
d="M684 0h-621v480h55v-433h217v433h55v-433h217v433h55v-433h74v-199h-52v152z" />
    <glyph glyph-name="uni044A" unicode="&#x44a;" horiz-adv-x="554" 
d="M144 433h-116v47h171v-179h169q44 0 80.5 -19t57 -53.5t20.5 -78.5t-20.5 -78t-57 -53t-80.5 -19h-224v433zM366 47q42 0 72.5 28.5t30.5 74.5t-30.5 75t-72.5 29h-167v-207h167z" />
    <glyph glyph-name="uni044B" unicode="&#x44b;" horiz-adv-x="667" 
d="M63 480h56v-179h167q45 0 81 -19t57 -53.5t21 -78.5t-21 -78t-57 -53t-81 -19h-223v480zM548 480h56v-480h-56v480zM284 47q42 0 73 28.5t31 74.5t-31 75t-73 29h-165v-207h165z" />
    <glyph glyph-name="uni044C" unicode="&#x44c;" horiz-adv-x="472" 
d="M63 480h56v-179h167q45 0 81 -19t57 -53.5t21 -78.5t-21 -78t-57 -53t-81 -19h-223v480zM284 47q42 0 73 28.5t31 74.5t-31 75t-73 29h-165v-207h165z" />
    <glyph glyph-name="uni044D" unicode="&#x44d;" horiz-adv-x="496" 
d="M97 20.5q-51 36.5 -68 81.5l47 20q38 -91 151 -91q66 0 117.5 47t65.5 142h-225v39h225q-10 69 -36.5 108.5t-64.5 60.5t-82 21q-111 0 -146 -91l-50 20q17 47 66.5 82.5t126.5 35.5q68 0 122 -33t84 -91.5t30 -131.5t-30 -131t-84 -91.5t-122 -33.5q-76 0 -127 36.5z
" />
    <glyph glyph-name="uni044E" unicode="&#x44e;" horiz-adv-x="759" 
d="M365.5 12q-51.5 28 -84 77.5t-41.5 125.5h-119v-215h-56v480h56v-216h119q9 76 41 126t84 78t116 28q70 0 125 -34t86 -92.5t31 -129.5t-31 -129.5t-86 -92.5t-125 -34q-64 0 -115.5 28zM573 56.5q43 25.5 69 73t26 110.5t-26 110.5t-69 73t-92 25.5t-92 -25.5t-68.5 -73
t-25.5 -110.5t25.5 -110.5t68.5 -73t92 -25.5t92 25.5z" />
    <glyph glyph-name="uni044F" unicode="&#x44f;" horiz-adv-x="460" 
d="M3 -13l147 188l-13 15q-52 12 -82 50t-30 89q0 42 20.5 77t56 54.5t78.5 19.5h217v-480h-55v184h-129l-137 -184h-73v-13zM342 227v206h-158q-42 0 -72 -29.5t-30 -73.5q0 -46 30 -74.5t72 -28.5h158z" />
    <glyph glyph-name="uni0450" unicode="&#x450;" horiz-adv-x="553" 
d="M148.5 17q-53.5 33 -83 91t-29.5 131q0 70 28 129t79.5 93.5t119.5 34.5q70 0 120.5 -31.5t77 -87t26.5 -127.5l-1 -11h-396q4 -78 30.5 -121t67 -65t85.5 -22q105 0 152 88l46 -23q-22 -44 -74.5 -78t-126.5 -34q-68 0 -121.5 33zM428 279q-3 51 -20 86t-54 59.5
t-91 24.5q-64 0 -108.5 -42t-61.5 -128h335zM173 706h59l39 -97h-45z" />
    <glyph glyph-name="uni0451" unicode="&#x451;" horiz-adv-x="553" 
d="M148.5 17q-53.5 33 -83 91t-29.5 131q0 70 28 129t79.5 93.5t119.5 34.5q70 0 120.5 -31.5t77 -87t26.5 -127.5l-1 -11h-396q4 -78 30.5 -121t67 -65t85.5 -22q105 0 152 88l46 -23q-22 -44 -74.5 -78t-126.5 -34q-68 0 -121.5 33zM428 279q-3 51 -20 86t-54 59.5
t-91 24.5q-64 0 -108.5 -42t-61.5 -128h335zM156.5 636.5q-11.5 11.5 -11.5 27.5q0 17 11.5 27.5t27.5 10.5q17 0 27.5 -10.5t10.5 -27.5q0 -16 -10.5 -27.5t-27.5 -11.5q-16 0 -27.5 11.5zM317 636.5q-12 11.5 -12 27.5q0 17 11.5 27.5t27.5 10.5q17 0 28 -10.5t11 -27.5
q0 -16 -11 -27.5t-28 -11.5q-15 0 -27 11.5z" />
    <glyph glyph-name="uni0452" unicode="&#x452;" horiz-adv-x="524" 
d="M311 -223v43q-13 8 1.5 4.5t25.5 -3.5q37 0 54 24.5t17 67.5v386q0 75 -38 112.5t-98 37.5q-43 0 -79 -26.5t-56.5 -67.5t-20.5 -86v-269h-56v583h-62v37h62v66h56v-66h149v-37h-149v-93l-5 -85h26q23 43 64 67t90 24q85 0 129 -50t44 -134v-399q0 -71 -32.5 -105
t-91.5 -34q-20 0 -30 3z" />
    <glyph glyph-name="uni0453" unicode="&#x453;" horiz-adv-x="425" 
d="M63 480h304v-47h-248v-433h-56v480zM232 706h57l-53 -97h-43z" />
    <glyph glyph-name="uni0454" unicode="&#x454;" horiz-adv-x="491" 
d="M147 17.5q-54 33.5 -84 91.5t-30 131t30 131.5t84 91.5t122 33q77 0 126.5 -35.5t66.5 -82.5l-50 -20q-35 91 -146 91q-44 0 -82 -21t-64.5 -60.5t-36.5 -108.5h225v-39h-225q14 -95 65.5 -142t117.5 -47q57 0 96 27t54 64l48 -20q-18 -46 -68.5 -82t-126.5 -36
q-68 0 -122 33.5z" />
    <glyph glyph-name="uni0455" unicode="&#x455;" horiz-adv-x="465" 
d="M91.5 20q-50.5 36 -65.5 78l49 23q15 -37 55 -64.5t88 -27.5q50 0 88.5 22.5t38.5 67.5q0 40 -31 62.5t-89 37.5l-60 16q-57 14 -91.5 46.5t-34.5 82.5q0 39 23 69t63.5 46.5t87.5 16.5q62 0 109.5 -27t61.5 -60l-48 -23q-31 64 -124 64q-44 0 -80 -23t-36 -61
q0 -35 25.5 -56t70.5 -33l72 -19q70 -18 103.5 -51.5t33.5 -81.5q0 -42 -23.5 -74t-65.5 -49.5t-94 -17.5q-76 0 -126.5 36z" />
    <glyph glyph-name="uni0456" unicode="&#x456;" horiz-adv-x="226" 
d="M65.5 617.5q-13.5 13.5 -13.5 32.5q0 20 13.5 33t32.5 13q20 0 33 -13t13 -33q0 -19 -13 -32.5t-33 -13.5q-19 0 -32.5 13.5zM71 480h55v-480h-55v480z" />
    <glyph glyph-name="uni0457" unicode="&#x457;" horiz-adv-x="192" 
d="M4 636.5q-11 11.5 -11 27.5q0 17 11 27.5t28 10.5t27.5 -10.5t10.5 -27.5q0 -16 -10.5 -27.5t-27.5 -11.5t-28 11.5zM133.5 636.5q-11.5 11.5 -11.5 27.5q0 17 11.5 27.5t27.5 10.5q18 0 28 -10.5t10 -27.5q0 -16 -10 -27.5t-28 -11.5q-16 0 -27.5 11.5zM69 480h55v-480
h-55v480z" />
    <glyph glyph-name="uni0458" unicode="&#x458;" horiz-adv-x="224" 
d="M76.5 617.5q-13.5 13.5 -13.5 32.5q0 20 13.5 33t32.5 13q20 0 33 -13t13 -33q0 -19 -13 -32.5t-33 -13.5q-19 0 -32.5 13.5zM-17 -223v43q-13 8 1.5 4.5t25.5 -3.5q38 0 54.5 24.5t16.5 67.5v567h56v-567q0 -71 -32.5 -105t-91.5 -34q-22 0 -30 3z" />
    <glyph glyph-name="uni0459" unicode="&#x459;" horiz-adv-x="872" 
d="M51 -5v45q-1 1 19 1q28 0 43 20t20 58t5 103v258h384v-189h170q41 0 75.5 -18.5t54.5 -51.5t20 -76q0 -42 -20 -75t-54.5 -51.5t-75.5 -18.5h-226v433h-274v-238q0 -113 -31 -158t-81 -45q-24 0 -29 3zM687 47q42 0 69.5 27.5t27.5 70.5q0 44 -27.5 71.5t-69.5 27.5h-165
v-197h165z" />
    <glyph glyph-name="uni045A" unicode="&#x45a;" horiz-adv-x="786" 
d="M63 480h55v-189h263v189h54v-189h171q40 0 74.5 -18.5t55 -51.5t20.5 -76q0 -42 -20.5 -75t-55 -51.5t-74.5 -18.5h-225v244h-263v-244h-55v480zM600 47q43 0 71 27.5t28 70.5q0 44 -28 71.5t-71 27.5h-165v-197h165z" />
    <glyph glyph-name="uni045B" unicode="&#x45b;" horiz-adv-x="524" 
d="M421 446q44 -50 44 -134v-312h-56v299q0 75 -38 112.5t-98 37.5q-43 0 -79 -26.5t-56.5 -67.5t-20.5 -86v-269h-56v583h-62v37h62v66h56v-66h149v-37h-149v-93l-5 -85h26q23 43 64 67t90 24q85 0 129 -50z" />
    <glyph glyph-name="uni045C" unicode="&#x45c;" horiz-adv-x="480" 
d="M63 480h55v-223v-8v-249h-55v480zM146 253l206 227h68l-214 -227l225 -253h-67zM241 706h58l-53 -97h-44z" />
    <glyph glyph-name="uni045D" unicode="&#x45d;" horiz-adv-x="563" 
d="M63 480h56v-272l-5 -111h25l269 383h61v-480h-55v272l5 111h-25l-269 -383h-62v480zM175 706h59l39 -97h-45z" />
    <glyph glyph-name="uni045E" unicode="&#x45e;" horiz-adv-x="506" 
d="M207 17l-199 463h59l156 -379h20l150 379h59l-294 -696h-56zM184.5 621.5q-25.5 14.5 -41 39.5t-15.5 41h40q0 -16 19 -38.5t52 -22.5q30 0 49.5 22.5t19.5 38.5h39q0 -16 -15 -41t-40 -39.5t-53 -14.5q-29 0 -54.5 14.5z" />
    <glyph glyph-name="uni045F" unicode="&#x45f;" horiz-adv-x="538" 
d="M244 0h-181v480h56v-433h300v433h56v-480h-180v-152h-51v152z" />
    <glyph glyph-name="uni0490" unicode="&#x490;" horiz-adv-x="474" 
d="M70 686h330v110h51v-161h-326v-635h-55v686z" />
    <glyph glyph-name="uni0491" unicode="&#x491;" horiz-adv-x="386" 
d="M63 480h248v96h52v-143h-246v-433h-54v480z" />
    <glyph glyph-name="uni04AE" unicode="&#x4ae;" horiz-adv-x="595" 
d="M245 320l-230 366h64l183 -300h20l180 300h64l-226 -366v-320h-55v320z" />
    <glyph glyph-name="uni04AF" unicode="&#x4af;" horiz-adv-x="460" 
d="M201 -12l-194 492h60l162 -441l166 441h58l-197 -492v-204h-55v204z" />
    <glyph glyph-name="uni04B0" unicode="&#x4b0;" horiz-adv-x="541" 
d="M245 279h-178v36h181l-233 371h64l183 -300h20l180 300h64l-230 -371h181v-36h-178v-279h-54v279z" />
    <glyph glyph-name="uni04B1" unicode="&#x4b1;" horiz-adv-x="460" 
d="M201 0h-144v35h128l-24 53l-154 392h60l162 -441l166 441h58l-157 -391l-23 -54h126v-35h-143v-216h-55v216z" />
    <glyph glyph-name="uni0E3F" unicode="&#xe3f;" horiz-adv-x="545" 
d="M250 0h-180v654h180v100h41v-100h17q48 0 91.5 -22t68.5 -60.5t25 -86.5q0 -44 -23.5 -78.5t-71.5 -56.5v-24q57 -19 86.5 -57.5t29.5 -89.5q0 -52 -26.5 -92t-71.5 -63.5t-96 -23.5h-29v-100h-41v100zM250 359v244h-125v-244h125zM308 359q39 0 68.5 17.5t45.5 46
t16 58.5t-15.5 58.5t-44.5 46t-66 17.5h-21v-244h17zM250 51v259h-125v-259h125zM325 51q38 0 68.5 19t47.5 49t17 63q0 32 -17 61.5t-48.5 48t-71.5 18.5h-30v-259h34z" />
    <glyph glyph-name="Wgrave" unicode="&#x1e80;" horiz-adv-x="944" 
d="M17 686h62l127 -515l15 -60h27l18 60l157 515h66l150 -515l18 -60h27l141 575h62l-184 -686h-66l-149 507l-19 67h-26l-20 -67l-155 -507h-66zM369 870h58l40 -97h-44z" />
    <glyph glyph-name="wgrave" unicode="&#x1e81;" horiz-adv-x="761" 
d="M7 480h57l118 -403h20l126 403h65l126 -402h20l118 402h55l-151 -480h-64l-139 438l-137 -438h-64zM275 706h59l39 -97h-45z" />
    <glyph glyph-name="Wacute" unicode="&#x1e82;" horiz-adv-x="944" 
d="M17 686h62l127 -515l15 -60h27l18 60l157 515h66l150 -515l18 -60h27l141 575h62l-184 -686h-66l-149 507l-19 67h-26l-20 -67l-155 -507h-66zM479 870h57l-54 -97h-43z" />
    <glyph glyph-name="wacute" unicode="&#x1e83;" horiz-adv-x="761" 
d="M7 480h57l118 -403h20l126 403h65l126 -402h20l118 402h55l-151 -480h-64l-139 438l-137 -438h-64zM382 706h58l-53 -97h-44z" />
    <glyph glyph-name="Wdieresis" unicode="&#x1e84;" horiz-adv-x="944" 
d="M17 686h62l127 -515l15 -60h27l18 60l157 515h66l150 -515l18 -60h27l141 575h62l-184 -686h-66l-149 507l-19 67h-26l-20 -67l-155 -507h-66zM351.5 801q-11.5 12 -11.5 27q0 17 11.5 28t27.5 11q17 0 27.5 -11t10.5 -28q0 -16 -10.5 -27.5t-27.5 -11.5q-16 0 -27.5 12z
M516 801q-12 12 -12 27q0 17 11.5 28t27.5 11q17 0 28 -11t11 -28q0 -16 -11 -27.5t-28 -11.5q-15 0 -27 12z" />
    <glyph glyph-name="wdieresis" unicode="&#x1e85;" horiz-adv-x="761" 
d="M7 480h57l118 -403h20l126 403h65l126 -402h20l118 402h55l-151 -480h-64l-139 438l-137 -438h-64zM258.5 636.5q-11.5 11.5 -11.5 27.5q0 17 11.5 27.5t27.5 10.5q17 0 27.5 -10.5t10.5 -27.5q0 -16 -10.5 -27.5t-27.5 -11.5q-16 0 -27.5 11.5zM418.5 636.5
q-11.5 11.5 -11.5 27.5q0 17 11.5 27.5t27.5 10.5q17 0 28 -10.5t11 -27.5q0 -16 -11 -27.5t-28 -11.5q-16 0 -27.5 11.5z" />
    <glyph glyph-name="uni1EA0" unicode="&#x1ea0;" horiz-adv-x="670" 
d="M275 686h76l260 -686h-61l-72 197h-330l-72 -197h-61zM461 247l-104 278l-31 87h-26l-31 -87l-104 -278h296zM292.5 -180.5q-11.5 11.5 -11.5 27.5q0 17 11.5 27.5t27.5 10.5q17 0 27.5 -10.5t10.5 -27.5q0 -16 -10.5 -27.5t-27.5 -11.5q-16 0 -27.5 11.5z" />
    <glyph glyph-name="uni1EA1" unicode="&#x1ea1;" horiz-adv-x="523" 
d="M116.5 4.5q-40.5 20.5 -61.5 55t-21 79.5q0 73 55 115t141 42q43 0 80 -9.5t76 -34.5v57q0 64 -43 102.5t-108 38.5q-44 0 -82.5 -20t-53.5 -44l-40 31q19 30 67.5 54.5t108.5 24.5q96 0 149.5 -50.5t53.5 -137.5v-308h-52v73h-25q-24 -41 -63.5 -65t-89.5 -24
q-51 0 -91.5 20.5zM300 53q39 24 62.5 64.5t23.5 96.5q-32 22 -67.5 32.5t-75.5 10.5q-73 0 -112 -33t-39 -86q0 -49 36 -79t88 -30q45 0 84 24zM213.5 -180.5q-11.5 11.5 -11.5 27.5q0 17 11.5 27.5t27.5 10.5q17 0 27.5 -10.5t10.5 -27.5q0 -16 -10.5 -27.5t-27.5 -11.5
q-16 0 -27.5 11.5z" />
    <glyph glyph-name="uni1EA2" unicode="&#x1ea2;" horiz-adv-x="670" 
d="M275 686h76l260 -686h-61l-72 197h-330l-72 -197h-61zM461 247l-104 278l-31 87h-26l-31 -87l-104 -278h296zM292 788q55 18 55 68q0 25 -17 38.5t-43 13.5q-30 0 -48 -8l-13 26q22 10 69 10q43 0 65.5 -19.5t22.5 -56.5q0 -41 -27 -66.5t-56 -31.5z" />
    <glyph glyph-name="uni1EA3" unicode="&#x1ea3;" horiz-adv-x="523" 
d="M116.5 4.5q-40.5 20.5 -61.5 55t-21 79.5q0 73 55 115t141 42q43 0 80 -9.5t76 -34.5v57q0 64 -43 102.5t-108 38.5q-44 0 -82.5 -20t-53.5 -44l-40 31q19 30 67.5 54.5t108.5 24.5q96 0 149.5 -50.5t53.5 -137.5v-308h-52v73h-25q-24 -41 -63.5 -65t-89.5 -24
q-51 0 -91.5 20.5zM300 53q39 24 62.5 64.5t23.5 96.5q-32 22 -67.5 32.5t-75.5 10.5q-73 0 -112 -33t-39 -86q0 -49 36 -79t88 -30q45 0 84 24zM214 602q19 5 36 19.5t17 42.5q0 24 -15.5 38t-41.5 14q-29 0 -46 -8l-8 27q21 9 61 9q43 0 65 -19.5t22 -56.5
q0 -40 -25 -63.5t-58 -28.5z" />
    <glyph glyph-name="uni1EA4" unicode="&#x1ea4;" horiz-adv-x="670" 
d="M275 686h76l260 -686h-61l-72 197h-330l-72 -197h-61zM461 247l-104 278l-31 87h-26l-31 -87l-104 -278h296zM458 970h57l-52 -92h-38zM209 758l80 91h61l81 -91h-47l-55 57h-21l-53 -57h-46z" />
    <glyph glyph-name="uni1EA5" unicode="&#x1ea5;" horiz-adv-x="523" 
d="M116.5 4.5q-40.5 20.5 -61.5 55t-21 79.5q0 73 55 115t141 42q43 0 80 -9.5t76 -34.5v57q0 64 -43 102.5t-108 38.5q-44 0 -82.5 -20t-53.5 -44l-40 31q19 30 67.5 54.5t108.5 24.5q96 0 149.5 -50.5t53.5 -137.5v-308h-52v73h-25q-24 -41 -63.5 -65t-89.5 -24
q-51 0 -91.5 20.5zM300 53q39 24 62.5 64.5t23.5 96.5q-32 22 -67.5 32.5t-75.5 10.5q-73 0 -112 -33t-39 -86q0 -49 36 -79t88 -30q45 0 84 24zM374 826h58l-51 -92h-39zM132 614l78 92h61l79 -92h-47l-54 58h-19l-52 -58h-46z" />
    <glyph glyph-name="uni1EA6" unicode="&#x1ea6;" horiz-adv-x="670" 
d="M275 686h76l260 -686h-61l-72 197h-330l-72 -197h-61zM461 247l-104 278l-31 87h-26l-31 -87l-104 -278h296zM380 970h57l33 -92h-38zM209 758l80 91h61l81 -91h-47l-55 57h-21l-53 -57h-46z" />
    <glyph glyph-name="uni1EA7" unicode="&#x1ea7;" horiz-adv-x="523" 
d="M116.5 4.5q-40.5 20.5 -61.5 55t-21 79.5q0 73 55 115t141 42q43 0 80 -9.5t76 -34.5v57q0 64 -43 102.5t-108 38.5q-44 0 -82.5 -20t-53.5 -44l-40 31q19 30 67.5 54.5t108.5 24.5q96 0 149.5 -50.5t53.5 -137.5v-308h-52v73h-25q-24 -41 -63.5 -65t-89.5 -24
q-51 0 -91.5 20.5zM300 53q39 24 62.5 64.5t23.5 96.5q-32 22 -67.5 32.5t-75.5 10.5q-73 0 -112 -33t-39 -86q0 -49 36 -79t88 -30q45 0 84 24zM298 826h57l32 -92h-39zM131 614l78 91h61l79 -91h-47l-54 57h-19l-52 -57h-46z" />
    <glyph glyph-name="uni1EA8" unicode="&#x1ea8;" horiz-adv-x="670" 
d="M275 686h76l260 -686h-61l-72 197h-330l-72 -197h-61zM461 247l-104 278l-31 87h-26l-31 -87l-104 -278h296zM443 848q21 15 21 44q0 24 -14.5 37t-38.5 13q-21 0 -19 1v25q10 2 27 2q41 0 61 -17t20 -50q0 -52 -40 -75zM210 758l80 91h61l81 -91h-47l-55 57h-21l-53 -57
h-46z" />
    <glyph glyph-name="uni1EA9" unicode="&#x1ea9;" horiz-adv-x="523" 
d="M116.5 4.5q-40.5 20.5 -61.5 55t-21 79.5q0 73 55 115t141 42q43 0 80 -9.5t76 -34.5v57q0 64 -43 102.5t-108 38.5q-44 0 -82.5 -20t-53.5 -44l-40 31q19 30 67.5 54.5t108.5 24.5q96 0 149.5 -50.5t53.5 -137.5v-308h-52v73h-25q-24 -41 -63.5 -65t-89.5 -24
q-51 0 -91.5 20.5zM300 53q39 24 62.5 64.5t23.5 96.5q-32 22 -67.5 32.5t-75.5 10.5q-73 0 -112 -33t-39 -86q0 -49 36 -79t88 -30q45 0 84 24zM365 693q24 32 24 55q0 24 -14 37t-37 13q-21 0 -19 1v25q10 2 27 2q41 0 60.5 -17t19.5 -50q0 -23 -14 -45t-33 -39zM132 614
l78 91h61l79 -91h-47l-54 57h-19l-52 -57h-46z" />
    <glyph glyph-name="uni1EAA" unicode="&#x1eaa;" horiz-adv-x="670" 
d="M275 686h76l260 -686h-61l-72 197h-330l-72 -197h-61zM461 247l-104 278l-31 87h-26l-31 -87l-104 -278h296zM265 970q15 0 28 -4.5t29 -12.5q11 -6 23 -10.5t24 -4.5q39 0 45 32h34q0 -19 -21 -38.5t-52 -19.5q-17 0 -30 4.5t-29 12.5q-27 15 -45 15q-39 0 -45 -32h-34
q0 19 21 38.5t52 19.5zM209 758l80 91h61l81 -91h-47l-55 57h-21l-53 -57h-46z" />
    <glyph glyph-name="uni1EAB" unicode="&#x1eab;" horiz-adv-x="523" 
d="M116.5 4.5q-40.5 20.5 -61.5 55t-21 79.5q0 73 55 115t141 42q43 0 80 -9.5t76 -34.5v57q0 64 -43 102.5t-108 38.5q-44 0 -82.5 -20t-53.5 -44l-40 31q19 30 67.5 54.5t108.5 24.5q96 0 149.5 -50.5t53.5 -137.5v-308h-52v73h-25q-24 -41 -63.5 -65t-89.5 -24
q-51 0 -91.5 20.5zM300 53q39 24 62.5 64.5t23.5 96.5q-32 22 -67.5 32.5t-75.5 10.5q-73 0 -112 -33t-39 -86q0 -49 36 -79t88 -30q45 0 84 24zM134.5 806.5q20.5 19.5 51.5 19.5q15 0 28 -4.5t29 -12.5q10 -6 21.5 -10.5t23.5 -4.5q37 0 43 32h35q0 -19 -21 -38.5
t-51 -19.5q-17 0 -30 4.5t-29 12.5q-26 15 -43 15q-37 0 -43 -32h-35q0 19 20.5 38.5zM131 614l78 91h61l79 -91h-47l-54 57h-19l-52 -57h-46z" />
    <glyph glyph-name="uni1EAC" unicode="&#x1eac;" horiz-adv-x="670" 
d="M275 686h76l260 -686h-61l-72 197h-330l-72 -197h-61zM461 247l-104 278l-31 87h-26l-31 -87l-104 -278h296zM292.5 -180.5q-11.5 11.5 -11.5 27.5q0 17 11.5 27.5t27.5 10.5q17 0 27.5 -10.5t10.5 -27.5q0 -16 -10.5 -27.5t-27.5 -11.5q-16 0 -27.5 11.5zM210 779l80 91
h61l80 -91h-46l-54 63h-22l-53 -63h-46z" />
    <glyph glyph-name="uni1EAD" unicode="&#x1ead;" horiz-adv-x="523" 
d="M116.5 4.5q-40.5 20.5 -61.5 55t-21 79.5q0 73 55 115t141 42q43 0 80 -9.5t76 -34.5v57q0 64 -43 102.5t-108 38.5q-44 0 -82.5 -20t-53.5 -44l-40 31q19 30 67.5 54.5t108.5 24.5q96 0 149.5 -50.5t53.5 -137.5v-308h-52v73h-25q-24 -41 -63.5 -65t-89.5 -24
q-51 0 -91.5 20.5zM300 53q39 24 62.5 64.5t23.5 96.5q-32 22 -67.5 32.5t-75.5 10.5q-73 0 -112 -33t-39 -86q0 -49 36 -79t88 -30q45 0 84 24zM213.5 -180.5q-11.5 11.5 -11.5 27.5q0 17 11.5 27.5t27.5 10.5q17 0 27.5 -10.5t10.5 -27.5q0 -16 -10.5 -27.5t-27.5 -11.5
q-16 0 -27.5 11.5zM132 614l78 92h61l78 -92h-46l-53 64h-20l-52 -64h-46z" />
    <glyph glyph-name="uni1EAE" unicode="&#x1eae;" horiz-adv-x="670" 
d="M275 686h76l260 -686h-61l-72 197h-330l-72 -197h-61zM461 247l-104 278l-31 87h-26l-31 -87l-104 -278h296zM341 970h53l-48 -64h-33zM260 772.5q-29 14.5 -46.5 39.5t-17.5 40h35q0 -15 25.5 -39.5t63.5 -24.5t64 24t26 40h34q0 -15 -17.5 -40t-46.5 -39.5t-60 -14.5
t-60 14.5z" />
    <glyph glyph-name="uni1EAF" unicode="&#x1eaf;" horiz-adv-x="523" 
d="M116.5 4.5q-40.5 20.5 -61.5 55t-21 79.5q0 73 55 115t141 42q43 0 80 -9.5t76 -34.5v57q0 64 -43 102.5t-108 38.5q-44 0 -82.5 -20t-53.5 -44l-40 31q19 30 67.5 54.5t108.5 24.5q96 0 149.5 -50.5t53.5 -137.5v-308h-52v73h-25q-24 -41 -63.5 -65t-89.5 -24
q-51 0 -91.5 20.5zM300 53q39 24 62.5 64.5t23.5 96.5q-32 22 -67.5 32.5t-75.5 10.5q-73 0 -112 -33t-39 -86q0 -49 36 -79t88 -30q45 0 84 24zM262 826h57l-48 -73h-43zM188 603.5q-26 14.5 -42 39.5t-16 41h39q0 -16 21 -38.5t54 -22.5q32 0 53.5 22.5t21.5 38.5h39
q0 -16 -16 -41t-42 -39.5t-56 -14.5t-56 14.5z" />
    <glyph glyph-name="uni1EB0" unicode="&#x1eb0;" horiz-adv-x="670" 
d="M275 686h76l260 -686h-61l-72 197h-330l-72 -197h-61zM461 247l-104 278l-31 87h-26l-31 -87l-104 -278h296zM249 970h53l28 -64h-33zM260 772.5q-29 14.5 -46.5 39.5t-17.5 40h35q0 -15 25.5 -39.5t63.5 -24.5t64 24t26 40h34q0 -15 -17.5 -40t-46.5 -39.5t-60 -14.5
t-60 14.5z" />
    <glyph glyph-name="uni1EB1" unicode="&#x1eb1;" horiz-adv-x="523" 
d="M116.5 4.5q-40.5 20.5 -61.5 55t-21 79.5q0 73 55 115t141 42q43 0 80 -9.5t76 -34.5v57q0 64 -43 102.5t-108 38.5q-44 0 -82.5 -20t-53.5 -44l-40 31q19 30 67.5 54.5t108.5 24.5q96 0 149.5 -50.5t53.5 -137.5v-308h-52v73h-25q-24 -41 -63.5 -65t-89.5 -24
q-51 0 -91.5 20.5zM300 53q39 24 62.5 64.5t23.5 96.5q-32 22 -67.5 32.5t-75.5 10.5q-73 0 -112 -33t-39 -86q0 -49 36 -79t88 -30q45 0 84 24zM164 826h56l34 -73h-42zM184 603.5q-26 14.5 -42 39.5t-16 41h39q0 -16 21 -38.5t54 -22.5q32 0 53.5 22.5t21.5 38.5h39
q0 -16 -16 -41t-42 -39.5t-56 -14.5t-56 14.5z" />
    <glyph glyph-name="uni1EB2" unicode="&#x1eb2;" horiz-adv-x="670" 
d="M275 686h76l260 -686h-61l-72 197h-330l-72 -197h-61zM461 247l-104 278l-31 87h-26l-31 -87l-104 -278h296zM316 859q13 11 13 40q0 20 -14 31.5t-35 11.5q-25 0 -26 -1v25q11 4 34 4q37 0 56 -16t19 -49q0 -25 -11.5 -41t-20.5 -20zM260 772.5q-29 14.5 -46.5 39.5
t-17.5 40h35q0 -15 25.5 -39.5t63.5 -24.5t64 24t26 40h34q0 -15 -17.5 -40t-46.5 -39.5t-60 -14.5t-60 14.5z" />
    <glyph glyph-name="uni1EB3" unicode="&#x1eb3;" horiz-adv-x="523" 
d="M116.5 4.5q-40.5 20.5 -61.5 55t-21 79.5q0 73 55 115t141 42q43 0 80 -9.5t76 -34.5v57q0 64 -43 102.5t-108 38.5q-44 0 -82.5 -20t-53.5 -44l-40 31q19 30 67.5 54.5t108.5 24.5q96 0 149.5 -50.5t53.5 -137.5v-308h-52v73h-25q-24 -41 -63.5 -65t-89.5 -24
q-51 0 -91.5 20.5zM300 53q39 24 62.5 64.5t23.5 96.5q-32 22 -67.5 32.5t-75.5 10.5q-73 0 -112 -33t-39 -86q0 -49 36 -79t88 -30q45 0 84 24zM235 715q13 11 13 40q0 20 -13.5 31.5t-33.5 11.5q-22 0 -27 -4l-9 24q21 8 44 8q36 0 55 -16t19 -49q0 -25 -11.5 -41
t-21.5 -20zM180.5 613.5q-28.5 14.5 -45.5 39.5t-17 40h36q0 -15 25 -39.5t61 -24.5t61.5 24t25.5 40h35q0 -15 -17 -40t-45.5 -39.5t-59.5 -14.5t-59.5 14.5z" />
    <glyph glyph-name="uni1EB4" unicode="&#x1eb4;" horiz-adv-x="670" 
d="M275 686h76l260 -686h-61l-72 197h-330l-72 -197h-61zM461 247l-104 278l-31 87h-26l-31 -87l-104 -278h296zM213 950.5q21 19.5 52 19.5q15 0 28 -4.5t29 -12.5q11 -6 23 -10.5t24 -4.5q39 0 45 32h34q0 -19 -21 -38.5t-52 -19.5q-17 0 -30 4.5t-29 12.5q-27 15 -45 15
q-39 0 -45 -32h-34q0 19 21 38.5zM260 772.5q-29 14.5 -46.5 39.5t-17.5 40h35q0 -15 25.5 -39.5t63.5 -24.5t64 24t26 40h34q0 -15 -17.5 -40t-46.5 -39.5t-60 -14.5t-60 14.5z" />
    <glyph glyph-name="uni1EB5" unicode="&#x1eb5;" horiz-adv-x="523" 
d="M116.5 4.5q-40.5 20.5 -61.5 55t-21 79.5q0 73 55 115t141 42q43 0 80 -9.5t76 -34.5v57q0 64 -43 102.5t-108 38.5q-44 0 -82.5 -20t-53.5 -44l-40 31q19 30 67.5 54.5t108.5 24.5q96 0 149.5 -50.5t53.5 -137.5v-308h-52v73h-25q-24 -41 -63.5 -65t-89.5 -24
q-51 0 -91.5 20.5zM300 53q39 24 62.5 64.5t23.5 96.5q-32 22 -67.5 32.5t-75.5 10.5q-73 0 -112 -33t-39 -86q0 -49 36 -79t88 -30q45 0 84 24zM135.5 802.5q21.5 23.5 50.5 23.5q15 0 28 -4.5t29 -12.5q10 -6 21.5 -10.5t23.5 -4.5q37 0 43 32h35q0 -27 -21 -47.5
t-51 -20.5q-17 0 -30 4.5t-29 12.5q-26 15 -43 15q-37 0 -43 -32h-35q0 21 21.5 44.5zM184 603.5q-26 14.5 -42 39.5t-16 41h39q0 -16 21 -38.5t54 -22.5q32 0 53.5 22.5t21.5 38.5h39q0 -16 -16 -41t-42 -39.5t-56 -14.5t-56 14.5z" />
    <glyph glyph-name="uni1EB6" unicode="&#x1eb6;" horiz-adv-x="670" 
d="M275 686h76l260 -686h-61l-72 197h-330l-72 -197h-61zM461 247l-104 278l-31 87h-26l-31 -87l-104 -278h296zM292.5 -180.5q-11.5 11.5 -11.5 27.5q0 17 11.5 27.5t27.5 10.5q17 0 27.5 -10.5t10.5 -27.5q0 -16 -10.5 -27.5t-27.5 -11.5q-16 0 -27.5 11.5zM266 786.5
q-26 14.5 -42 39.5t-16 40h39q0 -16 20 -38t54 -22q32 0 52 22t20 38h38q0 -15 -15.5 -40t-41 -39.5t-53.5 -14.5q-29 0 -55 14.5z" />
    <glyph glyph-name="uni1EB7" unicode="&#x1eb7;" horiz-adv-x="523" 
d="M116.5 4.5q-40.5 20.5 -61.5 55t-21 79.5q0 73 55 115t141 42q43 0 80 -9.5t76 -34.5v57q0 64 -43 102.5t-108 38.5q-44 0 -82.5 -20t-53.5 -44l-40 31q19 30 67.5 54.5t108.5 24.5q96 0 149.5 -50.5t53.5 -137.5v-308h-52v73h-25q-24 -41 -63.5 -65t-89.5 -24
q-51 0 -91.5 20.5zM300 53q39 24 62.5 64.5t23.5 96.5q-32 22 -67.5 32.5t-75.5 10.5q-73 0 -112 -33t-39 -86q0 -49 36 -79t88 -30q45 0 84 24zM213.5 -180.5q-11.5 11.5 -11.5 27.5q0 17 11.5 27.5t27.5 10.5q17 0 27.5 -10.5t10.5 -27.5q0 -16 -10.5 -27.5t-27.5 -11.5
q-16 0 -27.5 11.5zM186.5 621.5q-25.5 14.5 -41 39.5t-15.5 41h40q0 -16 19 -38.5t52 -22.5q30 0 49.5 22.5t19.5 38.5h39q0 -16 -15 -41t-40 -39.5t-53 -14.5q-29 0 -54.5 14.5z" />
    <glyph glyph-name="uni1EB8" unicode="&#x1eb8;" horiz-adv-x="551" 
d="M80 686h384v-51h-329v-267h297v-50h-297v-267h329v-51h-384v686zM244.5 -180.5q-11.5 11.5 -11.5 27.5q0 17 11.5 27.5t27.5 10.5q17 0 27.5 -10.5t10.5 -27.5q0 -16 -10.5 -27.5t-27.5 -11.5q-16 0 -27.5 11.5z" />
    <glyph glyph-name="uni1EB9" unicode="&#x1eb9;" horiz-adv-x="553" 
d="M148.5 17q-53.5 33 -83 91t-29.5 131q0 70 28 129t79.5 93.5t119.5 34.5q70 0 120.5 -31.5t77 -87t26.5 -127.5l-1 -11h-396q4 -78 30.5 -121t67 -65t85.5 -22q105 0 152 88l46 -23q-22 -44 -74.5 -78t-126.5 -34q-68 0 -121.5 33zM428 279q-3 51 -20 86t-54 59.5
t-91 24.5q-64 0 -108.5 -42t-61.5 -128h335zM235.5 -180.5q-11.5 11.5 -11.5 27.5q0 17 11.5 27.5t27.5 10.5q17 0 27.5 -10.5t10.5 -27.5q0 -16 -10.5 -27.5t-27.5 -11.5q-16 0 -27.5 11.5z" />
    <glyph glyph-name="uni1EBA" unicode="&#x1eba;" horiz-adv-x="551" 
d="M80 686h384v-51h-329v-267h297v-50h-297v-267h329v-51h-384v686zM244 788q55 18 55 68q0 25 -17 38.5t-43 13.5q-30 0 -48 -8l-13 26q22 10 69 10q43 0 65.5 -19.5t22.5 -56.5q0 -41 -27 -66.5t-56 -31.5z" />
    <glyph glyph-name="uni1EBB" unicode="&#x1ebb;" horiz-adv-x="553" 
d="M148.5 17q-53.5 33 -83 91t-29.5 131q0 70 28 129t79.5 93.5t119.5 34.5q70 0 120.5 -31.5t77 -87t26.5 -127.5l-1 -11h-396q4 -78 30.5 -121t67 -65t85.5 -22q105 0 152 88l46 -23q-22 -44 -74.5 -78t-126.5 -34q-68 0 -121.5 33zM428 279q-3 51 -20 86t-54 59.5
t-91 24.5q-64 0 -108.5 -42t-61.5 -128h335zM238 602q19 5 36 19.5t17 42.5q0 24 -15.5 38t-41.5 14q-29 0 -46 -8l-8 27q21 9 62 9q42 0 64 -19.5t22 -56.5q0 -40 -25 -63.5t-58 -28.5z" />
    <glyph glyph-name="uni1EBC" unicode="&#x1ebc;" horiz-adv-x="551" 
d="M80 686h384v-51h-329v-267h297v-50h-297v-267h329v-51h-384v686zM299.5 786.5q-15.5 6.5 -39.5 20.5q-33 20 -48 20q-47 0 -50 -37h-41q0 19 13.5 40.5t35.5 32.5t43 11q27 0 72 -28q34 -19 47 -19q47 0 50 37h41q0 -33 -29 -58.5t-64 -25.5q-15 0 -30.5 6.5z" />
    <glyph glyph-name="uni1EBD" unicode="&#x1ebd;" horiz-adv-x="553" 
d="M148.5 17q-53.5 33 -83 91t-29.5 131q0 70 28 129t79.5 93.5t119.5 34.5q70 0 120.5 -31.5t77 -87t26.5 -127.5l-1 -11h-396q4 -78 30.5 -121t67 -65t85.5 -22q105 0 152 88l46 -23q-22 -44 -74.5 -78t-126.5 -34q-68 0 -121.5 33zM428 279q-3 51 -20 86t-54 59.5
t-91 24.5q-64 0 -108.5 -42t-61.5 -128h335zM290 622.5q-15 6.5 -39 20.5q-31 20 -46 20q-44 0 -47 -37h-42q0 33 28 58t62 25q27 0 72 -28q32 -19 44 -19q45 0 48 37h42q0 -33 -28 -58t-64 -25q-15 0 -30 6.5z" />
    <glyph glyph-name="uni1EBE" unicode="&#x1ebe;" horiz-adv-x="551" 
d="M80 686h384v-51h-329v-267h297v-50h-297v-267h329v-51h-384v686zM410 970h57l-52 -92h-38zM161 758l80 91h61l81 -91h-47l-55 57h-21l-53 -57h-46z" />
    <glyph glyph-name="uni1EBF" unicode="&#x1ebf;" horiz-adv-x="553" 
d="M148.5 17q-53.5 33 -83 91t-29.5 131q0 70 28 129t79.5 93.5t119.5 34.5q70 0 120.5 -31.5t77 -87t26.5 -127.5l-1 -11h-396q4 -78 30.5 -121t67 -65t85.5 -22q105 0 152 88l46 -23q-22 -44 -74.5 -78t-126.5 -34q-68 0 -121.5 33zM428 279q-3 51 -20 86t-54 59.5
t-91 24.5q-64 0 -108.5 -42t-61.5 -128h335zM399 826h57l-51 -92h-39zM156 614l78 92h61l79 -92h-47l-54 58h-19l-52 -58h-46z" />
    <glyph glyph-name="uni1EC0" unicode="&#x1ec0;" horiz-adv-x="551" 
d="M80 686h384v-51h-329v-267h297v-50h-297v-267h329v-51h-384v686zM332 970h57l33 -92h-38zM161 758l80 91h61l81 -91h-47l-55 57h-21l-53 -57h-46z" />
    <glyph glyph-name="uni1EC1" unicode="&#x1ec1;" horiz-adv-x="553" 
d="M148.5 17q-53.5 33 -83 91t-29.5 131q0 70 28 129t79.5 93.5t119.5 34.5q70 0 120.5 -31.5t77 -87t26.5 -127.5l-1 -11h-396q4 -78 30.5 -121t67 -65t85.5 -22q105 0 152 88l46 -23q-22 -44 -74.5 -78t-126.5 -34q-68 0 -121.5 33zM428 279q-3 51 -20 86t-54 59.5
t-91 24.5q-64 0 -108.5 -42t-61.5 -128h335zM322 826h57l32 -92h-39zM155 614l78 91h61l79 -91h-47l-54 57h-19l-52 -57h-46z" />
    <glyph glyph-name="uni1EC2" unicode="&#x1ec2;" horiz-adv-x="551" 
d="M80 686h384v-51h-329v-267h297v-50h-297v-267h329v-51h-384v686zM395 848q21 15 21 44q0 24 -14.5 37t-38.5 13q-21 0 -19 1v25q10 2 27 2q41 0 61 -17t20 -50q0 -52 -40 -75zM162 758l80 91h61l81 -91h-47l-55 57h-21l-53 -57h-46z" />
    <glyph glyph-name="uni1EC3" unicode="&#x1ec3;" horiz-adv-x="553" 
d="M148.5 17q-53.5 33 -83 91t-29.5 131q0 70 28 129t79.5 93.5t119.5 34.5q70 0 120.5 -31.5t77 -87t26.5 -127.5l-1 -11h-396q4 -78 30.5 -121t67 -65t85.5 -22q105 0 152 88l46 -23q-22 -44 -74.5 -78t-126.5 -34q-68 0 -121.5 33zM428 279q-3 51 -20 86t-54 59.5
t-91 24.5q-64 0 -108.5 -42t-61.5 -128h335zM389 693q24 32 24 55q0 24 -14 37t-37 13q-21 0 -19 1v25q10 2 27 2q41 0 60.5 -17t19.5 -50q0 -23 -14 -45t-33 -39zM156 614l78 91h61l79 -91h-47l-54 57h-19l-52 -57h-46z" />
    <glyph glyph-name="uni1EC4" unicode="&#x1ec4;" horiz-adv-x="551" 
d="M80 686h384v-51h-329v-267h297v-50h-297v-267h329v-51h-384v686zM217 970q15 0 28 -4.5t29 -12.5q11 -6 23 -10.5t24 -4.5q39 0 45 32h34q0 -19 -21 -38.5t-52 -19.5q-17 0 -30 4.5t-29 12.5q-27 15 -45 15q-39 0 -45 -32h-34q0 19 21 38.5t52 19.5zM161 758l80 91h61
l81 -91h-47l-55 57h-21l-53 -57h-46z" />
    <glyph glyph-name="uni1EC5" unicode="&#x1ec5;" horiz-adv-x="553" 
d="M148.5 17q-53.5 33 -83 91t-29.5 131q0 70 28 129t79.5 93.5t119.5 34.5q70 0 120.5 -31.5t77 -87t26.5 -127.5l-1 -11h-396q4 -78 30.5 -121t67 -65t85.5 -22q105 0 152 88l46 -23q-22 -44 -74.5 -78t-126.5 -34q-68 0 -121.5 33zM428 279q-3 51 -20 86t-54 59.5
t-91 24.5q-64 0 -108.5 -42t-61.5 -128h335zM158.5 806.5q20.5 19.5 51.5 19.5q15 0 28 -4.5t29 -12.5q10 -6 21.5 -10.5t23.5 -4.5q37 0 43 32h35q0 -19 -21 -38.5t-51 -19.5q-17 0 -30 4.5t-29 12.5q-26 15 -43 15q-37 0 -43 -32h-35q0 19 20.5 38.5zM155 614l78 91h61
l79 -91h-47l-54 57h-19l-52 -57h-46z" />
    <glyph glyph-name="uni1EC6" unicode="&#x1ec6;" horiz-adv-x="551" 
d="M80 686h384v-51h-329v-267h297v-50h-297v-267h329v-51h-384v686zM244.5 -180.5q-11.5 11.5 -11.5 27.5q0 17 11.5 27.5t27.5 10.5q17 0 27.5 -10.5t10.5 -27.5q0 -16 -10.5 -27.5t-27.5 -11.5q-16 0 -27.5 11.5zM162 779l80 91h61l80 -91h-46l-54 63h-22l-53 -63h-46z
" />
    <glyph glyph-name="uni1EC7" unicode="&#x1ec7;" horiz-adv-x="553" 
d="M148.5 17q-53.5 33 -83 91t-29.5 131q0 70 28 129t79.5 93.5t119.5 34.5q70 0 120.5 -31.5t77 -87t26.5 -127.5l-1 -11h-396q4 -78 30.5 -121t67 -65t85.5 -22q105 0 152 88l46 -23q-22 -44 -74.5 -78t-126.5 -34q-68 0 -121.5 33zM428 279q-3 51 -20 86t-54 59.5
t-91 24.5q-64 0 -108.5 -42t-61.5 -128h335zM235.5 -180.5q-11.5 11.5 -11.5 27.5q0 17 11.5 27.5t27.5 10.5q17 0 27.5 -10.5t10.5 -27.5q0 -16 -10.5 -27.5t-27.5 -11.5q-16 0 -27.5 11.5zM156 614l78 92h61l78 -92h-46l-53 64h-20l-52 -64h-46z" />
    <glyph glyph-name="uni1EC8" unicode="&#x1ec8;" horiz-adv-x="245" 
d="M80 686h55v-686h-55v686zM79 788q55 18 55 68q0 25 -17 38.5t-43 13.5q-30 0 -48 -8l-13 26q22 10 69 10q43 0 65.5 -19.5t22.5 -56.5q0 -41 -27 -66.5t-56 -31.5z" />
    <glyph glyph-name="uni1EC9" unicode="&#x1ec9;" horiz-adv-x="225" 
d="M69 480h56v-480h-56v480zM71 602q20 5 37 19.5t17 42.5q0 24 -15.5 38t-41.5 14q-29 0 -46 -8l-8 27q21 9 61 9q43 0 65 -19.5t22 -56.5q0 -40 -25 -63.5t-58 -28.5z" />
    <glyph glyph-name="uni1ECA" unicode="&#x1eca;" horiz-adv-x="245" 
d="M80 686h55v-686h-55v686zM79.5 -180.5q-11.5 11.5 -11.5 27.5q0 17 11.5 27.5t27.5 10.5q17 0 27.5 -10.5t10.5 -27.5q0 -16 -10.5 -27.5t-27.5 -11.5q-16 0 -27.5 11.5z" />
    <glyph glyph-name="uni1ECB" unicode="&#x1ecb;" horiz-adv-x="226" 
d="M65.5 617.5q-13.5 13.5 -13.5 32.5q0 20 13.5 33t32.5 13q20 0 33 -13t13 -33q0 -19 -13 -32.5t-33 -13.5q-19 0 -32.5 13.5zM71 480h55v-480h-55v480zM70.5 -180.5q-11.5 11.5 -11.5 27.5q0 17 11.5 27.5t27.5 10.5q17 0 27.5 -10.5t10.5 -27.5q0 -16 -10.5 -27.5
t-27.5 -11.5q-16 0 -27.5 11.5z" />
    <glyph glyph-name="uni1ECC" unicode="&#x1ecc;" horiz-adv-x="824" 
d="M217.5 32q-80.5 48 -126.5 130.5t-46 180.5t46 180.5t126.5 130.5t179.5 48t179.5 -48t126.5 -130.5t46 -180.5t-46 -180.5t-126.5 -130.5t-179.5 -48t-179.5 48zM546 74.5q68 39.5 107.5 109.5t39.5 159t-39.5 159t-107.5 109.5t-149 39.5t-149 -39.5t-107.5 -109.5
t-39.5 -159t39.5 -159t107.5 -109.5t149 -39.5t149 39.5zM369.5 -180.5q-11.5 11.5 -11.5 27.5q0 17 11.5 27.5t27.5 10.5q17 0 27.5 -10.5t10.5 -27.5q0 -16 -10.5 -27.5t-27.5 -11.5q-16 0 -27.5 11.5z" />
    <glyph glyph-name="uni1ECD" unicode="&#x1ecd;" horiz-adv-x="586" 
d="M153 18q-55 34 -86 92.5t-31 129.5t31 129.5t86 92.5t125 34t125 -34t86 -92.5t31 -129.5t-31 -129.5t-86 -92.5t-125 -34t-125 34zM369.5 56.5q42.5 25.5 68.5 73t26 110.5t-26 110.5t-68.5 73t-91.5 25.5t-92 -25.5t-69 -73t-26 -110.5t26 -110.5t69 -73t92 -25.5
t91.5 25.5zM250.5 -180.5q-11.5 11.5 -11.5 27.5q0 17 11.5 27.5t27.5 10.5q17 0 27.5 -10.5t10.5 -27.5q0 -16 -10.5 -27.5t-27.5 -11.5q-16 0 -27.5 11.5z" />
    <glyph glyph-name="uni1ECE" unicode="&#x1ece;" horiz-adv-x="824" 
d="M217.5 32q-80.5 48 -126.5 130.5t-46 180.5t46 180.5t126.5 130.5t179.5 48t179.5 -48t126.5 -130.5t46 -180.5t-46 -180.5t-126.5 -130.5t-179.5 -48t-179.5 48zM546 74.5q68 39.5 107.5 109.5t39.5 159t-39.5 159t-107.5 109.5t-149 39.5t-149 -39.5t-107.5 -109.5
t-39.5 -159t39.5 -159t107.5 -109.5t149 -39.5t149 39.5zM369 788q55 18 55 68q0 25 -17 38.5t-43 13.5q-30 0 -48 -8l-13 26q22 10 69 10q43 0 65.5 -19.5t22.5 -56.5q0 -41 -27 -66.5t-56 -31.5z" />
    <glyph glyph-name="uni1ECF" unicode="&#x1ecf;" horiz-adv-x="586" 
d="M153 18q-55 34 -86 92.5t-31 129.5t31 129.5t86 92.5t125 34t125 -34t86 -92.5t31 -129.5t-31 -129.5t-86 -92.5t-125 -34t-125 34zM369.5 56.5q42.5 25.5 68.5 73t26 110.5t-26 110.5t-68.5 73t-91.5 25.5t-92 -25.5t-69 -73t-26 -110.5t26 -110.5t69 -73t92 -25.5
t91.5 25.5zM252 602q19 5 36 19.5t17 42.5q0 24 -15.5 38t-41.5 14q-29 0 -46 -8l-8 27q21 9 62 9q42 0 64 -19.5t22 -56.5q0 -40 -25 -63.5t-57 -28.5z" />
    <glyph glyph-name="uni1ED0" unicode="&#x1ed0;" horiz-adv-x="824" 
d="M217.5 32q-80.5 48 -126.5 130.5t-46 180.5t46 180.5t126.5 130.5t179.5 48t179.5 -48t126.5 -130.5t46 -180.5t-46 -180.5t-126.5 -130.5t-179.5 -48t-179.5 48zM546 74.5q68 39.5 107.5 109.5t39.5 159t-39.5 159t-107.5 109.5t-149 39.5t-149 -39.5t-107.5 -109.5
t-39.5 -159t39.5 -159t107.5 -109.5t149 -39.5t149 39.5zM535 970h57l-52 -92h-38zM286 758l80 91h61l81 -91h-47l-55 57h-21l-53 -57h-46z" />
    <glyph glyph-name="uni1ED1" unicode="&#x1ed1;" horiz-adv-x="586" 
d="M153 18q-55 34 -86 92.5t-31 129.5t31 129.5t86 92.5t125 34t125 -34t86 -92.5t31 -129.5t-31 -129.5t-86 -92.5t-125 -34t-125 34zM369.5 56.5q42.5 25.5 68.5 73t26 110.5t-26 110.5t-68.5 73t-91.5 25.5t-92 -25.5t-69 -73t-26 -110.5t26 -110.5t69 -73t92 -25.5
t91.5 25.5zM413 826h57l-51 -92h-39zM170 614l78 92h61l79 -92h-47l-54 58h-19l-52 -58h-46z" />
    <glyph glyph-name="uni1ED2" unicode="&#x1ed2;" horiz-adv-x="824" 
d="M217.5 32q-80.5 48 -126.5 130.5t-46 180.5t46 180.5t126.5 130.5t179.5 48t179.5 -48t126.5 -130.5t46 -180.5t-46 -180.5t-126.5 -130.5t-179.5 -48t-179.5 48zM546 74.5q68 39.5 107.5 109.5t39.5 159t-39.5 159t-107.5 109.5t-149 39.5t-149 -39.5t-107.5 -109.5
t-39.5 -159t39.5 -159t107.5 -109.5t149 -39.5t149 39.5zM457 970h57l33 -92h-38zM286 758l80 91h61l81 -91h-47l-55 57h-21l-53 -57h-46z" />
    <glyph glyph-name="uni1ED3" unicode="&#x1ed3;" horiz-adv-x="586" 
d="M153 18q-55 34 -86 92.5t-31 129.5t31 129.5t86 92.5t125 34t125 -34t86 -92.5t31 -129.5t-31 -129.5t-86 -92.5t-125 -34t-125 34zM369.5 56.5q42.5 25.5 68.5 73t26 110.5t-26 110.5t-68.5 73t-91.5 25.5t-92 -25.5t-69 -73t-26 -110.5t26 -110.5t69 -73t92 -25.5
t91.5 25.5zM336 826h57l32 -92h-39zM169 614l78 91h61l79 -91h-47l-54 57h-19l-52 -57h-46z" />
    <glyph glyph-name="uni1ED4" unicode="&#x1ed4;" horiz-adv-x="824" 
d="M217.5 32q-80.5 48 -126.5 130.5t-46 180.5t46 180.5t126.5 130.5t179.5 48t179.5 -48t126.5 -130.5t46 -180.5t-46 -180.5t-126.5 -130.5t-179.5 -48t-179.5 48zM546 74.5q68 39.5 107.5 109.5t39.5 159t-39.5 159t-107.5 109.5t-149 39.5t-149 -39.5t-107.5 -109.5
t-39.5 -159t39.5 -159t107.5 -109.5t149 -39.5t149 39.5zM520 848q21 15 21 44q0 24 -14.5 37t-38.5 13q-21 0 -19 1v25q10 2 27 2q41 0 61 -17t20 -50q0 -52 -40 -75zM287 758l80 91h61l81 -91h-47l-55 57h-21l-53 -57h-46z" />
    <glyph glyph-name="uni1ED5" unicode="&#x1ed5;" horiz-adv-x="586" 
d="M153 18q-55 34 -86 92.5t-31 129.5t31 129.5t86 92.5t125 34t125 -34t86 -92.5t31 -129.5t-31 -129.5t-86 -92.5t-125 -34t-125 34zM369.5 56.5q42.5 25.5 68.5 73t26 110.5t-26 110.5t-68.5 73t-91.5 25.5t-92 -25.5t-69 -73t-26 -110.5t26 -110.5t69 -73t92 -25.5
t91.5 25.5zM403 693q24 32 24 55q0 24 -14 37t-37 13q-20 0 -19 1v25q10 2 27 2q41 0 60.5 -17t19.5 -50q0 -23 -14 -45t-33 -39zM170 614l78 91h61l79 -91h-47l-54 57h-19l-52 -57h-46z" />
    <glyph glyph-name="uni1ED6" unicode="&#x1ed6;" horiz-adv-x="824" 
d="M217.5 32q-80.5 48 -126.5 130.5t-46 180.5t46 180.5t126.5 130.5t179.5 48t179.5 -48t126.5 -130.5t46 -180.5t-46 -180.5t-126.5 -130.5t-179.5 -48t-179.5 48zM546 74.5q68 39.5 107.5 109.5t39.5 159t-39.5 159t-107.5 109.5t-149 39.5t-149 -39.5t-107.5 -109.5
t-39.5 -159t39.5 -159t107.5 -109.5t149 -39.5t149 39.5zM342 970q15 0 28 -4.5t29 -12.5q11 -6 23 -10.5t24 -4.5q39 0 45 32h34q0 -19 -21 -38.5t-52 -19.5q-17 0 -30 4.5t-29 12.5q-27 15 -45 15q-39 0 -45 -32h-34q0 19 21 38.5t52 19.5zM286 758l80 91h61l81 -91h-47
l-55 57h-21l-53 -57h-46z" />
    <glyph glyph-name="uni1ED7" unicode="&#x1ed7;" horiz-adv-x="586" 
d="M153 18q-55 34 -86 92.5t-31 129.5t31 129.5t86 92.5t125 34t125 -34t86 -92.5t31 -129.5t-31 -129.5t-86 -92.5t-125 -34t-125 34zM369.5 56.5q42.5 25.5 68.5 73t26 110.5t-26 110.5t-68.5 73t-91.5 25.5t-92 -25.5t-69 -73t-26 -110.5t26 -110.5t69 -73t92 -25.5
t91.5 25.5zM172.5 806.5q20.5 19.5 51.5 19.5q15 0 28 -4.5t29 -12.5q10 -6 21.5 -10.5t23.5 -4.5q37 0 43 32h35q0 -19 -20.5 -38.5t-51.5 -19.5q-17 0 -30 4.5t-29 12.5q-26 15 -43 15q-37 0 -43 -32h-35q0 19 20.5 38.5zM169 614l78 91h61l79 -91h-47l-54 57h-19l-52 -57
h-46z" />
    <glyph glyph-name="uni1ED8" unicode="&#x1ed8;" horiz-adv-x="824" 
d="M217.5 32q-80.5 48 -126.5 130.5t-46 180.5t46 180.5t126.5 130.5t179.5 48t179.5 -48t126.5 -130.5t46 -180.5t-46 -180.5t-126.5 -130.5t-179.5 -48t-179.5 48zM546 74.5q68 39.5 107.5 109.5t39.5 159t-39.5 159t-107.5 109.5t-149 39.5t-149 -39.5t-107.5 -109.5
t-39.5 -159t39.5 -159t107.5 -109.5t149 -39.5t149 39.5zM369.5 -180.5q-11.5 11.5 -11.5 27.5q0 17 11.5 27.5t27.5 10.5q17 0 27.5 -10.5t10.5 -27.5q0 -16 -10.5 -27.5t-27.5 -11.5q-16 0 -27.5 11.5zM287 779l80 91h61l80 -91h-46l-54 63h-22l-53 -63h-46z" />
    <glyph glyph-name="uni1ED9" unicode="&#x1ed9;" horiz-adv-x="586" 
d="M153 18q-55 34 -86 92.5t-31 129.5t31 129.5t86 92.5t125 34t125 -34t86 -92.5t31 -129.5t-31 -129.5t-86 -92.5t-125 -34t-125 34zM369.5 56.5q42.5 25.5 68.5 73t26 110.5t-26 110.5t-68.5 73t-91.5 25.5t-92 -25.5t-69 -73t-26 -110.5t26 -110.5t69 -73t92 -25.5
t91.5 25.5zM250.5 -180.5q-11.5 11.5 -11.5 27.5q0 17 11.5 27.5t27.5 10.5q17 0 27.5 -10.5t10.5 -27.5q0 -16 -10.5 -27.5t-27.5 -11.5q-16 0 -27.5 11.5zM170 614l78 92h61l78 -92h-46l-53 64h-20l-52 -64h-46z" />
    <glyph glyph-name="uni1EDA" unicode="&#x1eda;" horiz-adv-x="824" 
d="M217.5 32q-80.5 48 -126.5 130.5t-46 180.5t46 180.5t126.5 130.5t179.5 48q35 0 68 -3t42 -4q69 -9 146 -9q35 0 50.5 13.5t15.5 41.5v53h38v-53q0 -47 -21.5 -68t-68.5 -21q-25 0 -70 8v-30q79 -52 115.5 -125.5t36.5 -161.5q0 -98 -46 -180.5t-126.5 -130.5
t-179.5 -48t-179.5 48zM546 74.5q68 39.5 107.5 109.5t39.5 159t-39.5 159t-107.5 109.5t-149 39.5t-149 -39.5t-107.5 -109.5t-39.5 -159t39.5 -159t107.5 -109.5t149 -39.5t149 39.5zM415 870h57l-54 -97h-43z" />
    <glyph glyph-name="uni1EDB" unicode="&#x1edb;" horiz-adv-x="586" 
d="M153 18q-55 34 -86 92.5t-31 129.5t31 129.5t86 92.5t125 34q33 0 74 -8q44 -8 71 -8q38 0 55 13.5t17 41.5v53h39v-53q0 -40 -16 -61.5t-46 -21.5q-8 0 -33 8v-31q81 -73 81 -189q0 -71 -30.5 -129.5t-86 -92.5t-125.5 -34t-125 34zM370 56.5q43 25.5 68.5 73
t25.5 110.5t-25.5 110.5t-68.5 73t-92 25.5t-92 -25.5t-69 -73t-26 -110.5t26 -110.5t69 -73t92 -25.5t92 25.5zM295 706h57l-52 -97h-44z" />
    <glyph glyph-name="uni1EDC" unicode="&#x1edc;" horiz-adv-x="824" 
d="M217.5 32q-80.5 48 -126.5 130.5t-46 180.5t46 180.5t126.5 130.5t179.5 48q35 0 68 -3t42 -4q69 -9 146 -9q35 0 50.5 13.5t15.5 41.5v53h38v-53q0 -47 -21.5 -68t-68.5 -21q-25 0 -70 8v-30q79 -52 115.5 -125.5t36.5 -161.5q0 -98 -46 -180.5t-126.5 -130.5
t-179.5 -48t-179.5 48zM546 74.5q68 39.5 107.5 109.5t39.5 159t-39.5 159t-107.5 109.5t-149 39.5t-149 -39.5t-107.5 -109.5t-39.5 -159t39.5 -159t107.5 -109.5t149 -39.5t149 39.5zM305 870h58l40 -97h-44z" />
    <glyph glyph-name="uni1EDD" unicode="&#x1edd;" horiz-adv-x="586" 
d="M153 18q-55 34 -86 92.5t-31 129.5t31 129.5t86 92.5t125 34q33 0 74 -8q44 -8 71 -8q38 0 55 13.5t17 41.5v53h39v-53q0 -40 -16 -61.5t-46 -21.5q-8 0 -33 8v-31q81 -73 81 -189q0 -71 -30.5 -129.5t-86 -92.5t-125.5 -34t-125 34zM370 56.5q43 25.5 68.5 73
t25.5 110.5t-25.5 110.5t-68.5 73t-92 25.5t-92 -25.5t-69 -73t-26 -110.5t26 -110.5t69 -73t92 -25.5t92 25.5zM188 706h58l39 -97h-45z" />
    <glyph glyph-name="uni1EDE" unicode="&#x1ede;" horiz-adv-x="824" 
d="M217.5 32q-80.5 48 -126.5 130.5t-46 180.5t46 180.5t126.5 130.5t179.5 48q35 0 68 -3t42 -4q69 -9 146 -9q35 0 50.5 13.5t15.5 41.5v53h38v-53q0 -47 -21.5 -68t-68.5 -21q-25 0 -70 8v-30q79 -52 115.5 -125.5t36.5 -161.5q0 -98 -46 -180.5t-126.5 -130.5
t-179.5 -48t-179.5 48zM546 74.5q68 39.5 107.5 109.5t39.5 159t-39.5 159t-107.5 109.5t-149 39.5t-149 -39.5t-107.5 -109.5t-39.5 -159t39.5 -159t107.5 -109.5t149 -39.5t149 39.5zM369 788q55 18 55 68q0 25 -17 38.5t-43 13.5q-30 0 -48 -8l-13 26q22 10 69 10
q43 0 65.5 -19.5t22.5 -56.5q0 -41 -27 -66.5t-56 -31.5z" />
    <glyph glyph-name="uni1EDF" unicode="&#x1edf;" horiz-adv-x="586" 
d="M153 18q-55 34 -86 92.5t-31 129.5t31 129.5t86 92.5t125 34q33 0 74 -8q44 -8 71 -8q38 0 55 13.5t17 41.5v53h39v-53q0 -40 -16 -61.5t-46 -21.5q-8 0 -33 8v-31q81 -73 81 -189q0 -71 -30.5 -129.5t-86 -92.5t-125.5 -34t-125 34zM370 56.5q43 25.5 68.5 73
t25.5 110.5t-25.5 110.5t-68.5 73t-92 25.5t-92 -25.5t-69 -73t-26 -110.5t26 -110.5t69 -73t92 -25.5t92 25.5zM252 602q20 5 36.5 19.5t16.5 42.5q0 24 -15 38t-42 14q-29 0 -46 -8l-8 27q21 9 62 9q42 0 64.5 -19.5t22.5 -56.5q0 -40 -25 -63.5t-58 -28.5z" />
    <glyph glyph-name="uni1EE0" unicode="&#x1ee0;" horiz-adv-x="824" 
d="M217.5 32q-80.5 48 -126.5 130.5t-46 180.5t46 180.5t126.5 130.5t179.5 48q35 0 68 -3t42 -4q69 -9 146 -9q35 0 50.5 13.5t15.5 41.5v53h38v-53q0 -47 -21.5 -68t-68.5 -21q-25 0 -70 8v-30q79 -52 115.5 -125.5t36.5 -161.5q0 -98 -46 -180.5t-126.5 -130.5
t-179.5 -48t-179.5 48zM546 74.5q68 39.5 107.5 109.5t39.5 159t-39.5 159t-107.5 109.5t-149 39.5t-149 -39.5t-107.5 -109.5t-39.5 -159t39.5 -159t107.5 -109.5t149 -39.5t149 39.5zM424.5 786.5q-15.5 6.5 -39.5 20.5q-33 20 -48 20q-47 0 -50 -37h-41q0 19 13.5 40.5
t35.5 32.5t43 11q27 0 72 -28q34 -19 47 -19q47 0 50 37h41q0 -33 -29 -58.5t-64 -25.5q-15 0 -30.5 6.5z" />
    <glyph glyph-name="uni1EE1" unicode="&#x1ee1;" horiz-adv-x="586" 
d="M153 18q-55 34 -86 92.5t-31 129.5t31 129.5t86 92.5t125 34q33 0 74 -8q44 -8 71 -8q38 0 55 13.5t17 41.5v53h39v-53q0 -40 -16 -61.5t-46 -21.5q-8 0 -33 8v-31q81 -73 81 -189q0 -71 -30.5 -129.5t-86 -92.5t-125.5 -34t-125 34zM370 56.5q43 25.5 68.5 73
t25.5 110.5t-25.5 110.5t-68.5 73t-92 25.5t-92 -25.5t-69 -73t-26 -110.5t26 -110.5t69 -73t92 -25.5t92 25.5zM304.5 622.5q-15.5 6.5 -38.5 20.5q-32 20 -46 20q-45 0 -48 -37h-42q0 33 28 58t63 25q27 0 71 -28q32 -19 45 -19q45 0 47 37h42q0 -33 -28 -58t-63 -25
q-15 0 -30.5 6.5z" />
    </font>
</defs>
</svg>
